<?xml version="1.0" encoding="utf-8"?>
<!-- Generator: Adobe Illustrator 15.0.0, SVG Export Plug-In . SVG Version: 6.00 Build 0)  -->
<!DOCTYPE svg PUBLIC "-//W3C//DTD SVG 1.1//EN" "http://www.w3.org/Graphics/SVG/1.1/DTD/svg11.dtd">
<svg version="1.1" id="レイヤー_1" xmlns="http://www.w3.org/2000/svg" xmlns:xlink="http://www.w3.org/1999/xlink" x="0px"
	 y="0px" width="170.594px" height="91.507px" viewBox="0 0 170.594 91.507" enable-background="new 0 0 170.594 91.507"
	 xml:space="preserve">
<path id="パス_45" fill="#ECF3FC" d="M162.876,21.28c-16.545-19.329-42.283-4.3-42.283-4.3s-6.74-11.812-24.2-16.108
	S62.077,9.463,62.077,9.463C22.552-1.737-0.734,21.428,4.322,50.421c5.057,28.994,38.606,23.472,38.606,23.472l0.5,0.407
	c-3.112,4.671-6.911,8.847-11.269,12.386c6.467-0.294,12.783-2.049,18.475-5.132c10.536,8.906,24.274,3.719,24.274,3.719
	s0.648,2.579,12.75,3.193c7.35,0.275,14.509-2.369,19.913-7.356c0,0,5.362,7.21,19.609,6.749c20.682-1.227,21.6-19.329,21.6-19.329
	C166.859,59.169,179.421,40.61,162.876,21.28z"/>
<path fill="#186CCC" d="M24.413,76.349c-0.1,0-0.202-0.01-0.303-0.03c-7.978-1.64-14.495-6.204-18.845-13.202
	c-5-8.042-6.475-18.615-3.947-28.284c0.209-0.802,1.03-1.279,1.831-1.072C3.95,33.97,4.429,34.79,4.22,35.591
	c-2.324,8.888-0.981,18.585,3.592,25.941c3.905,6.281,9.75,10.378,16.901,11.847c0.812,0.167,1.334,0.96,1.167,1.771
	C25.735,75.861,25.11,76.349,24.413,76.349z"/>
<path fill="#186CCC" d="M31.018,90.372c-0.065,0-0.129-0.001-0.193-0.001c-0.635-0.004-1.199-0.406-1.408-1.007
	c-0.209-0.6-0.018-1.266,0.478-1.663c3.564-2.86,6.617-6.219,9.103-10.015c-2.896,0.326-5.847,0.179-8.687-0.444
	c-0.809-0.177-1.322-0.977-1.145-1.786s0.979-1.327,1.786-1.144c3.501,0.765,7.192,0.721,10.675-0.134
	c0.579-0.143,1.187,0.073,1.549,0.546c0.362,0.474,0.41,1.116,0.121,1.638c-2.211,3.993-4.962,7.594-8.205,10.746
	c4.907-0.639,9.581-2.431,13.708-5.279c0.682-0.473,1.616-0.299,2.086,0.382c0.471,0.683,0.299,1.616-0.382,2.087
	C44.745,88.273,38.011,90.371,31.018,90.372z"/>
<path fill="#186CCC" d="M87.237,91.344c-5.955,0-11.138-2.238-14.782-4.426c-5.435,3.048-11.979,3.342-17.692,0.752
	c-0.755-0.342-1.089-1.231-0.747-1.985c0.342-0.755,1.232-1.089,1.985-0.747c5.084,2.304,10.944,1.915,15.675-1.044
	c0.491-0.307,1.112-0.305,1.6,0.006c3.75,2.383,9.613,5.061,16.253,4.316c5.73-0.665,11.132-3.285,15.205-7.377
	c0.587-0.587,1.534-0.588,2.122-0.005c0.587,0.585,0.589,1.534,0.005,2.122c-4.551,4.57-10.585,7.497-16.991,8.24
	C88.978,91.297,88.099,91.344,87.237,91.344z"/>
<path fill="#186CCC" d="M123.443,91.562c-5.107,0-10.088-1.545-14.378-4.513c-0.682-0.471-0.852-1.405-0.38-2.087
	c0.471-0.683,1.405-0.853,2.087-0.38c4.913,3.399,10.854,4.68,16.733,3.61c5.878-1.071,10.986-4.366,14.386-9.28
	c1.823-2.635,3.038-5.569,3.611-8.723c0.106-0.584,0.548-1.052,1.125-1.19c4.922-1.181,8.839-4.396,11.977-9.828
	c0.414-0.718,1.333-0.963,2.049-0.549c0.718,0.414,0.963,1.332,0.549,2.049c-3.375,5.845-7.614,9.451-12.938,10.998
	c-0.709,3.219-2.021,6.226-3.906,8.95c-3.854,5.572-9.648,9.311-16.314,10.524C126.509,91.423,124.97,91.562,123.443,91.562z"/>
<path fill="#186CCC" d="M164.326,56.489c-0.352,0-0.705-0.123-0.99-0.374c-0.622-0.548-0.682-1.495-0.135-2.117
	c2.238-2.543,3.565-5.807,3.736-9.19c0.042-0.827,0.766-1.464,1.573-1.422c0.828,0.042,1.465,0.746,1.423,1.574
	c-0.205,4.058-1.796,7.972-4.48,11.021C165.156,56.317,164.742,56.489,164.326,56.489z"/>
</svg>
