<?xml version="1.0" encoding="utf-8"?>
<!-- Generator: Adobe Illustrator 15.0.0, SVG Export Plug-In . SVG Version: 6.00 Build 0)  -->
<!DOCTYPE svg PUBLIC "-//W3C//DTD SVG 1.1//EN" "http://www.w3.org/Graphics/SVG/1.1/DTD/svg11.dtd">
<svg version="1.1" id="レイヤー_1" xmlns="http://www.w3.org/2000/svg" xmlns:xlink="http://www.w3.org/1999/xlink" x="0px"
	 y="0px" width="32px" height="32px" viewBox="0 0 32 32" enable-background="new 0 0 32 32" xml:space="preserve">
<g id="グループ_6" transform="translate(-800 -439.851)">
	<circle id="楕円形_1" fill="#4CC764" cx="816" cy="455.851" r="16"/>
	<g id="グループ_5" transform="translate(805.31 446.241)">
		<g id="グループ_4">
			<g id="グループ_2">
				<path id="パス_1" fill="#FFFFFF" d="M21.37,8.671C21.37,3.89,16.577,0,10.685,0C4.793,0,0,3.89,0,8.671
					c0,4.287,3.8,7.876,8.936,8.554c0.348,0.076,0.822,0.229,0.941,0.527c0.083,0.316,0.095,0.646,0.035,0.967
					c0,0-0.125,0.754-0.153,0.914c-0.047,0.271-0.215,1.058,0.926,0.576c3.099-1.629,5.931-3.719,8.399-6.199l0,0
					C20.512,12.596,21.333,10.68,21.37,8.671z"/>
			</g>
			<g id="グループ_3" transform="translate(3.505 6.361)">
				<path id="パス_2" fill="#4CC764" d="M14.31,5.071c0.11,0,0.2-0.09,0.2-0.2l0,0V4.112c0-0.109-0.09-0.199-0.2-0.199l0,0h-2.04
					V3.115h2.04c0.11,0,0.2-0.089,0.2-0.2l0,0V2.157c0-0.11-0.09-0.2-0.2-0.2l0,0h-2.04V1.17h2.04c0.11,0,0.2-0.089,0.2-0.2l0,0
					V0.212c0-0.11-0.09-0.2-0.2-0.2l0,0h-3c-0.11,0-0.2,0.09-0.2,0.2l0,0l0,0l0,0v4.654l0,0l0,0c0,0.111,0.09,0.201,0.2,0.201l0,0h3
					V5.071z"/>
				<path id="パス_3" fill="#4CC764" d="M3.206,5.071c0.11,0,0.2-0.09,0.2-0.2l0,0V4.112c0-0.109-0.09-0.199-0.2-0.199l0,0h-2.04
					v-3.7c0-0.11-0.089-0.2-0.2-0.2l0,0H0.208c-0.11,0-0.2,0.09-0.2,0.2l0,0v4.66l0,0l0,0c0,0.11,0.09,0.2,0.2,0.2l0,0h3
					L3.206,5.071z"/>
				<path id="長方形_3" fill="#4CC764" d="M4.634,0L4.634,0c0.322,0,0.583,0.261,0.583,0.583v3.904
					c0,0.322-0.261,0.584-0.583,0.584l0,0c-0.322,0-0.583-0.262-0.583-0.584V0.583C4.051,0.261,4.312,0,4.634,0z"/>
				<path id="パス_4" fill="#4CC764" d="M10.171,0H9.414C9.304,0,9.214,0.089,9.214,0.2l0,0V2.97L7.08,0.089
					C7.075,0.082,7.07,0.075,7.064,0.068l0,0L7.052,0.055l0,0L7.041,0.046H7.036L7.025,0.039H7.019L7.008,0.033H7.001L6.989,0.028
					H6.982H6.97H6.963H6.951H6.16c-0.111,0-0.2,0.09-0.2,0.2l0,0v4.664c0,0.109,0.089,0.199,0.2,0.199l0,0h0.758
					c0.11,0,0.2-0.09,0.2-0.199l0,0v-2.77l2.135,2.885c0.016,0.021,0.033,0.037,0.054,0.051l0,0L9.32,5.065h0.006h0.01h0.01h0.007
					h0.014l0,0c0.018,0.006,0.035,0.008,0.054,0.008h0.754c0.109,0,0.199-0.09,0.199-0.2l0,0V0.21C10.378,0.1,10.293,0.006,10.183,0
					C10.179,0,10.175,0,10.171,0z"/>
			</g>
		</g>
	</g>
</g>
</svg>
