<?xml version="1.0" encoding="UTF-8"?>
<svg id="_レイヤー_1" data-name="レイヤー_1" xmlns="http://www.w3.org/2000/svg" version="1.1" viewBox="0 0 55 55">
  <!-- Generator: Adobe Illustrator 29.1.0, SVG Export Plug-In . SVG Version: 2.1.0 Build 142)  -->
  <defs>
    <style>
      .st0 {
        fill: #fff;
      }
    </style>
  </defs>
  <path class="st0" d="M47.5,19.3v19.3c0,7.1-5,10-10.5,10s-10.5-3-10.5-10v-19.3c0-7.1,5-10,10.5-10s10.5,2.9,10.5,10ZM42.3,19.3c0-3.4-1.7-4.8-5.3-4.8s-5.3,1.4-5.3,4.8v19.3c0,3.4,1.7,4.8,5.3,4.8s5.3-1.5,5.3-4.8v-19.3Z"/>
  <path class="st0" d="M8.3,33.4h3.1l-5.1-10.3h3.6l4.1,8.3,4.1-8.3h3.6l-5.1,10.3h3.1v3.2h-4.1v2.8h4.1v3.2h-4.1v4.3h-3.2v-4.3h-4.1v-3.2h4.1v-2.8h-4.1v-3.2Z"/>
</svg>