<?xml version="1.0" encoding="utf-8"?>
<!-- Generator: Adobe Illustrator 15.0.0, SVG Export Plug-In . SVG Version: 6.00 Build 0)  -->
<!DOCTYPE svg PUBLIC "-//W3C//DTD SVG 1.1//EN" "http://www.w3.org/Graphics/SVG/1.1/DTD/svg11.dtd">
<svg version="1.1" id="レイヤー_1" xmlns="http://www.w3.org/2000/svg" xmlns:xlink="http://www.w3.org/1999/xlink" x="0px"
	 y="0px" width="32px" height="32px" viewBox="0 0 32 32" enable-background="new 0 0 32 32" xml:space="preserve">
<g id="ベタ塗りのドキュメント" transform="translate(953.052 3500)">
	<path id="パス_887" fill="#FFFFFF" d="M-929.945-3496h-8.844v6.063c-0.001,0.669-0.542,1.212-1.211,1.214h-6.05v14.059
		c0,0.547,0.443,0.99,0.99,0.99h15.115c0.547,0,0.99-0.443,0.99-0.99v-20.347C-928.955-3495.557-929.398-3496-929.945-3496z
		 M-931.956-3477.064h-11.093v-1.061h11.093V-3477.064z M-931.956-3481.365h-11.093v-1.06h11.093V-3481.365z M-931.956-3485.665
		h-11.093v-1.056h11.093V-3485.665z M-931.956-3489.965h-5.229v-1.054h5.229V-3489.965z"/>
	<path id="パス_888" fill="#FFFFFF" d="M-939.919-3490.617v-5.084l-5.846,5.847h5.083
		C-940.133-3489.854-939.919-3490.066-939.919-3490.617z"/>
</g>
</svg>
