<?xml version="1.0" encoding="utf-8"?>
<!-- Generator: Adobe Illustrator 15.0.0, SVG Export Plug-In . SVG Version: 6.00 Build 0)  -->
<!DOCTYPE svg PUBLIC "-//W3C//DTD SVG 1.1//EN" "http://www.w3.org/Graphics/SVG/1.1/DTD/svg11.dtd">
<svg version="1.1" id="レイヤー_2" xmlns="http://www.w3.org/2000/svg" xmlns:xlink="http://www.w3.org/1999/xlink" x="0px"
	 y="0px" width="38px" height="38px" viewBox="0 0 38 38" enable-background="new 0 0 38 38" xml:space="preserve">
<g id="_1106_sy_m" transform="translate(543.5 7679.5)">
	<path fill="#FFFFFF" d="M-524-7642.5c-9.649,0-17.5-7.851-17.5-17.5c0-9.649,7.851-17.5,17.5-17.5s17.5,7.851,17.5,17.5
		C-506.5-7650.351-514.351-7642.5-524-7642.5z M-524-7675.5c-8.547,0-15.5,6.953-15.5,15.5c0,8.547,6.953,15.5,15.5,15.5
		s15.5-6.953,15.5-15.5C-508.5-7668.547-515.453-7675.5-524-7675.5z"/>
	<circle id="楕円形_153" fill="#FFFFFF" cx="-523.857" cy="-7652.692" r="1.507"/>
	<path fill="#FFFFFF" d="M-523.857-7656.072c-0.002,0-0.003,0-0.005,0c-0.552-0.003-0.998-0.453-0.995-1.005
		c0.004-0.896,0.144-1.78,0.415-2.629c0.01-0.033,0.023-0.065,0.037-0.098c0.398-0.908,1.052-1.667,1.89-2.196
		c1.115-0.579,1.767-1.637,1.775-2.806c0.004-0.153-0.002-0.288-0.02-0.422c-0.183-1.457-1.524-2.488-2.972-2.309
		c-0.054,0.007-0.11,0.009-0.166,0.007c-1.61-0.061-2.998,1.186-3.096,2.793c-0.033,0.551-0.491,0.979-1.059,0.937
		c-0.551-0.034-0.971-0.508-0.937-1.059c0.163-2.658,2.487-4.74,5.091-4.672c2.52-0.272,4.805,1.529,5.123,4.052
		c0.029,0.234,0.041,0.47,0.035,0.708c-0.015,1.896-1.081,3.63-2.783,4.507c-0.412,0.264-0.791,0.699-1.029,1.218
		c-0.198,0.64-0.301,1.306-0.304,1.979C-522.86-7656.517-523.308-7656.072-523.857-7656.072z"/>
</g>
</svg>
