<?xml version="1.0" encoding="UTF-8"?>
<svg id="_レイヤー_1" data-name="レイヤー_1" xmlns="http://www.w3.org/2000/svg" version="1.1" viewBox="0 0 55 55">
  <!-- Generator: Adobe Illustrator 29.1.0, SVG Export Plug-In . SVG Version: 2.1.0 Build 142)  -->
  <defs>
    <style>
      .st0 {
        fill: #fff;
      }
    </style>
  </defs>
  <path id="_パス_1" data-name="パス_1" class="st0" d="M18.5,45.7h-4.3V4.2h10.1l11.3-3.2H11v47.9h7.5v-3.2Z"/>
  <path id="_パス_2" data-name="パス_2" class="st0" d="M22.6,7.1c-1,.3-1.7,1.3-1.8,2.4v44c0,.7.5,1.4,1.2,1.4.2,0,.4,0,.6,0l19.7-5.6s0,0,0,0l1.7-.5V1l-21.5,6.1ZM25.9,33.7c-1.2,0-2.2-1-2.2-2.2s1-2.2,2.2-2.2c1.2,0,2.2,1,2.2,2.2h0c0,1.2-1,2.2-2.2,2.2h0,0Z"/>
</svg>