<?xml version="1.0" encoding="utf-8"?>
<!-- Generator: Adobe Illustrator 15.0.0, SVG Export Plug-In . SVG Version: 6.00 Build 0)  -->
<!DOCTYPE svg PUBLIC "-//W3C//DTD SVG 1.1//EN" "http://www.w3.org/Graphics/SVG/1.1/DTD/svg11.dtd">
<svg version="1.1" id="レイヤー_2" xmlns="http://www.w3.org/2000/svg" xmlns:xlink="http://www.w3.org/1999/xlink" x="0px"
	 y="0px" width="38px" height="38px" viewBox="0 0 38 38" enable-background="new 0 0 38 38" xml:space="preserve">
<g>
	<path fill="#FFFFFF" d="M28.521,15.981c2.315,0,4.199-1.884,4.199-4.199s-1.884-4.199-4.199-4.199
		c-2.314,0-4.198,1.883-4.198,4.199S26.207,15.981,28.521,15.981z M28.521,9.583c1.213,0,2.199,0.986,2.199,2.199
		c0,1.213-0.986,2.199-2.199,2.199c-1.212,0-2.198-0.986-2.198-2.199C26.323,10.569,27.31,9.583,28.521,9.583z"/>
	<path fill="#FFFFFF" d="M9.919,15.981c2.315,0,4.199-1.884,4.199-4.199s-1.884-4.199-4.199-4.199S5.72,9.466,5.72,11.782
		S7.604,15.981,9.919,15.981z M9.919,9.583c1.213,0,2.199,0.986,2.199,2.199c0,1.213-0.986,2.199-2.199,2.199
		c-1.212,0-2.199-0.986-2.199-2.199C7.72,10.569,8.707,9.583,9.919,9.583z"/>
	<path fill="#FFFFFF" d="M19.527,19.043c2.315,0,4.199-1.883,4.199-4.199s-1.884-4.199-4.199-4.199
		c-2.315,0-4.198,1.884-4.198,4.199S17.212,19.043,19.527,19.043z M19.527,12.645c1.213,0,2.199,0.986,2.199,2.199
		c0,1.212-0.986,2.199-2.199,2.199c-1.212,0-2.198-0.986-2.198-2.199C17.329,13.631,18.315,12.645,19.527,12.645z"/>
	<path fill="#FFFFFF" d="M37.619,24.368c0.172-3.472-2.511-6.453-6.037-6.649l-6.181,0.001c-2.167,0.121-4.015,1.337-5.063,3.062
		h-2.25c-1.055-1.729-2.912-2.941-5.109-3.063l-6.181,0.001c-3.471,0.194-6.154,3.176-5.982,6.598v1.601c0,0.553,0.448,1,1,1
		s1-0.447,1-1l-0.001-1.65c-0.118-2.376,1.719-4.418,4.04-4.55l6.069-0.001c1.047,0.059,1.983,0.494,2.699,1.164
		c-3.08,0.563-5.355,3.341-5.198,6.499v1.6c0,0.553,0.448,1,1,1s1-0.447,1-1l-0.001-1.649c-0.118-2.377,1.719-4.419,4.04-4.55
		l6.069-0.002c2.376,0.133,4.213,2.175,4.094,4.602v1.6c0,0.553,0.447,1,1,1s1-0.447,1-1l-0.001-1.55
		c0.167-3.375-2.366-6.28-5.748-6.619c0.698-0.628,1.592-1.037,2.58-1.093l6.069-0.001c2.376,0.133,4.213,2.175,4.094,4.601v1.601
		c0,0.553,0.447,1,1,1s1-0.447,1-1L37.619,24.368z"/>
</g>
</svg>
