<?xml version="1.0" encoding="utf-8"?>
<!-- Generator: Adobe Illustrator 15.0.0, SVG Export Plug-In . SVG Version: 6.00 Build 0)  -->
<!DOCTYPE svg PUBLIC "-//W3C//DTD SVG 1.1//EN" "http://www.w3.org/Graphics/SVG/1.1/DTD/svg11.dtd">
<svg version="1.1" id="レイヤー_2" xmlns="http://www.w3.org/2000/svg" xmlns:xlink="http://www.w3.org/1999/xlink" x="0px"
	 y="0px" width="38px" height="38px" viewBox="0 0 38 38" enable-background="new 0 0 38 38" xml:space="preserve">
<g>
	<path fill="#FFFFFF" d="M32.736,6.985h-2.4c-0.553,0-1,0.448-1,1s0.447,1,1,1h2.4c0.331,0,0.6,0.269,0.6,0.6v22.354
		c0,0.331-0.269,0.6-0.6,0.6H5.592c-0.331,0-0.6-0.269-0.6-0.6V9.585c0-0.331,0.269-0.6,0.6-0.6H12V11c0,0.552,0.448,1,1,1
		s1-0.448,1-1V5c0-0.552-0.448-1-1-1s-1,0.448-1,1v1.985H5.592c-1.434,0-2.6,1.167-2.6,2.6v22.354c0,1.434,1.166,2.6,2.6,2.6h27.145
		c1.434,0,2.6-1.166,2.6-2.6V9.585C35.336,8.151,34.17,6.985,32.736,6.985z"/>
	<path fill="#FFFFFF" d="M18,9h7v2c0,0.552,0.447,1,1,1s1-0.448,1-1V5c0-0.552-0.447-1-1-1s-1,0.448-1,1v2h-7c-0.552,0-1,0.448-1,1
		S17.448,9,18,9z"/>
	<path fill="#FFFFFF" d="M28,17h2c0.553,0,1-0.448,1-1s-0.447-1-1-1h-2c-0.553,0-1,0.448-1,1S27.447,17,28,17z"/>
	<path fill="#FFFFFF" d="M10,15H9c-0.552,0-1,0.448-1,1s0.448,1,1,1h1c0.552,0,1-0.448,1-1S10.552,15,10,15z"/>
	<path fill="#FFFFFF" d="M15,17h2c0.552,0,1-0.448,1-1s-0.448-1-1-1h-2c-0.552,0-1,0.448-1,1S14.448,17,15,17z"/>
	<path fill="#FFFFFF" d="M23,15h-1c-0.553,0-1,0.448-1,1s0.447,1,1,1h1c0.553,0,1-0.448,1-1S23.553,15,23,15z"/>
	<path fill="#FFFFFF" d="M30,20h-2c-0.553,0-1,0.447-1,1s0.447,1,1,1h2c0.553,0,1-0.447,1-1S30.553,20,30,20z"/>
	<path fill="#FFFFFF" d="M10,20H9c-0.552,0-1,0.447-1,1s0.448,1,1,1h1c0.552,0,1-0.447,1-1S10.552,20,10,20z"/>
	<path fill="#FFFFFF" d="M17,20h-2c-0.552,0-1,0.447-1,1s0.448,1,1,1h2c0.552,0,1-0.447,1-1S17.552,20,17,20z"/>
	<path fill="#FFFFFF" d="M23,20h-1c-0.553,0-1,0.447-1,1s0.447,1,1,1h1c0.553,0,1-0.447,1-1S23.553,20,23,20z"/>
	<path fill="#FFFFFF" d="M10,25H9c-0.552,0-1,0.447-1,1s0.448,1,1,1h1c0.552,0,1-0.447,1-1S10.552,25,10,25z"/>
	<path fill="#FFFFFF" d="M17,25h-2c-0.552,0-1,0.447-1,1s0.448,1,1,1h2c0.552,0,1-0.447,1-1S17.552,25,17,25z"/>
	<path fill="#FFFFFF" d="M23,25h-1c-0.553,0-1,0.447-1,1s0.447,1,1,1h1c0.553,0,1-0.447,1-1S23.553,25,23,25z"/>
</g>
</svg>
