<?xml version="1.0" encoding="utf-8"?>
<!-- Generator: Adobe Illustrator 15.0.0, SVG Export Plug-In . SVG Version: 6.00 Build 0)  -->
<!DOCTYPE svg PUBLIC "-//W3C//DTD SVG 1.1//EN" "http://www.w3.org/Graphics/SVG/1.1/DTD/svg11.dtd">
<svg version="1.1" id="レイヤー_2" xmlns="http://www.w3.org/2000/svg" xmlns:xlink="http://www.w3.org/1999/xlink" x="0px"
	 y="0px" width="38px" height="38px" viewBox="0 0 38 38" enable-background="new 0 0 38 38" xml:space="preserve">
<g>
	<path fill="#FFFFFF" d="M19.157,29.421c0.256,0,0.512-0.098,0.707-0.293c0.37-0.37,9.073-9.15,9.073-15.857v-0.213
		C28.882,7.722,24.495,3.38,19.16,3.38c-0.003,0-0.103,0-0.106,0c-2.612,0.028-5.058,1.071-6.885,2.938s-2.819,4.334-2.791,6.936
		c0,6.723,8.703,15.503,9.073,15.873C18.646,29.323,18.901,29.421,19.157,29.421z M13.597,7.718
		c1.454-1.485,3.399-2.315,5.563-2.338c4.245,0,7.734,3.453,7.778,7.703v0.171c0,4.874-5.742,11.513-7.781,13.715
		c-2.039-2.202-7.78-8.837-7.78-13.726C11.354,11.166,12.143,9.204,13.597,7.718z"/>
	<path fill="#FFFFFF" d="M23,13.5c0-1.93-1.57-3.5-3.5-3.5S16,11.57,16,13.5s1.57,3.5,3.5,3.5S23,15.43,23,13.5z M18,13.5
		c0-0.827,0.673-1.5,1.5-1.5s1.5,0.673,1.5,1.5S20.327,15,19.5,15S18,14.327,18,13.5z"/>
	<path fill="#FFFFFF" d="M27.28,25.903c-0.532-0.133-1.079,0.189-1.214,0.726c-0.135,0.535,0.189,1.079,0.726,1.214
		c3.015,0.76,4.138,1.737,4.138,2.175c0,1.055-4.47,2.991-11.772,2.991c-7.302,0-11.771-1.937-11.771-2.991
		c0-0.438,1.123-1.416,4.137-2.175c0.536-0.135,0.86-0.679,0.726-1.214c-0.135-0.536-0.679-0.858-1.214-0.726
		c-3.695,0.931-5.648,2.354-5.648,4.114c0,3.276,6.928,4.991,13.771,4.991c6.844,0,13.772-1.715,13.772-4.991
		C32.93,28.257,30.977,26.834,27.28,25.903z"/>
</g>
</svg>
