<?xml version="1.0" encoding="UTF-8"?>
<svg id="_レイヤー_1" data-name="レイヤー_1" xmlns="http://www.w3.org/2000/svg" version="1.1" viewBox="0 0 55 55">
  <!-- Generator: Adobe Illustrator 29.1.0, SVG Export Plug-In . SVG Version: 2.1.0 Build 142)  -->
  <defs>
    <style>
      .st0 {
        fill: #fff;
      }
    </style>
  </defs>
  <g id="_足跡のアイコン2" data-name="足跡のアイコン2">
    <path id="_パス_46300" data-name="パス_46300" class="st0" d="M23.5,42.5c-.1,0-.3-.2-.3-.2-.5-.4-1-.9-1.4-1.4-1.3-2-1.2-5.1-.1-7.6,0,0,0,0,0,0,1.2-2.4,1.2-4.6,0-5.9-1.7-2.1-5.7-1.7-8.8.8-2.9,2.4-4,5.8-2.8,8,0,.2.2.3.3.5,0,0,.2.2.3.3,1.4,1.6,2.7,3.3,3.7,5.2,1.1,1.9,1.9,3.9,2.5,5.9,0,0,0,0,0,.1.8,2.5,3.5,3.8,5.9,3,2.4-.8,3.8-3.4,3-5.8-.4-1.3-1.3-2.3-2.5-2.9Z"/>
    <path id="_パス_46301" data-name="パス_46301" class="st0" d="M21.7,24.9c1.5-.4,2.3-2,1.9-3.5-.4-1.5-2-2.3-3.5-1.9-1.5.4-2.3,2-1.9,3.5,0,0,0,0,0,0,.4,1.5,2,2.3,3.5,1.9Z"/>
    <path id="_パス_46302" data-name="パス_46302" class="st0" d="M15.4,25.3c1.1-.3,1.7-1.5,1.4-2.6-.3-1.1-1.5-1.7-2.6-1.4-1.1.3-1.7,1.5-1.4,2.6.3,1.1,1.5,1.7,2.6,1.4Z"/>
    <path id="_パス_46303" data-name="パス_46303" class="st0" d="M11.1,27.7c1-.3,1.6-1.4,1.3-2.4s-1.4-1.6-2.4-1.3c-1,.3-1.6,1.4-1.3,2.4.3,1,1.4,1.6,2.4,1.3,0,0,0,0,0,0Z"/>
    <path id="_パス_46304" data-name="パス_46304" class="st0" d="M7.2,28.1c-.9.3-1.5,1.3-1.2,2.2.3.9,1.3,1.5,2.2,1.2s1.5-1.3,1.2-2.2c0,0,0,0,0,0-.3-.9-1.3-1.5-2.2-1.2Z"/>
    <path id="_パス_46305" data-name="パス_46305" class="st0" d="M40.9,12.5c-3.2-2.5-7.1-2.7-8.8-.5-1,1.3-1,3.5.3,5.9,0,0,0,0,0,0,1.1,2.4,1.4,5.5.1,7.6-.3.6-.8,1.1-1.3,1.5,0,0-.2.1-.3.2-1.2.6-2.1,1.7-2.4,3-.7,2.5.8,5.1,3.3,5.7,2.5.7,5-.8,5.7-3.2,0,0,0,0,0-.1.6-2.1,1.3-4.1,2.4-6,.9-1.9,2.1-3.7,3.5-5.4,0,0,.2-.2.2-.3.1-.1.2-.3.3-.5,1.2-2.2,0-5.6-3-7.9Z"/>
    <path id="_パス_46306" data-name="パス_46306" class="st0" d="M32.2,9.5c1.5.4,3-.5,3.4-2,.4-1.5-.5-3-2-3.4s-3,.5-3.4,2c0,0,0,0,0,0-.4,1.5.5,3,2,3.4Z"/>
    <path id="_パス_46307" data-name="パス_46307" class="st0" d="M38.4,9.6c1.1.3,2.3-.4,2.6-1.5.3-1.1-.4-2.3-1.5-2.6-1.1-.3-2.3.4-2.6,1.5,0,0,0,0,0,0-.3,1.1.4,2.3,1.5,2.6Z"/>
    <path id="_パス_46308" data-name="パス_46308" class="st0" d="M42.8,11.9c1,.3,2.1-.4,2.4-1.4.3-1-.4-2.1-1.4-2.4-1-.3-2.1.4-2.4,1.4,0,0,0,0,0,0-.3,1,.4,2.1,1.4,2.4Z"/>
    <path id="_パス_46309" data-name="パス_46309" class="st0" d="M46.7,12.1c-.9-.2-1.9.3-2.1,1.2-.2.9.3,1.9,1.2,2.1.9.2,1.9-.3,2.1-1.2,0,0,0,0,0,0,.2-.9-.3-1.9-1.2-2.1Z"/>
  </g>
</svg>