<?xml version="1.0" encoding="utf-8"?>
<!-- Generator: Adobe Illustrator 15.0.0, SVG Export Plug-In . SVG Version: 6.00 Build 0)  -->
<!DOCTYPE svg PUBLIC "-//W3C//DTD SVG 1.1//EN" "http://www.w3.org/Graphics/SVG/1.1/DTD/svg11.dtd">
<svg version="1.1" id="レイヤー_1" xmlns="http://www.w3.org/2000/svg" xmlns:xlink="http://www.w3.org/1999/xlink" x="0px"
	 y="0px" width="163.555px" height="50.857px" viewBox="1.306 42.707 163.555 50.857"
	 enable-background="new 1.306 42.707 163.555 50.857" xml:space="preserve">
<path id="パス_46417" fill="#243F7E" d="M146.958,80.574c0.192,0.33,0.499,0.578,0.862,0.695c0.133,0.05,0.261,0.116,0.379,0.196
	l0.053,0.096c0.134,0.271,0.393,0.46,0.692,0.503l0.003,0.055l0.009,0.133c0.01,0.311,0.249,0.565,0.558,0.595l0.229,0.021
	l0.033,0.003l0.004,0.021c0.051,0.34,0.285,0.623,0.607,0.739c0.117,0.165,0.283,0.29,0.475,0.357
	c0.031,0.012,0.063,0.026,0.092,0.044l0.096,0.075c0.041,0.026,0.082,0.049,0.127,0.067c-0.023,0.159,0.002,0.32,0.07,0.465
	c0.119,0.217,0.334,0.364,0.58,0.395c0.127,0.445,0.521,0.762,0.982,0.789c0.057,0.204,0.215,0.364,0.419,0.421
	c0.769,0.181,1.564-0.159,1.964-0.84c0.195-0.229,0.265-0.541,0.186-0.832c-0.073-0.244-0.293-0.416-0.549-0.428
	c-0.089,0-0.178-0.024-0.254-0.071c-0.06-0.069-0.135-0.123-0.22-0.158c0.021-0.08,0.032-0.162,0.03-0.245
	c0.006-0.263-0.152-0.502-0.396-0.6c-0.055-0.021-0.104-0.037-0.15-0.052c-0.168-0.053-0.185-0.059-0.23-0.203l-0.064-0.225
	c-0.051-0.381-0.307-0.702-0.667-0.837c-0.095-0.257-0.315-0.448-0.584-0.505c-0.013-0.044-0.03-0.087-0.052-0.127
	c-0.09-0.167-0.252-0.281-0.439-0.31c-0.039-0.015-0.078-0.031-0.115-0.052c-0.063-0.034-0.129-0.065-0.195-0.092
	c-0.031-0.184-0.114-0.354-0.24-0.489c-0.172-0.204-0.436-0.307-0.701-0.272c-0.183-0.461-0.572-0.81-1.051-0.939
	c-0.016-0.004-0.033-0.007-0.049-0.009c0.004-0.351-0.171-0.678-0.463-0.87c-0.374-0.195-0.787-0.302-1.209-0.31l-0.027-0.004
	c-0.151-0.258-0.391-0.451-0.675-0.545c-0.071-0.121-0.134-0.246-0.19-0.374c-0.139-0.381-0.376-0.718-0.689-0.975
	c-0.232-0.15-0.514-0.204-0.785-0.149c-0.224-0.213-0.522-0.329-0.831-0.323c-0.077-0.195-0.212-0.363-0.384-0.482l0,0
	c-0.01-0.009-0.021-0.018-0.031-0.024c-0.037-0.021-0.078-0.049-0.125-0.079l-0.143-0.095c-0.375-0.286-0.826-0.455-1.297-0.485
	c-0.084-0.084-0.184-0.153-0.293-0.202c-0.06-0.405-0.375-0.726-0.779-0.791c-0.066-0.018-0.143-0.038-0.232-0.067
	c-0.26-0.09-0.531-0.139-0.807-0.145c-0.098-0.183-0.227-0.348-0.381-0.486l-0.141-0.129l-0.031-0.025
	c-0.099-0.057-0.219-0.062-0.32-0.013c-0.156-0.134-0.359-0.201-0.564-0.187c-0.08-0.1-0.191-0.169-0.315-0.197
	c-0.042-0.081-0.102-0.151-0.173-0.207c-0.176-0.13-0.4-0.171-0.609-0.111l0,0c-0.028-0.06-0.059-0.12-0.09-0.178
	c-0.15-0.379-0.553-0.594-0.951-0.51l-0.047,0.011c-0.099-0.099-0.215-0.179-0.344-0.234c-0.044-0.123-0.122-0.231-0.225-0.312
	c-0.255-0.162-0.57-0.193-0.852-0.085l-0.019,0.005l-0.099-0.069c-0.229-0.171-0.486-0.301-0.76-0.383
	c-0.25-0.061-0.512-0.061-0.762,0l-0.045,0.009c-0.219-0.245-0.512-0.411-0.835-0.472l-0.065-0.017l-0.053-0.012
	c-0.201-0.309-0.541-0.497-0.909-0.502c-0.091,0.003-0.181,0.012-0.269,0.026l-0.031,0.006c-0.02-0.015-0.036-0.028-0.055-0.043
	c-0.203-0.166-0.453-0.264-0.715-0.279c-0.187-0.063-0.361-0.156-0.518-0.277c-0.404-0.344-0.936-0.499-1.463-0.429
	c-0.164-0.006-0.326-0.042-0.479-0.107c-0.208-0.072-0.423-0.124-0.642-0.153c-0.316-0.479-1.128-0.618-2.583-0.446l-0.035,0.004
	c-0.154-0.271-0.406-0.472-0.705-0.561l-0.061-0.048l-0.029-0.022c-0.289-0.274-0.698-0.381-1.085-0.284
	c-0.024-0.02-0.046-0.044-0.073-0.068c-0.34-0.221-0.742-0.324-1.146-0.295l-0.035-0.002c-0.068,0-0.136-0.004-0.203-0.013
	c-0.021-0.024-0.043-0.057-0.069-0.093c-0.081-0.119-0.179-0.226-0.29-0.318c-0.225-0.175-0.519-0.238-0.796-0.17
	c-0.088,0.02-0.173,0.052-0.251,0.097c-0.238-0.339-0.705-0.42-1.043-0.183c-0.001,0-0.002,0.001-0.002,0.001
	c-0.254-0.1-0.531-0.12-0.797-0.06c-0.058-0.104-0.137-0.197-0.23-0.271c-0.311-0.227-0.729-0.24-1.054-0.035
	c-0.056-0.059-0.116-0.11-0.183-0.156c-0.486-0.28-1.05-0.396-1.607-0.329c-0.145-0.108-0.328-0.151-0.506-0.118
	c-0.199,0.032-0.389,0.104-0.559,0.21c-0.188-0.035-0.381-0.036-0.569-0.003l-0.177,0.025c-0.031-0.012-0.061-0.024-0.088-0.039
	l-0.042-0.021c-0.259-0.143-0.548-0.225-0.844-0.24c-0.071-0.106-0.175-0.188-0.294-0.23c-0.119-0.042-0.248-0.052-0.371-0.027
	l-0.11-0.086l-0.134-0.111c-0.066-0.05-0.139-0.093-0.215-0.127c-0.262-0.075-0.543-0.013-0.75,0.164
	c-0.047,0.035-0.092,0.075-0.132,0.119c-0.069-0.025-0.128-0.043-0.169-0.054c-0.107-0.029-0.212-0.069-0.313-0.117l-0.026-0.012
	c-0.454-0.249-1.003-0.256-1.464-0.02c-0.102-0.093-0.223-0.164-0.353-0.211c-0.144-0.045-0.29-0.074-0.438-0.089
	c-0.064-0.005-0.127-0.018-0.189-0.036c-0.42-0.302-0.988-0.294-1.399,0.02c-0.069,0.044-0.145,0.079-0.224,0.104
	c-0.303-0.237-0.739-0.087-1.005,0.021l-0.065-0.051c-0.223-0.179-0.482-0.306-0.76-0.37c-0.07-0.083-0.121-0.18-0.152-0.284
	c0.096-0.192,0.114-0.413,0.055-0.619c-0.063-0.219-0.246-0.382-0.471-0.422c-0.059-0.01-0.115-0.018-0.171-0.023
	c-0.062-0.237-0.2-0.448-0.396-0.599c0.107-0.242,0.088-0.521-0.051-0.747c-0.164-0.229-0.459-0.322-0.724-0.229
	c-0.071,0.002-0.142,0-0.212-0.006h-0.018c-0.044-0.128-0.125-0.24-0.231-0.324l0,0c-0.035-0.027-0.083-0.056,0.032-0.295
	c0.162-0.314,0.094-0.698-0.166-0.938c-0.15-0.104-0.309-0.196-0.472-0.278c-0.058-0.029-0.115-0.061-0.171-0.092
	c0.061-0.168,0.094-0.344,0.098-0.521c0-0.038,0.002-0.075,0.007-0.112c0.063-0.209,0.035-0.435-0.078-0.621
	c-0.108-0.165-0.29-0.266-0.487-0.27c-0.217-0.001-0.432,0.021-0.644,0.065c-0.084,0.016-0.155,0.027-0.212,0.034
	c0.027-0.453-0.194-0.886-0.577-1.131c0.008-0.36-0.135-0.707-0.394-0.958c-0.264-0.188-0.609-0.215-0.898-0.067l-0.008-0.049
	c-0.037-0.285-0.264-0.508-0.55-0.54c-0.181-0.067-0.351-0.164-0.501-0.285c-0.033-0.025-0.064-0.053-0.095-0.082
	c-0.026-0.329-0.26-0.604-0.581-0.686c-0.127-0.188-0.334-0.308-0.561-0.322c-0.083-0.199-0.206-0.38-0.361-0.53
	c-0.025-0.02-0.053-0.055-0.068-0.076c-0.117-0.229-0.325-0.399-0.573-0.47c-0.016-0.042-0.035-0.082-0.059-0.12
	c-0.124-0.196-0.35-0.305-0.581-0.279c-0.045-0.012-0.09-0.027-0.133-0.047c-0.145-0.061-0.296-0.102-0.451-0.123
	c-0.051-0.131-0.137-0.246-0.248-0.332c-0.047-0.033-0.097-0.064-0.148-0.091c-0.185-0.074-0.392-0.067-0.572,0.017
	c-0.035-0.028-0.078-0.062-0.127-0.109c-0.188-0.197-0.422-0.345-0.68-0.43c-0.119-0.244-0.333-0.43-0.592-0.514
	c-0.177-0.063-0.36-0.104-0.547-0.123c-0.064-0.122-0.154-0.229-0.264-0.313c-0.475-0.279-1.002-0.456-1.549-0.521l-0.133-0.027
	c-0.077-0.156-0.219-0.271-0.387-0.315c-0.217-0.058-0.437-0.103-0.658-0.134l-0.025-0.02c-0.131-0.1-0.289-0.156-0.453-0.161
	c-0.266-0.215-0.609-0.306-0.945-0.251l-0.013,0.002c-0.063-0.079-0.136-0.15-0.215-0.212c-0.505-0.349-1.119-0.502-1.728-0.434
	c-0.443-0.272-0.908-0.509-1.39-0.705c-0.46-0.204-0.986-0.198-1.442,0.016c-0.079-0.096-0.168-0.183-0.267-0.258l0,0l-0.198-0.146
	c-0.448-0.352-1-0.544-1.569-0.545c-0.07,0.001-0.139,0.011-0.206,0.029c-0.307-0.12-0.63-0.192-0.959-0.216
	c-0.107-0.014-0.436-0.056-0.488-0.072c-0.116-0.078-0.245-0.133-0.382-0.161c-0.091-0.087-0.198-0.157-0.314-0.207l-0.021-0.009
	l-0.013-0.022c-0.151-0.234-0.44-0.341-0.708-0.261c-0.201,0.037-0.409,0.028-0.605-0.028c-0.208-0.047-0.421-0.073-0.635-0.077
	c-0.16-0.003-0.319,0.011-0.477,0.04c-0.035-0.163-0.125-0.309-0.255-0.413c-0.192-0.148-0.448-0.187-0.675-0.101
	c-0.498-0.271-1.085-0.326-1.625-0.153c-0.125-0.106-0.286-0.159-0.449-0.147c-0.175-0.016-0.35-0.045-0.521-0.087
	c-0.486-0.155-1.007-0.165-1.5-0.03c-0.367-0.046-0.739-0.047-1.106-0.002c-0.031-0.034-0.061-0.073-0.092-0.112
	c-0.073-0.097-0.156-0.186-0.249-0.264c-0.341-0.238-0.806-0.187-1.086,0.12l-0.017-0.003c-0.269-0.065-0.551-0.044-0.808,0.06
	l-0.008-0.007c-0.232-0.08-0.478-0.112-0.723-0.096c-0.136-0.065-0.283-0.104-0.434-0.113l-0.015-0.002l-0.046-0.035l-0.116-0.091
	c-0.241-0.178-0.565-0.191-0.82-0.034l-0.059,0.009c-0.825,0.128-1.664,0.145-2.493,0.048c-0.116-0.193-0.331-0.306-0.555-0.29
	c-0.264,0.019-0.508,0.147-0.673,0.355c-0.034-0.006-0.079-0.013-0.136-0.022l-0.127-0.021c-0.206-0.03-0.415-0.021-0.617,0.025
	c-0.208-0.245-0.517-0.383-0.838-0.373c-0.269,0.023-0.524,0.125-0.736,0.292c-0.032-0.039-0.068-0.075-0.108-0.106
	c-0.372-0.291-0.859-0.069-1.067,0.026c-0.208,0.096-0.273,0.096-0.291,0.083c-0.299-0.214-0.687-0.126-1.273,0.005l-0.125,0.029
	l-0.086,0.02c-0.033-0.001-0.067,0.001-0.1,0.006c-0.288-0.132-0.627-0.077-0.857,0.14l-0.062-0.03
	c-0.373-0.237-0.845-0.25-1.23-0.034c-0.106-0.097-0.244-0.151-0.388-0.153c-0.023-0.004-0.046-0.01-0.068-0.017l-0.043-0.011
	c-0.402-0.146-0.85-0.077-1.19,0.182c-0.456-0.046-0.912,0.085-1.273,0.366c-0.048-0.014-0.098-0.021-0.147-0.023
	c-0.092-0.099-0.205-0.177-0.33-0.229c-0.101-0.042-0.21-0.059-0.319-0.049c-0.104-0.053-0.221-0.076-0.338-0.067
	c-0.213,0.013-0.421,0.035-0.656,0.062c-0.449,0.091-0.912,0.079-1.355-0.034c-0.279-0.076-0.578-0.002-0.789,0.197
	c-0.084,0.074-0.158,0.145-0.221,0.208c-0.332-0.108-0.686-0.127-1.028-0.054l-0.158,0.021c-0.103,0.011-0.206,0.015-0.31,0.011
	c-0.334-0.019-0.658,0.12-0.875,0.375c-0.153-0.034-0.311-0.034-0.463,0c-0.393,0.091-0.449,0.087-0.654-0.031
	c-0.176-0.12-0.378-0.195-0.59-0.22c-0.123-0.054-0.256-0.078-0.39-0.071c-0.245,0.018-0.478,0.115-0.662,0.278
	c-0.459-0.089-0.922,0.133-1.141,0.547c-0.516-0.209-1.095-0.192-1.599,0.044c-0.161-0.001-0.322-0.012-0.482-0.033
	c-0.252-0.047-0.512-0.038-0.76,0.026c-0.206-0.106-0.443-0.137-0.669-0.085c-0.396,0.11-0.738,0.359-0.966,0.701
	c-0.039,0.054-0.082,0.105-0.128,0.154c-0.106,0.007-0.212,0.002-0.318-0.013c-0.264-0.029-0.529-0.036-0.794-0.019
	c-0.139,0.002-0.277-0.009-0.414-0.032c-0.524-0.127-1.077-0.014-1.51,0.308c-0.234-0.051-0.479-0.023-0.696,0.078
	c-0.079,0.032-0.155,0.072-0.228,0.117c-0.022-0.017-0.043-0.033-0.07-0.055c-0.276-0.167-0.623-0.167-0.899-0.001
	c-0.134-0.007-0.268,0.02-0.389,0.077c-0.217,0.106-0.392,0.283-0.495,0.502l-0.022,0.008c-0.466-0.248-1.189,0.076-1.733,0.32
	c-0.126,0.056-0.244,0.108-0.348,0.149c-0.152,0.065-0.309,0.118-0.469,0.158c-0.427,0.028-0.845,0.138-1.231,0.323
	c-0.366-0.047-0.737-0.01-1.087,0.106c-0.361,0.13-0.704,0.305-1.021,0.52c-0.215,0.173-0.471,0.288-0.743,0.334
	c-0.138,0.001-0.275,0.015-0.411,0.038c-0.609-0.333-1.384,0.26-1.73,0.524l-0.071,0.056c-0.248,0.237-0.607,0.315-0.931,0.202
	c-0.236-0.07-0.492-0.026-0.691,0.118c-0.166,0.111-0.298,0.267-0.38,0.449c-0.073,0.024-0.182,0.052-0.321,0.087
	c-0.179,0.036-0.354,0.089-0.524,0.156c-0.168,0.074-0.329,0.167-0.478,0.275l-0.022,0.016h-0.036
	c-0.605-0.064-1.183,0.267-1.433,0.821l-0.091,0.028c-0.228,0.065-0.446,0.16-0.648,0.284c-0.349-0.12-0.735,0.002-0.952,0.3
	c-0.133,0.159-0.251,0.321-0.359,0.481l0.27,0.181l-0.298-0.145c-0.055,0.07-0.103,0.146-0.157,0.219
	c-0.042,0.054-0.077,0.099-0.105,0.135c-0.197-0.115-0.438-0.126-0.645-0.031c-0.244,0.104-0.44,0.297-0.548,0.539
	c-0.123,0.016-0.244,0.043-0.361,0.083c-0.231,0.082-0.438,0.221-0.602,0.403c-0.587,0.042-1.117,0.366-1.423,0.868
	c-0.017,0.022-0.049,0.063-0.08,0.102c-0.141,0.008-0.279,0.05-0.399,0.123c-0.218,0.13-0.382,0.334-0.461,0.575
	c-0.016,0.05-0.033,0.102-0.043,0.147c-0.225,0.055-0.455,0.084-0.686,0.087c-0.222,0.006-0.434,0.095-0.595,0.247
	c-0.175,0.154-0.289,0.366-0.32,0.597c-0.037,0.046-0.077,0.09-0.12,0.132c-0.124,0.125-0.238,0.26-0.341,0.402L6.006,56.61
	c-0.202-0.049-0.414-0.015-0.591,0.093c-0.18,0.106-0.334,0.252-0.451,0.426c-0.086,0.024-0.169,0.058-0.248,0.1
	c-0.678,0.491-1.219,1.15-1.568,1.911c-0.037,0.099-0.074,0.208-0.112,0.322l-0.02,0.062c-0.056,0.171-0.104,0.307-0.143,0.408
	c-0.247-0.049-0.503,0.019-0.694,0.183c-0.254,0.196-0.4,0.501-0.396,0.822c-0.021,0.283-0.088,0.56-0.196,0.821
	c-0.369,0.731-0.376,1.592-0.02,2.328c0.037,0.058,0.083,0.108,0.137,0.15c0.135,0.103,0.305,0.146,0.473,0.124
	c0.212-0.029,0.407-0.13,0.554-0.285c0.176,0.001,0.347-0.053,0.491-0.153c0.201-0.137,0.35-0.338,0.422-0.57l0.091-0.31
	c0.086-0.296,0.168-0.574,0.268-0.851c0.044-0.12,0.122-0.3,0.198-0.462c0.223-0.114,0.398-0.304,0.495-0.535
	c0.039-0.097,0.079-0.201,0.106-0.298l0.013-0.017l0.039-0.051c0.295-0.287,0.52-0.64,0.654-1.028
	c0.016-0.053,0.026-0.105,0.033-0.16c0.065-0.045,0.125-0.087,0.18-0.128l0.004,0.004c0.219,0.036,0.444-0.017,0.624-0.148
	c0.188-0.129,0.33-0.315,0.404-0.531c0.321-0.04,0.616-0.2,0.825-0.447c0.411-0.079,0.767-0.336,0.972-0.701
	c0.391-0.004,0.752-0.207,0.958-0.54c0.081-0.12,0.135-0.257,0.157-0.4c0.006-0.03,0.01-0.045,0.009-0.046
	c0.104-0.079,0.214-0.15,0.33-0.21c0.193-0.107,0.378-0.229,0.554-0.362c0.083-0.048,0.169-0.091,0.257-0.129
	c0.346-0.142,0.657-0.354,0.913-0.627c0.181-0.037,0.359-0.092,0.53-0.163c0.506-0.196,0.952-0.523,1.291-0.947
	c0.321-0.193,0.655-0.362,1.001-0.505c0.462,0.107,0.944-0.233,1.417-0.571c0.071-0.052,0.158-0.112,0.234-0.165
	c0.08,0.016,0.159,0.032,0.238,0.049c0.213,0.042,0.434-0.004,0.613-0.127c0.205-0.135,0.357-0.335,0.433-0.568
	c0.022-0.074,0.052-0.148,0.071-0.199c0.044-0.057,0.08-0.115,0.11-0.167c0.245-0.053,0.47-0.173,0.651-0.346l0.084,0.003
	c0.137,0.01,0.272,0.026,0.407,0.05c0.115,0.017,0.237,0.037,0.356,0.049c0.369,0.047,0.737-0.095,0.98-0.377l0.062,0.001
	c0.465,0.043,0.93-0.094,1.298-0.383c0.149-0.085,0.315-0.14,0.486-0.159c0.273-0.037,0.534-0.138,0.761-0.293
	c0.109,0.014,0.221,0.005,0.327-0.026c0.21-0.068,0.396-0.196,0.533-0.37l0.004,0.004c0.447,0.067,0.904-0.003,1.311-0.199
	l0.051-0.02l0.067,0.022c0.202,0.066,0.469-0.042,0.754-0.153c0.098-0.043,0.199-0.08,0.301-0.111
	c0.396-0.122,0.78-0.277,1.149-0.465c0.065-0.021,0.131-0.038,0.198-0.051c0.277-0.052,0.543-0.147,0.791-0.281
	c0.055-0.029,0.112-0.053,0.171-0.07c0.203-0.067,0.392-0.172,0.557-0.31l0.042,0.033c0.069,0.049,0.145,0.09,0.224,0.121
	c0.203,0.064,0.423,0.04,0.608-0.065c0.128-0.068,0.241-0.164,0.33-0.28c0.052,0.02,0.114,0.045,0.187,0.074
	c0.252,0.121,0.525,0.194,0.804,0.216c0.239-0.008,0.466-0.109,0.631-0.283c0.064,0.015,0.13,0.023,0.196,0.027
	c0.337-0.004,0.646-0.186,0.813-0.478c0.233,0.095,0.482,0.144,0.733,0.144c0.241,0.023,0.483-0.015,0.706-0.109
	c0.157,0.108,0.355,0.14,0.539,0.084c0.18-0.053,0.341-0.157,0.462-0.302c0.342-0.091,0.648-0.285,0.875-0.558
	c0.228,0.115,0.479,0.173,0.734,0.168c0.219-0.02,0.434-0.078,0.632-0.172c0.016-0.006,0.03-0.013,0.043-0.019
	c0.482,0.209,1.016,0.267,1.531,0.166c0.25-0.096,0.451-0.288,0.558-0.533c0.134-0.054,0.275-0.089,0.419-0.104
	c0.298-0.03,0.593-0.095,0.877-0.19c0.175-0.059,0.355-0.104,0.538-0.135c0.032,0.025,0.075,0.067,0.082,0.073
	c0.752,0.588,1.885-0.062,2.509-0.426c0.042,0.004,0.131,0.023,0.175,0.034l0.116,0.025c0.051,0.138,0.151,0.252,0.281,0.321
	c0.408,0.219,0.912,0.136,1.228-0.202c0.278,0.059,0.564,0.06,0.843,0.004l0.071-0.01c0.334,0.017,0.663-0.086,0.928-0.289
	c0.299,0.121,0.641,0.072,0.893-0.129c0.068-0.025,0.212-0.07,0.277-0.09l0.093-0.028c0.03,0.032,0.063,0.063,0.098,0.09
	c0.378,0.225,0.824,0.306,1.257,0.229l0.133-0.008c0.384,0,0.759-0.12,1.072-0.343c0.247,0.075,0.512,0.057,0.745-0.052
	c0.083,0.018,0.168,0.019,0.251,0.003l0.031-0.006l0.019,0.015c0.325,0.232,0.764,0.225,1.082-0.019
	c0.082,0.051,0.173,0.087,0.268,0.106c0.288,0.047,0.581-0.055,0.777-0.271c0.053,0.016,0.106,0.026,0.167,0.04
	c0.327,0.079,0.67,0.041,0.972-0.106c0.856,0.419,1.841,0.489,2.748,0.197c0.121,0.009,0.24,0.035,0.354,0.076
	c0.332,0.124,0.692,0.153,1.04,0.086c0.145,0.004,0.289-0.012,0.43-0.045c0.216,0.042,0.434,0.07,0.653,0.087
	c0.244,0.014,0.486,0.052,0.723,0.114c0.202,0.054,0.414,0.06,0.619,0.02c0.173,0.159,0.403,0.24,0.638,0.226
	c0.142-0.01,0.279-0.054,0.4-0.128c0.071-0.003,0.142-0.015,0.211-0.035c0.103-0.031,0.201-0.076,0.291-0.134l0.123,0.049
	c0.292,0.146,0.619,0.209,0.944,0.183c0.093-0.014,0.184-0.041,0.27-0.082c0.037,0.02,0.075,0.035,0.113,0.05
	c0.384,0.146,0.789,0.23,1.199,0.253c0.109,0.011,0.219,0.023,0.326,0.036c0.232,0.016,0.459,0.079,0.665,0.188
	c0.17,0.114,0.383,0.145,0.578,0.083c0.189-0.057,0.357-0.168,0.483-0.321c0.139-0.03,0.213-0.018,0.432,0.098
	c0.852,0.295,1.774,0.319,2.641,0.07c0.479,0.303,1.011,0.514,1.568,0.621l0.315,0.083c0.044,0.012,0.126,0.031,0.229,0.053
	c0.049,0.058,0.093,0.12,0.132,0.185c0.063,0.117,0.149,0.22,0.254,0.301c0.18,0.135,0.417,0.168,0.626,0.087
	c0.16-0.058,0.3-0.157,0.407-0.289c0.569,0.111,1.129,0.268,1.673,0.469c0.234,0.078,0.478,0.118,0.725,0.121l0.053,0.003
	l0.065,0.004c0.007,0.023,0.017,0.046,0.027,0.067c0.097,0.211,0.308,0.347,0.54,0.348c0.232,0,0.462-0.031,0.687-0.09
	c0.085-0.02,0.151-0.031,0.194-0.043c0.194,0.22,0.431,0.397,0.695,0.522c0.746,0.33,1.558,0.486,2.373,0.459
	c0.054,0.128,0.122,0.25,0.202,0.363c0.238,0.298,0.673,0.347,0.972,0.108c0.001-0.001,0.002-0.002,0.003-0.003
	c0.032,0.009,0.081,0.023,0.158,0.049l0.139,0.044c0.76,0.231,1.488,0.558,2.167,0.971c0.195,0.114,0.434,0.127,0.641,0.034
	c0.029-0.012,0.059-0.024,0.087-0.04l0,0c0.062,0.122,0.147,0.229,0.253,0.314c0.2,0.146,0.449,0.208,0.693,0.175
	c0.219,0.356,0.67,0.495,1.051,0.323l0.061,0.002l0.047,0.003c0.105,0.291,0.35,0.509,0.648,0.583c0.15,0.04,0.306,0.054,0.46,0.04
	c0.155,0.192,0.361,0.337,0.595,0.417c0.039,0.051,0.085,0.095,0.139,0.131c0.01,0.038,0.023,0.075,0.039,0.111
	c0.102,0.199,0.305,0.327,0.529,0.332c0.194,0.001,0.389-0.014,0.581-0.042c0.141-0.031,0.286-0.032,0.428-0.005l0.025,0.062
	l0.022,0.058c0.062,0.204,0.195,0.38,0.375,0.494c-0.041,0.187-0.01,0.382,0.088,0.546c0.124,0.194,0.348,0.303,0.578,0.279
	l0.145-0.013l0.046-0.004c0.057,0.235,0.218,0.434,0.437,0.537c0.012,0.028,0.023,0.064,0.034,0.1
	c0.146,0.522,0.638,0.872,1.18,0.836c0.013,0.147,0.067,0.288,0.155,0.407c0.255,0.278,0.566,0.5,0.913,0.648l0.036,0.019
	c0.135,0.063,0.264,0.138,0.385,0.224c0.112,0.099,0.235,0.184,0.367,0.254l0.123,0.073c0.213,0.133,0.418,0.276,0.615,0.432
	c0.008,0.442,0.232,0.852,0.604,1.094c0.148,0.117,0.311,0.214,0.484,0.288c0.01,0.278,0.132,0.54,0.338,0.728
	c0.105,0.079,0.229,0.129,0.359,0.146c0.079,0.167,0.139,0.293,0.175,0.371c-0.058,0.197-0.036,0.409,0.062,0.59
	c0.132,0.222,0.387,0.338,0.641,0.291c0.045-0.006,0.092-0.007,0.137-0.005c-0.014,0.062-0.041,0.17-0.103,0.358
	c-0.042,0.136-0.077,0.263-0.103,0.356c-0.064,0.245,0.004,0.507,0.182,0.688c0.082,0.076,0.167,0.15,0.252,0.225l0.141,0.126
	c-0.217,0.072-0.43,0.161-0.634,0.266c-0.551-0.175-1.128-0.253-1.704-0.231l-0.042-0.002c-0.144-0.006-0.409-0.016-0.453-0.023
	c-0.354-0.06-0.718-0.012-1.044,0.138c-0.088,0.032-0.177,0.06-0.268,0.082c-0.18,0.021-0.357,0.058-0.53,0.107
	c-0.128,0.036-0.259,0.064-0.391,0.086c-0.115-0.155-0.297-0.247-0.491-0.249c-0.232,0-0.455,0.09-0.623,0.25
	c-0.24-0.102-0.517-0.066-0.725,0.092c-0.266-0.104-0.559-0.12-0.836-0.046c-0.223,0.059-0.439,0.14-0.646,0.243l-0.085,0.039
	c-0.219-0.108-0.461-0.155-0.703-0.136c-0.008,0-0.016-0.002-0.022-0.005c-0.152-0.137-0.362-0.191-0.562-0.145
	c-0.1,0.017-0.197,0.052-0.285,0.103c-0.217,0.004-0.426,0.087-0.586,0.231c-0.107,0.095-0.209,0.197-0.312,0.302
	c-0.04,0.042-0.076,0.08-0.111,0.113c-0.057-0.01-0.112-0.019-0.174-0.032c-0.542-0.156-1.122-0.098-1.622,0.162
	c-0.23-0.166-0.611-0.248-1.169,0.196c-0.052-0.001-0.092-0.005-0.131-0.009c-0.348-0.038-0.696,0.06-0.974,0.272
	c-0.027-0.021-0.062-0.035-0.095-0.052c-0.265-0.107-0.556-0.132-0.835-0.069c-0.043,0.009-0.087,0.015-0.131,0.017
	c-0.2-0.075-0.423-0.062-0.612,0.039c-0.227,0.113-0.405,0.306-0.501,0.54c-0.159-0.002-0.315,0.029-0.461,0.091l-0.009-0.007
	c-0.144-0.112-0.323-0.171-0.505-0.165c-0.352,0.029-0.677,0.197-0.905,0.467c-0.006,0.008-0.012,0.016-0.019,0.023
	c-0.139-0.005-0.278,0.004-0.416,0.027c-0.249,0.047-0.483,0.15-0.687,0.301c-0.159-0.086-0.345-0.104-0.518-0.053
	c-0.283,0.084-0.516,0.286-0.64,0.554c-0.03,0.015-0.06,0.03-0.089,0.048l-0.04-0.002c-0.016,0-0.031,0.001-0.046,0.003
	c-0.022,0.003-0.044,0.001-0.064-0.007c-0.234-0.067-0.485-0.025-0.684,0.115c-0.051,0.031-0.098,0.067-0.142,0.107
	c-0.162-0.028-0.329-0.014-0.483,0.044c-0.387,0.172-0.689,0.491-0.838,0.887c-0.312,0.073-0.628,0.123-0.947,0.148
	c-0.045,0.006-0.091,0.002-0.135-0.012c-0.429-0.096-0.875,0.059-1.152,0.399c-0.037,0.016-0.11,0.041-0.149,0.052
	c-0.165,0.049-0.323,0.113-0.475,0.193c-0.105,0.057-0.21,0.117-0.314,0.178c-0.547,0.32-0.667,0.356-0.848,0.263
	c-0.257-0.112-0.555-0.077-0.778,0.094c-0.245,0.169-0.406,0.434-0.443,0.729c-0.191,0.261-0.422,0.489-0.685,0.679
	c-0.533,0.123-0.996,0.451-1.288,0.913c-0.06,0.062-0.116,0.125-0.168,0.192c-0.056,0.023-0.109,0.05-0.161,0.08
	c-0.354-0.071-0.721,0.035-0.983,0.283c-0.334,0.264-0.598,0.605-0.768,0.996l-0.096,0.052l-0.12,0.063
	c-0.261,0.147-0.533,0.274-0.813,0.38c-0.269,0.1-0.486,0.305-0.6,0.567c-0.099,0.226-0.15,0.469-0.153,0.715
	c-0.728,0.999-1.184,2.169-1.323,3.397c-0.025,0.37,0.104,0.733,0.356,1.005c-0.036,0.38,0.099,0.756,0.367,1.027
	c0.097,0.132,0.211,0.25,0.34,0.351l0.079,0.062c0.023,0.045,0.043,0.092,0.059,0.14l0.015,0.034l0.267,0.528
	c0.095,0.188,0.282,0.314,0.492,0.332c0.327,0.025,0.625,0.195,0.815,0.463c0.09,0.125,0.196,0.239,0.314,0.339
	c0.199,0.153,0.456,0.211,0.701,0.155c0.036-0.007,0.072-0.004,0.106,0.007c0.071,0.068,0.129,0.149,0.171,0.239l0.018,0.03
	c0.061,0.103,0.125,0.209,0.198,0.313c0.247,0.377,0.747,0.494,1.136,0.265c0.369,0.073,0.749,0.066,1.114-0.021l0.066-0.015
	l0.091,0.071c0.064,0.05,0.139,0.108,0.237,0.169c0.442,0.254,0.927,0.424,1.431,0.503l0.225,0.049
	c0.058,0.017,0.114,0.038,0.168,0.063c0.349,0.174,0.762,0.163,1.102-0.027c0.376,0.132,0.777,0.179,1.173,0.138
	c0.175-0.016,0.352-0.012,0.526,0.012c0.068,0.012,0.13,0.05,0.172,0.104c0.146,0.17,0.371,0.249,0.59,0.208
	c0.249-0.044,0.471-0.182,0.62-0.385c0.12-0.033,0.258,0.009,0.517,0.101c0.315,0.129,0.653,0.193,0.993,0.19
	c0.483-0.021,0.96-0.126,1.408-0.309c0.734,0.249,1.537,0.19,2.227-0.163c0.195,0.024,0.393-0.021,0.557-0.13
	c0.275-0.055,0.542-0.145,0.794-0.268c0.066-0.028,0.15-0.067,0.209-0.091c0.159,0.01,0.318,0.03,0.474,0.063l0.037,0.007
	c0.126,0.022,0.25,0.044,0.389,0.064c0.095,0.009,0.19,0.002,0.282-0.022c0.416,0.145,0.822-0.201,1.064-0.455l0.021,0.003
	c0.275,0.057,0.561,0.04,0.827-0.049c0.145-0.051,0.277-0.131,0.39-0.235l0.041,0.01c0.21,0.041,0.429-0.004,0.604-0.124
	c0.127-0.082,0.234-0.189,0.316-0.316c0.369,0.126,0.777,0.035,1.059-0.234c0.188,0.074,0.396,0.074,0.583-0.001
	c0.156-0.064,0.295-0.165,0.405-0.294c0.25-0.029,0.488-0.128,0.684-0.286c0.045-0.034,0.092-0.073,0.142-0.116l0.021-0.017
	c0.152,0.091,0.334,0.117,0.505,0.074c0.259-0.067,0.481-0.234,0.618-0.465c0.427,0.061,0.856-0.094,1.146-0.414
	c0.044-0.038,0.09-0.074,0.137-0.108c0.41-0.259,0.76-0.602,1.027-1.007c0.012-0.015,0.023-0.029,0.033-0.043l0,0
	c0.471,0.317,1.104,0.232,1.473-0.197c0.383-0.349,0.691-0.771,0.906-1.241c0.229,0.032,0.463,0.025,0.689-0.021
	c0.061-0.01,0.164-0.025,0.178-0.025c0.266,0.07,0.549,0.001,0.754-0.184c0.193-0.16,0.324-0.384,0.367-0.632
	c0.009-0.011,0.021-0.019,0.034-0.03c0.17-0.146,0.321-0.312,0.45-0.495l0.031,0.007c0.229,0.032,0.461-0.03,0.643-0.173
	c0.166-0.125,0.292-0.295,0.362-0.49c0.022-0.017,0.057-0.038,0.104-0.068c0.718-0.361,1.289-0.961,1.617-1.695
	c0.012-0.049,0.02-0.101,0.029-0.158c0.254-0.094,0.478-0.255,0.645-0.468c0.146-0.19,0.23-0.421,0.24-0.66
	c0.244-0.179,0.398-0.455,0.422-0.757c0.053-0.204,0.129-0.402,0.229-0.588c0.206-0.438,0.567-1.215,0.247-1.839
	c0.058-0.091,0.136-0.209,0.242-0.364l0.027-0.035c0.05-0.073,0.088-0.131,0.109-0.168c0.611-1.046,0.48-1.482-0.043-2.065
	l-0.074-0.084c-0.01-0.012-0.02-0.022-0.027-0.035c0.045-0.163,0.109-0.32,0.191-0.468c0.07-0.142,0.148-0.304,0.219-0.483
	c0.14-0.028,0.278-0.064,0.414-0.107c0.119-0.043,0.242-0.068,0.367-0.076c0.148,0.011,0.294,0.037,0.436,0.08
	c0.192,0.054,0.389,0.091,0.586,0.112c0.075,0.007,0.15,0.002,0.225-0.015l0.022,0.018c0.254,0.135,0.562,0.112,0.794-0.058
	c0.066-0.04,0.127-0.089,0.182-0.145l0.014,0.001c0.038,0.047,0.082,0.089,0.129,0.126c0.375,0.219,0.813,0.304,1.243,0.241
	l0.033-0.001c0.177-0.01,0.354-0.004,0.53,0.019c0.184,0.252,0.52,0.338,0.802,0.206c0.123-0.048,0.235-0.12,0.329-0.213
	c0.084,0.01,0.17,0.01,0.256-0.002c0.168,0.102,0.352,0.176,0.543,0.218l0.158,0.041c0.129,0.139,0.314,0.21,0.502,0.193
	c0.232-0.015,0.459-0.082,0.662-0.196c0.046,0.082,0.107,0.153,0.182,0.211c0.322,0.192,0.715,0.219,1.06,0.073
	c0.065-0.018,0.132-0.029,0.198-0.036l0.037-0.005c0.089-0.012,0.199-0.025,0.321-0.051c0.151,0.141,0.317,0.265,0.495,0.369
	c0.361,0.198,0.752,0.337,1.156,0.41c0.16,0.025,0.325,0,0.47-0.074c0.131,0.023,0.265,0.015,0.392-0.024
	c0.038-0.012,0.074-0.025,0.11-0.041c0.218,0.132,0.463,0.213,0.717,0.236c0.126,0.022,0.255,0.018,0.379-0.013
	c0.142,0.251,0.404,0.408,0.692,0.414l0,0c0.138,0.22,0.396,0.33,0.65,0.279c0.549-0.093,1.111-0.063,1.646,0.087
	c0.109,0.045,0.209,0.106,0.299,0.184c0.168,0.139,0.357,0.251,0.561,0.332c0.203,0.068,0.418,0.096,0.633,0.082
	c0.08,0,0.087-0.001,0.127,0.028l0.076,0.066c0.047,0.037,0.098,0.069,0.152,0.097c0.049,0.141,0.133,0.267,0.242,0.367
	c0.195,0.172,0.473,0.215,0.711,0.111c0.152-0.06,0.286-0.155,0.393-0.278c0.25,0.094,0.529,0.074,0.764-0.055
	c0.031,0.036,0.057,0.069,0.076,0.098c-0.006,0.123,0.021,0.245,0.078,0.354c0.119,0.228,0.367,0.356,0.623,0.324
	c0.747-0.036,1.486,0.174,2.104,0.598c0.379,0.22,0.777,0.403,1.191,0.551c0.137,0.044,0.277,0.078,0.418,0.103
	c0.077,0.012,0.152,0.034,0.223,0.066l0.035,0.013c0.171,0.051,0.334,0.125,0.485,0.22c0.185,0.116,0.396,0.182,0.613,0.19
	c0.055,0.03,0.114,0.053,0.175,0.066c0.123,0.028,0.252,0.023,0.371-0.016l0.047-0.002l0.03,0.001
	c0.022,0.002,0.044,0.001,0.065-0.002l0.012-0.001c0.142-0.021,0.285-0.02,0.427,0.002c0.036,0.079,0.063,0.162,0.085,0.246
	c0.043,0.191,0.178,0.35,0.359,0.424c0.379,0.14,0.788,0.177,1.186,0.105c0.123,0.066,0.383,0.245,0.506,0.329
	c0.393,0.332,0.859,0.566,1.359,0.683c0.199,0.207,0.454,0.354,0.733,0.422c0.097,0.167,0.259,0.287,0.446,0.333l0.006,0.005
	c0.16,0.314,0.439,0.351,0.783,0.345c0.057,0.164,0.166,0.306,0.311,0.4c0.063,0.035,0.127,0.067,0.192,0.096
	c0.121,0.044,0.247,0.078,0.374,0.112c0.103,0.023,0.203,0.055,0.301,0.092c0.08,0.031,0.162,0.059,0.244,0.082
	c0.047,0.015,0.102,0.032,0.151,0.049c0.005,0.083,0.024,0.164,0.058,0.24c0.104,0.232,0.34,0.376,0.594,0.361
	c0.197-0.011,0.395-0.033,0.589-0.069c0.052,0.188,0.171,0.35,0.333,0.456c0.215,0.122,0.461,0.182,0.708,0.173
	c0.081,0.132,0.184,0.25,0.302,0.351c0.164,0.145,0.354,0.257,0.56,0.33c0.07,0.175,0.193,0.322,0.352,0.423
	c0.079,0.069,0.163,0.135,0.25,0.195c0.354,0.241,0.794,0.318,1.208,0.211c0.186,0.28,0.404,0.537,0.652,0.764l0.049,0.047
	c0.063,0.058,0.121,0.118,0.177,0.184c0.262,0.315,0.604,0.554,0.992,0.689C146.756,80.46,146.858,80.514,146.958,80.574
	 M100.738,73.277c-0.042,0.109-0.092,0.217-0.148,0.319c-0.09,0.167-0.169,0.34-0.236,0.518l-0.07-0.024
	c-0.234-0.065-0.485-0.019-0.682,0.126c-0.19,0.132-0.334,0.321-0.406,0.541c-0.041,0.011-0.094,0.025-0.162,0.044l-0.209,0.054
	c-0.638,0.193-1.111,0.731-1.221,1.388c-0.007,0.008-0.006,0.021-0.008,0.03l-0.166,0.065c-0.52,0.156-0.987,0.447-1.355,0.845
	c-0.115-0.012-0.23-0.001-0.342,0.033c-0.297,0.101-0.549,0.305-0.709,0.575c-0.18,0.014-0.352,0.068-0.506,0.16
	c-0.135,0.078-0.253,0.182-0.348,0.305c-0.305-0.001-0.598,0.121-0.811,0.339c-0.318,0.046-0.605,0.214-0.801,0.469
	c-0.08,0.012-0.16,0.036-0.234,0.071c-0.23,0.107-0.414,0.297-0.516,0.531c-0.012,0.026-0.021,0.055-0.033,0.085
	c-0.069,0.016-0.139,0.034-0.201,0.051c-0.063,0.018-0.098,0.025-0.147,0.041c-0.29-0.086-0.604-0.049-0.866,0.104
	c-0.033,0.02-0.066,0.042-0.1,0.065c-0.447-0.014-0.895,0.055-1.32,0.199l-0.037,0.011c-0.039,0.011-0.072,0.02-0.099,0.026
	c-0.085,0.008-0.167,0.029-0.245,0.063c-0.139,0.057-0.27,0.136-0.385,0.233c-0.105-0.002-0.209,0.012-0.311,0.042
	c-0.039,0.011-0.086,0.021-0.145,0.034c-0.161,0.032-0.319,0.078-0.473,0.138l-0.055-0.014c-0.343-0.062-0.69,0.082-0.891,0.367
	c-0.087,0.002-0.175,0.011-0.262,0.025c-0.332-0.226-0.778-0.122-1.246,0.295c-0.114,0.021-0.231,0.031-0.348,0.027l-0.128,0.002
	c-0.375,0.001-0.75-0.021-1.123-0.069c-0.22-0.023-0.438-0.047-0.657-0.062c-0.266-0.008-0.522,0.102-0.7,0.3
	c-0.116,0.12-0.253,0.218-0.405,0.287c-0.092-0.104-0.2-0.193-0.32-0.263l-0.072-0.046c-0.44-0.3-0.985-0.008-1.344,0.184
	l-0.039,0.021c-0.053,0.028-0.104,0.058-0.152,0.077c-0.062-0.005-0.174-0.024-0.242-0.036c-0.478-0.131-0.989-0.049-1.402,0.225
	l-0.126-0.012c-0.272-0.035-0.548-0.044-0.822-0.024l-0.061-0.039c-0.156-0.11-0.328-0.195-0.511-0.251
	c-0.024-0.007-0.047-0.013-0.07-0.017c-0.116-0.127-0.28-0.199-0.452-0.198c-0.037-0.001-0.076-0.005-0.122-0.007
	c-0.351-0.055-0.71-0.005-1.033,0.144c-0.194-0.021-0.39,0.014-0.564,0.102c-0.017,0.007-0.034,0.016-0.05,0.024
	c-0.125-0.071-0.256-0.131-0.392-0.18l-0.028-0.011c-0.044-0.015-0.086-0.033-0.127-0.055c-0.202-0.107-0.443-0.11-0.647-0.009
	c-0.101,0.047-0.192,0.109-0.272,0.187c-0.112-0.02-0.219-0.061-0.315-0.12c-0.005-0.151-0.061-0.297-0.159-0.413
	c-0.182-0.195-0.464-0.262-0.714-0.169c-0.485-0.001-0.966-0.086-1.422-0.252c-0.108-0.18-0.277-0.314-0.476-0.38
	c-0.068-0.272-0.313-0.464-0.594-0.464c-0.047,0.002-0.094,0.008-0.141,0.017c-0.218-0.074-0.609-0.248-0.809-0.337l0,0
	c-0.022-0.34-0.144-0.665-0.349-0.937c-0.091-0.11-0.152-0.243-0.177-0.384c0.132-0.146,0.225-0.324,0.27-0.516
	c0.035-0.172,0.015-0.351-0.058-0.511c0.158-0.15,0.295-0.321,0.407-0.508c0.138-0.27,0.229-0.56,0.269-0.859
	c0.004-0.024,0.013-0.077,0.023-0.127c0.238-0.193,0.448-0.419,0.623-0.671c0.134-0.18,0.154-0.198,0.225-0.232l0.135-0.062
	c0.553-0.18,1.014-0.569,1.282-1.085c0.178-0.06,0.351-0.135,0.516-0.225c0.087-0.049,0.178-0.09,0.273-0.121
	c0.273-0.07,0.503-0.252,0.636-0.5l0.015-0.029c0.104-0.036,0.203-0.087,0.291-0.153c0.103-0.075,0.191-0.167,0.264-0.272
	c0.09-0.021,0.177-0.051,0.259-0.092c0.385,0.004,0.751-0.163,0.999-0.457c0.128,0.02,0.259,0.021,0.388,0.006
	c0.382-0.067,0.693-0.346,0.801-0.719c0.119-0.096,0.25-0.174,0.39-0.233c0.256-0.127,0.537-0.195,0.823-0.201
	c0.139,0.15,0.344,0.222,0.547,0.19c0.272-0.041,0.514-0.194,0.667-0.423c0.03-0.043,0.057-0.088,0.081-0.134
	c0.268,0.072,0.553,0.049,0.805-0.066c0.111-0.04,0.142-0.055,0.205-0.049c0.444,0.011,0.84-0.279,0.962-0.706
	c0.035-0.111,0.08-0.264,0.43-0.253c0.511,0.001,1.013-0.142,1.447-0.411c0.074-0.039,0.15-0.079,0.235-0.119
	c0.251-0.086,0.52-0.11,0.783-0.072c0.35,0.029,0.702,0.009,1.045-0.062l0,0c0.663-0.148,1.281-0.453,1.803-0.888
	c0.082,0.01,0.162,0.03,0.239,0.06c0.475,0.182,1.534-0.125,2.114-0.397c0.195,0.06,0.405,0.038,0.584-0.06
	c0.109-0.057,0.208-0.133,0.291-0.225c0.152,0.069,0.324,0.086,0.487,0.05c0.026,0.024,0.056,0.047,0.086,0.067
	c0.222,0.11,0.484,0.102,0.698-0.024c0.15-0.083,0.297-0.174,0.437-0.273c0.044-0.03,0.087-0.059,0.124-0.083l0.032,0.015
	c0.224,0.095,0.479,0.074,0.685-0.055l0.021-0.013c0.233,0.106,0.489,0.15,0.744,0.129c0.225-0.021,0.434-0.122,0.59-0.285
	c0.053,0.018,0.107,0.03,0.162,0.039c0.152,0.024,0.309,0.018,0.459-0.022c0.021,0.02,0.045,0.038,0.07,0.055
	c0.63,0.492,1.777,0.089,1.906,0.042c0.294-0.096,0.596-0.164,0.902-0.204c0.442-0.059,0.877-0.163,1.299-0.313
	c0.559-0.168,1.162-0.115,1.684,0.146c0.279,0.085,0.574,0.106,0.862,0.063l0.048-0.004c0.229,0.208,0.568,0.238,0.831,0.074
	c0.072-0.039,0.14-0.086,0.2-0.141c0.135-0.063,0.363-0.152,0.448-0.179c0.397,0.051,0.499,0.074,0.565,0.188
	c0.325,0.537,0.395,1.19,0.189,1.783c-0.148,0.343-0.149,0.73-0.005,1.073c-0.154,0.15-0.265,0.339-0.321,0.546
	c-0.072,0.25-0.034,0.52,0.105,0.739c-0.2,0.293-0.332,0.628-0.385,0.979c-0.01,0.052-0.072,0.231-0.104,0.318
	c-0.031,0.086-0.075,0.214-0.111,0.333c-0.209,0.07-0.389,0.207-0.513,0.389c-0.16,0.217-0.217,0.494-0.155,0.757L100.738,73.277z
	 M62.527,45.444l0.001-0.027l0.001,0.025L62.527,45.444z M68.527,46.213l0.002-0.38l0.053,0.354
	c-0.016,0.01-0.034,0.018-0.052,0.022 M86.941,65.267L86.941,65.267l-0.037-0.039l0.002-0.013L86.941,65.267z M142.012,77.073
	c0.011,0.027,0.025,0.053,0.045,0.075l0,0C142.037,77.126,142.022,77.1,142.012,77.073"/>
<path id="パス_46418" fill="#243F7E" d="M164.795,92.393l-0.371-0.037L164.795,92.393L164.795,92.393
	c0.053-0.175,0.035-0.362-0.049-0.524c0.232-0.523,0.103-1.137-0.321-1.521l0,0c-0.091-0.068-0.197-0.112-0.31-0.128
	c-0.061-0.37-0.28-0.696-0.603-0.89l-0.038-0.077c-0.098-0.231-0.254-0.435-0.451-0.589c-0.09-0.235-0.232-0.447-0.417-0.618
	l-0.06-0.063c0.012-0.222-0.072-0.438-0.232-0.591c-0.034-0.031-0.07-0.06-0.109-0.085c-0.029-0.178-0.129-0.337-0.277-0.441
	c-0.025-0.018-0.053-0.033-0.081-0.047c-0.073-0.503-0.411-0.927-0.886-1.109l-0.091-0.047c-0.03-0.364-0.203-0.703-0.48-0.942
	l-0.062-0.065c-0.039-0.187-0.101-0.368-0.183-0.541c0.036-0.366-0.117-0.726-0.407-0.953c-0.076-0.33-0.304-0.605-0.613-0.742
	c-0.042-0.021-0.082-0.046-0.121-0.071l-0.035-0.028l-0.005-0.085c0.022-0.397-0.173-0.777-0.509-0.99
	c-0.047-0.037-0.113-0.071-0.236-0.146l-0.115-0.072L158.072,81c0.006-0.963-0.506-1.854-1.342-2.334
	c-0.027-0.276-0.113-0.545-0.25-0.787l-0.15-0.313c-0.075-0.215-0.213-0.401-0.396-0.535c-0.074-0.047-0.15-0.087-0.23-0.12
	c-0.057-0.024-0.139-0.061-0.266-0.13c-0.143-0.117-0.219-0.298-0.203-0.481c0.153-0.217,0.203-0.49,0.136-0.746
	c-0.062-0.227-0.231-0.408-0.454-0.482c-0.068-0.023-0.138-0.04-0.209-0.051c-0.028-0.131-0.086-0.254-0.169-0.359l0.017-0.021
	c0.17-0.215,0.235-0.495,0.178-0.763c-0.02-0.1-0.061-0.193-0.118-0.276c0.056-0.301-0.015-0.611-0.192-0.86
	c-0.113-0.156-0.285-0.261-0.477-0.288l-0.138-0.021c-0.536-0.152-1.11-0.065-1.577,0.239c-0.368,0.299-0.602,0.732-0.647,1.204
	c-0.036,0.256,0.061,0.513,0.259,0.681l0.016,0.013c0.002,0.048,0.007,0.097,0.014,0.145c-0.025,0.042-0.05,0.087-0.07,0.127
	c-0.106,0.206-0.129,0.444-0.063,0.666c0.049,0.152,0.148,0.284,0.281,0.374c0.035,0.024,0.074,0.045,0.115,0.062
	c0.224,0.09,0.457,0.156,0.695,0.195c-0.16,0.173-0.256,0.396-0.273,0.63c-0.011,0.146,0.02,0.292,0.09,0.421
	c0.042,0.091,0.207,0.495,0.326,0.801c-0.086,0.266-0.066,0.555,0.057,0.806c0.132,0.259,0.354,0.461,0.622,0.568
	c0.124,0.305,0.371,0.542,0.681,0.653l0.033,0.021c0.137,0.237,0.227,0.499,0.264,0.771c0.016,0.453,0.273,0.863,0.677,1.07
	c-0.019,0.071-0.03,0.144-0.035,0.217c-0.03,0.321,0.151,0.625,0.449,0.75c0.139,0.108,0.388,0.315,0.595,0.49l0.13,0.11
	c0.165,0.141,0.286,0.243,0.38,0.312c-0.049,0.29,0.034,0.587,0.226,0.811c-0.011,0.086-0.009,0.174,0.007,0.26
	c0.045,0.3,0.278,0.537,0.578,0.587c0.131,0.184,0.229,0.389,0.288,0.606l0.021,0.059c0.069,0.227,0.164,0.446,0.28,0.653
	c0.146,0.219,0.348,0.394,0.586,0.508c-0.009,0.336,0.153,0.653,0.43,0.844c0.107,0.068,0.225,0.12,0.347,0.155l0.005,0.004
	c0.055,0.219,0.074,0.444,0.061,0.669c0,0.11,0.01,0.221,0.033,0.328c-0.256-0.053-0.516-0.086-0.775-0.098
	c-0.251,0.004-0.5-0.046-0.73-0.146c-0.631-0.371-1.318-0.635-2.035-0.782c-0.109-0.027-0.216-0.068-0.316-0.12
	c-0.348-0.184-0.732-0.282-1.126-0.287c-0.279,0.006-0.55,0.097-0.776,0.26l-0.018-0.014c-0.231-0.281-0.559-0.468-0.92-0.521
	c-0.048-0.006-0.097-0.008-0.146-0.007c-0.226-0.115-0.484-0.145-0.729-0.083c-0.084-0.089-0.178-0.169-0.28-0.236l-0.015-0.011
	c-0.441-0.25-0.992-0.2-1.383,0.125c-0.205-0.128-0.431-0.219-0.666-0.267c-0.25-0.048-0.507,0.016-0.704,0.175l-0.026,0.021
	c-0.373-0.236-0.845-0.254-1.234-0.046c-0.041-0.018-0.084-0.032-0.127-0.045c-0.275-0.085-0.561-0.133-0.848-0.141
	c-0.135-0.003-0.27-0.02-0.4-0.05c-0.044-0.048-0.092-0.092-0.145-0.13c-0.401-0.269-0.801-0.082-1.1,0.107
	c-0.095-0.106-0.221-0.18-0.359-0.213c-0.384-0.096-0.79-0.037-1.132,0.162c-0.089-0.092-0.187-0.174-0.293-0.244
	c-0.402-0.258-0.917-0.258-1.32-0.001c-0.064-0.031-0.126-0.068-0.185-0.109l-0.366-0.244c-0.354-0.19-0.796-0.104-1.052,0.208
	c-0.394,0.527-0.545,1.197-0.417,1.844l0.005,0.051c0.011,0.089,0.015,0.18,0.012,0.27c-0.031,0.258,0.072,0.515,0.273,0.679
	l0.041,0.032c0.111,0.072,0.238,0.113,0.371,0.12c0.076,0.004,0.154,0.013,0.236,0.022l0.053,0.007
	c0.355,0.062,0.719,0.059,1.074-0.008c0.045-0.01,0.083-0.021,0.123-0.032l0.012,0.011c0.322,0.139,0.685,0.157,1.02,0.055
	c0.05-0.012,0.088-0.021,0.119-0.026l0.09,0.048c0.436,0.3,0.981,0.396,1.494,0.265c0.018-0.005,0.033-0.011,0.049-0.019l0,0
	c0.074,0.066,0.162,0.114,0.258,0.142c0.352,0.085,0.722,0.024,1.027-0.167c0.5,0.286,1.088,0.378,1.65,0.257l0.063-0.007
	c0.066-0.008,0.135-0.012,0.193-0.02c0.289-0.002,0.576,0.035,0.854,0.111c0.399,0.105,0.811,0.155,1.224,0.15
	c0.144-0.006,0.286,0.014,0.422,0.058c0.214,0.06,0.433,0.097,0.654,0.113c0.135,0.009,0.271,0.011,0.405,0.004h0.018l0.079,0.038
	c0.628,0.372,1.375,0.489,2.087,0.327c0.07-0.019,0.17-0.056,0.293-0.096c0.059-0.021,0.17-0.055,0.278-0.095
	c0.069,0.11,0.161,0.205,0.269,0.277c0.369,0.188,0.779,0.273,1.191,0.25l0.045,0.002c0.096,0.194,0.254,0.351,0.451,0.44
	c0.346,0.147,0.713,0.242,1.087,0.28c0.236,0.023,0.474,0.034,0.712,0.03c0.34-0.029,0.682,0.016,1.002,0.134
	c0.52,0.39,1.164,0.573,1.811,0.517c0.162-0.002,0.324,0.008,0.485,0.029l0.035,0.076c0.077,0.182,0.187,0.348,0.322,0.491
	c0.082,0.084,0.171,0.16,0.268,0.228c0.349,0.244,0.818,0.229,1.149-0.04c0.234,0.101,0.499,0.097,0.729-0.011
	c0.37-0.184,0.627-0.535,0.69-0.942"/>
</svg>
