<?xml version="1.0" encoding="utf-8"?>
<!-- Generator: Adobe Illustrator 15.0.0, SVG Export Plug-In . SVG Version: 6.00 Build 0)  -->
<!DOCTYPE svg PUBLIC "-//W3C//DTD SVG 1.1//EN" "http://www.w3.org/Graphics/SVG/1.1/DTD/svg11.dtd">
<svg version="1.1" id="レイヤー_1" xmlns="http://www.w3.org/2000/svg" xmlns:xlink="http://www.w3.org/1999/xlink" x="0px"
	 y="0px" width="18px" height="18px" viewBox="0 0 18 18" enable-background="new 0 0 18 18" xml:space="preserve">
<path id="パス_50" fill="#FFB700" d="M5.89,12.523c-0.222-0.002-0.438-0.076-0.611-0.215L1.367,9.179
	C0.945,8.841,0.876,8.226,1.214,7.804c0.338-0.422,0.953-0.491,1.375-0.153l3.2,2.563l8.771-9.505
	c0.366-0.397,0.986-0.421,1.383-0.053c0.397,0.367,0.422,0.986,0.055,1.383l0,0L6.609,12.211c-0.186,0.199-0.446,0.313-0.718,0.311
	L5.89,12.523z"/>
<path id="パス_51" fill="#FFB700" d="M5.89,12.132c-0.134,0.001-0.263-0.046-0.367-0.129l-3.912-3.13
	c-0.26-0.193-0.315-0.56-0.122-0.821c0.193-0.26,0.56-0.315,0.821-0.122c0.012,0.009,0.023,0.018,0.035,0.027l3.486,2.784
	l9.015-9.766c0.221-0.238,0.592-0.251,0.829-0.031c0.238,0.221,0.252,0.593,0.031,0.831l0,0L6.32,11.941
	c-0.111,0.119-0.267,0.188-0.43,0.188V12.132z"/>
<path id="パス_52" fill="#FFB700" d="M7.455,18c-0.222,0-0.438-0.076-0.611-0.214l-3.912-3.13c-0.425-0.334-0.5-0.948-0.166-1.373
	c0.333-0.426,0.948-0.5,1.373-0.166c0.005,0.004,0.009,0.008,0.014,0.011l3.229,2.582l7.988-7.987
	c0.377-0.387,0.997-0.394,1.383-0.017c0.388,0.377,0.394,0.996,0.017,1.383c-0.006,0.005-0.011,0.011-0.017,0.017l-8.606,8.608
	C7.964,17.898,7.714,18.001,7.455,18z"/>
<path id="パス_53" fill="#FFB700" d="M7.455,17.609c-0.134,0-0.263-0.045-0.367-0.129L3.176,14.35
	c-0.26-0.191-0.315-0.561-0.122-0.82c0.193-0.26,0.561-0.315,0.821-0.123c0.012,0.011,0.023,0.019,0.035,0.027l3.5,2.805L15.645,8
	c0.242-0.217,0.613-0.197,0.83,0.043c0.2,0.224,0.2,0.563,0,0.786L7.87,17.438C7.76,17.547,7.611,17.609,7.455,17.609z"/>
</svg>
