<?xml version="1.0" encoding="UTF-8"?>
<svg id="_レイヤー_1" data-name="レイヤー_1" xmlns="http://www.w3.org/2000/svg" version="1.1" viewBox="0 0 16 9">
  <!-- Generator: Adobe Illustrator 29.1.0, SVG Export Plug-In . SVG Version: 2.1.0 Build 142)  -->
  <defs>
    <style>
      .st0 {
        fill: #ffb700;
      }
    </style>
  </defs>
  <path class="st0" d="M12.5,1.1c-1-.5-2.2-1.1-4.5-1.1s-3.4.6-4.5,1.1c-1,.5-1.8.9-3.5.9v2c2.2,0,3.4-.6,4.5-1.1,1-.5,1.8-.9,3.6-.9s2.6.4,3.6.9c1,.5,2.2,1.1,4.5,1.1v-2c-1.8,0-2.6-.4-3.6-.9Z"/>
  <path class="st0" d="M12.5,6.1c-1-.5-2.2-1.1-4.5-1.1s-3.4.6-4.5,1.1c-1,.5-1.8.9-3.5.9v2c2.2,0,3.4-.6,4.5-1.1,1-.5,1.8-.9,3.6-.9s2.6.4,3.6.9c1,.5,2.2,1.1,4.5,1.1v-2c-1.8,0-2.6-.4-3.6-.9Z"/>
</svg>