<?xml version="1.0" encoding="utf-8"?>
<!-- Generator: Adobe Illustrator 15.0.0, SVG Export Plug-In . SVG Version: 6.00 Build 0)  -->
<!DOCTYPE svg PUBLIC "-//W3C//DTD SVG 1.1//EN" "http://www.w3.org/Graphics/SVG/1.1/DTD/svg11.dtd">
<svg version="1.1" id="レイヤー_1" xmlns="http://www.w3.org/2000/svg" xmlns:xlink="http://www.w3.org/1999/xlink" x="0px"
	 y="0px" width="1759.725px" height="201.232px" viewBox="0 0 1759.725 201.232" enable-background="new 0 0 1759.725 201.232"
	 xml:space="preserve">
<polygon fill="#FFFFFF" points="149.958,200.323 0,129.15 0,85.046 149.958,156.046 332.428,69.447 514.901,156.047 697.368,69.447 
	879.845,156.047 1062.318,69.447 1244.782,156.047 1427.259,69.447 1609.738,156.047 1759.725,85.045 1759.725,129.146 
	1609.738,200.322 1427.259,113.722 1244.782,200.322 1062.318,113.722 879.845,200.322 697.368,113.722 514.901,200.322 
	332.428,113.722 "/>
<polygon fill="#FFFFFF" points="1244.782,130.876 1062.318,44.277 879.845,130.876 697.368,44.277 514.901,130.876 332.428,44.277 
	149.958,130.876 0,59.704 0,15.117 149.958,86.6 332.428,0 514.901,86.6 697.368,0 879.845,86.6 1062.318,0 1244.782,86.6 
	1427.259,0 1609.738,86.6 1759.725,15.375 1759.725,59.7 1609.738,130.876 1427.259,44.277 "/>
</svg>
