<?xml version="1.0" encoding="utf-8"?>
<!-- Generator: Adobe Illustrator 15.0.0, SVG Export Plug-In . SVG Version: 6.00 Build 0)  -->
<!DOCTYPE svg PUBLIC "-//W3C//DTD SVG 1.1//EN" "http://www.w3.org/Graphics/SVG/1.1/DTD/svg11.dtd">
<svg version="1.1" id="レイヤー_1" xmlns="http://www.w3.org/2000/svg" xmlns:xlink="http://www.w3.org/1999/xlink" x="0px"
	 y="0px" width="1759.725px" height="201.232px" viewBox="0 0 1759.725 201.232" enable-background="new 0 0 1759.725 201.232"
	 xml:space="preserve">
<g id="グループ_2435" transform="translate(-80 -389.5)">
	<g id="グループ_121" transform="translate(80 399.5)">
		<g id="グループ_122" transform="translate(0 10)">
			<path fill="#FFFFFF" d="M1466.431,108.883c-78.916,0-118.623-24.065-157.022-47.339C1274.158,40.18,1240.863,20,1173.132,20
				c-67.732,0-101.025,20.18-136.273,41.544c-38.396,23.273-78.099,47.338-157.011,47.338c-78.913,0-118.617-24.065-157.014-47.338
				C687.586,40.18,654.292,20,586.56,20c-67.733,0-101.026,20.18-136.274,41.545c-38.396,23.272-78.099,47.338-157.007,47.338
				S174.668,84.818,136.273,61.545C101.025,40.18,67.732,20,0,20v-40c78.908,0,118.611,24.065,157.006,47.338
				c35.248,21.365,68.541,41.545,136.273,41.545c67.732,0,101.025-20.18,136.273-41.545C467.948,4.065,507.651-20,586.56-20
				c78.908,0,118.611,24.065,157.007,47.337c35.25,21.365,68.544,41.545,136.28,41.545c67.735,0,101.029-20.18,136.277-41.545
				C1054.52,4.065,1094.222-20,1173.132-20c78.907,0,118.612,24.064,157.01,47.336c35.252,21.366,68.55,41.547,136.29,41.547
				c67.738,0,101.032-20.18,136.28-41.545C1641.108,4.065,1680.811-20,1759.724-20v40c-67.736,0-101.03,20.18-136.278,41.544
				C1585.05,84.818,1545.345,108.883,1466.431,108.883z"/>
		</g>
	</g>
	<g id="グループ_123" transform="translate(80 471.85)">
		<g id="グループ_122-2" transform="translate(0 10)">
			<path fill="#FFFFFF" d="M1466.431,108.883c-78.916,0-118.623-24.065-157.022-47.339C1274.158,40.18,1240.863,20,1173.132,20
				c-67.732,0-101.025,20.18-136.273,41.544c-38.396,23.273-78.099,47.339-157.011,47.339c-78.913,0-118.617-24.065-157.014-47.339
				C687.586,40.18,654.292,20,586.56,20c-67.733,0-101.026,20.18-136.274,41.545c-38.396,23.272-78.099,47.338-157.007,47.338
				S174.668,84.817,136.273,61.545C101.025,40.18,67.732,20,0,20v-40c78.908,0,118.611,24.065,157.006,47.338
				c35.248,21.365,68.541,41.545,136.273,41.545c67.732,0,101.025-20.18,136.273-41.545C467.948,4.065,507.651-20,586.56-20
				c78.908,0,118.611,24.065,157.007,47.337c35.25,21.365,68.544,41.546,136.28,41.546c67.735,0,101.029-20.18,136.277-41.545
				C1054.52,4.065,1094.222-20,1173.132-20c78.907,0,118.612,24.064,157.01,47.336c35.252,21.366,68.55,41.547,136.29,41.547
				c67.738,0,101.032-20.18,136.28-41.545C1641.108,4.065,1680.811-20,1759.724-20v40c-67.736,0-101.03,20.18-136.278,41.545
				C1585.05,84.817,1545.345,108.883,1466.431,108.883z"/>
		</g>
	</g>
</g>
</svg>
