<?xml version="1.0" encoding="utf-8"?>
<!-- Generator: Adobe Illustrator 15.0.0, SVG Export Plug-In . SVG Version: 6.00 Build 0)  -->
<!DOCTYPE svg PUBLIC "-//W3C//DTD SVG 1.1//EN" "http://www.w3.org/Graphics/SVG/1.1/DTD/svg11.dtd">
<svg version="1.1" id="レイヤー_1" xmlns="http://www.w3.org/2000/svg" xmlns:xlink="http://www.w3.org/1999/xlink" x="0px"
	 y="0px" width="1759.725px" height="201.232px" viewBox="0 0 1759.725 201.232" enable-background="new 0 0 1759.725 201.232"
	 xml:space="preserve">
<g id="グループ_2435" transform="translate(-80 -389.5)">
	<g id="グループ_121" transform="translate(80 399.5)">
		<g id="グループ_122" transform="translate(0 10)">
			<path id="パス_46" fill="none" stroke="#FFFFFF" stroke-width="40" stroke-miterlimit="10" d="M0,0
				c146.64,0,146.64,88.883,293.279,88.883C439.92,88.883,439.919,0,586.56,0S733.2,88.883,879.847,88.883
				C1026.494,88.883,1026.489,0,1173.132,0c146.642,0,146.646,88.883,293.3,88.883C1613.084,88.883,1613.074,0,1759.724,0"/>
		</g>
	</g>
	<g id="グループ_123" transform="translate(80 471.85)">
		<g id="グループ_122-2" transform="translate(0 10)">
			<path id="パス_46-2" fill="none" stroke="#FFFFFF" stroke-width="40" stroke-miterlimit="10" d="M0,0
				c146.64,0,146.64,88.883,293.279,88.883C439.92,88.883,439.919,0,586.56,0S733.2,88.883,879.847,88.883
				C1026.494,88.883,1026.489,0,1173.132,0c146.642,0,146.646,88.883,293.3,88.883C1613.084,88.883,1613.074,0,1759.724,0"/>
		</g>
	</g>
</g>
</svg>
