<?xml version="1.0" encoding="utf-8"?>
<!-- Generator: Adobe Illustrator 15.0.0, SVG Export Plug-In . SVG Version: 6.00 Build 0)  -->
<!DOCTYPE svg PUBLIC "-//W3C//DTD SVG 1.1//EN" "http://www.w3.org/Graphics/SVG/1.1/DTD/svg11.dtd">
<svg version="1.1" id="レイヤー_1" xmlns="http://www.w3.org/2000/svg" xmlns:xlink="http://www.w3.org/1999/xlink" x="0px"
	 y="0px" width="28.855px" height="37.848px" viewBox="0 0 28.855 37.848" enable-background="new 0 0 28.855 37.848"
	 xml:space="preserve">
<path id="パス_889" fill="#049B1B" d="M0,14.461v9.231h12.245V13.203H1.257C0.563,13.203,0,13.767,0,14.461z"/>
<path id="パス_890" fill="#243F7E" d="M27.598,13.203H16.609v10.489h12.246v-9.234C28.853,13.765,28.29,13.203,27.598,13.203z"/>
<path id="パス_891" fill="#243F7E" d="M0,36.59c-0.002,0.693,0.561,1.256,1.254,1.258c0.001,0,0.002,0,0.003,0h10.988V27.355H0
	V36.59z"/>
<path id="パス_892" fill="#049B1B" d="M16.609,37.845h10.989c0.693,0.002,1.257-0.559,1.259-1.254c0,0,0-0.002,0-0.004v-9.234
	H16.609V37.845z"/>
<path id="パス_893" fill="#243F7E" d="M24.531,8.401c0.504-0.542,0.916-1.162,1.225-1.835c0.292-0.641,0.445-1.334,0.454-2.037
	c0.001-0.468-0.076-0.933-0.229-1.374c-0.167-0.484-0.414-0.938-0.732-1.341c-0.458-0.58-1.047-1.043-1.717-1.353
	C22.866,0.156,22.144-0.002,21.413,0c-0.551,0-1.097,0.088-1.618,0.26c-0.843,0.28-1.604,0.765-2.214,1.408
	c-0.696,0.747-1.215,1.643-1.516,2.618c-0.451,1.382-1.801,4.517-1.834,4.593h-0.128c-0.038-0.077-1.384-3.212-1.834-4.593
	c-0.21-0.666-0.519-1.298-0.912-1.874c-0.519-0.764-1.214-1.388-2.028-1.82C8.588,0.204,7.764,0.001,6.926,0
	C5.948-0.003,4.991,0.28,4.175,0.815C3.762,1.086,3.397,1.421,3.092,1.809C2.774,2.211,2.526,2.664,2.359,3.15
	C2.206,3.591,2.13,4.055,2.131,4.524c0.001,0.466,0.07,0.931,0.207,1.377c0.255,0.812,0.669,1.563,1.22,2.211
	c0.936,1.097,2.111,1.962,3.436,2.53c1.561,0.679,3.243,1.022,4.943,1.011c1.047,0,2.192,0.01,2.232,0c0.04,0.01,1.187,0,2.233,0
	c1.318,0.008,2.63-0.195,3.885-0.601C21.906,10.545,23.365,9.632,24.531,8.401z M18.746,3.638c0.319-0.477,0.751-0.867,1.258-1.138
	c0.436-0.229,0.919-0.349,1.408-0.35c0.559-0.003,1.102,0.155,1.566,0.459c0.221,0.146,0.416,0.324,0.58,0.531
	c0.169,0.214,0.301,0.454,0.389,0.712c0.074,0.215,0.111,0.441,0.109,0.67c-0.002,0.256-0.041,0.513-0.117,0.757
	c-0.172,0.535-0.449,1.03-0.813,1.457c-0.726,0.84-1.632,1.501-2.65,1.937c-1.284,0.557-2.671,0.837-4.069,0.825
	c-0.084,0-0.164,0-0.242,0c0.815-1.438,1.471-2.962,1.951-4.544c0.146-0.469,0.359-0.913,0.633-1.32L18.746,3.638L18.746,3.638z
	 M4.551,5.688C4.381,5.323,4.288,4.926,4.28,4.525C4.279,4.296,4.316,4.07,4.39,3.855l0,0c0.089-0.26,0.221-0.5,0.391-0.715
	C5.03,2.828,5.349,2.579,5.712,2.414C6.093,2.24,6.507,2.15,6.926,2.151c0.321,0,0.643,0.052,0.946,0.152
	c0.508,0.17,0.965,0.464,1.33,0.854c0.474,0.514,0.823,1.127,1.024,1.795c0.481,1.583,1.138,3.104,1.954,4.545
	c-0.079,0-0.159,0-0.242,0C10.846,9.502,9.759,9.335,8.719,9C7.453,8.61,6.31,7.902,5.395,6.945C5.048,6.573,4.763,6.15,4.551,5.688
	z"/>
</svg>
