<?xml version="1.0" encoding="utf-8"?>
<!-- Generator: Adobe Illustrator 15.0.0, SVG Export Plug-In . SVG Version: 6.00 Build 0)  -->
<!DOCTYPE svg PUBLIC "-//W3C//DTD SVG 1.1//EN" "http://www.w3.org/Graphics/SVG/1.1/DTD/svg11.dtd">
<svg version="1.1" id="レイヤー_1" xmlns="http://www.w3.org/2000/svg" xmlns:xlink="http://www.w3.org/1999/xlink" x="0px"
	 y="0px" width="108px" height="11px" viewBox="0 0 108 11" enable-background="new 0 0 108 11" xml:space="preserve">
<path fill="#186CCC" d="M3.554,2.91c1.039,0.528,2.217,1.126,4.459,1.126c2.242,0,3.42-0.599,4.459-1.126
	C13.433,2.421,14.263,2,16.027,2s2.593,0.421,3.554,0.91c1.039,0.528,2.217,1.126,4.459,1.126S27.46,3.438,28.5,2.91
	C29.46,2.421,30.289,2,32.053,2s2.593,0.421,3.554,0.91c1.039,0.528,2.217,1.126,4.46,1.126s3.421-0.599,4.46-1.126
	C45.488,2.421,46.317,2,48.082,2s2.594,0.421,3.554,0.91c1.039,0.528,2.216,1.126,4.459,1.126s3.42-0.599,4.459-1.126
	C61.515,2.421,62.344,2,64.109,2c1.767,0,2.596,0.422,3.557,0.91c1.038,0.528,2.216,1.126,4.458,1.126
	c2.243,0,3.421-0.599,4.46-1.126C77.545,2.421,78.374,2,80.139,2c1.763,0,2.593,0.421,3.553,0.909
	c1.039,0.528,2.217,1.127,4.461,1.127c2.243,0,3.421-0.599,4.46-1.126C93.573,2.421,94.402,2,96.167,2s2.594,0.421,3.554,0.91
	c1.039,0.528,2.216,1.126,4.459,1.126c1.802,0,2.913-0.387,3.82-0.813V0.993c-0.09,0.044-0.18,0.089-0.267,0.134
	c-0.96,0.488-1.789,0.91-3.554,0.91c-1.764,0-2.593-0.421-3.553-0.909C99.588,0.599,98.41,0,96.167,0s-3.422,0.599-4.461,1.126
	c-0.96,0.488-1.79,0.91-3.554,0.91c-1.765,0-2.595-0.421-3.555-0.91C83.559,0.599,82.381,0,80.139,0
	c-2.243,0-3.422,0.599-4.461,1.126c-0.96,0.488-1.79,0.91-3.554,0.91s-2.592-0.421-3.552-0.909C67.533,0.599,66.354,0,64.109,0
	s-3.422,0.599-4.461,1.127c-0.96,0.488-1.789,0.909-3.553,0.909s-2.593-0.421-3.553-0.91C51.503,0.599,50.326,0,48.082,0
	s-3.421,0.599-4.461,1.126c-0.96,0.488-1.79,0.91-3.554,0.91s-2.593-0.421-3.554-0.91C35.474,0.599,34.296,0,32.053,0
	c-2.243,0-3.421,0.599-4.46,1.126c-0.96,0.488-1.79,0.91-3.553,0.91s-2.593-0.421-3.553-0.91C19.448,0.599,18.27,0,16.027,0
	s-3.421,0.599-4.46,1.126c-0.96,0.488-1.79,0.91-3.553,0.91c-1.764,0-2.593-0.421-3.553-0.91C3.421,0.599,2.243,0,0,0v2
	C1.764,2,2.593,2.421,3.554,2.91z"/>
<path fill="#186CCC" d="M3.554,7.909c1.039,0.528,2.217,1.127,4.459,1.127c2.242,0,3.42-0.599,4.459-1.126
	C13.433,7.422,14.263,7,16.027,7s2.593,0.422,3.554,0.909c1.039,0.528,2.217,1.127,4.459,1.127s3.42-0.599,4.459-1.127
	C29.46,7.422,30.289,7,32.053,7s2.593,0.422,3.554,0.909c1.039,0.528,2.217,1.127,4.46,1.127s3.421-0.599,4.46-1.127
	C45.488,7.422,46.317,7,48.082,7s2.594,0.422,3.554,0.909c1.039,0.528,2.216,1.127,4.459,1.127s3.42-0.599,4.459-1.127
	C61.515,7.422,62.344,7,64.109,7c1.767,0,2.596,0.422,3.557,0.91c1.038,0.527,2.216,1.126,4.458,1.126
	c2.243,0,3.421-0.599,4.46-1.126C77.545,7.422,78.374,7,80.139,7c1.763,0,2.593,0.422,3.553,0.909
	c1.039,0.528,2.217,1.127,4.461,1.127c2.243,0,3.421-0.599,4.46-1.126C93.573,7.422,94.402,7,96.167,7s2.594,0.422,3.554,0.909
	c1.039,0.528,2.216,1.127,4.459,1.127c1.802,0,2.913-0.387,3.82-0.813V5.993c-0.09,0.045-0.18,0.09-0.267,0.134
	c-0.96,0.487-1.789,0.909-3.554,0.909c-1.764,0-2.593-0.422-3.553-0.909C99.588,5.599,98.41,5,96.167,5s-3.422,0.599-4.461,1.127
	c-0.96,0.487-1.79,0.909-3.554,0.909c-1.765,0-2.595-0.422-3.555-0.91C83.559,5.599,82.381,5,80.139,5
	c-2.243,0-3.422,0.599-4.461,1.127c-0.96,0.487-1.79,0.909-3.554,0.909s-2.592-0.421-3.552-0.909C67.533,5.599,66.354,5,64.109,5
	s-3.422,0.599-4.461,1.127c-0.96,0.488-1.789,0.909-3.553,0.909s-2.593-0.422-3.553-0.909C51.503,5.599,50.326,5,48.082,5
	s-3.421,0.599-4.461,1.127c-0.96,0.487-1.79,0.909-3.554,0.909s-2.593-0.422-3.554-0.909C35.474,5.599,34.296,5,32.053,5
	c-2.243,0-3.421,0.599-4.46,1.127c-0.96,0.487-1.79,0.909-3.553,0.909s-2.593-0.422-3.553-0.909C19.448,5.599,18.27,5,16.027,5
	s-3.421,0.599-4.46,1.127c-0.96,0.487-1.79,0.909-3.553,0.909c-1.764,0-2.593-0.422-3.553-0.909C3.421,5.599,2.243,5,0,5v2
	C1.764,7,2.593,7.422,3.554,7.909z"/>
</svg>
