<?xml version="1.0" encoding="utf-8"?>
<!-- Generator: Adobe Illustrator 15.0.0, SVG Export Plug-In . SVG Version: 6.00 Build 0)  -->
<!DOCTYPE svg PUBLIC "-//W3C//DTD SVG 1.1//EN" "http://www.w3.org/Graphics/SVG/1.1/DTD/svg11.dtd">
<svg version="1.1" id="レイヤー_1" xmlns="http://www.w3.org/2000/svg" xmlns:xlink="http://www.w3.org/1999/xlink" x="0px"
	 y="0px" width="1920px" height="168px" viewBox="0 0 1920 168" enable-background="new 0 0 1920 168" xml:space="preserve">
<path fill="#B2D8FF" d="M1599.995,154.967c-86.171,0-129.433-29.472-171.271-57.973c-38.521-26.241-74.905-51.028-148.739-51.028
	c-73.835,0-110.219,24.787-148.74,51.029c-41.835,28.501-85.095,57.972-171.26,57.972c-86.166,0-129.427-29.471-171.264-57.972
	c-38.521-26.242-74.905-51.029-148.736-51.029c-73.833,0-110.217,24.787-148.738,51.03c-41.835,28.5-85.096,57.971-171.256,57.971
	c-86.16,0-129.417-29.47-171.251-57.971C110.219,70.753,73.836,45.966,0,45.966v-40c86.167,0,129.426,29.472,171.261,57.973
	c38.519,26.242,74.901,51.028,148.73,51.028c73.83,0,110.214-24.787,148.735-51.029c41.836-28.501,85.096-57.972,171.259-57.972
	c86.162,0,129.421,29.47,171.257,57.971c38.522,26.243,74.908,51.03,148.743,51.03c73.835,0,110.219-24.787,148.739-51.029
	c41.836-28.501,85.096-57.972,171.261-57.972c86.164,0,129.424,29.47,171.26,57.97c38.522,26.243,74.909,51.03,148.75,51.03
	c73.827,0,110.221-24.786,148.752-51.027c22.326-15.205,45.412-30.928,75.777-42.219c11.566-4.286,23.541-7.691,35.612-10.128
	l0.1-0.02c19.691-3.873,39.84-5.77,59.917-5.605l-0.307,39.999c-17.354-0.128-34.778,1.495-51.806,4.837
	c-10.039,2.028-19.996,4.86-29.597,8.417c-25.787,9.589-45.894,23.283-67.181,37.78
	C1729.419,125.498,1686.149,154.967,1599.995,154.967z"/>
</svg>
