<?xml version="1.0" encoding="utf-8"?>
<!-- Generator: Adobe Illustrator 15.0.0, SVG Export Plug-In . SVG Version: 6.00 Build 0)  -->
<!DOCTYPE svg PUBLIC "-//W3C//DTD SVG 1.1//EN" "http://www.w3.org/Graphics/SVG/1.1/DTD/svg11.dtd">
<svg version="1.1" id="レイヤー_1" xmlns="http://www.w3.org/2000/svg" xmlns:xlink="http://www.w3.org/1999/xlink" x="0px"
	 y="0px" width="630px" height="116.128px" viewBox="0 0 630 116.128" enable-background="new 0 0 630 116.128"
	 xml:space="preserve">
<path id="パス_46516" fill="#FFFFFF" d="M35.25,75.828v-20h-3.3l1.1-6.4H27.5l-1.1,6.4H23.05l-1.1-6.4H16.4l1.1,6.4H13.6
	l-1.101-6.4H6.95l1.101,6.4H4.75v20h12.551v2.551H3.25v5.449h14.051v6.6H22.7v-6.6h14.05v-5.449H22.7v-2.551H35.25z M10.15,64.427
	v-3.199H17.3v3.199H10.15z M29.85,61.228v3.199H22.7v-3.199H29.85z M10.15,70.427v-3.199H17.3v3.199H10.15z M29.85,67.228v3.199
	H22.7v-3.199H29.85z M53.9,61.228H65.8v-5.4H54.25l0.2-2.7h-5.4l-0.199,2.7H44.75v5.4h3.75l-0.95,13.75h5.4L53.9,61.228z
	 M68.9,70.427H74.3v-12H68.9V70.427z M60.4,64.427v12.551c-5.9,0-8.05,4-8.05,7.15c0,3,1.75,6.299,6.699,6.299
	c6.2,0,6.75-5.1,6.75-8.049h5v-5.4h-5V64.427H60.4z M59.05,85.228c-0.748,0.076-1.417-0.468-1.493-1.217
	c-0.006-0.061-0.009-0.122-0.007-0.184c0-1.15,0.95-1.699,3.101-1.699C60.65,84.028,60.55,85.228,59.05,85.228L59.05,85.228z
	 M104.95,53.128H90.1v5.4h7.75L93.8,72.927c6.851-0.35,10,2.301,10,6.201c0.138,2.165-1.021,4.206-2.949,5.199
	c0.333-2.897-1.361-5.646-4.101-6.65c-3.267-1.195-6.886,0.483-8.082,3.75c-0.006,0.018-0.012,0.034-0.018,0.051
	c-0.781,2.01-0.418,4.283,0.95,5.949c2.199,2.551,5.8,3,8.55,3c7.45,0,11.05-5.399,11.05-11.299c0.03-5.131-3.501-9.597-8.5-10.75
	L104.95,53.128z M96.1,84.128c-0.281,0.838-1.188,1.289-2.026,1.008c-0.008-0.002-0.016-0.006-0.024-0.008
	c-0.826-0.301-1.253-1.213-0.953-2.04c0.001-0.003,0.002-0.007,0.004-0.011c0.286-0.82,1.185-1.253,2.005-0.967
	c0.015,0.006,0.03,0.012,0.045,0.018C95.96,82.423,96.383,83.314,96.1,84.128z M121.25,59.228c5.799-0.631,11.456-2.202,16.75-4.65
	c5.289,2.463,10.948,4.035,16.75,4.65v-5.4c-10.5-1.35-16.75-5.4-16.75-5.4s-6.3,4.05-16.75,5.4V59.228z M128,65.528h20v-5.399h-20
	V65.528z M152.75,90.427v-21.5h-29.5v21.5H152.75z M147.35,74.328v10.7h-18.7v-10.7H147.35z M166.65,90.427V55.828h22.7v25.849
	c0,2.601-0.95,3.351-2.801,3.351v5.399c5.5,0,8.2-2.549,8.2-8.75v-31.25h-33.5v40H166.65z M170.15,58.677v5.4h15.7v-5.4H170.15z
	 M185.85,84.128v-17.15h-15.7v17.15H185.85z M180.45,72.378v6.35h-4.9v-6.35H180.45z M227.7,49.378l-0.8,3.75h-3.55l-0.801-3.7H217
	l0.8,3.7h-2.3v21.25h2.65c-0.15,6.199-1.351,8.949-4.15,11v-9.65h-12.75v14.699H214v-3.699l2.2,3.699c5.2-3,7.15-7.6,7.35-16.049h3
	v7.299c0,6.201,2.7,8.75,8.2,8.75v-5.399c-1.85,0-2.8-0.75-2.8-3.351v-7.299h2.8v-21.25h-2.3l0.8-3.75H227.7z M202.75,50.428v3.9
	h9.75v-3.9H202.75z M201.25,56.278v5.399H214v-5.399H201.25z M220.9,68.978v-10.45h8.45v10.45H220.9z M202.75,63.677v3.9h9.75v-3.9
	H202.75z M212.5,73.578v-3.9h-9.75v3.9H212.5z M206.65,85.028v-3.899h1.95v3.899H206.65z M260.1,90.427
	c1.264-3.992,2.053-8.121,2.35-12.299h6.9v3.549c0,2.601-0.95,3.351-2.801,3.351v5.399c5.5,0,8.2-2.549,8.2-8.75v-31.25H258
	c0,25.5-1.35,33.5-3.05,38.35L260.1,90.427z M241.25,55.828v29.2h14.25v-29.2H241.25z M269.35,55.828v5.75H263.3
	c0.051-1.8,0.051-3.7,0.101-5.75H269.35z M246.65,67.728v-6.5h3.45v6.5H246.65z M269.35,66.978v5.75h-6.45
	c0.1-1.75,0.2-3.65,0.25-5.75H269.35z M246.65,79.628v-6.5h3.45v6.5H246.65z M314.75,53.828c-10.5-1.35-16.75-5.4-16.75-5.4
	s-6.3,4.05-16.75,5.4v5.4c5.799-0.631,11.456-2.202,16.75-4.65c5.289,2.463,10.948,4.035,16.75,4.65V53.828z M288,66.028h20v-5.399
	h-20V66.028z M284.05,90.427c14.95,0,22.4-1.799,23.4-2.049l0.45,2.049h5.55l-2.5-11.699h-5.55l0.95,4.449
	c-5.368,0.966-10.799,1.533-16.25,1.701l4.5-9.551h18.649v-5.4h-30.5v5.4h5.9l-4.601,9.7V90.427z M327.15,56.728l0.2,5.4
	l13.149-0.551c-11.35,14.801-7.55,25,3.3,28.85l2.351-4.85c-8.45-3.3-10.9-9.6,1.6-24.35l-0.149-4.4h0.85v-6.4h-3.1v5.5
	L327.15,56.728z M349.9,50.428v6.4h3.149v-6.4H349.9z M380.1,53.128v5.4h-8.75v5.399h8.75v13.051c-5.9,0-8.051,4-8.051,7.15
	c0,3,1.75,6.299,6.75,6.299c6.15,0,6.7-5.1,6.7-8.049h5v-5.4h-5V63.927h6.101v-5.399H385.5v-5.4H380.1z M368.4,81.828
	c-1.601,0-1.601-1-1.601-5.699V58.528H361.4v18.399c0,7.451,0.399,10.301,7,10.301V81.828z M378.75,85.228
	c-0.748,0.076-1.417-0.468-1.493-1.217c-0.007-0.061-0.009-0.122-0.007-0.184c0-1.15,0.95-1.699,3.101-1.699
	C380.35,84.028,380.25,85.228,378.75,85.228z M424.6,67.478c-0.601,0.75-1.2,1.449-1.8,2.1c-1.852-1.328-4.072-2.045-6.351-2.05
	v-6.3h8.15v-5.4h-8.15v-2.7h-5.4v2.7H402.9v5.4h8.149v6.55c-4.25,0.95-8.05,4.05-8.05,9.149c0,5.551,6,7.15,10.75,5.801
	c2.991-1.01,5.759-2.589,8.15-4.65c0.6,3.301-1,6.95-5.45,6.95v5.399c10.55,0,13.351-9.799,9.95-16.6c0.85-0.949,1.65-1.9,2.4-2.9
	L424.6,67.478z M416.2,72.677c1.113,0.022,2.207,0.296,3.2,0.801c-1.009,0.891-2.078,1.709-3.2,2.449V72.677z M411.05,77.728
	c-1.8,0-2.399-0.301-2.55-1.65c-0.05-0.65,0.25-2.15,2.55-2.85V77.728z M458.4,90.427c0,0,6.2-9.549,6.2-37.299h-5.4
	c0,25.75-5.6,34.85-5.6,34.85L458.4,90.427z M449.85,55.828h-5.4v10.349c0,7.5,0.4,10.351,7,10.351v-5.399c-1.6,0-1.6-1-1.6-5.701
	V55.828z M490.801,53.128v2.7h-8.5v5.4h8.5v5.25h-8.5v5.4h8.5v5.1c-5.851,0-8,4-8,7.15c0,3,1.75,6.299,6.699,6.299
	c6.2,0,6.7-5.1,6.7-8.049h5.05v-5.4h-5.05v-5.1h8.5v-5.4h-8.5v-5.25h8.5v-5.4h-8.5v-2.7H490.801z M489.5,85.228
	c-0.755,0.096-1.443-0.439-1.539-1.195c-0.009-0.067-0.012-0.137-0.011-0.205c0-1.15,1-1.699,3.15-1.699
	C491.1,84.028,491,85.228,489.5,85.228z M536.1,53.128v5.4h-7.65v-2.7h-5.399v2.7h-3v5.399h3v16.951c0,7.799,2.85,9.549,10.35,9.549
	c7.7,0,10.4-1.399,10.4-1.399l-1.051-5.3c-2.749,0.939-5.645,1.38-8.55,1.3c-4.7,0-5.75-0.399-5.75-4.149V63.927h7.65v3.951
	c0,4.699,0,5.699-1.601,5.699v5.4c6.601,0,7-2.85,7-10.35v-4.701h3.5v-5.399h-3.5v-5.4H536.1z M584.301,83.927
	c-4.2,2.051-5.801,0.851-7.2-2.799c-1.9-4.951-5.9-6.75-9.25-6.25l3.899-21.75h-5.5l-6.75,37.299h5.5l1.551-8.399
	c0.3-1.5,3.75-3.351,5.699,1.45c2.801,6.85,7.5,8.449,13.551,5.65L584.301,83.927z M613.7,50.428h-6.399l0.5,28.451h5.399
	L613.7,50.428z M607.801,83.927v6.5h5.399v-6.5H607.801z"/>
<path fill="#FFB700" d="M449.75,110.128c-6.146,0-9.257-1.58-12.265-3.108c-2.928-1.487-5.691-2.892-11.357-2.892
	s-8.432,1.404-11.358,2.892c-3.009,1.528-6.119,3.108-12.265,3.108c-6.145,0-9.255-1.58-12.264-3.108
	c-2.927-1.487-5.692-2.892-11.358-2.892s-8.432,1.404-11.358,2.892c-3.009,1.528-6.119,3.108-12.262,3.108
	c-6.144,0-9.254-1.58-12.262-3.108c-2.927-1.487-5.691-2.892-11.356-2.892c-5.666,0-8.431,1.404-11.357,2.892
	c-3.008,1.528-6.118,3.108-12.261,3.108s-9.251-1.58-12.258-3.108c-2.926-1.487-5.69-2.892-11.356-2.892
	c-5.666,0-8.43,1.404-11.357,2.892c-3.008,1.528-6.119,3.108-12.263,3.108c-6.144,0-9.254-1.58-12.263-3.108
	c-2.927-1.487-5.691-2.892-11.356-2.892c-5.664,0-8.429,1.404-11.355,2.892c-3.008,1.528-6.118,3.108-12.262,3.108
	c-6.145,0-9.255-1.58-12.263-3.108c-2.926-1.487-5.691-2.892-11.355-2.892c-5.666,0-8.431,1.404-11.358,2.892
	c-3.008,1.528-6.118,3.108-12.261,3.108c-6.144,0-9.253-1.58-12.261-3.108c-2.926-1.487-5.69-2.892-11.356-2.892
	c-5.666,0-8.43,1.404-11.357,2.892c-3.008,1.528-6.119,3.108-12.263,3.108c-6.144,0-9.253-1.58-12.261-3.108
	c-2.926-1.487-5.69-2.892-11.356-2.892c-5.665,0-8.429,1.404-11.355,2.892c-3.008,1.528-6.118,3.108-12.261,3.108
	c-6.144,0-9.254-1.58-12.261-3.108c-2.926-1.487-5.69-2.892-11.354-2.892c-5.665,0-8.429,1.404-11.355,2.892
	c-3.008,1.528-6.118,3.108-12.261,3.108s-9.253-1.58-12.261-3.108c-2.926-1.487-5.69-2.892-11.355-2.892c-0.552,0-1-0.447-1-1
	s0.448-1,1-1c6.144,0,9.254,1.58,12.262,3.108c2.926,1.487,5.69,2.892,11.354,2.892s8.428-1.404,11.354-2.892
	c3.008-1.528,6.118-3.108,12.262-3.108c6.143,0,9.253,1.58,12.26,3.108c2.926,1.487,5.69,2.892,11.355,2.892
	c5.664,0,8.428-1.404,11.354-2.892c3.008-1.528,6.118-3.108,12.262-3.108c6.145,0,9.254,1.58,12.262,3.108
	c2.926,1.487,5.69,2.892,11.355,2.892c5.666,0,8.43-1.404,11.357-2.892c3.008-1.528,6.119-3.108,12.263-3.108
	c6.145,0,9.255,1.58,12.263,3.108c2.926,1.487,5.69,2.892,11.354,2.892c5.664,0,8.429-1.404,11.355-2.892
	c3.008-1.528,6.119-3.108,12.264-3.108c6.144,0,9.254,1.58,12.262,3.108c2.927,1.487,5.691,2.892,11.356,2.892
	c5.665,0,8.429-1.404,11.356-2.892c3.008-1.528,6.118-3.108,12.261-3.108c6.144,0,9.254,1.58,12.263,3.108
	c2.927,1.487,5.691,2.892,11.356,2.892c5.666,0,8.43-1.404,11.357-2.892c3.008-1.528,6.119-3.108,12.263-3.108
	c6.146,0,9.255,1.58,12.262,3.108c2.926,1.487,5.689,2.892,11.352,2.892c5.664,0,8.428-1.404,11.354-2.892
	c3.009-1.528,6.119-3.108,12.264-3.108c6.144,0,9.254,1.58,12.262,3.108c2.927,1.487,5.691,2.892,11.356,2.892
	c5.664,0,8.429-1.404,11.355-2.892c3.009-1.528,6.119-3.108,12.265-3.108s9.256,1.58,12.265,3.108
	c2.927,1.487,5.691,2.892,11.357,2.892s8.432-1.404,11.358-2.892c3.009-1.528,6.119-3.108,12.265-3.108
	c6.145,0,9.255,1.58,12.263,3.108c2.928,1.487,5.692,2.892,11.359,2.892c5.666,0,8.432-1.404,11.359-2.892
	c3.009-1.528,6.12-3.108,12.266-3.108c0.553,0,1,0.447,1,1s-0.447,1-1,1c-5.667,0-8.433,1.404-11.36,2.892
	C459.006,108.548,455.895,110.128,449.75,110.128z"/>
<path fill="#FFB700" d="M449.75,116.128c-6.146,0-9.257-1.58-12.265-3.108c-2.928-1.487-5.691-2.892-11.357-2.892
	s-8.432,1.404-11.358,2.892c-3.009,1.528-6.119,3.108-12.265,3.108c-6.145,0-9.255-1.58-12.264-3.108
	c-2.927-1.487-5.692-2.892-11.358-2.892s-8.432,1.404-11.358,2.892c-3.009,1.528-6.119,3.108-12.262,3.108
	c-6.144,0-9.254-1.58-12.262-3.108c-2.927-1.487-5.691-2.892-11.356-2.892c-5.666,0-8.431,1.404-11.357,2.892
	c-3.008,1.528-6.118,3.108-12.261,3.108s-9.251-1.58-12.258-3.108c-2.926-1.487-5.69-2.892-11.356-2.892
	c-5.666,0-8.43,1.404-11.357,2.892c-3.008,1.528-6.119,3.108-12.263,3.108c-6.144,0-9.254-1.58-12.263-3.108
	c-2.927-1.487-5.691-2.892-11.356-2.892c-5.664,0-8.429,1.404-11.355,2.892c-3.008,1.528-6.118,3.108-12.262,3.108
	c-6.145,0-9.255-1.58-12.263-3.108c-2.926-1.487-5.691-2.892-11.355-2.892c-5.666,0-8.431,1.404-11.358,2.892
	c-3.008,1.528-6.118,3.108-12.261,3.108c-6.144,0-9.253-1.58-12.261-3.108c-2.926-1.487-5.69-2.892-11.356-2.892
	c-5.666,0-8.43,1.404-11.357,2.892c-3.008,1.528-6.119,3.108-12.263,3.108c-6.144,0-9.253-1.58-12.261-3.108
	c-2.926-1.487-5.69-2.892-11.356-2.892c-5.665,0-8.429,1.404-11.355,2.892c-3.008,1.528-6.118,3.108-12.261,3.108
	c-6.144,0-9.254-1.58-12.261-3.108c-2.926-1.487-5.69-2.892-11.354-2.892c-5.665,0-8.429,1.404-11.355,2.892
	c-3.008,1.528-6.118,3.108-12.261,3.108s-9.253-1.58-12.261-3.108c-2.926-1.487-5.69-2.892-11.355-2.892c-0.552,0-1-0.447-1-1
	s0.448-1,1-1c6.144,0,9.254,1.58,12.262,3.108c2.926,1.487,5.69,2.892,11.354,2.892s8.428-1.404,11.354-2.892
	c3.008-1.528,6.118-3.108,12.262-3.108c6.143,0,9.253,1.58,12.26,3.108c2.926,1.487,5.69,2.892,11.355,2.892
	c5.664,0,8.428-1.404,11.354-2.892c3.008-1.528,6.118-3.108,12.262-3.108c6.145,0,9.254,1.58,12.262,3.108
	c2.926,1.487,5.69,2.892,11.355,2.892c5.666,0,8.43-1.404,11.357-2.892c3.008-1.528,6.119-3.108,12.263-3.108
	c6.145,0,9.255,1.58,12.263,3.108c2.926,1.487,5.69,2.892,11.354,2.892c5.664,0,8.429-1.404,11.355-2.892
	c3.008-1.528,6.119-3.108,12.264-3.108c6.144,0,9.254,1.58,12.262,3.108c2.927,1.487,5.691,2.892,11.356,2.892
	c5.665,0,8.429-1.404,11.356-2.892c3.008-1.528,6.118-3.108,12.261-3.108c6.144,0,9.254,1.58,12.263,3.108
	c2.927,1.487,5.691,2.892,11.356,2.892c5.666,0,8.43-1.404,11.357-2.892c3.008-1.528,6.119-3.108,12.263-3.108
	c6.146,0,9.255,1.58,12.262,3.108c2.926,1.487,5.689,2.892,11.352,2.892c5.664,0,8.428-1.404,11.354-2.892
	c3.009-1.528,6.119-3.108,12.264-3.108c6.144,0,9.254,1.58,12.262,3.108c2.927,1.487,5.691,2.892,11.356,2.892
	c5.664,0,8.429-1.404,11.355-2.892c3.009-1.528,6.119-3.108,12.265-3.108s9.256,1.58,12.265,3.108
	c2.927,1.487,5.691,2.892,11.357,2.892s8.432-1.404,11.358-2.892c3.009-1.528,6.119-3.108,12.265-3.108
	c6.145,0,9.255,1.58,12.263,3.108c2.928,1.487,5.692,2.892,11.359,2.892c5.666,0,8.432-1.404,11.359-2.892
	c3.009-1.528,6.12-3.108,12.266-3.108c0.553,0,1,0.447,1,1s-0.447,1-1,1c-5.667,0-8.433,1.404-11.36,2.892
	C459.006,114.548,455.895,116.128,449.75,116.128z"/>
<path fill="#FFB700" d="M630,112.235c-0.694-0.318-1.361-0.655-2.035-0.998c-3.008-1.528-6.118-3.108-12.264-3.108
	c-6.145,0-9.255,1.58-12.263,3.108c-2.928,1.487-5.692,2.892-11.357,2.892s-8.429-1.404-11.355-2.892
	c-3.007-1.528-6.117-3.108-12.261-3.108c-6.145,0-9.255,1.58-12.263,3.108c-2.927,1.487-5.69,2.892-11.354,2.892
	c-5.665,0-8.429-1.404-11.355-2.892c-3.007-1.528-6.116-3.108-12.26-3.108s-9.253,1.58-12.261,3.108
	c-2.927,1.487-5.69,2.892-11.355,2.892c-5.664,0-8.429-1.404-11.354-2.892c-3.008-1.528-6.118-3.108-12.262-3.108
	c-0.553,0-1,0.447-1,1s0.447,1,1,1c5.665,0,8.429,1.404,11.355,2.892c3.008,1.528,6.117,3.108,12.261,3.108s9.254-1.58,12.262-3.108
	c2.927-1.487,5.69-2.892,11.354-2.892s8.428,1.404,11.354,2.892c3.007,1.528,6.117,3.108,12.261,3.108
	c6.143,0,9.253-1.58,12.261-3.108c2.927-1.487,5.691-2.892,11.356-2.892s8.429,1.404,11.355,2.892
	c3.007,1.528,6.117,3.108,12.261,3.108c6.145,0,9.255-1.58,12.263-3.108c2.928-1.487,5.692-2.892,11.357-2.892
	c5.666,0,8.431,1.404,11.357,2.892c0.94,0.478,1.891,0.961,2.941,1.399V112.235z"/>
<path id="パス_46515" fill="#FFFFFF" d="M191.416,9.536c0.954,2.299,1.401,4.776,1.313,7.264c0,3.584-1.313,5.984-3.328,5.984
	c-2.368,0-4.128-0.768-4.128-4c0.074-3.894,0.991-7.726,2.688-11.232V4.096h-7.136v3.456h3.36c-1.5,3.558-2.305,7.371-2.368,11.232
	c0,6.72,4.063,7.456,7.584,7.456c3.552,0,6.784-2.5,6.784-9.44c0.008-1.762-0.164-3.521-0.513-5.248l2.336,1.12l1.5-3.1
	l-6.588-3.144L191.416,9.536z M213.336,5.824v11.804c-3.775,0-5.151,2.56-5.151,4.576c0,1.92,1.12,4.032,4.319,4.032
	c3.937,0,4.288-3.264,4.288-5.152h2.048v-3.456h-2.048v-4.9h4.032V9.272h-4.032V5.828L213.336,5.824z M212.472,22.912
	c-0.479,0.049-0.907-0.298-0.956-0.777c-0.005-0.041-0.006-0.082-0.004-0.124c0-0.736,0.607-1.088,2.016-1.088
	C213.528,22.144,213.432,22.912,212.472,22.912z M235.48,2.368l-0.256,3.424l8.288,0.608l0.256-3.456L235.48,2.368z M238.52,8.256
	c-1.848-0.025-3.683,0.301-5.408,0.96l1.312,3.2c1.301-0.527,2.699-0.766,4.101-0.7c6.271,0,3.899,7.2,0,12.384l2.72,2.144
	C250.168,13.856,244.6,8.256,238.52,8.256L238.52,8.256z M263.48,7.556c3.008,0,3.68,0.256,3.68,2.688h3.456
	c0-2.3-0.384-3.808-1.28-4.736h0.801V1.38h-1.984v3.328c-1.333-0.477-2.747-0.683-4.16-0.608H258.9v3.456H263.48z M273.08,5.508
	V1.38H271.1v4.128H273.08z M257.08,19.172c0,4.992,1.856,6.112,6.624,6.112c6.3,0,8.672-0.928,8.672-0.928l-0.96-3.328
	c0,0-1.76,0.8-7.2,0.8c-3.008,0-3.68-0.256-3.68-2.656H257.08z M282.872,2.372H279v3.456h11.232v-3.46h-3.872V0h-3.488V2.372z
	 M298.68,11.492h-2.528c0.063-1.248,0.128-2.528,0.16-3.936h4.063V4.1h-0.256l-0.576-3.456h-2.08L298.04,4.1h-1.664
	c0-1.28,0.032-2.656,0.032-4.1h-3.456c0,1.472-0.032,2.816-0.032,4.1h-1.728v3.456h1.7c-0.192,8.224-0.9,12.64-3.648,17.408
	l3.2,1.28c1.325-2.263,2.267-4.729,2.784-7.3v1.7c0,3.968,1.728,5.6,5.216,5.6v-3.46c-1.152,0-1.76-0.479-1.76-2.144L298.68,11.492z
	 M283.064,17.376v3.9c0,1.024-0.16,1.5-0.769,1.5v3.464c2.336,0,3.872-1.632,3.872-4.96v-3.9h4.064V7.328H279v10.048H283.064z
	 M286.776,10.784v3.1h-4.288v-3.1H286.776z M281.56,24.448c0.541-1.881,0.777-3.836,0.7-5.792h-2.721
	c0.04,1.628-0.142,3.253-0.54,4.832L281.56,24.448z M290.232,22.976c-0.42-1.4-0.604-2.86-0.544-4.32h-2.72
	c-0.102,1.789,0.136,3.58,0.699,5.28L290.232,22.976z M321.3,0v9.984h-1.6V5.828h0.96v-3.46h-2.56V0h-3.452v2.368h-2.528V0.64h-7.52
	v3.456h0.64v16.96h-0.64v3.456c1.481,0.033,2.96-0.161,4.384-0.576v2.3h2.5V4.096h0.576v1.732h0.96v4.16h-0.96v3.456h8.96
	c-0.074,2.842,0.151,5.685,0.672,8.48c-0.478,0.278-0.98,0.513-1.5,0.7v-7.9H312.7v9.532h5.76l0.513,1.984
	c1.223-0.313,2.396-0.798,3.483-1.44c0.16,0.448,0.32,0.96,0.512,1.44l3.072-1.056c-0.319-0.864-0.607-1.7-0.832-2.464
	c0.288-0.256,0.544-0.512,0.832-0.8l-0.64-3.072c-0.271,0.315-0.561,0.615-0.864,0.9c-0.314-2.085-0.453-4.192-0.416-6.3h1.92V9.992
	h-1.92V0.008L321.3,0z M324.788,8.544h1.252l-0.288-5.824H324.5L324.788,8.544z M307.736,7.456v-3.36h1.248v3.36H307.736z
	 M315.512,9.984V5.828h1.699v4.16L315.512,9.984z M307.736,14.24v-3.328h1.248v3.328H307.736z M315.384,18.848v-1.632h2.116v1.632
	H315.384z M308.984,20.448c-0.353,0.1-0.769,0.224-1.248,0.32v-3.072h1.248V20.448z M315.384,21.76v-1.632h2.116v1.632H315.384z
	 M338.392,15.008V7.552h4.384v5.888c0,5.536-2.3,8.192-6.784,9.664l1.472,3.136c4.608-1.376,8.801-5.088,8.801-12.8V7.552h2.848
	V4.096h-2.848V2.368h-3.488v1.729h-4.384V2.368h-3.456v1.729h-2.88v3.456h2.88v7.456H338.392z M359.672,6.496l11.009,2.592l0.8-3.36
	l-11.008-2.592L359.672,6.496z M370.232,17.376l0.8-3.36l-10.112-2.4l-0.8,3.392L370.232,17.376z M372.248,26.24l0.8-3.36
	L358.9,19.552l-0.8,3.36L372.248,26.24z M384.12,6.688v6.368h3.456V6.688H384.12z M392.344,6.688h-3.456v6.368h3.456V6.688z
	 M389.592,26.24c5.633-4.96,8-10.56,8-15.712h-3.424c-0.256,3.808-1.216,8.256-7.008,13.248L389.592,26.24z M412.024,26.24h3.456
	V14.272l6.432,1.664l0.864-3.36l-7.3-1.888v-8.32h-3.452V26.24z M442.744,2.368v3.46h-5.6v3.456h5.6v8.344
	c-3.775,0-5.151,2.56-5.151,4.576c0,1.92,1.12,4.032,4.319,4.032c3.937,0,4.288-3.264,4.288-5.152h3.2v-3.456h-3.2V9.276h3.9V5.828
	h-3.9v-3.46H442.744z M435.257,20.736c-1.024,0-1.024-0.64-1.024-3.648V5.828h-3.456V17.6c0,4.768,0.256,6.592,4.48,6.592V20.736z
	 M441.881,22.912c-0.479,0.049-0.907-0.298-0.956-0.777c-0.005-0.041-0.006-0.082-0.004-0.124c0-0.736,0.607-1.088,1.983-1.088
	C442.9,22.144,442.841,22.912,441.881,22.912z"/>
<path fill="#FFB700" d="M630,106.235c-0.694-0.318-1.361-0.655-2.035-0.998c-3.008-1.528-6.118-3.108-12.264-3.108
	c-6.145,0-9.255,1.58-12.263,3.108c-2.928,1.487-5.692,2.892-11.357,2.892s-8.429-1.404-11.355-2.892
	c-3.007-1.528-6.117-3.108-12.261-3.108c-6.145,0-9.255,1.58-12.263,3.108c-2.927,1.487-5.69,2.892-11.354,2.892
	c-5.665,0-8.429-1.404-11.355-2.892c-3.007-1.528-6.116-3.108-12.26-3.108s-9.253,1.58-12.261,3.108
	c-2.927,1.487-5.69,2.892-11.355,2.892c-5.664,0-8.429-1.404-11.354-2.892c-3.008-1.528-6.118-3.108-12.262-3.108
	c-0.553,0-1,0.447-1,1s0.447,1,1,1c5.665,0,8.429,1.404,11.355,2.892c3.008,1.528,6.117,3.108,12.261,3.108s9.254-1.58,12.262-3.108
	c2.927-1.487,5.69-2.892,11.354-2.892s8.428,1.404,11.354,2.892c3.007,1.528,6.117,3.108,12.261,3.108
	c6.143,0,9.253-1.58,12.261-3.108c2.927-1.487,5.691-2.892,11.356-2.892s8.429,1.404,11.355,2.892
	c3.007,1.528,6.117,3.108,12.261,3.108c6.145,0,9.255-1.58,12.263-3.108c2.928-1.487,5.692-2.892,11.357-2.892
	c5.666,0,8.431,1.404,11.357,2.892c0.94,0.478,1.891,0.961,2.941,1.399V106.235z"/>
</svg>
