<svg xmlns="http://www.w3.org/2000/svg" width="258.692" height="62.969" viewBox="0 0 258.692 62.969">
  <path id="パス_46521" data-name="パス 46521" d="M-67.34,1.848v-22.4H-86.1v22.4Zm-3.024-19.376v6.664H-83.076v-6.664Zm0,9.688v6.664H-83.076V-7.84ZM-55.8-21.112v3.584h-7.9V-14.5h3.92c0,4.9-1.064,9.716-3.92,13.328L-61.1.336c3.36-4.48,4.34-10.052,4.34-14.84h.952V-4.2h-1.68v3.024h1.68V1.848h3.024V-1.176h1.6V-4.2h-1.6V-14.5h.868c0,4.788.98,10.36,4.34,14.84l2.632-1.512C-47.8-4.788-48.888-9.6-48.888-14.5h3.948v-3.024h-7.84v-3.584ZM-38-17.024-37.884-14l7.364-.308c-6.356,8.288-4.228,14,1.848,16.156l1.316-2.716c-4.732-1.848-6.1-5.376.9-13.636l-.084-2.464h.476v-3.584H-27.8v3.08Zm12.74-3.528v3.584h1.764v-3.584Zm20.3,8.372c0-4.368-1.6-5.348-5.8-5.348H-15.2V-14.5h4c2.632,0,3.22.224,3.22,2.324Zm.7,9.464s-1.54.7-6.3.7c-2.632,0-3.22-.224-3.22-2.352H-16.8c0,4.4,1.624,5.376,5.8,5.376C-5.46,1.008-3.416.2-3.416.2Zm21.14-9.464c0-4.368-1.6-5.348-5.8-5.348H6.636V-14.5h4c2.632,0,3.22.224,3.22,2.324Zm.7,9.464s-1.54.7-6.3.7c-2.632,0-3.22-.224-3.22-2.352H5.04c0,4.4,1.624,5.376,5.8,5.376C16.38,1.008,18.424.2,18.424.2ZM30.352-17.528l.112-1.512H27.412l-.084,1.512h-2.3V-14.5H27.1l-.868,12.88H29.26l.868-12.88h3.388v-3.024Zm4.284-.56V-14.5h1.736v-3.584Zm2.576,0V-14.5h1.736v-3.584ZM40.124-8.54v-3.024H32.788V-8.54ZM37.38-1.176c-2.632,0-3.192-.224-3.192-2.324H31.164c0,4.368,1.6,5.348,5.768,5.348,4.144,0,4.816-.812,4.816-.812l-.84-2.912S40.1-1.176,37.38-1.176ZM57.988-19.04v3.024H53.116v3.024h4.872v8.6c0,2.324-.476,3.22-3.192,3.22V1.848c4.7,0,6.216-1.624,6.216-6.86v-7.98h3.444v-3.024H61.012V-19.04ZM50.54-16.016H47.516v10.3c0,4.172.224,5.768,3.92,5.768V-2.968c-.9,0-.9-.56-.9-3.192Zm28.252-4.536H75.208l.28,15.932h3.024Zm-3.3,18.76v3.64h3.024v-3.64ZM-130.9,24.376a30.113,30.113,0,0,0,9.38-2.6,29.616,29.616,0,0,0,9.38,2.6V21.352a24.279,24.279,0,0,1-9.38-3.024,24.521,24.521,0,0,1-9.38,3.024Zm17.08,10.892V32.244h-6.188V28.66h6.188V25.636h-15.428V28.66h6.216v3.584h-6.216v3.024h6.216v3.556H-130.9v3.024h18.76V38.824h-7.868V35.268Zm5.32-10.892a30.113,30.113,0,0,0,9.38-2.6,29.616,29.616,0,0,0,9.38,2.6V21.352a24.279,24.279,0,0,1-9.38-3.024,24.521,24.521,0,0,1-9.38,3.024Zm17.92,8.4V29.752h-6.188v-5.1h-3.024V38.824h-3V29.752h-3.024v9.072H-108.5v3.024h18.76V38.824h-7.028V32.776ZM-67.34,20.96h-1.288l.448-2.072h-3.108l-.448,2.072h-1.12V18.888H-75.88V20.96h-1.68V18.888h-3.024V20.96h-1.092l-.476-2.072H-85.26l.476,2.072H-86.1v3.024h2.8v2.38h-2.8v3.024h7.868v1.2H-85.26V32.86h7.028v1.2H-85.82v3.024h4.76a10.945,10.945,0,0,1-5.04,1.82l.728,2.94a10.925,10.925,0,0,0,7.14-3.108v3.108h3.024V38.74a10.973,10.973,0,0,0,7.14,3.108l.728-2.94a10.887,10.887,0,0,1-5.012-1.82h4.732V34.064h-7.588v-1.2h7.028V30.592h-7.028v-1.2h7.868V26.364h-2.8v-2.38h2.8Zm-12.936,5.4v-2.38h7.112v2.38Zm26.46-2.24c-5.768,0-10.052,3.724-9.072,8.288.532,2.464,2.548,3.192,4.732,3.192,2.38,0,5.18-2.1,5.74-8.232,2.156.672,2.912,2.94,2.912,4.648,0,4.564-2.66,6.8-5.208,6.8v3.024c3.808,0,8.344-3.024,8.344-9.856C-46.368,28.912-48.412,24.124-53.816,24.124Zm-4.844,8.652c-2.492,0-2.1-4.7,3.22-5.516C-55.86,31.4-57.428,32.776-58.66,32.776Zm23.072,9.072V34.26l1.428,1.316,2.044-2.24-3.024-2.772a12.972,12.972,0,0,0,1.82-6.58V20.96h-2.772V18.888h-3.024V20.96H-41.86v3.024h5.516a10.089,10.089,0,0,1-5.516,8.764v3.528A17.062,17.062,0,0,0-38.612,34.4v7.448Zm5.964-22.96v7.224h-2.94v3.024h2.94v9.688h-3.5v3.024H-23.1V38.824h-3.5V29.136h3.5V26.112h-3.5V18.888ZM-2.1,29.3V27.232H-15.036V25.888H-2.1V23.816H-15.036V22.472h13.5V19.448H-18.06v11.2h-1.4v3.024h1.4V38.8c-.448,0-.924.028-1.4.028v3.024a34.846,34.846,0,0,0,9.38-1.064V37.732a29.244,29.244,0,0,1-4.956.868V33.672h3.444c1.428,3.192,4,6.076,10,8.176l.9-2.884A18.71,18.71,0,0,1-2.94,38.1l1.848-1.736-2.044-2.212-2.492,2.3a12.1,12.1,0,0,1-2.52-2.772H-.7V30.648H-15.036V29.3Zm18.116-3.976a25.429,25.429,0,0,0-3.136,2.1L10.556,20.96H7.336L10.5,29.752c-5.824,7-.924,14.7,7.644,11.256l-.7-2.94c-6.664,3.22-10.472-4.172,0-10.08Zm17.528-2.576c1.288,0,2.408-.028,3.416-.056v2.38H33.544V28.1H36.96v2.548H33.544v11.2h10v-11.2H39.984V28.1H43.54V25.076H39.984v-2.6a22.729,22.729,0,0,0,3.556-.56V18.888s-2.94.84-10,.84Zm-7.924-1.12h6.244V19.448H25.62Zm-.84,1.092v3.024H32.7V22.724Zm.84,4.144v2.184h6.244V26.868Zm6.244,5.544V30.228H25.62v2.184Zm-7.084,1.2v8.232H32.7V33.616Zm15.708,5.208h-3.92V33.672h3.92Zm-12.684,0V36.64H29.68v2.184ZM64.092,23.592V20.008H62.328v3.584Zm2.436,0V20.008H64.764v3.584ZM54.292,20.96H51.268v5.376c-1.624.2-2.828.448-2.828.448l.672,2.968s.924-.2,2.156-.364v6.356h3.024v-6.58c5.348.112,3.276,6.328-.112,10.836l2.38,1.848C64.316,31.1,59.584,26.224,54.292,26.14Zm7.252,9.912,2.828-1.12L61.684,23l-2.8,1.12Zm10.78-7.9L72.436,26l7.364-.308c-6.356,8.288-4.228,14,1.848,16.156l1.316-2.716c-4.732-1.848-6.1-5.376.9-13.636l-.084-2.464h.476V19.448H82.516v3.08Zm12.74-3.528v3.584h1.764V19.448Zm15.148,1.512v1.512H95.648V25.5h4.564v2.912H95.648V31.46h4.564v4.284h3.024V31.46h2.856V28.408h-2.856V25.5h2.856V22.472h-2.856V20.96ZM93.94,34.624c.336,4.816,4.228,6.5,7.784,7.224l.616-2.968c-2.436-.5-5.124-1.484-5.376-4.508ZM125.412,20.96H117.1v3.024h4.34l-2.268,8.064c3.836-.2,5.6,1.288,5.6,3.472a3.058,3.058,0,0,1-1.652,2.912,3.531,3.531,0,0,0-6.832-1.6,3.343,3.343,0,0,0,.532,3.332c1.232,1.428,3.248,1.68,4.788,1.68,4.172,0,6.188-3.024,6.188-6.328a6.141,6.141,0,0,0-4.76-6.02Zm-4.956,17.36a.89.89,0,1,1-1.68-.588.89.89,0,0,1,1.68.588Z" transform="translate(130.9 21.112)" fill="#25aa39"/>
</svg>
