<svg xmlns="http://www.w3.org/2000/svg" width="264.04" height="63.52" viewBox="0 0 264.04 63.52">
  <path id="パス_46522" data-name="パス 46522" d="M-97.664-21.084v5.376l-1.316.308v-4.2h-3.052v4.956l-.616.14V-11.4l.616-.14V-3.5c0,4.368,1.624,5.348,5.8,5.348H-90.3V-1.176h-5.488c-2.632,0-3.192-.224-3.192-2.324v-8.792l1.316-.308v4.9h3.024v-5.656l1.344-.308v5.74c0,1.456-.532,1.876-1.568,1.876V-3c3.08,0,4.592-1.428,4.592-4.928v-9.6l-4.368,1.064v-4.62Zm-5.684,6.58h-1.344v-3.024h-3.024V-14.5h-1.316v3.024h1.316v7.2a10.06,10.06,0,0,1-1.316.084v3.024c2.828,0,4.928-.644,5.684-1.26V-5.46c-.42.2-.868.392-1.344.56v-6.58h1.344Zm34.328-3.024v-3.024H-85.54v3.024Zm-13.244,6.664c-.112,6.328-2.072,8.736-4.4,10.64l2.212,2.072c2.632-2.016,5.1-4.956,5.208-12.712h4.06v8.512c0,2.688,1.148,4.2,4.256,4.2H-67.9V-1.176h-2.576c-1.316,0-1.68-.588-1.68-1.988v-7.7H-67.9v-3.024H-86.66v3.024Zm18-4.76a30.113,30.113,0,0,0,9.38-2.6,29.616,29.616,0,0,0,9.38,2.6v-3.024a24.279,24.279,0,0,1-9.38-3.024,24.521,24.521,0,0,1-9.38,3.024Zm17.92,8.4v-3.024h-6.188v-5.1h-3.024V-1.176h-3v-9.072h-3.024v9.072H-64.26V1.848H-45.5V-1.176h-7.028V-7.224ZM-23.1-19.04h-1.288l.448-2.072h-3.108L-27.5-19.04h-1.12v-2.072H-31.64v2.072h-1.68v-2.072h-3.024v2.072h-1.092l-.476-2.072H-41.02l.476,2.072H-41.86v3.024h2.8v2.38h-2.8v3.024h7.868v1.2H-41.02V-7.14h7.028v1.2H-41.58v3.024h4.76a10.945,10.945,0,0,1-5.04,1.82l.728,2.94a10.925,10.925,0,0,0,7.14-3.108V1.848h3.024V-1.26a10.973,10.973,0,0,0,7.14,3.108l.728-2.94a10.887,10.887,0,0,1-5.012-1.82h4.732V-5.936h-7.588v-1.2h7.028V-9.408h-7.028v-1.2H-23.1v-3.024h-2.8v-2.38h2.8Zm-12.936,5.4v-2.38h7.112v2.38Zm29.652-1.036a25.429,25.429,0,0,0-3.136,2.1l-2.324-6.468h-3.22l3.164,8.792c-5.824,7-.924,14.7,7.644,11.256l-.7-2.94c-6.664,3.22-10.472-4.172,0-10.08Zm19.628,13.5v-9.688H20.16V-19.1H17.136v5.208H13.244v-6.664H10.22v6.664H6.328V-19.1H3.3v8.232H10.22v9.688H5.4V-9.352H2.38v11.2H21.14v-11.2H18.116v8.176Zm30.3-17.472a24.279,24.279,0,0,1-9.38-3.024,24.521,24.521,0,0,1-9.38,3.024v3.024a30.113,30.113,0,0,0,9.38-2.6,29.616,29.616,0,0,0,9.38,2.6ZM28.56-11.816h11.2V-14.84H28.56ZM26.348,1.848C34.72,1.848,38.892.84,39.452.7L39.7,1.848h3.108L41.412-4.7H38.3l.532,2.492a62.188,62.188,0,0,1-9.1.952l2.52-5.348H42.7V-9.632H25.62v3.024h3.3L26.348-1.176ZM52.5-19.04l-.224,3,7.252.532.224-3.024ZM57.82-3.164c2.968-5.04,2.156-10.724-3.192-10.724a15.56,15.56,0,0,0-3.556.42l.784,2.912a10.409,10.409,0,0,1,2.772-.308c3.024,0,2.212,6.44-3.5,10.36l1.9,2.352A19.263,19.263,0,0,0,55.468-.14c3.724-1.316,3.64,4.368,9.016.756L63.252-2.156C60.144-.42,60.144-2.716,57.82-3.164ZM81.732-19.04H73.416v3.024h4.34L75.488-7.952c3.836-.2,5.6,1.288,5.6,3.472a3.058,3.058,0,0,1-1.652,2.912,3.535,3.535,0,0,0-2.3-3.724A3.53,3.53,0,0,0,72.6-3.164,3.343,3.343,0,0,0,73.136.168c1.232,1.428,3.248,1.68,4.788,1.68,4.172,0,6.188-3.024,6.188-6.328a6.141,6.141,0,0,0-4.76-6.02ZM76.776-1.68a.9.9,0,0,1-1.148.56A.892.892,0,0,1,75.1-2.268.881.881,0,0,1,76.244-2.8.884.884,0,0,1,76.776-1.68Zm24.976-18.872H98.168l.28,15.932h3.024Zm-3.3,18.76v3.64h3.024v-3.64ZM-114.1,28.072V25.048h-13.216v-1.68c7.364-.252,10.22-1.456,10.22-1.456V18.888S-121.212,20.4-130.34,20.4V33.448h-1.68v3.024h3.556a4.385,4.385,0,0,1-3.556,2.464l.84,2.912a6.611,6.611,0,0,0,5.656-4.648l-1.792-.728h9.352l-1.82.728a6.681,6.681,0,0,0,5.656,4.648l.868-2.912a4.385,4.385,0,0,1-3.556-2.464h3.556V33.448h-2.66V28.072Zm-13.216,5.376V28.072h8.372v5.376Zm26.236-14.56V20.96h-7.7c0,10.976-.84,15.512-.84,15.512l2.968.476s.756-3.808.9-12.964h5.964V25.02h-5.628v2.464h5.628v1.008H-105.7v8.484h5.908V38.1h-5.068V40.56h5.068v1.288h3.024V40.56H-91.7V38.1h-5.068v-1.12h5.908V28.492h-5.908V27.484H-91.7V25.02h-5.068V23.984h5.908V20.96h-7.2V18.888Zm-1.6,12.992v-.924h2.884v.924Zm8.792-.924v.924h-2.884v-.924Zm-8.792,3.556v-.9h2.884v.9Zm8.792-.9v.9h-2.884v-.9Zm25.424-1.624V19.448h-14.9V31.992Zm-18.76-9.52V35.856h7.868v5.992h3.024V35.856h7.868V32.832H-84.2V22.472Zm15.736,0V23.48h-8.848V22.472Zm0,2.744v1.008h-8.848V25.216Zm0,2.744v1.008h-8.848V27.96Zm-14.028,8.624a5.93,5.93,0,0,1-1.708,3.752l2.6,1.512a6.756,6.756,0,0,0,2.128-5.264Zm12.32,0a6.791,6.791,0,0,0,2.1,5.264l2.632-1.512a5.93,5.93,0,0,1-1.708-3.752Zm16.212-17.7V20.96h-7.84V41.848H-61.8V23.984h4.844c0,3.752-1.568,7.364-4.452,10.724l2.3,1.988a22.446,22.446,0,0,0,3.668-5.712A21.713,21.713,0,0,0-51.772,36.7l2.268-1.988c-2.884-3.36-4.424-6.972-4.424-10.724h4.844V36.948c0,1.456-.532,1.876-1.568,1.876h-1.12v3.024h1.12c3.08,0,4.592-1.428,4.592-4.9V20.96h-7.9V18.888Zm24.444,5.236c-5.768,0-10.052,3.724-9.072,8.288.532,2.464,2.548,3.192,4.732,3.192,2.38,0,5.18-2.1,5.74-8.232,2.156.672,2.912,2.94,2.912,4.648,0,4.564-2.66,6.8-5.208,6.8v3.024c3.808,0,8.344-3.024,8.344-9.856C-25.088,28.912-27.132,24.124-32.536,24.124Zm-4.844,8.652c-2.492,0-2.1-4.7,3.22-5.516C-34.58,31.4-36.148,32.776-37.38,32.776ZM-9.968,21.632l-.168.84h-4.116v5.74h-.84v2.52h.532a8.495,8.495,0,0,1-.672,2.884l2.1.336c-.056.98-.616,1.848-2.212,2.8l2.072,1.9a7.043,7.043,0,0,0,2.38-2.184H-6.8a5.756,5.756,0,0,1-1.344,1.176c-.5-.28-.98-.616-1.428-.924l-2.24,1.764c.168.14.364.308.56.448a31.47,31.47,0,0,1-3.388.672l1.512,2.24a18.631,18.631,0,0,0,4.816-1.2,17.2,17.2,0,0,0,4.676,1.2l1.372-2.324a13.757,13.757,0,0,1-3.024-.616,5.524,5.524,0,0,0,1.96-2.436V34.848H-10.22a4.675,4.675,0,0,0,.112-1.036H-12.74A6.68,6.68,0,0,0-12.1,30.4h-.812v-.84H-4v.84H-4.62l.28,1.68h2.1l-.224-1.344h.644v-2.52h-.84v-5.74H-7.028l.168-.84h5.04V19.448H-14.812v2.184Zm-8.96,20.216H-15.9V29.22h-.756a21.492,21.492,0,0,0,1.26-8.148h-3.024c0,4.172-.5,7.336-2.156,9.016v4.144a12.176,12.176,0,0,0,1.652-1.484Zm13.244-16.94h-5.544V24.1h5.544Zm-5.544,1.652v-.812h5.544v.812Zm0,1.652V27.4h5.544v.812Zm2.8,2.184h-3.024v.336c0,2.548,1.6,3.276,4.536,3.276H-2.24V32.552H-6.916c-1.372,0-1.512-.644-1.512-1.82Zm.728,0,.28,1.68h2.072l-.28-1.68Zm25.508,2.492-2.464,2.828a19.051,19.051,0,0,1-2.856-3.444H19.74V20.12H12.712V18.888H9.688V20.12H2.38v18.7H1.82v3.024a41.648,41.648,0,0,0,9.38-.868V37.956a43.364,43.364,0,0,1-5.8.728V32.272H8.96c4.228,7.7,10.136,9.576,10.136,9.576l1.484-2.632a14.645,14.645,0,0,1-2.912-1.6L20.076,34.9Zm-1.092-9.744v2.128H5.4V23.144ZM5.4,27.12H16.716v2.128H5.4ZM24.22,24.376a30.113,30.113,0,0,0,9.38-2.6,29.616,29.616,0,0,0,9.38,2.6V21.352a24.279,24.279,0,0,1-9.38-3.024,24.521,24.521,0,0,1-9.38,3.024Zm17.92,8.4V29.752H35.952v-5.1H32.928V38.824h-3V29.752H26.908v9.072H24.22v3.024H42.98V38.824H35.952V32.776ZM65.38,20.96H64.092l.448-2.072H61.432l-.448,2.072h-1.12V18.888H56.84V20.96H55.16V18.888H52.136V20.96H51.044l-.476-2.072H47.46l.476,2.072H46.62v3.024h2.8v2.38h-2.8v3.024h7.868v1.2H47.46V32.86h7.028v1.2H46.9v3.024h4.76a10.945,10.945,0,0,1-5.04,1.82l.728,2.94a10.925,10.925,0,0,0,7.14-3.108v3.108h3.024V38.74a10.973,10.973,0,0,0,7.14,3.108l.728-2.94a10.887,10.887,0,0,1-5.012-1.82H65.1V34.064H57.512v-1.2H64.54V30.592H57.512v-1.2H65.38V26.364h-2.8v-2.38h2.8Zm-12.936,5.4v-2.38h7.112v2.38Zm33.488-2.772V20.008H84.168v3.584Zm2.436,0V20.008H86.6v3.584ZM76.132,20.96H73.108v5.376c-1.624.2-2.828.448-2.828.448l.672,2.968s.924-.2,2.156-.364v6.356h3.024v-6.58c5.348.112,3.276,6.328-.112,10.836l2.38,1.848C86.156,31.1,81.424,26.224,76.132,26.14Zm7.252,9.912,2.828-1.12L83.524,23l-2.8,1.12Zm25.956,2.884h-7.588v-.84h7.308V29.892h-6.02V28.884h5.18V27.148h-5.18V26.14h5.18V24.4h-5.18v-.98h6.02V20.4H103.4l.336-1.512h-3.108L100.3,20.4H95.4a13.647,13.647,0,0,0,.056-1.512H92.428c0,1.9-.392,3.836-2.324,5.012l1.316,2.856.448-.28v6.44h6.86v.84H91.14V36.78h5.152a11.056,11.056,0,0,1-5.432,2.128l.728,2.94a10.973,10.973,0,0,0,7.14-3.108v3.108h3.024V38.74a10.973,10.973,0,0,0,7.14,3.108l.728-2.94a11.056,11.056,0,0,1-5.432-2.128h5.152ZM94.892,24.4v-.98h5.124v.98Zm0,2.744V26.14h5.124v1.008Zm0,2.744V28.884h5.124v1.008Zm30.632-11V20.96h-3.5v3.024h3.5v2.8h-2.94v3.024h8.876V26.784h-2.912v-2.8h3.472V20.96h-3.472V18.888Zm-6.692,22.96V32.972l.336-.084.028.784h2.268l-.392-6.02H118.8l.14,2.212a17.885,17.885,0,0,1-2.072.476l1.176-2.128V25.16H116.7l2.128-3.892-2.66-1.428-2.912,5.32v3.052H114.6l-1.344,2.436v3.024a21.892,21.892,0,0,0,3.248-.224v8.4Zm13.188,0V31.208h-10v10.64ZM129,34.232v4.592h-3.948V34.232Zm-15.176.476a22.015,22.015,0,0,1-.56,6.02l1.988.7a23.884,23.884,0,0,0,.672-6.72Zm7.644.2H119.42v5.824h2.044Z" transform="translate(132.02 21.672)" fill="#25aa39"/>
</svg>
