<?xml version="1.0" encoding="utf-8"?>
<!-- Generator: Adobe Illustrator 15.0.0, SVG Export Plug-In . SVG Version: 6.00 Build 0)  -->
<!DOCTYPE svg PUBLIC "-//W3C//DTD SVG 1.1//EN" "http://www.w3.org/Graphics/SVG/1.1/DTD/svg11.dtd">
<svg version="1.1" id="レイヤー_1" xmlns="http://www.w3.org/2000/svg" xmlns:xlink="http://www.w3.org/1999/xlink" x="0px"
	 y="0px" width="449.52px" height="166.284px" viewBox="0.877 10.172 449.52 166.284"
	 enable-background="new 0.877 10.172 449.52 166.284" xml:space="preserve">
<g>
	<polygon fill="#243F7E" points="289.411,28.986 289.412,28.986 289.412,28.986 	"/>
	<path fill="#243F7E" d="M284.124,36.792c-0.241-0.036-0.485-0.053-0.729-0.049c-0.129,0-0.263,0.001-0.385,0.006
		s-0.249,0.005-0.37,0.005c-0.148,0-0.27-0.004-0.382-0.013h-6.946c-2.151,0-4.185,0-6.254,0.047c-0.281,0-0.563-0.007-0.881-0.015
		s-0.645-0.016-0.971-0.016c-0.484-0.005-0.968,0.022-1.448,0.082c-1.028,0.06-1.824,0.923-1.8,1.953
		c0.04,1.048,0.907,1.875,1.957,1.863c2.212,0,4.449-0.036,6.611-0.071c1.734-0.028,3.521-0.057,5.301-0.067
		c-1.94,1.89-3.619,4.03-4.991,6.365c-1.698,2.68-2.67,5.755-2.818,8.924c-0.035,2.352,0.451,4.683,1.424,6.825
		c0.983,2.191,2.743,3.941,4.939,4.913l0.019,0.006c0.266,0.115,0.551,0.175,0.839,0.176c1.037-0.001,1.884-0.827,1.91-1.863
		c-0.008-0.691-0.396-1.321-1.011-1.639l-0.009-0.006c-0.193-0.128-0.377-0.239-0.555-0.346c-0.351-0.196-0.681-0.427-0.984-0.689
		l-0.008-0.007c-2.268-1.978-2.743-5.104-2.743-7.378c0-4.598,4.527-11.267,8.576-14.161c0.7-0.462,1.443-0.855,2.219-1.174h0.006
		c0.769-0.271,1.28-0.999,1.275-1.813C285.898,37.657,285.116,36.845,284.124,36.792z"/>
	<path fill="#243F7E" d="M306.879,59.586l0.009,0.007c2.152,1.704,3.962,3.801,5.331,6.18c-0.094,0.221-0.141,0.46-0.136,0.7
		c0.026,1.036,0.873,1.862,1.91,1.863c1.238-0.087,2.186-1.139,2.145-2.38c0-1.98-2.438-4.926-3.488-6.1
		c-0.816-0.924-1.7-1.788-2.642-2.585c-1.263-1.045-1.791-1.166-2.078-1.166c-0.012,0-0.022,0-0.034,0
		c-1.031,0.021-1.85,0.875-1.828,1.906C306.061,58.638,306.365,59.228,306.879,59.586z"/>
	<path fill="#243F7E" d="M292.053,32.613c-0.513-0.416-0.786-1.059-0.732-1.717c0.001-0.014,0.001-0.027,0-0.04
		c-0.011-1.044-0.866-1.88-1.908-1.87c-1.05,0.014-1.898,0.86-1.912,1.91c-0.094,1.84,0.709,3.612,2.154,4.755
		c0.354,0.293,0.801,0.451,1.261,0.445c0.013,0,0.026,0,0.04,0c1.044-0.011,1.881-0.866,1.87-1.91
		C292.816,33.573,292.532,32.996,292.053,32.613z"/>
	<path fill="#243F7E" d="M297.996,31.174c-0.003-0.478-0.177-0.939-0.489-1.3c-0.51-0.663-0.975-1.359-1.391-2.083l-0.215-0.351
		l-0.011-0.017c-0.353-0.567-0.97-0.917-1.638-0.928c-1.054,0.001-1.907,0.854-1.91,1.907c0,0.17,0,0.613,0.982,2.17
		c0.395,0.639,0.833,1.251,1.31,1.832l0.016,0.017c0.383,0.381,0.896,0.602,1.436,0.616c0.013,0,0.026,0,0.039,0
		C297.156,33.04,297.994,32.205,297.996,31.174z"/>
	<path fill="#243F7E" d="M314.617,141.496h0.024c0.087,0.03,0.178,0.046,0.27,0.047c1.049-0.015,1.896-0.86,1.909-1.91
		c-0.004-0.927-0.661-1.721-1.569-1.899h-0.007c-2.033-0.363-4.088-0.594-6.15-0.69c-0.103-0.397-0.19-0.81-0.274-1.21
		c-0.061-0.287-0.123-0.584-0.19-0.873l-0.006-0.023c-0.215-0.871-0.994-1.484-1.892-1.49l0.003-0.004
		c-1.062,0.027-1.908,0.896-1.909,1.957c0.025,0.477,0.112,0.947,0.259,1.4c-0.726-0.021-1.45-0.021-2.156-0.021
		c-0.13,0-0.281-0.006-0.441-0.006c-0.19-0.01-0.407-0.01-0.632-0.01c-0.742-0.027-1.483,0.074-2.19,0.301
		c-0.804,0.236-1.347,0.985-1.322,1.822c0,0.014,0,0.027,0,0.041c0.011,1.043,0.866,1.881,1.91,1.869
		c0.088-0.002,0.177-0.014,0.262-0.038l0.035-0.009h0.02l0.035-0.005c0.974-0.13,1.955-0.192,2.938-0.183
		c0.849,0,1.663,0.035,2.512,0.074c0.479,2.066,0.962,4.184,1.379,6.283c-2.478-0.294-4.969-0.461-7.463-0.5
		c-0.1-0.014-0.2-0.02-0.301-0.018c-1.067,0.023-1.914,0.907-1.892,1.975c0.028,1.055,0.903,1.887,1.957,1.863
		c1.875,0,3.776,0.176,5.615,0.346c0.902,0.083,1.831,0.169,2.758,0.234c0.026,0.291,0.056,0.578,0.083,0.857
		c0.096,0.809,0.15,1.62,0.163,2.434c0,2-0.359,2.623-0.52,2.8c-0.368,0.344-0.572,0.828-0.562,1.332
		c0.015,1.049,0.861,1.896,1.91,1.909c0.798,0,1.883-0.453,2.519-2.608c0.306-1.136,0.464-2.306,0.469-3.481
		c-0.005-0.994-0.062-1.989-0.17-2.979c0.892,0.063,1.79,0.096,2.678,0.096c1.049-0.015,1.896-0.861,1.91-1.91
		c-0.015-1.05-0.861-1.896-1.91-1.91c-1.089,0-2.22-0.039-3.295-0.112c-0.452-2.322-0.901-4.399-1.367-6.315
		c1.526,0.074,3.045,0.258,4.544,0.551L314.617,141.496z"/>
	<path fill="#243F7E" d="M417.045,143.313L417.045,143.313c-1.038,0.001-1.885,0.828-1.91,1.864
		c-0.012,0.519,0.192,1.019,0.563,1.382c0.565,0.959,0.827,2.066,0.754,3.178c0.027,0.895-0.148,1.783-0.515,2.6
		c-0.129,0.258-0.194,0.541-0.19,0.829c0.014,1.057,0.854,1.917,1.909,1.957c0.702,0,1.655-0.404,2.208-2.33
		c0.266-0.998,0.402-2.025,0.407-3.058C420.271,148.378,419.723,143.313,417.045,143.313z"/>
	<path fill="#243F7E" d="M394.912,155.627c-0.4-0.001-0.791,0.124-1.114,0.36c-1.092,0.704-2.298,1.212-3.565,1.5
		c-1.313-1.231-3.523-5.793-4.344-7.922c-0.277-0.83-0.513-1.68-0.742-2.506c-0.215-0.871-0.993-1.484-1.891-1.49h-0.005
		c-1.049,0.016-1.893,0.864-1.905,1.912c0,1.984,2.614,7.287,3.352,8.606l0.008,0.013c0.568,1.085,1.225,2.121,1.961,3.101
		c1.124,1.426,2.177,2.126,3.217,2.126c2.221-0.221,4.35-1.001,6.186-2.27c0.483-0.355,0.764-0.922,0.753-1.521
		C396.821,156.482,395.966,155.628,394.912,155.627z"/>
	<path fill="#243F7E" d="M450.277,169.364l-0.006-0.016c-0.248-0.938-0.34-1.908-0.273-2.875c0.009-1.429,0.016-2.773-0.708-3.5
		c-0.339-0.331-0.8-0.508-1.272-0.488v0.004c-1.05,0.014-1.897,0.861-1.911,1.91c0,0.154,0,0.313,0,0.477
		c-0.008,2.377-0.017,5.335,1.158,6.514c0.319,0.332,0.762,0.518,1.223,0.514c0.027,0,0.055,0.001,0.082,0
		c1.02-0.01,1.838-0.844,1.828-1.863C450.393,169.81,450.353,169.582,450.277,169.364z"/>
	<path fill="#243F7E" d="M369,147.963c-0.811-0.206-1.646-0.301-2.481-0.278c-2.693,0.058-5.347,0.668-7.795,1.793
		c-0.653,0.322-1.068,0.986-1.071,1.715c0,0.014,0.001,0.027,0.001,0.041c0.024,1.057,0.9,1.893,1.956,1.869
		c0.286,0.003,0.567-0.062,0.823-0.188c1.927-0.89,4.012-1.386,6.133-1.457c0.553-0.001,1.103,0.085,1.628,0.256l0.037,0.011
		c0.224,0.064,0.453,0.102,0.686,0.109c1.028-0.001,1.861-0.834,1.862-1.863C370.779,149.296,370.47,148.401,369,147.963z"/>
	<path fill="#243F7E" d="M280.368,142.81c-1.803,0-3.648,0.125-5.434,0.246l-0.627,0.041c0.071-0.371,0.145-0.738,0.216-1.1
		c0.537-2.425,0.914-4.882,1.126-7.355v-0.201c0.022-0.441-0.139-0.872-0.445-1.19c-0.355-0.378-0.852-0.593-1.37-0.593
		c-0.887-0.01-1.641,0.645-1.758,1.523v0.01c-0.1,0.521-0.16,1.058-0.221,1.576c-0.053,0.483-0.11,0.992-0.2,1.483v0.015
		c-0.308,2.018-0.66,4.063-1.051,6.086l-0.174,0.01c-1.818,0.053-3.63,0.251-5.417,0.594H265c-0.715,0.168-1.265,0.738-1.406,1.458
		c-0.646-0.462-1.434-0.677-2.224-0.608c-0.208,0-0.425,0.002-0.615,0.012c-0.191,0.01-0.371,0.01-0.543,0.01
		c-0.447,0-0.913,0.012-1.364,0.023c-0.29,0.008-0.59,0.02-0.89,0.02c0.026-0.711,0.026-1.426,0.026-2.125
		c1.426-0.076,2.848-0.114,4.247-0.114c0.409,0,0.807,0.022,1.218,0.046c0.41,0.023,0.837,0.049,1.273,0.049
		c0.988-0.018,1.778-0.828,1.77-1.816c0.017-0.902-0.658-1.668-1.555-1.764c-0.577-0.081-1.159-0.117-1.742-0.107
		c-0.191,0-0.39,0-0.57,0c-0.182,0-0.359,0-0.534,0c-1.371,0-2.697,0.035-4.036,0.109l0.1-2.381c1.716-0.34,3.454-0.551,5.2-0.63
		c0.998-0.013,1.804-0.818,1.816-1.815c-0.013-0.998-0.818-1.803-1.816-1.816c-2.236,0-13.146,1.689-15.076,2.43
		c-0.23,0.084-0.441,0.215-0.619,0.385c0.271-0.588,0.471-1.207,0.591-1.844c0.009-0.988-0.781-1.8-1.77-1.816
		c-0.704,0.002-1.346,0.407-1.65,1.041l-0.013,0.023c-0.244,0.488-0.458,0.993-0.64,1.51c-0.124,0.328-0.24,0.639-0.364,0.922
		l-1.932,4.9l-4.837,11.938l-0.013,0.033l-0.01,0.033L237,152.146c-0.056,0.179-0.086,0.363-0.09,0.551
		c0.011,0.982,0.792,1.783,1.774,1.818c0.686-0.022,1.303-0.424,1.601-1.043l0.01-0.018c0.179-0.345,0.335-0.701,0.469-1.064
		c0.085-0.214,0.166-0.424,0.252-0.613v-0.006c0.167-0.381,0.33-0.763,0.49-1.145c-0.041,5.786-0.22,12.085-0.554,19.579v0.101
		c-0.017,0.467,0.157,0.92,0.481,1.258c0.317,0.355,0.768,0.563,1.243,0.574c0.948,0.045,1.773-0.643,1.9-1.584v-0.01
		c0.061-0.41,0.098-0.824,0.112-1.238c0.011-0.209,0.021-0.406,0.036-0.592v-0.013c0.092-1.608,0.14-3.263,0.186-4.863v-0.133
		c0.157-5.382,0.234-10.122,0.234-14.491c0-0.826-0.013-1.668-0.023-2.475c-0.012-0.807-0.023-1.641-0.023-2.461v-0.028
		c-0.045-0.769-0.093-1.563-0.093-2.338c0.018-0.065,0.083-0.218,0.118-0.3s0.065-0.154,0.087-0.215
		c0.075-0.191,0.267-0.662,0.509-1.252c0.585-1.433,1.039-2.549,1.39-3.433c0.028,0.976,0.839,1.745,1.814,1.722
		c0.2-0.008,0.397-0.049,0.585-0.121c1.564-0.473,3.169-0.804,4.793-0.987l0.206-0.03c-0.029,0.68-0.055,1.372-0.064,2.061
		l-0.678,0.059c-2.207,0.126-4.403,0.412-6.569,0.857l-0.018,0.006c-0.811,0.191-1.385,0.914-1.387,1.746
		c0.013,0.998,0.818,1.804,1.815,1.816c0.16,0.008,0.32-0.016,0.473-0.068c2.071-0.436,4.176-0.699,6.292-0.787
		c-0.025,0.662-0.025,1.332-0.025,1.992c-0.983,0.051-1.866,0.131-2.676,0.242c-0.242-0.668-0.861-1.124-1.571-1.156
		c-0.982-0.053-1.827,0.686-1.908,1.666c-0.096,0.914-0.129,1.832-0.1,2.75c0,0.219,0,0.435,0,0.647c0,1.608,0.125,7.978,0.73,9.746
		c0.217,0.753,0.918,1.263,1.7,1.235c0.026,0,0.053,0,0.079,0c0.955-0.021,1.712-0.814,1.69-1.77c0-0.049-0.004-0.099-0.009-0.148
		c0.569-0.08,1.158-0.133,1.732-0.18l0.233-0.019c-0.004,0.375-0.013,0.747-0.021,1.112c-0.008,0.401-0.021,0.813-0.021,1.229
		l-0.474,0.048c-1.555,0.114-3.099,0.354-4.614,0.72h-0.014c-0.811,0.191-1.385,0.914-1.387,1.748
		c0.014,0.996,0.819,1.801,1.816,1.814c0.153,0.008,0.307-0.016,0.45-0.071c1.168-0.276,2.355-0.46,3.553-0.552l0.616-0.064
		c-0.01,0.934-0.043,1.896-0.074,2.733l-5.436,1.008h-0.014c-0.856,0.145-1.482,0.89-1.477,1.759
		c0.002,0.977,0.795,1.768,1.772,1.768h0.224c0.932-0.09,1.856-0.241,2.768-0.455c0.423-0.09,0.859-0.182,1.281-0.258
		c2.112-0.381,4.426-0.873,7.067-1.51l0.273-0.058c1.209-0.226,2.398-0.544,3.559-0.95l-0.117,0.262
		c-0.127,0.256-0.192,0.539-0.188,0.824c0.037,0.955,0.816,1.713,1.771,1.723c0.674,0,1.293-0.369,1.612-0.963v-0.006
		c0.579-1.147,1.069-2.338,1.468-3.56l0.163-0.459v-0.006l0.091-0.265c0.053,0.283,0.172,0.55,0.35,0.777
		c0.806,1.032,1.696,1.994,2.664,2.877c2.32,2.167,3.082,2.167,3.332,2.167c0.612-0.005,1.185-0.31,1.53-0.815
		c1.345-1.826,2.524-5.396,3.514-10.606c0.61-3.243,1.141-7.03,1.563-11.243c0.027-0.252,0.055-0.5,0.084-0.752
		c0.143-1.078,0.226-2.162,0.248-3.249c0.001-0.026,0.002-0.054,0.002-0.079C282.19,143.632,281.375,142.812,280.368,142.81z
		 M278.41,146.489c-0.456,5.625-1.519,15.048-3.761,20.349c-0.698-0.678-1.335-1.383-2.008-2.116
		c-0.182-0.201-0.366-0.404-0.553-0.607c-0.334-0.439-0.856-0.693-1.408-0.686c-0.465,0-0.911,0.18-1.248,0.5
		c1.718-5.647,3.105-11.391,4.156-17.199C275.19,146.617,276.81,146.537,278.41,146.489z M265.373,147.556
		c0.088-0.001,0.177-0.014,0.262-0.037l0.035-0.01h0.035l0.05-0.01c1.36-0.264,2.737-0.436,4.121-0.514
		c-1.133,6.188-2.695,12.289-4.676,18.261c-0.33-0.52-0.904-0.833-1.52-0.83c-0.199,0.008-0.396,0.048-0.581,0.12
		c-1.765,0.568-3.561,1.036-5.379,1.4l0.064-2.35c0.531-0.036,1.072-0.068,1.6-0.1c1.015-0.062,2.065-0.125,3.089-0.238h0.007
		c0.971-0.072,1.718-0.887,1.707-1.859c-0.039-0.996-0.865-1.781-1.862-1.769c-1.434,0.029-2.863,0.142-4.283,0.338l-0.2,0.024
		v-2.26c1.1-0.072,2.207-0.107,3.307-0.107c0.203,0,0.418,0.013,0.618,0.023c0.2,0.012,0.4,0.023,0.601,0.023
		c0.013,0,0.025,0,0.039,0c1.005,0.001,1.82-0.813,1.821-1.818c-0.007-0.531-0.252-1.033-0.668-1.365
		c0.361-2.445,0.568-4.911,0.621-7.383C264.509,147.391,264.933,147.554,265.373,147.556z M254.293,153.056
		c-0.004,0.193-0.01,0.393-0.017,0.594c-0.007,0.234-0.019,0.475-0.019,0.713l-2.331,0.234l-0.079-1.189
		C252.653,153.228,253.47,153.11,254.293,153.056z M254.3,148.563v1.086c-0.862,0.06-1.721,0.164-2.572,0.313v-1.125
		C252.573,148.657,253.436,148.564,254.3,148.563z M257.885,152.845c0.685-0.025,1.396-0.025,2.085-0.025h0.149l-0.13,1.213
		c-0.704,0.009-1.396,0.035-2.104,0.068V152.845z M260.443,149.375c-0.832,0.001-1.685,0.005-2.531,0.028
		c0.012-0.323,0.018-0.647,0.018-0.967l0.3-0.013c0.26-0.012,0.506-0.022,0.753-0.022h0.752c0.199,0,0.409,0.011,0.633,0.022
		l0.147,0.009L260.443,149.375z"/>
	<path fill="#243F7E" d="M447.6,158.554c1.038-0.038,1.871-0.871,1.91-1.91c0-7,0.372-14.434,0.7-20.134v-0.17
		c0.001-0.042,0.001-0.085,0-0.128c-0.036-1.02-0.891-1.817-1.91-1.781c-0.963-0.02-1.784,0.693-1.9,1.649
		c-0.264,2.233-0.406,4.479-0.428,6.729c-0.029,0.881-0.06,1.762-0.09,2.642c-0.117,3.368-0.239,6.85-0.239,10.3
		c-0.034,0.588,0.048,1.176,0.239,1.732C446.16,158.177,446.855,158.61,447.6,158.554z"/>
	<path fill="#243F7E" d="M355.71,138.425c-0.172-0.007-0.343,0.015-0.507,0.064c-1.323,0.313-2.662,0.549-4.013,0.707
		c0.057-0.195,0.085-0.397,0.084-0.6c-0.026-1.037-0.873-1.863-1.91-1.863h-0.001c-0.582-0.01-1.137,0.243-1.512,0.688
		c-0.41,0.521-0.772,1.078-1.083,1.664c-0.062,0.11-0.123,0.22-0.183,0.319c-1.355-0.014-2.735-0.127-4.073-0.236
		c-0.366-0.031-0.732-0.061-1.1-0.089H341.2h-0.09c-1.021,0.036-1.819,0.892-1.788,1.912c-0.021,0.956,0.682,1.776,1.631,1.899h0.01
		c1.038,0.151,2.083,0.241,3.132,0.27l0.479,0.023c-2.989,5.912-7.365,16.662-7.365,22.573c-0.021,0.756,0.068,1.511,0.264,2.241
		c0.157,0.918,0.949,1.592,1.881,1.6c1.057-0.014,1.917-0.854,1.957-1.91c-0.012-0.297-0.056-0.592-0.13-0.881
		c-0.09-0.357-0.142-0.725-0.152-1.093c0-2.419,1.018-6.399,2.941-11.509c1.41-3.751,3.032-7.419,4.857-10.986
		c2.501-0.052,4.987-0.402,7.405-1.044c0.823-0.233,1.391-0.985,1.388-1.841c0-0.014,0-0.027,0-0.04
		C357.609,139.251,356.754,138.414,355.71,138.425z"/>
	<path fill="#243F7E" d="M300.589,158.401v-0.01c-0.187-0.869-0.955-1.49-1.844-1.49v-0.006c-0.014,0-0.027,0-0.041,0
		c-1.057,0.001-1.912,0.857-1.911,1.914c0.001,0.089,0.014,0.178,0.038,0.262l0.009,0.035v0.035l0.01,0.049
		c0.708,3.5,3.861,8.871,6.101,11.156c0.376,0.389,0.893,0.61,1.435,0.616c1.028-0.015,1.865-0.831,1.907-1.858
		c-0.005-0.463-0.179-0.91-0.488-1.256C303.942,165.502,301.527,161.956,300.589,158.401z"/>
	<path fill="#243F7E" d="M368.762,164.179c-1.557-0.115-5.415-0.537-7.776-1.816c-0.296-0.197-0.644-0.302-1-0.299
		c-1.079,0.027-1.933,0.924-1.908,2.004c0.004,0.633,0.338,1.219,0.881,1.543c1.941,1.295,7.325,2.388,9.677,2.388
		c1.054,0.024,1.929-0.81,1.957-1.863c0.001-0.021,0.002-0.04,0.002-0.061C370.612,165.045,369.791,164.196,368.762,164.179z"/>
	<path fill="#243F7E" d="M54.044,47.65c1.893,0.059,4.038,0.126,6.123,0.126c0.017,0,0.033,0.001,0.05,0.001
		c1.289,0.003,2.337-1.039,2.34-2.328c0.001-0.02,0.002-0.039,0.002-0.059c0.028-1.258-0.969-2.301-2.227-2.33
		c-0.586-0.055-1.221-0.08-2.056-0.08c-0.344,0-0.7,0-1.025,0.008c-0.325,0.008-0.661,0.008-0.985,0.008
		c-2.899-0.063-5.85-0.063-8.7-0.063h-5.639c0.389-2.207,0.682-4.437,0.967-6.6c0.212-1.035,0.36-2.082,0.446-3.135v-0.535
		c0-0.017,0-0.035-0.001-0.052c-0.03-1.254-1.071-2.247-2.326-2.216c-1.148-0.013-2.133,0.815-2.316,1.949l-0.017,0.063v0.016
		l-0.006,0.017c-0.027,0.075-0.046,0.153-0.055,0.232c-0.166,1.144-0.285,2.275-0.4,3.375l-0.035,0.334
		c-0.294,2.183-0.649,4.403-1,6.561c-3.248,0.062-6.538,0.174-9.738,0.286c0.616-3.178,1.331-6.33,2.017-9.3
		c0.063-0.207,0.091-0.422,0.081-0.638c-0.002-1.285-1.043-2.326-2.327-2.327c-1.055,0-1.977,0.712-2.243,1.733
		c-0.26,0.794-0.467,1.604-0.622,2.424c-0.07,0.334-0.136,0.649-0.209,0.958v0.007c-0.538,2.457-1.026,4.951-1.5,7.373
		c-5.007,0.213-9.268,0.55-13.377,1.057l-0.329,0.039c-2.091,0.203-4.167,0.53-6.219,0.979c-1.062,0.23-1.821,1.165-1.831,2.25
		c0.016,1.29,1.039,2.34,2.327,2.39c0.107-0.003,0.214-0.017,0.319-0.041c0.041-0.008,0.103-0.022,0.121-0.022h0.048l0.045-0.008
		c5.959-1.022,11.979-1.661,18.02-1.914l-0.137,0.781c-0.536,3.044-1.089,6.192-1.583,9.32l-0.006,0.039v0.291
		c0.008,1.086,0.747,2.031,1.8,2.3l3.547,0.891l1.324,0.372c1.836,0.516,3.729,1.047,5.576,1.607
		c-0.494,1.256-1.013,2.54-1.612,3.74c-0.163,0.346-0.246,0.724-0.242,1.106c0.017,1.278,1.049,2.31,2.327,2.327
		c0.854-0.021,1.635-0.49,2.054-1.235l0.012-0.017c0.809-1.448,1.468-2.974,1.967-4.556c0.433,0.137,1.046,0.342,1.725,0.568
		c1.672,0.64,3.392,1.147,5.143,1.519c1.276,0.015,2.335-0.988,2.39-2.264c-0.008-0.994-0.629-1.879-1.562-2.223
		c-1.7-0.678-3.437-1.265-5.199-1.758c-0.368-0.11-0.723-0.22-1.061-0.32c1.131-4,2.1-8.29,2.954-13.09
		C45.415,47.587,49.78,47.589,54.044,47.65z M36.374,47.66c-0.724,3.753-1.547,7.732-2.636,11.653
		c-2.639-0.791-5.639-1.674-8.668-2.456c0.42-2.69,0.871-5.295,1.349-8.045l0.149-0.863C30.182,47.823,33.263,47.72,36.374,47.66z"
		/>
	<path fill="#243F7E" d="M239.955,62.398c0.033,0.001,0.067,0.001,0.101,0c1.223-0.028,2.191-1.042,2.163-2.264
		c0.001-0.034,0.001-0.067,0-0.101c-0.028-1.222-1.042-2.19-2.264-2.163c-5.135,0-12.313-4.087-16.439-6.973
		c1.953-0.05,3.84-0.091,5.792-0.091c1,0,2.014,0.032,3.008,0.063c0.995,0.031,2.024,0.063,3.04,0.063
		c1.265,0.044,2.33-0.936,2.391-2.2c0.046-1.219-0.863-2.263-2.076-2.386h-0.009c-1.101-0.104-2.205-0.151-3.311-0.139
		c-0.367,0-0.75,0.005-1.1,0.005c-0.351,0-0.711,0-1.06,0c-2.535,0-5.055,0.056-7.5,0.114V44.05
		c2.512-0.059,4.896-0.114,7.375-0.114c0.5,0,1,0.015,1.5,0.031c0.5,0.016,1.017,0.032,1.528,0.032
		c1.22,0.017,2.241-0.921,2.327-2.138c0-0.007,0.001-0.014,0.001-0.021c0.08-1.227-0.849-2.285-2.075-2.365
		c-0.639-0.08-1.281-0.116-1.925-0.108c-0.431,0-0.887,0.011-1.3,0.021c-0.413,0.01-0.84,0.02-1.245,0.02
		c-2.004,0-4.07,0-6.115,0.05c0.001-0.821,0.007-1.656,0.04-2.467c3.523-0.116,6.979-0.173,10.548-0.173
		c0.124,0,0.243-0.005,0.395,0c0.15,0.005,0.307,0.005,0.468,0.005c0.831,0,3.04,0,3.04-2.274c0.032-1.249-0.951-2.29-2.2-2.327
		c-2.269,0-4.606,0-6.923,0.045c0.52-1.049,0.973-2.083,1.351-3.083c3.484-0.06,7.078-0.12,10.612-0.12
		c0.622,0,1.251,0.02,1.874,0.04s1.268,0.041,1.906,0.041c0.342,0,0.654-0.006,0.955-0.018c0.006,0,0.013,0,0.02,0.001
		c1.259,0.044,2.316-0.941,2.36-2.201c0.002-0.038,0.002-0.076,0.002-0.114c-0.006-1.228-1.007-2.218-2.234-2.211
		c-0.855-0.055-1.798-0.08-3.056-0.08c-0.521,0-1.042,0-1.552,0.008c-0.511,0.008-0.991,0.008-1.473,0.008
		c-1.263,0-2.546,0.017-3.786,0.032c-0.825,0.011-1.678,0.021-2.525,0.027c1.093-1.256,2.119-2.569,3.075-3.932
		c1.811-2.565,2.729-4.341,2.729-5.265c-0.002-1.284-1.042-2.325-2.327-2.327c-0.862-0.006-1.649,0.491-2.016,1.272
		c-1.443,2.764-3.236,5.33-5.335,7.635c-0.464,0.431-0.723,1.039-0.709,1.672c0.002,0.329,0.072,0.654,0.207,0.955
		c-0.305,0.004-0.614,0.012-0.914,0.026c-0.046-3.821,0.228-7.64,0.817-11.416l0.009-0.043v-0.359
		c-0.002-1.25-1.015-2.262-2.265-2.264c-1.087,0.01-2.022,0.772-2.251,1.835c-0.666,4.08-0.968,8.21-0.899,12.343
		c-0.506,0.005-1.021,0.017-1.521,0.029c-0.521,0.012-1.055,0.029-1.578,0.029c-0.214-1.816-0.295-3.645-0.244-5.472
		c0-0.279,0-0.556,0-0.83c0-1.933,0.063-3.894,0.188-5.827V12.45c0.031-0.572-0.175-1.133-0.571-1.548
		c-0.439-0.466-1.052-0.729-1.692-0.73c-1.136-0.006-2.099,0.832-2.25,1.957c-0.257,2.464-0.345,4.942-0.265,7.418
		c-0.017,1.79,0.067,3.579,0.251,5.359c-0.759,0.001-1.531,0.01-2.3,0.052c-1.512-1.252-3.548-4.388-4.912-6.488
		c-0.273-0.421-0.533-0.819-0.756-1.154c-0.395-0.69-1.133-1.111-1.928-1.1c-1.261,0-2.293,1.003-2.327,2.264
		c0,0.556,0.48,1.828,4.118,6.707c-2.383,0.069-4.763,0.185-7.243,0.354h-0.013c-0.376,0.036-0.768,0.061-1.177,0.088
		c-1.002,0.038-1.999,0.159-2.981,0.363c-1.098,0.217-1.876,1.197-1.838,2.315c0.016,0.589,0.271,1.146,0.706,1.543
		c0.417,0.409,0.974,0.645,1.558,0.658h0.341c0.604-0.032,1.231-0.111,1.831-0.187c0.619-0.079,1.259-0.16,1.884-0.191h0.016
		c4.505-0.365,9.149-0.497,13.656-0.617l0.023,0.133c0.185,1.02,0.373,2.068,0.592,3.095c-2.199,0.068-4.412,0.189-6.6,0.362
		c-0.233,0.013-0.479,0.023-0.733,0.034c-0.964,0.01-1.925,0.107-2.872,0.292c-1.104,0.174-1.914,1.133-1.899,2.252
		c0.017,1.278,1.049,2.31,2.327,2.327c0.104-0.002,0.209-0.018,0.31-0.046c0.025-0.007,0.06-0.017,0.073-0.017h0.03l0.034-0.005
		c1.801-0.242,3.612-0.387,5.429-0.436h0.017c2.62-0.179,5.188-0.298,7.82-0.364c-0.032,0.819-0.038,1.655-0.038,2.476
		c-0.684,0.032-1.371,0.061-2.041,0.089c-1.651,0.067-3.365,0.141-5.051,0.267c-0.217,0.011-0.438,0.02-0.673,0.03
		c-1.099,0.007-2.193,0.129-3.267,0.363l-0.02,0.006c-1.051,0.234-1.799,1.166-1.801,2.242c0.034,1.261,1.066,2.265,2.327,2.264
		c0.17,0.009,0.339-0.023,0.493-0.094c0.815-0.18,1.648-0.264,2.483-0.252c0.317-0.008,0.615-0.016,0.899-0.033h0.011
		c1.599-0.127,3.205-0.198,4.76-0.267c0.595-0.027,1.206-0.054,1.818-0.084v2.332c-3.015,0.118-6.118,0.246-9.181,0.486
		l-0.318,0.026c-1.509,0.083-3.009,0.289-4.484,0.617c-1.039,0.223-1.794,1.124-1.829,2.186c0.017,1.278,1.049,2.31,2.327,2.327
		c0.104-0.002,0.209-0.018,0.31-0.046c0.025-0.007,0.06-0.017,0.073-0.017h0.034l0.038-0.006c3.68-0.513,7.386-0.829,11.1-0.947
		c-4.229,4.591-8.443,7.619-12.851,9.242c-0.963,0.317-1.609,1.222-1.596,2.236c0,0.016,0.001,0.032,0.001,0.047
		c0.03,1.255,1.072,2.247,2.326,2.217c0.239-0.005,0.475-0.06,0.691-0.161c4.454-1.457,8.966-4.5,13.426-9.05c0,0.61,0,1.215,0,1.81
		c0.01,3.94,0.021,8.013-0.131,11.986v0.133c-0.036,0.582,0.175,1.153,0.579,1.573c0.371,0.387,0.866,0.633,1.399,0.694
		c0.087,0.05,0.186,0.077,0.285,0.076c1.188-0.001,2.185-0.891,2.322-2.07c0.161-1.499,0.21-3.008,0.146-4.514
		c-0.008-0.477-0.015-0.929-0.015-1.35c0-1.514-0.016-3.053-0.032-4.541c-0.013-1.181-0.029-2.394-0.029-3.6
		c2.474,1.62,5.076,3.034,7.78,4.23C233.452,61.467,236.673,62.261,239.955,62.398z M224.521,29.255
		c-0.477,1.105-1.052,2.165-1.721,3.165c-1.29,0.053-2.611,0.106-3.912,0.115c-0.23-1.056-0.432-2.124-0.623-3.171
		C220.237,29.315,222.398,29.265,224.521,29.255z"/>
	<path fill="#243F7E" d="M15.691,41.789c0.012,0.001,0.023,0.002,0.036,0.003c1.273,0.094,2.383-0.863,2.477-2.137
		c0.114-0.733,0.162-1.507,0.207-2.256c0.03-0.516,0.06-1.003,0.109-1.476V35.91c0.101-1.281,0.224-2.586,0.342-3.848
		c0.165-1.748,0.335-3.559,0.45-5.348c0.429-0.077,0.853-0.179,1.269-0.306l2.859-0.373c5.88-0.613,11.789-0.886,17.7-0.815
		c2.974,0,5.616,0.071,8.055,0.217c-0.282,2.003-0.751,3.975-1.399,5.891c-0.147,0.295-0.226,0.621-0.229,0.952
		c0.008,0.631,0.265,1.233,0.713,1.677c0.444,0.449,1.047,0.705,1.678,0.713c0.914-0.003,1.747-0.525,2.147-1.347
		c1.079-3.24,1.795-6.59,2.132-9.989c0.012-1.157-0.831-2.145-1.975-2.317c-2.506-0.514-8.899-0.514-11.629-0.514
		c-2.089,0-4.095,0.053-6.2,0.111c0.025-0.358,0.049-0.717,0.073-1.068c0.137-2.03,0.276-4.129,0.576-6.156l0.005-0.036v-0.351
		c0-0.016,0-0.032,0.001-0.048c0.004-1.254-1.011-2.275-2.265-2.279c-1.163-0.005-2.164,0.82-2.38,1.963
		c-0.419,2.432-0.654,4.893-0.705,7.361c-0.014,0.272-0.025,0.534-0.038,0.78c-3.449,0.122-6.886,0.48-10.285,1.073
		c-0.146-1.142-1.123-1.993-2.274-1.98c-0.017,0-0.033,0-0.05,0c-1.289-0.004-2.337,1.039-2.34,2.327
		c0,4.443-0.448,8.919-0.88,13.243c-0.04,0.403-0.096,0.824-0.148,1.232c-0.134,0.881-0.212,1.77-0.231,2.661
		c-0.001,0.006-0.001,0.012-0.001,0.018C13.425,40.634,14.41,41.724,15.691,41.789z"/>
	<path fill="#243F7E" d="M177.401,61.642h-0.005c-0.668-0.061-1.34-0.088-2.011-0.081c-0.339,0-0.689,0-1.016,0.008
		c-0.327,0.008-0.665,0.008-0.992,0.008c-3.699,0-7.427,0.058-11.092,0.173c0.002-1.815,0.017-3.652,0.03-5.433
		c0.015-1.797,0.031-3.651,0.031-5.484c2.046-0.108,4.12-0.168,6.13-0.225h0.011c0.383-0.019,1.021-0.027,1.76-0.035
		c1.543,0.03,3.087-0.046,4.62-0.227c1.163-0.182,2.008-1.203,1.971-2.379c0-0.016,0-0.032,0.001-0.047
		c0.004-1.255-1.011-2.275-2.265-2.279c-2.65,0-5.339,0.126-7.938,0.247c-1.383,0.064-2.808,0.131-4.217,0.178
		c0.06-3.702,0.126-7.518,0.306-11.24v-0.137c0.03-0.605-0.19-1.196-0.609-1.633c-0.463-0.49-1.106-0.769-1.78-0.77
		c-1.229-0.018-2.268,0.909-2.39,2.133c-0.107,0.857-0.151,1.721-0.131,2.585l-0.126,6.426l-0.184,18.482
		c-1.949,0.06-3.905,0.158-6.03,0.272c0.158-2.984,0.158-5.999,0.158-8.921c0-0.389,0.008-0.791,0.008-1.18
		c0.012-1.201,0.028-2.442-0.072-3.648v-0.019c-0.083-1.288-1.159-2.285-2.449-2.269c-1.318,0.04-2.357,1.135-2.327,2.453
		c0,1.306,0.014,2.639,0.027,3.928c0.036,3.297,0.075,6.7-0.125,10.026c-2.154,0.057-4.299,0.328-6.399,0.81h-0.016
		c-1.046,0.215-1.813,1.114-1.861,2.181c-0.004,0.641,0.24,1.259,0.682,1.724c0.444,0.468,1.063,0.731,1.708,0.729
		c0.104-0.002,0.209-0.018,0.311-0.046c0.024-0.007,0.059-0.017,0.072-0.017h0.035l0.039-0.006c4.343-0.603,8.717-0.958,13.1-1.063
		h0.073c5.657-0.28,12.361-0.566,19.19-0.566c0.56,0,1.143,0.015,1.719,0.031s1.172,0.032,1.746,0.032
		c1.298,0.074,2.416-0.904,2.516-2.2c0-0.002,0.001-0.003,0.001-0.005C179.695,62.853,178.705,61.727,177.401,61.642z"/>
	<path fill="#243F7E" d="M119.764,62.084c-0.235,0.005-0.47,0.042-0.695,0.11l-0.119,0.031l-0.042,0.012
		c-3.58,1.332-7.359,2.047-11.178,2.115c-3.729,0-7.206-1.406-10.576-2.768l-0.079-0.032c0.002-1.714,0.016-3.438,0.03-5.108
		c0.015-1.636,0.031-3.324,0.031-5.005c3.792-0.347,7.6-0.498,11.407-0.452c0.679,0.031,1.356-0.084,1.986-0.34
		c0.747-0.341,1.207-1.105,1.159-1.924c0.071-0.833-0.359-1.629-1.095-2.026c-0.646-0.28-1.349-0.404-2.051-0.364
		c-3.786-0.044-7.572,0.105-11.343,0.447c0.001-0.889,0.007-1.783,0.013-2.653c0.013-1.947,0.025-3.958-0.005-5.947
		c3.249-0.118,6.596-0.234,9.886-0.234c0.142,0,0.295,0.008,0.458,0.008c0.181,0.009,0.368,0.009,0.561,0.009
		c0.652,0.034,1.304-0.085,1.9-0.35c0.605-0.321,0.997-0.938,1.03-1.622c0.41,0.74,1.188,1.2,2.035,1.2
		c0.869,0.003,1.667-0.479,2.066-1.251l0.01-0.017c1.111-2.019,2.9-10.242,2.9-12.651c0.071-0.882-0.422-1.713-1.229-2.073
		c-0.681-0.251-1.405-0.359-2.13-0.318h-0.479c-5.739,0-11.569,0.12-17.222,0.24c0.082-1.157,0.082-2.326,0.082-3.457
		c0-0.153,0.006-0.329,0.006-0.515c0.025-1.443,0.062-3.625-1-4.705c-0.417-0.422-0.99-0.651-1.582-0.634
		c-1.279,0.016-2.312,1.047-2.329,2.326c0.002,0.104,0.018,0.209,0.046,0.31c0.007,0.025,0.017,0.059,0.017,0.073v0.036l0.008,0.041
		c0.152,1.1,0.213,2.21,0.182,3.32c0,1.076-0.042,2.169-0.1,3.361c-4.438,0.173-9.009,0.359-13.523,0.75
		c0.009-0.061,0.009-0.13,0.009-0.2c0-0.619-0.261-1.209-0.719-1.626c-0.438-0.406-1.011-0.634-1.608-0.638
		c-1.119-0.015-2.079,0.794-2.254,1.9v0.01c-0.319,1.59-0.513,3.27-0.7,4.89c-0.556,3.97-0.854,7.971-0.893,11.979
		c-0.039,0.704,0.07,1.408,0.321,2.066c0.349,0.783,1.15,1.265,2.006,1.206c0.035,0,0.069,0,0.104-0.001
		c1.273-0.046,2.269-1.116,2.223-2.389c0.06-4.168,0.36-8.33,0.899-12.464c4.015-0.455,8.152-0.61,12.157-0.761l1.9-0.073
		c6.562-0.186,13.347-0.378,20.017-0.378h0.852c-0.413,2.834-1.126,5.616-2.125,8.3c-0.096,0.193-0.163,0.399-0.199,0.612
		c-0.625-1.163-2.163-1.163-2.911-1.163c-0.163,0-0.333,0-0.479,0c-0.146,0-0.29,0-0.429,0c-6.329,0-12.578,0.287-17.854,0.568
		l-0.57,0.028c-2.931,0.088-5.854,0.333-8.757,0.735h-0.007c-1.145,0.173-1.987,1.16-1.978,2.317c0,0.016,0,0.032,0.001,0.048
		c0.03,1.254,1.071,2.247,2.326,2.216h0.252c0.866-0.019,1.729-0.095,2.586-0.228c0.406-0.051,0.826-0.11,1.235-0.151
		c2.734-0.175,5.558-0.355,8.342-0.48v2.817c0,3.208-0.032,6.458-0.063,9.6c-0.027,2.895-0.062,5.882-0.062,8.847
		c-4.023-1.769-7.439-3.361-10.723-5.161c2.523-4.43,3.6-6.658,3.6-7.43c-0.018-1.279-1.052-2.311-2.331-2.325
		c-0.88,0.019-1.677,0.525-2.067,1.314l-0.005,0.009c-0.295,0.517-0.571,1.081-0.839,1.626c-0.199,0.405-0.405,0.822-0.617,1.222
		v0.005c-0.807,1.556-1.71,3.198-2.761,5.019c-1.794,3.053-3.761,6.002-5.889,8.833l-0.006,0.009c-0.49,0.674-1.017,1.318-1.573,2
		c-0.351,0.428-0.712,0.871-1.063,1.321c-0.323,0.41-0.495,0.92-0.484,1.443c-0.002,0.051-0.002,0.103,0,0.155
		c0.042,1.242,1.084,2.215,2.327,2.172c0.679,0.019,1.328-0.276,1.76-0.8c0.406-0.443,0.79-0.948,1.162-1.436
		c0.279-0.367,0.568-0.747,0.861-1.093l0.02-0.024c2.254-3.029,4.01-5.588,5.51-8.011c5.748,3.109,18.8,9.209,25,10.222
		c1.152,0.182,2.317,0.269,3.484,0.259c2.183-0.044,4.357-0.265,6.505-0.661c2.168-0.329,4.286-0.927,6.306-1.78
		c0.89-0.347,1.479-1.199,1.49-2.154c0-0.016,0-0.031-0.001-0.047C122.06,63.047,121.019,62.054,119.764,62.084z"/>
	<path fill="#243F7E" d="M184.184,48.518c0.455,0.465,1.083,0.721,1.733,0.706c0.034,0.001,0.069,0.001,0.104,0.001
		c1.274-0.012,2.297-1.054,2.285-2.328c-0.022-0.612-0.266-1.195-0.683-1.643l-0.005-0.006c-1.136-1.317-2.409-2.611-3.643-3.863
		c-0.488-0.496-0.993-1.01-1.477-1.51l-10.648-11.464c-1.154-1.238-2.321-2.504-3.449-3.729c-2.159-2.345-4.391-4.766-6.642-7.107
		c0.376-0.453,0.583-1.023,0.586-1.612c0-0.017,0-0.033-0.001-0.05c-0.03-1.289-1.101-2.308-2.389-2.277v0.001
		c-0.71-0.007-1.384,0.315-1.824,0.872c-0.896,1.016-1.854,2.326-2.782,3.592c-0.535,0.73-1.041,1.42-1.521,2.037l-8.128,10.585
		c-4.031,5.291-8.194,10.671-12.219,15.871c-0.628,0.801-1.283,1.618-1.918,2.408c-1.216,1.515-2.473,3.082-3.635,4.659
		l-0.014,0.019c-0.321,0.426-0.504,0.94-0.525,1.474c0.002,1.319,1.071,2.389,2.391,2.39c0.693-0.003,1.351-0.31,1.8-0.839
		c0.679-0.719,1.302-1.488,1.864-2.3c0.364-0.492,0.708-0.965,1.064-1.392l6.313-8.143l17.977-23.474
		c3.155,3.334,6.405,6.773,9.547,10.217l10.714,11.53l0.006,0.007c0.58,0.601,1.162,1.237,1.78,1.911
		C181.943,46.256,183.076,47.491,184.184,48.518z"/>
	<path fill="#243F7E" d="M67.839,148.04c0.107-0.001,0.215-0.02,0.315-0.057l0.018-0.006h0.04l0.056-0.014
		c4.227-0.99,7.937-2.02,11.318-3.139c0.004,0.111,0.011,0.228,0.011,0.345c-0.005,1.405,0.114,2.809,0.357,4.192l0.007,0.027
		c0.229,1.063,1.154,1.832,2.242,1.864c0.618,0,1.209-0.261,1.626-0.719c0.405-0.438,0.634-1.011,0.638-1.608
		c0-0.012,0-0.025,0-0.037c1.578-0.091,3.174-0.156,4.723-0.222c2.306-0.097,4.689-0.196,7.035-0.376
		c1.076-0.027,1.993-0.789,2.217-1.844v-0.006c0.249-1.406,0.414-2.824,0.494-4.25c0.043-0.568,0.088-1.157,0.144-1.723v-0.021
		c0.179-3.254,0.379-6.947,0.379-10.547c0-0.135,0.006-0.272,0.013-0.418c0.024-0.319,0.02-0.641-0.016-0.959
		c-0.046-0.938-0.688-1.74-1.592-1.992c-1.881-0.355-3.797-0.491-5.71-0.406c-1.686,0-4.108,0.021-6.592,0.221
		c0.839-1.156,1.736-2.275,2.61-3.365c0.677-0.844,1.377-1.717,2.05-2.606l0.017-0.024c0.321-0.402,0.505-0.896,0.525-1.41
		c-0.016-1.244-1.021-2.248-2.264-2.265c-0.646,0.007-1.258,0.288-1.684,0.772l-0.006,0.007c-2.523,2.851-4.821,5.893-6.873,9.101
		c-0.168,0.256-0.271,0.551-0.3,0.856l-0.012,0.073v0.035c-0.254,2.607-0.254,5.098-0.254,7.734c0,1.586,0,3.221,0.051,4.816
		c-3.802,1.324-7.573,2.312-12.079,3.455c-1.062,0.229-1.822,1.164-1.832,2.25c0,0.016,0,0.031,0.001,0.047
		C65.543,147.078,66.584,148.07,67.839,148.04z M94.517,139.032c-0.018,0.298-0.034,0.594-0.051,0.884
		c-0.074,1.344-0.147,2.621-0.3,3.935l-10.038,0.52c-0.02-0.493-0.04-0.982-0.062-1.46c-0.048-1.101-0.097-2.235-0.107-3.371
		C87.465,139.159,90.99,138.99,94.517,139.032z M83.9,134.952v-0.829c0-1.05,0-2.05,0.04-3.082c2.876-0.294,5.766-0.423,8.655-0.388
		c0.766,0,1.555,0,2.333,0.037c-0.009,1.213-0.052,2.463-0.102,3.814C91.179,134.471,87.532,134.62,83.9,134.952z"/>
	<path fill="#243F7E" d="M68.811,135c0.381,0.03,0.779,0.058,1.2,0.085c2.046,0.134,4.365,0.285,5.89,1.17
		c0.336,0.223,0.732,0.336,1.136,0.321c1.243-0.017,2.247-1.021,2.264-2.265c0.006-0.804-0.428-1.547-1.13-1.938
		c-2.101-1.312-6.645-1.899-9.2-1.899c-0.009-0.001-0.018-0.002-0.027-0.002c-1.26-0.045-2.318,0.941-2.362,2.202
		C66.566,133.928,67.558,134.962,68.811,135z"/>
	<path fill="#243F7E" d="M203.35,126.126L203.35,126.126c-0.631-0.013-1.236,0.243-1.666,0.704
		c-1.107,0.985-2.284,2.219-3.421,3.419c-0.637,0.671-1.239,1.305-1.818,1.883l-12.285,12.223c-0.14,0.139-0.29,0.285-0.451,0.438
		c-0.349,0.335-0.708,0.677-1.021,1.035l-0.023,0.028c-0.432,0.48-0.67,1.104-0.667,1.75c0.058,0.676,0.381,1.302,0.899,1.74
		l0.009,0.008c2.773,2.644,5.27,5.477,7.589,8.152c0.433,0.508,0.866,1.017,1.3,1.525c2.003,2.353,4.075,4.785,5.986,7.265
		l2.071,3.013l0.018,0.024c0.414,0.695,1.16,1.126,1.97,1.138c0.631-0.008,1.233-0.264,1.677-0.713
		c0.449-0.443,0.705-1.046,0.713-1.677c0.015-0.442-0.097-0.88-0.322-1.263c-1.478-2.313-3.126-4.516-4.93-6.586
		c-0.41-0.496-0.797-0.965-1.16-1.412c-3.729-4.592-6.924-8.229-10.016-11.4l11.363-11.302l4.1-4.101l1.767-1.83
		c0.465-0.43,0.724-1.039,0.711-1.672C205.739,127.196,204.669,126.128,203.35,126.126z"/>
	<path fill="#243F7E" d="M109.207,129.664c-1.414,0.89-2.746,1.911-4.035,2.899c-0.284,0.219-0.568,0.437-0.854,0.652
		c-0.383,0.292-0.778,0.584-1.161,0.867c-0.939,0.691-1.909,1.408-2.774,2.182l-0.021,0.02c-0.467,0.432-0.726,1.041-0.713,1.677
		c-0.013,0.826,0.421,1.595,1.136,2.011c0.214,0.121,0.486,0.284,0.813,0.477c4.701,2.763,9.247,5.32,10.647,5.32
		c1.243-0.016,2.247-1.02,2.264-2.264c-0.004-0.924-0.568-1.752-1.427-2.093c-2.443-1.083-4.692-2.345-7.073-3.683l-0.04-0.022
		c1.2-0.923,2.448-1.819,3.661-2.69c0.71-0.511,1.444-1.039,2.164-1.568c0.598-0.396,0.957-1.067,0.956-1.785
		c-0.002-1.295-1.034-2.354-2.328-2.387c-0.429,0.016-0.844,0.15-1.202,0.387L109.207,129.664z"/>
	<path fill="#243F7E" d="M114.805,152.856c-0.634-0.109-1.277-0.158-1.921-0.146c-0.215,0-0.439,0.005-0.634,0.005
		c-0.195,0-0.38,0-0.56,0c-2.146-0.063-4.326-0.063-6.433-0.063c-4.742,0-9.569,0.059-14.356,0.176
		c0.009-0.174,0.021-0.316,0.032-0.459c0.043-0.441,0.049-0.885,0.019-1.327c0.001-0.034,0.002-0.068,0.002-0.103
		c-0.001-1.215-0.987-2.199-2.202-2.197c-1.227-0.039-2.259,0.91-2.324,2.136v0.007c-0.06,0.512-0.091,1.025-0.094,1.54
		c-0.002,0.164-0.006,0.343-0.014,0.554c-6.616,0.244-13.449,0.508-20.061,1.373l-0.346,0.045c-1.425,0.143-2.835,0.408-4.214,0.793
		h-0.008c-0.981,0.268-1.663,1.158-1.665,2.176c0,0.033,0,0.067,0,0.102c0.028,1.222,1.042,2.189,2.265,2.162h0.442h0.051
		c0.343-0.041,0.683-0.108,1.017-0.199c0.286-0.08,0.578-0.14,0.873-0.178h0.027l0.025-0.006c0.797-0.168,1.612-0.277,2.477-0.393
		c0.39-0.054,0.8-0.108,1.199-0.168c5.908-0.672,11.979-0.931,17.868-1.172l-0.026,0.561c-4.363,3.469-8.981,6.605-13.813,9.385
		l-0.012,0.007c-0.489,0.306-1.013,0.579-1.544,0.864s-1.082,0.576-1.601,0.9c-0.765,0.372-1.249,1.148-1.247,2
		c0.021,1.231,1.032,2.215,2.265,2.199c0.348,0,1.407,0,8.368-4.506c3.011-1.947,5.97-3.994,7.511-5.094
		c-0.004,1.568-0.018,3.148-0.03,4.686c-0.016,1.859-0.032,3.782-0.032,5.674c0.016,1.245,1.021,2.25,2.267,2.266
		c0.033,0,0.067,0,0.101,0c1.223-0.027,2.191-1.041,2.163-2.264c0-4.088,0.054-8.237,0.11-12.279
		c0.861,0.629,1.759,1.207,2.688,1.73c0.228,0.133,0.449,0.264,0.661,0.391c2.905,1.775,5.91,3.381,9,4.808
		c3.017,1.483,6.235,2.515,9.552,3.06c0.133,0.058,0.275,0.084,0.419,0.08c1.216,0,2.2-0.985,2.2-2.201
		c0.024-1.123-0.794-2.089-1.907-2.25h-0.007c-0.215-0.043-0.427-0.082-0.633-0.121c-0.703-0.115-1.398-0.281-2.079-0.493
		l-0.017-0.005c-5.427-1.6-13.186-5.831-17.55-9L93,157.858c-0.385-0.305-0.859-0.471-1.35-0.471
		c-0.29-0.002-0.578,0.053-0.848,0.162l0.007-0.183c4.683-0.12,9.511-0.24,14.26-0.24c3.451,0,6.472,0.082,9.23,0.251h0.204
		c0.041,0,0.082,0,0.123,0c0.015,0,0.029,0,0.043-0.001c1.209-0.043,2.154-1.058,2.112-2.267
		C116.81,153.96,115.949,152.979,114.805,152.856z"/>
	<path fill="#243F7E" d="M146.414,167.47l-0.017-0.01c-0.15-0.088-0.292-0.167-0.429-0.244c-0.521-0.261-0.999-0.598-1.42-1
		c-3.7-3.765-3.7-13.708-3.7-16.975c0-4.979,0.47-10.053,0.924-14.959c0.296-3.202,0.604-6.512,0.777-9.773v-0.199
		c0.025-0.603-0.199-1.188-0.62-1.619c-0.457-0.494-1.097-0.777-1.77-0.785c-1.215,0-2.239,0.904-2.39,2.109v0.021
		c-0.121,0.845-0.183,1.726-0.244,2.577l-0.011,0.16l-0.5,5.222c-0.47,4.704-1.01,10.917-1.01,17.249
		c-0.089,4.25,0.332,8.496,1.253,12.646c1.334,5.238,3.775,8.582,7.257,9.934l0.023,0.008c0.297,0.09,0.604,0.141,0.914,0.152
		c1.295,0,2.354-1.032,2.39-2.328C147.819,168.716,147.265,167.87,146.414,167.47z"/>
	<polygon fill="#243F7E" points="110.423,129.276 110.424,129.276 110.424,129.276 	"/>
</g>
<g id="グループ_41054" transform="translate(0 0)">
	<path id="パス_46419" fill="#FFB700" d="M237.676,89.876L237.676,89.876c0.102,0.012,0.204,0.012,0.306,0
		c0.269,0.15,0.578,0.207,0.883,0.164c0.07,0.009,0.142,0.011,0.213,0.006l0.098-0.006c0.166,0.089,0.348,0.145,0.534,0.167
		c0.127,0.013,0.254,0.013,0.38,0.003c0.139,0.015,0.279,0.005,0.414-0.029l0.214-0.045c0.028-0.007,0.057-0.012,0.085-0.015
		c0.146,0.011,0.289,0.036,0.43,0.078c0.205,0.056,0.414,0.099,0.625,0.13c0.228,0.142,0.491,0.214,0.76,0.209l1.351-0.023
		c0.182-0.002,0.361-0.039,0.529-0.11c0.161,0.054,0.328,0.089,0.497,0.104c0.474,0.305,1.047,0.416,1.6,0.311
		c0.09-0.018,0.178-0.043,0.262-0.078l0.015,0.006c0.135,0.094,0.285,0.163,0.443,0.207c0.374,0.102,0.774,0.045,1.105-0.158
		l0.078-0.004c0.262-0.018,0.523-0.02,0.785-0.006c0.15,0.131,0.325,0.23,0.516,0.291c0.4,0.128,0.838,0.068,1.19-0.161
		c0.523-0.337,0.854-0.905,0.885-1.527c0.017-0.737-0.281-1.445-0.819-1.949c-0.414-0.385-0.974-0.574-1.536-0.519
		c-0.546-0.27-1.162-0.365-1.764-0.27c-0.126,0.025-0.25,0.063-0.369,0.113c-0.09-0.044-0.185-0.079-0.281-0.104
		c-0.377-0.098-0.776-0.034-1.104,0.175c-0.099-0.021-0.199-0.033-0.301-0.034l-0.006-0.002c-0.226-0.093-0.471-0.127-0.714-0.101
		c-0.356-0.207-0.775-0.279-1.181-0.201c-0.035,0.007-0.153,0.038-0.198,0.052c-0.182,0.06-0.35,0.156-0.493,0.282l-0.104,0.017
		c-0.094-0.041-0.192-0.07-0.294-0.086c-0.3-0.141-0.625-0.222-0.956-0.239c-0.087-0.107-0.188-0.201-0.302-0.28
		c-0.362-0.256-0.825-0.325-1.246-0.186l-0.044,0.009c-0.311,0.054-0.627,0.075-0.942,0.063c-0.368-0.31-0.848-0.456-1.326-0.402
		l-0.063-0.058c-0.334-0.294-0.787-0.413-1.223-0.323c-0.15,0.01-0.302,0-0.449-0.03c-0.131-0.018-0.263-0.035-0.354-0.042
		l-0.055-0.009c-0.05-0.034-0.101-0.065-0.153-0.093c-0.345-0.313-0.817-0.445-1.274-0.357c-0.078,0.015-0.154,0.038-0.229,0.066
		c-0.028-0.012-0.057-0.018-0.082-0.027c-0.339-0.387-0.836-0.6-1.35-0.577c-0.296-0.157-0.626-0.241-0.961-0.245l-0.02-0.001
		c-0.056-0.015-0.11-0.027-0.167-0.038c-0.17-0.105-0.359-0.175-0.558-0.205c-0.207-0.032-0.418-0.026-0.622,0.019
		c-0.084-0.018-0.169-0.027-0.255-0.027c-0.283-0.117-0.595-0.142-0.894-0.073c-0.131-0.189-0.306-0.344-0.51-0.452
		c-0.462-0.246-1.021-0.217-1.456,0.074c-0.065,0.026-0.134,0.049-0.203,0.068c-0.191-0.208-0.44-0.355-0.716-0.421
		c-0.228-0.054-0.464-0.058-0.692-0.01c-0.567-0.25-1.211-0.269-1.791-0.05c-0.49-0.18-1.027-0.186-1.521-0.015
		c-0.748-0.143-1.511-0.197-2.272-0.163c-0.168,0.034-0.329,0.097-0.476,0.187c-0.048,0.006-0.097,0.013-0.146,0.022
		c-0.215,0.041-0.419,0.126-0.6,0.25c-0.836-0.205-1.716-0.146-2.517,0.169c-0.22-0.046-0.445-0.058-0.669-0.035
		c-0.319-0.199-0.704-0.263-1.07-0.179c-0.304,0.062-0.581,0.213-0.799,0.433c-0.119,0.03-0.235,0.072-0.346,0.125
		c-0.245-0.04-0.496-0.026-0.736,0.041c-0.304-0.042-0.613,0-0.894,0.125c-0.11-0.016-0.221-0.037-0.329-0.065l-0.162-0.038
		c-0.19-0.042-0.387-0.045-0.578-0.008c-0.258,0.053-0.496,0.174-0.689,0.352c-0.038,0.035-0.073,0.072-0.107,0.111
		c-0.06,0.005-0.118,0.014-0.177,0.025c-0.445,0.093-0.844,0.341-1.123,0.701c-0.198,0.095-0.407,0.164-0.622,0.205
		c-0.081,0.015-0.129,0.021-0.15,0.022c-0.325-0.011-0.647,0.061-0.937,0.209c-0.444-0.203-0.957-0.196-1.396,0.02
		c-0.161,0.077-0.312,0.176-0.447,0.293c-0.074,0.007-0.146,0.017-0.214,0.03c-0.164,0.032-0.323,0.085-0.473,0.159
		c-0.178-0.025-0.358-0.021-0.535,0.014c-0.358,0.075-0.685,0.261-0.931,0.532c-0.034,0.005-0.068,0.009-0.102,0.016
		c-0.057,0.01-0.111,0.024-0.166,0.041c-0.278-0.051-0.565-0.05-0.844,0.004c-0.287,0.059-0.563,0.167-0.813,0.319
		c-0.154,0.09-0.296,0.199-0.423,0.324c-0.438-0.013-0.874,0.083-1.265,0.282c-0.407-0.071-0.825-0.024-1.206,0.135l-0.027-0.004
		c-0.174-0.019-0.349-0.012-0.52,0.021c-0.148,0.029-0.292,0.076-0.429,0.14c-0.134,0-0.269,0.013-0.399,0.039
		c-0.082,0.013-0.162,0.033-0.24,0.061l-0.037,0.013c-0.309-0.049-0.624-0.015-0.915,0.098c-0.219-0.051-0.444-0.055-0.665-0.013
		c-0.025,0.004-0.051,0.012-0.1,0.025l-0.388,0.064c-0.352,0.035-0.694,0.138-1.007,0.304l-0.108,0.001
		c-0.14,0.001-0.307,0.002-0.479,0.015c-0.366-0.274-0.83-0.383-1.28-0.302c-0.156,0.03-0.308,0.085-0.447,0.162
		c-0.029-0.005-0.057-0.009-0.083-0.012c-0.258-0.031-0.52,0.008-0.757,0.114c-0.3-0.028-0.602-0.022-0.899,0.017
		c-0.082,0.009-0.236,0.024-0.278,0.021c-0.112-0.012-0.226-0.01-0.338,0.006c-0.08-0.009-0.162-0.011-0.242-0.005
		c-0.235-0.106-0.488-0.164-0.746-0.169c-0.247,0-0.491,0.044-0.724,0.129c-0.12-0.027-0.243-0.04-0.367-0.041
		c-0.557-0.145-1.14-0.159-1.702-0.041l-0.078,0.012c-0.228,0.029-0.45,0.083-0.665,0.163l-0.034,0.012l-0.024-0.003
		c-0.258-0.038-0.521-0.045-0.78-0.022c-0.034-0.027-0.069-0.052-0.106-0.076c-0.355-0.231-0.797-0.288-1.2-0.154l-0.105-0.006
		c-0.281-0.024-0.565-0.009-0.843,0.043c-0.046,0.009-0.091,0.021-0.136,0.035c-0.284-0.308-0.689-0.475-1.108-0.458
		c-0.124,0.007-0.246,0.022-0.368,0.046c-0.12-0.073-0.251-0.128-0.389-0.165c-0.18-0.048-0.367-0.06-0.552-0.034
		c-0.162-0.021-0.325-0.017-0.486,0.012c-0.033,0.007-0.066,0.015-0.1,0.024c-0.155-0.042-0.296-0.07-0.407-0.091
		c-0.277-0.05-0.56-0.068-0.842-0.052h-0.021c-0.306-0.18-0.668-0.241-1.017-0.172c-0.083,0.017-0.165,0.042-0.245,0.073
		c-0.094-0.018-0.189-0.027-0.285-0.029c-0.319-0.156-0.673-0.229-1.028-0.213l-0.043-0.031c-0.304-0.264-0.705-0.387-1.104-0.338
		c-0.215-0.005-0.429-0.04-0.635-0.104l-0.248-0.061c-0.251-0.05-0.508-0.059-0.761-0.026c-0.429-0.345-0.938-0.576-1.48-0.672
		c-0.247-0.021-0.496,0.01-0.73,0.092c-0.167-0.052-0.34-0.083-0.515-0.092c-0.278-0.236-0.635-0.356-0.999-0.337
		c-0.268-0.023-0.529-0.092-0.773-0.205c-0.288-0.11-0.584-0.203-0.884-0.277c-0.191-0.044-0.391-0.047-0.584-0.009
		c-0.159,0.031-0.312,0.09-0.45,0.173c-0.147-0.015-0.296-0.007-0.44,0.023c-0.097,0.018-0.191,0.046-0.282,0.083
		c-0.126-0.08-0.256-0.152-0.39-0.218c-0.087-0.045-0.169-0.098-0.246-0.157c-0.563-0.453-1.306-0.615-2.006-0.438
		c-0.052,0.01-0.099,0.021-0.141,0.03c-0.139-0.033-0.279-0.051-0.422-0.055l-0.013-0.005c-0.277-0.109-0.579-0.137-0.872-0.082
		c-0.018-0.006-0.035-0.014-0.053-0.021c-0.37-0.245-0.819-0.339-1.257-0.263c-0.045,0.009-0.089,0.02-0.133,0.033l-0.011-0.004
		c-0.628-0.178-1.291-0.192-1.926-0.04l-0.233,0.031c-0.813-0.344-1.703-0.459-2.575-0.332c-0.413,0.013-0.689,0.017-0.821,0.01
		c-0.555-0.268-1.174-0.372-1.786-0.299c-0.21,0.041-0.411,0.119-0.594,0.23l-0.025,0c-0.237-0.003-0.474,0.015-0.707,0.054
		c-0.026,0.004-0.197,0.048-0.199,0.051c-0.139,0.011-0.277,0.002-0.413-0.024c-0.024-0.01-0.053-0.014-0.107-0.03
		c-0.381-0.136-0.789-0.172-1.188-0.105c-0.026,0.004-0.051,0.009-0.077,0.015l-0.093,0.025c-0.059-0.038-0.12-0.071-0.184-0.1
		c-0.334-0.14-0.705-0.167-1.056-0.076c-0.447,0.051-0.875,0.208-1.249,0.458c-0.063,0.019-0.161,0.043-0.305,0.07
		c-0.06,0.011-0.117,0.023-0.18,0.035l-0.064-0.026c-0.181-0.154-0.396-0.262-0.628-0.314c-0.486-0.106-0.992,0.052-1.331,0.417
		c-0.166-0.028-0.328-0.075-0.483-0.139c-0.354-0.138-0.751-0.125-1.097,0.033c-0.245,0.117-0.49,0.215-0.755,0.325l-0.084,0.034
		c-0.143,0.059-0.286,0.119-0.438,0.183c-0.039-0.016-0.08-0.027-0.122-0.037c-0.253-0.064-0.519-0.058-0.769,0.02
		c-0.131-0.03-0.265-0.048-0.398-0.053c-0.097-0.002-0.193,0.006-0.288,0.025c-0.237,0.047-0.459,0.155-0.644,0.313
		c-0.264-0.044-0.532-0.048-0.797-0.01c-0.355,0.071-0.673,0.272-0.889,0.563c-0.157,0.013-0.311,0.046-0.459,0.1
		c-0.15-0.024-0.304-0.027-0.455-0.009c-0.204,0.027-0.406,0.068-0.604,0.124c-0.076,0.024-0.155,0.04-0.234,0.046
		c-0.552,0.001-1.08,0.223-1.467,0.616c-0.442-0.023-0.884,0.066-1.283,0.26l-0.168,0.09l-0.067,0.037
		c-0.121-0.015-0.244-0.015-0.365,0c-0.24-0.027-0.484,0.01-0.706,0.107l-0.392,0.069c-0.338,0.059-0.66,0.186-0.947,0.372
		c-0.364,0.029-0.721,0.122-1.051,0.276l-0.019,0.009c-0.35-0.097-0.724-0.055-1.043,0.118c-0.207,0.111-0.384,0.273-0.513,0.47
		c-0.381-0.08-0.772-0.086-1.155-0.017c-0.285,0.054-0.557,0.167-0.796,0.332c-0.158,0.002-0.295,0.013-0.405,0.022l-0.078,0.006
		c-0.457,0.035-0.869,0.289-1.105,0.684c-0.176,0.045-0.346,0.108-0.508,0.19c-0.15-0.013-0.302-0.015-0.453-0.004
		c-0.469-0.113-0.963-0.005-1.341,0.295c-0.247-0.027-0.498,0.012-0.725,0.114c-0.036,0.004-0.097,0.01-0.19,0.014
		c-0.402-0.004-0.8,0.088-1.161,0.266c-0.296-0.018-0.59,0.057-0.841,0.214c-0.026,0.005-0.055,0.009-0.084,0.017l-0.048,0.012
		c-0.143,0.011-0.286,0.008-0.429-0.008c-0.284-0.025-0.57-0.026-0.854-0.004c-0.151,0.004-0.303-0.002-0.453-0.016
		c-0.59-0.256-1.245-0.316-1.871-0.174c-0.095,0.012-0.188,0.025-0.281,0.031c-0.139,0.008-0.277,0.024-0.415,0.047l-0.074-0.029
		c-0.373-0.193-0.791-0.281-1.211-0.253c-0.395-0.278-0.904-0.336-1.352-0.151c-0.119,0.049-0.235,0.105-0.37,0.174
		c-0.378-0.212-0.813-0.301-1.244-0.254c-0.11,0.01-0.219,0.028-0.326,0.055c-0.141-0.086-0.295-0.148-0.456-0.184
		c-0.27-0.055-0.548-0.029-0.803,0.071c-0.378-0.389-0.896-0.61-1.438-0.614c-0.48-0.404-1.146-0.506-1.726-0.266l-0.033,0.012
		c-0.354-0.099-0.729-0.108-1.087-0.027l-0.032,0.007c-0.158-0.076-0.307-0.13-0.423-0.171c-0.067-0.027-0.135-0.055-0.186-0.075
		c-0.242-0.219-0.522-0.393-0.827-0.511l-0.02-0.018c-0.313-0.258-0.712-0.387-1.116-0.358c-0.132-0.063-0.271-0.106-0.414-0.128
		c-0.173-0.023-0.347-0.019-0.518,0.012l-0.043,0.008c-0.291-0.088-0.59-0.142-0.893-0.162c-0.088-0.01-0.252-0.025-0.297-0.037
		c-0.18-0.059-0.354-0.128-0.537-0.2c-0.54-0.236-1.11-0.397-1.694-0.479c-0.145-0.015-0.291-0.008-0.434,0.021
		c-0.102-0.184-0.24-0.343-0.407-0.47c-0.399-0.301-0.93-0.363-1.388-0.164c-0.067-0.027-0.162-0.077-0.289-0.142
		c-0.342-0.195-0.709-0.341-1.092-0.436c-0.202-0.047-0.412-0.048-0.615-0.003c-0.59-0.655-1.456-0.99-2.332-0.901l-0.088,0
		c-0.104-0.177-0.246-0.33-0.414-0.449c-0.236-0.125-0.476-0.246-0.716-0.364c-0.329-0.11-0.688-0.096-1.008,0.039
		c-0.216-0.003-0.431,0.005-0.646,0.025l-0.051,0.004c-0.248-0.216-0.544-0.369-0.863-0.445c-0.157-0.2-0.361-0.356-0.595-0.456
		c-0.324-0.133-0.687-0.14-1.017-0.02c-0.443-0.299-0.948-0.493-1.478-0.568c-0.341-0.278-0.772-0.419-1.211-0.398
		c-0.282-0.112-0.581-0.171-0.885-0.175c-0.146,0.001-0.298,0.009-0.452,0.021c-0.064,0.004-0.132,0.009-0.193,0.011
		c-0.374-0.333-0.898-0.44-1.372-0.279c-0.075,0.025-0.153,0.039-0.232,0.04c-0.295-0.312-0.715-0.475-1.143-0.443
		c-0.309,0.023-0.6,0.146-0.83,0.352L76.2,81.422c-0.191-0.057-0.392-0.081-0.591-0.07c-0.286-0.242-0.639-0.393-1.011-0.434
		c-0.355-0.04-0.714,0.024-1.033,0.186c-0.267,0.009-0.528,0.066-0.774,0.17c-0.081-0.036-0.165-0.064-0.252-0.087
		c-0.298-0.079-0.61-0.089-0.913-0.031c-0.036,0.007-0.072,0.015-0.105,0.023c-0.229-0.045-0.465-0.045-0.694,0.001
		c-0.171,0.037-0.338,0.091-0.497,0.164l-0.059-0.015c-0.394-0.123-0.81-0.158-1.219-0.103c-0.051,0.008-0.102,0.02-0.152,0.033
		c-0.107-0.043-0.215-0.087-0.328-0.132c-0.413-0.15-0.872-0.1-1.242,0.138l-0.009,0.007c-0.083-0.02-0.173-0.038-0.271-0.053
		l-0.157-0.026c-0.629-0.083-1.269,0.037-1.825,0.341c-0.098,0.053-0.201,0.096-0.309,0.128c-0.421-0.036-0.845-0.006-1.257,0.089
		c-0.043-0.018-0.091-0.027-0.137-0.038c-0.477-0.094-0.967-0.099-1.445-0.015c-0.097,0.014-0.199,0.027-0.307,0.052l-0.062,0.011
		c-0.176,0.037-0.276,0.051-0.334,0.061l0,0c-0.607-0.247-1.305-0.044-1.686,0.489c-0.19-0.033-0.385-0.03-0.575,0.006
		c-0.275,0.053-0.53,0.183-0.735,0.375c-0.033,0.003-0.065,0.008-0.098,0.015c-0.261,0.052-0.506,0.163-0.718,0.324
		c-0.292-0.046-0.59-0.044-0.881,0.008c-0.414,0.076-0.788,0.297-1.055,0.623l-0.104,0.011c-0.164,0.018-0.327,0.035-0.502,0.041
		c-0.029,0.001-0.055,0-0.105-0.005c-0.419-0.035-0.84,0.056-1.207,0.261c-0.187,0.109-0.351,0.252-0.482,0.423
		c-0.274,0.131-0.507,0.336-0.67,0.592c-0.368,0.074-0.709,0.246-0.987,0.498c-0.293,0.026-0.573,0.133-0.81,0.308
		c-0.119,0.088-0.225,0.193-0.313,0.313c-0.397,0.034-0.762,0.232-1.006,0.547c-0.028,0.013-0.058,0.027-0.087,0.042
		c-0.382-0.024-0.757,0.106-1.043,0.36c-0.095,0.087-0.179,0.185-0.25,0.292c-0.038,0.011-0.07,0.021-0.087,0.028
		c-0.303,0.128-0.569,0.33-0.776,0.586c-0.267-0.028-0.536-0.017-0.799,0.035c-0.538,0.093-1.021,0.383-1.357,0.813l-0.019,0.012
		c-0.179-0.018-0.359-0.008-0.536,0.025c-0.309,0.063-0.598,0.199-0.844,0.396c-0.192,0.021-0.38,0.075-0.556,0.158
		c-0.336,0.023-0.652,0.166-0.893,0.402c-0.064,0.022-0.127,0.051-0.188,0.083c-0.327,0.007-0.652,0.058-0.967,0.149l-0.058,0.016
		c-0.119,0.031-0.24,0.057-0.363,0.074c-0.479-0.066-0.958,0.119-1.268,0.491c-0.039,0.019-0.076,0.037-0.114,0.062
		c-0.166-0.003-0.331,0.012-0.493,0.043c-0.271,0.053-0.53,0.156-0.764,0.305l-0.06-0.016c-0.446-0.064-0.899-0.057-1.343,0.02
		c-0.185,0.039-0.362,0.106-0.525,0.199c-0.036-0.008-0.081-0.02-0.14-0.033c-0.096-0.025-0.193-0.043-0.293-0.05
		c-0.221-0.135-0.474-0.206-0.732-0.207c-0.344-0.138-0.719-0.18-1.084-0.12c-0.238,0.047-0.462,0.146-0.656,0.289
		c-0.086,0.016-0.177,0.037-0.271,0.059c-0.194-0.107-0.412-0.169-0.635-0.178c-0.148-0.004-0.296,0.012-0.44,0.046
		c-0.565-0.268-1.171-0.441-1.792-0.515c-0.114-0.02-0.23-0.025-0.346-0.018c-0.396-0.184-0.84-0.234-1.267-0.143
		c-0.147,0.029-0.292,0.072-0.432,0.128c-0.169-0.024-0.34-0.024-0.508,0.005c-0.253-0.01-0.501-0.066-0.733-0.166
		c-0.438-0.162-0.896-0.262-1.362-0.297c-0.338-0.166-0.727-0.194-1.085-0.08c-0.082-0.033-0.169-0.074-0.266-0.107
		c-0.123-0.131-0.265-0.242-0.422-0.328c-0.089-0.109-0.192-0.205-0.309-0.285c-0.446-0.316-1.036-0.344-1.51-0.07
		c-0.033,0.013-0.067,0.021-0.103,0.027c-0.543,0.055-1.092,0.016-1.621-0.115c-0.453-0.475-1.103-0.709-1.755-0.632l-0.031-0.013
		c-0.42-0.206-0.889-0.292-1.354-0.249c-0.563-0.569-1.366-0.832-2.156-0.705h-0.013c-0.162-0.204-0.375-0.361-0.616-0.458
		c-0.397-0.158-0.846-0.125-1.216,0.089l-0.05,0.028l-0.109-0.019c-0.017-0.017-0.032-0.031-0.048-0.045
		c-0.393-0.374-0.932-0.555-1.471-0.495c-0.078-0.046-0.155-0.087-0.233-0.125c-0.183-0.169-0.405-0.289-0.647-0.346
		c-0.185-0.044-0.376-0.058-0.566-0.042c-0.322-0.581-0.969-0.905-1.627-0.816c-0.119-0.034-0.233-0.059-0.345-0.083l-0.178-0.039
		c-0.294-0.212-0.634-0.349-0.992-0.401c-0.087-0.163-0.203-0.309-0.342-0.43c-0.33-0.286-0.772-0.405-1.201-0.324
		c-0.041-0.016-0.417-0.168-0.806-0.31c-0.052-0.068-0.109-0.133-0.172-0.192C3.55,83.1,2.999,82.945,2.46,83.038l-0.041,0.006
		c-0.053,0.008-0.109,0.016-0.115,0.019c-0.437,0.082-0.827,0.322-1.095,0.676c-0.284,0.376-0.393,0.856-0.3,1.318
		c0.058,0.294,0.196,0.567,0.398,0.788c0.268,0.524,0.713,0.936,1.257,1.162c0.037,0.106,0.086,0.208,0.146,0.304
		c0.215,0.344,0.563,0.583,0.961,0.659c0.23,0.042,0.466,0.05,0.699,0.026c0.218,0.151,0.462,0.261,0.72,0.324
		c0.224,0.22,0.497,0.383,0.796,0.476l0.051,0.02c0.404,0.23,0.862,0.347,1.326,0.338c0.05,0.051,0.095,0.105,0.136,0.162
		c0.161,0.23,0.385,0.408,0.646,0.515c0.231,0.093,0.483,0.124,0.73,0.089c0.022,0.01,0.049,0.02,0.091,0.043
		c0.245,0.102,0.502,0.171,0.766,0.206l0.027,0.005c0.389,0.293,0.878,0.424,1.362,0.365c0.14,0.076,0.291,0.129,0.448,0.156
		c0.275,0.295,0.663,0.459,1.066,0.452c0.043-0.001,0.086,0.003,0.128,0.009c0.157,0.258,0.391,0.462,0.668,0.582
		c0.386,0.166,0.825,0.152,1.201-0.037c0.153,0.123,0.33,0.213,0.521,0.264c0.065,0.019,0.132,0.031,0.199,0.039
		c0.16,0.094,0.337,0.152,0.52,0.175c0.302,0.03,0.604,0.024,0.904-0.017c0.009-0.002,0.017-0.004,0.025-0.004
		c0.167,0.145,0.351,0.27,0.547,0.37c0.063,0.032,0.13,0.059,0.197,0.08c0.027,0.024,0.057,0.046,0.082,0.065
		c0.336,0.244,0.758,0.342,1.167,0.271c0.348,0.227,0.771,0.309,1.178,0.229l0.034-0.008c0.199,0.115,0.418,0.191,0.646,0.226
		c0.158,0.024,0.319,0.024,0.478,0c0.266,0.116,0.561,0.146,0.844,0.083l0.072-0.016c0.098,0.031,0.197,0.053,0.298,0.064
		c0.367,0.285,0.835,0.41,1.295,0.346c0.065-0.014,0.129-0.031,0.191-0.053l0.136,0.055c0.111,0.139,0.247,0.255,0.399,0.345
		c0.351,0.206,0.771,0.251,1.157,0.124c0.11-0.035,0.218-0.081,0.32-0.135c0.515,0.275,1.096,0.398,1.677,0.354
		c0.234,0.097,0.486,0.142,0.738,0.132c0.145,0.075,0.3,0.127,0.461,0.152c0.227,0.035,0.459,0.023,0.682-0.035
		c0.398,0.252,0.88,0.338,1.341,0.236l0,0c0.228,0.105,0.474,0.166,0.725,0.178c0.348,0.016,0.694-0.051,1.012-0.193
		c0.492,0.235,1.046,0.306,1.581,0.201c0.271-0.053,0.529-0.148,0.769-0.285c0.482,0.301,1.053,0.428,1.617,0.361l0.143-0.023
		l0.033-0.007c0.364-0.083,0.713-0.226,1.032-0.419c0.075-0.045,0.152-0.086,0.232-0.123c0.25-0.076,0.481-0.206,0.68-0.379
		c0.078-0.008,0.156-0.021,0.232-0.043c0.458,0.156,0.953,0.162,1.414,0.019c0.101-0.007,0.199-0.024,0.296-0.052l0.192-0.057
		c0.299,0.119,0.626,0.152,0.942,0.094c0.186-0.037,0.364-0.106,0.525-0.205l0.021-0.005c0.154-0.031,0.303-0.089,0.438-0.168
		c0.015-0.002,0.028-0.005,0.041-0.009c0.201-0.044,0.393-0.123,0.566-0.232c0.241-0.046,0.47-0.145,0.668-0.289
		c0.263,0.111,0.551,0.145,0.831,0.096c0.399-0.075,0.753-0.303,0.986-0.635c0.357-0.113,0.684-0.305,0.958-0.559
		c0.279,0.094,0.583,0.098,0.865,0.01c0.542-0.153,0.991-0.533,1.231-1.043l0.061-0.025c0.4,0.027,0.793-0.117,1.08-0.396
		c0.314,0.038,0.633-0.027,0.906-0.188c0.301-0.168,0.565-0.395,0.777-0.668c0.321-0.084,0.603-0.281,0.793-0.553
		c0.344-0.068,0.662-0.229,0.921-0.465c0.601,0.076,1.188-0.217,1.486-0.745c0.01-0.024,0.024-0.047,0.037-0.071
		c0.36-0.076,0.701-0.229,0.999-0.446c0.063-0.006,0.134-0.012,0.224-0.018c0.272-0.02,0.545-0.054,0.814-0.103
		c0.465-0.078,0.899-0.281,1.258-0.587c0.208,0.05,0.425,0.054,0.636,0.012c0.333-0.065,0.635-0.241,0.855-0.5
		c0.048-0.005,0.096-0.012,0.144-0.021c0.208-0.043,0.405-0.131,0.578-0.256c0.196,0.053,0.399,0.068,0.602,0.045
		c0.223-0.026,0.438-0.096,0.633-0.206c0.343,0.037,0.688-0.054,0.967-0.257c0.148-0.01,0.297-0.03,0.443-0.059
		c0.079-0.019,0.153-0.041,0.224-0.066c0.066,0.003,0.134,0.012,0.201,0.02c0.196,0.025,0.393,0.038,0.59,0.04
		c0.194,0,0.388-0.028,0.574-0.084c0.358,0.128,0.746,0.151,1.117,0.065c0.397-0.091,0.781-0.233,1.142-0.423
		c0.301,0.086,0.613,0.124,0.926,0.112c0.42,0.118,0.868,0.077,1.259-0.116l0.066,0.014l0.051,0.011
		c0.1,0.021,0.193,0.04,0.283,0.054c0.36,0.056,0.728-0.03,1.024-0.24c0.17,0.019,0.342,0.012,0.509-0.02
		c0.037-0.008,0.072-0.016,0.108-0.026c0.327,0.058,0.658,0.088,0.989,0.09c0.351,0.012,0.506,0.025,0.571,0.033l0,0
		c0.428,0.175,0.914,0.133,1.306-0.113c0.111-0.072,0.213-0.158,0.302-0.256c0.229,0.087,0.466,0.154,0.707,0.199l0.196,0.067
		c0.313,0.15,0.666,0.202,1.01,0.149c0.174-0.034,0.341-0.095,0.495-0.183c0.189,0.037,0.382,0.055,0.574,0.053
		c0.109,0.08,0.227,0.147,0.35,0.202c0.311,0.126,0.655,0.136,0.972,0.028c0.123,0.231,0.305,0.425,0.527,0.563
		c0.427,0.264,0.962,0.281,1.406,0.046c0.074-0.022,0.153-0.021,0.228,0.002l0.102,0.015l0.334,0.059
		c0.204,0.105,0.426,0.172,0.653,0.2c0.252,0.16,0.551,0.231,0.848,0.202c0.028-0.002,0.058-0.003,0.085-0.008l0.126,0.073
		c0.099,0.106,0.212,0.198,0.336,0.272c0.3,0.175,0.653,0.234,0.994,0.166c0.251,0.25,0.585,0.397,0.938,0.414
		c0.263,0.094,0.534,0.163,0.811,0.206l0.054,0.01l0.068,0.01c0.442,0.13,0.903,0.189,1.364,0.176l0.189,0.002
		c0.427,0.243,0.87,0.456,1.326,0.638l0.176,0.076c0.301,0.14,0.625,0.223,0.956,0.245c0.327,0.34,0.782,0.527,1.255,0.518
		c0.252,0.169,0.551,0.252,0.854,0.238c0.219,0.207,0.486,0.355,0.777,0.432c0.127,0.031,0.257,0.055,0.387,0.068
		c0.307,0.264,0.7,0.404,1.104,0.393c0.27,0.176,0.576,0.286,0.896,0.322l0,0c0.388,0.281,0.854,0.436,1.333,0.438
		c0.191,0.169,0.424,0.286,0.674,0.341c0.261,0.053,0.531,0.031,0.78-0.064l0.066,0.012c0.077,0.01,0.155,0.016,0.232,0.018
		c0.404,0.43,1.001,0.622,1.58,0.51c0.078-0.004,0.229,0.007,0.305,0.015c0.25,0.015,0.493,0.026,0.722,0.021
		c0.418,0.285,0.888,0.482,1.383,0.582l0.149,0.039c0.248,0.072,0.508,0.091,0.764,0.056c0.236,0.198,0.531,0.312,0.84,0.324
		c0.152,0.048,0.313,0.067,0.473,0.061c0.102,0.05,0.208,0.088,0.318,0.114c0.272,0.066,0.557,0.07,0.832,0.013
		c0.444,0.287,0.98,0.399,1.504,0.314c0.07-0.015,0.141-0.032,0.21-0.054c0.528,0.233,1.104,0.342,1.682,0.317
		c0.188,0.205,0.431,0.351,0.7,0.421c0.451,0.119,0.932,0.004,1.281-0.304c0.058-0.021,0.141-0.042,0.203-0.06
		c0.091-0.025,0.181-0.051,0.27-0.078c0.12,0.029,0.238,0.065,0.354,0.108c0.521,0.222,1.09,0.299,1.65,0.226
		c0.168,0.1,0.352,0.172,0.542,0.213c0.3,0.063,0.61,0.053,0.906-0.029c0.356,0.188,0.767,0.249,1.162,0.176
		c0.042-0.01,0.082-0.021,0.122-0.034c0.232,0.077,0.479,0.096,0.721,0.053c0.318-0.06,0.611-0.216,0.837-0.448
		c0.063-0.008,0.127-0.021,0.188-0.037c0.109-0.029,0.214-0.07,0.313-0.123c0.276,0.082,0.565,0.117,0.854,0.106
		c0.278-0.015,0.534-0.048,0.787-0.08c0.285-0.058,0.577-0.071,0.865-0.04c0.332,0.063,0.675,0.004,0.968-0.164
		c0.112-0.002,0.224-0.02,0.331-0.055l0.445-0.08c0.27-0.05,0.53-0.139,0.774-0.264c0.349,0.063,0.707,0.035,1.042-0.082
		c0.354-0.121,0.647-0.376,0.816-0.711c0.521-0.074,1.027-0.229,1.5-0.46l0.093,0.009c0.55,0.07,1.107-0.046,1.583-0.33
		c0.175,0.021,0.352,0.013,0.523-0.023c0.179-0.036,0.35-0.1,0.509-0.189c0.266,0.05,0.539,0.051,0.805,0.001
		c0.267-0.06,0.512-0.192,0.708-0.382c0.104,0.017,0.21,0.023,0.315,0.02c0.203-0.012,0.401-0.064,0.583-0.156
		c0.634,0.053,1.255-0.192,1.685-0.662c0.234-0.078,0.457-0.188,0.664-0.324c0.259,0.057,0.525,0.063,0.787,0.018
		c0.389-0.074,0.739-0.285,0.985-0.594l0.158-0.027l0.043-0.008c0.254,0.053,0.519,0.037,0.765-0.048
		c0.155-0.055,0.302-0.134,0.434-0.233c0.102-0.02,0.201-0.049,0.297-0.088c0.16-0.055,0.328-0.081,0.497-0.079l0.223-0.019
		c0.423-0.041,0.834-0.156,1.217-0.341l0.186-0.081c0.219,0.016,0.432,0.018,0.663,0.02c0.249-0.008,0.5,0.009,0.746,0.05
		c0.394,0.085,0.804-0.002,1.13-0.238c0.452,0.144,0.93,0.187,1.4,0.128c0.164-0.034,0.32-0.095,0.464-0.18
		c0.103,0,0.204-0.009,0.306-0.025c0.042,0.017,0.102,0.041,0.154,0.052c0.421,0.119,0.873,0.036,1.224-0.224
		c0.158-0.064,0.308-0.149,0.444-0.252c0.452,0.047,0.909,0.018,1.352-0.087c0.189,0.126,0.407,0.203,0.633,0.226
		c0.234,0.023,0.471-0.011,0.688-0.101c0.383,0.08,0.778,0.074,1.159-0.016c0.374,0.185,0.796,0.247,1.207,0.178
		c0.052-0.01,0.104-0.023,0.154-0.039c0.276,0.021,0.555,0.007,0.828-0.04c0.26-0.032,0.383-0.043,0.433-0.041
		c0.317,0.063,0.643,0.082,0.966,0.058c0.061,0.019,0.123,0.032,0.186,0.042c0.327,0.053,0.663-0.013,0.945-0.187
		c0.093,0,0.18-0.003,0.262-0.011c0.422,0.202,0.904,0.239,1.353,0.105c0.422,0.222,0.92,0.25,1.364,0.077
		c0.336,0.231,0.752,0.316,1.151,0.237l0.023-0.005c0.201,0.102,0.414,0.175,0.635,0.218c0.275,0.172,0.595,0.258,0.918,0.248
		c0.374,0.187,0.807,0.221,1.205,0.092c0.307-0.051,0.597-0.173,0.849-0.354c0.313,0.238,0.696,0.364,1.089,0.356
		c0.279,0.238,0.64,0.361,1.006,0.342c0.047-0.002,0.094-0.008,0.14-0.016l0.021-0.004c0.34,0.167,0.729,0.205,1.096,0.105
		c0.39,0.357,0.891,0.57,1.418,0.6l0.11,0.014c0.357,0.317,0.855,0.424,1.312,0.279c0.188-0.054,0.37-0.129,0.542-0.223
		c0.112,0.217,0.276,0.402,0.477,0.54c0.352,0.243,0.794,0.313,1.204,0.194c0.146,0.017,0.429,0.08,0.56,0.109
		c0.482,0.136,0.983,0.195,1.484,0.178c0.294,0.109,0.599,0.184,0.908,0.225c0.053,0.008,0.155,0.023,0.228,0.038
		c0.535,0.312,1.156,0.442,1.771,0.375c0.125,0,0.249,0.021,0.368,0.062c0.467,0.146,0.963,0.18,1.446,0.099
		c0.055-0.011,0.156-0.036,0.289-0.073l0.101-0.027c0.162,0.104,0.343,0.174,0.532,0.207c0.341,0.234,0.764,0.32,1.169,0.237
		c0.184-0.04,0.361-0.1,0.531-0.179c0.332,0.18,0.713,0.243,1.085,0.182l0.079,0.033c0.255,0.105,0.523,0.178,0.797,0.213
		c0.131,0.014,0.263,0.01,0.393-0.013c0.338,0.301,0.797,0.428,1.241,0.345c0.201-0.046,0.395-0.119,0.576-0.215
		c0.264,0.06,0.539,0.043,0.793-0.049c0.102-0.037,0.198-0.083,0.289-0.139c0.314,0.148,0.644,0.262,0.982,0.336
		c0.052,0.012,0.104,0.018,0.157,0.021c0.376,0.029,0.752-0.049,1.084-0.227c0.299,0.179,0.65,0.244,0.993,0.186
		c0.173-0.031,0.34-0.091,0.494-0.174c0.117,0.103,0.251,0.186,0.396,0.244l0.013,0.006c0.427,0.179,0.914,0.133,1.301-0.122
		c0.057-0.037,0.112-0.077,0.165-0.12c0.171,0.01,0.343,0.017,0.516,0.02c0.445-0.01,0.888-0.085,1.311-0.227
		c0.064-0.019,0.123-0.037,0.183-0.052c0.397,0.168,0.837,0.209,1.258,0.116c0.291,0.076,0.595,0.087,0.89,0.029l0.064-0.014
		c0.312,0.053,0.631-0.002,0.907-0.155c0.11-0.062,0.215-0.133,0.312-0.215l0.064-0.009c0.158,0.033,0.319,0.051,0.48,0.053
		c0.055-0.002,0.262-0.022,0.31-0.032c0.048-0.009,0.062-0.013,0.093-0.021c0.423,0.092,0.865,0.001,1.218-0.25
		c0.181,0.016,0.362,0.008,0.541-0.025c0.373-0.082,0.734-0.211,1.073-0.386c0.1-0.05,0.202-0.093,0.307-0.131
		c0.076-0.021,0.154-0.036,0.233-0.042c0.406-0.039,0.793-0.191,1.117-0.439c0.257-0.005,0.513-0.032,0.765-0.081l0.189-0.031
		c0.301,0.031,0.604-0.036,0.863-0.19c0.726-0.003,1.436-0.218,2.042-0.618l0.113-0.062l0.063-0.033
		c0.407,0.08,0.827,0.073,1.232-0.02c0.183-0.033,0.369-0.082,0.578-0.139c0.087-0.022,0.167-0.039,0.221-0.055l0.195-0.029
		c0.321-0.072,0.632-0.188,0.922-0.342c0.015-0.009,0.028-0.015,0.043-0.021c0.161,0.01,0.322-0.001,0.48-0.031
		c0.302-0.059,0.581-0.201,0.806-0.412c0.201-0.01,0.397-0.062,0.578-0.153l0.09-0.047c0.119,0.009,0.239,0.003,0.356-0.018
		c0.224-0.038,0.441-0.099,0.651-0.184c0.077,0.005,0.155,0.005,0.232,0c0.038-0.005,0.142-0.018,0.176-0.025
		c0.163-0.032,0.32-0.088,0.466-0.168c0.074-0.004,0.146-0.013,0.219-0.026l0.07-0.015c0.473,0.08,0.958-0.038,1.343-0.326
		l0.053-0.035c0.266,0.052,0.539,0.053,0.805,0.002c0.298-0.058,0.58-0.179,0.828-0.354c0.047,0.022,0.096,0.042,0.145,0.058
		c0.424,0.149,0.894,0.086,1.263-0.169l0.02-0.006l0.039-0.01c0.36,0.347,0.873,0.486,1.36,0.371
		c0.175-0.045,0.341-0.121,0.49-0.222c0.25,0.033,0.503,0.026,0.751-0.021c0.084-0.017,0.168-0.038,0.251-0.063
		c0.328,0.165,0.702,0.215,1.063,0.143c0.188-0.038,0.368-0.104,0.537-0.194c0.184-0.012,0.367-0.038,0.548-0.076l0.2-0.04
		l0.148-0.027c0.22,0.088,0.457,0.12,0.692,0.093c0.019-0.003,0.115-0.019,0.148-0.024c0.104-0.021,0.205-0.049,0.304-0.085
		c0.37,0.262,0.832,0.359,1.277,0.269c0.026-0.004,0.052-0.012,0.077-0.018c0.417,0.164,0.877,0.183,1.307,0.055
		c0.257,0.115,0.539,0.165,0.82,0.144c0.395,0.276,0.893,0.358,1.354,0.224c0.061,0.025,0.13,0.045,0.208,0.069
		c0.063,0.021,0.125,0.046,0.186,0.075l0.051,0.021c0.338,0.149,0.691,0.258,1.055,0.327c0.309,0.339,0.762,0.509,1.218,0.456
		c0.105-0.012,0.214-0.03,0.333-0.054l0.26-0.052c0.49,0.278,1.047,0.418,1.61,0.406c0.047,0.004,0.133,0.007,0.21,0.014
		c0.265,0.449,0.743,0.729,1.264,0.74c0.301,0.145,0.64,0.187,0.966,0.121c0.106-0.021,0.211-0.052,0.312-0.09
		c0.205,0.156,0.447,0.254,0.703,0.284"/>
</g>
</svg>
