<svg xmlns="http://www.w3.org/2000/svg" width="263.48" height="62.96" viewBox="0 0 263.48 62.96">
  <path id="パス_46523" data-name="パス 46523" d="M-96.544-6.636a19.208,19.208,0,0,0,6.552-4.228V1.848h3.024v-14.42h-1.54a22.531,22.531,0,0,0,2.716-4.956H-79.1v-3.024H-97.86v3.024h8.792A16.868,16.868,0,0,1-97.86-9.352Zm10.108-4.508a15.242,15.242,0,0,0,6.048,4.508L-79.1-9.38a17.564,17.564,0,0,1-5.068-3.78Zm18.844-9.968v2.072H-75.46v5.264h3.024v-2.24h12.712v2.24H-56.7V-19.04h-7.868v-2.072Zm-4,6.5v2.24H-75.46v3.024H-71.6v3.276c0,3.472,1.512,4.9,4.564,4.9h2.94a19.351,19.351,0,0,1-1.4,3.024h3.248a18.279,18.279,0,0,0,1.316-3.024h3.388V-4.2h-2.632a35.856,35.856,0,0,0,.42-5.152H-56.7v-3.024H-68.572v-2.24Zm8.82,5.264A28.811,28.811,0,0,1-63.252-4.2h-3.78c-1.008,0-1.54-.42-1.54-1.876V-9.352ZM-41.16-19.04h-3.024V-15.6c-.644.112-1.316.252-2.044.448l-.252-3.892H-49.5l.308,4.872c-1.008.42-2.072.868-3.192,1.428l1.008,2.856c.84-.448,1.652-.812,2.408-1.148l.868,12.88h3.024l-.952-14.056q1.008-.294,1.848-.5v2.576h3.024v-2.828c4.144.42,3.108,4.676-.448,5.6l.9,2.884c6.524-1.568,7.616-10.836-.448-11.312Zm28.084,5.264.616-7.336h-2.8l-.616,7.336Zm-11.424-6.5.616,6.5h2.8l-.616-6.5Zm4.648,6.5h2.8l-.616-6.5h-2.8ZM-29.708,1.848h3.024V-19.04h-3.024v4.816l-.98-.2L-31.78-8.708l1.6.308.476-2.408ZM-24.5-8.792V-13.86h-1.624v5.068Zm6.776-3.584a29.87,29.87,0,0,1-.812,2.884l-.952-.868-1.624,1.82,1.568,1.4a14.693,14.693,0,0,1-1.82,2.828l1.736,1.764a16.6,16.6,0,0,0,1.96-2.912l1.008.9,1.624-1.792-1.6-1.456c.532-1.4.868-2.66,1.148-3.64Zm-3.752,11.2v-10.64H-23.94V1.848h11.48V-11.816h-2.464v10.64ZM3.3-15.456v6.748H.056v-8.82H-5.768V-14.5h2.8v5.8c-3.3,0-4.48,2.212-4.48,4A3.381,3.381,0,0,0-3.7-1.2C-.224-1.2.056-4.06.056-5.684H3.3V-4.4c0,2.24-.168,3.22-1.792,3.22V1.848c4.312,0,4.816-2.52,4.816-5.8V-5.684h1.68V-8.708H6.328v-6.748Zm-7,11.368A.778.778,0,0,1-4.564-4.9c0-.644.56-.952,1.764-.952C-2.8-4.788-2.856-4.088-3.7-4.088ZM24.136-7.98A9.159,9.159,0,0,1,24.78-6.1L27.5-7.448a15.514,15.514,0,0,0-.784-2.1c.588-.28,1.2-.588,1.9-.868l-1.092-2.828c-.98.392-1.876.812-2.688,1.232a5.993,5.993,0,0,0-3.108-1.176V-14.5h2.464v-3.024H21.728V-19.04H18.7v1.512H16.212V-14.5H18.7v4.452a6.589,6.589,0,0,1,3.22-.028c-8.036,6.356-2.716,14.5,6.1,11.144l-.7-2.94C21.98.364,18.144-3.64,24.136-7.98ZM37.3,1.848c.2-1.9.364-3.836.476-5.768v.28h3.164v.868C40.936-1.316,40.4-.9,39.368-.9V1.848c3.08,0,4.032-1.148,4.032-4.62V-5.824l2.352.9a6.1,6.1,0,0,0,.616-1.4H47.4V-4.2H44.24v3.024H47.4V1.848h3.052V-1.176H53.62V-4.2H50.456V-6.328H53.62V-9.352H50.456v-.98H47.4v.98h-.588v-.98h-2.6A6.825,6.825,0,0,1,43.4-6.776v-9.016H42.084a14.731,14.731,0,0,0,1.008-4.76H36.12a2.485,2.485,0,0,1-1.26,2.52v3.892c.28-.14.532-.28.784-.42A118.356,118.356,0,0,1,34.86,1.2Zm11.732-12.74c3.08,0,4.592-1.4,4.592-4.9v-4.76H44.24v3.024h1.68A10.9,10.9,0,0,1,43.876-12.1l2.772,1.2a12.794,12.794,0,0,0,2.3-6.636H50.6v1.736c0,1.456-.532,1.876-1.568,1.876Zm-9.352-6.636a16.66,16.66,0,0,1-.728,1.736H37.3a5.879,5.879,0,0,0,1.2-1.736Zm-1.6,6.552c0-.616,0-1.2.028-1.792h.616v1.792Zm2.856-1.792v1.792h-.728v-1.792ZM37.912-6.356,38-8.288h.728v1.932Zm3.024-1.932v1.932h-.728V-8.288ZM70.5-19.04v-2.072H67.48v2.072H63.952v3.024H67.48v7.224H63.84v3.024h3.08a18.545,18.545,0,0,1-4.4,5.432l2.128,2.184A23.218,23.218,0,0,0,69.16-3.36a30.5,30.5,0,0,0,4.76,5.208l2.1-2.184a29,29,0,0,1-4.9-5.432h4.9V-8.792h-.84V-19.04Zm-12.04,1.232-1.2,2.772,4.2,1.82,1.2-2.772ZM70.5-8.792v-7.224h1.932v7.224Zm-12.04-3.892-1.2,2.772,4.2,1.792,1.2-2.772Zm1.512,5.712c0,1.932-.392,3.64-2.716,6.44l2.632,1.54A10.548,10.548,0,0,0,63-6.972Zm30.576-13.58H86.968l.28,15.932h3.024Zm-3.3,18.76v3.64h3.024v-3.64ZM-131.74,24.376a30.113,30.113,0,0,0,9.38-2.6,29.616,29.616,0,0,0,9.38,2.6V21.352a24.279,24.279,0,0,1-9.38-3.024,24.521,24.521,0,0,1-9.38,3.024Zm17.92,8.4V29.752h-6.188v-5.1h-3.024V38.824h-3V29.752h-3.024v9.072h-2.688v3.024h18.76V38.824h-7.028V32.776ZM-90.58,20.96h-1.288l.448-2.072h-3.108l-.448,2.072H-96.1V18.888H-99.12V20.96h-1.68V18.888h-3.024V20.96h-1.092l-.476-2.072H-108.5l.476,2.072h-1.316v3.024h2.8v2.38h-2.8v3.024h7.868v1.2H-108.5V32.86h7.028v1.2h-7.588v3.024h4.76a10.945,10.945,0,0,1-5.04,1.82l.728,2.94a10.925,10.925,0,0,0,7.14-3.108v3.108h3.024V38.74a10.973,10.973,0,0,0,7.14,3.108l.728-2.94a10.887,10.887,0,0,1-5.012-1.82h4.732V34.064h-7.588v-1.2h7.028V30.592h-7.028v-1.2h7.868V26.364h-2.8v-2.38h2.8Zm-12.936,5.4v-2.38H-96.4v2.38Zm18.284,8.456,4.9-4.872,10.192,8.26,1.932-2.352-12.32-9.968-6.832,6.776Zm30.016-10.7c-5.768,0-10.052,3.724-9.072,8.288.532,2.464,2.548,3.192,4.732,3.192,2.38,0,5.18-2.1,5.74-8.232,2.156.672,2.912,2.94,2.912,4.648,0,4.564-2.66,6.8-5.208,6.8v3.024c3.808,0,8.344-3.024,8.344-9.856C-47.768,28.912-49.812,24.124-55.216,24.124Zm-4.844,8.652c-2.492,0-2.1-4.7,3.22-5.516C-57.26,31.4-58.828,32.776-60.06,32.776ZM-39.872,20.96H-43.26v3.024h9.828V20.96H-36.82V18.888h-3.052Zm13.832,7.98h-2.212c.056-1.092.112-2.212.14-3.444h3.556V22.472h-.224l-.5-3.024H-27.1l.5,3.024h-1.456c0-1.12.028-2.324.028-3.584h-3.024c0,1.288-.028,2.464-.028,3.584h-1.512V25.5h1.484c-.168,7.2-.784,11.06-3.192,15.232l2.8,1.12a20.734,20.734,0,0,0,2.436-6.384v1.484c0,3.472,1.512,4.9,4.564,4.9V38.824c-1.008,0-1.54-.42-1.54-1.876ZM-39.7,34.092v3.416c0,.9-.14,1.316-.672,1.316v3.024c2.044,0,3.388-1.428,3.388-4.34V34.092h3.556V25.3H-43.26v8.792Zm3.248-5.768V31.04h-3.752V28.324ZM-41.02,40.28a16.047,16.047,0,0,0,.616-5.068h-2.38a15.708,15.708,0,0,1-.476,4.228Zm7.588-1.288a11.5,11.5,0,0,1-.476-3.78h-2.38a12.454,12.454,0,0,0,.616,4.62Zm19.124-16.24c1.652,0,3.22-.056,4.592-.112v2.436h-4.592V28.1h4.592v2.548h-4.592v11.2H-2.1v-11.2H-6.692V28.1H-2.1V25.076H-6.692V22.444c2.884-.252,4.592-.532,4.592-.532V18.888a83.519,83.519,0,0,1-12.208.84Zm-5.348-.56-1.2,2.772,4.2,1.82,1.2-2.772Zm0,5.124-1.2,2.772,4.2,1.792,1.2-2.772Zm1.512,5.712c0,1.932-.392,3.64-2.716,6.44l2.6,1.54c2.688-3.024,3.136-5.18,3.136-7.98Zm13.02,5.8h-6.16V33.672h6.16ZM20.3,41.848v-22.4H10.864v22.4Zm-16.044,0H7.308V31.236l.9,1.512,2.6-1.54-1.932-3.22-1.568.924V26.42h2.716V23.4H7.308V21.352H4.256V23.4H1.54V26.42H4C3.864,29.248,2.94,31.544,1.54,32.8v4.144a6.358,6.358,0,0,0,2.716-2.716Zm13.02-19.376v3.444H13.888V22.472Zm0,6.468v3.416H13.888V28.94Zm0,6.44v3.444H13.888V35.38Zm15.008-4.228a9.56,9.56,0,0,0,4.452-3.864,9.56,9.56,0,0,0,4.452,3.864L42.7,28.576a7.194,7.194,0,0,1-4.536-6.748v-2.94H35.308v2.94a7.2,7.2,0,0,1-4.564,6.748Zm-7.5-11.7v2.184h5.46V19.448ZM32.2,20.9,31.556,24.8h2.408l.644-3.892Zm7.336,0V24.8h2.352V20.9Zm-15.6,1.82v3.024h7.14V22.724Zm.84,4.144v2.184h5.46V26.868Zm13.384,3.276H35.308v2.38a7.138,7.138,0,0,1-4.228,6.608V33.616H23.94v8.232h7.14V39.86l1.2,1.988a9.56,9.56,0,0,0,4.452-3.864,9.56,9.56,0,0,0,4.452,3.864L42.7,39.3a7.251,7.251,0,0,1-4.536-6.776ZM30.24,32.412V30.228H24.78v2.184Zm3.724,3.36.644-3.892H32.2l-.644,3.892Zm7.924,0V31.88H39.536v3.892Zm-14.9,3.052V36.64h1.064v2.184ZM53.9,20.96v3.024H49.168v3.024H53.9v3.64H49.168v3.024h4.76c.392,8.176,6.832,8.176,6.832,8.176l.476-3s-3.892-.028-4.284-5.18h4.732V30.648h-4.76v-3.64h4.76V23.984h-4.76V20.96ZM69.916,41.848A19.633,19.633,0,0,0,77.56,32.5a19.573,19.573,0,0,0,7.616,9.352l1.764-2.464c-5.376-4-7.5-8.372-7.84-13.888h7.84V22.472h-7.9V18.888H76.02v3.584H68.18V25.5h7.812c-.308,5.516-2.464,9.884-7.812,13.888ZM101,18.888A24.558,24.558,0,0,1,99.96,26.42V24.964h-3a13.8,13.8,0,0,0,.168-1.624H99.96V20.316H94.388c.028-.5.028-.98.028-1.428H91.392a10.941,10.941,0,0,1-.812,4.676l2.828,1.064a8.8,8.8,0,0,0,.5-1.288h.448a12.887,12.887,0,0,1-.308,1.624H90.58v3.024h1.736a7.989,7.989,0,0,1-1.736,1.288v3.612l.84-.42v9.38h8.54V39.384H98.28v-1.4h1.68V36.332H98.28v-1.4h1.68v-1.68H98.28v-1.4h1.68V29.388H98.5l.14-1.4h1.232l2.324.868a12.584,12.584,0,0,0,1.484-4.872h2.632a13.578,13.578,0,0,1-.7,3.808l2.912.812a12.5,12.5,0,0,0,.812-4.62V20.96h-5.348c.028-.644.028-1.344.028-2.072Zm-5.852,10.5a7.73,7.73,0,0,0,.84-1.4H96.6l-.14,1.4Zm7.98-.9A20.549,20.549,0,0,1,99.96,40.42l2.66,1.428a22.921,22.921,0,0,0,2.016-3.948,25.106,25.106,0,0,0,2.016,3.948l2.688-1.428a20.381,20.381,0,0,1-3.192-11.928Zm-8.68,4.76v-1.4h1.624v1.4Zm0,3.08v-1.4h1.624v1.4Zm0,3.052v-1.4h1.624v1.4Zm29.176-20.5s-1.456.84-4.956.84V33.5h-.56v3.024c4.312,0,5.516-.84,5.516-.84V32.664a7.1,7.1,0,0,1-1.932.56v-10.7a5.448,5.448,0,0,0,1.932-.616ZM127.2,38.264V23.984h1.512V31.74c0,.98-.28,1.316-.728,1.316V36.08c2.24,0,3.752-.868,3.752-4.34V20.96h-7.56v17.3ZM112.98,22.556l.672,4.368h3.108l-.672-4.368Zm4.2,13.692c.028-1.2.028-2.52.028-4V29.192H112.98v3.052h1.176c0,3.472,0,6.132-1.176,8.848l2.94.756a12.791,12.791,0,0,0,.784-2.1c2.072,1.428,4.2,2.1,8.008,2.1h7.028V38.824h-7.028A10.409,10.409,0,0,1,117.18,36.248Z" transform="translate(131.74 21.112)" fill="#25aa39"/>
</svg>
