<?xml version="1.0" encoding="utf-8"?>
<!-- Generator: Adobe Illustrator 15.0.0, SVG Export Plug-In . SVG Version: 6.00 Build 0)  -->
<!DOCTYPE svg PUBLIC "-//W3C//DTD SVG 1.1//EN" "http://www.w3.org/Graphics/SVG/1.1/DTD/svg11.dtd">
<svg version="1.1" id="レイヤー_1" xmlns="http://www.w3.org/2000/svg" xmlns:xlink="http://www.w3.org/1999/xlink" x="0px"
	 y="0px" width="326.043px" height="51.821px" viewBox="2.28 5.298 326.043 51.821"
	 enable-background="new 2.28 5.298 326.043 51.821" xml:space="preserve">
<path fill="#25AA39" d="M20.679,41.369v6.144h3.04v3.456h-4.063c0.704,1.567,1.984,2.399,4.063,2.815l-0.992,3.328
	c-3.808-0.673-5.344-2.561-6.463-5.313l2.08-0.831H7.656L9.704,51.8c-1.088,2.752-2.624,4.64-6.464,5.313L2.28,53.784
	c2.08-0.416,3.359-1.248,4.063-2.815H2.28v-3.456H4.2V32.602c10.432,0,15.135-1.728,15.135-1.728v3.455
	c0,0-3.264,1.376-11.679,1.664v1.92h15.103v3.456H20.679z M17.223,47.513v-6.144H7.656v6.144H17.223z"/>
<path fill="#25AA39" d="M41.095,30.874v2.367h8.223v3.456h-6.751v1.184h5.792v2.816h-5.792v1.151h6.751v9.695h-6.751v1.28h5.792
	v2.815h-5.792v1.473h-3.456V55.64h-5.792v-2.815h5.792v-1.28h-6.751v-9.695h6.751v-1.151h-6.432v-2.816h6.432v-1.184h-6.815
	c-0.16,10.463-1.024,14.815-1.024,14.815l-3.392-0.544c0,0,0.959-5.184,0.959-17.728h8.8v-2.367H41.095z M39.111,45.721v-1.056
	h-3.296v1.056H39.111z M39.111,48.729v-1.024h-3.296v1.024H39.111z M42.566,44.665v1.056h3.296v-1.056H42.566z M42.566,47.704v1.024
	h3.296v-1.024H42.566z"/>
<path fill="#25AA39" d="M56.935,34.97v11.839h17.982v3.456h-8.991v6.848h-3.456v-6.848h-8.991V34.97H56.935z M58.887,51.097
	c0,4.127-2.432,6.016-2.432,6.016l-2.976-1.729c0,0,1.952-1.888,1.952-4.287H58.887z M57.895,45.849V31.514h17.022v14.335H57.895z
	 M61.351,34.97v1.151h10.111V34.97H61.351z M61.351,38.105v1.151h10.111v-1.151H61.351z M61.351,41.241v1.151h10.111v-1.151H61.351z
	 M72.966,51.097c0,2.399,1.952,4.287,1.952,4.287l-3.007,1.729c0,0-2.4-1.889-2.4-6.016H72.966z"/>
<path fill="#25AA39" d="M94.502,35.033v-3.52h1.984v4.096h-0.544l0.096,2.815c-8,9.439-6.432,13.472-1.024,15.583l-1.504,3.104
	c-6.943-2.464-9.375-8.992-2.112-18.463l-8.416,0.352l-0.128-3.456L94.502,35.033z M99.429,31.514v4.096h-2.016v-4.096H99.429z"/>
<path fill="#25AA39" d="M107.911,30.874h3.488v2.367h3.872v3.456h-11.231v-3.456h3.872V30.874z M104.039,48.248V38.201h11.231
	v10.047h-4.063v3.904c0,3.327-1.536,4.96-3.872,4.96v-3.456c0.608,0,0.768-0.48,0.768-1.504v-3.904H104.039z M104.039,54.36
	c0.544-2.368,0.544-3.456,0.544-4.832h2.72c0,1.76,0.032,3.04-0.704,5.792L104.039,54.36z M107.526,41.657v3.104h4.288v-3.104
	H107.526z M112.71,54.808c-0.736-2.239-0.704-3.52-0.704-5.279h2.72c0,1.376,0,2.464,0.544,4.319L112.71,54.808z M123.717,51.513
	c0,1.663,0.608,2.144,1.76,2.144v3.456c-3.487,0-5.215-1.633-5.215-5.6v-1.696c-0.608,2.784-1.472,5.088-2.784,7.296l-3.2-1.28
	c2.751-4.768,3.456-9.184,3.647-17.407h-1.696V34.97h1.728c0-1.28,0.032-2.624,0.032-4.096h3.456c0,1.439-0.032,2.815-0.032,4.096
	h1.664l-0.576-3.456h2.08l0.576,3.456h0.256v3.455h-4.063c-0.032,1.408-0.096,2.688-0.16,3.937h2.528V51.513z"/>
<path fill="#25AA39" d="M135.814,36.729l-1.376,3.168l-4.799-2.08l1.375-3.168L135.814,36.729z M135.814,42.553l-1.376,3.168
	l-4.799-2.048l1.375-3.168L135.814,42.553z M136.198,47.032c0,3.2-0.512,5.664-3.583,9.12l-2.976-1.761
	c2.656-3.199,3.104-5.151,3.104-7.359H136.198z M137.126,31.834c8.095,0,13.951-0.96,13.951-0.96v3.455c0,0-1.952,0.32-5.248,0.608
	v3.008h5.248v3.456h-5.248v2.911h5.248v12.8h-13.951v-12.8h5.248v-2.911h-5.248v-3.456h5.248v-2.784
	c-1.568,0.064-3.36,0.128-5.248,0.128V31.834z M147.621,47.769h-7.04v5.888h7.04V47.769z"/>
<path fill="#25AA39" d="M167.717,30.874v2.367h8.959V49.4h-8.959v7.712h-3.487V49.4h-8.991V33.241h8.991v-2.367H167.717z
	 M164.229,45.944v-9.247h-5.536v9.247H164.229z M173.221,36.697h-5.504v9.247h5.504V36.697z"/>
<path fill="#25AA39" d="M200.645,45.849c0,7.808-5.184,11.264-9.535,11.264v-3.456c2.911,0,5.951-2.56,5.951-7.775
	c0-1.952-0.863-4.544-3.328-5.312c-0.64,7.007-3.84,9.407-6.559,9.407c-2.496,0-4.801-0.832-5.408-3.647
	c-1.12-5.216,3.775-9.472,10.367-9.472C198.309,36.857,200.645,42.329,200.645,45.849z M190.277,40.441
	c-6.08,0.928-6.527,6.303-3.68,6.303C188.006,46.744,189.797,45.177,190.277,40.441z"/>
<path fill="#25AA39" d="M224.9,30.874l-0.576,2.367h2.912v6.912h-3.456v-3.456h-14.495v3.456h-3.487v-6.912h2.943l-0.575-2.367
	h3.551l0.576,2.367h2.496l-0.544-2.367h3.552l0.544,2.367h2.432l0.576-2.367H224.9z M222.692,41.881c0,0-0.896,2.944-3.552,4.544
	h8.096v3.456h-8.352V51c0,4.479-1.729,6.112-5.984,6.112h-1.151v-3.456h1.151c1.92,0,2.528-0.48,2.528-2.656v-1.119h-9.631v-3.456
	h9.631v-1.536c2.017-0.64,3.04-2.016,3.552-3.008h-7.68v-3.456h11.392V41.881z"/>
<path fill="#25AA39" d="M244.516,47.769v5.888h8.32v3.456h-21.438v-3.456h9.663v-5.888h-6.783v-3.456h6.783v-5.888h-4.896
	c-0.672,2.944-1.536,4.768-1.536,4.768l-3.231-1.312c0,0,2.112-4.703,2.112-10.367h3.487c0,1.216-0.097,2.368-0.224,3.456h4.287
	v-4.096h3.455v4.096h7.072v3.455h-7.072v5.888h6.752v3.456H244.516z"/>
<path fill="#25AA39" d="M269.893,57.112c-4.096-0.832-8.512-2.752-9.152-10.016l3.456-0.288c0.64,5.664,3.616,6.336,6.399,6.911
	L269.893,57.112z M268.164,47.576v-7.423h-7.168v-3.456h7.168v-3.456h3.455v3.456h3.616v3.456h-3.616v7.423H268.164z"/>
<path fill="#25AA39" d="M301.508,56.28c-3.872,1.792-6.88,0.768-8.672-3.616c-1.248-3.071-3.455-1.888-3.647-0.928l-0.992,5.376
	h-3.52l4.319-23.871h3.52L290.02,47.16c2.145-0.319,4.704,0.832,5.92,4c0.896,2.336,1.92,3.104,4.607,1.792L301.508,56.28z"/>
<path fill="#25AA39" d="M306.438,46.616l7.807-7.743l14.079,11.392l-2.208,2.688l-11.646-9.439l-5.6,5.567L306.438,46.616z"/>
<path fill="#243F7E" d="M123.484,16.925l4.062-11.627l4.048,11.627h-1.597l-0.644-1.85h-3.614l-0.658,1.85H123.484z M126.257,13.549
	h2.563l-1.275-3.656L126.257,13.549z"/>
<path fill="#243F7E" d="M138.144,16.925h-1.513V7.231h-2.241V5.719h5.981v1.513h-2.227V16.925z"/>
<path fill="#243F7E" d="M146.922,16.925h-1.513V7.231h-2.241V5.719h5.981v1.513h-2.227V16.925z"/>
<path fill="#243F7E" d="M157.927,16.925h-5.981V5.719h5.981v1.513h-4.468v3.123h4.188v1.514h-4.188v3.544h4.468V16.925z"/>
<path fill="#243F7E" d="M162.236,9.851v7.074h-1.513V5.298l5.589,7.494V5.719h1.513v11.626L162.236,9.851z"/>
<path fill="#243F7E" d="M174.375,16.925h-1.512V7.231h-2.242V5.719h5.981v1.513h-2.228V16.925z"/>
<path fill="#243F7E" d="M180.1,16.925V5.719h1.513v11.206H180.1z"/>
<path fill="#243F7E" d="M185.111,11.321c0-3.628,1.008-5.743,3.46-5.743c2.437,0,3.46,2.115,3.46,5.743s-1.023,5.743-3.46,5.743
	C186.119,17.064,185.111,14.949,185.111,11.321z M186.624,11.321c0,3.208,0.784,4.23,1.947,4.23s1.933-1.022,1.933-4.23
	s-0.77-4.23-1.933-4.23S186.624,8.113,186.624,11.321z"/>
<path fill="#243F7E" d="M196.34,9.851v7.074h-1.513V5.298l5.589,7.494V5.719h1.513v11.626L196.34,9.851z"/>
<path fill="#243F7E" d="M206.378,13.688h-1.513l-0.141-7.97h1.793L206.378,13.688z M204.865,15.104h1.513v1.821h-1.513V15.104z"/>
</svg>
