<?xml version="1.0" encoding="UTF-8"?>
<svg id="_レイヤー_1" xmlns="http://www.w3.org/2000/svg" version="1.1" viewBox="0 0 221 221">
  <!-- Generator: Adobe Illustrator 29.1.0, SVG Export Plug-In . SVG Version: 2.1.0 Build 142)  -->
  <defs>
    <style>
      .st0 {
        fill: #25aa39;
      }

      .st1 {
        fill: #fff;
      }

      .st2 {
        fill: #243f7e;
      }

      .st3 {
        fill: #fab700;
      }
    </style>
  </defs>
  <path class="st1" d="M110.5,0C49.6,0,0,49.6,0,110.5s49.6,110.5,110.5,110.5,110.5-49.6,110.5-110.5S171.4,0,110.5,0Z"/>
  <path class="st3" d="M14.1,155.8h192.7c6.5-13.8,10.1-29.1,10.1-45.3,0-58.7-47.8-106.5-106.5-106.5S4,51.8,4,110.5s10.1,45.3,10.1,45.3Z"/>
  <path class="st2" d="M70.8,73.1h-9v1h7.3v5.7h-7.3v1h8v3h1v3.5h-1v2.9h-8.1c-.2,3.2-1.5,4.1-5.2,4.1h-1.4v-2.7h1.4c1,0,1.5-.5,1.7-1.4h-8v-2.5h8v-1.1h-9v-2.2h9v-1.1h-8v-2.5h8v-1h-7.3v-5.7h7.3v-1h-9v-3.5h9v-1.7h3.5v1.7h9v3.5h0ZM58.4,77.4v-1.1h-3.8v1.1h3.8ZM65.7,76.3h-3.8v1.1h3.8v-1.1ZM66.4,83.2h-4.6v1.1h4.6v-1.1ZM66.4,87.5v-1.1h-4.6v1.1h4.6Z"/>
  <path class="st2" d="M93.1,67.9l-.4,2.4h3.8v3.5h-21.4v-3.5h3.8l-.4-2.4h3.6l.4,2.4h6.8l.4-2.4h3.6-.2ZM75,94.1v-18.7h10.7v13.7c0,3.3-1.1,5-4.6,5v-3.5c1.1,0,1.2-.6,1.2-1.5v-1.1h-3.8v6.1s-3.5,0-3.5,0ZM78.5,77.9v2.6h3.8v-2.6h-3.8ZM78.5,83v2.6h3.8v-2.6h-3.8ZM90.4,75.4v12.4h-3.5v-12.4h3.5ZM93,75.4h3.5v13.1c0,4-1.7,5.6-5.2,5.6h-2.5v-3.5h2.5c1.2,0,1.8-.5,1.8-2.1v-13.1h-.1Z"/>
  <path class="st2" d="M120.1,72c-.8,2-2.8,4.6-5.1,5.9h7v3.5c-.4,2.6-1.6,4.9-4.4,6.5l-2.2-2.7c1.8-1,2.6-2.5,3-3.8h-4.5v7.2c0,4-1.7,5.6-5.2,5.6h-2.1v-3.5h2.1c1.2,0,1.8-.5,1.8-2.1v-7.2h-9.9v-3.5h8.7l-2.8-2.8,2.5-2.4,3,3c1.8-1,3.3-2.2,4.3-3.7h-13.8v-3.5h17.6v3.5h0Z"/>
  <path class="st2" d="M139.9,67.9v2.4h7.8v18.3c0,4-1.7,5.6-5.2,5.6h-2.1v-3.5h2.1c1.2,0,1.8-.5,1.8-2.1v-14.8h-4.6c-.6,4-1.7,5.6-1.7,5.6l-2.7-.8.4,6.3h-2.6v-.9h-.4v10.1h-2.7v-9.6c-1.1.2-2.3.3-3.7.3v-3.5l1.5-2.8h-1.5v-3.5l3.3-6.1,3,1.6-2.4,4.4h1.5v3.5l-1.3,2.4c.9-.2,1.7-.4,2.4-.5l-.2-2.5h2.2c.5-1.2,1.8-4.7,1.8-10h3.5-.2ZM129.2,86c0,2.5,0,5.8-.8,7.7l-2.3-.8c.6-1.8.6-4.8.6-6.9h2.5ZM135.6,86.2v6.7h-2.3v-6.7h2.3ZM141.6,80.2l.8,6.2h-3.6l-.8-6.2h3.6Z"/>
  <path class="st2" d="M167.2,72v-3.5h2v4.1h-.5v2.8c-7.9,9.4-6.3,13.5-.9,15.6l-1.5,3.1c-6.9-2.5-9.4-9-2.1-18.5l-8.4.4v-3.5c-.1,0,11.5-.5,11.5-.5h-.1ZM172.1,68.5v4.1h-2v-4.1h2Z"/>
  <rect class="st2" x="160.6" y="89.7" width="49.2" height="2" transform="translate(27 222.9) rotate(-66)"/>
  <rect class="st2" x="36" y="65.8" width="2" height="49.2" transform="translate(-33.6 22.9) rotate(-24)"/>
  <path class="st2" d="M59.1,114.9l3.8-10.8,3.8,10.8h-1.5l-.6-1.7h-3.4l-.6,1.7h-1.5ZM61.7,111.7h2.4l-1.2-3.4s-1.2,3.4-1.2,3.4Z"/>
  <path class="st2" d="M70,114.9h-1.4v-6.4h1.4v.3c.3-.2.7-.3,1.1-.3s1.1.2,1.5.8c.4-.6,1-.8,1.5-.8.9,0,1.9.5,1.9,3.2v3.2h-1.4v-3.2c0-1.4,0-1.8-.8-1.8s-.8.4-.8,1.8v3.2h-1.4v-3.2c0-1.4-.2-1.8-.8-1.8s-.8.4-.8,1.8v3.2h0Z"/>
  <path class="st2" d="M82.2,108.5h1.4v6.4h-1.4v-.2c-.4.2-.9.4-1.4.4-1.7,0-2.8-1.2-2.8-3.2s1.2-3.3,2.8-3.3,1,0,1.4.4v-.4h0ZM82.2,111.8c0-1.2-.5-1.9-1.4-1.9s-1.4.7-1.4,1.9.5,1.8,1.4,1.8,1.4-.7,1.4-1.8Z"/>
  <path class="st2" d="M85.8,108.5h5.4l-3,5h2.7v1.4h-5.2l3.1-5h-2.9v-1.4h0Z"/>
  <path class="st2" d="M93.1,111.8c0-2.1,1.2-3.3,2.9-3.3s2.8,1.2,2.8,3.3-1.2,3.2-2.8,3.2-2.9-1.2-2.9-3.2ZM94.5,111.8c0,1,.5,1.8,1.5,1.8s1.4-.7,1.4-1.8-.5-1.9-1.4-1.9-1.5.7-1.5,1.9Z"/>
  <path class="st2" d="M106,111.7v3.2h-1.4v-3.2c0-1.2-.2-1.8-1.2-1.8s-1.2.5-1.2,1.8v3.2h-1.4v-6.4h1.4v.4c.3-.3.7-.4,1.2-.4,1.7,0,2.6,1,2.6,3.2Z"/>
  <path class="st2" d="M112.2,105.2v.7h2.3v1.4h-2.2l.2,2.4h2v1.4h-1.9l.3,3.8h-1.4l-.3-3.8h-2.4v-1.4h2.3l-.2-2.4h-2.1v-1.4h2v-.7s1.4,0,1.4,0ZM113.4,105.3v-1.7h.8v1.7h-.8ZM114.5,103.7h.8v1.7h-.8v-1.7Z"/>
  <path class="st2" d="M118.9,113.6c2.4-1.1,3.3-3.1,3.5-6.3h-3.6v-1.4h5.1c0,5.4-1.5,7.9-4.3,9l-.6-1.3h0Z"/>
  <path class="st2" d="M129.3,105.2h1.4v3.4l3,.8-.4,1.4-2.6-.7v4.9h-1.4v-9.7h0Z"/>
  <path class="st2" d="M137.1,114c1-1.4,1.5-2.7,1.5-5.1v-1.6h-1.3v-1.4h1.3v-.7h1.4v.7h3.3v5.8c0,2.4-.7,3.2-2.9,3.2v-1.4c1.3,0,1.5-.4,1.5-1.5v-4.7h-1.8v1.6c0,2.8-.6,4.4-1.7,6l-1.1-.8h-.2Z"/>
  <path class="st2" d="M146.9,109.4h5.4v1.4h-5.4v-1.4Z"/>
  <path class="st2" d="M159.1,105.2v3.4l3,.8-.4,1.4-2.6-.7v4.9h-1.4v-9.7h1.4ZM161,106v1.7h-.8v-1.7h.8ZM162.2,106v1.7h-.8v-1.7h.8Z"/>
  <path class="st2" d="M42.3,127.7v1.1c0,1.6-.6,2.8-1.4,3.6.9.8,1.4,1.9,1.4,3.5v1.1c0,3.4-2.4,4.8-5,4.8s-5-1.4-5-4.8v-.9h2.5v.9c0,1.6.8,2.3,2.6,2.3s2.5-.7,2.5-2.3v-1.1c0-1.6-.8-2.3-2.5-2.3h-1.4v-2.5h1.4c1.7,0,2.5-.7,2.5-2.3v-1.1c0-1.6-.8-2.3-2.5-2.3s-2.6.7-2.6,2.3v.9h-2.5v-.9c0-3.4,2.4-4.8,5-4.8s5,1.4,5,4.8Z"/>
  <path class="st2" d="M57,127.7v9.3c0,3.4-2.4,4.8-5,4.8s-5-1.4-5-4.8v-9.3c0-3.4,2.4-4.8,5-4.8s5,1.4,5,4.8ZM54.5,127.7c0-1.6-.8-2.3-2.5-2.3s-2.6.7-2.6,2.3v9.3c0,1.6.8,2.3,2.6,2.3s2.5-.7,2.5-2.3v-9.3Z"/>
  <path class="st2" d="M71.6,127.7v9.3c0,3.4-2.4,4.8-5,4.8s-5-1.4-5-4.8v-9.3c0-3.4,2.4-4.8,5-4.8s5,1.4,5,4.8ZM69.2,127.7c0-1.6-.8-2.3-2.5-2.3s-2.6.7-2.6,2.3v9.3c0,1.6.8,2.3,2.6,2.3s2.5-.7,2.5-2.3v-9.3Z"/>
  <path class="st2" d="M86.3,127.7v9.3c0,3.4-2.4,4.8-5,4.8s-5-1.4-5-4.8v-9.3c0-3.4,2.4-4.8,5-4.8s5,1.4,5,4.8ZM83.8,127.7c0-1.6-.8-2.3-2.5-2.3s-2.6.7-2.6,2.3v9.3c0,1.6.8,2.3,2.6,2.3s2.5-.7,2.5-2.3v-9.3Z"/>
  <path class="st2" d="M129.9,125.1c0,1.1-.9,1.9-2,1.9s-.9-.2-1.2-.5c-.2,8.9-2.8,13-7.6,15l-1-2.3c4.2-2,5.8-5.5,6.1-11.2h-6.4v-2.5h8.4v-.6c0-1.1.9-1.9,2-1.9s1.9.9,1.8,2h-.1ZM128.7,125.1c0-.4-.3-.8-.7-.8s-.8.3-.8.7.3.7.7.8c.4,0,.7-.3.8-.7Z"/>
  <path class="st2" d="M143.4,136.7c-2.8,3.7-5.9,4.6-9.3,4.8v-15.9h2.5v13c2-.5,3.5-1.4,4.8-3.4l2,1.5h0Z"/>
  <path class="st2" d="M152.1,124.4v3.2l7-1.6-.8,7.1-2.5-.3.4-3.7-4.2.9v7c0,1.7.5,1.9,2.6,1.9h3.3v2.5h-3.7c-3.4,0-4.7-.8-4.7-4.4v-6.5l-2.1.5-.5-2.4,2.6-.6v-3.7h2.6,0ZM157.8,122.1h1.4v2.9h-1.4v-2.9ZM159.8,122.1h1.4v2.9h-1.4v-2.9Z"/>
  <path class="st2" d="M168.2,129.3l-1.8,1.7-3.6-3.7,1.8-1.7,3.6,3.7ZM175.4,129.5c-1.5,6-5.2,9.7-10.6,12l-1.3-2.1c5.5-2.5,7.9-5.5,9.6-10.8l2.3,1h0Z"/>
  <path class="st2" d="M182,124.4h2.5v6l5.2,1.4-.6,2.4-4.6-1.2v8.6h-2.5v-17.2h0Z"/>
  <path class="st2" d="M91,141.1v-12.8h10.7v10c0,2-.9,2.8-2.6,2.8h-.6v-1.7h.6c.6,0,.9-.2.9-1.1v-2.7h-7.3v5.5h-1.7ZM92.8,130v3.8h2.8v-3.8h-2.8ZM97.3,130v3.8h2.8v-3.8h-2.8Z"/>
  <path class="st2" d="M103.8,131.9c1.5-1.3,2.1-2.3,2.6-4.1l1.7.5c-.5,2.2-1.6,3.8-3.1,4.9l-1.2-1.3h0ZM108.3,135.8c-.3,2.9-1.9,4.4-3.4,5.2l-1-1.4c1.3-.7,2.4-1.9,2.7-3.9h-1.6v-1.7h9v4.2c0,2-.9,2.8-2.6,2.8h-1.2v-1.7h1.2c.6,0,.9-.2.9-1.1v-2.4h-4ZM112,127.8c.4,1.8,1.1,2.8,2.6,4.1l-1.2,1.3c-1.5-1.1-2.6-2.7-3.1-4.9l1.7-.5h0Z"/>
  <path class="st2" d="M96,53.3v-13.8h-1.2v-2.2h3.3v16h-2.2,0Z"/>
  <path class="st2" d="M110.9,41.3v8.1c0,2.9-2.1,4.2-4.4,4.2s-4.4-1.2-4.4-4.2v-8.1c0-2.9,2.1-4.2,4.4-4.2s4.4,1.2,4.4,4.2ZM108.7,41.3c0-1.4-.7-2-2.2-2s-2.2.6-2.2,2v8.1c0,1.4.7,2,2.2,2s2.2-.6,2.2-2v-8.1Z"/>
  <path class="st2" d="M123.6,41.3v8.1c0,2.9-2.1,4.2-4.4,4.2s-4.4-1.2-4.4-4.2v-8.1c0-2.9,2.1-4.2,4.4-4.2s4.4,1.2,4.4,4.2ZM121.5,41.3c0-1.4-.7-2-2.2-2s-2.2.6-2.2,2v8.1c0,1.4.7,2,2.2,2s2.2-.6,2.2-2v-8.1Z"/>
  <path class="st2" d="M69.1,41.3v3h5.6v2.2h-3.1v3.3c0,1,.3,1.4,1.2,1.4h1.8v2.2h-2.2c-2.2,0-3.1-1.1-3.1-3v-3.9h-2.9c0,3.4-1.8,5.5-3.7,6.9l-1.6-1.5c1.6-1.3,3-3,3.1-5.4h-3.1v-2.2h5.6v-3h-2.6c-.2.8-.6,1.4-1.1,2l-1.9-1c1-1.3,1.3-2.5,1.3-4.6h2.2v1.4h2.2v-2.2h2.2v2.2h4.8v2.2h-4.8,0Z"/>
  <path class="st2" d="M88.2,36.9l-.3,1.4h2.8v2h-5.6v.6h5v1.6h-5v.6h5.6v2h-9.3v.6h9v7.7h-10.5v-4.8c-.5.5-.9.8-.9.8l-1.6-1.5s1.5-.9,1.9-2.8h-1.9v-2h5.6v-.6h-5v-1.6h5v-.6h-5.6v-2h2.8l-.3-1.4h2.2l.3,1.4h3.3l.3-1.4h2.2ZM82,47.4v.5h6.2v-.5h-6.2ZM82,49.2v.6h6.2v-.6h-6.2ZM82,51v.6h6.2v-.6h-6.2Z"/>
  <path class="st2" d="M136.9,43.2c-.8,1.5-1.8,2.6-3,3.3h3.4v6.4h-7.7v-4.9h-1.5l-.2-1.5c1.5,0,2.9-.2,4.1-.8l-.6-.9,1.2-.9.8,1c.6-.5,1.2-1.1,1.7-1.8h-2.3c-1.2,1.1-3,1.5-4.2,1.5l-.2-1.5c1.6,0,2.8-.5,3.8-1.5h4.6v1.5h0ZM135.8,48.1h-4.7v3.3h4.7v-3.3Z"/>
  <path class="st2" d="M140.6,44v8.9h-1.5v-10.5h3.6v1.5l-.6,2.4c.4.8.6,1.7.6,2.9s-.7,2.5-1.8,2.5v-1.5c.2,0,.5-.2.5-1s-.2-1.8-.7-2.7l.6-2.6h-.7ZM148.5,41.7v6.4h-1.8c0,.5.2.9.4,1.3l.7-.4.8,1.3-.9.5c.4.8.9,1.2.9,1.2l-1.2,1s-1.8-1.8-2.2-4.8h-.6v3.2c.8,0,1.2-.3,1.2-.3v1.5s-1,.4-3.2.4v-1.5h.4v-9.7h5.5ZM147,44.4v-1.2h-2.4v1.2h2.4ZM147,46.6v-1.2h-2.4v1.2h2.4Z"/>
  <path class="st2" d="M155.8,41.4v1h3.9v2.6h-1.5v-1.1h-6.4v1.1h-1.5v-2.6h3.9v-1h1.6ZM155.8,51.4h3.9v1.5h-3.5c-1.9,0-3-.3-4-1,0,.3-.2.7-.4,1l-1.5-.4c.6-1.4.7-2.7.7-4.2h1.5v1.9c.6.5,1.1.8,1.8,1v-4.6h-1.8v-1.5h5.2v1.5h-1.8v1.4h3.5v1.5h-3.5v2h0Z"/>
  <path class="st2" d="M48.3,172.6v1.1h6.9v2.6h-3.8c.9.5,2.1,1,3.8,1.4l-.8,2.4c-1.3-.4-2.5-.8-3.5-1.3l.2.4c-2,.7-3.4.9-7.8.9v-1.2c-1,.5-2.1.9-3.3,1.2l-.8-2.4c1.5-.4,2.7-.9,3.7-1.4h-3.7v-2.6h6.4c.2-.4.3-.8.3-1.1h2.6-.2ZM42.6,166.9h3.5l-2.4,3c2.9,0,4.8-.3,6-.5l-.7-2h2.8l1.8,5.1h-2.8l-.3-.7c-1.4.3-4.4.7-10.3.7v-2.6l2.3-3.1h.1ZM40.5,184c8.8,0,10.2-.5,12-1.2l1,2.4c-2.3.9-4,1.4-13,1.4v-2.6h0ZM41.9,181c6.1,0,7.5-.4,9.4-1l.9,2c-2.3.7-3.8,1.1-10.3,1.1v-2.2h0ZM47.2,176.3h-.6c-.5.6-1.2,1.2-2,1.7,1.9,0,3.1-.1,4-.3-.6-.5-1.1-.9-1.4-1.4Z"/>
  <path class="st2" d="M61.5,172c0,8.5-.3,10.5-2.4,14.6l-2.2-1.4c1.7-3.7,1.9-5.3,1.9-13.2h-1.5v-2.6h1.5v-2.5h2.6v2.5h4.2v13c0,3-1.3,4.2-3.9,4.2h-.6v-2.6h.6c.9,0,1.3-.4,1.3-1.6v-10.4h-1.6.1ZM73,170v15.9h-6.6v-15.9h6.6ZM70.4,183.3v-10.7h-1.4v10.7h1.4Z"/>
  <path class="st2" d="M89.6,170c-.6,1.5-2.1,3.4-3.8,4.4h5.2v2.6c-.3,1.9-1.2,3.7-3.3,4.9l-1.6-2c1.3-.8,1.9-1.9,2.3-2.9h-3.4v5.4c0,3-1.3,4.2-3.9,4.2h-1.6v-2.6h1.6c.9,0,1.3-.4,1.3-1.6v-5.4h-7.4v-2.6h6.6l-2.1-2.1,1.8-1.8,2.3,2.3c1.3-.7,2.4-1.6,3.2-2.8h-10.4v-2.6h13.2v2.6h0Z"/>
  <path class="st2" d="M103.2,166.9v1.8h5.8v13.7c0,3-1.3,4.2-3.9,4.2h-1.6v-2.6h1.6c.9,0,1.3-.4,1.3-1.6v-11.1h-3.5c-.5,3-1.3,4.2-1.3,4.2l-2-.6.3,4.7h-1.9v-.7h-.3v7.6h-2v-7.2c-.8.1-1.7.2-2.8.2v-2.6l1.2-2.1h-1.2v-2.6l2.5-4.6,2.3,1.2-1.8,3.3h1.2v2.6l-1,1.8c.7-.1,1.3-.3,1.8-.4v-1.9h1.5c.4-.9,1.3-3.5,1.3-7.5h2.6v.2h0ZM95.2,180.5c0,1.8,0,4.4-.6,5.8l-1.7-.6c.5-1.3.5-3.6.5-5.2,0,0,1.8,0,1.8,0ZM100,180.6v5h-1.8v-5h1.8ZM104.5,176.1l.6,4.7h-2.7l-.6-4.7h2.7Z"/>
  <path class="st2" d="M114.8,185c-3.2,0-3.4-1.4-3.4-4.9v-8.8h2.6v8.4c0,2.3,0,2.7.8,2.7v2.6h0ZM123,168.7v2.6h2.9v2.6h-2.9v6.3h2.4v2.6h-2.4c0,1.4-.3,3.9-3.2,3.9s-3.2-1.6-3.2-3,1-3.4,3.9-3.4v-6.3h-4.2v-2.6h4.2v-2.6h2.6-.1ZM120.6,182.6c-1,0-1.5.3-1.5.8s.2.7.7.7.8-.6.8-1.5Z"/>
  <path class="st2" d="M142.2,185.2s-1.8.7-6.5.7-5-.8-5-4.6h2.6c0,1.8.5,2,2.8,2,4.1,0,5.4-.6,5.4-.6l.7,2.5h0ZM138.3,174.6c0-1.8-.5-2-2.8-2h-3.4v-2.6h3.8c3.6,0,5,.8,5,4.6h-2.6Z"/>
  <path class="st2" d="M154.2,175.9c2.9.5,4.8,2.6,4.8,5.3s-2.6,6.6-8,5l.4-2.6c3.6,1.1,5-.5,5-2.4s-1.5-3.1-4.8-3v-4.3h-3.5v-2.6h3.5v-2.6h2.6v2.6h4.6v2.6h-4.6v2Z"/>
  <path class="st2" d="M174.7,169.1l-.2,2.6-6.2-.5.2-2.6,6.2.5ZM171.5,175.9c2.9.5,4.8,2.6,4.8,5.3s-2.6,6.6-8.1,5l.4-2.6c3.6,1.1,5-.5,5-2.4s-1.5-3.1-4.8-3v-4.6h2.6v2.3h.1Z"/>
  <path id="_パス_46526" class="st0" d="M82.1,195.8c1,0,1.4.4,1.4,1.3h1.4c0-1.4-1-2.6-2.4-2.7h-.4c-1.4-.1-2.7.9-2.8,2.3v5.6c0,1.4,1,2.6,2.4,2.7h.4c1.4.1,2.7-.9,2.8-2.3v-1.7c0-1.4-1-2.6-2.4-2.7h-.4c-.5,0-1,0-1.4.3v-1.5c0-.9.5-1.3,1.4-1.3h0ZM82.1,199.7c1,0,1.4.4,1.4,1.3v1.3c0,.9-.5,1.3-1.4,1.3s-1.4-.4-1.4-1.3v-1.3c0-.9.5-1.3,1.4-1.3ZM90.4,194.4c-1.4-.2-2.7.9-2.8,2.3v5.6c0,1.4,1,2.6,2.4,2.7h.4c1.4.1,2.7-.9,2.8-2.3v-5.6c0-1.4-1-2.6-2.4-2.7h-.4ZM91.8,202.3c0,.9-.5,1.3-1.4,1.3s-1.4-.4-1.4-1.3v-5.2c0-.9.5-1.3,1.4-1.3s1.4.4,1.4,1.3v5.2ZM101.2,199.3c0,.4,0,.6-.4.6v1.4c1.1,0,1.8-.7,1.8-2v-5.1h-1.4v5.1ZM96.6,204.9h1.4v-3.4l.4.7,1.2-.7-1.1-1.9-.5.3v-.6h1.1v-1.4h-1.1v-1.2c.4,0,.7-.2,1.1-.3v-1.4c-1.2.4-2.5.6-3.8.5v1.4h1.3v1h-1.3v1.4h.8c0,.9-.2,1.7-.8,2.4v1.9c.6-.4,1.1-.9,1.3-1.6v2.9h0ZM100.4,200c.5-.8.5-2,.5-4.1h-1.1c0,1.2,0,2.4-.4,3.6l1.1.5h0ZM102.9,199.9h1.1v-3.9h-1.1v3.9ZM99.8,204.9c2-.4,3.7-2,4.1-4l-1.3-.5c-.4,1.8-1.3,2.5-3.1,3.1l.3,1.4ZM107.3,196.2v1.4h3.5c-3,3.7-2,6.4.9,7.4l.6-1.3c-2.2-.9-2.8-2.5.4-6.3v-1.1h.2v-1.7h-.8v1.4l-4.7.2h0ZM113.2,194.5v1.7h.8v-1.7h-.8ZM119.5,194.3v1h-3.6v2.8h1.4v-1.4h5.9v1.4h1.4v-2.8h-3.6v-1h-1.5ZM118,198.9h4.5v-1.4h-4.5v1.4ZM117.8,201.1c-.3,1.1-1,2.1-1.9,2.8l1,1c1.3-.9,2.1-2.3,2.3-3.8h2v1.5c0,1.6.7,2.3,2.1,2.3h1.3v-1.4h-1.3c-.5,0-.7-.2-.7-.9v-1.5h2v-1.4h-8.7v1.4h1.9,0ZM133.3,195.9c-.9.8-2,1.3-3.1,1.6v4.9c0,.9-.2,1.1-1,1.1h-.5v1.4h.5c1.7,0,2.4-.7,2.4-2.5v-3.9c1.4-.4,2.6-1.3,3.4-2.6v-1.4h-8.7v1.4h7ZM141.8,194.5h-1.7v7.4h1.5v-7.4h.2ZM140.2,203.2v1.7h1.4v-1.7h-1.4Z"/>
</svg>