<?xml version="1.0" encoding="UTF-8"?>
<svg id="_レイヤー_1" data-name="レイヤー_1" xmlns="http://www.w3.org/2000/svg" version="1.1" viewBox="0 0 174.9 107">
  <!-- Generator: Adobe Illustrator 29.1.0, SVG Export Plug-In . SVG Version: 2.1.0 Build 142)  -->
  <defs>
    <style>
      .st0 {
        fill: #1a1a1a;
      }

      .st1 {
        fill: none;
        stroke: #1a1a1a;
      }
    </style>
  </defs>
  <path class="st0" d="M21.7,47.9h-9v1h7.3v5.7h-7.3v1h8v3h1v3.5h-1v2.9h-8.1c-.2,3.2-1.5,4.1-5.2,4.1h-1.4v-2.7h1.4c1,0,1.5-.5,1.7-1.4H1.2v-2.5h8v-1.1H.3v-2.2h9v-1.1H1.2v-2.5h8v-1H2v-5.7h7.3v-1H.3v-3.5h9v-1.7h3.5v1.7h9v3.5ZM9.2,52.3v-1.1h-3.8v1.1h3.8ZM16.5,51.2h-3.8v1.1h3.8v-1.1ZM17.3,58.1h-4.6v1.1h4.6v-1.1ZM17.3,62.4v-1.1h-4.6v1.1h4.6Z"/>
  <path class="st0" d="M44,42.8l-.4,2.4h3.8v3.5h-21.4v-3.5h3.8l-.4-2.4h3.6l.4,2.4h6.8l.4-2.4h3.6ZM25.9,69v-18.7h10.7v13.7c0,3.3-1.1,5-4.6,5v-3.5c1.1,0,1.2-.6,1.2-1.5v-1.1h-3.8v6.1h-3.5ZM29.3,52.8v2.6h3.8v-2.6h-3.8ZM29.3,57.9v2.6h3.8v-2.6h-3.8ZM41.3,50.3v12.4h-3.5v-12.4h3.5ZM43.8,50.3h3.5v13.1c0,4-1.7,5.6-5.2,5.6h-2.5v-3.5h2.5c1.2,0,1.8-.5,1.8-2.1v-13.1Z"/>
  <path class="st0" d="M63.9,50.3c0,.5,0,1-.2,1.5h9.2v3.5h-5.1c1.2.7,2.8,1.3,5.1,1.9l-1.1,3.3c-1.8-.5-3.4-1.1-4.6-1.7l.2.5c-2.6,1-4.5,1.2-10.4,1.2v-1.7c-1.3.6-2.8,1.2-4.4,1.7l-1.1-3.3c2-.5,3.6-1.2,4.9-1.9h-4.9v-3.5h8.6c.3-.5.4-1,.4-1.5h3.5ZM56.3,42.8h4.6l-3.2,4c3.9-.1,6.5-.4,8.1-.7l-.9-2.7h3.8l2.5,6.8h-3.8l-.4-1c-1.9.4-5.9,1-13.7,1v-3.5l3.1-4.1ZM53.5,65.5c11.8,0,13.6-.7,16.1-1.6l1.3,3.2c-3.1,1.2-5.3,1.9-17.3,1.9v-3.5ZM55.4,61.6c8.2,0,10-.5,12.5-1.3l1.2,2.7c-3.1,1-5.1,1.5-13.8,1.5v-2.9ZM62.5,55.2h-.7c-.7.8-1.6,1.6-2.7,2.3,2.6,0,4.1-.2,5.3-.4-.8-.6-1.4-1.2-1.9-1.9Z"/>
  <path class="st0" d="M83.1,49.5c0,11.4-.4,14-3.1,19.5l-2.9-1.9c2.2-5,2.5-7.1,2.6-17.6h-2v-3.5h2v-3.3h3.5v3.3h5.6v17.3c0,4-1.7,5.6-5.2,5.6h-.8v-3.5h.8c1.2,0,1.8-.5,1.8-2.1v-13.9h-2.1ZM98.5,46.9v21.2h-8.9v-21.2h8.9ZM95,64.6v-14.3h-1.9v14.3h1.9Z"/>
  <path class="st0" d="M122.2,46.9c-.8,2-2.8,4.6-5.1,5.9h7v3.5c-.4,2.6-1.6,4.9-4.4,6.5l-2.2-2.7c1.8-1,2.6-2.5,3-3.8h-4.5v7.2c0,4-1.7,5.6-5.2,5.6h-2.1v-3.5h2.1c1.2,0,1.8-.5,1.8-2.1v-7.2h-9.9v-3.5h8.7l-2.8-2.8,2.5-2.4,3,3c1.8-1,3.3-2.2,4.3-3.7h-13.8v-3.5h17.6v3.5Z"/>
  <path class="st0" d="M142,42.8c0,.8,0,1.6,0,2.4h7.8v18.3c0,4-1.7,5.6-5.2,5.6h-2.1v-3.5h2.1c1.2,0,1.8-.5,1.8-2.1v-14.8h-4.6c-.6,4-1.7,5.6-1.7,5.6l-2.7-.8.4,6.3h-2.6v-.9s-.4,0-.4,0v10.1h-2.7v-9.6c-1.1.2-2.3.3-3.7.3v-3.5l1.5-2.8h-1.5v-3.5l3.3-6.1,3,1.6-2.4,4.4h1.5v3.5l-1.3,2.4c.9-.2,1.7-.4,2.4-.5l-.2-2.5h2.2c.5-1.2,1.8-4.7,1.8-10h3.5ZM131.3,60.8c0,2.5,0,5.8-.8,7.7l-2.3-.8c.6-1.8.6-4.8.6-6.9h2.4ZM137.6,61.1v6.7h-2.3v-6.7h2.3ZM143.7,55.1l.8,6.2h-3.6l-.8-6.2h3.6Z"/>
  <path class="st0" d="M159.1,66.9c-4.2,0-4.5-1.8-4.5-6.6v-11.8h3.5v11.3c0,3,0,3.6,1,3.6v3.5ZM170,45.1v3.5h3.9v3.5h-3.9v8.4h3.2v3.5h-3.2c0,1.9-.4,5.2-4.3,5.2s-4.3-2.1-4.3-4,1.4-4.6,5.2-4.6v-8.4h-5.6v-3.5h5.6v-3.5h3.5ZM166.7,63.7c-1.4,0-2,.4-2,1.1s.3.9,1,.9,1-.8,1-2Z"/>
  <path class="st0" d="M45.5,105.1s-2.3.9-8.7.9-6.6-1.1-6.6-6.1h3.5c0,2.4.7,2.7,3.7,2.7,5.4,0,7.2-.8,7.2-.8l1,3.3ZM40.3,91c0-2.4-.7-2.7-3.7-2.7h-4.6v-3.5h5.1c4.8,0,6.6,1.1,6.6,6.1h-3.5Z"/>
  <path class="st0" d="M63.1,92.7c3.9.7,6.4,3.5,6.4,7s-3.5,8.8-10.7,6.7l.5-3.4c4.8,1.5,6.7-.7,6.7-3.2s-2-4.2-6.4-4v-5.8h-4.6v-3.5h4.6v-3.5h3.5v3.5h6.1v3.5h-6.1v2.7Z"/>
  <path class="st0" d="M92,83.7l-.3,3.5-8.3-.6.3-3.5,8.3.6ZM87.8,92.7c3.9.7,6.4,3.5,6.4,7s-3.5,8.8-10.8,6.7l.5-3.4c4.8,1.5,6.7-.7,6.7-3.2s-2-4.2-6.4-4v-6.1h3.5v3Z"/>
  <path class="st0" d="M110.1,89c6,0,11.5,5.7,2.6,18l-2.7-2.1c3.9-5.1,6.2-12.3.1-12.4v7.5h-3.5v-7.3c-1.4.2-2.5.4-2.5.4l-.8-3.4s1.4-.3,3.2-.5v-6.1h3.5v5.9ZM116.3,86.7l3.2-1.3,3.1,7.7-3.2,1.3-3.1-7.7Z"/>
  <path class="st0" d="M141.9,83.7l-.3,3.5-8.3-.6.3-3.5,8.3.6ZM137.7,92.7c3.9.7,6.4,3.5,6.4,7s-3.5,8.8-10.8,6.7l.5-3.4c4.8,1.5,6.7-.7,6.7-3.2s-2-4.2-6.4-4v-6.1h3.5v3Z"/>
  <line id="_線_35" data-name="線_35" class="st1" x1="164.5" y1="31.9" x2="174.5" y2="8.9"/>
  <line id="_線_1495" data-name="線_1495" class="st1" x1="10.5" y1="31.9" x2=".5" y2="8.9"/>
  <path class="st0" d="M14.6,30.6l3.2-9.1,3.2,9.1h-1.3l-.5-1.5h-2.8l-.5,1.5h-1.3ZM16.7,28h2l-1-2.9-1,2.9Z"/>
  <path class="st0" d="M24.3,30.6h-1.2v-5.4h1.2v.3c.3-.2.6-.3.9-.3.4,0,.9.1,1.2.7.4-.5.9-.7,1.3-.7.8,0,1.6.4,1.6,2.7v2.7h-1.2v-2.7c0-1.2-.1-1.5-.7-1.5s-.7.3-.7,1.5v2.7h-1.2v-2.7c0-1.2-.1-1.5-.7-1.5s-.7.3-.7,1.5v2.7Z"/>
  <path class="st0" d="M35.2,25.2h1.2v5.4h-1.2v-.2c-.4.2-.8.3-1.2.3-1.4,0-2.4-1-2.4-2.7s1-2.8,2.4-2.8.9.1,1.2.3v-.3ZM35.2,28c0-1-.4-1.6-1.2-1.6s-1.2.6-1.2,1.6.4,1.5,1.2,1.5,1.2-.6,1.2-1.5Z"/>
  <path class="st0" d="M38.8,25.2h4.5l-2.6,4.2h2.3v1.2h-4.4l2.6-4.2h-2.4v-1.2Z"/>
  <path class="st0" d="M45.5,28c0-1.8,1-2.8,2.4-2.8s2.4,1.1,2.4,2.8-1,2.7-2.4,2.7-2.4-1-2.4-2.7ZM46.7,28c0,.9.4,1.5,1.2,1.5s1.2-.6,1.2-1.5-.4-1.6-1.2-1.6-1.2.6-1.2,1.6Z"/>
  <path class="st0" d="M57,27.9v2.7h-1.2v-2.7c0-1.1-.2-1.5-1-1.5s-1,.5-1,1.5v2.7h-1.2v-5.4h1.2v.4c.3-.3.6-.4,1-.4,1.4,0,2.2.8,2.2,2.7Z"/>
  <path class="st0" d="M62.8,22.4v.6h2v1.2h-1.9v2h1.9v1.2h-1.6l.2,3.2h-1.2l-.2-3.2h-2v-1.2h1.9v-2h-1.9v-1.2h1.7v-.6s1.1,0,1.1,0ZM63.8,22.6v-1.4h.7v1.4h-.7ZM64.8,21.1h.7v1.4h-.7v-1.4Z"/>
  <path class="st0" d="M69,29.5c2-.9,2.8-2.6,2.9-5.3h-3.1v-1.2h4.3c0,4.6-1.3,6.6-3.7,7.6l-.5-1.1Z"/>
  <path class="st0" d="M78.3,22.4h1.2v2.9l2.5.6-.3,1.2-2.2-.6v4.1h-1.2v-8.2Z"/>
  <path class="st0" d="M85.5,29.9c.8-1.2,1.2-2.3,1.2-4.3v-1.4h-1.1v-1.2h1.1v-.6h1.2v.6h2.8v4.9c0,2.1-.6,2.7-2.4,2.7v-1.2c1.1,0,1.3-.4,1.3-1.3v-4h-1.6v1.4c0,2.3-.5,3.8-1.5,5l-1-.7Z"/>
  <path class="st0" d="M94.4,26h4.6v1.2h-4.6v-1.2Z"/>
  <path class="st0" d="M105.3,22.4v2.9l2.5.6-.3,1.2-2.2-.6v4.1h-1.2v-8.2h1.2ZM106.8,23.1v1.4h-.7v-1.4h.7ZM107.8,23.1v1.4h-.7v-1.4h.7Z"/>
  <path class="st0" d="M115.9,29.1l.3,1.2c-3.5,1.3-5.6-1.9-2.4-4.4-.4-.1-.8,0-1.3,0v-1.8h-1v-1.2h1v-.6h1.2v.6h1v1.2h-1v.5c.5,0,.9.2,1.2.5.3-.2.7-.3,1.1-.5l.4,1.1c-.3.1-.5.2-.7.3.1.3.2.5.3.8l-1.1.5c0-.3-.2-.5-.3-.7-2.4,1.7-.8,3.3,1.3,2.4Z"/>
  <path class="st0" d="M126.2,22.8c0,.5-.4.9-.9.9-.2,0-.4,0-.6-.2,0,4.3-1.4,6.2-3.6,7.2l-.5-1.1c2-.9,2.8-2.6,2.9-5.3h-3.1v-1.2h4c0,0,0-.2,0-.3,0-.5.4-.9,1-.9.5,0,.9.5.9,1ZM125.6,22.7c0-.2-.1-.4-.3-.4s-.4.2-.4.4.2.4.4.4c.2,0,.4-.1.4-.3Z"/>
  <path class="st0" d="M133.7,28.3c-1.3,1.8-2.8,2.2-4.5,2.3v-7.6h1.2v6.2c.9-.2,1.7-.7,2.3-1.6l1,.7Z"/>
  <path class="st0" d="M139,22.4v1.5l3.4-.7-.4,3.4h-1.2c0-.1.2-1.9.2-1.9l-2,.5v3.4c0,.8.2.9,1.3.9h1.6v1.2h-1.8c-1.6,0-2.3-.4-2.3-2.1v-3.1l-1,.2-.3-1.2,1.3-.3v-1.8h1.2ZM141.7,21.3h.7v1.4h-.7v-1.4ZM142.7,21.3h.7v1.4h-.7v-1.4Z"/>
  <path class="st0" d="M147.8,24.8l-.8.8-1.7-1.8.8-.8,1.7,1.8ZM151.2,24.9c-.7,2.8-2.5,4.6-5.1,5.7l-.6-1c2.6-1.2,3.8-2.6,4.6-5.2l1.1.5Z"/>
  <path class="st0" d="M155.5,22.4h1.2v2.9l2.5.6-.3,1.2-2.2-.6v4.1h-1.2v-8.2Z"/>
  <path class="st0" d="M56.2,10.2v2c0,2.9-2.1,4.2-4.4,4.2s-4.4-1.2-4.4-4.2h2.2c0,1.4.7,2,2.2,2s2.2-.6,2.2-2v-2c0-1.4-.7-2-2.2-2s-1.5.3-2,1h-2.2l.5-9h7.5v2.2h-5.4l-.2,4c.6-.2,1.2-.4,1.9-.4,2.3,0,4.4,1.2,4.4,4.2Z"/>
  <path class="st0" d="M68.9,4.2v8.1c0,2.9-2.1,4.2-4.4,4.2s-4.4-1.2-4.4-4.2V4.2c0-2.9,2.1-4.2,4.4-4.2s4.4,1.2,4.4,4.2ZM66.8,4.2c0-1.4-.7-2-2.2-2s-2.2.6-2.2,2v8.1c0,1.4.7,2,2.2,2s2.2-.6,2.2-2V4.2Z"/>
  <path class="st0" d="M81.7,4.2v8.1c0,2.9-2.1,4.2-4.4,4.2s-4.4-1.2-4.4-4.2V4.2c0-2.9,2.1-4.2,4.4-4.2s4.4,1.2,4.4,4.2ZM79.5,4.2c0-1.4-.7-2-2.2-2s-2.2.6-2.2,2v8.1c0,1.4.7,2,2.2,2s2.2-.6,2.2-2V4.2Z"/>
  <path class="st0" d="M94.4,4.2v8.1c0,2.9-2.1,4.2-4.4,4.2s-4.4-1.2-4.4-4.2V4.2c0-2.9,2.1-4.2,4.4-4.2s4.4,1.2,4.4,4.2ZM92.3,4.2c0-1.4-.7-2-2.2-2s-2.2.6-2.2,2v8.1c0,1.4.7,2,2.2,2s2.2-.6,2.2-2V4.2Z"/>
  <path class="st0" d="M97.4,15.8V4.6h9.4v8.8c0,1.7-.8,2.5-2.3,2.5h-.6v-1.5h.6c.5,0,.8-.2.8-.9v-2.4h-6.4v4.8h-1.5ZM98.9,6.1v3.3h2.4v-3.3h-2.4ZM102.8,6.1v3.3h2.4v-3.3h-2.4Z"/>
  <path class="st0" d="M108.6,7.8c1.3-1.1,1.9-2,2.3-3.6l1.5.4c-.4,1.9-1.4,3.3-2.7,4.3l-1-1.1ZM112.5,11.2c-.3,2.5-1.7,3.9-3,4.6l-.9-1.2c1.1-.6,2.1-1.6,2.4-3.4h-1.4v-1.5h7.9v3.6c0,1.7-.8,2.5-2.3,2.5h-1.1v-1.5h1.1c.5,0,.8-.2.8-.9v-2.1h-3.4ZM115.7,4.2c.4,1.6.9,2.5,2.3,3.6l-1,1.1c-1.3-1-2.3-2.4-2.7-4.3l1.5-.4Z"/>
  <path class="st0" d="M128.4,10.9c0,3.4-2.3,4.9-4.2,4.9v-1.5c1.3,0,2.6-1.1,2.6-3.4s-.4-2-1.5-2.3c-.3,3.1-1.7,4.1-2.9,4.1s-2.1-.4-2.4-1.6c-.5-2.3,1.7-4.1,4.5-4.1s3.7,2.4,3.7,3.9ZM123.9,8.5c-2.7.4-2.9,2.8-1.6,2.8s1.4-.7,1.6-2.8Z"/>
</svg>