<?xml version="1.0" encoding="utf-8"?>
<!-- Generator: Adobe Illustrator 15.0.0, SVG Export Plug-In . SVG Version: 6.00 Build 0)  -->
<!DOCTYPE svg PUBLIC "-//W3C//DTD SVG 1.1//EN" "http://www.w3.org/Graphics/SVG/1.1/DTD/svg11.dtd">
<svg version="1.1" id="レイヤー_1" xmlns="http://www.w3.org/2000/svg" xmlns:xlink="http://www.w3.org/1999/xlink" x="0px"
	 y="0px" width="287.84px" height="27.813px" viewBox="0 0 287.84 27.813" enable-background="new 0 0 287.84 27.813"
	 xml:space="preserve">
<path id="パス_46528" fill="#243F7E" d="M135.168,7.635v2.371c3.16,0.088,6.321-0.134,9.438-0.659l0.242,0.659h2.6l-1.697-4.699
	h-2.6l0.638,1.825c-1.837,0.269-3.688,0.423-5.544,0.463l2.222-2.772h-3.19L135.168,7.635z M140.118,10.01
	c-0.01,0.355-0.109,0.703-0.286,1.012h-5.9v2.376h3.394c-1.059,0.603-2.201,1.047-3.388,1.32l0.748,2.243
	c1.054-0.282,2.078-0.665,3.058-1.144v1.144c4.048,0,5.324-0.153,7.128-0.813l-0.154-0.374c1.025,0.491,2.093,0.89,3.19,1.188
	l0.77-2.243c-1.229-0.271-2.414-0.717-3.52-1.32h3.52v-2.376h-6.314c0.087-0.33,0.132-0.671,0.132-1.012H140.118z M142.868,14.674
	c-1.206,0.213-2.428,0.309-3.652,0.286c0.674-0.439,1.288-0.964,1.826-1.562h0.506C141.927,13.883,142.371,14.311,142.868,14.674z
	 M136.642,19.756c5.984,0,7.348-0.329,9.459-1.012l-0.857-1.848c-1.716,0.55-2.97,0.88-8.6,0.88L136.642,19.756z M135.342,22.856
	c8.294,0,9.79-0.484,11.924-1.276l-0.879-2.222c-1.717,0.638-2.949,1.122-11.045,1.122V22.856z M157.143,9.456v9.55
	c0,1.145-0.4,1.475-1.211,1.475h-0.572v2.378h0.572c2.4,0,3.586-1.122,3.586-3.851V7.084h-3.828V4.818h-2.375v2.266h-1.338V9.46
	h1.342c-0.045,7.238-0.264,8.69-1.782,12.122l2,1.276c1.848-3.806,2.112-5.588,2.155-13.4L157.143,9.456z M160.178,7.63v14.568
	h6.094V7.635L160.178,7.63z M162.578,19.818v-9.813h1.32v9.813H162.578z M182.557,5.258h-12.123v2.377h9.5
	c-0.748,1.08-1.753,1.957-2.926,2.552l-2.068-2.09l-1.693,1.672l1.893,1.914h-6.002v2.376h6.799v4.947
	c0,1.145-0.418,1.475-1.231,1.475h-1.452v2.378h1.452c2.42,0,3.608-1.122,3.608-3.851v-4.949h3.1
	c-0.32,1.109-1.063,2.049-2.068,2.618l1.5,1.848c1.676-0.909,2.806-2.574,3.032-4.466v-2.376h-4.8
	c1.549-0.958,2.763-2.372,3.477-4.048L182.557,5.258z M193.798,4.818c0.043,2.353-0.368,4.691-1.21,6.888h-1.5l0.109,1.738
	c-0.534,0.157-1.078,0.281-1.627,0.374l0.924-1.672v-2.4h-1.057l1.672-3.058l-2.084-1.122l-2.287,4.18v2.4h1.056l-1.058,1.912v2.376
	c0.854,0.005,1.707-0.055,2.552-0.177v6.601h1.825v-6.974l0.265-0.066l0.022,0.616h1.781l-0.285-4.313l1.826,0.572
	c0.646-1.2,1.05-2.516,1.188-3.872h3.189v10.184c0,1.145-0.418,1.475-1.231,1.475h-1.452v2.378h1.452
	c2.42,0,3.608-1.122,3.608-3.853V6.446h-5.351c0.022-0.506,0.044-1.056,0.044-1.628H193.798z M194.898,13.288l0.527,4.269h2.442
	l-0.528-4.269H194.898z M187.176,17.248c0.072,1.59-0.076,3.182-0.439,4.73l1.562,0.55c0.425-1.727,0.603-3.504,0.528-5.28H187.176z
	 M191.576,17.406v4.572h1.605v-4.572H191.576z M213.07,6.446v2.376h-3.85v2.376h3.85v5.742c-1.745-0.201-3.322,1.05-3.523,2.795
	c-0.014,0.116-0.021,0.233-0.021,0.351c-0.066,1.473,1.072,2.72,2.545,2.787c0.142,0.007,0.284,0.002,0.426-0.015
	c2.706,0,2.947-2.244,2.947-3.542h2.201V16.94h-2.201v-5.742h2.683V8.822h-2.681V6.446H213.07z M207.926,19.074
	c-0.699,0-0.699-0.439-0.699-2.508V8.822h-2.385v8.1c0,3.274,0.176,4.528,3.084,4.528V19.074z M212.48,20.574
	c-0.33,0.033-0.625-0.207-0.658-0.536c-0.002-0.026-0.003-0.054-0.002-0.08c0-0.506,0.418-0.748,1.363-0.748
	c-0.004,0.832-0.047,1.36-0.707,1.36L212.48,20.574z M232.893,11.836c0-3.432-1.254-4.199-4.555-4.199h-3.5v2.369h3.148
	c2.068,0,2.529,0.177,2.529,1.826L232.893,11.836z M233.441,19.272c0,0-1.209,0.55-4.949,0.55c-2.068,0-2.53-0.176-2.53-1.848
	h-2.376c0,3.454,1.275,4.224,4.555,4.224c4.355,0,5.961-0.638,5.961-0.638L233.441,19.272z M245.126,11.198h4.224V8.822h-4.224
	V6.446h-2.378v2.376h-3.189v2.376h3.189v3.96c3.014-0.154,4.4,1.012,4.4,2.729c0,1.76-1.301,3.233-4.621,2.222l-0.373,2.354
	c4.972,1.496,7.371-1.386,7.371-4.575c-0.031-2.494-1.92-4.571-4.399-4.841V11.198z M258.191,6.446l-0.176,2.376l5.7,0.418
	l0.177-2.376L258.191,6.446z M260.986,10.978h-2.377v4.18c3.015-0.154,4.4,1.012,4.4,2.729c0,1.76-1.3,3.233-4.619,2.222
	l-0.375,2.354c4.973,1.5,7.393-1.386,7.393-4.575c-0.043-2.498-1.938-4.573-4.422-4.841V10.978z"/>
<path id="パス_46527" fill="#25AA39" d="M25.37,7.414c1.65,0,2.42,0.66,2.42,2.223h2.376c0-3.257-2.288-4.601-4.8-4.601
	c-2.53,0-4.818,1.342-4.818,4.601v8.844c0,3.233,2.288,4.6,4.818,4.6c2.508,0,4.8-1.364,4.8-4.6v-2.223c0-3.233-2.288-4.6-4.8-4.6
	c-0.84-0.006-1.672,0.167-2.44,0.508V9.636C22.926,8.074,23.72,7.414,25.37,7.414z M25.37,14.036c1.65,0,2.42,0.683,2.42,2.222
	v2.223c0,1.562-0.77,2.222-2.42,2.222s-2.444-0.66-2.444-2.222v-2.223C22.926,14.719,23.72,14.036,25.37,14.036z M39.384,5.036
	c-2.53,0-4.818,1.342-4.818,4.576v8.866c0,3.233,2.288,4.6,4.818,4.6c2.508,0,4.8-1.364,4.8-4.6V9.612
	c-0.004-3.232-2.292-4.574-4.8-4.574V5.036z M41.804,18.478c0,1.54-0.77,2.222-2.42,2.222c-1.65,0-2.442-0.682-2.442-2.222V9.612
	c0-1.54,0.792-2.2,2.442-2.2c1.65,0,2.42,0.66,2.42,2.2V18.478z M57.644,13.378c0,0.683-0.132,1.034-0.7,1.034v2.374
	c1.892,0,3.08-1.122,3.08-3.41V4.818h-2.376L57.644,13.378z M49.966,22.858h2.376v-5.764l0.7,1.188l2.046-1.21l-1.892-3.19
	l-0.858,0.507V13.42h1.826v-2.376h-1.826V9.02c0.63-0.104,1.244-0.288,1.826-0.55V6.094c-2.044,0.698-4.2,1.012-6.358,0.924v2.376
	c0.792,0,1.518-0.022,2.156-0.066v1.716h-2.156v2.376h1.276c-0.088,1.849-0.418,3.146-1.276,4.026v3.278
	c1.043-0.599,1.816-1.575,2.16-2.729V22.858z M56.326,14.52c0.77-1.408,0.77-3.322,0.77-6.886H55.16c0,3.563-0.11,4.51-0.638,6.094
	L56.326,14.52z M60.616,14.3h1.936V7.635h-1.936V14.3z M55.292,22.858c3.457-0.661,6.189-3.315,6.95-6.752L60.02,15.27
	c-0.726,3.014-2.266,4.312-5.3,5.279L55.292,22.858z M68.006,8.03l0.088,2.376l5.786-0.242c-4.994,6.513-3.322,11,1.452,12.694
	l1.034-2.134c-3.718-1.452-4.8-4.225,0.7-10.714L77,8.074h0.374V5.258h-1.36v2.421L68.006,8.03z M78.016,5.258v2.816h1.386V5.258
	H78.016z M88.73,4.818v1.628h-6.16v4.752h2.376V8.822h9.966v2.376h2.4V6.446h-6.186V4.818H88.73z M86.13,12.65h7.596v-2.376h-7.59
	L86.13,12.65z M85.8,16.434c-0.484,1.929-1.628,3.627-3.234,4.8l1.72,1.624c2.137-1.516,3.566-3.834,3.96-6.424h3.322v2.571
	c0,2.729,1.188,3.851,3.608,3.851h2.134v-2.374h-2.134c-0.814,0-1.232-0.33-1.232-1.475v-2.573h3.366v-2.376H82.57v2.376H85.8z
	 M112.068,7.635c-1.528,1.301-3.334,2.234-5.28,2.728v8.294c0,1.5-0.418,1.826-1.76,1.826h-0.77v2.376h0.77
	c2.948,0,4.136-1.122,4.136-4.2V11.99c2.97-1.078,4.6-2.42,5.742-4.355V5.258H100.17v2.377H112.068z M126.326,5.258h-2.814
	l0.22,12.519h2.376L126.326,5.258z M123.726,19.998v2.86h2.376v-2.86H123.726z"/>
<line id="線_35" fill="none" stroke="#243F7E" stroke-width="2" x1="274.926" y1="27.406" x2="286.926" y2="0.406"/>
<line id="線_1495" fill="none" stroke="#243F7E" stroke-width="2" x1="11.926" y1="27.406" x2="0.926" y2="0.406"/>
</svg>
