<?xml version="1.0" encoding="utf-8"?>
<!-- Generator: Adobe Illustrator 15.0.0, SVG Export Plug-In . SVG Version: 6.00 Build 0)  -->
<!DOCTYPE svg PUBLIC "-//W3C//DTD SVG 1.1//EN" "http://www.w3.org/Graphics/SVG/1.1/DTD/svg11.dtd">
<svg version="1.1" id="レイヤー_1" xmlns="http://www.w3.org/2000/svg" xmlns:xlink="http://www.w3.org/1999/xlink" x="0px"
	 y="0px" width="276.873px" height="144.327px" viewBox="2.6 4.352 276.873 144.327"
	 enable-background="new 2.6 4.352 276.873 144.327" xml:space="preserve">
<path id="パス_322" fill="#243F7E" d="M228.152,137.822l-0.934-0.924c-3.9-5.748-9.451-10.055-15.426-13.436
	c-5.235-2.934-10.795-5.247-16.566-6.895c-11.445-3.313-24.029-4.446-35.672-1.476c-5.946,1.438-11.467,4.267-16.109,8.25
	l-1.166-0.06c-8.4-7.875-19.888-12.105-31.111-13.588c-22.673-3.447-45.319,6.388-58.276,25.311
	c-0.352,0.611-0.148,1.391,0.456,1.752l8.9,4.193c0.396,0.231,0.886,0.231,1.282,0c9.412-6.812,20.431-11.063,31.979-12.34
	c9.252-1.09,18.632-0.068,27.433,2.988c3.531,1.197,6.821,3.013,9.717,5.361c0.5,0.488,1.299,0.488,1.8,0
	c0.61-0.578,1.185-1.193,1.722-1.84c-0.328,0.428-0.04,0.051,0.046-0.037c0.126-0.13,0.248-0.264,0.381-0.389
	c0.387-0.367,0.825-0.678,1.3-0.92c3.347-1.848,7.552-1.043,10.628,0.959c0.674,0.467,1.313,0.979,1.918,1.533
	c0.592,0.563,1.446,0.755,2.223,0.5c0.432-0.263,0.85-0.547,1.25-0.853c1.76-1.147,3.615-2.142,5.545-2.972
	c4.557-1.889,9.426-2.916,14.357-3.031c6.658-0.071,13.275,1.043,19.543,3.289c10.123,3.457,19.449,9.039,28.094,15.307
	c0.606,0.35,1.381,0.145,1.736-0.459l5.154-8.677C228.639,138.867,228.556,138.236,228.152,137.822z"/>
<path id="パス_323" fill="#FFFFFF" d="M238.668,39.814c-0.098-0.995-0.366-1.966-0.793-2.87c-0.661-1.546-1.507-3.007-2.52-4.35
	c-4.299-6.158-10.418-10.83-17.02-14.247c-7.439-3.775-15.447-6.304-23.705-7.486c-8.482-1.316-17.119-1.308-25.6,0.024
	c-7.933,1.147-15.529,3.973-22.283,8.289c-1.195,0.796-2.348,1.652-3.459,2.568c-0.365-0.379-0.756-0.732-1.17-1.058
	c-1.645-1.204-3.362-2.307-5.142-3.3c-3.491-2.026-7.155-3.737-10.949-5.113c-7.306-2.633-15.021-3.948-22.787-3.884
	c-15.9,0.114-31.387,5.839-44.458,14.8c-3.355,2.203-6.527,4.672-9.485,7.384c-0.821,0.786-1.7,1.431-1.742,2.637
	c-0.027,0.711-0.024,1.423-0.022,2.134c0.008,4.458,0.206,8.916,0.406,13.369c0.608,13.577,1.448,27.143,2.219,40.712
	c0.825,14.513,1.652,29.029,2.153,43.558c0.026,0.767,0.032,1.535,0.076,2.299c0.029,0.38,0.126,0.75,0.287,1.095
	c0.032,0.212,0.125,0.411,0.268,0.571c0,0.006,0.008,0.011,0.012,0.017c-0.291-0.421-0.313-0.971-0.057-1.413
	c13.23-19.32,36.351-29.361,59.5-25.842c11.459,1.514,23.188,5.833,31.765,13.874l1.19,0.06c4.739-4.067,10.375-6.953,16.445-8.423
	c11.889-3.034,24.736-1.877,36.424,1.507c5.892,1.682,11.568,4.045,16.914,7.039c6.1,3.453,11.771,7.85,15.75,13.719l0.953,0.942
	c0.227,0.232,0.357,0.54,0.369,0.863c0.468-0.226,0.77-0.694,0.783-1.213c0.148-3.952,0.422-7.9,0.668-11.849
	c0.416-6.666,0.844-13.333,1.283-20c0.506-7.785,1.006-15.57,1.5-23.355c0.467-7.413,0.917-14.827,1.35-22.241
	c0.309-5.441,0.617-10.884,0.801-16.331C238.646,42.804,238.701,41.307,238.668,39.814z"/>
<path fill="#1A1A1A" d="M45.848,46.75c0.088,1.872,0.188,3.744,0.284,5.615h2.444c-0.163-3.149-0.317-6.3-0.453-9.451
	c-0.186-4.377-0.389-8.768-0.323-13.151c0-0.159,0.008-0.317,0.011-0.476c4.056-3.859,8.515-7.27,13.3-10.174
	c5.542-3.487,11.473-6.316,17.671-8.43c5.942-2.031,12.125-3.275,18.39-3.7c12.651-0.865,25.271,2.09,36.223,8.483
	c0.724,0.419,1.439,0.853,2.147,1.3c1.351,0.847,2.59-1.3,1.244-2.147C124.039,6.527,108.9,3.056,93.901,4.786
	c-7.449,0.854-14.735,2.786-21.628,5.738C65,13.636,58.158,17.674,51.919,22.539c-1.6,1.237-3.239,2.481-4.711,3.868
	c-0.661,0.623-1.767,1.435-1.832,2.4c-0.1,1.458-0.036,2.943-0.013,4.4C45.434,37.724,45.636,42.239,45.848,46.75z"/>
<path fill="#1A1A1A" d="M230.029,104.156c-0.564,8.712-1.158,17.426-1.639,26.143c-0.049,0.887-0.094,1.773-0.135,2.662
	c-1.186-1.423-2.242-2.966-3.531-4.32c-1.101-1.156-2.844,0.6-1.744,1.758c1.51,1.584,2.695,3.424,4.147,5.033l-4.101,6.899
	c-10.854-7.757-22.916-14.515-36.02-17.334c-8.554-1.841-17.6-1.884-25.938,1.017c-3.293,1.142-6.42,2.715-9.301,4.678
	c-0.463-0.43-0.953-0.83-1.465-1.201c-1.672-1.25-3.592-2.131-5.631-2.584c-3.636-0.762-8.101-0.1-10.718,2.801
	c-0.135,0.15-0.257,0.311-0.38,0.471c-0.013,0.01-0.024,0.016-0.048,0.035c-0.23,0.195-0.448,0.404-0.652,0.628
	c-5.953-4.694-13.8-6.981-21.143-8.077c-17.943-2.671-36.224,1.708-51.01,12.219l-7.086-3.34c7.239-9.939,17.418-17.352,29.1-21.188
	c10.663-3.331,22.019-3.775,32.909-1.285c4.968,1.093,9.776,2.812,14.311,5.114c2.054,1.051,4.032,2.242,5.922,3.566
	c0.9,0.633,1.774,1.299,2.618,2c0.806,0.674,1.825,2.032,2.877,2.164c0.872,0.195,1.775,0.195,2.647,0
	c0.641-0.4,1.229-0.882,1.748-1.432c0.609-0.5,1.242-0.973,1.891-1.422c2.486-1.719,5.18-3.117,8.014-4.165
	c6.111-2.167,12.568-3.196,19.051-3.034c13.521,0.168,26.759,3.891,38.385,10.794c1.779,1.069,3.504,2.229,5.165,3.476
	c0.589,0.34,1.343,0.141,1.687-0.446c0.327-0.595,0.133-1.341-0.443-1.7c-8.912-6.7-19.725-10.95-30.586-13.094
	c-10.4-2.053-21.521-2.324-31.73,0.863c-5.189,1.567-9.99,4.211-14.089,7.76l-1.238-0.062c-8.565-8.038-20.29-12.36-31.739-13.872
	c-13.807-1.927-27.863,0.77-39.978,7.666c-6.802,4.034-12.77,9.331-17.583,15.605c-0.22-6.424-0.51-12.846-0.831-19.264
	c-0.092-1.844-0.204-3.688-0.3-5.531h-2.446c0.054,1.022,0.114,2.044,0.167,3.066c0.337,6.6,0.65,13.2,0.892,19.807
	c0.053,1.463,0.103,2.926,0.149,4.389c0.207,0.642,0.523,1.242,0.936,1.775l9.084,4.283c0.384,0.223,0.859,0.223,1.244,0
	c9.619-6.963,20.881-11.307,32.684-12.609c9.453-1.113,19.036-0.07,28.027,3.052c3.618,1.222,6.987,3.081,9.95,5.491
	c0.485,0.471,1.258,0.471,1.743,0c0.618-0.589,1.201-1.212,1.749-1.866c-0.32,0.411-0.025,0.033,0.057-0.051
	c0.129-0.134,0.254-0.271,0.389-0.4c0.4-0.376,0.851-0.696,1.339-0.948c3.438-1.9,7.755-1.078,10.916,0.978
	c0.691,0.481,1.349,1.009,1.971,1.575c0.585,0.555,1.426,0.746,2.193,0.5c0.44-0.267,0.867-0.557,1.277-0.869
	c1.796-1.172,3.689-2.188,5.66-3.034c10.915-4.683,23.5-3.556,34.662,0.256c10.342,3.532,19.87,9.231,28.699,15.636
	c0.59,0.34,1.343,0.141,1.688-0.445l5.262-8.859c0.139-0.24,0.191-0.52,0.151-0.794c0.472-0.165,0.787-0.609,0.789-1.108
	c0.263-7.017,0.8-14.027,1.251-21.033c0.188-2.93,0.379-5.858,0.568-8.789H230.029z"/>
<path fill="#1A1A1A" d="M141.827,20.287c1.827-1.59,3.799-3.007,5.888-4.233c2.131-1.258,4.355-2.35,6.652-3.268
	c2.459-0.972,4.982-1.778,7.55-2.412c1.313-0.327,2.634-0.613,3.966-0.858c1.271-0.236,2.692-0.456,3.799-0.6
	c11.036-1.337,22.229-0.422,32.9,2.689c5.079,1.442,9.965,3.494,14.551,6.11c4.213,2.339,8.018,5.347,11.266,8.907
	c0.4,0.442,0.787,0.893,1.16,1.353c0.18,0.221,0.357,0.444,0.533,0.67l0.035,0.047l0.082,0.109l0.271,0.364
	c0.678,0.924,1.307,1.883,1.884,2.873c0.276,0.477,0.5,1.015,0.8,1.472c0.01,0.016,0.016,0.021,0.023,0.032
	c0.013,0.038,0.027,0.077,0.041,0.114l0.259,0.726c0.095,0.389,0.224,0.768,0.388,1.133v0.011c0,0.131,0.006,0.263,0.008,0.394
	c0.056,4-0.211,8.026-0.412,12.023c-0.074,1.475-0.16,2.948-0.239,4.422h2.468c0.01-0.18,0.021-0.36,0.031-0.541
	c0.257-4.793,0.539-9.593,0.609-14.393c0.016-0.608,0.021-1.23,0.01-1.85c-0.092-0.81-0.313-1.599-0.653-2.339
	c-0.823-2.034-1.942-3.935-3.321-5.642c-3.051-3.981-6.76-7.414-10.965-10.148c-4.508-2.942-9.365-5.308-14.461-7.043
	c-10.777-3.679-22.184-5.156-33.543-4.344c-5.537,0.381-11.01,1.422-16.301,3.1c-5.012,1.571-9.743,3.924-14.021,6.971
	c-1.033,0.753-2.033,1.55-3,2.392c-0.475,0.49-0.475,1.269,0,1.758C140.569,20.759,141.342,20.759,141.827,20.287z M233.91,35.553
	c-0.014-0.004-0.024-0.016-0.027-0.029l0.004,0.003C233.895,35.535,233.902,35.55,233.91,35.553z M233.873,35.361l0.004-0.001
	c-0.001,0.052,0.001,0.104,0.006,0.155C233.85,35.418,233.883,35.174,233.873,35.361z"/>
<path fill="#25AA39" d="M7.439,61.845h4.359v2.96h4.839v4.319H2.6v-4.319h4.839V61.845z M2.6,83.562V71.004h14.038v12.558h-5.079
	v4.879c0,4.159-1.92,6.199-4.839,6.199V90.32c0.76,0,0.96-0.6,0.96-1.88v-4.879H2.6z M2.6,91.2c0.68-2.96,0.68-4.319,0.68-6.039
	h3.399c0,2.199,0.04,3.8-0.88,7.239L2.6,91.2z M6.959,75.323v3.879h5.359v-3.879H6.959z M13.438,91.76
	c-0.919-2.799-0.879-4.399-0.879-6.599h3.399c0,1.72,0,3.079,0.68,5.399L13.438,91.76z M27.195,87.641c0,2.08,0.76,2.68,2.2,2.68
	v4.319c-4.359,0-6.519-2.04-6.519-6.999v-2.119c-0.76,3.479-1.839,6.358-3.479,9.118l-4-1.6c3.439-5.959,4.319-11.479,4.559-21.757
	h-2.12v-4.319h2.16c0-1.6,0.04-3.279,0.04-5.119h4.319c0,1.8-0.04,3.52-0.04,5.119h2.08l-0.72-4.319h2.6l0.72,4.319h0.32v4.319
	h-5.079c-0.04,1.76-0.12,3.359-0.2,4.92h3.159V87.641z"/>
<path fill="#25AA39" d="M42.318,69.164l-1.72,3.959l-5.999-2.6l1.72-3.959L42.318,69.164z M42.318,76.442l-1.72,3.96l-5.999-2.56
	l1.72-3.96L42.318,76.442z M42.798,82.042c0,3.999-0.64,7.078-4.479,11.397l-3.719-2.199c3.319-3.999,3.879-6.439,3.879-9.198
	H42.798z M43.958,63.045c10.118,0,17.437-1.2,17.437-1.2v4.319c0,0-2.439,0.4-6.559,0.76v3.76h6.559v4.319h-6.559v3.64h6.559V94.64
	H43.958V78.643h6.559v-3.64h-6.559v-4.319h6.559v-3.479c-1.96,0.08-4.2,0.16-6.559,0.16V63.045z M57.075,82.962h-8.798v7.358h8.798
	V82.962z"/>
<path fill="#25AA39" d="M81.076,78.202c10.478,1.12,11.478,16.438-0.96,16.438V90.32c6.479,0,5.799-7.719,0.96-7.879
	c0,2.319-0.4,6.439-5.359,6.439c-3.959,0-5.399-2.68-5.399-5.039c0-2.56,1.72-5.72,6.439-5.72v-6.839h-6.519v-4.319h6.519v-2.159
	h4.319v2.159h6.519v4.319h-6.519V78.202z M76.997,82.201c-1.72,0-2.52,0.44-2.52,1.36c0,0.56,0.32,1.16,1.24,1.16
	C76.917,84.722,76.997,83.762,76.997,82.201z M86.635,72.363h4.319v5.879h-4.319V72.363z"/>
<path fill="#25AA39" d="M121.875,69.284c0,2.079,0.32,2.719,2.72,2.719v4.319c-4.879,0-7.039-2.039-7.039-7.038v-2.32h-4.439
	c-0.28,4.12-1.24,7.359-4.359,10.198l-2.56-1.64c-0.4,1.48-1,2.92-1.8,4.319h1.28V94.64h-4.319V83.802
	c-1.04,1.039-2.24,1.959-3.56,2.719v-5.959c1.88-1.119,3.199-3.239,3.919-5.318c-1.04,1.079-2.36,2.079-3.919,2.959v-5.959
	c2.72-1.6,3.56-4.439,3.56-7.238h4.319c0,2.119-0.4,4.279-1.28,6.318h2.4c0,0.561-0.04,1.12-0.12,1.72
	c1.959-2.68,2.24-5.519,2.24-10.398h12.958V69.284z M123.794,81.882c0,2.199-1,4.999-3.319,7.398c1.36,0.521,2.719,0.88,4.119,1.12
	l-0.8,4.239c-2.76-0.48-5.199-1.28-7.399-2.319c-2.239,1.199-5.119,2.039-8.638,2.319l-0.56-4.279c1.76-0.2,3.279-0.52,4.559-0.92
	c-1.36-1.12-2.52-2.279-3.479-3.52l3.2-2.919c1.439,1.72,3.08,3.079,4.799,4.199c2.639-1.96,3.199-4.279,3.199-5.319h-11.558v-4.319
	h15.877V81.882z"/>
<path fill="#25AA39" d="M151.834,69.124V90.32h4.76v4.319h-26.796V90.32h17.717V69.124h-16.357v-4.319h9.878v-2.96h4.319v2.96h9.838
	v4.319H151.834z M134.557,71.684h4.319v16.037h-4.319V71.684z"/>
<path fill="#25AA39" d="M175.556,76.803c4.879,0.88,7.999,4.359,7.999,8.799c0,5.799-4.359,11.038-13.398,8.318l0.68-4.279
	c6.039,1.84,8.398-0.84,8.398-4.039c0-3.12-2.52-5.239-7.998-4.96v-7.198h-5.799v-4.319h5.799v-4.319h4.319v4.319h7.679v4.319
	h-7.679V76.803z"/>
<path fill="#25AA39" d="M215.994,67.764h-1.801c-0.159,15.998-4.799,23.356-13.237,26.796l-1.8-3.919
	c7.318-3.399,10.078-9.559,10.639-19.438h-11.198v-4.319h14.917v-4.239h2.48V67.764z M219.633,62.645v5.119h-2.479v-5.119H219.633z"
	/>
<path fill="#25AA39" d="M245.953,66.964V94.64h-17.517V66.964H245.953z M241.635,90.32V71.283h-8.879V90.32H241.635z"/>
<path fill="#25AA39" d="M267.875,64.805c0,0.72,0,1.439-0.039,2.159h9.158v11.679c0,9.638-5.199,14.277-10.998,15.997l-1.801-3.919
	c5.6-1.84,8.479-5.159,8.479-12.078v-7.359h-5.358c-0.68,3.68-1.999,6.959-4.159,9.679l-3.479-2.52
	c2.839-3.72,3.88-8.238,3.88-13.638H267.875z M273.354,65.364v-5.119h2.479v5.119H273.354z M276.994,60.245h2.479v5.119h-2.479
	V60.245z"/>
<path id="パス_46526" fill="#243F7E" d="M111.031,48.188v-5.562h1.692c2.276,0.103,4.204-1.659,4.307-3.934
	c0.007-0.165,0.005-0.33-0.007-0.494c0.168-2.264-1.532-4.235-3.796-4.403c-0.167-0.013-0.336-0.015-0.504-0.006h-3.636v14.4
	H111.031z M112.723,35.732c1.235-0.071,2.295,0.873,2.366,2.108c0.007,0.12,0.004,0.24-0.008,0.36
	c0.133,1.233-0.758,2.341-1.992,2.474c-0.122,0.013-0.244,0.017-0.366,0.01h-1.692v-4.95L112.723,35.732z M123.109,48.188v-14.4
	h-1.944v14.4H123.109z M131.551,48.368c2.052,0,3.924-1.116,3.924-3.762v-1.044h-1.944v1.044c0,1.278-0.63,1.818-1.98,1.818
	c-1.35,0-2-0.54-2-1.818V37.37c0-1.278,0.648-1.818,2-1.818c1.352,0,1.98,0.54,1.98,1.818v1.044h1.944V37.37
	c0-2.646-1.872-3.762-3.924-3.762c-2.07,0-3.942,1.116-3.942,3.762v7.236C127.609,47.252,129.481,48.368,131.551,48.368z
	 M141.019,48.188V41.78l3.942,6.408h2.268l-4.41-7.2l4.41-7.2h-2.268l-3.942,6.412v-6.408h-1.944v14.4L141.019,48.188z
	 M155.869,44.606c0,2.646,1.872,3.762,3.941,3.762c2.053,0,3.924-1.116,3.924-3.762V33.788h-1.943v10.818
	c0,1.278-0.63,1.818-1.98,1.818c-1.35,0-2-0.54-2-1.818V33.788h-1.941V44.606z M169.279,48.188v-5.562h1.691
	c2.276,0.103,4.205-1.659,4.308-3.934c0.007-0.165,0.005-0.33-0.007-0.494c0.168-2.264-1.532-4.235-3.797-4.403
	c-0.168-0.013-0.336-0.015-0.504-0.006h-3.636v14.4H169.279z M170.971,35.732c1.236-0.071,2.295,0.873,2.367,2.108
	c0.006,0.12,0.004,0.24-0.009,0.36c0.134,1.233-0.759,2.341-1.991,2.474c-0.122,0.013-0.244,0.017-0.367,0.01h-1.691v-4.95
	L170.971,35.732z"/>
</svg>
