<?xml version="1.0" encoding="utf-8"?>
<!-- Generator: Adobe Illustrator 15.0.0, SVG Export Plug-In . SVG Version: 6.00 Build 0)  -->
<!DOCTYPE svg PUBLIC "-//W3C//DTD SVG 1.1//EN" "http://www.w3.org/Graphics/SVG/1.1/DTD/svg11.dtd">
<svg version="1.1" id="レイヤー_1" xmlns="http://www.w3.org/2000/svg" xmlns:xlink="http://www.w3.org/1999/xlink" x="0px"
	 y="0px" width="388.275px" height="97.76px" viewBox="0 0 388.275 97.76" enable-background="new 0 0 388.275 97.76"
	 xml:space="preserve">
<path fill="#243F7E" d="M362.052,97.76c-12.734,0-26.342-6.61-26.342-25.162V67.26h13.744v5.338c0,7.896,3.886,11.418,12.6,11.418
	c8.631,0,12.48-3.521,12.48-11.418v-5.546c0-7.921-3.732-11.3-12.48-11.3h-7.58V42.01h7.58c8.631,0,12.48-3.521,12.48-11.418v-5.548
	c0-7.92-3.732-11.3-12.48-11.3c-8.714,0-12.6,3.485-12.6,11.3v4.866H335.71v-4.866C335.71,6.579,349.318,0,362.052,0
	c12.678,0,26.224,6.579,26.224,25.044v5.546c0,7.564-2.406,13.873-6.965,18.285c4.56,4.291,6.965,10.562,6.965,18.177v5.546
	C388.276,91.15,374.73,97.76,362.052,97.76z M336.71,68.26v4.338c0,17.814,13.091,24.162,25.342,24.162
	c12.194,0,25.224-6.348,25.224-24.162v-5.546c0-7.543-2.432-13.697-7.032-17.799l-0.412-0.368l0.407-0.374
	c4.604-4.231,7.037-10.428,7.037-17.922v-5.546C387.276,7.317,374.246,1,362.052,1c-12.251,0-25.342,6.316-25.342,24.044v3.866
	h11.744v-3.866c0-8.392,4.321-12.3,13.6-12.3c9.197,0,13.48,3.908,13.48,12.3v5.548c0,8.472-4.283,12.418-13.48,12.418h-6.58v11.742
	h6.58c9.197,0,13.48,3.908,13.48,12.3v5.546c0,8.472-4.283,12.418-13.48,12.418c-9.278,0-13.6-3.946-13.6-12.418V68.26H336.71z
	 M87.936,97.76c-15.825,0-26.458-11.819-26.46-29.41c0-18.654,10.386-30.708,26.46-30.708c16.002,0,26.342,12.054,26.342,30.708
	C114.278,85.941,103.692,97.76,87.936,97.76z M87.936,38.642c-15.466,0-25.46,11.661-25.46,29.708
	c0.002,16.993,10.233,28.41,25.46,28.41c15.158,0,25.342-11.417,25.342-28.41C113.278,50.303,103.33,38.642,87.936,38.642z
	 M277.71,96.58h-5.692c-18.745,0-21.149-13.321-21.149-24.927V51.386h-6.845V37.642h6.845V13.924h13.741v23.718h13.101l0.002,13.744
	h-13.101v18.38c0,9.646,1.119,13.07,7.406,13.07h5.692V96.58z M245.024,50.386h6.845v21.268c0,11.832,2.394,23.927,20.149,23.927
	h4.692V83.836h-4.692c-7.821,0-8.406-5.571-8.406-14.07v-19.38h13.101l-0.002-11.744H263.61V14.924h-11.741v23.718h-6.845V50.386z
	 M221.424,96.58h-13.862V67.17c0-11.801-2.583-15.784-10.237-15.784c-7.743,0-10.356,3.983-10.356,15.784v29.41h-13.744V37.642
	h13.744v3.439c2.839-2.228,6.341-3.444,9.974-3.444l0.395,0.005c15.979,0,24.088,9.935,24.088,29.528V96.58z M208.562,95.58h11.862
	V67.17c0-18.93-7.771-28.528-23.1-28.528l-0.383-0.005c-3.75,0-7.351,1.381-10.139,3.888l-0.834,0.75v-4.634h-11.744V95.58h11.744
	V67.17c0-10.63,1.858-16.784,11.356-16.784c9.398,0,11.237,6.154,11.237,16.784V95.58z M150.624,96.58H136.88V37.642h13.744V96.58z
	 M137.88,95.58h11.744V38.642H137.88V95.58z M13.744,96.58H0V1.18h24.336c17.167,0,28.7,11.819,28.7,29.41
	c0,17.662-11.534,29.528-28.7,29.528H13.744V96.58z M1,95.58h11.744V59.118h11.592c16.568,0,27.7-11.465,27.7-28.528
	c0-16.993-11.132-28.41-27.7-28.41H1V95.58z M87.936,85.016c-8.46,0-13.716-6.386-13.716-16.666
	c0.002-11.415,5.001-17.963,13.717-17.964l0,0c8.516,0.001,13.6,6.716,13.6,17.964C101.536,78.63,96.325,85.016,87.936,85.016z
	 M87.937,51.386c-8.08,0.001-12.715,6.184-12.717,16.964c0,9.663,4.873,15.666,12.716,15.666c7.772,0,12.601-6.003,12.601-15.666
	C100.536,57.57,95.944,51.387,87.937,51.386L87.937,51.386z M24.336,47.374H12.744v-33.45h11.592
	c9.843,0,15.958,6.386,15.958,16.666C40.294,40.943,34.179,47.374,24.336,47.374z M13.744,46.374h10.592
	c9.227,0,14.958-6.048,14.958-15.784c0-9.663-5.731-15.666-14.958-15.666H13.744V46.374z M150.624,30.618H136.88V13.924h13.744
	V30.618z M137.88,29.618h11.744V14.924H137.88V29.618z"/>
</svg>
