<?xml version="1.0" encoding="utf-8"?>
<!-- Generator: Adobe Illustrator 15.0.0, SVG Export Plug-In . SVG Version: 6.00 Build 0)  -->
<!DOCTYPE svg PUBLIC "-//W3C//DTD SVG 1.1//EN" "http://www.w3.org/Graphics/SVG/1.1/DTD/svg11.dtd">
<svg version="1.1" id="レイヤー_1" xmlns="http://www.w3.org/2000/svg" xmlns:xlink="http://www.w3.org/1999/xlink" x="0px"
	 y="0px" width="382.417px" height="152.96px" viewBox="0 0 382.417 152.96" enable-background="new 0 0 382.417 152.96"
	 xml:space="preserve">
<path fill="#243F7E" d="M28.68,149.419c0,0-4.38,1.74-16.259,1.74c-8.939,0-12.419-2.101-12.419-11.52h6.479
	c0,4.561,1.26,5.039,6.9,5.039c10.2,0,13.5-1.499,13.5-1.499L28.68,149.419z M18.901,122.901c0-4.5-1.26-4.979-6.9-4.979h-8.58
	v-6.479h9.54c9,0,12.419,2.101,12.419,11.46L18.901,122.901L18.901,122.901z"/>
<path fill="#243F7E" d="M75.48,149.419c0,0-4.38,1.74-16.259,1.74c-8.939,0-12.419-2.101-12.419-11.52h6.479
	c0,4.561,1.26,5.039,6.9,5.039c10.2,0,13.5-1.499,13.5-1.499L75.48,149.419z M65.701,122.901c0-4.5-1.26-4.979-6.9-4.979h-8.58
	v-6.479h9.54c9,0,12.419,2.101,12.419,11.46L65.701,122.901L65.701,122.901z"/>
<path fill="#243F7E" d="M103.141,119.3c11.339,0.182,21.479,10.621,4.86,33.66l-5.1-3.961c7.26-9.658,11.699-22.979,0.24-23.219
	v14.1h-6.479v-13.619c-2.64,0.359-4.62,0.779-4.62,0.779l-1.44-6.358c0,0,2.58-0.54,6.06-0.961v-11.521h6.479V119.3L103.141,119.3z
	 M112.98,114.981l6-2.399l5.76,14.459l-6.06,2.399L112.98,114.981z M120.36,113.841v-7.68h3.78v7.68H120.36z M125.579,113.841v-7.68
	h3.78v7.68H125.579z"/>
<path fill="#243F7E" d="M135.541,145.22c3.9-5.34,5.04-9.061,5.04-15.18h6.479c0,8.279-1.38,12.539-5.88,18.299L135.541,145.22z
	 M167.82,121.102h-10.379v19.317c0,9-0.48,12.42-9.12,12.42v-6.479c2.64,0,2.64-1.199,2.64-6.84v-18.419h-10.379v-6.54h10.379
	v-6.479h6.48v6.479h10.379V121.102z M170.04,107.361c-0.12,2.76-2.46,4.86-5.22,4.801c-2.76-0.061-4.98-2.399-4.86-5.16
	c0.12-2.819,2.46-4.979,5.22-4.859C167.94,102.262,170.16,104.542,170.04,107.361z M161.04,131.3l6.36-1.26l3.42,17.039l-6.3,1.32
	L161.04,131.3z M166.98,107.242c0-1.08-0.84-1.979-1.92-2.039c-1.08-0.062-1.92,0.778-1.98,1.858c-0.06,1.08,0.78,1.979,1.86,2.04
	S166.98,108.321,166.98,107.242z"/>
<path fill="#243F7E" d="M199.322,125.901c-3.301,1.979-6.66,3.419-11.161,4.739l-1.86-6.18c9.24-2.82,17.64-9.119,22.74-16.26
	l5.221,3.779c-2.34,2.939-5.279,6.3-8.461,9.12v31.858h-6.479V125.901L199.322,125.901z"/>
<path fill="#243F7E" d="M246.06,121.102l-4.619,4.56l-9.301-9.72l4.619-4.5L246.06,121.102z M264.72,121.701
	c-4.02,15.539-13.561,25.319-27.719,31.26l-3.301-5.58c14.398-6.601,20.52-14.34,25.08-28.198L264.72,121.701z"/>
<path fill="#243F7E" d="M288.121,108.201h6.479v15.6l13.682,3.541l-1.621,6.3l-12.061-3.12v22.439h-6.479V108.201z"/>
<path fill="#243F7E" d="M344.64,139.101h-6.479l-0.602-34.139h7.68L344.64,139.101z M344.64,145.16v7.801h-6.479v-7.801H344.64z"/>
<path id="パス_5" fill="#186BCC" d="M264.699,0.29c-30.908-1.858-44.674,5.816-85.221,5.816c-0.601,0-1.2-0.006-1.807-0.01
	c-0.605-0.004-1.2,0.01-1.807,0.01c-40.545,0-54.313-7.674-85.22-5.816C68.462,1.623,52.402,13.176,52.402,33.628
	c0,18.692,11.493,32.487,40.8,33.263c34.367,0.91,44.446-4.76,74.817-5.789c1.788,0.617,3.483,1.477,5.037,2.555
	c4.964,3.432,8.452,10.431,10.079,15.722c-0.878-5.381-1.532-10.827,0.97-15.615c0.465-1.248,1.457-2.228,2.711-2.677
	c30.758,0.984,40.766,6.719,75.319,5.8c29.311-0.776,40.799-14.571,40.799-33.263C302.941,13.176,286.88,1.623,264.699,0.29z"/>
<path fill="#FFFFFF" d="M80.272,27.826l5.356,2.549l-1.222,2.521l-1.898-0.91c0.234,1.118,0.416,2.574,0.416,4.265
	c0,5.642-2.626,7.67-5.512,7.67c-2.86,0-6.162-0.598-6.162-6.058c0-3.952,1.222-7.463,1.924-9.127h-2.73v-2.808h5.798v2.808
	c0,0-2.184,4.16-2.184,9.127c0,2.626,1.43,3.25,3.354,3.25c1.638,0,2.704-1.95,2.704-4.862c0-3.796-1.066-5.902-1.066-5.902
	L80.272,27.826z"/>
<path fill="#FFFFFF" d="M99.668,27.332v2.809h3.276v2.809h-3.276v3.978h1.664v2.809h-1.664c0,1.534-0.286,4.186-3.484,4.186
	c-2.6,0-3.51-1.716-3.51-3.276c0-1.638,1.118-3.718,4.186-3.718v-9.595h2.808V27.332z M97.016,39.605
	c-1.144,0-1.638,0.285-1.638,0.884c0,0.338,0.208,0.728,0.78,0.728C96.938,41.217,97.016,40.593,97.016,39.605z"/>
<path fill="#FFFFFF" d="M119.532,43.921l-2.21-1.742c3.172-4.212,5.096-10.062,0-10.062c-2.21,0-3.328,0.571-3.328,0.571l-1.066-2.6
	c0,0,1.768-0.78,4.394-0.78C122.262,29.309,126.787,33.858,119.532,43.921z M121.586,24.992l-0.208,2.809l-6.734-0.494l0.208-2.782
	L121.586,24.992z"/>
<path fill="#FFFFFF" d="M135.21,38.175c0,1.95,0.546,2.158,2.99,2.158c4.42,0,5.85-0.65,5.85-0.65l0.78,2.704
	c0,0-1.924,0.754-7.046,0.754c-3.875,0-5.382-0.909-5.382-4.966H135.21z M133.884,28.736v-2.808h4.134c1.43,0,2.548,0.13,3.38,0.494
	v-2.704h1.612v3.354h-0.65c0.728,0.754,1.04,1.977,1.04,3.849h-2.808c0-1.977-0.546-2.185-2.99-2.185H133.884z M143.79,27.072
	v-3.354h1.612v3.354H143.79z"/>
<path fill="#FFFFFF" d="M153.358,22.601h2.834v1.924h3.146v2.808h-9.126v-2.808h3.146V22.601L153.358,22.601z M150.212,36.719
	v-8.164h9.126v8.164h-3.302v3.172c0,2.704-1.248,4.03-3.146,4.03v-2.808c0.494,0,0.624-0.391,0.624-1.223v-3.172L150.212,36.719
	L150.212,36.719z M150.212,41.686c0.442-1.925,0.442-2.809,0.442-3.927h2.21c0,1.431,0.026,2.47-0.572,4.706L150.212,41.686z
	 M153.046,31.362v2.522h3.484v-2.522H153.046z M157.258,42.049c-0.598-1.82-0.572-2.859-0.572-4.29h2.21
	c0,1.118,0,2.002,0.442,3.511L157.258,42.049z M166.203,39.371c0,1.352,0.494,1.742,1.43,1.742v2.808
	c-2.834,0-4.238-1.326-4.238-4.55v-1.378c-0.494,2.262-1.196,4.134-2.262,5.928l-2.6-1.04c2.236-3.874,2.808-7.462,2.964-14.145
	h-1.378v-2.808h1.404c0-1.04,0.026-2.132,0.026-3.328h2.808c0,1.17-0.026,2.288-0.026,3.328h1.352l-0.468-2.809h1.69l0.468,2.809
	h0.208v2.808h-3.302c-0.026,1.145-0.078,2.185-0.13,3.198h2.054V39.371L166.203,39.371z"/>
<path fill="#FFFFFF" d="M186.872,22.601v8.112h1.561v2.808h-1.561c0,1.769,0.052,3.38,0.338,5.122
	c0.234-0.208,0.469-0.468,0.701-0.728l0.521,2.496c-0.234,0.233-0.443,0.442-0.677,0.649c0.183,0.625,0.416,1.301,0.677,2.003
	l-2.496,0.857c-0.156-0.39-0.287-0.806-0.416-1.17c-0.885,0.521-1.82,0.91-2.834,1.17l-0.416-1.612h-4.682V34.56h6.084v6.423
	c0.416-0.156,0.832-0.339,1.223-0.572c-0.494-2.393-0.547-4.603-0.547-6.891h-7.28v-2.808h0.78v-3.381h-0.78v-1.403h-0.468V43.92
	h-2.028v-1.872c-0.729,0.234-1.898,0.469-3.563,0.469v-2.809h0.52v-13.78h-0.52V23.12h6.11v1.404h2.054V22.6h2.808v1.924h2.08v2.808
	h-0.779v3.381h1.3v-8.112H186.872z M174.574,28.658v-2.729h-1.014v2.729H174.574z M174.574,34.171v-2.704h-1.014v2.704H174.574z
	 M174.574,36.979h-1.014v2.496c0.39-0.078,0.728-0.182,1.014-0.26V36.979z M181.49,37.915v-1.326h-1.716v1.326H181.49z
	 M181.49,40.281v-1.326h-1.716v1.326H181.49z M181.256,30.713v-3.381h-1.378v3.381H181.256z M187.185,24.811h1.014l0.233,4.732
	h-1.015L187.185,24.811z"/>
<path fill="#FFFFFF" d="M195.66,34.795v-6.059h-2.34v-2.808h2.34v-1.404h2.809v1.404h3.563v-1.404h2.834v1.404h2.313v2.808h-2.313
	v4.784c0,6.267-3.406,9.282-7.15,10.4l-1.195-2.548c3.641-1.196,5.514-3.354,5.514-7.853v-4.784h-3.564v6.059L195.66,34.795
	L195.66,34.795z"/>
<path fill="#FFFFFF" d="M214.484,41.217l0.648-2.729l11.492,2.704l-0.65,2.729L214.484,41.217z M216.408,25.148l8.943,2.106
	l-0.648,2.729l-8.945-2.105L216.408,25.148z M216.121,34.795l0.65-2.756l8.217,1.949l-0.65,2.73L216.121,34.795z"/>
<path fill="#FFFFFF" d="M238.429,28.034v5.175h-2.807v-5.175H238.429z M238.091,41.919c4.707-4.056,5.486-7.67,5.695-10.765h2.781
	c0,4.187-1.924,8.736-6.5,12.767L238.091,41.919z M242.304,33.209h-2.809v-5.175h2.809V33.209z"/>
<path fill="#FFFFFF" d="M258.294,24.524h2.807v6.761l5.93,1.533l-0.703,2.73l-5.227-1.352v9.724h-2.807V24.524z"/>
<path fill="#FFFFFF" d="M277.169,42.257c-3.432,0-3.641-1.481-3.641-5.356v-9.568h2.809v9.152c0,2.444,0,2.965,0.832,2.965V42.257z
	 M286.062,24.524v2.808h3.172v2.809h-3.172v6.786h2.6v2.809h-2.6c0,1.534-0.287,4.186-3.484,4.186c-2.6,0-3.51-1.716-3.51-3.276
	c0-1.638,1.115-3.718,4.186-3.718v-6.786h-4.551v-2.809h4.551v-2.808L286.062,24.524L286.062,24.524z M283.384,39.605
	c-1.119,0-1.613,0.285-1.613,0.884c0,0.338,0.209,0.728,0.781,0.728C283.332,41.217,283.384,40.593,283.384,39.605z"/>
<path id="パス_73" fill="#243F7E" d="M367.568,86.966c-3.559,2.9-7.563,5.234-11.301,7.894c-0.432,0.269-0.576,0.826-0.334,1.271
	c0.264,0.439,0.828,0.589,1.271,0.334c3.867-2.754,7.99-5.178,11.674-8.184c0.359-0.365,0.359-0.949,0-1.314
	c-0.367-0.352-0.945-0.352-1.313,0H367.568z"/>
<path id="パス_74" fill="#243F7E" d="M370.669,97.684c-3.934,1.358-8.184,1.608-12.119,2.967c-1.123,0.39-0.641,2.185,0.494,1.793
	c3.938-1.358,8.186-1.608,12.119-2.969C372.287,99.087,371.804,97.291,370.669,97.684z"/>
<path id="パス_75" fill="#243F7E" d="M371.449,106.833c-3.629-0.006-7.254,0.22-10.855,0.674
	c-0.506,0.017-0.912,0.423-0.928,0.929c0.002,0.513,0.416,0.927,0.928,0.931c3.602-0.455,7.227-0.681,10.855-0.675
	c0.512,0,0.928-0.416,0.928-0.93C372.376,107.25,371.96,106.833,371.449,106.833z"/>
<path id="パス_76" fill="#243F7E" d="M357.082,82.908c-1.826,2.272-3.529,4.643-5.1,7.1c-0.254,0.443-0.105,1.011,0.334,1.271
	c0.443,0.248,1.004,0.102,1.27-0.333c1.482-2.325,3.088-4.567,4.813-6.72c0.35-0.368,0.35-0.945,0-1.313
	c-0.365-0.358-0.949-0.358-1.314,0L357.082,82.908z"/>
<path id="パス_77" fill="#243F7E" d="M371.884,86.057c0.168-0.142,0.34-0.281,0.514-0.416l0.133-0.101
	c0.043-0.035,0.254-0.213,0.047-0.039c0.1-0.082,0.201-0.155,0.307-0.231c0.525-0.399,1.059-0.793,1.594-1.179
	c0.922-0.666,1.848-1.34,2.818-1.93c0.428-0.285,0.541-0.863,0.256-1.289c-0.262-0.391-0.773-0.523-1.191-0.312
	c-0.994,0.601-1.941,1.293-2.881,1.974c-0.986,0.713-1.98,1.428-2.906,2.217c-0.361,0.365-0.361,0.951,0,1.313
	c0.367,0.353,0.945,0.353,1.313,0v-0.008H371.884z"/>
<path id="パス_78" fill="#243F7E" d="M374.341,98.083c2.494-0.559,4.979-1.209,7.424-1.946c0.49-0.153,0.764-0.677,0.609-1.166
	c-0.145-0.466-0.627-0.738-1.102-0.625c-2.447,0.737-4.934,1.389-7.428,1.946c-0.492,0.137-0.783,0.647-0.646,1.144
	C373.333,97.93,373.845,98.221,374.341,98.083L374.341,98.083z"/>
<path id="パス_79" fill="#243F7E" d="M374.972,108.473c1.59,0.051,3.178,0.063,4.766,0.041c0.514,0,0.93-0.416,0.93-0.929
	c0-0.514-0.416-0.93-0.93-0.93l0,0c-1.588,0.022-3.176,0.008-4.766-0.042c-0.51,0.003-0.924,0.417-0.928,0.929
	C374.054,108.052,374.464,108.462,374.972,108.473z"/>
<path id="パス_80" fill="#243F7E" d="M360.912,80.595c0.107-0.165,0.223-0.325,0.344-0.48l-0.145,0.188
	c0.398-0.517,0.848-1,1.248-1.517c0.166-0.18,0.262-0.412,0.271-0.656c0-0.514-0.416-0.93-0.93-0.93l0,0
	c-0.246-0.004-0.484,0.096-0.656,0.272c-0.57,0.733-1.232,1.399-1.738,2.184c-0.283,0.427-0.17,1.003,0.256,1.289
	c0.428,0.286,1.004,0.173,1.289-0.254c0.021-0.03,0.039-0.063,0.057-0.096L360.912,80.595L360.912,80.595z"/>
<path id="パス_81" fill="#243F7E" d="M350.402,77.083c-1.475,2.939-2.74,5.951-3.969,9c-0.133,0.494,0.156,1.002,0.648,1.144
	c0.494,0.123,0.996-0.162,1.143-0.649c1.17-2.899,2.379-5.756,3.779-8.555c0.246-0.443,0.1-1.004-0.334-1.271
	C351.228,76.498,350.662,76.646,350.402,77.083L350.402,77.083z"/>
<circle id="楕円形_150" fill="#243F7E" cx="15.402" cy="93" r="3"/>
<circle id="楕円形_151" fill="#243F7E" cx="64.402" cy="93" r="3"/>
</svg>
