<?xml version="1.0" encoding="UTF-8"?>
<svg id="_レイヤー_1" data-name="レイヤー_1" xmlns="http://www.w3.org/2000/svg" version="1.1" viewBox="0 0 364.3 71.4">
  <!-- Generator: Adobe Illustrator 29.1.0, SVG Export Plug-In . SVG Version: 2.1.0 Build 142)  -->
  <defs>
    <style>
      .st0 {
        fill: #1a1a1a;
      }

      .st1 {
        fill: #fab700;
      }
    </style>
  </defs>
  <path class="st0" d="M23.3,15.4c0,.9-.1,1.9-.4,2.8h17.2v6.5h-9.6c2.2,1.3,5.2,2.5,9.6,3.6l-2.1,6.1c-3.4-1-6.3-2-8.7-3.2l.4,1c-4.9,1.8-8.4,2.2-19.4,2.2v-3.1c-2.5,1.2-5.2,2.3-8.3,3.1L0,28.2c3.7-.9,6.8-2.2,9.2-3.6H0v-6.5h16.1c.5-1,.8-1.9.8-2.8h6.5ZM9.1,1.2h8.7l-6.1,7.6c7.3-.2,12.1-.8,15.1-1.3l-1.7-5h7.1l4.6,12.8h-7.1l-.7-1.8c-3.5.7-11,1.8-25.7,1.8v-6.5L9.1,1.2ZM3.8,43.9c22.1,0,25.4-1.3,30.1-3.1l2.4,6.1c-5.8,2.2-9.9,3.5-32.5,3.5,0,0,0-6.5,0-6.5ZM7.4,36.5c15.4,0,18.8-.9,23.5-2.4l2.3,5c-5.8,1.9-9.5,2.8-25.8,2.8,0,0,0-5.4,0-5.4ZM20.8,24.6h-1.4c-1.3,1.5-3,2.9-5,4.3,4.9,0,7.7-.3,10-.8-1.5-1.1-2.7-2.3-3.6-3.5Z"/>
  <path class="st0" d="M59.3,13.9c-.1,21.3-.8,26.2-5.9,36.5l-5.5-3.5c4.1-9.4,4.7-13.3,4.9-33.1h-3.7v-6.5h3.7V1.2h6.5v6.2h10.4v32.5c0,7.4-3.2,10.5-9.8,10.5h-1.6v-6.5h1.6c2.2,0,3.3-.9,3.3-4V13.9h-4ZM88.2,8.9v39.7h-16.6V8.9h16.6ZM81.7,42.1V15.4h-3.6v26.8h3.6Z"/>
  <path class="st0" d="M96,6.5c12.5-1.6,20.1-6.5,20.1-6.5,0,0,7.5,4.9,20.1,6.5v6.5c-10.1-1.3-16.8-4-20.1-5.6-3.4,1.6-10,4.3-20.1,5.6,0,0,0-6.5,0-6.5ZM121.1,31v13h15.1v6.5h-40.2v-6.5h5.8v-19.4h6.5v19.4h6.4V13.6h6.5v10.9h13.3v6.5h-13.3Z"/>
  <path class="st0" d="M184.2,12.1h-6v5.1h6v6.5h-16.9v2.6h15.1v4.9h-15.1v2.6h16.3v6.5h-10.1c4.8,3.5,10.7,3.9,10.7,3.9l-1.6,6.3s-8.7,0-15.3-6.7v6.7h-6.5v-6.7c-6.5,6.7-15.3,6.7-15.3,6.7l-1.6-6.3s6-.4,10.8-3.9h-10.2v-6.5h16.3v-2.6h-15.1v-4.9h15.1v-2.6h-16.9v-6.5h6v-5.1h-6v-6.5h2.8l-1-4.4h6.7l1,4.4h2.3V1.2h6.5v4.4h3.6V1.2h6.5v4.4h2.4l1-4.4h6.7l-1,4.4h2.8v6.5h0ZM171.7,17.2v-5.1h-15.2v5.1h15.2Z"/>
  <path class="st0" d="M200.8,33.2c0,5.6,0,6.8,1.9,6.8v6.5c-7.9,0-8.4-3.4-8.4-12.4V8.9h6.5v24.4ZM230.5,46.6s-1.4,1.7-10.3,1.7-12.4-2.1-12.4-11.5h6.5c0,4.6,1.2,5,6.8,5s7.6-1.5,7.6-1.5l1.8,6.2ZM227,8.9v6.5h-15.7v-6.5s15.7,0,15.7,0Z"/>
  <path class="st0" d="M240,21.1c45.7-17.1,43.1,25.2,18.7,26.3l-1.2-6.4c16.3-.6,19.2-26.8-15.5-13.8l-2-6.1Z"/>
  <path class="st0" d="M295.9,33.1c0,5.6.5,6.9,5,6.9v6.5c-9.4,0-11.5-3.5-11.5-12.4V11h6.5v22.1h0ZM311.2,14.9c9.4,0,11.5,3.4,11.5,12.4v19.1h-6.5v-18.2c0-5.6-.5-6.8-5-6.8v-6.5h0Z"/>
  <path class="st0" d="M364,8.9l.3,6.5c-15,17.7-12.1,25.3-1.9,29.2l-2.9,5.8c-13-4.6-17.5-16.9-3.9-34.6l-15.8.7-.3-6.5,24.5-1.1Z"/>
  <path class="st1" d="M364.3,58.7c-2.2-.8-4.8-1.4-8.5-1.4-6.1,0-9.3,1.6-12.3,3.1-2.9,1.5-5.7,2.9-11.4,2.9s-8.4-1.4-11.4-2.9c-3-1.5-6.1-3.1-12.3-3.1s-9.3,1.6-12.3,3.1c-2.9,1.5-5.7,2.9-11.4,2.9s-8.4-1.4-11.4-2.9c-3-1.5-6.1-3.1-12.3-3.1s-9.3,1.6-12.3,3.1c-2.9,1.5-5.7,2.9-11.4,2.9s-8.4-1.4-11.4-2.9c-3-1.5-6.1-3.1-12.3-3.1s-9.3,1.6-12.3,3.1c-2.9,1.5-5.7,2.9-11.4,2.9s-8.4-1.4-11.4-2.9c-3-1.5-6.1-3.1-12.3-3.1s-9.3,1.6-12.3,3.1c-2.9,1.5-5.7,2.9-11.4,2.9s-8.4-1.4-11.4-2.9c-3-1.5-6.1-3.1-12.3-3.1s-9.3,1.6-12.3,3.1c-2.9,1.5-5.7,2.9-11.4,2.9s-8.4-1.4-11.4-2.9c-3-1.5-6.1-3.1-12.3-3.1s-9.3,1.6-12.3,3.1c-2.9,1.5-5.7,2.9-11.4,2.9s-8.4-1.4-11.4-2.9c-3-1.5-6.1-3.1-12.3-3.1s-9.3,1.6-12.3,3.1c-2.9,1.5-5.7,2.9-11.4,2.9s-1,0-1.5,0v2c.5,0,1,0,1.5,0,6.1,0,9.3-1.6,12.3-3.1,2.9-1.5,5.7-2.9,11.4-2.9s8.4,1.4,11.4,2.9c3,1.5,6.1,3.1,12.3,3.1s9.3-1.6,12.3-3.1c2.9-1.5,5.7-2.9,11.4-2.9s8.4,1.4,11.4,2.9c3,1.5,6.1,3.1,12.3,3.1s9.3-1.6,12.3-3.1c2.9-1.5,5.7-2.9,11.4-2.9s8.4,1.4,11.4,2.9c3,1.5,6.1,3.1,12.3,3.1s9.3-1.6,12.3-3.1c2.9-1.5,5.7-2.9,11.4-2.9s8.4,1.4,11.4,2.9c3,1.5,6.1,3.1,12.3,3.1s9.3-1.6,12.3-3.1c2.9-1.5,5.7-2.9,11.4-2.9s8.4,1.4,11.4,2.9c3,1.5,6.1,3.1,12.3,3.1s9.3-1.6,12.3-3.1c2.9-1.5,5.7-2.9,11.4-2.9s8.4,1.4,11.4,2.9c3,1.5,6.1,3.1,12.3,3.1s9.3-1.6,12.3-3.1c2.9-1.5,5.7-2.9,11.4-2.9s8.4,1.4,11.4,2.9c3,1.5,6.1,3.1,12.3,3.1s9.3-1.6,12.3-3.1c2.9-1.5,5.7-2.9,11.4-2.9s6.4.7,8.5,1.5v-2.1Z"/>
  <path class="st1" d="M364.3,64.7c-2.2-.8-4.8-1.4-8.5-1.4-6.1,0-9.3,1.6-12.3,3.1-2.9,1.5-5.7,2.9-11.4,2.9s-8.4-1.4-11.4-2.9c-3-1.5-6.1-3.1-12.3-3.1s-9.3,1.6-12.3,3.1c-2.9,1.5-5.7,2.9-11.4,2.9s-8.4-1.4-11.4-2.9c-3-1.5-6.1-3.1-12.3-3.1s-9.3,1.6-12.3,3.1c-2.9,1.5-5.7,2.9-11.4,2.9s-8.4-1.4-11.4-2.9c-3-1.5-6.1-3.1-12.3-3.1s-9.3,1.6-12.3,3.1c-2.9,1.5-5.7,2.9-11.4,2.9s-8.4-1.4-11.4-2.9c-3-1.5-6.1-3.1-12.3-3.1s-9.3,1.6-12.3,3.1c-2.9,1.5-5.7,2.9-11.4,2.9s-8.4-1.4-11.4-2.9c-3-1.5-6.1-3.1-12.3-3.1s-9.3,1.6-12.3,3.1c-2.9,1.5-5.7,2.9-11.4,2.9s-8.4-1.4-11.4-2.9c-3-1.5-6.1-3.1-12.3-3.1s-9.3,1.6-12.3,3.1c-2.9,1.5-5.7,2.9-11.4,2.9s-8.4-1.4-11.4-2.9c-3-1.5-6.1-3.1-12.3-3.1s-9.3,1.6-12.3,3.1c-2.9,1.5-5.7,2.9-11.4,2.9s-1,0-1.5,0v2c.5,0,1,0,1.5,0,6.1,0,9.3-1.6,12.3-3.1,2.9-1.5,5.7-2.9,11.4-2.9s8.4,1.4,11.4,2.9c3,1.5,6.1,3.1,12.3,3.1s9.3-1.6,12.3-3.1c2.9-1.5,5.7-2.9,11.4-2.9s8.4,1.4,11.4,2.9c3,1.5,6.1,3.1,12.3,3.1s9.3-1.6,12.3-3.1c2.9-1.5,5.7-2.9,11.4-2.9s8.4,1.4,11.4,2.9c3,1.5,6.1,3.1,12.3,3.1s9.3-1.6,12.3-3.1c2.9-1.5,5.7-2.9,11.4-2.9s8.4,1.4,11.4,2.9c3,1.5,6.1,3.1,12.3,3.1s9.3-1.6,12.3-3.1c2.9-1.5,5.7-2.9,11.4-2.9s8.4,1.4,11.4,2.9c3,1.5,6.1,3.1,12.3,3.1s9.3-1.6,12.3-3.1c2.9-1.5,5.7-2.9,11.4-2.9s8.4,1.4,11.4,2.9c3,1.5,6.1,3.1,12.3,3.1s9.3-1.6,12.3-3.1c2.9-1.5,5.7-2.9,11.4-2.9s8.4,1.4,11.4,2.9c3,1.5,6.1,3.1,12.3,3.1s9.3-1.6,12.3-3.1c2.9-1.5,5.7-2.9,11.4-2.9s6.4.7,8.5,1.5v-2.1Z"/>
</svg>