<?xml version="1.0" encoding="utf-8"?>
<!-- Generator: Adobe Illustrator 15.0.0, SVG Export Plug-In . SVG Version: 6.00 Build 0)  -->
<!DOCTYPE svg PUBLIC "-//W3C//DTD SVG 1.1//EN" "http://www.w3.org/Graphics/SVG/1.1/DTD/svg11.dtd">
<svg version="1.1" id="レイヤー_1" xmlns="http://www.w3.org/2000/svg" xmlns:xlink="http://www.w3.org/1999/xlink" x="0px"
	 y="0px" width="422.552px" height="87.194px" viewBox="2.6 13.845 422.552 87.194"
	 enable-background="new 2.6 13.845 422.552 87.194" xml:space="preserve">
<path fill="#243F7E" d="M7.439,13.845h4.359v2.96h4.839v4.319H2.6v-4.319h4.839V13.845z M2.6,35.562V23.004h14.038v12.558h-5.079
	v4.879c0,4.159-1.92,6.199-4.839,6.199V42.32c0.76,0,0.96-0.6,0.96-1.88v-4.879H2.6z M2.6,43.2c0.68-2.96,0.68-4.319,0.68-6.039
	h3.399c0,2.199,0.04,3.8-0.88,7.239L2.6,43.2z M6.959,27.323v3.879h5.359v-3.879H6.959z M13.438,43.76
	c-0.919-2.799-0.879-4.399-0.879-6.599h3.399c0,1.72,0,3.079,0.68,5.399L13.438,43.76z M27.196,39.641c0,2.08,0.76,2.68,2.2,2.68
	v4.319c-4.359,0-6.519-2.04-6.519-6.999v-2.119c-0.76,3.479-1.839,6.358-3.479,9.118l-4-1.6c3.439-5.959,4.319-11.479,4.559-21.757
	h-2.12v-4.319h2.16c0-1.6,0.04-3.279,0.04-5.119h4.319c0,1.8-0.04,3.52-0.04,5.119h2.08l-0.72-4.319h2.6l0.72,4.319h0.32v4.319
	h-5.079c-0.04,1.76-0.12,3.359-0.2,4.92h3.159V39.641z"/>
<path fill="#243F7E" d="M42.318,21.164l-1.72,3.959l-5.999-2.6l1.72-3.959L42.318,21.164z M42.318,28.442l-1.72,3.96l-5.999-2.56
	l1.72-3.96L42.318,28.442z M42.798,34.042c0,3.999-0.64,7.078-4.479,11.397l-3.719-2.199c3.319-3.999,3.879-6.439,3.879-9.198
	H42.798z M43.958,15.045c10.118,0,17.437-1.2,17.437-1.2v4.319c0,0-2.439,0.4-6.559,0.76v3.76h6.559v4.319h-6.559v3.64h6.559V46.64
	H43.958V30.643h6.559v-3.64h-6.559v-4.319h6.559v-3.479c-1.96,0.08-4.2,0.16-6.559,0.16V15.045z M57.075,34.962h-8.798v7.358h8.798
	V34.962z"/>
<path fill="#243F7E" d="M82.996,34.962v7.358h10.398v4.319H66.599V42.32h12.078v-7.358h-8.479v-4.319h8.479v-7.359h-6.119
	c-0.84,3.68-1.92,5.959-1.92,5.959l-4.039-1.64c0,0,2.64-5.879,2.64-12.958h4.359c0,1.521-0.12,2.96-0.28,4.319h5.359v-5.119h4.319
	v5.119h8.839v4.319h-8.839v7.359h8.439v4.319H82.996z"/>
<path fill="#243F7E" d="M119.035,41.32l1,4.199c-12.598,4.8-20.197-6.839-8.719-15.917c-1.28-0.4-2.799-0.32-4.599,0.04v-6.359
	h-3.56v-4.319h3.56v-2.159h4.319v2.159h3.52v4.319h-3.52v1.88c1.839,0.2,3.319,0.8,4.439,1.68c1.16-0.6,2.44-1.199,3.839-1.76
	l1.56,4.039c-1,0.4-1.88,0.84-2.72,1.24c0.44,0.92,0.8,1.96,1.12,2.999l-3.879,1.92c-0.24-1.04-0.56-1.92-0.92-2.68
	C105.917,38.801,111.396,44.52,119.035,41.32z"/>
<path fill="#25AA39" d="M129.799,40.16c1.08-4.039,1.2-6.759,1.2-13.277h4.319c0,7.519,0,9.759-1.28,13.998L129.799,40.16z
	 M140.957,39.001c0,2.999,0.84,3.319,4.599,3.319h9.838v4.319h-10.479c-5.959,0-8.278-1.399-8.278-7.639V18.964h4.319V39.001z
	 M143.956,14.645h4.439l1,9.879h-4.439L143.956,14.645z M151.155,26.563h4.439l1,9.919h-4.439L151.155,26.563z"/>
<path fill="#25AA39" d="M171.956,24.203c7.559,0.08,14.318,7.079,3.24,22.437l-3.4-2.68c4.839-6.398,7.799-15.317,0.16-15.438v9.398
	h-4.319v-9.078c-1.76,0.2-3.08,0.479-3.08,0.479l-0.959-4.199c0,0,1.72-0.399,4.039-0.68v-7.639h4.319V24.203z M179.635,21.324
	l4-1.601l3.839,9.639l-4,1.6L179.635,21.324z"/>
<path fill="#25AA39" d="M211.675,17.564l-0.32,4.319l-10.358-0.76l0.32-4.319L211.675,17.564z M206.395,28.803
	c4.879,0.88,8.039,4.359,8.039,8.799c0,5.799-4.399,11.038-13.438,8.318l0.68-4.279c6.039,1.84,8.398-0.84,8.398-4.039
	c0-3.12-2.52-5.239-7.999-4.96v-7.599h4.319V28.803z"/>
<path fill="#25AA39" d="M240.715,13.845v2.96h10.279v4.319h-21.277c-0.199,13.077-1.279,18.517-1.279,18.517l-4.239-0.68
	c0,0,1.2-6.479,1.2-22.156h10.998v-2.96H240.715z M229.357,40.16c1.08-4.039,1.199-6.759,1.199-13.277h3.12
	c0,7.519,0,9.759-1.28,13.998L229.357,40.16z M239.195,39.001c0,2.999,0.84,3.319,4.6,3.319h6.398v4.319h-7.039
	c-5.959,0-8.277-1.399-8.277-7.639V22.724h4.318V39.001z M244.514,23.283l0.96,9.879h-3.639l-0.961-9.879H244.514z M246.354,26.563
	h3.64l1,9.919h-3.64L246.354,26.563z"/>
<path fill="#25AA39" d="M259.237,37.001c-0.92,0.08-1.92,0.16-3.04,0.16v-4.279c1.08,0,2.08-0.12,3.04-0.24v-9.358h-3.04v-4.319
	h3.04v-2.959h4.319v2.959h1.6v4.319h-1.6v8.239c1-0.36,1.6-0.641,1.6-0.641v4.319c0,0-0.52,0.36-1.6,0.8v3.64
	c0,4.959-2.16,6.999-6.559,6.999V42.32c1.479,0,2.239-0.6,2.239-2.68V37.001z M264.196,44.16c1.64-4.239,2.68-7.719,3.2-11.318h-1
	v-2.959h1.279c0.04-0.48,0.08-0.96,0.08-1.48h-1.359v-3.52h1l-0.721-4.479h3.92l0.719,4.479h1.561l-0.72-4.479h3.919l0.721,4.479
	h1.239l0.64-4.479h3.92l-0.641,4.479h1.04v3.52h-10.918c-0.04,0.48-0.04,0.96-0.08,1.48h10.198v2.959h-10.518
	c-0.08,0.48-0.121,0.96-0.201,1.479h10.719v3.52c0,1.2-0.48,2.68-1.8,4.119c0.92,0.28,1.88,0.521,2.84,0.761l-1.84,3.919
	c-1.8-0.44-3.439-1.08-4.919-1.88c-1.52,0.72-3.359,1.36-5.68,1.88l-1.08-4.199c0.961-0.2,1.84-0.48,2.641-0.72
	c-0.521-0.561-1-1.12-1.4-1.68l2.959-2c0.641,0.8,1.36,1.479,2.2,2.04c1.521-0.88,2.28-1.76,2.28-2.24h-7.6
	c-0.6,2.64-1.399,5.239-2.399,7.359L264.196,44.16z M282.993,18.164c0,0-5.519,1.2-16.597,1.2v-4.319
	c11.397,0,16.597-1.2,16.597-1.2V18.164z"/>
<path fill="#243F7E" d="M303.354,37.401h-4.319l-0.4-22.757h5.119L303.354,37.401z M303.354,41.44v5.199h-4.319V41.44H303.354z"/>
<path fill="#25AA39" d="M19.797,75.884l8.238,3.919l-1.879,3.88l-2.919-1.4c0.36,1.72,0.64,3.96,0.64,6.56
	c0,8.679-4.039,11.798-8.479,11.798c-4.399,0-9.479-0.92-9.479-9.318c0-6.079,1.88-11.479,2.959-14.038H4.679v-4.319h8.918v4.319
	c0,0-3.359,6.399-3.359,14.038c0,4.039,2.2,4.999,5.159,4.999c2.52,0,4.159-3,4.159-7.479c0-5.839-1.64-9.079-1.64-9.079
	L19.797,75.884z"/>
<path fill="#25AA39" d="M49.637,75.124v4.319h5.039v4.319h-5.039v6.119h2.56V94.2h-2.56c0,2.36-0.44,6.439-5.359,6.439
	c-3.999,0-5.399-2.64-5.399-5.039c0-2.52,1.72-5.719,6.439-5.719V75.124H49.637z M45.558,94.001c-1.76,0-2.52,0.439-2.52,1.359
	c0,0.52,0.32,1.12,1.2,1.12C45.438,96.48,45.558,95.521,45.558,94.001z"/>
<path fill="#25AA39" d="M80.197,100.64l-3.399-2.68c4.879-6.479,7.839-15.478,0-15.478c-3.399,0-5.119,0.88-5.119,0.88l-1.64-3.999
	c0,0,2.72-1.2,6.759-1.2C84.396,78.163,91.355,85.162,80.197,100.64z M83.357,71.524l-0.32,4.319l-10.358-0.76l0.32-4.279
	L83.357,71.524z"/>
<path fill="#25AA39" d="M104.318,91.801c0,3,0.84,3.319,4.599,3.319c6.799,0,8.999-0.999,8.999-0.999l1.2,4.159
	c0,0-2.959,1.159-10.838,1.159c-5.959,0-8.279-1.399-8.279-7.639H104.318z M102.279,77.283v-4.319h6.359c2.2,0,3.919,0.2,5.199,0.76
	v-4.159h2.479v5.159h-1c1.12,1.16,1.6,3.04,1.6,5.919h-4.319c0-3.039-0.84-3.359-4.599-3.359H102.279z M117.516,74.724v-5.159h2.479
	v5.159H117.516z"/>
<path fill="#25AA39" d="M147.836,95.32l1,4.199c-12.598,4.8-20.197-6.839-8.719-15.917c-1.28-0.4-2.799-0.32-4.599,0.04v-6.359
	h-3.56v-4.319h3.56v-2.159h4.319v2.159h3.519v4.319h-3.519v1.88c1.839,0.2,3.319,0.8,4.439,1.68c1.16-0.6,2.44-1.199,3.839-1.76
	l1.56,4.039c-1,0.4-1.88,0.84-2.72,1.24c0.44,0.92,0.8,1.96,1.12,2.999l-3.879,1.92c-0.24-1.04-0.56-1.92-0.92-2.68
	C134.719,92.801,140.198,98.52,147.836,95.32z"/>
<path fill="#25AA39" d="M182.396,72.204l-0.72,3h3.719v5.438h-2.28l0.44,2.36h-3.999l-0.64-3.2h2.16v-1.079h-18.157v1.919H158.6
	v-5.438h3.719l-0.48-2.08c-0.56,0-1.08,0.04-1.64,0.04v-4.359c14.198,0,23.356-1.08,23.356-1.08v4.359L182.396,72.204z
	 M164.119,81.683c0,1.8,0,3.76-1.28,6.679l-4.239-0.76c0.96-2.439,1.2-4.039,1.2-5.919H164.119z M181.596,92.361
	c-0.8,1.359-1.88,2.52-3.199,3.519c1.959,0.28,4.279,0.521,6.999,0.681l-1.36,4.079c-4.839-0.4-8.559-0.96-11.558-1.8
	c-3.639,1.24-7.958,1.8-12.478,1.8l-1.4-4.079c2.759,0,5.319-0.16,7.599-0.48c-0.36-0.239-0.72-0.52-1.08-0.8l3.639-2.359
	c1,0.6,2.16,1.12,3.56,1.6c1.439-0.56,2.679-1.279,3.679-2.159h-9.079c-1.439,1.72-3.279,2.6-5.639,3.119l-1.28-3.76
	c2.919-0.399,3.959-1.68,4.999-4.359l4.079,1c-0.04,0.16-0.12,0.32-0.16,0.48h12.678V92.361z M165.479,80.083h4.319v0.68
	c0,3,0.84,3.319,4.599,3.319h9.798v3.92h-10.438c-5.999,0-8.278-1-8.278-7.239V80.083z M166.759,75.204h3.119l-0.479-2.2
	c-1,0.04-2.04,0.08-3.16,0.08L166.759,75.204z M176.557,79.803l0.6,3.2h-3.999l-0.64-3.2H176.557z M177.237,75.204l0.6-2.6
	l-4.04,0.239l0.52,2.36H177.237z"/>
<path fill="#25AA39" d="M204.837,77.283h-9.999v-4.319h9.999v-2.159h4.319v2.159h3.879v4.319h-3.879v10.479
	c0,9.078-3.159,12.878-3.159,12.878l-3.799-2.04c0,0,1.2-1.439,2-4.799c-4.759-0.08-6.999-2.16-6.999-5.879
	c0-3.56,3.28-5.719,7.639-5.839V77.283z M204.596,87.922c0-0.84-0.68-1.56-1.52-1.56c-0.88,0-1.56,0.72-1.56,1.56
	s0.68,1.56,1.56,1.56C203.917,89.481,204.596,88.762,204.596,87.922z"/>
<path fill="#25AA39" d="M236.556,83.003c4.039,1.079,6.799,4.358,6.799,8.599c0,4.719-2.879,9.038-8.838,9.038
	c-2.2,0-5.08-0.36-6.84-2.399c-1.239-1.44-1.279-3.319-0.76-4.76c0.961-2.64,3.84-3.999,6.479-3.039
	c2.239,0.8,3.519,3.039,3.279,5.319c1.64-0.8,2.36-2.4,2.36-4.159c0-3.12-2.521-5.239-8-4.96l3.24-11.518h-6.199v-4.319h11.878
	L236.556,83.003z M232.117,94.001c-0.68-0.24-1.399,0.08-1.639,0.76c-0.24,0.64,0.079,1.399,0.76,1.64
	c0.68,0.24,1.398-0.12,1.639-0.8C233.117,94.961,232.758,94.24,232.117,94.001z"/>
<path fill="#25AA39" d="M269.197,89.602h2.68v4.319h-2.68v6.719h-4.32v-6.719h-10.478v-4.319l5.519-20.957h4.439l-5.479,20.957
	h5.998V73.924h4.32V89.602z"/>
<path fill="#25AA39" d="M296.555,76.563v16.117c0,5.879-4.159,8.358-8.719,8.358c-4.599,0-8.759-2.479-8.759-8.358V76.563
	c0-5.879,4.16-8.318,8.759-8.318C292.396,68.245,296.555,70.685,296.555,76.563z M292.236,76.563c0-2.8-1.4-3.999-4.399-3.999
	s-4.438,1.199-4.438,3.999v16.117c0,2.8,1.439,4.04,4.438,4.04s4.399-1.24,4.399-4.04V76.563z"/>
<path fill="#25AA39" d="M307.798,100.64V90.001c-1.319,1-2.88,1.88-4.64,2.68v-5.039c5.439-2.879,7.879-8.118,7.879-12.518h-7.879
	v-4.319h3.92v-2.96h4.319v2.96h3.959v4.319c0,2.479-0.56,5.999-2.6,9.398l4.319,3.959l-2.92,3.199l-2.039-1.879v10.838H307.798z
	 M324.955,67.845v10.318h4.999v4.319h-4.999V96.32h4.999v4.319h-14.317V96.32h4.999V82.482h-4.199v-4.319h4.199V67.845H324.955z"/>
<path fill="#243F7E" d="M345.316,78.203c7.559,0.12,14.318,7.079,3.239,22.437L345.156,98c4.84-6.438,7.799-15.317,0.16-15.478
	v9.398h-4.319v-9.078c-1.76,0.239-3.079,0.52-3.079,0.52l-0.96-4.239c0,0,1.72-0.359,4.039-0.64v-7.679h4.319V78.203z
	 M351.875,75.324l4-1.601l3.839,9.639l-4.039,1.6L351.875,75.324z M356.795,74.563v-5.119h2.52v5.119H356.795z M360.273,74.563
	v-5.119h2.52v5.119H360.273z"/>
<path fill="#243F7E" d="M392.754,93.4h-7.359c3.28,2.68,7.76,3.04,7.76,3.04l-1.04,4.199c0,0-5.8,0-10.198-4.439v4.439h-4.319V96.2
	c-4.399,4.439-10.198,4.439-10.198,4.439l-1.04-4.199c0,0,4.479-0.36,7.759-3.04h-7.359v-4.319h10.839v-1.199h-9.798v-9.198
	l-0.641,0.399l-1.88-4.079c2.76-1.68,3.319-4.439,3.319-7.159h4.32c0,0.72,0,1.44-0.08,2.16h6.998l0.48-2.16h4.439l-0.48,2.16h8.078
	v4.319h-8.598v1.399h7.398v2.479h-7.398v1.44h7.398v2.479h-7.398v1.439h8.598v4.319h-10.438v1.199h10.838V93.4z M379.435,75.724
	v-1.399h-7.318v1.399H379.435z M379.435,79.644v-1.44h-7.318v1.44H379.435z M379.435,83.563v-1.439h-7.318v1.439H379.435z"/>
<path fill="#243F7E" d="M402.996,100.64V88.642c-1.319,0.2-2.879,0.32-4.639,0.32v-4.319l1.92-3.479h-1.92v-4.359l4.159-7.599
	l3.8,2.039l-3.04,5.56h1.92v4.359l-1.68,3.039c1.159-0.2,2.159-0.439,2.96-0.68l-0.201-3.159h3.24l0.56,8.599h-3.239l-0.04-1.12
	l-0.479,0.12v12.678H402.996z M402.156,90.441c0,3.079-0.119,7.278-0.959,9.599l-2.84-1c0.76-2.2,0.8-5.999,0.8-8.599H402.156z
	 M410.075,99.04h-2.919v-8.318h2.919V99.04z M420.193,67.845v2.96h4.959v4.319h-4.959v3.999h4.16v4.319h-12.678v-4.319h4.199v-3.999
	h-5v-4.319h5v-2.96H420.193z M410.875,100.64V85.442h14.277v15.197H410.875z M415.194,89.762v6.559h5.64v-6.559H415.194z"/>
</svg>
