<?xml version="1.0" encoding="utf-8"?>
<!-- Generator: Adobe Illustrator 15.0.0, SVG Export Plug-In . SVG Version: 6.00 Build 0)  -->
<!DOCTYPE svg PUBLIC "-//W3C//DTD SVG 1.1//EN" "http://www.w3.org/Graphics/SVG/1.1/DTD/svg11.dtd">
<svg version="1.1" id="レイヤー_1" xmlns="http://www.w3.org/2000/svg" xmlns:xlink="http://www.w3.org/1999/xlink" x="0px"
	 y="0px" width="355.236px" height="96.58px" viewBox="0 0 355.236 96.58" enable-background="new 0 0 355.236 96.58"
	 xml:space="preserve">
<path fill="#243F7E" d="M87.936,96.58c-15.825,0-26.458-11.819-26.46-29.41c0-18.654,10.386-30.708,26.46-30.708
	c16.002,0,26.342,12.054,26.342,30.708C114.278,84.761,103.692,96.58,87.936,96.58z M87.936,37.462
	c-15.466,0-25.46,11.661-25.46,29.708c0.002,16.993,10.233,28.41,25.46,28.41c15.158,0,25.342-11.417,25.342-28.41
	C113.278,49.123,103.331,37.462,87.936,37.462z M355.236,95.399h-13.744V13.744h-6.962V0h20.706V95.399z M342.492,94.399h11.744V1
	H335.53v11.744h6.962V94.399z M277.71,95.399h-5.691c-18.746,0-21.15-13.32-21.15-24.926V50.206h-6.844V36.462h6.844V12.744h13.742
	v23.718h13.1l0.002,13.744h-13.1v18.38c0,9.645,1.119,13.069,7.406,13.069h5.691V95.399z M245.024,49.206h6.844v21.268
	c0,11.831,2.395,23.926,20.15,23.926h4.691V82.655h-4.691c-7.821,0-8.406-5.57-8.406-14.069v-19.38h13.1l-0.002-11.744h-13.1V13.744
	h-11.742v23.718h-6.844V49.206z M221.424,95.399h-13.861v-29.41c0-11.801-2.584-15.783-10.238-15.783
	c-7.743,0-10.356,3.982-10.356,15.783v29.41h-13.743V36.462h13.743v3.439c2.84-2.228,6.342-3.444,9.974-3.444l0.396,0.005
	c15.979,0,24.087,9.935,24.087,29.527V95.399z M208.562,94.399h11.861v-28.41c0-18.929-7.771-28.527-23.1-28.527l-0.383-0.005
	c-3.749,0-7.35,1.381-10.14,3.889l-0.834,0.75v-4.634h-11.743v56.938h11.743v-28.41c0-10.63,1.858-16.783,11.356-16.783
	c9.399,0,11.238,6.153,11.238,16.783V94.399z M150.624,95.399H136.88V36.462h13.744V95.399z M137.88,94.399h11.744V37.462H137.88
	V94.399z M13.744,95.399H0V0h24.336c17.167,0,28.7,11.819,28.7,29.41c0,17.662-11.534,29.528-28.7,29.528H13.744V95.399z M1,94.399
	h11.744V57.938h11.592c16.568,0,27.7-11.465,27.7-28.528C52.036,12.417,40.904,1,24.336,1H1V94.399z M87.936,83.836
	c-8.46,0-13.716-6.386-13.716-16.666c0.002-11.415,5.001-17.963,13.717-17.964l0,0c8.515,0.001,13.599,6.716,13.599,17.964
	C101.536,77.45,96.325,83.836,87.936,83.836z M87.937,50.206c-8.08,0.001-12.715,6.184-12.717,16.964
	c0,9.663,4.873,15.666,12.716,15.666c7.772,0,12.6-6.003,12.6-15.666C100.536,56.39,95.944,50.207,87.937,50.206L87.937,50.206z
	 M24.336,46.194H12.744v-33.45h11.592c9.843,0,15.958,6.386,15.958,16.666C40.294,39.763,34.179,46.194,24.336,46.194z
	 M13.744,45.194h10.592c9.227,0,14.958-6.048,14.958-15.784c0-9.663-5.731-15.666-14.958-15.666H13.744V45.194z M150.624,29.438
	H136.88V12.744h13.744V29.438z M137.88,28.438h11.744V13.744H137.88V28.438z"/>
</svg>
