<?xml version="1.0" encoding="utf-8"?>
<!-- Generator: Adobe Illustrator 15.0.0, SVG Export Plug-In . SVG Version: 6.00 Build 0)  -->
<!DOCTYPE svg PUBLIC "-//W3C//DTD SVG 1.1//EN" "http://www.w3.org/Graphics/SVG/1.1/DTD/svg11.dtd">
<svg version="1.1" id="レイヤー_1" xmlns="http://www.w3.org/2000/svg" xmlns:xlink="http://www.w3.org/1999/xlink" x="0px"
	 y="0px" width="120.792px" height="51.809px" viewBox="0 0 120.792 51.809" enable-background="new 0 0 120.792 51.809"
	 xml:space="preserve">
<path id="パス_46525" fill="#25AA39" d="M31.696,32.544v-3.456h-7.648v-3.52h-3.456v3.52h-3.52c0.064-0.672,0.1-1.439,0.1-2.24
	h-3.456c0,3.265-0.576,5.248-2.112,7.301l3.008,1.664c0.814-0.96,1.434-2.068,1.824-3.265h4.16v4.736h-9v3.452h4.992
	c-0.192,3.84-2.368,6.56-4.992,8.704l2.5,2.367c3.651-2.516,5.866-6.638,5.948-11.071h4.64v6.271c0,3.072,1.344,4.8,4.9,4.8h3.456
	v-3.455h-2.944c-1.5,0-1.952-0.673-1.952-2.272v-5.344h4.9V37.28h-8.992v-4.736H31.696z M45.196,35.644
	c1.408-2.977,1.76-5.952,1.76-10.08h-3.46v0.64h-6.3v1.992h6.272c-0.032,0.352-0.032,0.672-0.064,0.992h-5.568v1.983h5.344
	l-0.1,0.544c-1.917,0.528-3.9,0.776-5.888,0.736v2.368c1.698,0.037,3.395-0.124,5.056-0.48c-0.128,0.288-0.288,0.608-0.448,0.929
	L45.196,35.644z M48.844,25.564v9.535h-2.656v1.097h-8.992v2.815h8.992v0.641h-8.032v7.616h8.032v0.64h-8.992v2.812h8.992v1.088
	h3.456v-1.088h8.992v-2.815h-8.992v-0.641h8.032v-7.615h-8.032v-0.641h8.992v-2.812h-8.992v-1.088h2.652v-0.96h6.34v-1.984h-6.34
	v-0.992h5.7v-1.983h-5.7v-0.992h6.34v-1.984h-6.34v-0.64L48.844,25.564z M41.612,42.464v-0.64h4.576v0.64H41.612z M54.188,42.464
	h-4.544v-0.64h4.544V42.464z M41.612,45.088v-0.64h4.576v0.64H41.612z M49.644,45.088v-0.64h4.544v0.64H49.644z M74.096,31.552
	c-6.593,0-11.488,4.256-10.368,9.473c0.604,2.815,2.908,3.647,5.404,3.647c2.72,0,5.92-2.399,6.56-9.408
	c2.464,0.769,3.328,3.36,3.328,5.313c0,5.216-3.04,7.776-5.952,7.776v3.455c4.352,0,9.536-3.455,9.536-11.264
	C82.604,37.024,80.268,31.552,74.096,31.552z M68.556,41.44c-2.848,0-2.4-5.376,3.68-6.301C71.755,39.872,69.964,41.44,68.556,41.44
	z M96.748,25.568v2.368h-8.992v3.46h8.992v1.472h-8.031v2.912h19.52v-2.912h-8.031v-1.472h8.991v-3.46h-8.991v-2.368H96.748z
	 M108.236,46.496V37.28H89.037c0,9.855-1.281,13.6-1.281,13.6l3.328,0.928c0.545-1.724,0.877-3.508,0.992-5.312H108.236z
	 M96.748,40.736v2.3h-4.416c0.032-0.7,0.101-1.472,0.101-2.3H96.748z M104.748,40.736v2.3h-4.543v-2.3H104.748z"/>
<path id="パス_46524" fill="#243F7E" d="M3.36,10.248c-0.966,0.057-1.796-0.681-1.853-1.646C1.501,8.51,1.503,8.42,1.512,8.33
	h-1.516c-0.129,1.763,1.194,3.296,2.957,3.426c0.134,0.01,0.269,0.012,0.403,0.004c1.765,0.086,3.266-1.276,3.351-3.041
	c0.006-0.13,0.004-0.26-0.005-0.389c0-2.1-1.54-2.884-3.346-3.3C2.45,4.935,1.791,4.125,1.885,3.219c0-0.003,0-0.006,0.001-0.009
	C1.84,2.472,2.401,1.838,3.138,1.791C3.212,1.787,3.286,1.788,3.36,1.796c1.05,0,1.54,0.42,1.54,1.414h1.512
	C6.499,1.676,5.324,0.361,3.79,0.275C3.646,0.266,3.503,0.269,3.36,0.284c-1.591-0.055-2.926,1.19-2.98,2.782
	c-0.001,0.046-0.002,0.093-0.001,0.14c0,2.114,1.288,2.912,2.982,3.332C4.592,6.832,5.194,7.462,5.194,8.33
	c0.094,0.962-0.609,1.818-1.571,1.912C3.536,10.251,3.448,10.253,3.36,10.248z M15.484,10.108h-4.466V6.566h4.186V5.053h-4.186
	V1.931h4.466V0.42H9.506v11.2h5.978V10.108z M25.384,12.04V0.42h-1.512v7.07L18.286,0v11.62h1.51V4.55L25.384,12.04z M30.396,11.62
	V0.42h-1.512v11.2H30.396z M37.354,11.76c2.436,0,3.458-2.113,3.458-5.739s-1.022-5.74-3.458-5.74s-3.458,2.116-3.458,5.74
	s1.006,5.739,3.456,5.739H37.354z M37.354,1.792c1.162,0,1.932,1.022,1.932,4.229s-0.77,4.228-1.932,4.228s-1.948-1.021-1.948-4.228
	s0.784-4.225,1.946-4.225L37.354,1.792z M49.786,3.849c0.129-1.762-1.195-3.296-2.958-3.425c-0.129-0.01-0.259-0.011-0.388-0.005
	h-2.828v11.2h1.512V7.296h1.316c0.112,0,0.224-0.014,0.35-0.014l1.5,4.34h1.61l-1.67-4.776c1.03-0.636,1.627-1.787,1.554-2.996
	H49.786z M45.124,5.782V1.931h1.316c0.961-0.055,1.785,0.68,1.84,1.641c0.005,0.093,0.003,0.186-0.006,0.277
	c0.104,0.96-0.59,1.821-1.549,1.925c-0.094,0.011-0.189,0.013-0.285,0.008H45.124z M52.53,3.639c0.674,0.1,1.301-0.365,1.4-1.039
	c0.018-0.119,0.018-0.241,0-0.36V0.42h-1.514v1.82h0.77c0,0.476-0.154,0.77-0.658,0.77L52.53,3.639z M69.776,10.248
	c-0.966,0.057-1.796-0.681-1.853-1.646C67.917,8.51,67.919,8.42,67.928,8.33h-1.513c-0.129,1.763,1.195,3.296,2.957,3.426
	c0.135,0.01,0.27,0.012,0.403,0.004c1.765,0.086,3.266-1.276,3.351-3.041c0.007-0.13,0.005-0.26-0.004-0.389
	c0-2.1-1.541-2.884-3.347-3.3c-0.906-0.094-1.565-0.905-1.472-1.812c0.001-0.004,0.002-0.009,0.002-0.013
	c-0.043-0.737,0.52-1.371,1.257-1.414c0.071-0.005,0.142-0.003,0.213,0.004c1.05,0,1.54,0.42,1.54,1.414h1.512
	c0.089-1.534-1.083-2.851-2.617-2.938c-0.145-0.009-0.29-0.006-0.435,0.009c-1.591-0.054-2.925,1.192-2.979,2.784
	c-0.001,0.047-0.002,0.095-0.001,0.142c0,2.114,1.287,2.912,2.981,3.332c1.231,0.294,1.834,0.924,1.834,1.792
	c0.095,0.962-0.608,1.818-1.571,1.912C69.953,10.251,69.865,10.253,69.776,10.248z M81.438,0.42h-1.601l4.061,11.62l4.046-11.62
	h-1.6l-2.45,7.028L81.438,0.42z M93.925,11.76c2.437,0,3.459-2.113,3.459-5.739s-1.022-5.74-3.459-5.74
	c-2.436,0-3.457,2.116-3.457,5.74S91.476,11.76,93.925,11.76z M93.925,1.792c1.162,0,1.933,1.022,1.933,4.229
	s-0.771,4.228-1.933,4.228c-1.161,0-1.945-1.021-1.945-4.228s0.784-4.225,1.945-4.225V1.792z M102.396,11.62V0.42h-1.512v11.2
	H102.396z M108.962,11.76c1.529,0.151,2.892-0.966,3.043-2.496c0.014-0.143,0.017-0.286,0.009-0.43V8.022h-1.513v0.812
	c0,0.994-0.489,1.414-1.539,1.414c-1.051,0-1.555-0.42-1.555-1.414V3.206c0-0.994,0.5-1.414,1.555-1.414
	c1.054,0,1.539,0.42,1.539,1.414v0.813h1.513V3.206c0.087-1.534-1.088-2.849-2.622-2.935c-0.144-0.009-0.287-0.006-0.43,0.009
	c-1.531-0.156-2.9,0.958-3.057,2.489c-0.014,0.145-0.018,0.291-0.01,0.437v5.628c-0.085,1.537,1.092,2.852,2.629,2.937
	C108.671,11.778,108.817,11.774,108.962,11.76z M120.796,10.108h-4.471V6.566h4.187V5.053h-4.187V1.931h4.471V0.42h-5.982v11.2
	h5.982V10.108z"/>
</svg>
