<?xml version="1.0" encoding="utf-8"?>
<!-- Generator: Adobe Illustrator 15.0.0, SVG Export Plug-In . SVG Version: 6.00 Build 0)  -->
<!DOCTYPE svg PUBLIC "-//W3C//DTD SVG 1.1//EN" "http://www.w3.org/Graphics/SVG/1.1/DTD/svg11.dtd">
<svg version="1.1" id="レイヤー_1" xmlns="http://www.w3.org/2000/svg" xmlns:xlink="http://www.w3.org/1999/xlink" x="0px"
	 y="0px" width="155.088px" height="67.068px" viewBox="9.131 20.761 155.088 67.068"
	 enable-background="new 9.131 20.761 155.088 67.068" xml:space="preserve">
<path id="いざ_就活をはじめると_-_アウトライン" fill="#777777" d="M85.57,20.811
	c0.364-0.114,0.763-0.028,1.048,0.227c0.23,0.15,0.47,0.287,0.717,0.408c0.37,0.08,0.664,0.36,0.763,0.726
	c0.185,0.584-0.14,1.208-0.724,1.393c-0.452,0.064-0.912-0.033-1.299-0.275c0.006,0.02,0.013,0.04,0.019,0.06
	c0.169,0.58-0.155,1.189-0.73,1.374c-0.709,0.217-2.01-0.145-2.271-1c-0.165-0.587,0.167-1.198,0.75-1.379
	c0.363-0.113,0.76-0.022,1.038,0.239l0.086,0.001c0.035,0.001,0.076,0.001,0.122,0.003c-0.111-0.114-0.196-0.251-0.249-0.402
	C84.67,21.604,84.994,20.995,85.57,20.811z M87.133,22.433c-0.021-0.009-0.042-0.016-0.064-0.021l-0.022-0.007
	c-0.373-0.161-0.729-0.361-1.06-0.595c-0.072-0.059-0.092-0.053-0.118-0.044c-0.043,0.02-0.07,0.063-0.071,0.109
	c0.363,0.353,0.813,0.603,1.303,0.726c0.045-0.03,0.063-0.087,0.042-0.137C87.139,22.453,87.136,22.443,87.133,22.433z
	 M84.162,23.292L84.135,23.3c-0.056,0.017-0.092,0.072-0.085,0.131c0.059,0.191,0.709,0.432,1.022,0.335
	c0.047-0.022,0.074-0.073,0.066-0.125c-0.004-0.017-0.009-0.033-0.015-0.049c-0.056-0.007-0.11-0.01-0.166-0.009
	c-0.239,0.019-0.478-0.051-0.669-0.196l0,0C84.25,23.352,84.207,23.32,84.162,23.292L84.162,23.292z M78.524,25.329
	c0.414-0.128,0.865,0.002,1.146,0.332c0.28,0.322,0.542,0.658,0.786,1.007c0.785-0.316,1.427-0.547,2.042-0.735l0.287-0.087
	c0.309-0.108,0.634-0.159,0.96-0.15c0.459,0.018,0.854,0.328,0.979,0.769c0.179,0.563-0.133,1.164-0.695,1.342
	c-0.007,0.002-0.015,0.004-0.021,0.006c-0.151,0.046-0.299,0.08-0.442,0.113s-0.256,0.059-0.372,0.094
	c-0.521,0.159-1.035,0.351-1.537,0.546c0.384,0.705,0.697,1.444,0.937,2.21c0.272,0.841,0.387,1.724,0.339,2.607
	c-0.034,0.45-0.343,0.831-0.776,0.957c-0.581,0.178-1.196-0.149-1.373-0.73c-0.033-0.118-0.047-0.24-0.042-0.361
	c0.024-0.62-0.055-1.24-0.232-1.834c-0.221-0.7-0.523-1.371-0.901-2L78.471,29.9c-0.191,0.083-0.398,0.175-0.617,0.272
	c-0.717,0.335-1.452,0.63-2.202,0.882c-0.564,0.169-1.163-0.134-1.361-0.689c-0.19-0.561,0.095-1.172,0.647-1.387l0.007-0.002
	l1.006-0.412c0.791-0.326,1.604-0.66,2.409-1.01c-0.232-0.26-0.424-0.554-0.569-0.872c-0.176-0.569,0.144-1.173,0.713-1.35
	c0.006-0.002,0.013-0.004,0.019-0.005L78.524,25.329z M80.091,27.899l-0.229-0.332c-0.29-0.432-0.604-0.847-0.942-1.243
	c-0.05-0.056-0.088-0.044-0.102-0.04c-0.045,0.007-0.077,0.046-0.076,0.091c0.081,0.146,0.427,0.594,0.578,0.79
	c0.102,0.131,0.182,0.235,0.228,0.3l0.354,0.498l-0.557,0.25c-1,0.448-2.024,0.869-3.014,1.276l-0.998,0.41
	c-0.102,0.045-0.112,0.083-0.087,0.169c0.031,0.028,0.074,0.041,0.115,0.035c0.711-0.244,1.407-0.527,2.087-0.847
	c0.221-0.098,0.431-0.191,0.628-0.277l1.929-0.823l0.228,0.361c0.526,0.809,0.941,1.685,1.233,2.604
	c0.209,0.697,0.302,1.424,0.275,2.151c-0.001,0.018,0,0.035,0.002,0.053c0.02,0.048,0.072,0.073,0.122,0.058
	c0.04-0.012,0.066-0.02,0.074-0.098c0.035-0.751-0.066-1.502-0.301-2.217c-0.277-0.875-0.655-1.713-1.127-2.5l-0.296-0.502
	l0.543-0.215c0.688-0.273,1.399-0.555,2.145-0.783c0.151-0.046,0.299-0.08,0.442-0.113s0.257-0.059,0.373-0.094
	c0.039-0.006,0.065-0.042,0.059-0.081c-0.001-0.006-0.003-0.013-0.006-0.019c-0.004-0.018-0.012-0.035-0.022-0.05
	c-0.011-0.008-0.127-0.074-0.671,0.092l-0.287,0.088c-0.679,0.208-1.396,0.471-2.324,0.855L80.091,27.899z M69.173,31.617
	c0.415-0.127,1.054-0.074,1.731,0.899c0.315,0.464,0.564,0.97,0.739,1.503c0.348,1.138,0.403,2.575-0.585,2.876
	c-0.586,0.158-1.192-0.172-1.379-0.749c-0.05-0.158-0.062-0.326-0.035-0.49c0.04-0.335,0.005-0.675-0.105-0.995
	c-0.091-0.39-0.287-0.747-0.567-1.033c-0.261-0.138-0.453-0.375-0.535-0.659C68.266,32.394,68.595,31.788,69.173,31.617z
	 M70.766,35.94c0.028-0.009,0.11-0.156,0.104-0.529c-0.015-0.371-0.075-0.739-0.182-1.095c-0.239-0.78-0.924-1.83-1.222-1.739
	c-0.047,0.013-0.077,0.058-0.072,0.105c0.005,0.033,0.026,0.06,0.058,0.072l0.014,0.008c0.511,0.408,0.873,0.973,1.03,1.607
	c0.153,0.462,0.2,0.953,0.138,1.436l0.003,0.01c-0.003,0.012-0.001,0.025,0.004,0.037C70.663,35.903,70.711,35.937,70.766,35.94z
	 M55.702,36.739c0.488-0.149,1.016,0.053,1.28,0.49c0.197,0.303,0.396,0.611,0.603,0.912c0.739,0.94,1.587,1.789,2.526,2.528
	c0.391-0.252,0.742-0.56,1.043-0.915c0.138-0.177,0.327-0.308,0.542-0.375c0.581-0.178,1.195,0.149,1.373,0.73l0,0
	c0.106,0.326,0.049,0.683-0.154,0.958c-0.627,0.799-1.449,1.421-2.388,1.808c-1.103,0.337-2.412-0.936-3.042-1.552l-0.002-0.006
	c-0.995-0.935-1.841-2.016-2.509-3.207C54.805,37.533,55.128,36.925,55.702,36.739z M60.103,41.765l-0.18-0.069
	c-0.983-0.377-2.817-2.537-3.138-2.947l-0.014-0.018c-0.228-0.32-0.435-0.645-0.635-0.957c-0.064-0.099-0.124-0.081-0.146-0.074
	c-0.047,0.022-0.073,0.073-0.066,0.125c0.621,1.024,1.379,1.958,2.254,2.774l0.003,0.009c0.339,0.343,0.704,0.659,1.094,0.943
	c0.612,0.427,0.889,0.39,0.958,0.369c0.718-0.316,1.352-0.796,1.85-1.401l0.016-0.023c0.023-0.023,0.029-0.059,0.015-0.088
	c-0.016-0.053-0.071-0.083-0.124-0.066l0,0c-0.02,0.006-0.028,0.009-0.069,0.059l-0.013,0.015c-0.441,0.539-0.994,0.976-1.619,1.282
	L60.103,41.765z M77.11,34.251c0.538-0.168,1.115,0.109,1.319,0.636c0.587,1.291,1.653,2.302,2.974,2.82
	c0.413,0.064,0.755,0.356,0.884,0.754c0.169,0.58-0.155,1.189-0.73,1.374c-0.151,0.045-0.312,0.055-0.468,0.029
	c-1.078-0.223-2.066-0.76-2.838-1.546c-0.804-0.722-1.434-1.615-1.845-2.614l-0.021-0.068c-0.093-0.267-0.074-0.56,0.052-0.813
	C76.574,34.549,76.817,34.342,77.11,34.251z M81.266,38.878c0.047-0.022,0.074-0.073,0.066-0.125
	c-0.004-0.011-0.014-0.045-0.125-0.066c-1.587-0.311-3.139-2.2-3.686-3.38L77.52,35.3c-0.05-0.112-0.085-0.102-0.116-0.092
	c-0.03,0.009-0.056,0.031-0.069,0.059c-0.007,0.011-0.009,0.024-0.007,0.037l0.023,0.076c0.513,1.411,2.397,3.293,3.882,3.497
	l0.016,0.002C81.255,38.879,81.26,38.879,81.266,38.878z M92.903,31.389c0.184-0.056,0.468-0.073,1.186,0.225
	c0.495,0.213,0.975,0.461,1.435,0.743c0.971,0.492,1.772,1.262,2.305,2.211c0.215,0.651-0.124,1.356-0.768,1.594
	c-0.574,0.181-1.187-0.138-1.368-0.711c-0.028-0.09-0.044-0.185-0.048-0.279c-0.808-0.717-1.734-1.287-2.738-1.685l-0.012-0.003
	c-0.339-0.113-0.602-0.384-0.702-0.727c-0.186-0.566,0.123-1.176,0.689-1.361C92.888,31.393,92.896,31.391,92.903,31.389z
	 M96.767,35.206c0.096-0.029,0.143-0.22,0.104-0.345c-0.422-0.676-1.025-1.221-1.741-1.572c-0.603-0.406-1.262-0.72-1.957-0.93
	c-0.041,0.036-0.021,0.104-0.02,0.104c0.009,0.029,0.016,0.051,0.083,0.079c1.255,0.478,2.391,1.22,3.332,2.176l0.158,0.215
	l-0.079,0.22c0,0,0,0,0.002,0.006C96.673,35.201,96.722,35.221,96.767,35.206z M13.2,70.584c0.521-0.166,1.083,0.097,1.289,0.604
	c0.145,0.268,0.306,0.525,0.482,0.771c0.199,0.258,0.366,0.54,0.495,0.84c0.067,0.223,0.058,0.461-0.025,0.679
	c0.814-0.278,1.621-0.54,2.419-0.784c0.096-0.029,0.201-0.061,0.31-0.094c0.107-0.033,0.229-0.075,0.346-0.111
	c0.24-0.078,0.486-0.134,0.737-0.166c0.525-0.116,1.051,0.196,1.201,0.713c0.17,0.561-0.145,1.152-0.704,1.324
	c-0.222,0.068-0.439,0.123-0.649,0.177c-0.211,0.053-0.405,0.104-0.605,0.165c-1.666,0.51-3.293,1.065-4.859,1.658
	c0.103,0.043,0.197,0.102,0.282,0.174c0.836-0.402,1.704-0.736,2.594-1l0.139-0.043c0.069-0.021,0.147-0.045,0.229-0.07
	c0.32-0.108,0.655-0.166,0.993-0.17c0.33-0.005,0.646,0.139,0.858,0.391c0.087-0.135,0.201-0.25,0.335-0.338l0.006-0.002
	c0.598-0.337,1.233-0.602,1.894-0.788l0.211-0.069l-0.262-1.619c-0.107-0.526,0.199-1.049,0.712-1.213
	c0.556-0.182,1.153,0.121,1.336,0.678c0.002,0.006,0.004,0.014,0.007,0.021c0.119,0.464,0.205,0.937,0.256,1.413l0.433-0.143
	c0.664-0.223,1.347-0.449,2.029-0.658c1.064-0.326,1.422,0.273,1.539,0.658c0.135,0.377,0.021,0.797-0.284,1.053
	c-0.206,0.158-0.441,0.271-0.692,0.334c-0.926,0.283-1.88,0.607-2.755,0.91c0.022,0.184,0.046,0.395,0.071,0.625l0.069-0.021
	c0.536-0.191,1.126,0.076,1.336,0.605c0.063,0.139,0.115,0.283,0.157,0.43c0.2,0.549,0.595,1.604,1.054,2.592
	c0.25,0.595,0.563,1.162,0.935,1.689c0.038-0.056,0.073-0.113,0.105-0.174l0.009-0.017c0.486-0.874,0.593-1.909,0.296-2.864
	c-0.163-0.559,0.149-1.146,0.704-1.324c0.552-0.175,1.142,0.131,1.316,0.684c0.003,0.006,0.005,0.014,0.007,0.021
	c0.196,0.659,0.284,1.345,0.259,2.031v0.017c-0.076,1.305-0.729,3.408-2.217,3.863l-0.057,0.018
	c-1.759,0.537-2.962-2.337-3.477-3.568c-0.022-0.055-0.043-0.104-0.062-0.148c-0.065-0.152-0.127-0.291-0.184-0.422
	c0.167,2.004-0.022,4.021-0.56,5.957L23.25,85.89c-0.125,0.3-0.377,0.528-0.688,0.624c-0.56,0.17-1.152-0.145-1.324-0.704
	c-0.056-0.19-0.056-0.393,0.001-0.583l0.006-0.02c0.132-0.467,0.23-0.941,0.297-1.422c-0.117,0.123-0.265,0.213-0.428,0.264
	c-0.408,0.123-0.851-0.01-1.123-0.34c-0.443-0.418-0.917-0.803-1.416-1.15c0.215,0.748,0.404,1.444,0.576,2.115
	c0.035,0.113,0.07,0.254,0.113,0.4c0.165,0.508,0.281,1.029,0.348,1.56c0.048,0.507-0.263,0.979-0.747,1.136
	c-0.431,0.07-0.869,0.078-1.303,0.024c-0.432-0.017-0.859-0.076-1.278-0.179c-0.329-0.102-0.586-0.359-0.688-0.688
	c-0.163-0.559,0.148-1.146,0.703-1.323c0.302-0.05,0.61-0.041,0.909,0.027c-0.182-0.718-0.378-1.453-0.591-2.206
	c-0.018,0.052-0.036,0.105-0.056,0.16c-0.203,0.543-0.437,1.075-0.699,1.592c-0.259,0.523-0.548,1.031-0.865,1.52
	c-0.476,0.718-0.739,0.876-0.936,0.936c-0.559,0.17-1.149-0.143-1.322-0.699c-0.125-0.383-0.014-0.802,0.284-1.071
	c0.736-1.07,1.311-2.245,1.702-3.483l0.007-0.025c0.024-0.085,0.059-0.168,0.1-0.246c-0.029,0.009-0.059,0.018-0.088,0.027
	c-0.519,0.16-1.075-0.1-1.286-0.601c-0.095-0.214-0.172-0.435-0.23-0.661c-0.019-0.06-0.036-0.117-0.053-0.172
	c-0.196-0.573-0.364-1.123-0.542-1.705l-0.409-1.338c-0.078-0.254-0.063-0.528,0.046-0.771l-0.43,0.176
	c-0.179,0.072-0.361,0.163-0.555,0.259s-0.405,0.2-0.616,0.286l-0.045,0.014l-0.114,0.035C9.962,77.842,9.366,77.549,9.18,77
	c-0.003-0.008-0.005-0.015-0.007-0.021c-0.136-0.471,0.058-0.973,0.474-1.23l0,0c0.482-0.287,0.994-0.52,1.527-0.697l0.28-0.107
	c0.813-0.318,1.623-0.625,2.429-0.921c-0.114-0.067-0.215-0.157-0.296-0.264c-0.424-0.581-0.791-1.2-1.099-1.851
	c-0.17-0.561,0.147-1.153,0.708-1.322C13.198,70.585,13.199,70.584,13.2,70.584z M14.511,73.096
	c-0.042-0.092-0.237-0.385-0.369-0.576c-0.21-0.292-0.398-0.598-0.564-0.918c-0.035-0.077-0.056-0.071-0.086-0.063
	c-0.031,0.01-0.05,0.043-0.04,0.074c0,0,0,0,0,0.002c0.276,0.533,0.59,1.047,0.938,1.536c0.021,0.02,0.053,0.024,0.079,0.014
	C14.495,73.151,14.511,73.125,14.511,73.096z M19.49,73.305c-0.029-0.006-0.06-0.005-0.088,0.002l-0.026,0.008
	c-0.192,0.026-0.381,0.07-0.565,0.129c-0.107,0.033-0.219,0.068-0.327,0.101c-0.108,0.033-0.22,0.072-0.328,0.106
	c-2.054,0.627-4.181,1.375-6.326,2.225l-0.297,0.112c-0.46,0.153-0.903,0.351-1.323,0.593c-0.014,0.004-0.09,0.064-0.076,0.109
	c0.014,0.043,0.065,0.021,0.088,0.014l0.096-0.029c0.173-0.072,0.349-0.158,0.534-0.25c0.199-0.098,0.405-0.199,0.616-0.286
	c2.132-0.876,4.4-1.683,6.741-2.397c0.222-0.068,0.438-0.123,0.649-0.177c0.211-0.053,0.405-0.104,0.605-0.165
	c0.031-0.01,0.049-0.041,0.04-0.072c0-0.002,0-0.002-0.001-0.002C19.498,73.316,19.494,73.311,19.49,73.305L19.49,73.305z
	 M22.401,75.039l-0.085-0.587c-0.019-0.126-0.037-0.272-0.057-0.429c-0.05-0.481-0.132-0.958-0.246-1.428
	c-0.018-0.056-0.087-0.037-0.095-0.034l-0.006,0.002c-0.014,0.03-0.018,0.064-0.011,0.097l0.394,2.438l-0.387,0.143
	c-0.188,0.068-0.404,0.14-0.63,0.214c-0.574,0.163-1.13,0.388-1.654,0.671c-0.021,0.012-0.038,0.027-0.052,0.047
	c0,0,0.003,0.01,0.009,0.029c0.007,0.021,0.015,0.047,0.043,0.049l0.012-0.004c0.469-0.264,0.967-0.472,1.484-0.618
	c0.191-0.059,0.387-0.124,0.581-0.195l0.598-0.218l0.071,0.631c0.345,3.031,0.636,6.869-0.162,9.622
	c-0.006,0.024-0.009,0.038-0.01,0.047c0.013,0.028,0.044,0.043,0.073,0.033c0.028-0.009,0.051-0.031,0.061-0.06
	c0.763-2.011,0.565-6.426,0.124-9.895l-0.051-0.402l0.384-0.133c0.979-0.34,2.089-0.723,3.169-1.053
	c0.11-0.029,0.217-0.07,0.317-0.123c0,0-0.003-0.01-0.004-0.016c-0.004-0.016-0.009-0.031-0.015-0.047
	c-0.094,0.002-0.186,0.02-0.273,0.053c-0.67,0.204-1.35,0.431-2.005,0.648c-0.33,0.111-0.672,0.225-1.01,0.335L22.401,75.039z
	 M13.503,77.877l-0.201-0.536c-0.018-0.058-0.056-0.078-0.104-0.063c-0.017,0.006-0.027,0.051-0.016,0.088l0.41,1.34
	c0.175,0.573,0.342,1.12,0.534,1.68l0.005,0.016c0.02,0.064,0.04,0.131,0.061,0.199c0.044,0.173,0.103,0.344,0.173,0.508l0.003,0.01
	c0.036,0.078,0.074,0.066,0.087,0.063c0.011-0.001,0.021-0.005,0.03-0.009c0.012-0.027,0.018-0.057,0.019-0.086l0.021-0.297
	l0.276-0.124c0.421-0.191,0.887-0.376,1.343-0.54l0.493-0.176l0.415,1.357c0.519,1.699,0.949,3.266,1.313,4.775l0.151,0.633
	l-0.651-0.016c-0.116-0.004-0.291-0.025-0.567-0.063c-0.203-0.026-0.563-0.074-0.711-0.078c-0.018,0.017-0.025,0.04-0.022,0.063l0,0
	c0.022,0.015,0.047,0.026,0.073,0.035l0,0c0.643,0.11,1.294,0.155,1.946,0.137c0.028-0.028,0.042-0.067,0.037-0.107
	c-0.065-0.458-0.171-0.91-0.313-1.351c-0.047-0.15-0.085-0.295-0.119-0.424c-0.283-1.11-0.624-2.313-1.041-3.678l-0.409-1.34
	l0.455-0.156c0.474-0.164,1.068-0.369,1.632-0.541c0.027-0.015,0.043-0.044,0.04-0.074c-0.005-0.014-0.006-0.02-0.035-0.027
	l-0.306-0.082l-0.057-0.313c-0.02-0.108-0.039-0.217-0.059-0.327c-0.111-0.712-0.265-1.416-0.46-2.11c0,0,0,0-0.001-0.004
	c-0.041-0.016-0.218-0.059-0.776,0.113l-0.212,0.064l-0.156,0.047c-0.966,0.28-1.902,0.654-2.796,1.117L13.503,77.877z
	 M19.93,77.206c-0.241,0.075-0.502,0.06-0.731-0.046c0.07,0.348,0.132,0.692,0.193,1.039l0.013,0.07
	c0.199,0.133,0.347,0.33,0.415,0.56c0.163,0.56-0.149,1.146-0.704,1.323c-0.383,0.117-0.776,0.25-1.141,0.373l0.11,0.363
	c0.133-0.191,0.326-0.331,0.547-0.4c0.306-0.092,0.637-0.041,0.9,0.139l0.008,0.006c0.213,0.145,0.72,0.524,1.174,0.903
	c0.357,0.272,0.682,0.588,0.965,0.938c0.082-1.97,0.004-3.942-0.235-5.899l-0.017,0.006c-0.434,0.121-0.852,0.291-1.248,0.506
	C20.104,77.141,20.02,77.182,19.93,77.206z M27.116,83.035l-0.227-0.12c-0.317-0.169-0.789-0.596-1.619-2.397
	c-0.474-1.029-0.887-2.121-1.09-2.68l-0.008-0.025c-0.028-0.103-0.063-0.203-0.105-0.301l-0.007-0.023
	c-0.037-0.083-0.054-0.088-0.112-0.07c-0.013,0.035-0.015,0.072-0.006,0.107c0.016,0.049,0.033,0.106,0.06,0.163
	c0.027,0.057,0.053,0.137,0.077,0.215c0.245,0.643,0.409,1.019,0.636,1.54c0.064,0.146,0.134,0.305,0.21,0.484
	c0.021,0.049,0.042,0.1,0.065,0.154c0.286,0.729,0.639,1.43,1.054,2.095c0.322,0.481,0.795,1.03,1.208,0.903l0.057-0.018
	c0.927-0.283,1.448-1.929,1.51-2.957c0.021-0.576-0.052-1.152-0.216-1.705c-0.013-0.041-0.033-0.053-0.075-0.039
	c-0.027,0.014-0.043,0.044-0.04,0.074c0.376,1.219,0.237,2.537-0.382,3.651c-0.167,0.344-0.429,0.632-0.755,0.831L27.116,83.035z
	 M16.086,81.598l-0.105-0.346c-0.187,0.072-0.367,0.146-0.543,0.223c-0.018,0.049-0.038,0.097-0.062,0.143
	c0.026-0.008,0.054-0.016,0.078-0.023c0.205-0.064,0.426-0.064,0.631,0L16.086,81.598z M18.993,81.473
	c-0.047-0.029-0.059-0.026-0.066-0.023c-0.027,0.014-0.043,0.044-0.04,0.074c0.003,0.01,0.01,0.019,0.018,0.023l0.017,0.012
	l0.159,0.117c0.591,0.408,1.147,0.864,1.665,1.363c0.05,0.056,0.069,0.049,0.082,0.045c0.012-0.014,0.019-0.031,0.021-0.051
	c-0.568-0.578-1.189-1.104-1.855-1.566L18.993,81.473z M15.813,82.57c-0.017-0.018-0.041-0.027-0.065-0.025
	c-0.007,0.002-0.029,0.01-0.054,0.089c-0.433,1.408-1.094,2.736-1.955,3.931l-0.016,0.016c-0.013,0.012-0.023,0.023-0.032,0.038
	c0,0,0.003,0.009,0.008,0.024c0.007,0.023,0.026,0.039,0.051,0.043c0.5-0.592,0.912-1.252,1.225-1.961
	c0.375-0.678,0.657-1.404,0.838-2.158L15.813,82.57z M39.864,62.851c0.559-0.198,1.173,0.095,1.37,0.654
	c0.002,0.005,0.003,0.009,0.005,0.013c0.18,0.549-0.096,1.143-0.63,1.361c-0.168,0.072-0.333,0.135-0.493,0.194
	c-0.161,0.06-0.302,0.112-0.438,0.173l-0.013,0.004l-0.136,0.056c-0.335,0.14-0.681,0.282-1.028,0.429
	c0.102,0.107,0.183,0.23,0.241,0.366l0.003,0.011c0.235,0.598,0.438,1.207,0.608,1.826l0.03,0.102
	c0.883-0.299,1.775-0.588,2.666-0.859c0.133-0.041,0.269-0.082,0.411-0.125c0.142-0.045,0.296-0.096,0.447-0.143
	c0.308-0.099,0.62-0.176,0.938-0.23c0.566-0.105,1.118,0.244,1.265,0.801c0.144,0.559-0.181,1.129-0.734,1.291
	c-0.313,0.096-0.636,0.184-0.947,0.27c-0.313,0.084-0.62,0.168-0.92,0.26c-0.842,0.258-1.686,0.529-2.514,0.813
	c0.122,0.399,0.234,0.804,0.348,1.196c0.106,0.373,0.215,0.752,0.327,1.131c0.63-0.24,1.307-0.488,1.983-0.695l0.216-0.065
	c0.269-0.099,0.557-0.136,0.842-0.108c0.409,0.063,0.741,0.365,0.839,0.768c0.117,0.383,0.202,0.785,0.283,1.168
	c0.024,0.117,0.05,0.234,0.074,0.35c0.262,1.135,0.452,2.059,0.6,2.911c0.458-0.002,0.859,0.304,0.979,0.746
	c0.167,0.567-0.156,1.161-0.723,1.329c-1.464,0.448-2.835,0.916-4.076,1.393l-0.072,0.021c-0.84,0.295-1.658,0.649-2.447,1.063
	c-0.075,0.051-0.158,0.089-0.246,0.112c-0.485,0.147-1.008-0.058-1.262-0.495l-0.015-0.024c-0.255-0.517-0.459-1.058-0.61-1.614
	c-0.365-1.057-0.718-2.142-1.048-3.223c-0.029-0.096-0.064-0.209-0.104-0.32c-0.116-0.318-0.205-0.645-0.267-0.978
	c-0.112-0.534,0.207-1.065,0.731-1.218c0.39-0.123,0.815-0.016,1.101,0.277c0.265-0.139,0.648-0.32,1.217-0.57
	c-0.129-0.422-0.248-0.848-0.367-1.264c-0.11-0.385-0.224-0.777-0.34-1.168c-1.396,0.455-2.735,1.066-3.994,1.82
	c-0.092,0.061-0.192,0.107-0.299,0.136c-0.405,0.124-0.847-0.002-1.127-0.321c0.039,0.07,0.069,0.144,0.093,0.219
	c0.145,0.493-0.077,1.02-0.53,1.26l-0.009,0.002c-0.798,0.41-1.632,0.746-2.492,1.002c-1.207,0.369-1.538-0.378-1.61-0.616
	c-0.191-0.566,0.112-1.181,0.679-1.373c0.003-0.001,0.005-0.002,0.008-0.003l0.319-0.098c0.731-0.223,1.444-0.502,2.134-0.834
	l0.034-0.018l0.132-0.039c0.396-0.125,0.829-0.002,1.102,0.311c-0.035-0.064-0.064-0.133-0.085-0.203
	c-0.127-0.43,0.026-0.894,0.385-1.164l0.011-0.01c1.465-0.875,3.019-1.592,4.636-2.135c-0.08-0.26-0.159-0.505-0.236-0.744
	c-0.115-0.377-0.243-0.762-0.379-1.207c-0.025-0.083-0.042-0.168-0.05-0.254c-0.576,0.281-1.133,0.604-1.665,0.962
	c-0.104,0.073-0.219,0.13-0.339,0.171c-0.57,0.174-1.174-0.147-1.349-0.718c-0.133-0.411-0.002-0.862,0.33-1.14
	C35.611,64.625,37.693,63.621,39.864,62.851z M40.283,63.811c-0.04-0.016-0.085-0.018-0.127-0.004
	c-2.03,0.729-3.981,1.659-5.827,2.776l-0.008,0.003c-0.056,0.048-0.051,0.064-0.04,0.101c0.013,0.04,0.055,0.064,0.096,0.055
	c0.021-0.01,0.041-0.021,0.06-0.033l0.007-0.002c1.486-0.931,3.062-1.708,4.703-2.323l0.13-0.054
	c0.162-0.073,0.328-0.134,0.49-0.194c0.161-0.059,0.299-0.11,0.439-0.172C40.299,63.922,40.304,63.882,40.283,63.811z M37.825,66.5
	c-0.047-0.104-0.079-0.095-0.129-0.08l-0.008,0.003c-0.013,0.034-0.014,0.071-0.001,0.104c0.133,0.438,0.257,0.823,0.376,1.197
	c0.119,0.373,0.243,0.762,0.38,1.207l0.139,0.455l-0.448,0.162c-1.671,0.544-3.28,1.262-4.802,2.143
	c-0.071,0.061-0.063,0.084-0.06,0.098c0.013,0.041,0.058,0.065,0.1,0.053l0,0l0.04-0.012c1.46-0.87,3.016-1.568,4.636-2.082
	l0.564-0.203l0.154,0.502c0.17,0.559,0.335,1.133,0.495,1.688c0.159,0.557,0.321,1.121,0.489,1.672l0.129,0.42l-0.398,0.182
	l-0.219,0.098c-0.554,0.221-1.09,0.479-1.607,0.774l-0.096,0.157l0.092,0.027l0.015-0.004l0.02-0.014
	c0.588-0.35,1.206-0.646,1.847-0.887l0.093-0.037c1.15-0.485,2.269-0.902,3.32-1.248l0.519-0.167l0.123,0.53
	c0.343,1.463,0.643,2.934,0.896,4.377l0.075,0.426l-0.41,0.135c-1.71,0.543-3.388,1.182-5.026,1.909l-0.491,0.226l-0.187-0.508
	c-0.423-1.146-0.835-2.389-1.334-4.021l0,0l-0.327-1.072c-0.015-0.046-0.023-0.093-0.027-0.142c-0.02-0.045-0.071-0.064-0.115-0.045
	c-0.001,0-0.002,0-0.003,0.001c-0.03,0.009-0.05,0.015-0.036,0.101l0.003,0.008c0.053,0.276,0.129,0.549,0.227,0.813
	c0.035,0.115,0.077,0.232,0.111,0.346c0.328,1.072,0.678,2.148,1.041,3.197l0.005,0.018c0.132,0.481,0.305,0.951,0.517,1.404
	c0.061,0.086,0.101,0.08,0.122,0.072l0.009-0.002l0.023-0.014c0.838-0.442,1.708-0.822,2.603-1.137l0.069-0.021
	c1.261-0.482,2.654-0.959,4.141-1.412c0.032-0.011,0.068-0.053,0.06-0.082c-0.003-0.012-0.007-0.025-0.012-0.037
	c-0.095-0.006-0.188,0.008-0.277,0.042l-0.55,0.169l-0.09-0.568c-0.153-0.971-0.36-2-0.668-3.336
	c-0.027-0.123-0.053-0.242-0.078-0.363c-0.077-0.365-0.157-0.744-0.262-1.086c-0.007-0.024-0.017-0.049-0.03-0.07
	c-0.138-0.002-0.274,0.023-0.402,0.076l-0.215,0.065c-0.825,0.253-1.672,0.577-2.418,0.864l-0.501,0.191l-0.158-0.518
	c-0.168-0.55-0.33-1.113-0.486-1.66c-0.157-0.546-0.316-1.102-0.481-1.643l-0.141-0.459l0.455-0.158
	c0.984-0.343,1.99-0.672,3.003-0.98c0.313-0.096,0.636-0.185,0.948-0.27c0.312-0.084,0.619-0.168,0.919-0.26
	c0.027-0.012,0.051-0.031,0.065-0.059c-0.033-0.11-0.089-0.101-0.133-0.093l-0.01,0.003c-0.273,0.049-0.544,0.115-0.809,0.2
	c-0.144,0.044-0.287,0.088-0.432,0.138c-0.145,0.049-0.287,0.088-0.428,0.131c-1.041,0.318-2.091,0.66-3.121,1.017L38.73,69.32
	l-0.151-0.492c-0.063-0.205-0.125-0.41-0.181-0.609C38.238,67.637,38.047,67.063,37.825,66.5z M31.614,73.08
	c0.024-0.014,0.071-0.047,0.058-0.092c-0.002-0.008-0.023-0.076-0.08-0.059l-0.06,0.018c-0.725,0.348-1.475,0.64-2.242,0.875
	L28.97,73.92c-0.053,0.016-0.034,0.114-0.028,0.135c0.004,0.014,0.004,0.014,0,0c0.123,0.01,0.246-0.007,0.361-0.051
	C30.1,73.768,30.874,73.458,31.614,73.08z M43.417,77.355c-0.202-1.112-0.432-2.239-0.687-3.363
	c-0.872,0.299-1.787,0.651-2.725,1.043l-0.104,0.042c-0.579,0.216-1.138,0.481-1.671,0.793l-0.012,0.003l-0.03,0.023
	c0.361,1.184,0.687,2.154,1.003,3.039c1.438-0.619,2.911-1.141,4.225-1.578L43.417,77.355z M23.25,68.16
	c0.519-0.164,1.075,0.104,1.272,0.609c0.014,0.047,0.039,0.094,0.059,0.143c0.195,0.566,0.489,1.094,0.868,1.557l0.03,0.025
	c0.16,0.139,0.277,0.32,0.339,0.523c0.167,0.549-0.142,1.13-0.69,1.299c-0.321,0.107-0.674,0.051-0.945-0.15
	c-0.765-0.748-1.329-1.676-1.641-2.699C22.376,68.911,22.693,68.326,23.25,68.16C23.25,68.16,23.25,68.16,23.25,68.16z
	 M24.821,71.246c-0.522-0.558-0.918-1.222-1.16-1.946c-0.021-0.052-0.041-0.099-0.061-0.144l-0.004-0.016
	c-0.009-0.029-0.026-0.029-0.05-0.022c-0.024,0.007-0.05,0.042-0.046,0.056c0.253,0.814,0.688,1.561,1.271,2.182
	c0.018,0.014,0.022,0.016,0.065,0.004c0.021-0.006,0.033-0.026,0.028-0.047c-0.001-0.002-0.001-0.002-0.002-0.004
	C24.857,71.283,24.842,71.261,24.821,71.246L24.821,71.246z M85.017,49.443c0.587-0.152,1.188,0.195,1.347,0.78
	c0.143,0.501,0.26,1.009,0.352,1.522c0.034,0.18,0.067,0.349,0.104,0.516c0.498,2.242,1.019,4.56,1.708,6.816
	c0.229,0.775,0.497,1.537,0.804,2.285c0.642,1.516,1.025,1.646,1.043,1.65l0.011,0.004c0.372,0.088,0.67,0.367,0.781,0.733
	c0.181,0.573-0.137,1.184-0.708,1.366c-0.165,0.053-0.34,0.066-0.511,0.041c-1.771-0.273-2.866-3.219-3.537-5.412
	c-0.646-2.113-1.142-4.322-1.621-6.459l-0.126-0.563c-0.053-0.256-0.117-0.525-0.178-0.781c-0.094-0.396-0.19-0.805-0.265-1.208
	C84.091,50.16,84.444,49.586,85.017,49.443z M90.085,63.969c-0.568-0.175-1.368-0.861-2.511-4.6
	c-0.702-2.295-1.224-4.633-1.73-6.895l-0.002-0.008c-0.037-0.174-0.073-0.356-0.107-0.532c-0.086-0.479-0.195-0.952-0.329-1.42
	c-0.017-0.05-0.054-0.092-0.102-0.115c-0.122,0.037-0.116,0.071-0.101,0.151c0.067,0.381,0.161,0.775,0.249,1.158
	c0.063,0.266,0.127,0.539,0.185,0.807l0.123,0.552c0.476,2.118,0.966,4.306,1.602,6.386c1.141,3.73,2.116,4.623,2.734,4.716
	l0.007-0.002c0.021,0.001,0.042-0.001,0.063-0.006c0.043-0.022,0.063-0.073,0.048-0.118c-0.003-0.01-0.005-0.018-0.008-0.026
	c-0.04-0.021-0.08-0.036-0.123-0.048H90.085z M137.099,33.938c0.572-0.182,1.185,0.134,1.366,0.707
	c0.003,0.008,0.005,0.016,0.008,0.023c0.032,0.096,0.05,0.197,0.05,0.298c0.053,0.84,0.208,1.67,0.463,2.473
	c0.332,1.13,0.831,2.204,1.48,3.188c0.648-0.653,1.419-1.173,2.268-1.53c0.578-0.187,1.198,0.13,1.385,0.708
	c0.174,0.536-0.086,1.117-0.602,1.344l-0.157,0.082c-0.202,0.098-0.397,0.21-0.584,0.336l0,0c-0.862,0.625-1.604,1.402-2.189,2.292
	c-0.597,0.762-0.85,1.737-0.697,2.693c0.267,0.87,1.519,0.687,2.521,0.38c0.896-0.359,1.657-0.99,2.175-1.805
	c0.138-0.223,0.352-0.389,0.603-0.467c0.58-0.169,1.189,0.155,1.373,0.73c0.097,0.293,0.063,0.613-0.093,0.879
	c-0.813,1.262-2.013,2.227-3.42,2.746c-0.957,0.32-1.977,0.404-2.973,0.246c-1.1-0.186-1.993-0.991-2.29-2.066
	c-0.373-1.729,0.07-3.535,1.201-4.895c-0.945-1.287-1.662-2.727-2.117-4.258c-0.334-0.986-0.52-2.017-0.55-3.058l0.001-0.015
	C136.332,34.496,136.645,34.08,137.099,33.938z M137.522,34.979c-0.002-0.006-0.004-0.012-0.006-0.019
	c-0.009-0.049-0.057-0.082-0.106-0.072c-0.006,0.001-0.013,0.003-0.019,0.005c-0.017,0.005-0.063,0.02-0.072,0.141
	c0.041,0.925,0.212,1.84,0.507,2.717c0.427,1.532,1.167,2.96,2.172,4.192l0.289,0.314l-0.266,0.334
	c-0.699,0.884-1.796,2.621-1.279,4.311c0.602,1.969,3.008,1.465,4.014,1.158c1.152-0.446,2.14-1.235,2.829-2.261
	c0.014-0.021,0.023-0.046,0.031-0.069c-0.003-0.017-0.008-0.031-0.015-0.047c-0.022-0.047-0.073-0.074-0.125-0.066
	c-0.013,0.004-0.025,0.008-0.063,0.066l-0.01,0.014c-0.651,0.994-1.598,1.758-2.705,2.188c-2.745,0.839-3.541-0.295-3.77-1.044
	c-0.266-1.238,0.031-2.53,0.81-3.529c0.657-0.998,1.489-1.867,2.456-2.568c0.227-0.153,0.464-0.288,0.711-0.405l0.153-0.08
	l0.005-0.001c0.133-0.068,0.124-0.099,0.104-0.166c-0.013-0.042-0.087-0.057-0.139-0.042c-0.852,0.401-1.616,0.968-2.248,1.667
	l-0.378,0.392l-0.359-0.413c-0.917-1.182-1.601-2.528-2.014-3.966c-0.28-0.887-0.45-1.804-0.506-2.732L137.522,34.979z
	 M120.675,39.043c0.099-0.035,0.203-0.052,0.308-0.051c1.224-0.08,3.294-0.002,3.709,1.354c0.093,0.306,0.146,0.914-0.464,2.663
	c-0.242,0.693-0.529,1.389-0.764,1.907c1.445,0.551,3.488,1.736,4.024,3.488c0.018,0.059,0.035,0.114,0.043,0.168
	c0.182,0.135,0.315,0.323,0.382,0.539c0.107,0.363,0.025,0.756-0.22,1.046c-0.135,2.038-1.519,3.778-3.474,4.37
	c-1.49,0.508-3.11-0.289-3.617-1.78c-0.007-0.019-0.013-0.038-0.019-0.057c-0.313-1.008,0.021-2.104,0.843-2.767
	c0.705-0.604,1.531-1.049,2.423-1.309c0.355-0.109,0.718-0.196,1.085-0.26c-0.848-0.842-1.932-1.404-3.107-1.613h-0.02
	c-0.493,0.016-0.937-0.299-1.085-0.77c-0.135-0.412-0.007-0.865,0.324-1.145c0.609-1.143,1.09-2.35,1.433-3.598
	c-0.379-0.045-0.76-0.061-1.141-0.045l-0.283,0.003c-0.504,0.019-0.957-0.308-1.098-0.793
	C119.783,39.823,120.103,39.219,120.675,39.043z M126.931,49.365l-0.24-0.08l-0.073-0.242c-0.024-0.078-0.04-0.15-0.054-0.216
	s-0.021-0.099-0.033-0.134c-0.403-1.322-2.272-2.518-3.91-3.014l-0.577-0.178l0.285-0.537c0.366-0.741,0.686-1.504,0.955-2.285
	c0.292-0.641,0.446-1.336,0.45-2.041c-0.148-0.487-1.242-0.746-2.721-0.646l-0.03,0.002L120.967,40
	c-0.042,0.013-0.065,0.058-0.053,0.1l0,0c0.015,0.048,0.034,0.088,0.13,0.084l0.01-0.003c0.082,0,0.173-0.002,0.271-0.002
	c0.668-0.063,1.342,0.028,1.97,0.264l0.298,0.158l-0.036,0.335c-0.35,1.616-0.955,3.165-1.796,4.589l-0.015,0.014
	c-0.029,0.026-0.056,0.056-0.077,0.087c0.003,0.018,0.008,0.035,0.015,0.051c0.005,0.014,0.017,0.053,0.166,0.061
	c1.381,0.021,3.905,1.485,4.441,2.839l0.262,0.659l-0.708,0.025c-0.576,0.028-1.146,0.133-1.695,0.309
	c-0.529,0.162-3.147,1.061-2.607,2.826c0.307,0.969,1.342,1.506,2.311,1.199c0.026-0.008,0.052-0.017,0.077-0.025
	c1.618-0.488,2.739-1.961,2.779-3.65l0.006-0.25l0.204-0.145c0.034-0.031,0.049-0.079,0.038-0.124
	c-0.006-0.012-0.014-0.022-0.024-0.03L126.931,49.365z M28.26,67.443c1.116-0.066,2.236,0.057,3.312,0.365l0.005-0.002
	c0.299,0.125,0.527,0.377,0.623,0.688c0.179,0.563-0.133,1.164-0.696,1.342c-0.007,0.002-0.014,0.005-0.021,0.007
	c-0.226,0.071-0.468,0.066-0.689-0.015c-0.708-0.178-1.435-0.267-2.164-0.264l-0.079-0.004c-0.458-0.007-0.857-0.314-0.981-0.754
	C27.384,68.238,27.693,67.63,28.26,67.443z M31.179,68.729c-0.861-0.212-1.745-0.322-2.632-0.326
	c-0.023,0.012-0.038,0.063-0.023,0.111s0.025,0.051,0.056,0.052l0.09,0.004c0.823-0.001,1.643,0.104,2.438,0.313l0.034,0.012
	c0,0,0.015,0.006,0.049-0.004c0.038-0.006,0.064-0.043,0.059-0.082c-0.001-0.006-0.003-0.012-0.006-0.018
	C31.24,68.777,31.232,68.752,31.179,68.729z M102.955,45.046c0.578-0.17,1.184,0.159,1.354,0.737l0.041,0.133l0.006,0.039
	c0.04,0.285,0.078,0.561,0.122,0.831c0.346-0.153,0.701-0.286,1.063-0.397c0.6-0.186,1.223-0.289,1.851-0.307
	c-0.054-0.326-0.131-0.646-0.23-0.962c-0.178-0.581,0.149-1.196,0.73-1.374l0,0c0.316-0.097,1.091-0.193,1.455,0.998
	c0.157,0.556,0.251,1.128,0.277,1.705c1.85,0.702,3.277,2.209,3.879,4.094c0.436,1.431,0.504,2.947,0.199,4.412l-0.004,0.016
	c-0.018,0.076-0.035,0.156-0.052,0.236c-0.043,0.219-0.099,0.436-0.167,0.648l0.002,0.006c-0.113,0.338-0.384,0.602-0.727,0.703
	c-0.549,0.193-1.151-0.094-1.346-0.643c-0.008-0.022-0.016-0.046-0.021-0.069c-0.057-0.19-0.063-0.392-0.019-0.584l0.005-0.03
	l0.197-0.848c0.211-1.065,0.151-2.168-0.172-3.205c-0.336-0.973-0.995-1.802-1.868-2.348c-0.224,1.829-0.748,3.609-1.554,5.266
	c-0.848,1.984-2.476,3.529-4.5,4.273c-0.959,0.353-2.014,0.338-2.962-0.041c-0.937-0.463-1.619-1.316-1.863-2.332
	c-0.446-1.633-0.171-3.379,0.756-4.795c0.788-1.287,1.83-2.398,3.062-3.27l-0.029-0.131c-0.135-0.53-0.226-1.071-0.271-1.617
	C102.127,45.672,102.455,45.194,102.955,45.046z M103.371,46.133l-0.018-0.058c-0.013-0.046-0.058-0.077-0.105-0.072
	c-0.054,0.009-0.09,0.06-0.081,0.114l0.005,0.016c0.042,0.492,0.125,0.979,0.247,1.457c0.035,0.154,0.071,0.313,0.104,0.469
	l0.069,0.331l-0.28,0.19c-1.23,0.813-2.269,1.883-3.043,3.138c-0.771,1.18-1.011,2.628-0.661,3.993
	c0.52,1.701,1.723,2.276,3.576,1.71c3.309-1.012,5.13-5.581,5.424-9.396l0.052-0.681l0.634,0.256
	c1.444,0.61,2.559,1.809,3.063,3.294c0.374,1.2,0.439,2.474,0.192,3.706l-0.004,0.015l-0.195,0.841
	c-0.014,0.089-0.014,0.092-0.009,0.107c0.005,0.021,0.015,0.041,0.028,0.059c0.031,0.004,0.063,0,0.091-0.012
	c0.03-0.01,0.052-0.016,0.079-0.084c0.054-0.174,0.098-0.35,0.132-0.528c0.019-0.084,0.036-0.167,0.056-0.248
	c0.274-1.3,0.213-2.649-0.178-3.919c-0.548-1.68-1.866-2.997-3.548-3.541l-0.346-0.104l-0.015-0.354
	c-0.011-0.609-0.097-1.216-0.255-1.805c-0.026-0.126-0.083-0.244-0.166-0.343c-0.014,0.003-0.027,0.007-0.04,0.012
	c-0.053,0.017-0.082,0.072-0.066,0.125l0,0c0.184,0.564,0.294,1.149,0.329,1.741l0.028,0.566l-0.566-0.042
	c-0.7-0.042-1.402,0.046-2.07,0.261c-0.516,0.16-1.017,0.367-1.497,0.617l-0.576,0.295l-0.14-0.633
	C103.51,47.129,103.439,46.623,103.371,46.133z M51.91,60.799c0.584-0.168,1.193,0.17,1.361,0.754
	c0.002,0.008,0.004,0.014,0.005,0.021c0.059,0.2,0.098,0.407,0.116,0.615c0.324-0.114,0.651-0.222,0.978-0.321l0.153-0.047
	l0.212-0.065c0.305-0.106,0.626-0.155,0.948-0.144c0.446,0.022,0.828,0.326,0.951,0.755c0.181,0.574-0.138,1.187-0.712,1.368
	c-0.168,0.051-0.334,0.09-0.494,0.129c-0.161,0.039-0.293,0.07-0.436,0.113c-0.529,0.162-1.063,0.354-1.586,0.548
	c-0.036,0.87-0.113,1.792-0.231,2.794c0.296-0.029,0.594-0.042,0.891-0.039c0.658-1.198,1.114-1.75,1.55-1.883
	c0.569-0.191,1.188,0.114,1.379,0.684c0.003,0.008,0.005,0.015,0.008,0.021c0.119,0.381,0.023,0.797-0.251,1.086
	c-0.139,0.164-0.267,0.337-0.383,0.518c0.62,0.158,1.142,0.574,1.433,1.143c0.187,0.564-0.12,1.174-0.685,1.359
	c-0.015,0.006-0.03,0.01-0.046,0.016c-0.358,0.111-0.749,0.033-1.038-0.207c-0.208-0.158-0.444-0.277-0.696-0.352
	c-0.499,0.961-0.735,2.035-0.684,3.117c0.002,0.008,0.005,0.016,0.008,0.023c0.024,0.01,0.159,0.051,0.58-0.078
	c0.786-0.266,1.531-0.64,2.215-1.109c0.151-0.115,0.321-0.205,0.502-0.266c0.57-0.174,1.174,0.146,1.349,0.715
	c0.002,0.008,0.004,0.015,0.006,0.021c0.15,0.481-0.048,1.002-0.479,1.263l-0.007,0.002c-0.213,0.118-0.428,0.246-0.637,0.368
	c-0.703,0.451-1.458,0.817-2.248,1.09c-1.676,0.512-2.976-0.02-3.395-1.389c-0.246-1.305-0.081-2.653,0.475-3.859
	c-0.29,0.054-0.576,0.125-0.857,0.215c-0.578,0.188-1.199-0.127-1.387-0.705l0,0c-0.068-0.234-0.063-0.482,0.016-0.713
	c0.198-0.955,0.315-1.926,0.353-2.9c-0.232,0.105-0.457,0.213-0.679,0.329l-0.573,0.333l-0.034,0.011l-0.019,0.005
	c-0.048,0.025-0.098,0.047-0.149,0.064c-0.58,0.168-1.189-0.155-1.374-0.73c-0.137-0.475,0.054-0.982,0.468-1.25l0.008-0.002
	c0.739-0.445,1.516-0.826,2.321-1.139l0.115-0.049c-0.001-0.313-0.032-0.627-0.093-0.934l-0.005-0.016
	C51.013,61.517,51.353,60.955,51.91,60.799z M52.445,63.615l-0.018-0.742c0.006-0.34-0.029-0.678-0.106-1.008
	c-0.012-0.039-0.063-0.127-0.117-0.11c-0.07,0.021-0.101,0.048-0.085,0.144c0.092,0.484,0.13,0.979,0.114,1.471l-0.005,0.326
	l-0.3,0.127l-0.425,0.181c-0.748,0.29-1.47,0.642-2.158,1.051c-0.033,0.022-0.082,0.075-0.066,0.125
	c0.021,0.044,0.064,0.071,0.112,0.07l0.01-0.003c0.023-0.008,0.05-0.025,0.078-0.037l0.518-0.299
	c0.486-0.254,1.003-0.48,1.501-0.695l0.739-0.318L52.195,64.7c-0.029,1.325-0.176,2.646-0.438,3.944
	c-0.03,0.1-0.024,0.12-0.019,0.137c0.005,0.016,0.069,0.063,0.138,0.041c0.615-0.203,1.258-0.315,1.905-0.332l0.765-0.01
	l-0.297,0.703c-0.646,1.21-0.905,2.589-0.741,3.95c0.336,1.099,1.488,0.925,2.146,0.724c0.716-0.25,1.398-0.586,2.035-0.998
	c0.212-0.125,0.431-0.254,0.651-0.377c0.023-0.029,0.031-0.068,0.022-0.104c0,0-0.029-0.096-0.106-0.072
	c-0.077,0.029-0.149,0.071-0.215,0.122c-0.771,0.532-1.613,0.954-2.502,1.252c-1.314,0.401-1.715-0.208-1.838-0.609
	c-0.373-1.22,0.504-3.343,0.898-4.199l0.163-0.354l0.384,0.072c0.549,0.088,1.068,0.309,1.513,0.643l0.008,0.006
	c0.029,0.03,0.073,0.04,0.112,0.025c0.08-0.023,0.085-0.064,0.066-0.125c-0.051-0.139-0.563-0.455-1.354-0.668l-0.63-0.166
	l0.322-0.564c0.233-0.43,0.508-0.835,0.818-1.211l0.008-0.01c0.06-0.066,0.051-0.096,0.041-0.128
	c-0.02-0.063-0.098-0.052-0.128-0.044c-0.069,0.039-0.379,0.285-1.116,1.672l-0.149,0.279l-0.317-0.014
	c-0.549-0.028-1.1,0.009-1.64,0.111l-0.683,0.133l0.091-0.689c0.168-1.223,0.274-2.453,0.317-3.688l0.01-0.336l0.315-0.117
	c0.635-0.236,1.291-0.48,1.955-0.684c0.168-0.051,0.334-0.09,0.495-0.129c0.16-0.039,0.292-0.069,0.435-0.113
	c0.043-0.022,0.063-0.072,0.048-0.119c-0.005-0.016-0.012-0.03-0.021-0.043c-0.009-0.006-0.125-0.066-0.634,0.088l-0.19,0.059
	l-0.171,0.053c-0.521,0.16-1.046,0.34-1.555,0.537L52.445,63.615z M91.173,48.92c0.557-0.189,1.162,0.107,1.353,0.664
	c0.004,0.012,0.008,0.023,0.012,0.035c0.022,0.02,0.046,0.035,0.071,0.049c0.606-0.035,1.128,0.428,1.163,1.033
	c0.032,0.543-0.337,1.027-0.868,1.141c-0.188,0.043-0.381,0.051-0.571,0.021c-0.862-0.119-1.587-0.71-1.877-1.531
	c-0.199-0.574,0.105-1.2,0.68-1.398C91.147,48.929,91.16,48.925,91.173,48.92z M92.632,50.88c0.149-0.052,0.13-0.117,0.122-0.142
	c-0.008-0.025-0.022-0.074-0.177-0.068l-0.009,0.002c-0.426-0.031-0.798-0.296-0.967-0.688c-0.041-0.135-0.072-0.125-0.137-0.105
	c-0.025,0.008-0.095,0.029-0.055,0.164c0.18,0.443,0.58,0.758,1.054,0.828l0.021,0.002C92.533,50.879,92.583,50.882,92.632,50.88z
	 M74.054,54.698c0.439-0.14,0.919,0.026,1.176,0.409c0.136,0.191,0.244,0.399,0.323,0.619c0.292-0.071,0.592-0.139,0.899-0.189
	c0.544-0.109,1.082,0.213,1.243,0.744c0.186,0.566-0.123,1.176-0.689,1.361c-0.008,0.002-0.015,0.004-0.021,0.007
	c-0.202,0.062-0.413,0.109-0.62,0.153c0.41,1.07,0.758,2.076,1.059,3.059c0.09,0.293,0.182,0.595,0.263,0.901
	c0.646-0.107,1.297-0.173,1.95-0.196l0.007-0.002c0.51-0.025,0.972,0.298,1.121,0.786c0.171,0.577-0.159,1.183-0.735,1.354
	c-0.093,0.031-0.19,0.047-0.289,0.045c-0.637,0.042-1.237,0.105-1.823,0.193c-0.125,1.502-0.731,3.225-2.116,3.648
	c-1.546,0.617-3.3-0.135-3.918-1.681c-0.009-0.021-0.017-0.042-0.024-0.063c-0.276-0.945,0.123-1.959,0.971-2.461
	c0.669-0.473,1.411-0.832,2.198-1.061c0.175-0.054,0.343-0.1,0.513-0.143c-0.065-0.242-0.139-0.48-0.213-0.723
	c-0.299-0.977-0.655-2.004-1.063-3.061c-0.807,0.225-1.524,0.693-2.055,1.342c-0.146,0.229-0.368,0.399-0.627,0.48
	c-0.58,0.169-1.189-0.154-1.374-0.73c-0.085-0.277-0.055-0.578,0.085-0.834c0.747-1.105,1.861-1.913,3.146-2.277
	c-0.044-0.102-0.082-0.203-0.115-0.309C73.146,55.492,73.472,54.877,74.054,54.698C74.053,54.698,74.053,54.698,74.054,54.698z
	 M74.374,55.646c-0.01,0.002-0.019,0.004-0.027,0.008c-0.053,0.016-0.082,0.072-0.066,0.125l0,0c0.045,0.133,0.099,0.264,0.16,0.389
	c0.047,0.103,0.095,0.208,0.137,0.316l0.19,0.485l-0.494,0.17c-1.228,0.286-2.32,0.985-3.095,1.981l0,0
	c-0.022,0.043-0.018,0.058-0.013,0.073c0.022,0.047,0.073,0.073,0.125,0.066c0.035-0.013,0.065-0.038,0.082-0.071
	c0.77-0.948,1.83-1.617,3.018-1.901l0.452-0.157l0.176,0.445c0.491,1.24,0.918,2.446,1.267,3.586
	c0.127,0.416,0.258,0.846,0.348,1.281l0.097,0.473l-0.521,0.127c-0.304,0.074-0.594,0.145-0.887,0.234
	c-0.687,0.209-2.897,0.99-2.506,2.271c0.441,1.04,1.643,1.525,2.683,1.084c0.004-0.002,0.008-0.003,0.011-0.004
	c0.938-0.287,1.399-1.826,1.433-3.135l0.011-0.41l0.405-0.07c0.779-0.132,1.565-0.223,2.355-0.271l0.027-0.001
	c0.047-0.013,0.077-0.058,0.072-0.106c-0.007-0.021-0.024-0.08-0.145-0.078c-0.758,0.031-1.513,0.123-2.257,0.271l-0.481,0.094
	l-0.102-0.48c-0.092-0.43-0.22-0.848-0.355-1.289c-0.343-1.123-0.751-2.28-1.244-3.531l-0.209-0.53l0.554-0.138
	c0.153-0.039,0.314-0.072,0.469-0.105c0.225-0.047,0.458-0.096,0.656-0.156c0.046-0.014,0.065-0.063,0.048-0.119
	s-0.057-0.062-0.126-0.049c-0.417,0.067-0.821,0.171-1.251,0.277l-0.425,0.109l-0.163-0.408c-0.026-0.068-0.053-0.141-0.081-0.217
	C74.633,56.053,74.521,55.836,74.374,55.646z M89.467,50.864c0.551-0.167,1.139,0.116,1.35,0.651l0.007,0.021
	c0.03,0.076,0.129,0.143,0.284,0.246c0.306,0.154,0.542,0.418,0.662,0.738c0.169,0.58-0.155,1.189-0.73,1.374
	c-0.545,0.089-1.099-0.101-1.473-0.507c-0.37-0.309-0.656-0.704-0.833-1.152c-0.181-0.572,0.137-1.184,0.71-1.365
	C89.451,50.869,89.459,50.867,89.467,50.864z M89.894,51.92c-0.027-0.057-0.072-0.119-0.135-0.1c-0.05,0.01-0.082,0.058-0.072,0.107
	c0.001,0.006,0.003,0.012,0.006,0.018c0.214,0.454,0.593,0.809,1.06,0.994c0.047-0.023,0.073-0.074,0.066-0.125
	c-0.014-0.044-0.144-0.129-0.242-0.189c-0.297-0.154-0.536-0.402-0.68-0.705H89.894z M64.517,58.869
	c0.576-0.165,1.179,0.162,1.354,0.736c0.036,0.123,0.053,0.252,0.048,0.381l-0.001,0.017c-0.034,2.515,0.313,5.019,1.029,7.43
	c0.166,0.587,0.394,1.153,0.678,1.692c0.23-0.303,0.532-0.545,0.879-0.705c0.57-0.174,1.174,0.147,1.349,0.718
	c0.113,0.378,0.02,0.789-0.246,1.081c-0.062,0.071-0.128,0.138-0.199,0.199c-0.035,0.029-0.067,0.061-0.099,0.095l-0.021,0.024
	L69.16,70.68c-0.295,0.388-0.691,0.686-1.145,0.863c-0.574,0.176-1.435,0.096-2.258-1.277c-0.382-0.673-0.684-1.389-0.896-2.131
	c-0.784-2.701-1.162-5.504-1.12-8.316l-0.003-0.008C63.787,59.369,64.093,59,64.517,58.869z M64.92,59.953
	c0.001-0.019-0.001-0.037-0.005-0.056c-0.011-0.038-0.08-0.08-0.105-0.072c-0.041,0.013-0.065,0.05-0.071,0.109
	c-0.025,2.674,0.338,5.337,1.079,7.906c0.564,1.848,1.312,2.925,1.905,2.743c0.274-0.133,0.513-0.33,0.693-0.576l0.129-0.143
	c0.061-0.07,0.125-0.135,0.195-0.193c0.034-0.03,0.067-0.063,0.099-0.096l0.015-0.018c0.035-0.033,0.051-0.082,0.042-0.129
	c-0.013-0.039-0.05-0.063-0.09-0.056c-0.175,0.14-0.338,0.294-0.485,0.462c-0.132,0.148-0.272,0.287-0.421,0.418L67.6,70.5
	l-0.313-0.229c-0.644-0.727-1.092-1.604-1.303-2.551C65.24,65.199,64.881,62.582,64.92,59.953z M105.885,47.518
	c0.678-0.207,1.388-0.281,2.093-0.221l0.484,0.041l-0.027,0.484c-0.137,1.893-0.605,3.746-1.387,5.475l-0.432,1.004l-0.521-0.541
	c-0.901-1.225-1.563-2.607-1.953-4.078c-0.083-0.271-0.169-0.553-0.236-0.844l-0.081-0.356l0.313-0.187
	C104.688,47.969,105.275,47.707,105.885,47.518z M107.396,48.274c-0.413,0.011-0.823,0.078-1.218,0.2
	c-0.417,0.129-0.821,0.297-1.206,0.501c0.041,0.135,0.083,0.272,0.126,0.414c0.304,1.044,0.718,2.054,1.234,3.011
	C106.88,51.082,107.238,49.693,107.396,48.274z M103.625,48.572l0.201,0.691c0.707,2.423,1.534,4.131,2.331,4.813l0.339,0.29
	l-0.249,0.369c-0.72,1.17-1.82,2.058-3.116,2.512c-1.764,0.539-2.859,0.02-3.352-1.59c-0.335-1.32-0.086-2.721,0.683-3.846
	c0.677-1.092,1.555-2.045,2.586-2.811L103.625,48.572z M105.177,54.516c-0.977-1.266-1.688-2.713-2.094-4.259
	c-1.574,1.372-2.868,3.405-2.348,5.11c0.324,1.059,0.874,1.301,2.103,0.926C103.783,55.957,104.601,55.336,105.177,54.516
	L105.177,54.516z M16.825,76.629l1.025-0.314l0.124,0.518c0.176,0.737,0.302,1.377,0.385,1.959l0.059,0.416l-0.399,0.13
	c-1.073,0.336-2.129,0.729-3.161,1.176l-0.518,0.231l-0.826-2.705l0.321-0.203C14.776,77.307,15.781,76.902,16.825,76.629z
	 M17.118,77.585L17.118,77.585c-0.833,0.228-1.644,0.53-2.422,0.904l0.271,0.885c0.777-0.322,1.57-0.601,2.338-0.854
	c-0.05-0.293-0.106-0.604-0.184-0.936L17.118,77.585z M150.833,36.516c0.73-0.223,2.482,0.183,2.786,1.177
	c0.161,0.579-0.16,1.183-0.73,1.373c-0.398,0.12-0.831,0.004-1.118-0.298l-0.011-0.01c-0.096-0.087-0.209-0.096-0.464-0.099
	c-0.545,0.081-1.065-0.254-1.218-0.783C149.92,37.293,150.255,36.689,150.833,36.516z M152.596,38.11
	c0.042-0.027,0.067-0.075,0.066-0.125c-0.085-0.276-1.147-0.631-1.537-0.512c-0.05,0.016-0.085,0.06-0.092,0.111
	c0.006,0.021,0.015,0.042,0.024,0.061c0.082,0.013,0.164,0.018,0.247,0.016c0.405-0.032,0.807,0.095,1.12,0.353
	c0.043,0.039,0.088,0.074,0.137,0.105C152.574,38.117,152.586,38.114,152.596,38.11z M156.188,34.878
	c0.508-0.102,1.033-0.057,1.516,0.128c0.549,0.142,1.006,0.522,1.245,1.035c0.185,0.584-0.14,1.208-0.725,1.393
	c-0.412,0.134-0.864,0.006-1.145-0.325c-0.086-0.079-0.188-0.089-0.431-0.088c-0.603,0.076-1.153-0.351-1.229-0.953
	C155.352,35.538,155.677,35.035,156.188,34.878z M157.932,36.479c0.057-0.023,0.084-0.087,0.061-0.143c0,0,0-0.001,0-0.001
	c-0.019-0.06-0.198-0.238-0.616-0.383c-0.284-0.113-0.592-0.154-0.896-0.117c-0.052,0.016-0.104,0.07-0.092,0.112
	c0.007,0.022,0.016,0.044,0.026,0.065c0.076,0.009,0.152,0.012,0.229,0.009c0.416-0.041,0.829,0.097,1.139,0.378l0.012,0.013
	c0.025,0.032,0.057,0.058,0.093,0.077l0,0C157.903,36.487,157.918,36.484,157.932,36.479z M161.39,33.288
	c0.73-0.224,2.482,0.182,2.786,1.177c0.165,0.587-0.167,1.199-0.749,1.379c-0.38,0.094-0.782-0.002-1.077-0.259
	c-0.203-0.139-0.291-0.189-0.413-0.167c-0.572,0.146-1.154-0.198-1.302-0.77C160.469,34.064,160.806,33.455,161.39,33.288
	L161.39,33.288L161.39,33.288z M163.135,34.889c0.057-0.018,0.092-0.073,0.086-0.131c-0.085-0.277-1.147-0.632-1.537-0.513
	c-0.052,0.016-0.104,0.07-0.092,0.112c0.007,0.029,0.021,0.057,0.04,0.081c0.042,0.009,0.085,0.008,0.126-0.003
	c0.415-0.06,0.836,0.058,1.158,0.326C162.983,34.812,163.056,34.854,163.135,34.889L163.135,34.889z M75.372,63.455
	c0.248-0.075,0.512-0.134,0.761-0.188l0.629-0.138l-0.023,0.644c-0.002,0.023-0.136,2.342-1.281,2.691
	c-0.988,0.303-2.153,0.07-2.469-0.96c-0.06-0.229-0.02-0.472,0.109-0.67l0.017-0.03l0.012-0.021
	C73.723,64.125,74.507,63.662,75.372,63.455z M75.163,65.506c0.046-0.014,0.211-0.168,0.369-0.671
	c0.044-0.139,0.081-0.28,0.109-0.416c-0.615,0.146-1.184,0.441-1.656,0.862l-0.009,0.016C74.195,65.697,74.894,65.588,75.163,65.506
	z M34.048,76.592c0.58-0.178,1.195,0.149,1.373,0.73c0.07,0.242,0.057,0.5-0.037,0.734l-0.002,0.008
	c-0.521,0.967-1.125,1.887-1.805,2.748c-1.627,2.152-2.139,2.309-2.311,2.361c-0.563,0.178-1.164-0.135-1.343-0.697
	c-0.126-0.43,0.026-0.894,0.385-1.164c1.208-1.243,2.249-2.641,3.096-4.154l0,0C33.531,76.889,33.763,76.684,34.048,76.592z
	 M34.456,77.686c0.009-0.023,0.012-0.047,0.009-0.071c-0.017-0.053-0.072-0.083-0.125-0.066c-0.021,0.021-0.038,0.044-0.051,0.071
	c-0.906,1.633-2.032,3.135-3.346,4.463c-0.074,0.062-0.066,0.088-0.063,0.1c0.008,0.027,0.057,0.043,0.089,0.035
	c0.718-0.587,1.34-1.282,1.845-2.061C33.427,79.379,33.976,78.552,34.456,77.686z M124.177,49.748
	c0.587-0.188,1.197-0.289,1.813-0.303l0.521-0.004l-0.02,0.529c-0.044,1.588-1.101,2.968-2.621,3.426
	c-0.877,0.312-1.841-0.146-2.152-1.023c-0.004-0.01-0.007-0.02-0.011-0.03C121.328,51.101,122.8,50.168,124.177,49.748z
	 M125.417,50.489c-0.321,0.046-0.638,0.118-0.947,0.214c-0.851,0.26-1.95,0.873-1.806,1.348c0.135,0.355,0.533,0.535,0.889,0.399
	c0.009-0.003,0.018-0.007,0.025-0.011C124.496,52.165,125.196,51.422,125.417,50.489z"/>
</svg>
