<?xml version="1.0" encoding="utf-8"?>
<!-- Generator: Adobe Illustrator 15.0.0, SVG Export Plug-In . SVG Version: 6.00 Build 0)  -->
<!DOCTYPE svg PUBLIC "-//W3C//DTD SVG 1.1//EN" "http://www.w3.org/Graphics/SVG/1.1/DTD/svg11.dtd">
<svg version="1.1" id="レイヤー_1" xmlns="http://www.w3.org/2000/svg" xmlns:xlink="http://www.w3.org/1999/xlink" x="0px"
	 y="0px" width="421.883px" height="115px" viewBox="0 0 421.883 115" enable-background="new 0 0 421.883 115"
	 xml:space="preserve">
<path id="パス_46526" fill="#243F7E" d="M33.5,41V1H0v40H33.5z M28.1,6.4v11.9H5.4V6.4H28.1z M28.1,23.7v11.9H5.4V23.7H28.1z
	 M54.1,0v6.4H40v5.4h7c0,8.75-1.9,17.35-7,23.8l4.649,2.7c6-8,7.75-17.95,7.75-26.5h1.7v18.4h-3v5.4h3V41h5.4v-5.4h2.85v-5.4H59.5
	V11.8h1.55c0,8.55,1.75,18.5,7.75,26.5l4.7-2.7c-5.101-6.45-7.05-15.05-7.05-23.8h7.05V6.4h-14V0H54.1z M85.9,7.3l0.2,5.4
	l13.15-0.55c-11.351,14.8-7.55,25,3.3,28.85l2.35-4.85C96.45,32.85,94,26.55,106.5,11.8l-0.15-4.4h0.851V1H104.1v5.5L85.9,7.3z
	 M108.65,1v6.4h3.15V1H108.65z M152.5,23.7v-5.4H119v5.4H152.5z M182.65,7.9l-0.85,3.65h-3.35v-5.2c6.8-0.4,10.149-0.95,10.149-0.95
	V0c-8.546,0.999-17.146,1.45-25.75,1.35v5.4c3.8,0,7.2-0.05,10.2-0.15v4.95h-3.35l-0.9-3.65h-5.55l0.899,3.65H159V17h8.149
	c-2.396,1.842-5.186,3.108-8.149,3.7l1.35,5.2c0.389-0.059,0.772-0.143,1.15-0.25V41H190V25.65c0.36,0.107,0.729,0.19,1.1,0.25
	l1.4-5.2c-2.969-0.581-5.759-1.848-8.15-3.7h8.15v-5.45h-5.15L188.2,7.9H182.65z M165.4,24.4c3.004-1.175,5.644-3.125,7.65-5.65
	v5.65H165.4z M178.45,24.4v-5.65c1.975,2.536,4.602,4.489,7.6,5.65H178.45z M166.9,31.15V28.9h6.15v2.25H166.9z M178.45,31.15V28.9
	h6.149v2.25H178.45z M166.9,36.5v-2.25h6.15v2.25H166.9z M178.45,36.5v-2.25h6.149v2.25H178.45z M199.9,43.5L204.7,41l-4.15-7.9
	l-4.8,2.5L199.9,43.5z M242.7,41V27.45l2.55,2.35l3.649-4l-5.399-4.95c2.112-3.556,3.235-7.613,3.25-11.75V3.7h-4.95V0h-5.4v3.7
	H231.5v5.4h9.85c-0.151,6.632-3.936,12.645-9.85,15.65v6.3c2.051-0.9,3.995-2.023,5.8-3.35V41H242.7z M253.35,0v12.9h-5.25v5.4h5.25
	v17.3h-6.25V41H265v-5.4h-6.25V18.3H265v-5.4h-6.25V0H253.35z M302.5,18.6v-3.7H279.4v-2.4H302.5V8.8H279.4V6.4H303.5V1H274v20h-2.5
	v5.4h2.5v9.15c-0.8,0-1.65,0.05-2.5,0.05V41c10.6,0,16.75-1.9,16.75-1.9v-5.45c-2.9,0.77-5.861,1.289-8.851,1.55v-8.8h6.15
	c2.55,5.7,7.15,10.85,17.85,14.6L305,35.85c-1.365-0.431-2.701-0.948-4-1.55l3.3-3.1l-3.65-3.95l-4.449,4.1
	c-1.748-1.406-3.267-3.077-4.5-4.95H305V21H279.4v-2.4H302.5z M341.7,8.4V2h-3.15v6.4H341.7z M346.05,8.4V2h-3.15v6.4H346.05z
	 M324.2,3.7h-5.4v9.6c-2.9,0.35-5.05,0.8-5.05,0.8l1.2,5.3c0,0,1.649-0.35,3.85-0.65V30.1h5.4V18.35c9.55,0.2,5.85,11.3-0.2,19.35
	l4.25,3.3c13.85-19.2,5.399-27.9-4.05-28.05V3.7z M337.15,21.4l5.051-2L337.4,7.35l-5,2L337.15,21.4z M379.5,18.3h4.5v-5.4h-15.75
	c0.1-1.7,0.2-3.5,0.2-5.45c4.173-0.284,8.309-0.971,12.35-2.05V0c-5.816,1.4-11.769,2.155-17.75,2.25v2.8c0,19.55-3,25.3-3,25.3
	l5.1,1.7c0,0,1.75-4.15,2.7-13.75h6.25V34h5.4V18.3z M356.05,6.55h-5.55l1.2,7.8h5.55L356.05,6.55z M355.75,41
	c0.575-1.207,1.044-2.461,1.399-3.75c3.7,2.55,7.5,3.75,14.301,3.75H384v-5.4h-12.55c-6.601,0-9.5-1.55-13.45-4.6
	c0.05-2.15,0.05-4.5,0.05-7.15V18.4h-7.55v5.45h2.1c0,6.2,0,10.95-2.1,15.8L355.75,41z M399.05,8.2h-5.4v19.2
	c0,7.45,1.75,10.35,9.601,10.35v-5.4c-3.8,0-4.2-1.05-4.2-5.75V8.2z M411.8,16.85c3.75,0,4.15,1,4.15,5.7v15.2h5.399V21.8
	c0-7.5-1.75-10.35-9.55-10.35V16.85z M6.05,77.7H0V83.1h17.55V77.7H11.5V74H6.05V77.7z M30.75,91.95H26.8C26.9,90,27,88,27.05,85.8
	h6.35V80.4H33L32.1,75h-3.25l0.9,5.4H27.15c0-2,0.051-4.15,0.051-6.4h-5.4c0,2.3-0.05,4.4-0.05,6.4h-2.7V85.8h2.65
	C21.4,98.65,20.3,105.55,16,113l5,2c2.07-3.533,3.54-7.386,4.35-11.4v2.65c0,6.2,2.7,8.75,8.15,8.75v-5.4
	c-1.8,0-2.75-0.75-2.75-3.35V91.95z M6.35,101.15v6.1c0,1.6-0.25,2.35-1.2,2.35v5.4c3.65,0,6.051-2.55,6.051-7.75v-6.1h6.35v-15.7H0
	v15.7H6.35z M12.15,90.85V95.7H5.45V90.85H12.15z M4,112.2c0.847-2.938,1.219-5.994,1.1-9.05H0.85
	c0.061,2.543-0.226,5.083-0.85,7.55L4,112.2z M17.55,109.9c-0.656-2.188-0.943-4.469-0.85-6.75h-4.25
	c-0.156,2.795,0.217,5.594,1.1,8.25L17.55,109.9z M66.1,74v15.6h-2.5v-6.5h1.5V77.7h-4V74H55.7v3.7h-3.95V75H40v5.4h1v26.5h-1v5.399
	c2.315,0.052,4.626-0.252,6.85-0.899v3.6h3.9V80.4h0.899V83.1h1.5v6.5h-1.5V95h14c-0.115,4.441,0.237,8.883,1.051,13.25
	c-0.749,0.438-1.535,0.805-2.351,1.1V97h-11.7v14.9h9l0.801,3.1c1.913-0.488,3.748-1.246,5.449-2.25c0.25,0.7,0.5,1.5,0.801,2.25
	l4.8-1.65c-0.5-1.35-0.95-2.649-1.3-3.85c0.449-0.4,0.85-0.8,1.3-1.25l-1-4.8c-0.425,0.49-0.876,0.958-1.351,1.399
	c-0.491-3.259-0.709-6.554-0.649-9.85h3v-5.4h-3V74H66.1z M71.55,87.35h1.95l-0.45-9.1H71.1L71.55,87.35z M44.9,85.65V80.4h1.95
	v5.25H44.9z M57.05,89.6v-6.5h2.65v6.5H57.05z M44.9,96.25v-5.2h1.95v5.2H44.9z M56.85,103.45v-2.55h3.3v2.55H56.85z M46.85,105.95
	c-0.55,0.149-1.2,0.35-1.95,0.5v-4.8h1.95V105.95z M56.85,108v-2.55h3.3V108H56.85z M106.45,73.95l-0.801,3.75h-3.55l-0.8-3.7h-5.55
	l0.8,3.7h-2.3v21.25H96.9c-0.149,6.2-1.35,8.95-4.149,11v-9.65H80V115h12.75v-3.7l2.2,3.7c5.199-3,7.149-7.6,7.35-16.05h3v7.3
	c0,6.2,2.7,8.75,8.2,8.75v-5.4c-1.851,0-2.8-0.75-2.8-3.35v-7.3h2.8V77.7h-2.3l0.8-3.75H106.45z M81.5,75v3.9h9.75V75H81.5z
	 M80,80.85v5.4h12.75v-5.4H80z M99.65,93.55V83.1h8.45v10.45H99.65z M81.5,88.25v3.9h9.75v-3.9H81.5z M91.25,98.15v-3.9H81.5v3.9
	H91.25z M85.4,109.6V105.7h1.95v3.899H85.4z M138.85,115c1.265-3.993,2.054-8.121,2.351-12.3h6.899v3.55c0,2.6-0.95,3.35-2.8,3.35
	v5.4c5.5,0,8.2-2.55,8.2-8.75V75h-16.75c0,25.5-1.351,33.5-3.05,38.35L138.85,115z M120,80.4V109.6h14.25V80.4H120z M148.1,80.4
	v5.75h-6.05c0.05-1.801,0.05-3.7,0.1-5.75H148.1z M125.4,92.3v-6.5h3.45v6.5H125.4z M148.1,91.55v5.75h-6.45
	c0.101-1.75,0.2-3.649,0.25-5.75H148.1z M125.4,104.2v-6.5h3.45v6.5H125.4z M193.5,78.4C183,77.05,176.75,73,176.75,73
	s-6.3,4.05-16.75,5.4V83.8c5.798-0.632,11.455-2.202,16.75-4.649c5.288,2.463,10.948,4.034,16.75,4.649V78.4z M166.75,90.6h20V85.2
	h-20V90.6z M162.8,115c14.95,0,22.4-1.8,23.4-2.05l0.449,2.05h5.551l-2.5-11.7h-5.551l0.95,4.45
	c-5.367,0.965-10.799,1.533-16.25,1.7l4.5-9.55H192v-5.4h-30.5v5.4h5.899l-4.6,9.699V115z M208.15,75h-6.399l0.5,28.45h5.399
	L208.15,75z M202.25,115h5.399v-6.5h-5.399V115z"/>
<path id="パス_46341" fill="#FFFFFF" d="M389.993,58.291c-5.813,0.138-11.582-1.028-16.885-3.412
	c-4.708-2.135-9.839-3.177-15.007-3.046c-5.168-0.13-10.298,0.911-15.006,3.046c-5.302,2.384-11.071,3.55-16.883,3.412
	c-5.812,0.138-11.581-1.028-16.883-3.412c-4.708-2.135-9.839-3.176-15.006-3.046c-5.168-0.13-10.299,0.911-15.007,3.046
	c-5.302,2.384-11.07,3.55-16.883,3.412c-5.812,0.138-11.581-1.028-16.883-3.412c-4.708-2.135-9.838-3.176-15.005-3.046v-5
	c5.812-0.138,11.581,1.028,16.883,3.412c4.708,2.135,9.838,3.176,15.006,3.046c5.168,0.13,10.298-0.911,15.006-3.046
	c5.303-2.384,11.071-3.55,16.883-3.412c5.812-0.138,11.58,1.028,16.883,3.412c4.708,2.135,9.838,3.176,15.006,3.046
	c5.168,0.13,10.298-0.911,15.006-3.046c5.302-2.384,11.071-3.55,16.883-3.412c5.813-0.138,11.581,1.028,16.883,3.412
	c4.709,2.135,9.839,3.176,15.008,3.046c5.168,0.13,10.298-0.911,15.007-3.045c3.743-1.675,7.729-2.746,11.808-3.173
	c1.687-0.165,3.381-0.245,5.076-0.24v5c-1.526-0.005-3.052,0.066-4.571,0.214c-3.607,0.384-7.131,1.34-10.437,2.833
	C401.573,57.263,395.804,58.428,389.993,58.291z"/>
</svg>
