<?xml version="1.0" encoding="utf-8"?>
<!-- Generator: Adobe Illustrator 15.0.0, SVG Export Plug-In . SVG Version: 6.00 Build 0)  -->
<!DOCTYPE svg PUBLIC "-//W3C//DTD SVG 1.1//EN" "http://www.w3.org/Graphics/SVG/1.1/DTD/svg11.dtd">
<svg version="1.1" id="レイヤー_1" xmlns="http://www.w3.org/2000/svg" xmlns:xlink="http://www.w3.org/1999/xlink" x="0px"
	 y="0px" width="105.699px" height="42.049px" viewBox="0.76 0.913 105.699 42.049"
	 enable-background="new 0.76 0.913 105.699 42.049" xml:space="preserve">
<path fill="#243F7E" d="M42.81,24.705c-0.126-0.048-0.583-0.398-1.16-2.906c-0.373-1.614-0.622-3.261-0.862-4.85L40.74,16.57
	c-0.044-0.354-0.089-0.719-0.166-1.05c-0.061-0.322-0.343-0.555-0.67-0.555l-0.095,0.006c-0.362,0.053-0.614,0.39-0.561,0.756
	c0.03,0.283,0.077,0.572,0.124,0.859c0.03,0.186,0.061,0.37,0.086,0.555l0.062,0.407c0.229,1.509,0.466,3.069,0.813,4.568
	c0.354,1.539,0.961,3.614,2.134,3.877c0.048,0.011,0.098,0.016,0.147,0.016c0.058,0,0.116-0.007,0.175-0.022
	c0.267-0.071,0.454-0.296,0.49-0.555l0.043-0.011l-0.054-0.238C43.213,24.94,43.02,24.748,42.81,24.705z"/>
<path fill="#243F7E" d="M45.69,16.013c-0.072-0.288-0.319-0.493-0.649-0.514c-0.049-0.017-0.092-0.049-0.121-0.092
	c-0.058-0.303-0.323-0.525-0.637-0.525l-0.069,0.004c-0.038,0.004-0.076,0.011-0.099,0.019c-0.174,0.039-0.323,0.144-0.418,0.295
	c-0.096,0.151-0.126,0.331-0.075,0.55c0.16,0.542,0.603,0.953,1.154,1.071c0.073,0.016,0.148,0.024,0.224,0.024
	c0.035,0,0.069-0.002,0.106-0.005c0.371-0.042,0.638-0.377,0.598-0.737L45.69,16.013z"/>
<path fill="#243F7E" d="M43.848,16.882c-0.106-0.078-0.198-0.146-0.224-0.228c-0.095-0.336-0.451-0.55-0.792-0.478
	c-0.356,0.077-0.586,0.429-0.507,0.805c0.094,0.404,0.713,1.21,1.278,1.21c0,0,0,0,0,0c0.044,0,0.089-0.005,0.137-0.016
	c0.352-0.09,0.571-0.44,0.497-0.803C44.179,17.126,43.996,16.991,43.848,16.882z"/>
<path fill="#243F7E" d="M49.311,33.461c-0.176,0-0.35,0.02-0.502,0.056c-1.012,0.17-1.805,0.916-2.037,1.91
	c-1.029,1.258-1.384,2.937-0.954,4.492c0.26,1.13,1.136,3.041,2.766,3.042c0.157,0,0.317-0.02,0.478-0.057
	c2.016-0.465,3.225-2.556,3.527-4.422c0.126-0.777,0.102-1.561-0.072-2.333C52.223,34.878,50.834,33.461,49.311,33.461z
	 M48.037,36.441c-0.01-0.099-0.021-0.194-0.013-0.325c-0.032-0.638,0.421-1.189,1.073-1.287c0.813-0.183,1.931,0.833,2.113,1.628
	l0.001-0.001c0.127,0.567,0.146,1.148,0.057,1.732c-0.191,1.453-1.114,3.093-2.505,3.415c-0.825,0.188-1.446-1.151-1.639-1.985
	c-0.183-0.734-0.174-1.497,0.025-2.224c0.123,0.045,0.267,0.054,0.388,0.022c0.232-0.053,0.51-0.219,0.518-0.711
	C48.054,36.615,48.046,36.527,48.037,36.441z"/>
<path fill="#243F7E" d="M9.731,31.049L9.67,31.032c-0.177-0.05-0.354-0.1-0.52-0.152c-1.036-0.393-2.02-0.91-2.929-1.542L7.1,27.964
	c0.629-0.993,1.192-1.993,1.057-2.577c-0.123-0.53-0.685-0.798-1.672-0.798c-0.67,0-1.553,0.122-2.545,0.352
	c-1.015,0.204-1.983,0.571-2.9,1.108c-0.214,0.159-0.319,0.43-0.264,0.706c0.078,0.3,0.349,0.51,0.659,0.51
	c0.045,0,0.091-0.004,0.146-0.016c0.094-0.023,0.183-0.068,0.221-0.105c0.744-0.43,1.55-0.729,2.414-0.891
	c0.803-0.212,1.635-0.319,2.465-0.294c-0.51,1.013-1.104,1.993-1.771,2.925c-0.521,0.785-1.201,1.825-1.839,2.902
	c-0.317,0.515-0.592,1.058-0.82,1.627c-0.042,0.122-0.049,0.254-0.021,0.39c0.078,0.309,0.354,0.524,0.672,0.524
	c0.04,0,0.08-0.004,0.135-0.014c0.211-0.051,0.388-0.201,0.461-0.379c0.042-0.076,0.074-0.153,0.105-0.231
	c0.023-0.058,0.046-0.116,0.083-0.186c0.102-0.222,0.208-0.424,0.331-0.639c0.451-0.842,0.986-1.675,1.475-2.426
	c1.208,0.829,2.53,1.47,3.942,1.909c0.093,0.023,0.194,0.026,0.291,0.005c0.363-0.083,0.591-0.434,0.517-0.808
	C10.18,31.3,9.973,31.098,9.731,31.049z"/>
<path fill="#243F7E" d="M27.691,20.838l0.154,0.312c0.449,0.92,1.129,2.311,1.985,2.653c0.085,0.041,0.179,0.062,0.274,0.062
	c0.054,0,0.108-0.007,0.15-0.018c0.173-0.037,0.321-0.139,0.418-0.288c0.096-0.149,0.129-0.326,0.085-0.528
	c-0.054-0.194-0.188-0.357-0.362-0.442c-0.492-0.264-1.021-1.357-1.337-2.011l-0.144-0.293l-0.021-0.078l-0.045-0.028
	c-0.185-0.277-0.427-0.387-0.718-0.32c-0.365,0.085-0.595,0.453-0.506,0.839C27.644,20.763,27.675,20.823,27.691,20.838z"/>
<path fill="#243F7E" d="M33.049,18.957c-0.052,0-0.104,0.006-0.148,0.016c-0.275,0.057-0.483,0.282-0.512,0.521
	c-0.26,0.882-0.574,1.758-0.938,2.611c-0.559,1.429-1.259,2.811-2.071,4.092l-0.519,0.702c-0.131,0.162-0.181,0.371-0.134,0.59
	c0.083,0.297,0.357,0.504,0.665,0.504c0.041,0,0.082-0.003,0.148-0.017c0.142-0.042,0.267-0.124,0.372-0.253
	c1.42-2.004,2.546-4.198,3.338-6.504c0.206-0.483,0.363-0.989,0.473-1.532c0.006-0.07,0.002-0.14-0.014-0.224
	C33.63,19.166,33.358,18.957,33.049,18.957z"/>
<path fill="#243F7E" d="M21.925,24.681l-0.066,0.003c-0.778,0.083-1.56,0.226-2.315,0.422c-1.96,0.453-3.899,1.062-5.782,1.652
	c-0.091,0.032-0.185,0.058-0.285,0.079c-0.333,0.077-0.48,0.044-0.604-0.03c-0.102-0.061-0.245-0.147-0.508-0.087
	c-0.359,0.095-0.576,0.454-0.495,0.804c0.022,0.124,0.085,0.238,0.164,0.309c0.237,0.252,0.583,0.38,1.026,0.38
	c0.376,0,0.767-0.092,1.111-0.172c0.935-0.215,1.861-0.513,2.757-0.802c0.891-0.287,1.812-0.583,2.736-0.796
	c0.645-0.148,1.313-0.252,1.96-0.353l0.456-0.076c0.36-0.084,0.585-0.446,0.5-0.811C22.511,24.896,22.241,24.681,21.925,24.681z"/>
<path fill="#243F7E" d="M28.151,24.174l-0.04-0.04c-0.062-0.169-0.188-0.304-0.335-0.363c-0.752-0.423-1.318-1.106-1.603-1.95
	c-0.054-0.117-0.097-0.238-0.14-0.358l-0.064-0.173c-0.081-0.276-0.337-0.469-0.625-0.469c-0.061,0-0.121,0.008-0.154,0.02
	c-0.17,0.03-0.319,0.125-0.419,0.268s-0.138,0.315-0.108,0.478c0.004,0.025,0.009,0.05,0.022,0.102
	c0.328,1.406,1.244,2.605,2.531,3.299c0.086,0.038,0.177,0.057,0.271,0.057c0.051,0,0.102-0.006,0.15-0.017
	c0.361-0.081,0.588-0.44,0.514-0.747L28.151,24.174z"/>
<path fill="#243F7E" d="M69.691,39.041c-0.029-0.105-0.087-0.203-0.166-0.279c-0.025-0.061-0.045-0.126-0.06-0.203
	c-0.089-0.355-0.106-0.719-0.058-1.054c0.026-0.098,0.032-0.2,0.017-0.304l-0.144,0.011l0.139-0.035
	c-0.077-0.302-0.348-0.512-0.659-0.512c-0.045,0-0.091,0.005-0.148,0.017c-0.244,0.063-0.434,0.254-0.5,0.518
	c-0.09,0.539-0.072,1.081,0.052,1.61c0.161,0.699,0.476,1.084,0.886,1.084c0.049,0,0.099-0.006,0.145-0.017
	c0.356-0.076,0.586-0.429,0.511-0.783L69.691,39.041z"/>
<path fill="#243F7E" d="M93.242,5.556c0.247-0.147,0.372-0.435,0.312-0.71c-0.061-0.307-0.332-0.529-0.645-0.529
	c-0.044,0-0.088,0.004-0.126,0.012c-0.091,0.013-0.18,0.034-0.268,0.054c-0.074,0.017-0.148,0.034-0.243,0.049l-2.047,0.473
	c-0.633,0.146-1.267,0.293-1.892,0.451L88.13,5.401c-0.227,0.049-0.466,0.102-0.661,0.169c-0.356,0.096-0.569,0.463-0.474,0.826
	c0.1,0.339,0.48,0.552,0.811,0.471c0.487-0.113,0.974-0.232,1.459-0.351c0.479-0.118,0.959-0.236,1.44-0.347l0.293-0.068
	c-0.902,1.419-1.296,3.095-1.11,4.791c0.208,1.473,1.267,2.685,2.698,3.087c0.063,0.018,0.128,0.026,0.192,0.026
	c0.043,0,0.086-0.003,0.146-0.015c0.352-0.091,0.569-0.44,0.495-0.804c-0.059-0.248-0.257-0.444-0.493-0.498
	c-0.159-0.043-0.314-0.101-0.44-0.159c-0.69-0.414-1.159-1.106-1.289-1.917c-0.301-1.306,0.555-3.503,1.514-4.589
	C92.876,5.847,93.062,5.687,93.242,5.556z"/>
<path fill="#243F7E" d="M81.483,15.643c-0.544-0.518-1.127-1.002-1.725-1.432c-0.975-0.763-1.818-1.37-2.637-1.896l1.823-2.9
	l0.963-1.561c0.11-0.152,0.146-0.344,0.102-0.52c-0.07-0.306-0.339-0.52-0.652-0.52c-0.051,0-0.102,0.006-0.144,0.016
	c-0.182,0.036-0.337,0.15-0.414,0.29c-0.198,0.28-0.397,0.618-0.591,0.945c-0.098,0.165-0.193,0.327-0.284,0.474l-2.049,3.26
	l-0.076,0.118c-0.061,0.092-0.124,0.188-0.171,0.276c-0.092,0.159-0.118,0.345-0.069,0.547c0.06,0.178,0.191,0.327,0.342,0.397
	c0.738,0.439,1.44,0.942,2.04,1.379c0.652,0.476,1.348,0.991,2.002,1.527l0.586,0.534c0.125,0.138,0.303,0.216,0.489,0.216
	c0.045,0,0.09-0.004,0.146-0.016c0.353-0.091,0.57-0.441,0.498-0.789C81.64,15.864,81.581,15.748,81.483,15.643z"/>
<path fill="#243F7E" d="M70.5,11.584c-0.44-0.107-0.893-0.162-1.346-0.162l-0.234,0.011c-0.35,0.091-0.565,0.45-0.479,0.811
	c0.082,0.292,0.351,0.496,0.706,0.496c0.146,0.008,0.396,0.037,0.63,0.068c0.233,0.033,0.454,0.062,0.563,0.062l0.088-0.007
	c0.354-0.056,0.596-0.39,0.528-0.802C70.899,11.841,70.738,11.666,70.5,11.584z M70.34,12.617L70.34,12.617v0.002V12.617z"/>
<path fill="#243F7E" d="M105.794,8.479c-0.046,0-0.093,0.005-0.155,0.018c-0.252,0.057-0.449,0.256-0.501,0.497
	c-0.156,0.59-0.475,1.237-0.738,1.298c-0.56,0.121-1.127-1.198-1.341-2.128c-0.097-0.472-0.163-0.958-0.198-1.444
	c0.492-0.151,0.917-0.267,1.33-0.363c0.329-0.09,0.669-0.141,1.028-0.151c0.053,0,0.105-0.008,0.144-0.019
	c0.356-0.081,0.583-0.439,0.506-0.797l-0.027-0.109l-0.014-0.008c-0.1-0.235-0.33-0.397-0.606-0.409
	c-0.461,0.013-0.92,0.079-1.357,0.193c-0.354,0.082-0.694,0.177-1.069,0.286c-0.011-0.508-0.002-1.02,0.01-1.52
	c0.138-0.037,0.28-0.07,0.437-0.106c0.23-0.068,0.47-0.106,0.732-0.111c0.053,0,0.105-0.007,0.142-0.019
	c0.358-0.084,0.584-0.444,0.502-0.801c-0.062-0.281-0.296-0.488-0.608-0.515c-0.384,0.004-0.768,0.055-1.133,0.15
	c0.063-0.756,0.065-0.919,0.045-1.008c-0.09-0.345-0.442-0.57-0.802-0.481c-0.271,0.066-0.476,0.297-0.507,0.564
	c-0.06,0.375-0.081,0.762-0.103,1.136l-0.01,0.169c-0.334,0.089-0.657,0.213-0.96,0.37c-0.278,0.138-0.421,0.455-0.343,0.74
	c0.064,0.305,0.337,0.526,0.648,0.526c0.046,0,0.093-0.005,0.156-0.019c0.116-0.027,0.283-0.093,0.453-0.163
	c-0.007,0.53-0.003,1.024,0.014,1.497c-0.366,0.122-0.727,0.264-1.079,0.425c-0.286,0.14-0.437,0.454-0.365,0.773
	c0.079,0.3,0.351,0.509,0.661,0.509c0.052,0,0.104-0.006,0.137-0.014c0.068-0.011,0.131-0.037,0.146-0.053
	c0.192-0.089,0.391-0.17,0.591-0.243c0.037,0.442,0.103,0.88,0.194,1.31c0.171,0.744,0.862,3.172,2.543,3.172
	c0.132,0,0.268-0.016,0.403-0.047c0.954-0.221,1.595-1.476,1.741-2.28c0.025-0.102,0.025-0.208,0.003-0.3
	C106.378,8.7,106.106,8.479,105.794,8.479z"/>
<path fill="#243F7E" d="M68.422,35.715c0.364-0.062,0.612-0.406,0.557-0.729c0-0.123-0.017-0.248-0.033-0.372
	c-0.01-0.07-0.02-0.141-0.025-0.213l-0.099-1.107c-0.079-1.086-0.153-2.16-0.215-3.234l-0.006-0.104
	c-0.036-0.682-0.073-1.387-0.071-2.059c0.006-0.068-0.002-0.137-0.018-0.189c-0.071-0.305-0.34-0.518-0.652-0.518
	c-0.051,0-0.101,0.006-0.163,0.021c-0.285,0.082-0.488,0.335-0.505,0.631c-0.016,0.311-0.01,0.621,0.019,0.907
	c0.019,0.646,0.052,1.289,0.098,1.924c0.052,0.935,0.121,1.927,0.205,2.933c0.011,0.521,0.058,1.043,0.146,1.587
	c0.056,0.311,0.324,0.536,0.639,0.536C68.335,35.727,68.373,35.723,68.422,35.715z"/>
<path fill="#243F7E" d="M70.556,17.755c-0.389-0.856-1.117-1.492-2.011-1.763c-0.357-1.59-0.432-2.578-0.236-2.913
	c0.121-0.155,0.163-0.361,0.113-0.542c-0.081-0.348-0.387-0.583-0.795-0.489c-0.146,0.039-0.277,0.126-0.367,0.243
	c-0.552,0.688-0.345,2.276-0.097,3.528c-0.197,0.011-0.391,0.037-0.568,0.077c-0.597,0.074-1.128,0.376-1.497,0.851
	c-0.369,0.474-0.531,1.064-0.457,1.664l0.009,0.056c0.107,0.986,0.937,1.73,1.927,1.73c0.071,0,0.142-0.004,0.212-0.012
	c0.077-0.008,0.152-0.021,0.233-0.04c0.639-0.161,1.177-0.561,1.515-1.127c0.243-0.407,0.361-0.864,0.344-1.348
	c0.196,0.178,0.354,0.396,0.464,0.641c0.129,0.283,0.425,0.453,0.759,0.375c0.355-0.087,0.576-0.437,0.502-0.801
	C70.595,17.84,70.578,17.805,70.556,17.755z M66.721,18.852c-0.391,0.089-0.647-0.123-0.771-0.657
	c-0.137-0.595,0.542-0.917,0.915-1.004c0.18-0.039,0.364-0.058,0.548-0.058c0.016,0,0.031,0,0.046,0
	C67.712,18.458,67.164,18.749,66.721,18.852z"/>
<path fill="#243F7E" d="M62.489,37.64c-0.003,0-0.005,0-0.007,0c-0.12,0.003-0.24,0.012-0.359,0.02
	c-0.146,0.01-0.29,0.02-0.475,0.02c-0.002,0-0.003,0-0.005,0c-0.992-0.03-1.937-0.337-2.751-0.891
	c1.075-0.819,2.079-1.734,2.98-2.721l0.162-0.166c0.162-0.167,0.325-0.335,0.5-0.488l0.078-0.058c0.163-0.163,0.23-0.396,0.18-0.617
	c-0.065-0.312-0.343-0.537-0.659-0.537c-0.046,0-0.093,0.005-0.087,0.009l-0.084,0.014c-0.144,0.047-0.272,0.133-0.357,0.232
	l-0.241,0.235c-2.753,2.689-3.606,3.317-3.84,3.371c-0.104,0.025-0.198,0.074-0.275,0.138c-0.195-1.649-0.331-3.318-0.405-5
	l-0.015-0.06c-0.064-0.305-0.337-0.525-0.648-0.525c-0.046,0-0.093,0.005-0.154,0.018c-0.321,0.07-0.541,0.371-0.514,0.681
	c0.009,0.585,0.057,1.176,0.102,1.747c0.018,0.225,0.036,0.449,0.052,0.675c0.104,1.391,0.246,3.035,0.52,4.688
	c0.069,0.405,0.15,0.809,0.253,1.257c0.146,0.634,0.486,2.119,1.437,2.119c0.068,0,0.139-0.008,0.209-0.024
	c0.438-0.102,0.669-0.438,0.576-0.838c-0.066-0.27-0.29-0.465-0.56-0.5c-0.163-0.354-0.284-0.729-0.362-1.124
	c-0.094-0.406-0.173-0.811-0.241-1.23c-0.035-0.238-0.068-0.477-0.102-0.716c0.085,0.068,0.173,0.133,0.261,0.197l0.127,0.094
	c1.143,0.873,2.563,1.356,4.001,1.361l0.088-0.002c0.401-0.009,0.656-0.02,0.742-0.04c0.368-0.05,0.627-0.39,0.567-0.813
	C63.119,37.862,62.85,37.64,62.489,37.64z"/>
<path fill="#243F7E" d="M67.435,10.063c-0.08-0.348-0.448-0.566-0.785-0.492c-0.102,0.023-0.195,0.066-0.285,0.133
	c-0.291,0.228-0.637,0.389-1.002,0.466c-0.209,0.046-0.421,0.077-0.633,0.093c0.008-0.106,0.007-0.219-0.004-0.342
	c-0.087-0.339-0.458-0.551-0.783-0.473c-0.413,0.096-0.5,0.48-0.541,0.748c-0.195-0.039-0.388-0.087-0.566-0.143
	c-0.122-0.05-0.247-0.062-0.393-0.028c-0.353,0.092-0.564,0.443-0.48,0.802c0.052,0.21,0.204,0.383,0.404,0.459
	c0.248,0.098,0.505,0.169,0.767,0.214c-0.414,1.792-1.12,3.487-2.087,5.021c-0.127,0.152-0.175,0.352-0.133,0.547
	c0.065,0.304,0.338,0.524,0.648,0.524c0.046,0,0.093-0.005,0.156-0.019c0.143-0.033,0.268-0.109,0.381-0.248
	c1.121-1.763,1.921-3.687,2.378-5.724c0.394-0.008,0.787-0.054,1.176-0.138C65.672,11.46,67.649,10.992,67.435,10.063z"/>
<path fill="#243F7E" d="M56.043,21.463c-0.032-0.12-0.097-0.228-0.167-0.293c-0.717-0.86-1.234-1.882-1.504-2.968
	c0.207-0.067,0.417-0.13,0.629-0.187c-0.033,0.458-0.036,0.607-0.016,0.696c0.083,0.297,0.357,0.505,0.666,0.505
	c0.041,0,0.082-0.004,0.13-0.013c0.267-0.056,0.471-0.266,0.521-0.542c0.048-0.321,0.069-0.646,0.064-0.969
	c0.46-0.086,0.936-0.095,1.4-0.029c0.001,0,0.002,0,0.003,0.001c-0.052,0.278-0.522,0.815-0.848,1.041
	c-0.146,0.106-0.307,0.189-0.462,0.245c-0.342,0.101-0.544,0.45-0.459,0.799c0.088,0.345,0.394,0.578,0.802,0.497
	c1.053-0.243,2.541-1.769,2.265-2.964c-0.104-0.452-0.498-0.991-1.785-0.991c-0.275,0-0.576,0.023-0.915,0.072
	c-0.002-0.04-0.006-0.081-0.011-0.124c-0.086-0.36-0.45-0.593-0.82-0.511c-0.53,0.123-0.525,0.615-0.515,0.896
	c-0.339,0.082-0.648,0.164-0.935,0.25c-0.001-0.008-0.002-0.016-0.003-0.023c-0.022-0.167-0.045-0.334-0.08-0.487
	c-0.056-0.311-0.325-0.536-0.64-0.536c-0.038,0-0.076,0.003-0.152,0.019c-0.326,0.074-0.55,0.381-0.521,0.714
	c0.021,0.251,0.055,0.5,0.102,0.742c-0.906,0.315-1.739,0.792-2.51,1.45c-0.125,0.164-0.167,0.373-0.119,0.569
	c0.07,0.299,0.332,0.508,0.639,0.508c0.05,0,0.1-0.006,0.143-0.016c0.147-0.03,0.282-0.11,0.343-0.189
	c0.549-0.425,1.157-0.76,1.809-0.997c0.33,1.265,0.949,2.451,1.808,3.455c0.128,0.132,0.307,0.208,0.492,0.208
	c0.047,0,0.095-0.005,0.151-0.017C55.901,22.184,56.119,21.834,56.043,21.463z"/>
</svg>
