<?xml version="1.0" encoding="utf-8"?>
<!-- Generator: Adobe Illustrator 15.0.0, SVG Export Plug-In . SVG Version: 6.00 Build 0)  -->
<!DOCTYPE svg PUBLIC "-//W3C//DTD SVG 1.1//EN" "http://www.w3.org/Graphics/SVG/1.1/DTD/svg11.dtd">
<svg version="1.1" id="レイヤー_1" xmlns="http://www.w3.org/2000/svg" xmlns:xlink="http://www.w3.org/1999/xlink" x="0px"
	 y="0px" width="786.438px" height="71px" viewBox="0 0 786.438 71" enable-background="new 0 0 786.438 71" xml:space="preserve">
<rect id="長方形_8069" x="2.499" y="46.5" fill="#FFFFFF" width="445" height="23"/>
<path id="パス_46515" fill="#243F7E" d="M481.535,33.194l0.183,4.968l12.1-0.506c-10.441,13.615-6.946,23,3.036,26.542
	l2.164-4.462c-7.774-3.036-10.028-8.832,1.472-22.4l-0.138-4.048h0.782V27.4h-2.854v5.06L481.535,33.194z M502.466,27.394v5.888
	h2.899v-5.888H502.466z M531.918,65.122c0.42-4.08,0.779-8.22,1.02-12.36v0.601h6.78v1.86c0,3.119-1.141,4.02-3.36,4.02v5.88
	c6.601,0,8.64-2.46,8.64-9.899v-6.541l5.04,1.92c0.564-0.939,1.008-1.948,1.32-3h2.22v4.561h-6.779v6.48h6.779v6.479h6.54v-6.479
	h6.78v-6.48h-6.78v-4.561h6.78v-6.479h-6.78v-2.101h-6.54v2.101h-1.26v-2.101h-5.58c0.122,2.651-0.479,5.285-1.74,7.621v-19.32
	h-2.819c1.28-3.257,2.01-6.704,2.16-10.2h-14.94c0,2.46-0.66,4.44-2.7,5.4v8.34c0.601-0.3,1.141-0.6,1.681-0.9
	c0,16.261-0.48,23.22-1.681,33.78L531.918,65.122z M557.058,37.822c6.6,0,9.84-3,9.84-10.5v-10.2h-20.1v6.48h3.6
	c-0.381,4.205-1.895,8.227-4.38,11.64l5.94,2.58c3.18-4.32,4.439-9.12,4.92-14.22h3.54v3.72c0,3.12-1.141,4.02-3.36,4.02V37.822z
	 M537.018,23.602c-0.449,1.269-0.971,2.51-1.56,3.72h-3.54c1.077-1.074,1.951-2.334,2.579-3.72H537.018z M533.598,37.643
	c0-1.32,0-2.581,0.06-3.84h1.32v3.84H533.598z M539.718,33.802v3.84h-1.561v-3.84H539.718z M533.238,47.542l0.181-4.14h1.56v4.14
	H533.238z M539.718,43.402v4.14h-1.561v-4.14H539.718z M603.077,20.362v-4.44h-6.479v4.44h-7.561v6.48h7.561v15.48h-7.8v6.48h6.6
	c-1.32,2.819-4.02,6.659-9.42,11.639l4.56,4.681c3.758-3.22,7.014-6.98,9.66-11.16c2.957,4.103,6.38,7.847,10.2,11.16l4.5-4.681
	c-5.88-5.52-9-9.119-10.5-11.639h10.5v-6.48h-1.8v-21.96H603.077z M577.278,23.002l-2.58,5.94l9,3.9l2.58-5.94L577.278,23.002z
	 M603.077,42.322v-15.48h4.141v15.48H603.077z M577.278,33.982l-2.58,5.94l9,3.84l2.58-5.939L577.278,33.982z M580.518,46.223
	c0,4.14-0.84,7.799-5.82,13.799l5.641,3.301c5.699-6.48,6.659-11.1,6.659-17.1H580.518z M652.098,57.202
	c-7.62,2.819-10.32,1.92-10.32-9.479v-27.36h-6.479v27.36c0,15.899,4.979,20.34,18.899,15.6L652.098,57.202z M701.898,26.422h-9.72
	v-6.06h-6.48v28.62c-7.02,0-9.6,4.8-9.6,8.58c0,3.6,2.1,7.56,8.04,7.56c7.439,0,8.04-6.12,8.04-9.66h6.06v-6.479h-6.06V32.902h9.72
	V26.422z M684.138,58.883c-0.906,0.113-1.733-0.529-1.848-1.436c-0.01-0.081-0.015-0.163-0.013-0.245c0-1.38,1.2-2.04,3.78-2.04
	C686.058,57.441,685.938,58.883,684.138,58.883z M728.298,20.362l-0.48,6.42l15.54,1.14l0.48-6.48L728.298,20.362z M733.997,31.402
	c-3.463-0.047-6.904,0.564-10.14,1.8l2.46,6c0,0,2.58-1.319,7.68-1.319c11.761,0,7.32,13.5,0,23.219l5.101,4.021
	C755.838,41.902,745.398,31.402,733.997,31.402z M786.438,17.122h-7.68l0.6,34.14h6.48L786.438,17.122z M779.358,57.322v7.8h6.48
	v-7.8H779.358z"/>
<path id="パス_46325" fill="#00902F" d="M58.005,19.091l13.529,6.437l-3.086,6.371l-4.795-2.3
	c0.715,3.546,1.066,7.155,1.05,10.772c0,14.252-6.634,19.375-13.923,19.375c-7.227,0-15.567-1.51-15.567-15.3
	c0.133-7.926,1.784-15.752,4.865-23.056h-6.9v-7.094h14.646v7.094c-3.482,7.196-5.364,15.061-5.517,23.053
	c0,6.634,3.611,8.21,8.474,8.21c4.137,0,6.83-4.927,6.83-12.282c0-9.59-2.693-14.909-2.693-14.909L58.005,19.091z"/>
<path id="パス_46326" fill="#243F7E" d="M92.277,22.097v6.374h7.436v6.373h-7.436v9.029h6.1v6.373h-6.1
	c0,3.48-0.649,9.5-7.908,9.5c-5.9,0-7.966-3.9-7.966-7.436c0-3.717,2.537-8.438,9.5-8.438V22.097H92.277z M86.252,49.95
	c-2.6,0-3.717,0.649-3.717,2.007c-0.029,0.887,0.666,1.631,1.553,1.66c0.072,0.002,0.145,0,0.217-0.008
	C86.076,53.609,86.253,52.193,86.252,49.95"/>
<path id="パス_46327" fill="#00902F" d="M128.1,60.73l-7.872-2.723c7.757-9.043,14.664-23.394,3.69-24.929
	c-5.529-0.773-11.819,2.147-11.819,2.147l-1.568-6.5c4.254-1.564,8.75-2.363,13.282-2.359c14.817,0.459,20.657,13.678,4.289,34.363
	 M133.281,15.458l-0.525,7.094l-17.013-1.249l0.524-7.027L133.281,15.458z"/>
<path id="パス_46328" fill="#243F7E" d="M154.788,47.229c0,4.927,1.38,5.451,7.554,5.451c11.166,0,15.524-0.883,15.524-0.883
	v7.129c-5.504,0.604-11.038,0.889-16.575,0.848c-10.244,0-12.863-4.424-13.601-12.545H154.788z M151.44,24.765v-7.094h10.442
	c3.612,0,6.438,0.329,8.539,1.248v-6.83h4.071v8.473h-1.642c1.839,1.9,2.627,4.991,2.627,9.721h-7.093
	c0-4.993-1.38-5.517-7.553-5.517L151.44,24.765z M176.464,12.089h4.071v8.473h-4.071V12.089z"/>
<path id="パス_46329" fill="#00902F" d="M236.27,63.737c-6.874-0.158-9.947-3.646-9.947-11.244v-3.556l-0.982-0.107
	c-1.055,5.195-2.934,10.189-5.566,14.79l-5.785-2.313c5.834-10.344,7.055-20.006,7.435-36.254l0.012-0.51h-3.569v-6.253h3.624v-0.5
	c0-1.293,0.017-2.618,0.032-3.989c0.016-1.321,0.032-2.685,0.035-4.105h6.254c0,1.38-0.02,2.731-0.035,4.046
	c-0.016,1.392-0.032,2.744-0.032,4.049v0.5h4.574l-1.207-7.252h3.355l1.208,7.25h0.461v6.254h-8.514l-0.01,0.487
	c-0.07,3.057-0.217,5.931-0.336,8.241l-0.026,0.523h5.329v18.703c0,3.301,1.111,4.813,3.691,4.98V63.737z M199.204,57.438
	c1.477-0.301,1.61-2,1.61-3.606V45.15h-8.524V25.067h22.567V45.15h-8.525v8.686c0,6.17-2.524,9.663-7.127,9.895L199.204,57.438z
	 M198.611,38.828h9.989v-7.505h-9.989V38.828z M192.372,58.155c0.747-3.051,1.103-6.185,1.058-9.325h4.712
	c0.114,3.711-0.331,7.416-1.321,10.994L192.372,58.155z M210.297,58.756c-1.02-3.207-1.458-6.569-1.296-9.93h4.713
	c-0.085,2.79,0.265,5.576,1.033,8.26L210.297,58.756z M192.29,20.918v-6.255h8.12V9.696h6.322v4.967h8.122v6.256L192.29,20.918z"/>
<path id="パス_46330" fill="#243F7E" d="M250.554,63.743v-5.017l-0.648,0.209c-2.775,0.814-5.656,1.213-8.548,1.182v-6.254h1.344
	V17.296h-1.344v-6.258h14.779v3.625h6.3V9.696h6.257v4.967h5.368v6.256h-2.014v9.721h4.188V9.696h4.912v20.943h4.191v6.257h-4.027
	v0.5c-0.082,4.449,0.212,8.898,0.879,13.3l0.146,0.892l0.675-0.601c0.4-0.356,0.801-0.769,1.195-1.195l1.089,5.226
	c-0.529,0.527-1,1-1.533,1.469l-0.239,0.21l0.088,0.3c0.392,1.344,0.911,2.893,1.581,4.725l-5.512,1.895
	c-0.199-0.518-0.376-1.051-0.553-1.566c-0.116-0.343-0.229-0.677-0.345-0.996l-0.2-0.565l-0.518,0.3
	c-2.101,1.242-4.356,2.197-6.709,2.842l-1.045-4.051H258.34V40.573h14.714v16.8l0.67-0.252c1.123-0.404,2.206-0.912,3.236-1.516
	l0.3-0.182l-0.07-0.346c-1.08-5.832-1.549-11.76-1.4-17.688v-0.5h-18.796v-6.251h2.014v-9.721h-2.014v-3.622h-2.2v46.447H250.554z
	 M262.985,55.344h5.424v-4.422h-5.424V55.344z M246.942,53.372l0.6-0.12c0.8-0.16,1.519-0.361,2.147-0.539l0.869-0.24v-6.651h-3.612
	L246.942,53.372z M262.985,49.235h5.424v-4.421h-5.424V49.235z M246.942,39.569h3.612v-7.978h-3.612V39.569z M263.253,30.642h4.553
	v-9.724h-4.553V30.642z M246.942,25.342h3.612v-8.046h-3.612V25.342z M282.723,26.629l-0.555-11.222h2.589l0.555,11.222H282.723z"/>
<path id="パス_46331" fill="#00902F" d="M304.954,42.551V29.226h-5.148v-6.175h5.146v-3.089h6.176v3.089h7.835v-3.089h6.233v3.089
	h5.09v6.176h-5.09v10.521c0,13.781-7.491,20.415-15.725,22.873l-2.633-5.6c8.008-2.631,12.124-7.377,12.124-17.27V29.226h-7.835
	v13.325H304.954z"/>
<path id="パス_46332" fill="#243F7E" d="M333.719,56.676l1.43-6.007l25.276,5.948l-1.43,6L333.719,56.676z M337.951,21.334
	l19.672,4.633l-1.431,6l-19.672-4.627L337.951,21.334z M337.322,42.551l1.431-6.062l18.069,4.289l-1.43,6L337.322,42.551z"/>
<path id="パス_46333" fill="#00902F" d="M372.654,39.063h-6.176v-11.38h6.176V39.063z M371.909,58.219
	c10.353-8.92,12.067-16.871,12.525-23.675h6.118c0,9.207-4.232,19.216-14.301,28.078L371.909,58.219z M381.174,39.063h-6.177v-11.38
	h6.177V39.063z"/>
<path id="パス_46334" fill="#243F7E" d="M399.265,19.961h6.176v14.868l13.04,3.374l-1.544,6.006l-11.5-2.975V62.62h-6.176
	L399.265,19.961z"/>
<path fill="#243F7E" d="M28.5,3h-27C0.672,3,0,2.329,0,1.5S0.672,0,1.5,0h27C29.329,0,30,0.671,30,1.5S29.329,3,28.5,3z"/>
<path fill="#243F7E" d="M1.5,41C0.672,41,0,40.328,0,39.5v-38C0,0.671,0.672,0,1.5,0S3,0.671,3,1.5v38C3,40.328,2.329,41,1.5,41z"/>
<path fill="#243F7E" d="M447.117,71h-26.999c-0.828,0-1.5-0.672-1.5-1.5s0.672-1.5,1.5-1.5h26.999c0.828,0,1.5,0.672,1.5,1.5
	S447.946,71,447.117,71z"/>
<path fill="#243F7E" d="M447.117,71c-0.828,0-1.5-0.672-1.5-1.5v-38c0-0.829,0.672-1.5,1.5-1.5s1.5,0.671,1.5,1.5v38
	C448.617,70.328,447.946,71,447.117,71z"/>
</svg>
