<?xml version="1.0" encoding="utf-8"?>
<!-- Generator: Adobe Illustrator 15.0.0, SVG Export Plug-In . SVG Version: 6.00 Build 0)  -->
<!DOCTYPE svg PUBLIC "-//W3C//DTD SVG 1.1//EN" "http://www.w3.org/Graphics/SVG/1.1/DTD/svg11.dtd">
<svg version="1.1" id="レイヤー_1" xmlns="http://www.w3.org/2000/svg" xmlns:xlink="http://www.w3.org/1999/xlink" x="0px"
	 y="0px" width="432.466px" height="79.994px" viewBox="79.632 27.686 432.466 79.994"
	 enable-background="new 79.632 27.686 432.466 79.994" xml:space="preserve">
<g>
	<path fill="#FFFFFF" d="M250.049,52.572v-9.927h3.672v13.599h-22.777V42.646h3.671v9.927h5.848V40.81h-8.396v-9.995h3.672v6.323
		h4.726v-8.092h3.671v8.092h4.727v-6.323h3.672v9.995h-8.397v11.763L250.049,52.572L250.049,52.572z"/>
	<path fill="#FFFFFF" d="M258.144,47.881c0,0,1.02-5.508,1.02-18.834h21.758v8.159h-18.223c-0.306,7.888-0.952,11.253-0.952,11.253
		L258.144,47.881z M278.881,42.646v2.243h2.04v3.672h-6.188c0.51,0.68,1.188,1.394,2.176,2.142l2.006-1.87l2.005,2.144l-1.428,1.323
		c0.442,0.238,0.884,0.478,1.428,0.682l-1.699,3.264c-5.304-2.414-7.785-5.542-8.907-7.684h-2.687v3.672
		c2.414-0.272,3.943-0.646,3.943-0.646v3.672c0,0-3.637,0.986-9.315,0.986v-3.672c0.578,0,1.156,0,1.7-0.034v-3.978h-1.292v-3.672
		h2.379v-2.243h-1.7v-3.672h1.7v-1.088h3.672v1.088h6.459v-1.088h3.706v1.088h1.36v3.672H278.881z M262.834,32.378
		c-0.034,0.511-0.034,1.021-0.034,1.496h14.415v-1.496H262.834z M275.175,44.889v-2.243h-6.459v2.243H275.175z"/>
	<path fill="#FFFFFF" d="M285.343,31.358c7.105-0.918,11.39-3.672,11.39-3.672s4.25,2.754,11.389,3.672v3.672
		c-5.745-0.714-9.519-2.244-11.389-3.162c-1.904,0.918-5.677,2.448-11.39,3.162V31.358z M299.587,45.229v7.344h8.533v3.672h-22.777
		v-3.672h3.265V41.558h3.671v11.015h3.638V35.37h3.671v6.188h7.515v3.671H299.587z"/>
	<path fill="#FFFFFF" d="M335.32,34.554h-3.399v2.89h3.399v3.672h-9.553v1.462h8.532v2.754h-8.532v1.462h9.213v3.672h-5.745
		c2.72,1.973,6.085,2.209,6.085,2.209l-0.884,3.57c0,0-4.931,0-8.669-3.773v3.773h-3.673V52.47
		c-3.705,3.773-8.669,3.773-8.669,3.773l-0.884-3.57c0,0,3.399-0.236,6.119-2.209h-5.779v-3.672h9.213v-1.462h-8.532v-2.754h8.532
		v-1.462h-9.553v-3.672h3.399v-2.89h-3.399v-3.672h1.599l-0.578-2.517h3.773l0.578,2.517h1.326v-2.517h3.671v2.517h2.04v-2.517
		h3.671v2.517h1.36l0.544-2.517h3.773l-0.544,2.517h1.563L335.32,34.554L335.32,34.554z M328.248,37.443v-2.89h-8.635v2.89H328.248z
		"/>
	<path fill="#FFFFFF" d="M360.785,44.277c0,8.295-5.507,11.967-10.131,11.967v-3.672c3.094,0,6.323-2.72,6.323-8.262
		c0-2.073-0.917-4.827-3.535-5.644c-0.68,7.445-4.08,9.994-6.97,9.994c-2.651,0-5.1-0.884-5.745-3.875
		c-1.19-5.542,4.012-10.063,11.015-10.063C358.304,34.724,360.785,40.537,360.785,44.277z M349.771,38.531
		c-6.459,0.986-6.937,6.697-3.91,6.697C347.358,45.229,349.261,43.563,349.771,38.531z"/>
</g>
<g>
	<g>
		<path fill="#20D13B" d="M85.315,107.679V94.647c-1.617,1.226-3.528,2.304-5.684,3.282v-6.174
			c6.664-3.527,9.651-9.945,9.651-15.335h-9.651v-5.292h4.802v-3.626h5.292v3.626h4.851v5.292c0,3.037-0.686,7.349-3.185,11.514
			l5.292,4.852l-3.577,3.92l-2.499-2.304v13.277H85.315z M106.336,67.503v12.642h6.125v5.291h-6.125v16.953h6.125v5.291H94.92
			v-5.291h6.125V85.435h-5.146v-5.291h5.146V67.503H106.336z"/>
		<path fill="#20D13B" d="M126.573,85.729v2.354h25.086v5.291h-13.032c1.077,1.666,2.548,3.332,4.409,4.851l4.361-4.018l3.577,3.871
			l-3.234,3.037c1.177,0.539,2.499,1.077,3.92,1.52l-1.567,5.046c-10.485-3.675-14.993-8.721-17.492-14.307h-6.026v8.623
			c5.39-0.538,8.672-1.52,8.672-1.52v5.341c0,0-6.026,1.861-16.414,1.861v-5.291c0.833,0,1.666-0.049,2.45-0.049v-8.967h-2.45
			v-5.291h2.45V68.483h28.907v5.291h-23.616v2.354h22.637v3.625h-22.637v2.353h22.637v3.625L126.573,85.729L126.573,85.729z"/>
		<path fill="#20D13B" d="M170.476,80.193c9.26,0.146,17.541,8.673,3.968,27.486l-4.165-3.232c5.93-7.89,9.555-18.767,0.196-18.963
			V97h-5.292V85.877c-2.156,0.294-3.773,0.637-3.773,0.637l-1.176-5.192c0,0,2.107-0.441,4.949-0.784V71.13h5.292L170.476,80.193
			L170.476,80.193z M178.511,76.666l4.898-1.96l4.704,11.808l-4.947,1.96L178.511,76.666z M184.538,75.734v-6.271h3.088v6.271
			H184.538z M188.801,75.734v-6.271h3.087v6.271H188.801z"/>
		<path fill="#20D13B" d="M196.251,71.815c10.239-1.322,16.413-5.292,16.413-5.292s6.125,3.97,16.415,5.292v5.291
			c-8.279-1.028-13.719-3.232-16.415-4.557c-2.743,1.323-8.182,3.527-16.413,4.557V71.815z M215.311,96.166v6.223h13.768v5.291
			h-32.828v-5.291h13.768v-6.223h-10.877v-5.292h10.877v-6.271h-10.877v-5.291h26.998v5.291h-10.828v6.271h10.828v5.292H215.311z"/>
		<path fill="#20D13B" d="M267.787,101.065h-5.586c1.471,1.029,3.283,1.323,6.076,1.323v5.291c-5.93,0-8.967-1.421-11.809-4.997
			l2.059-1.617h-13.328l2.012,1.617c-2.793,3.576-5.881,4.997-11.762,4.997v-5.291c2.744,0,4.559-0.294,6.027-1.323h-5.537V83.231
			h31.848V101.065L267.787,101.065z M237.901,68.483h27.926v13.475h-27.926V68.483z M241.231,87.298v1.861h21.266v-1.861H241.231z
			 M241.231,91.218v1.861h21.266v-1.861H241.231z M241.231,96.951h21.266v-1.813h-21.266V96.951z M260.535,76.666v-2.893h-17.344
			v2.893H260.535z"/>
		<path fill="#20D13B" d="M293.709,79.066c0,0.735-0.1,1.52-0.295,2.255h14.064v5.291h-7.84c1.764,1.028,4.262,2.059,7.84,2.939
			l-1.715,4.997c-2.744-0.783-5.146-1.666-7.105-2.646l0.344,0.833c-4.018,1.471-6.859,1.813-15.875,1.813v-2.548
			c-2.01,0.979-4.264,1.862-6.811,2.548l-1.666-4.997c3.037-0.735,5.537-1.764,7.545-2.939h-7.545v-5.291h13.131
			c0.441-0.833,0.637-1.568,0.637-2.255H293.709z M282.098,67.503h7.104l-4.947,6.174c5.977-0.196,9.895-0.637,12.346-1.029
			l-1.42-4.065h5.781l3.771,10.484h-5.781l-0.539-1.47c-2.842,0.588-9.016,1.47-21.02,1.47v-5.292L282.098,67.503z M277.785,102.388
			c18.029,0,20.773-1.078,24.598-2.499l1.959,4.948c-4.752,1.765-8.084,2.842-26.557,2.842V102.388z M280.678,96.363
			c12.543,0,15.334-0.735,19.156-1.961l1.91,4.115c-4.705,1.521-7.74,2.254-21.066,2.254V96.363L280.678,96.363z M291.604,86.612
			h-1.127c-1.078,1.226-2.451,2.4-4.066,3.479c3.969-0.05,6.271-0.245,8.133-0.638C293.317,88.522,292.338,87.592,291.604,86.612z"
			/>
		<path fill="#20D13B" d="M323.108,77.842c-0.098,17.394-0.686,21.362-4.801,29.838l-4.459-2.842
			c3.381-7.644,3.871-10.877,3.969-26.996h-2.988V72.55h2.988v-5.047h5.291v5.047h8.525v26.556c0,6.076-2.645,8.574-7.986,8.574
			h-1.273v-5.291h1.273c1.814,0,2.695-0.734,2.695-3.283V77.842H323.108z M346.678,73.774v32.437h-13.572V73.774H346.678z
			 M341.385,100.919V79.066h-2.939v21.854L341.385,100.919L341.385,100.919z"/>
	</g>
	<g>
		<path fill="#FFFFFF" d="M375.047,95.713c0,8.295-5.508,11.967-10.132,11.967v-3.672c3.094,0,6.323-2.72,6.323-8.262
			c0-2.073-0.919-4.827-3.535-5.644c-0.681,7.445-4.08,9.994-6.971,9.994c-2.65,0-5.099-0.884-5.744-3.875
			c-1.189-5.542,4.012-10.063,11.015-10.063C372.565,86.16,375.047,91.972,375.047,95.713z M364.032,89.967
			c-6.46,0.986-6.937,6.697-3.91,6.697C361.618,96.665,363.522,94.999,364.032,89.967z"/>
		<path fill="#FFFFFF" d="M384.636,79.802h3.706v2.517h4.113v3.672h-11.934v-3.672h4.113L384.636,79.802L384.636,79.802z
			 M380.523,98.262V87.587h11.934v10.676h-4.317v4.147c0,3.534-1.632,5.27-4.114,5.27v-3.672c0.646,0,0.816-0.51,0.816-1.598v-4.147
			H380.523z M380.523,104.756c0.577-2.516,0.577-3.672,0.577-5.134h2.892c0,1.87,0.032,3.229-0.748,6.152L380.523,104.756z
			 M384.229,91.259v3.298h4.556v-3.298H384.229z M389.736,105.231c-0.781-2.38-0.747-3.738-0.747-5.608h2.89
			c0,1.462,0,2.618,0.578,4.59L389.736,105.231z M401.43,101.729c0,1.77,0.646,2.278,1.87,2.278v3.672
			c-3.706,0-5.542-1.733-5.542-5.95v-1.802c-0.645,2.958-1.563,5.406-2.957,7.752l-3.399-1.36c2.924-5.064,3.672-9.757,3.876-18.493
			h-1.803v-3.672h1.836c0-1.359,0.034-2.787,0.034-4.353h3.672c0,1.53-0.034,2.992-0.034,4.353h1.769l-0.611-3.672h2.209
			l0.612,3.672h0.271v3.672h-4.317c-0.033,1.496-0.103,2.854-0.17,4.182h2.686L401.43,101.729L401.43,101.729z"/>
		<path fill="#FFFFFF" d="M428.46,79.802v10.607h2.04v3.672h-2.04c0,2.312,0.066,4.419,0.441,6.696
			c0.307-0.271,0.611-0.611,0.918-0.951l0.681,3.264c-0.308,0.306-0.578,0.578-0.885,0.85c0.237,0.816,0.545,1.7,0.885,2.618
			l-3.265,1.122c-0.204-0.511-0.375-1.055-0.545-1.53c-1.154,0.681-2.379,1.19-3.705,1.53l-0.544-2.107h-6.119V95.44h7.955v8.397
			c0.544-0.204,1.089-0.442,1.599-0.748c-0.646-3.128-0.714-6.018-0.714-9.009h-9.521v-3.672h1.021v-4.42h-1.021v-1.837h-0.61
			v23.526h-2.652v-2.448c-0.951,0.307-2.48,0.612-4.656,0.612v-3.672h0.68V84.154h-0.68v-3.672h7.988v1.836h2.686v-2.517h3.672
			v2.517h2.721v3.672h-1.021v4.42h1.7V79.802H428.46z M412.379,87.723v-3.569h-1.325v3.569H412.379z M412.379,94.93v-3.536h-1.325
			v3.536H412.379z M412.379,98.602h-1.325v3.265c0.51-0.104,0.952-0.238,1.325-0.341V98.602z M421.422,99.827v-1.734h-2.243v1.734
			H421.422z M421.422,102.92v-1.734h-2.243v1.734H421.422z M421.118,90.41v-4.42h-1.804v4.42H421.118z M428.868,82.691h1.325
			l0.308,6.188h-1.326L428.868,82.691z"/>
		<path fill="#FFFFFF" d="M456.68,79.768l-0.545,2.55h1.564v14.448h-1.904v4.963c0,1.77,0.646,2.278,1.904,2.278v3.672
			c-3.74,0-5.576-1.733-5.576-5.95v-4.963h-2.039c-0.137,5.745-1.463,8.873-4.998,10.913l-1.496-2.516v2.516h-8.668v-9.995h8.668
			v6.563c1.904-1.396,2.721-3.265,2.822-7.479h-1.803V82.318h1.563l-0.543-2.517h3.772l0.544,2.517h2.413l0.545-2.55H456.68z
			 M443.59,84.46v3.671h-8.668V84.46H443.59z M442.571,80.482v2.651h-6.629v-2.651H442.571z M442.571,89.492v2.65h-6.629v-2.65
			H442.571z M435.942,96.222v-2.651h6.629v2.651H435.942z M439.918,104.008v-2.652h-1.325v2.652H439.918z M454.028,93.094V85.99
			h-5.745v7.104H454.028z"/>
		<path fill="#FFFFFF" d="M471.811,84.154v19.854h-9.688V84.154H471.811z M468.139,92.246v-4.42h-2.346v4.42H468.139z
			 M468.139,100.336v-4.42h-2.346v4.42H468.139z M471.436,106.557c1.156-3.298,2.074-8.736,2.074-26.075h11.389v21.247
			c0,4.217-1.836,5.95-5.574,5.95v-3.672c1.258,0,1.902-0.51,1.902-2.278v-2.413h-4.69c-0.373,4.013-0.951,6.392-1.599,8.363
			L471.436,106.557z M477.012,91.735c-0.034,1.429-0.102,2.721-0.17,3.909h4.385v-3.909H477.012z M477.182,84.154
			c-0.034,1.395-0.034,2.687-0.068,3.909h4.113v-3.909H477.182z"/>
		<path fill="#FFFFFF" d="M512.098,86.466c-5.744-0.714-9.519-2.244-11.389-3.162c-1.903,0.918-5.677,2.448-11.389,3.162v-3.672
			c7.104-0.918,11.389-3.672,11.389-3.672s4.25,2.754,11.389,3.672V86.466z M491.225,104.008l3.127-6.596h-4.012V93.74h20.738v3.672
			h-12.681l-3.061,6.493c5.541-0.203,9.417-0.851,11.049-1.155l-0.646-3.025h3.773l1.7,7.955h-3.773l-0.307-1.395
			c-0.68,0.17-5.746,1.395-15.91,1.395L491.225,104.008L491.225,104.008z M493.911,87.417h13.599v3.672h-13.599V87.417z"/>
	</g>
</g>
</svg>
