<?xml version="1.0" encoding="UTF-8"?>
<svg id="_レイヤー_1" data-name="レイヤー_1" xmlns="http://www.w3.org/2000/svg" version="1.1" viewBox="0 0 155.1 41.9">
  <!-- Generator: Adobe Illustrator 29.1.0, SVG Export Plug-In . SVG Version: 2.1.0 Build 142)  -->
  <defs>
    <style>
      .st0 {
        fill: #fff;
      }
    </style>
  </defs>
  <path class="st0" d="M0,18.8h17.4v2.8H0v-2.8ZM16.6.8v2.8H.8V.8h15.8ZM15.4,12.6H2.1v-2.8h13.3v2.8Z"/>
  <path class="st0" d="M30.9.3v1.9h7.3v5.6h-2.8v-2.8h-11.8v2.8h-2.8V2.2h7.3V.3h2.8ZM21.3,13.4h6.8v-1h-3.7v-6.3h10.2v6.3h-3.7v1h6.8v8.2h-16.4v-8.2ZM34.9,16.2h-10.8v2.6h10.8v-2.6ZM27.2,10h4.6v-1.7h-4.6v1.7Z"/>
  <path class="st0" d="M47.5,14h-5.9V.8h7.6v2.8h-2v1.2h1.6v1.9h-1.6v1.2h1.6v1.9h-1.6v1.2h2v5.9c0,2.6-.5,4.5-3,4.5v-2.8c.8,0,1.3-.7,1.3-1.7v-3ZM43.2,14.8s0,4.2-.3,6.8h-1.3c.3-2.3.3-6.8.3-6.8h1.3ZM44.5,19.5h-.8v-4.7h.8v4.7ZM45.5,4.8v-1.2h-1.4v1.2h1.4ZM45.5,8v-1.2h-1.4v1.2h1.4ZM45.5,11.2v-1.2h-1.4v1.2h1.4ZM45.7,18.4h-.8v-3.6h.8v3.6ZM47,14.8v3.1h-.8v-3.1h.8ZM49.2,20.7c1.3-5.6,1.1-11.7,1.1-19.9h8.7v11.8h-1.9c.4,5,1.9,7.8,1.9,7.8l-2.5,1.2s-1.8-3-2.2-9h-1.2c-.1,3.4-.4,6.4-1.1,9l-2.7-.9ZM53.1,3.6c0,2.2,0,4.2,0,6.2h3.1V3.6h-3.1Z"/>
  <path class="st0" d="M83.5,5.1v3.2h4.1v2.8h-4.1v2.2h3.6v2.8h-3.6v2.6c.4,0,.8,0,1.1,0h3v2.8h-3c-2.8,0-4.5-.5-5.9-1.6-.2.5-.4,1-.6,1.6l-2.7-.7v.8h-2.8v-7c-.7.7-1.5,1.3-2.3,1.8v-3.9c1.2-.7,2.1-2.1,2.5-3.5-.7.7-1.5,1.4-2.5,1.9v-3.9c1.8-1,2.3-2.9,2.3-4.7h2.8c0,1.4-.2,2.8-.8,4.1h1.6c0,1.7-.5,3.7-1.6,5.5h.8v8.8c1.1-2.5,1.2-4.9,1.2-7.8h2.8c0,1.4,0,2.7-.1,3.8.4.4.9.8,1.4,1.1v-6.6h-4.1v-2.8h4.1v-3.2h-3.3v-2.8h3.3V.3h2.8v2.1h3.4v2.8h-3.4Z"/>
  <path class="st0" d="M101.9,5.3v1.7h6.5v2.8h-7.3v1.9c0,3.7-1.4,5-4.9,5v-2.8c1.6,0,2.1-.4,2.1-2.2v-1.9h-7.3v-2.8h2.5V2.2h2.8v4.8h2.8V.3h2.8v2.2h5.7v2.8h-5.7ZM95.4,10.7c0,2.3-.5,4.1-2,6l-2.4-1.4c1.2-1.6,1.6-3.1,1.6-4.6h2.8ZM105,16.5c-2.2,2.4-6.7,5.1-14,5.1v-2.8c6.3,0,9.9-2,12.1-4.3l2,2.1ZM106.9,10.7c0,1.5.4,3,1.6,4.6l-2.4,1.4c-1.5-1.9-2-3.7-2-6h2.8Z"/>
  <path class="st0" d="M114,21.6V3.6h-1.5V.8h4.3v20.8h-2.8Z"/>
  <path class="st0" d="M133.4,5.9v10.5c0,3.8-2.7,5.4-5.7,5.4s-5.7-1.6-5.7-5.4V5.9c0-3.8,2.7-5.4,5.7-5.4s5.7,1.6,5.7,5.4ZM130.5,5.9c0-1.8-.9-2.6-2.9-2.6s-2.9.8-2.9,2.6v10.5c0,1.8.9,2.6,2.9,2.6s2.9-.8,2.9-2.6V5.9Z"/>
  <path class="st0" d="M137.6,6.7c2.5-2.1,3.5-3.8,4.2-6.7l2.7.8c-.8,3.6-2.5,6.2-5,8l-1.9-2.1ZM144.9,13.1c-.5,4.7-3.1,7.2-5.5,8.5l-1.7-2.2c2.1-1.2,3.9-3,4.4-6.3h-2.6v-2.8h14.6v6.8c0,3.2-1.4,4.5-4.3,4.5h-2v-2.8h2c1,0,1.5-.4,1.5-1.7v-4h-6.3ZM150.9,0c.7,2.9,1.7,4.6,4.2,6.7l-1.9,2.1c-2.5-1.8-4.3-4.4-5-8l2.7-.8Z"/>
  <path class="st0" d="M14.7,30.8v-1.7h5.2v2.2c0,2-.9,2.8-2.6,2.8v-1.7c.6,0,.9-.2.9-1.1v-.5h-1.2c-.3,2.2-1.3,3.3-1.3,3.3l-1-.5v.5c0,0-1.7,0-1.7,0v-.5c-.7.2-2,.5-3.7.5v-1.7h.3v-3.1c2.5,0,4.7-.5,4.7-.5v1.7s-1.3.3-3,.4v1.3c.6,0,1-.2,1.4-.3v-.6c0,0,1.7,0,1.7,0l.2,1.3c.2-.4.5-1,.6-1.8h-.4ZM19.4,40.1h-.8c.3.2.8.3,1.3.4l-.5,1.4c-1.7-.2-2.5-.9-3-1.8h-3.7c-.5.9-1.3,1.6-3,1.8l-.5-1.4c.5,0,.9-.2,1.3-.4h-.8v-5.7h9.8v5.7ZM17.6,36.2v-.5h-6.3v.5h6.3ZM17.6,37.5v-.5h-6.3v.5h6.3ZM17.6,38.9v-.5h-6.3v.5h6.3Z"/>
  <path class="st0" d="M24.9,35c0,.2,0,.5,0,.7h7.8v3.4c0,2-.9,2.8-2.6,2.8v-1.7c.6,0,.9-.2.9-1.1v-1.7h-.9c-.2,3-1.5,4.5-1.5,4.5l-1.5-.9s1.1-1.3,1.3-3.6h-1.2c-.2,2.5-1.6,3.8-1.6,3.8l-1.5-.9s1.1-1.1,1.3-2.9h-1c-.4,1-1,1.6-1,1.6l-1.5-.9s1.1-1.1,1.2-3h-.7v-5.9h9.8v5.9h-7.3ZM24.1,30.8v.7h6.3v-.7h-6.3ZM24.1,33.3h6.3v-.7h-6.3v.7Z"/>
  <path class="st0" d="M37.4,34.4l-1.4.3-.4-1.7,1.8-.4v-2.6h1.7v2.2l4.9-1.1-.5,4.9-1.7-.2.3-2.5-2.9.7v4.9c0,1.2.3,1.3,1.8,1.3h2.3v1.7h-2.5c-2.4,0-3.3-.6-3.3-3.1v-4.5Z"/>
  <path class="st0" d="M52,33.4l-1.2,1.2-2.5-2.6,1.2-1.2,2.5,2.6ZM56.9,33.6c-1.1,4.1-3.6,6.8-7.4,8.3l-.9-1.5c3.8-1.8,5.5-3.8,6.7-7.5l1.6.7Z"/>
  <path class="st0" d="M64.7,30c0,.3,0,.6,0,.9h3.7v4.7c0,3.9-2.1,5.7-4.4,6.4l-.7-1.6c1.7-.6,2.8-1.5,3.2-3.2l-2.4-.9.6-1.6,2,.7v-2.8h-2.1c-.3,1.5-.8,2.8-1.7,3.9l-1.4-1c1.1-1.5,1.6-3.3,1.6-5.5h1.7Z"/>
  <path class="st0" d="M74,35.2h6.7v1.7h-6.7v-1.7Z"/>
  <path class="st0" d="M88.3,37.3h-3.6v-8.2h4.7v1.7h-1.2v.8h1v1.2h-1v.8h1v1.2h-1v.8h1.2v3.6c0,1.6-.3,2.8-1.9,2.8v-1.7c.5,0,.8-.4.8-1.1v-1.8ZM85.7,37.7s0,2.6-.2,4.2h-.8c.2-1.4.2-4.2.2-4.2h.8ZM86.4,40.6h-.5v-2.9h.5v2.9ZM87.1,31.6v-.8h-.9v.8h.9ZM87.1,33.6v-.8h-.9v.8h.9ZM87.1,35.5v-.8h-.9v.8h.9ZM87.2,40h-.5v-2.2h.5v2.2ZM88,37.7v1.9h-.5v-1.9h.5ZM89.4,41.4c.8-3.4.7-7.2.7-12.3h5.4v7.3h-1.2c.3,3.1,1.2,4.8,1.2,4.8l-1.6.8s-1.1-1.9-1.4-5.5h-.8c0,2.1-.3,4-.7,5.5l-1.6-.5ZM91.7,30.8c0,1.3,0,2.6,0,3.8h1.9v-3.8h-1.9Z"/>
  <path class="st0" d="M101.5,41.9v-11.1h-4v-1.7h10.7v1.7h-5v2.6l4.4,1v1.8l-4.4-1v6.8h-1.7Z"/>
  <path class="st0" d="M114.7,41.9v-.9h-4.5v-1.7h4.5v-.8h-4v-6.4h4v-.8h-4.5v-1.7h4.5v-.9h1.7v.9h4.5v1.7h-4.5v.8h4v6.4h-4v.8h4.5v1.7h-4.5v.9h-1.7ZM112.5,33.9v1h2.3v-1h-2.3ZM112.5,36.8h2.3v-1h-2.3v1ZM116.5,33.9v1h2.3v-1h-2.3ZM116.5,35.9v1h2.3v-1h-2.3Z"/>
  <path class="st0" d="M128.8,32.6h-4v-1.7h4v-.9h1.7v.9h1.6v1.7h-1.6v4.2c0,3.6-1.3,5.2-1.3,5.2l-1.5-.8s.5-.6.8-1.9c-1.9,0-2.8-.9-2.8-2.4s1.3-2.3,3.1-2.3v-1.9ZM128.7,36.8c0-.3-.3-.6-.6-.6s-.6.3-.6.6.3.6.6.6.6-.3.6-.6Z"/>
  <path class="st0" d="M143.2,30.9l-3,5.1,3,5.1-1.5.9-3.6-6,3.6-6,1.5.9ZM142.5,34.6v-2h1v2h-1ZM143.9,34.6v-2h1v2h-1Z"/>
</svg>