<?xml version="1.0" encoding="utf-8"?>
<!-- Generator: Adobe Illustrator 15.0.0, SVG Export Plug-In . SVG Version: 6.00 Build 0)  -->
<!DOCTYPE svg PUBLIC "-//W3C//DTD SVG 1.1//EN" "http://www.w3.org/Graphics/SVG/1.1/DTD/svg11.dtd">
<svg version="1.1" id="レイヤー_1" xmlns="http://www.w3.org/2000/svg" xmlns:xlink="http://www.w3.org/1999/xlink" x="0px"
	 y="0px" width="125.238px" height="74.428px" viewBox="0 0 125.238 74.428" enable-background="new 0 0 125.238 74.428"
	 xml:space="preserve">
<path fill="#FFFFFF" d="M13.226,6.8v4.031h1.995v2.268h-2.667c0.462,1.028,1.302,1.575,2.667,1.848l-0.651,2.185
	c-2.499-0.441-3.506-1.681-4.241-3.486l1.365-0.546H4.681l1.344,0.546c-0.714,1.806-1.722,3.044-4.241,3.486l-0.63-2.185
	c1.365-0.272,2.205-0.819,2.667-1.848H1.154V10.83h1.26V1.047c6.845,0,9.931-1.134,9.931-1.134V2.18c0,0-2.142,0.903-7.664,1.092
	v1.26h9.91v2.268L13.226,6.8L13.226,6.8z M10.958,10.83V6.8H4.68v4.031H10.958z"/>
<path fill="#FFFFFF" d="M26.624-0.088v1.554h5.396v2.268h-4.43v0.777h3.8V6.36h-3.8v0.756h4.43v6.361h-4.43v0.84h3.8v1.848h-3.8
	v0.967h-2.268v-0.968h-3.8v-1.848h3.8v-0.84h-4.43V7.115h4.43V6.358h-4.22V4.51h4.22V3.733H20.85
	c-0.105,6.865-0.672,9.721-0.672,9.721l-2.226-0.356c0,0,0.63-3.401,0.63-11.632h5.774v-1.554H26.624z M25.322,9.655V8.963h-2.163
	v0.692H25.322z M25.322,11.629v-0.672h-2.163v0.672H25.322z M27.59,8.963v0.692h2.163V8.963H27.59z M27.59,10.956v0.672h2.163
	v-0.672H27.59z"/>
<path fill="#FFFFFF" d="M44.873,2.641v-2.31h1.301v2.688h-0.356l0.063,1.848c-5.25,6.194-4.221,8.839-0.672,10.226l-0.987,2.036
	c-4.556-1.616-6.152-5.899-1.386-12.114l-5.522,0.23L37.23,2.977L44.873,2.641z M48.106,0.332V3.02h-1.322V0.332H48.106z"/>
<path fill="#FFFFFF" d="M54.975,1.551c0,2.646-0.314,4.85-1.155,6.656h0.882v8.923h-2.268v-6.866
	c-0.378,0.42-0.818,0.799-1.303,1.155V8.079c0.861-0.734,1.765-2.33,1.765-6.529H54.975z M63.078,0.332c0,0.798,0,1.554-0.021,2.268
	H65.2v10.833c0,2.624-0.525,3.696-2.604,3.696h-0.861v-2.269h0.861c0.777,0,0.966-0.336,0.966-1.428V4.866h-0.504
	c-0.084,6.235-0.44,7.811-1.597,9.742l-1.279-0.965h-1.303v0.986c1.029-0.104,1.723-0.23,1.723-0.23v2.268
	c0,0-1.869,0.462-5.375,0.462v-2.268c0.63,0,1.26-0.042,1.869-0.084v-1.134h-1.387v-1.68h1.387v-0.672h-1.869V5.874h1.869V5.118
	h-1.869v-1.68h1.869V2.663c-0.484,0.02-1.03,0.02-1.659,0.02V0.416c2.562,0,4.892-0.44,4.892-0.44v2.267
	c0,0-0.377,0.146-1.449,0.272v0.924h1.869v-0.84h0.672c0.021-0.714,0.021-1.448,0.021-2.268L63.078,0.332L63.078,0.332z M57.451,8.1
	V7.407h-0.756V8.1H57.451z M57.451,9.76V9.067h-0.756V9.76H57.451z M58.523,7.407V8.1h0.756V7.407H58.523z M58.523,9.76h0.756V9.067
	h-0.756V9.76z M60.266,13.034c0.84-1.721,1.092-3.064,1.154-8.167h-0.672v0.252h-1.869v0.756h1.869v5.417h-1.869v0.672h1.387V13.034
	z"/>
<path fill="#FFFFFF" d="M72.509,11.522c0.188,2.268,2.203,3.003,4.031,3.381l-0.463,2.226c-2.666-0.546-5.584-1.806-5.836-5.417
	L72.509,11.522z M77.212,1.467V2.6h2.142v2.268h-2.142v2.184h2.142v2.288h-2.142v3.213h-2.269V9.341h-3.423V7.052h3.423V4.868
	h-3.423V2.599h3.423V1.467H77.212z"/>
<path fill="#FFFFFF" d="M91.282,4.867h-2.52l-0.672,9.658h-2.268l0.65-9.658h-1.555V2.599h1.723l0.063-1.134h2.289l-0.084,1.134
	h2.373V4.867L91.282,4.867z M96.846,14.338l0.608,2.184c0,0-0.504,0.607-3.59,0.607c-3.15,0-4.347-0.734-4.347-4.011h2.269
	c0,1.575,0.42,1.743,2.394,1.743C96.216,14.862,96.846,14.338,96.846,14.338z M90.737,9.34V7.072h5.501V9.34H90.737z"/>
<path fill="#FFFFFF" d="M104.282,11.082c0,1.974,0.168,2.415,1.764,2.415v2.268c-3.297,0-4.031-1.219-4.031-4.347V3.355h2.268
	V11.082L104.282,11.082z M109.636,4.72c3.275,0,4.011,1.197,4.011,4.347v6.698h-2.269V9.383c0-1.975-0.168-2.395-1.742-2.395V4.72z"
	/>
<path fill="#FFFFFF" d="M125.03,12.279h-2.268L122.55,0.332h2.688L125.03,12.279z M125.03,14.399v2.73h-2.268v-2.73H125.03z"/>
<path fill="#FFFFFF" d="M26.794,36.135h-1.008v4.936c0.357-0.127,0.693-0.273,1.008-0.42v2.268
	c-0.567,0.461-2.142,0.943-4.262,0.943v-2.268c0.336,0,0.672-0.021,0.987-0.063v-5.397h-0.987v-2.268h0.987V31.6h2.267v2.268h1.008
	V36.135z M33.324,28.932v3.465l3.275-0.797v7.202c0,2.625-1.134,3.695-3.443,3.695v-2.289c0.777,0,1.176-0.314,1.176-1.406v-4.305
	l-1.008,0.23v4.243h-2.268v-3.676l-0.987,0.23v6.592c0,1.576,0.42,1.744,2.394,1.744h4.115v2.268h-4.451
	c-3.128,0-4.346-0.734-4.346-4.012v-6.022l-0.462,0.104v-2.331l0.462-0.104v-3.717h2.289v3.148l0.987-0.23v-4.031h2.267V28.932z"/>
<path fill="#FFFFFF" d="M42.943,40.649v2.268c-0.588,0.463-1.512,0.945-3.631,0.945v-2.268c0.231,0,0.462-0.021,0.693-0.021v-5.438
	h-0.693v-2.269h0.693v-2.269h2.269v2.269h0.672v2.269h-0.672v4.829L42.943,40.649z M52.664,29.332l0.147,1.135h0.566v2.268h-2.834
	c0.042,2.709,0.126,4.703,0.357,6.299c0.294-0.672,0.566-1.323,0.798-1.932l1.68,1.198c-0.356,0.924-0.882,2.225-1.68,3.631
	c0.399,0.924,0.944,1.723,1.68,2.584l-1.596,1.615c-0.608-0.672-1.134-1.344-1.554-2.059c-0.567,0.715-1.219,1.406-1.996,2.059
	l-1.049-1.783c0.293-0.252,0.588-0.525,0.86-0.799c-0.608,0.271-2.1,0.775-4.682,0.775v-2.268c3.002,0,5.018-0.945,5.018-0.945
	v2.061c0.337-0.381,0.63-0.777,0.925-1.197c-0.715-2.186-0.945-4.978-1.009-9.239h-4.724v-2.268h4.703
	c-0.021-0.504-0.021-1.009-0.021-1.555h2.268v1.555h0.799l-0.146-1.135H52.664z M47.709,33.867v6.762h-4.136v-6.762H47.709z
	 M46.177,38.36v-2.225h-1.072v2.225H46.177z"/>
<path fill="#FFFFFF" d="M64.279,28.912v1.555h5.9v3.946H67.91v-1.681h-9.532v1.681h-2.268v-3.946h5.9v-1.555H64.279z M56.111,39.2
	c0.566-2.121,0.63-3.548,0.63-3.969h2.269c0,1.22,0,2.121-0.673,4.368L56.111,39.2z M56.74,40.858h2.269v3.004h3.002v-3.633h2.268
	v3.633h3.002v-3.004h2.268v5.271H56.74V40.858z M59.009,38.444c0.356-0.125,0.734-0.271,1.112-0.439
	c-0.294-0.589-0.399-1.386-0.399-2.438v-2.016h2.269v2.016c0,0.716,0.084,1.156,0.378,1.408c1.365-0.715,2.708-1.533,3.758-2.479
	l1.387,1.785c-0.399,0.355-0.841,0.713-1.303,1.027h3.338v2.29h-5.501c-0.63,0-1.176-0.041-1.659-0.105
	c-0.882,0.4-1.764,0.756-2.562,1.072L59.009,38.444z M64.636,33.217l0.377,1.891h-2.1l-0.378-1.891H64.636z M67.7,35.022h2.1
	l0.379,1.89h-2.101L67.7,35.022z"/>
<path fill="#FFFFFF" d="M84.374,28.912l-0.336,1.448h2.938v2.06h-5.899v0.629h5.271v1.68h-5.271v0.631h5.899v2.078h-9.805
	c-0.021,0.209-0.063,0.42-0.104,0.629h9.489v8.064H75.535v-5.061c-0.524,0.566-0.987,0.84-0.987,0.84l-1.638-1.576
	c0,0,1.596-0.902,1.953-2.897H72.91v-2.077h5.899v-0.632h-5.27v-1.68h5.27V32.42H72.91v-2.059h2.96l-0.314-1.448h2.33l0.315,1.448
	h3.506l0.336-1.448L84.374,28.912L84.374,28.912z M77.802,39.915v0.566h6.488v-0.566H77.802z M77.802,41.782v0.588h6.488v-0.588
	H77.802z M77.802,43.694v0.588h6.488v-0.588H77.802z"/>
<path fill="#FFFFFF" d="M102.706,38.739c0,5.123-3.401,7.391-6.257,7.391v-2.268c1.91,0,3.904-1.68,3.904-5.104
	c0-1.28-0.566-2.98-2.184-3.485c-0.42,4.598-2.52,6.172-4.304,6.172c-1.638,0-3.149-0.545-3.548-2.393
	c-0.735-3.422,2.478-6.215,6.803-6.215C101.174,32.84,102.706,36.43,102.706,38.739z M95.905,35.19
	c-3.989,0.609-4.283,4.137-2.415,4.137C94.413,39.327,95.589,38.3,95.905,35.19z"/>
<path fill="#FFFFFF" d="M17.984,57.211h2.289v1.555h2.54v2.268h-7.369v-2.268h2.541L17.984,57.211L17.984,57.211z M15.444,68.612
	v-6.595h7.369v6.595h-2.666v2.561c0,2.186-1.008,3.256-2.541,3.256v-2.268c0.398,0,0.504-0.314,0.504-0.988v-2.561H15.444z
	 M15.444,72.622c0.357-1.553,0.357-2.268,0.357-3.17h1.785c0,1.154,0.021,1.994-0.463,3.801L15.444,72.622z M17.732,64.286v2.037
	h2.813v-2.037H17.732z M21.135,72.917c-0.483-1.471-0.463-2.311-0.463-3.465h1.785c0,0.902,0,1.617,0.356,2.834L21.135,72.917z
	 M28.356,70.753c0,1.094,0.399,1.408,1.155,1.408v2.268c-2.288,0-3.424-1.07-3.424-3.676v-1.111
	c-0.397,1.828-0.965,3.34-1.825,4.787l-2.101-0.84c1.807-3.129,2.269-6.025,2.395-11.423h-1.111v-2.268h1.133
	c0-0.84,0.021-1.723,0.021-2.688h2.269c0,0.944-0.021,1.849-0.021,2.688h1.092L27.56,57.63h1.364l0.378,2.269h0.168v2.268h-2.666
	c-0.021,0.924-0.063,1.764-0.105,2.583h1.658L28.356,70.753L28.356,70.753z"/>
<path fill="#FFFFFF" d="M36.295,61.054l-0.901,2.077l-3.149-1.364l0.903-2.078L36.295,61.054z M36.295,64.874l-0.901,2.08
	l-3.149-1.345l0.903-2.08L36.295,64.874z M36.547,67.813c0,2.1-0.336,3.717-2.352,5.984l-1.951-1.154
	c1.742-2.1,2.035-3.381,2.035-4.83H36.547z M37.158,57.841c5.313,0,9.153-0.63,9.153-0.63v2.268c0,0-1.28,0.211-3.442,0.399v1.974
	h3.442v2.268h-3.442v1.911h3.442v8.398h-9.153V66.03H40.6v-1.911h-3.442v-2.268H40.6v-1.826c-1.028,0.041-2.205,0.084-3.442,0.084
	V57.841z M44.043,68.298h-4.618v3.863h4.618V68.298z"/>
<path fill="#FFFFFF" d="M55.279,64.958c-1.154,0.692-2.33,1.197-3.904,1.66l-0.65-2.164c3.232-0.985,6.172-3.19,7.957-5.688
	l1.826,1.321c-0.818,1.028-1.848,2.205-2.961,3.19v11.151h-2.268V64.958z"/>
<path fill="#FFFFFF" d="M65.36,65.798l5.146-5.06l8.943,9.511l-1.658,1.557l-7.35-7.813l-3.484,3.422L65.36,65.798z M76.006,60.779
	v2.709h-1.303v-2.709H76.006z M77.938,60.779v2.709h-1.303v-2.709H77.938z"/>
<path fill="#FFFFFF" d="M88.018,63.277l-1.617,1.597l-3.254-3.399l1.617-1.576L88.018,63.277z M94.547,63.488
	c-1.406,5.44-4.744,8.86-9.699,10.94l-1.154-1.953c5.039-2.311,7.182-5.02,8.775-9.87L94.547,63.488z"/>
<path fill="#FFFFFF" d="M102.74,58.765h2.268v5.459l4.787,1.237l-0.566,2.205l-4.221-1.092v7.854h-2.268V58.765L102.74,58.765z"/>
</svg>
