<?xml version="1.0" encoding="UTF-8"?>
<svg id="_レイヤー_1" data-name="レイヤー_1" xmlns="http://www.w3.org/2000/svg" version="1.1" viewBox="0 0 120.3 48">
  <!-- Generator: Adobe Illustrator 29.1.0, SVG Export Plug-In . SVG Version: 2.1.0 Build 142)  -->
  <defs>
    <style>
      .st0 {
        fill: #fff;
      }
    </style>
  </defs>
  <path class="st0" d="M20.4,0v6.9h6.2v11.2h-14.7v-2.4h12.4v-2h-11.7v-2.4h11.7v-2h-12.4v-2.4h6.2V0h2.4ZM15.7.4l.5,5.4h-2.4l-.5-5.4h2.4ZM22.7.4h2.4l-.5,5.4h-2.4l.5-5.4Z"/>
  <path class="st0" d="M29.4,18V.4h14.7v17.6h-14.7ZM31.8,2.8v5.2h10V2.8h-10ZM31.8,10.4v5.2h10v-5.2h-10Z"/>
  <path class="st0" d="M55.6,5.2c0,.3,0,.7-.1,1h6.3v2.4h-3.5c.8.5,1.9.9,3.5,1.3l-.8,2.2c-1.2-.4-2.3-.7-3.2-1.2l.2.4c-1.8.7-3.1.8-7.1.8v-1.1c-.9.4-1.9.8-3.1,1.1l-.7-2.2c1.4-.3,2.5-.8,3.4-1.3h-3.4v-2.4h5.9c.2-.4.3-.7.3-1h2.4ZM50.3,0h3.2l-2.2,2.8c2.7,0,4.4-.3,5.5-.5l-.6-1.8h2.6l1.7,4.7h-2.6l-.2-.7c-1.3.3-4,.7-9.4.7v-2.4l2.1-2.8ZM48.4,15.7c8.1,0,9.3-.5,11-1.1l.9,2.2c-2.1.8-3.6,1.3-11.9,1.3v-2.4ZM49.7,13c5.6,0,6.9-.3,8.6-.9l.9,1.8c-2.1.7-3.5,1-9.5,1v-2ZM54.6,8.6h-.5c-.5.5-1.1,1.1-1.8,1.6,1.8,0,2.8-.1,3.7-.3-.5-.4-1-.8-1.3-1.3Z"/>
  <path class="st0" d="M68.8,4.6c0,7.8-.3,9.6-2.2,13.4l-2-1.3c1.5-3.4,1.7-4.9,1.8-12.1h-1.3v-2.4h1.3V0h2.4v2.3h3.8v11.9c0,2.7-1.2,3.9-3.6,3.9h-.6v-2.4h.6c.8,0,1.2-.3,1.2-1.5V4.6h-1.5ZM79.3,2.8v14.6h-6.1V2.8h6.1ZM77,15V5.2h-1.3v9.8h1.3Z"/>
  <path class="st0" d="M83,9.2c0-5.7,1.6-9,5.4-9s5.4,3.3,5.4,9-1.6,9-5.4,9-5.4-3.3-5.4-9ZM85.3,9.2c0,5,1.2,6.6,3.1,6.6s3-1.6,3-6.6-1.2-6.6-3-6.6-3.1,1.6-3.1,6.6Z"/>
  <path class="st0" d="M98.2,18V.4h2.4v7.8l4.8-7.8h2.8l-5.4,8.8,5.4,8.8h-2.8l-4.8-7.8v7.8h-2.4Z"/>
  <path class="st0" d="M2.4,32.9l.6,3.4H.6l-.6-3.4h2.4ZM9.2,45.7h5.5v2.4h-5.5c-3,0-4.7-.5-6.3-1.7-.1.5-.3,1.1-.6,1.7l-2.3-.6c.9-2.1.9-4.2.9-7h-.9v-2.4h3.3v2.4c0,1.2,0,2.2,0,3.1,1.7,1.3,3,2,5.9,2ZM4.2,32.2c3.3-.6,5.3-2.4,5.3-2.4,0,0,2,1.8,5.3,2.4v2.4l-1.3-.3v2.1h-2.8v1.3h4.1v2.4h-4.1v2c0,2.7-1.2,3-3.2,3v-1.5c.6,0,.8-.3.8-1.5v-2h-4.1v-2.4h4.1v-1.3h-2.8v-2.1c-.4,0-.8.2-1.3.3v-2.4ZM7.1,40.7c0,2.4-.6,4-.6,4l-2.3-.6s.6-1.4.6-3.4h2.4ZM12.4,34c-1.4-.4-2.4-.9-2.9-1.2-.6.3-1.6.8-2.9,1.2h5.9ZM14.2,40.7c0,2,.6,3.4.6,3.4l-2.3.6s-.6-1.6-.6-4h2.4Z"/>
  <path class="st0" d="M26.2,30v1.6h6.2v11.1h-6.2v5.3h-2.4v-5.3h-6.2v-11.1h6.2v-1.6h2.4ZM23.8,40.4v-6.4h-3.8v6.4h3.8ZM30,34h-3.8v6.4h3.8v-6.4Z"/>
  <path class="st0" d="M43.8,30.4c0,9.2,2.1,12.6,6.2,15.9l-1.7,1.7c-2.6-2-4.6-4.2-5.7-7.8-1.1,3.6-3.1,5.9-5.7,7.8l-1.7-1.7c3.7-3,5.8-6.1,6.1-13.5h-2.8v-2.4h5.2Z"/>
  <path class="st0" d="M52.8,47.4c.9-2.1.9-4.2.9-7h-.9v-2.4h3.3v2.4c0,1.2,0,2.2,0,3.1.2.2.4.3.6.4v-1.4h.5v-12.3h9.9v9.3h-2.6c.2.4.4.8.6,1.1l.9-.8,1.6,1.7-.8.8c.3.2.5.4.8.6l-1.1,2.1c-2.8-1.7-4-3.7-4.5-5.6h-2.4v2.8c1.8-.2,2.9-.4,2.9-.4v2.4s-1.5.4-4.1.5c1,.4,2.1.6,3.7.6h5.5v2.4h-5.5c-3,0-4.7-.5-6.3-1.7-.2.5-.4,1.1-.6,1.7l-2.3-.6ZM55.8,36.3h-2.4l-.5-3.4h2.4l.5,3.4ZM59.5,32.8v1.6h5.2v-1.6h-5.2ZM59.5,35.8v1.6h5.2v-1.6h-5.2Z"/>
  <path class="st0" d="M77.6,40.4c0,.3,0,.6,0,.9h7.5v3.3c0,2.3-1.2,3.4-3.1,3.4v-2.4c.5,0,.7-.3.7-1v-1.3h-.9c0,2.6-.4,3.7-1.3,4.7l-1.4-1c.7-1,.9-1.6,1-3.7h-.6c-.1,2-.4,3.1-1.2,4l-1.4-1c.7-.9.9-1.4,1-2.9h-.5c-.3,1.6-.8,2.5-1.5,3.1l-1.6-1.2c.1-.2.3-.3.4-.5-.7.4-2.2.9-4.2.9v-2.4c.4,0,.7,0,1,0v-5.7h-1v-2.4h1v-2.4h2.4v2.4h1.1v2.4h-1.1v5.2c.4-.1.7-.3,1.1-.4v2.2c.5-.8.8-1.9.8-4.1h-.8v-2.4h10.2v2.4h-7.5ZM75.4,37.2v-6.8h9.1v6.8h-9.1ZM77.8,32.1v1.1h4.3v-1.1h-4.3ZM77.8,34.5v1.1h4.3v-1.1h-4.3Z"/>
  <path class="st0" d="M96.5,30l-.3,1.6h6.5v16.4h-14.7v-16.4h5.8l.3-1.6h2.4ZM100.4,34h-10v2.3h10v-2.3ZM100.4,41v-2.3h-10v2.3h10ZM100.4,45.7v-2.3h-10v2.3h10Z"/>
  <path class="st0" d="M114.2,30v2.8h6.2v15.2h-14.7v-15.2h6.2v-2.8h2.4ZM111.8,39.2v-4h-3.8v4h3.8ZM111.8,45.7v-4h-3.8v4h3.8ZM117.9,35.2h-3.8v4h3.8v-4ZM117.9,45.7v-4h-3.8v4h3.8Z"/>
</svg>