<?xml version="1.0" encoding="utf-8"?>
<!-- Generator: Adobe Illustrator 15.0.0, SVG Export Plug-In . SVG Version: 6.00 Build 0)  -->
<!DOCTYPE svg PUBLIC "-//W3C//DTD SVG 1.1//EN" "http://www.w3.org/Graphics/SVG/1.1/DTD/svg11.dtd">
<svg version="1.1" id="レイヤー_1" xmlns="http://www.w3.org/2000/svg" xmlns:xlink="http://www.w3.org/1999/xlink" x="0px"
	 y="0px" width="177.908px" height="46.217px" viewBox="2.036 7.169 177.908 46.217"
	 enable-background="new 2.036 7.169 177.908 46.217" xml:space="preserve">
<path fill="#FFFFFF" d="M39.288,14.056v4.031h1.995v2.268h-2.667c0.462,1.028,1.302,1.575,2.667,1.848l-0.651,2.184
	c-2.499-0.44-3.506-1.68-4.241-3.485l1.365-0.546h-7.013l1.344,0.546c-0.714,1.806-1.722,3.045-4.241,3.485l-0.63-2.184
	c1.365-0.272,2.205-0.819,2.667-1.848h-2.667v-2.268h1.26V8.303c6.845,0,9.931-1.134,9.931-1.134v2.268c0,0-2.142,0.903-7.664,1.092
	v1.26h9.91v2.268H39.288z M37.02,18.087v-4.031h-6.278v4.031H37.02z"/>
<path fill="#FFFFFF" d="M52.686,7.169v1.554h5.396v2.268h-4.43v0.777h3.8v1.848h-3.8v0.756h4.43v6.361h-4.43v0.84h3.8v1.848h-3.8
	v0.966h-2.268V23.42h-3.8v-1.848h3.8v-0.84h-4.43v-6.361h4.43v-0.756h-4.22v-1.848h4.22V10.99h-4.472
	c-0.105,6.865-0.672,9.721-0.672,9.721l-2.226-0.356c0,0,0.63-3.401,0.63-11.632h5.774V7.169H52.686z M51.384,16.911v-0.692h-2.163
	v0.692H51.384z M51.384,18.885v-0.672h-2.163v0.672H51.384z M53.652,16.219v0.692h2.163v-0.692H53.652z M53.652,18.213v0.672h2.163
	v-0.672H53.652z"/>
<path fill="#FFFFFF" d="M70.935,9.898v-2.31h1.302v2.688h-0.357l0.063,1.848c-5.249,6.194-4.22,8.839-0.672,10.226l-0.987,2.036
	c-4.556-1.616-6.152-5.899-1.386-12.114l-5.522,0.23l-0.084-2.268L70.935,9.898z M74.168,7.589v2.688h-1.323V7.589H74.168z"/>
<path fill="#FFFFFF" d="M81.037,8.807c0,2.646-0.315,4.85-1.155,6.656h0.882v8.923h-2.268V17.52
	c-0.378,0.42-0.819,0.799-1.302,1.155v-3.339c0.861-0.734,1.764-2.33,1.764-6.529H81.037z M89.141,7.589
	c0,0.798,0,1.554-0.021,2.268h2.142V20.69c0,2.624-0.525,3.695-2.604,3.695h-0.861v-2.268h0.861c0.777,0,0.966-0.336,0.966-1.428
	v-8.566H89.12c-0.084,6.235-0.441,7.811-1.596,9.742L86.244,20.9h-1.302v0.986c1.029-0.104,1.722-0.23,1.722-0.23v2.268
	c0,0-1.869,0.462-5.375,0.462v-2.268c0.63,0,1.26-0.042,1.869-0.084V20.9h-1.386v-1.68h1.386v-0.672h-1.869v-5.417h1.869v-0.756
	h-1.869v-1.68h1.869V9.92C82.674,9.94,82.128,9.94,81.499,9.94V7.673c2.562,0,4.892-0.44,4.892-0.44V9.5
	c0,0-0.378,0.146-1.449,0.272v0.924h1.869v-0.84h0.672c0.021-0.714,0.021-1.448,0.021-2.268H89.141z M83.514,15.357v-0.693h-0.756
	v0.693H83.514z M83.514,17.016v-0.692h-0.756v0.692H83.514z M84.585,14.664v0.693h0.756v-0.693H84.585z M84.585,17.016h0.756v-0.692
	h-0.756V17.016z M86.328,20.291c0.84-1.721,1.092-3.064,1.155-8.167h-0.672v0.252h-1.869v0.756h1.869v5.417h-1.869v0.672h1.386
	V20.291z"/>
<path fill="#FFFFFF" d="M98.571,18.779c0.188,2.268,2.204,3.003,4.031,3.381l-0.462,2.226c-2.666-0.546-5.585-1.806-5.837-5.417
	L98.571,18.779z M103.274,8.723v1.134h2.142v2.268h-2.142v2.184h2.142v2.288h-2.142v3.213h-2.268v-3.213h-3.423v-2.288h3.423v-2.184
	h-3.423V9.856h3.423V8.723H103.274z"/>
<path fill="#FFFFFF" d="M117.345,12.124h-2.52l-0.672,9.658h-2.268l0.651-9.658h-1.555V9.856h1.723l0.063-1.134h2.289l-0.084,1.134
	h2.372V12.124z M122.908,21.594l0.609,2.184c0,0-0.504,0.608-3.59,0.608c-3.15,0-4.347-0.735-4.347-4.011h2.268
	c0,1.575,0.42,1.743,2.394,1.743C122.279,22.118,122.908,21.594,122.908,21.594z M116.799,16.596v-2.268h5.501v2.268H116.799z"/>
<path fill="#FFFFFF" d="M130.344,18.339c0,1.974,0.168,2.415,1.764,2.415v2.268c-3.296,0-4.031-1.219-4.031-4.347v-8.063h2.268
	V18.339z M135.698,11.977c3.275,0,4.011,1.197,4.011,4.347v6.698h-2.268v-6.383c0-1.975-0.168-2.395-1.743-2.395V11.977z"/>
<path fill="#FFFFFF" d="M151.092,19.535h-2.268l-0.211-11.946h2.688L151.092,19.535z M151.092,21.656v2.729h-2.268v-2.729H151.092z"
	/>
<path fill="#FFFFFF" d="M6.298,43.392H5.29v4.935c0.357-0.127,0.693-0.273,1.008-0.42v2.268c-0.567,0.461-2.142,0.944-4.262,0.944
	v-2.268c0.336,0,0.672-0.021,0.987-0.063v-5.396H2.036v-2.268h0.987v-2.268H5.29v2.268h1.008V43.392z M12.828,36.189v3.465
	l3.275-0.798v7.202c0,2.624-1.134,3.695-3.443,3.695v-2.289c0.777,0,1.176-0.314,1.176-1.406v-4.305l-1.008,0.23v4.242H10.56v-3.675
	l-0.987,0.231v6.592c0,1.575,0.42,1.743,2.394,1.743h4.115v2.268h-4.451c-3.128,0-4.346-0.735-4.346-4.011V43.35l-0.462,0.105
	v-2.331l0.462-0.104v-3.717h2.289v3.149l0.987-0.231v-4.031H12.828z"/>
<path fill="#FFFFFF" d="M22.447,47.906v2.268c-0.588,0.461-1.512,0.944-3.632,0.944v-2.268c0.231,0,0.462-0.021,0.693-0.021v-5.438
	h-0.693v-2.268h0.693v-2.268h2.268v2.268h0.672v2.268h-0.672v4.829L22.447,47.906z M32.168,36.589l0.147,1.134h0.567v2.268h-2.834
	c0.042,2.709,0.126,4.703,0.357,6.299c0.294-0.672,0.567-1.322,0.798-1.932l1.68,1.197c-0.357,0.924-0.882,2.225-1.68,3.632
	c0.399,0.924,0.945,1.722,1.68,2.583l-1.596,1.616c-0.609-0.672-1.134-1.344-1.554-2.058c-0.567,0.714-1.218,1.406-1.995,2.058
	l-1.05-1.784c0.294-0.252,0.588-0.525,0.861-0.799c-0.609,0.273-2.1,0.777-4.682,0.777v-2.268c3.002,0,5.018-0.945,5.018-0.945
	v2.059c0.336-0.379,0.63-0.777,0.924-1.197c-0.714-2.184-0.945-4.977-1.008-9.238h-4.724v-2.268h4.703
	c-0.021-0.504-0.021-1.008-0.021-1.554h2.268v1.554h0.798l-0.147-1.134H32.168z M27.213,41.124v6.761h-4.136v-6.761H27.213z
	 M25.68,45.617v-2.226h-1.071v2.226H25.68z"/>
<path fill="#FFFFFF" d="M43.782,36.169v1.554h5.9v3.947h-2.268v-1.68h-9.532v1.68h-2.268v-3.947h5.9v-1.554H43.782z M35.614,46.457
	c0.567-2.121,0.63-3.549,0.63-3.969h2.268c0,1.219,0,2.121-0.672,4.367L35.614,46.457z M36.244,48.115h2.268v3.003h3.002v-3.632
	h2.268v3.632h3.002v-3.003h2.268v5.271H36.244V48.115z M38.512,45.701c0.357-0.126,0.735-0.273,1.113-0.441
	c-0.294-0.588-0.399-1.385-0.399-2.436v-2.016h2.268v2.016c0,0.715,0.084,1.155,0.378,1.407c1.365-0.714,2.708-1.532,3.758-2.478
	l1.386,1.785c-0.399,0.356-0.84,0.713-1.302,1.028h3.338v2.288h-5.501c-0.63,0-1.176-0.041-1.659-0.104
	c-0.882,0.399-1.764,0.756-2.562,1.071L38.512,45.701z M44.139,40.473l0.378,1.891h-2.1l-0.378-1.891H44.139z M47.204,42.279h2.1
	l0.378,1.889h-2.1L47.204,42.279z"/>
<path fill="#FFFFFF" d="M63.878,36.169l-0.336,1.448h2.939v2.059h-5.9v0.629h5.27v1.68h-5.27v0.631h5.9v2.078h-9.805
	c-0.021,0.21-0.063,0.42-0.105,0.63h9.49v8.063H55.039v-5.06c-0.525,0.566-0.987,0.84-0.987,0.84l-1.638-1.575
	c0,0,1.596-0.903,1.953-2.897h-1.953v-2.078h5.9v-0.631h-5.27v-1.68h5.27v-0.629h-5.9v-2.059h2.96l-0.315-1.448h2.331l0.315,1.448
	h3.506l0.336-1.448H63.878z M57.306,47.171v0.567h6.488v-0.567H57.306z M57.306,49.039v0.588h6.488v-0.588H57.306z M57.306,50.95
	v0.588h6.488V50.95H57.306z"/>
<path fill="#FFFFFF" d="M82.21,45.995c0,5.123-3.401,7.391-6.257,7.391v-2.268c1.911,0,3.905-1.68,3.905-5.103
	c0-1.28-0.567-2.98-2.184-3.484c-0.42,4.598-2.52,6.172-4.304,6.172c-1.638,0-3.149-0.545-3.548-2.393
	c-0.735-3.423,2.478-6.215,6.803-6.215C80.678,40.096,82.21,43.686,82.21,45.995z M75.408,42.447
	c-3.989,0.608-4.283,4.136-2.415,4.136C73.917,46.583,75.093,45.555,75.408,42.447z"/>
<path fill="#FFFFFF" d="M88.134,36.169h2.289v1.554h2.54v2.268h-7.369v-2.268h2.541V36.169z M85.594,47.57v-6.594h7.369v6.594
	h-2.666v2.561c0,2.184-1.008,3.255-2.541,3.255v-2.268c0.399,0,0.504-0.315,0.504-0.987V47.57H85.594z M85.594,51.58
	c0.357-1.554,0.357-2.268,0.357-3.17h1.785c0,1.154,0.021,1.994-0.462,3.8L85.594,51.58z M87.882,43.244v2.037h2.813v-2.037H87.882z
	 M91.284,51.874c-0.483-1.47-0.462-2.31-0.462-3.464h1.785c0,0.902,0,1.616,0.356,2.834L91.284,51.874z M98.506,49.711
	c0,1.092,0.399,1.407,1.155,1.407v2.268c-2.288,0-3.423-1.071-3.423-3.675v-1.112c-0.398,1.827-0.965,3.339-1.826,4.787l-2.1-0.84
	c1.806-3.128,2.268-6.026,2.394-11.422h-1.112v-2.268h1.133c0-0.84,0.021-1.722,0.021-2.688h2.268c0,0.944-0.021,1.848-0.021,2.688
	h1.092l-0.377-2.268h1.364l0.378,2.268h0.168v2.268h-2.666c-0.021,0.924-0.063,1.764-0.105,2.583h1.658V49.711z"/>
<path fill="#FFFFFF" d="M106.445,40.012l-0.902,2.078l-3.149-1.365l0.903-2.078L106.445,40.012z M106.445,43.832l-0.902,2.079
	l-3.149-1.344l0.903-2.079L106.445,43.832z M106.697,46.771c0,2.1-0.336,3.717-2.352,5.984l-1.952-1.154
	c1.743-2.1,2.036-3.381,2.036-4.83H106.697z M107.307,36.799c5.313,0,9.154-0.63,9.154-0.63v2.268c0,0-1.281,0.21-3.443,0.399v1.973
	h3.443v2.268h-3.443v1.911h3.443v8.398h-9.154v-8.398h3.443v-1.911h-3.443v-2.268h3.443v-1.826
	c-1.029,0.042-2.205,0.084-3.443,0.084V36.799z M114.193,47.255h-4.619v3.863h4.619V47.255z"/>
<path fill="#FFFFFF" d="M125.429,43.916c-1.155,0.693-2.331,1.197-3.905,1.659l-0.65-2.163c3.232-0.986,6.172-3.191,7.957-5.689
	l1.826,1.322c-0.818,1.029-1.848,2.205-2.96,3.191v11.149h-2.268V43.916z"/>
<path fill="#FFFFFF" d="M135.51,44.756l5.145-5.06l8.944,9.511l-1.659,1.555l-7.348-7.811l-3.486,3.422L135.51,44.756z
	 M146.155,39.738v2.709h-1.302v-2.709H146.155z M148.087,39.738v2.709h-1.302v-2.709H148.087z"/>
<path fill="#FFFFFF" d="M158.168,42.236l-1.617,1.596l-3.254-3.4l1.617-1.575L158.168,42.236z M164.697,42.447
	c-1.406,5.438-4.744,8.859-9.699,10.938l-1.155-1.952c5.039-2.311,7.181-5.019,8.776-9.869L164.697,42.447z"/>
<path fill="#FFFFFF" d="M172.889,37.723h2.268v5.459l4.787,1.238l-0.566,2.205l-4.221-1.092v7.853h-2.268V37.723z"/>
</svg>
