<?xml version="1.0" encoding="utf-8"?>
<!-- Generator: Adobe Illustrator 15.0.0, SVG Export Plug-In . SVG Version: 6.00 Build 0)  -->
<!DOCTYPE svg PUBLIC "-//W3C//DTD SVG 1.1//EN" "http://www.w3.org/Graphics/SVG/1.1/DTD/svg11.dtd">
<svg version="1.1" id="レイヤー_1" xmlns="http://www.w3.org/2000/svg" xmlns:xlink="http://www.w3.org/1999/xlink" x="0px"
	 y="0px" width="185.797px" height="188.526px" viewBox="3.732 0.452 185.797 188.526"
	 enable-background="new 3.732 0.452 185.797 188.526" xml:space="preserve">
<path fill="#243F7E" d="M43.862,169.936h6.839v3.888h-4.788c-4.571,4.751-5.579,9.574,2.052,9.467l0.036,3.888
	c-10.403,0.071-11.915-6.731-7.163-13.354h-5.903v-3.888h3.815l4.859-5.724h-6.083v-3.887h11.194v3.887L43.862,169.936z"/>
<path fill="#243F7E" d="M81.481,174.508c0,8.783-5.832,12.671-10.727,12.671v-3.888c3.276,0,6.695-2.88,6.695-8.747
	c0-2.195-0.972-5.111-3.744-5.976c-0.72,7.884-4.319,10.583-7.379,10.583c-2.808,0-5.399-0.936-6.083-4.104
	c-1.26-5.867,4.247-10.654,11.662-10.654C78.853,164.393,81.481,170.549,81.481,174.508z M69.818,168.425
	c-6.839,1.044-7.343,7.091-4.14,7.091C67.263,175.515,69.278,173.752,69.818,168.425z"/>
<path fill="#243F7E" d="M89.224,170.908l-0.612,3.096l-2.052-0.396l1.404-7.344l1.26,0.252v-6.19h3.887v26.853h-3.887V170.908z
	 M93.831,173.5v-6.515h2.087v6.515H93.831z M99.518,158.742l0.793,8.351h-3.6l-0.792-8.351H99.518z M108.229,183.291v-13.679h3.168
	v17.566H96.639v-17.566h3.168v13.679H108.229z M107.51,170.081c-0.361,1.26-0.793,2.879-1.477,4.679l2.052,1.872l-2.088,2.304
	l-1.296-1.152c-0.684,1.26-1.476,2.521-2.52,3.744l-2.231-2.268c0.936-1.152,1.728-2.376,2.339-3.636l-2.016-1.8l2.088-2.34
	l1.225,1.116c0.432-1.26,0.756-2.484,1.043-3.708L107.51,170.081z M101.102,158.742h3.6l0.792,8.351h-3.599L101.102,158.742z
	 M107.006,167.093l0.791-9.431h3.6l-0.792,9.431H107.006z"/>
<path fill="#243F7E" d="M135.553,164.933v8.675h2.16v3.888h-2.16v2.231c0,4.211-0.648,7.451-6.191,7.451v-3.888
	c2.088,0,2.304-1.26,2.304-4.14v-1.655h-4.175c0,2.087-0.361,5.759-4.824,5.759c-3.563,0-4.823-2.376-4.823-4.499
	c0-2.304,1.512-5.147,5.759-5.147v-7.451h-3.6v-3.888h7.488v11.339h4.175v-8.675H135.553z M123.818,177.279
	c-1.549,0-2.268,0.396-2.268,1.225c0,0.504,0.287,1.044,1.115,1.044C123.746,179.548,123.818,178.647,123.818,177.279z"/>
<path fill="#243F7E" d="M141.819,183.291l3.456-1.8l2.987,5.688l-3.456,1.8L141.819,183.291z"/>
<line id="線_1522" fill="none" stroke="#707070" stroke-width="5" stroke-linecap="round" stroke-dasharray="0,10" x1="97.5" y1="106.302" x2="97.5" y2="140.302"/>
<path fill="#777777" d="M28.678,42.909c-0.992,0-2.016-0.064-3.008-0.064c-2.4,0-4.832,0.064-7.231,0.128
	c-2.016,3.52-4.224,6.912-6.528,10.271c-1.088,1.6-2.208,3.168-3.392,4.703c-0.48,0.641-0.96,1.313-1.504,1.889
	c-0.192,0.224-0.448,0.352-0.736,0.352c-0.512,0-0.96-0.479-0.96-0.992c0-0.224,0.096-0.416,0.224-0.607
	c0.672-0.864,1.376-1.664,2.016-2.56c3.072-4.128,5.919-8.544,8.607-12.96c-2.432,0.064-4.864,0.192-7.295,0.353
	c-1.056,0.063-2.464,0.096-3.488,0.32c-0.064,0.031-0.128,0.031-0.192,0.031c-0.544,0-0.96-0.447-0.96-0.96
	c0-0.544,0.352-0.8,0.8-0.928c0.64-0.191,1.984-0.256,2.688-0.288c3.359-0.288,6.783-0.416,10.175-0.512
	c2.656-0.064,5.312-0.16,7.968-0.16c0.736,0,2.208-0.063,2.88,0.064c0.576,0.096,0.896,0.384,0.896,0.991
	C29.638,42.493,29.158,42.909,28.678,42.909z M28.55,56.059c-0.16,0-0.288-0.031-0.416-0.096c-3.167-1.344-6.399-2.496-9.695-3.456
	c-0.064,2.72-0.096,5.408-0.096,8.128c0,1.632,0.064,3.264,0.064,4.896c0,0.576-0.384,0.992-0.96,0.992
	c-0.544,0-0.896-0.416-0.96-0.929c-0.032-0.416-0.032-0.896-0.032-1.312c-0.032-1.152-0.032-2.304-0.032-3.456
	c0-3.68,0.064-7.327,0.16-11.007c0.032-0.928,0-1.92,0.096-2.848c0.064-0.544,0.384-0.96,0.96-0.96c0.512,0,0.928,0.448,0.928,0.96
	c0,1.023-0.064,2.08-0.064,3.104v0.416c2.432,0.704,4.832,1.536,7.199,2.399c0.896,0.32,2.496,0.864,3.264,1.313
	c0.352,0.191,0.544,0.448,0.544,0.864C29.51,55.58,29.094,56.059,28.55,56.059z"/>
<path fill="#777777" d="M63.558,55.868c-1.024,0-2.08-0.032-3.104-0.064c-2.24-0.032-4.512-0.032-6.751-0.032
	c-0.416,2.368-0.928,4.736-1.6,7.072c1.024,0.319,2.432,0.703,3.392,1.119c0.384,0.16,0.64,0.48,0.64,0.896
	c0,0.512-0.48,0.896-0.96,0.896c-0.384,0-3.072-0.96-3.647-1.12c-0.288,0.832-0.608,1.761-1.056,2.496
	c-0.192,0.288-0.448,0.512-0.832,0.512c-0.512,0-0.928-0.447-0.928-0.928c0-0.16,0.032-0.319,0.096-0.447
	c0.352-0.704,0.64-1.44,0.928-2.177c-1.248-0.384-2.528-0.735-3.776-1.088l-1.792-0.447c-0.416-0.128-0.736-0.448-0.736-0.929
	v-0.128c0.288-1.823,0.608-3.615,0.928-5.439c-3.2,0.16-6.368,0.416-9.503,0.992c-0.064,0-0.16,0.032-0.224,0.032
	c-0.512,0-0.928-0.48-0.928-0.96c0-0.448,0.32-0.8,0.736-0.896c1.056-0.256,2.208-0.384,3.296-0.512
	c2.335-0.288,4.64-0.448,6.975-0.544c0.256-1.312,0.512-2.624,0.8-3.936c0.128-0.544,0.224-1.152,0.416-1.696
	c0.128-0.416,0.448-0.703,0.896-0.703c0.512,0,0.928,0.415,0.928,0.928c0,0.096,0,0.16-0.032,0.256
	c-0.384,1.664-0.768,3.359-1.088,5.056c1.824-0.064,3.648-0.128,5.472-0.16c0.192-1.184,0.384-2.368,0.544-3.552
	c0.064-0.608,0.128-1.248,0.224-1.888c0-0.032,0.032-0.096,0.032-0.128c0.128-0.48,0.416-0.8,0.928-0.8
	c0.512,0,0.928,0.384,0.928,0.896V48.7c-0.032,0.512-0.128,1.056-0.224,1.568c-0.16,1.216-0.32,2.432-0.544,3.647h3.168
	c1.472,0,2.944,0,4.416,0.032c0.672,0,1.376-0.032,2.048,0.032c0.544,0.031,0.896,0.415,0.896,0.959
	C64.518,55.484,64.07,55.868,63.558,55.868z M59.238,48.668c-0.16,0.32-0.48,0.544-0.864,0.544c-0.512,0-0.96-0.447-0.96-0.96
	c0-0.128,0.032-0.256,0.096-0.384c0.384-1.056,0.608-2.239,0.768-3.327c-1.472-0.097-2.944-0.128-4.384-0.128
	c-3.008,0-6.048,0.063-9.023,0.416l-1.472,0.191c-0.224,0.064-0.448,0.128-0.672,0.16h-0.16c-0.096,1.632-0.288,3.264-0.416,4.896
	c-0.064,0.608-0.064,1.28-0.16,1.888c-0.064,0.576-0.448,0.864-1.024,0.864c-0.544,0-0.864-0.512-0.864-0.992
	c0-0.64,0.128-1.312,0.192-1.951c0.224-2.24,0.448-4.512,0.448-6.752c0-0.544,0.448-0.928,0.959-0.928
	c0.608,0,0.928,0.479,0.928,1.056c1.856-0.384,3.808-0.512,5.695-0.608c0.064-1.151,0.128-3.264,0.384-4.319
	c0.096-0.448,0.448-0.8,0.96-0.8c0.512,0,0.896,0.416,0.896,0.928v0.16c-0.192,1.312-0.256,2.656-0.352,3.968
	c1.152-0.032,2.272-0.064,3.424-0.064c1.344,0,4.607,0,5.855,0.257c0.448,0.096,0.8,0.416,0.8,0.928
	C60.294,44.509,59.59,47.965,59.238,48.668z M46.279,55.964c-0.288,1.664-0.576,3.296-0.832,4.96
	c1.632,0.416,3.264,0.896,4.863,1.376c0.608-2.145,1.056-4.32,1.472-6.496C49.959,55.836,48.103,55.899,46.279,55.964z"/>
<path fill="#777777" d="M79.559,46.94c-1.472,0-2.976-0.256-4.416-0.544c-2.048,3.296-5.664,11.487-5.664,15.295
	c0,0.256,0.032,1.088,0.32,1.184c0.448,0.16,0.736,0.416,0.736,0.96s-0.384,0.929-0.928,0.929c-0.064,0-0.096-0.032-0.16-0.032
	c-1.504-0.288-1.856-1.632-1.856-2.976c0-4.256,3.36-11.968,5.632-15.808c-0.704-0.159-1.44-0.352-2.112-0.607
	c-0.384-0.16-0.672-0.48-0.672-0.896c0-0.544,0.416-0.96,0.96-0.96c0.256,0,2.432,0.672,2.912,0.801
	c0.352-0.513,1.024-1.44,1.728-1.44c0.512,0,0.928,0.416,0.928,0.96c0,0.512-0.256,0.576-0.544,0.896
	c1.024,0.16,2.08,0.353,3.136,0.353c0.512,0,0.928,0.416,0.928,0.928S80.103,46.94,79.559,46.94z M88.23,63.003
	c-0.064,0-0.128-0.031-0.192-0.031c-1.952-0.32-5.152-1.504-6.72-2.656c-0.224-0.191-0.384-0.448-0.384-0.735
	c0-0.513,0.416-0.992,0.96-0.992c0.192,0,0.384,0.096,0.544,0.191c1.856,1.216,3.872,1.792,5.983,2.304
	c0.448,0.129,0.736,0.48,0.736,0.96C89.158,62.555,88.774,63.003,88.23,63.003z M89.03,52.7c-0.16,0-0.288-0.032-0.416-0.096
	c-0.928-0.416-1.888-0.608-2.944-0.608c-0.992,0-2.208,0.16-3.072,0.672c-0.16,0.096-0.32,0.16-0.512,0.16
	c-0.512,0-0.96-0.448-0.96-0.96c0-1.439,3.648-1.824,4.64-1.824c1.216,0,2.624,0.256,3.712,0.832c0.32,0.16,0.512,0.513,0.512,0.864
	C89.99,52.252,89.542,52.7,89.03,52.7z M89.19,45.341c-1.056,0-1.792-2.144-1.792-3.008c0-0.512,0.416-0.96,0.928-0.96
	c0.512,0,0.959,0.448,0.959,0.96c0,0.832,0.864,1.472,0.864,2.048C90.15,44.892,89.702,45.341,89.19,45.341z M93.414,43.453
	c-0.416,0-0.736-0.225-0.896-0.576c-0.416-0.832-0.832-1.76-1.408-2.496c-0.128-0.16-0.192-0.352-0.192-0.576
	c0-0.544,0.448-0.991,0.96-0.991c0.288,0,0.544,0.128,0.736,0.352c0.384,0.48,1.728,2.752,1.728,3.328
	C94.342,43.037,93.958,43.453,93.414,43.453z"/>
<path fill="#777777" d="M103.016,65.275c-0.16,0.128-0.385,0.191-0.576,0.191c-0.512,0-0.96-0.416-0.96-0.928
	c0-0.319,0.16-0.576,0.384-0.768c0.545-0.448,1.12-0.896,1.633-1.376c2.303-2.24,3.999-5.151,3.999-8.415
	c0-1.217-1.088-1.376-2.048-1.376c-1.439,0-3.039,0.416-4.352,0.96c-0.128,0.063-0.256,0.096-0.416,0.096
	c-1.279,0-1.408-2.464-1.408-3.36c0-1.247,0.385-4.415,1.088-5.471c0.192-0.288,0.48-0.48,0.832-0.48c0.545,0,0.96,0.416,0.96,0.96
	c0,0.192-0.032,0.32-0.128,0.48c-0.576,1.119-0.832,3.392-0.832,4.64c0,0.352,0,0.703,0.064,1.023
	c1.279-0.416,2.752-0.736,4.127-0.736c2.08,0,4.032,0.864,4.032,3.265C109.415,58.491,106.6,62.716,103.016,65.275z M108.167,44.572
	c-0.512,0-0.96-0.447-0.96-0.96c0-0.703-0.16-2.783-0.352-3.423c-0.032-0.129-0.064-0.225-0.064-0.353c0-0.512,0.448-0.96,0.96-0.96
	c0.416,0,0.736,0.225,0.896,0.608c0.289,0.672,0.48,3.296,0.48,4.127C109.127,44.125,108.68,44.572,108.167,44.572z"/>
<path fill="#777777" d="M116.68,58.844c-0.416,0-0.735-0.224-0.959-0.544c-0.608-0.864-0.641-3.872-0.641-4.928
	c0-2.08,0.16-6.655,0.896-8.384c0.16-0.352,0.48-0.575,0.896-0.575c0.512,0,0.959,0.416,0.959,0.928c0,0.16-0.031,0.256-0.064,0.384
	C117.096,47.58,117,51.26,117,53.276c0,1.151,0,2.336,0.192,3.455c0.319-0.224,0.512-0.447,0.928-0.447
	c0.513,0,0.96,0.416,0.96,0.928C119.08,58.139,117.448,58.844,116.68,58.844z M136.455,46.428h-0.128
	c-1.024-0.064-2.017-0.128-3.04-0.128c-0.512,0-1.056,0-1.6,0.032c-0.096,5.535-0.736,12.446-2.592,17.662
	c-0.129,0.384-0.48,0.672-0.896,0.672c-0.512,0-0.992-0.447-0.992-0.991c0-0.097,0.033-0.192,0.064-0.288
	c1.76-5.504,2.368-11.231,2.496-16.991c-1.696,0.096-3.456,0.224-5.088,0.704c-0.064,0.032-0.16,0.032-0.225,0.032
	c-0.575,0-1.023-0.385-1.023-0.992c0-0.448,0.256-0.736,0.641-0.896c1.248-0.512,4.319-0.703,5.727-0.768
	c0.033-0.8-0.256-2.464,0.992-2.464s0.961,1.632,0.961,2.4h1.344c1.023,0,2.495-0.064,3.487,0.128
	c0.479,0.096,0.832,0.447,0.832,0.96C137.415,46.012,136.967,46.461,136.455,46.428z"/>
<path fill="#777777" d="M149.863,54.555c-0.447,0-0.735-0.224-0.896-0.607c-0.479-1.024-2.048-0.864-2.048-1.984
	c0-0.512,0.416-0.96,0.96-0.96c0.896,0,2.911,1.632,2.911,2.592C150.791,54.108,150.376,54.555,149.863,54.555z M162.822,54.555
	c-0.447,0-0.703-0.224-0.896-0.607c-0.512-1.024-2.048-0.864-2.048-1.984c0-0.512,0.416-0.96,0.96-0.96
	c0.896,0,2.912,1.632,2.912,2.592C163.751,54.108,163.335,54.555,162.822,54.555z"/>
<path fill="none" stroke="#777777" d="M28.678,42.909c-0.992,0-2.016-0.064-3.008-0.064c-2.4,0-4.832,0.064-7.231,0.128
	c-2.016,3.52-4.224,6.912-6.528,10.271c-1.088,1.6-2.208,3.168-3.392,4.703c-0.48,0.641-0.96,1.313-1.504,1.889
	c-0.192,0.224-0.448,0.352-0.736,0.352c-0.512,0-0.96-0.479-0.96-0.992c0-0.224,0.096-0.416,0.224-0.607
	c0.672-0.864,1.376-1.664,2.016-2.56c3.072-4.128,5.919-8.544,8.607-12.96c-2.432,0.064-4.864,0.192-7.295,0.353
	c-1.056,0.063-2.464,0.096-3.488,0.32c-0.064,0.031-0.128,0.031-0.192,0.031c-0.544,0-0.96-0.447-0.96-0.96
	c0-0.544,0.352-0.8,0.8-0.928c0.64-0.191,1.984-0.256,2.688-0.288c3.359-0.288,6.783-0.416,10.175-0.512
	c2.656-0.064,5.312-0.16,7.968-0.16c0.736,0,2.208-0.063,2.88,0.064c0.576,0.096,0.896,0.384,0.896,0.991
	C29.638,42.493,29.158,42.909,28.678,42.909z M28.55,56.059c-0.16,0-0.288-0.031-0.416-0.096c-3.167-1.344-6.399-2.496-9.695-3.456
	c-0.064,2.72-0.096,5.408-0.096,8.128c0,1.632,0.064,3.264,0.064,4.896c0,0.576-0.384,0.992-0.96,0.992
	c-0.544,0-0.896-0.416-0.96-0.929c-0.032-0.416-0.032-0.896-0.032-1.312c-0.032-1.152-0.032-2.304-0.032-3.456
	c0-3.68,0.064-7.327,0.16-11.007c0.032-0.928,0-1.92,0.096-2.848c0.064-0.544,0.384-0.96,0.96-0.96c0.512,0,0.928,0.448,0.928,0.96
	c0,1.023-0.064,2.08-0.064,3.104v0.416c2.432,0.704,4.832,1.536,7.199,2.399c0.896,0.32,2.496,0.864,3.264,1.313
	c0.352,0.191,0.544,0.448,0.544,0.864C29.51,55.58,29.094,56.059,28.55,56.059z"/>
<path fill="none" stroke="#777777" d="M63.558,55.868c-1.024,0-2.08-0.032-3.104-0.064c-2.24-0.032-4.512-0.032-6.751-0.032
	c-0.416,2.368-0.928,4.736-1.6,7.072c1.024,0.319,2.432,0.703,3.392,1.119c0.384,0.16,0.64,0.48,0.64,0.896
	c0,0.512-0.48,0.896-0.96,0.896c-0.384,0-3.072-0.96-3.647-1.12c-0.288,0.832-0.608,1.761-1.056,2.496
	c-0.192,0.288-0.448,0.512-0.832,0.512c-0.512,0-0.928-0.447-0.928-0.928c0-0.16,0.032-0.319,0.096-0.447
	c0.352-0.704,0.64-1.44,0.928-2.177c-1.248-0.384-2.528-0.735-3.776-1.088l-1.792-0.447c-0.416-0.128-0.736-0.448-0.736-0.929
	v-0.128c0.288-1.823,0.608-3.615,0.928-5.439c-3.2,0.16-6.368,0.416-9.503,0.992c-0.064,0-0.16,0.032-0.224,0.032
	c-0.512,0-0.928-0.48-0.928-0.96c0-0.448,0.32-0.8,0.736-0.896c1.056-0.256,2.208-0.384,3.296-0.512
	c2.335-0.288,4.64-0.448,6.975-0.544c0.256-1.312,0.512-2.624,0.8-3.936c0.128-0.544,0.224-1.152,0.416-1.696
	c0.128-0.416,0.448-0.703,0.896-0.703c0.512,0,0.928,0.415,0.928,0.928c0,0.096,0,0.16-0.032,0.256
	c-0.384,1.664-0.768,3.359-1.088,5.056c1.824-0.064,3.648-0.128,5.472-0.16c0.192-1.184,0.384-2.368,0.544-3.552
	c0.064-0.608,0.128-1.248,0.224-1.888c0-0.032,0.032-0.096,0.032-0.128c0.128-0.48,0.416-0.8,0.928-0.8
	c0.512,0,0.928,0.384,0.928,0.896V48.7c-0.032,0.512-0.128,1.056-0.224,1.568c-0.16,1.216-0.32,2.432-0.544,3.647h3.168
	c1.472,0,2.944,0,4.416,0.032c0.672,0,1.376-0.032,2.048,0.032c0.544,0.031,0.896,0.415,0.896,0.959
	C64.518,55.484,64.07,55.868,63.558,55.868z M59.238,48.668c-0.16,0.32-0.48,0.544-0.864,0.544c-0.512,0-0.96-0.447-0.96-0.96
	c0-0.128,0.032-0.256,0.096-0.384c0.384-1.056,0.608-2.239,0.768-3.327c-1.472-0.097-2.944-0.128-4.384-0.128
	c-3.008,0-6.048,0.063-9.023,0.416l-1.472,0.191c-0.224,0.064-0.448,0.128-0.672,0.16h-0.16c-0.096,1.632-0.288,3.264-0.416,4.896
	c-0.064,0.608-0.064,1.28-0.16,1.888c-0.064,0.576-0.448,0.864-1.024,0.864c-0.544,0-0.864-0.512-0.864-0.992
	c0-0.64,0.128-1.312,0.192-1.951c0.224-2.24,0.448-4.512,0.448-6.752c0-0.544,0.448-0.928,0.959-0.928
	c0.608,0,0.928,0.479,0.928,1.056c1.856-0.384,3.808-0.512,5.695-0.608c0.064-1.151,0.128-3.264,0.384-4.319
	c0.096-0.448,0.448-0.8,0.96-0.8c0.512,0,0.896,0.416,0.896,0.928v0.16c-0.192,1.312-0.256,2.656-0.352,3.968
	c1.152-0.032,2.272-0.064,3.424-0.064c1.344,0,4.607,0,5.855,0.257c0.448,0.096,0.8,0.416,0.8,0.928
	C60.294,44.509,59.59,47.965,59.238,48.668z M46.279,55.964c-0.288,1.664-0.576,3.296-0.832,4.96
	c1.632,0.416,3.264,0.896,4.863,1.376c0.608-2.145,1.056-4.32,1.472-6.496C49.959,55.836,48.103,55.899,46.279,55.964z"/>
<path fill="none" stroke="#777777" d="M79.559,46.94c-1.472,0-2.976-0.256-4.416-0.544c-2.048,3.296-5.664,11.487-5.664,15.295
	c0,0.256,0.032,1.088,0.32,1.184c0.448,0.16,0.736,0.416,0.736,0.96s-0.384,0.929-0.928,0.929c-0.064,0-0.096-0.032-0.16-0.032
	c-1.504-0.288-1.856-1.632-1.856-2.976c0-4.256,3.36-11.968,5.632-15.808c-0.704-0.159-1.44-0.352-2.112-0.607
	c-0.384-0.16-0.672-0.48-0.672-0.896c0-0.544,0.416-0.96,0.96-0.96c0.256,0,2.432,0.672,2.912,0.801
	c0.352-0.513,1.024-1.44,1.728-1.44c0.512,0,0.928,0.416,0.928,0.96c0,0.512-0.256,0.576-0.544,0.896
	c1.024,0.16,2.08,0.353,3.136,0.353c0.512,0,0.928,0.416,0.928,0.928S80.103,46.94,79.559,46.94z M88.23,63.003
	c-0.064,0-0.128-0.031-0.192-0.031c-1.952-0.32-5.152-1.504-6.72-2.656c-0.224-0.191-0.384-0.448-0.384-0.735
	c0-0.513,0.416-0.992,0.96-0.992c0.192,0,0.384,0.096,0.544,0.191c1.856,1.216,3.872,1.792,5.983,2.304
	c0.448,0.129,0.736,0.48,0.736,0.96C89.158,62.555,88.774,63.003,88.23,63.003z M89.03,52.7c-0.16,0-0.288-0.032-0.416-0.096
	c-0.928-0.416-1.888-0.608-2.944-0.608c-0.992,0-2.208,0.16-3.072,0.672c-0.16,0.096-0.32,0.16-0.512,0.16
	c-0.512,0-0.96-0.448-0.96-0.96c0-1.439,3.648-1.824,4.64-1.824c1.216,0,2.624,0.256,3.712,0.832c0.32,0.16,0.512,0.513,0.512,0.864
	C89.99,52.252,89.542,52.7,89.03,52.7z M89.19,45.341c-1.056,0-1.792-2.144-1.792-3.008c0-0.512,0.416-0.96,0.928-0.96
	c0.512,0,0.959,0.448,0.959,0.96c0,0.832,0.864,1.472,0.864,2.048C90.15,44.892,89.702,45.341,89.19,45.341z M93.414,43.453
	c-0.416,0-0.736-0.225-0.896-0.576c-0.416-0.832-0.832-1.76-1.408-2.496c-0.128-0.16-0.192-0.352-0.192-0.576
	c0-0.544,0.448-0.991,0.96-0.991c0.288,0,0.544,0.128,0.736,0.352c0.384,0.48,1.728,2.752,1.728,3.328
	C94.342,43.037,93.958,43.453,93.414,43.453z"/>
<path fill="none" stroke="#777777" d="M103.016,65.275c-0.16,0.128-0.385,0.191-0.576,0.191c-0.512,0-0.96-0.416-0.96-0.928
	c0-0.319,0.16-0.576,0.384-0.768c0.545-0.448,1.12-0.896,1.633-1.376c2.303-2.24,3.999-5.151,3.999-8.415
	c0-1.217-1.088-1.376-2.048-1.376c-1.439,0-3.039,0.416-4.352,0.96c-0.128,0.063-0.256,0.096-0.416,0.096
	c-1.279,0-1.408-2.464-1.408-3.36c0-1.247,0.385-4.415,1.088-5.471c0.192-0.288,0.48-0.48,0.832-0.48c0.545,0,0.96,0.416,0.96,0.96
	c0,0.192-0.032,0.32-0.128,0.48c-0.576,1.119-0.832,3.392-0.832,4.64c0,0.352,0,0.703,0.064,1.023
	c1.279-0.416,2.752-0.736,4.127-0.736c2.08,0,4.032,0.864,4.032,3.265C109.415,58.491,106.6,62.716,103.016,65.275z M108.167,44.572
	c-0.512,0-0.96-0.447-0.96-0.96c0-0.703-0.16-2.783-0.352-3.423c-0.032-0.129-0.064-0.225-0.064-0.353c0-0.512,0.448-0.96,0.96-0.96
	c0.416,0,0.736,0.225,0.896,0.608c0.289,0.672,0.48,3.296,0.48,4.127C109.127,44.125,108.68,44.572,108.167,44.572z"/>
<path fill="none" stroke="#777777" d="M116.68,58.844c-0.416,0-0.735-0.224-0.959-0.544c-0.608-0.864-0.641-3.872-0.641-4.928
	c0-2.08,0.16-6.655,0.896-8.384c0.16-0.352,0.48-0.575,0.896-0.575c0.512,0,0.959,0.416,0.959,0.928c0,0.16-0.031,0.256-0.064,0.384
	C117.096,47.58,117,51.26,117,53.276c0,1.151,0,2.336,0.192,3.455c0.319-0.224,0.512-0.447,0.928-0.447
	c0.513,0,0.96,0.416,0.96,0.928C119.08,58.139,117.448,58.844,116.68,58.844z M136.455,46.428h-0.128
	c-1.024-0.064-2.017-0.128-3.04-0.128c-0.512,0-1.056,0-1.6,0.032c-0.096,5.535-0.736,12.446-2.592,17.662
	c-0.129,0.384-0.48,0.672-0.896,0.672c-0.512,0-0.992-0.447-0.992-0.991c0-0.097,0.033-0.192,0.064-0.288
	c1.76-5.504,2.368-11.231,2.496-16.991c-1.696,0.096-3.456,0.224-5.088,0.704c-0.064,0.032-0.16,0.032-0.225,0.032
	c-0.575,0-1.023-0.385-1.023-0.992c0-0.448,0.256-0.736,0.641-0.896c1.248-0.512,4.319-0.703,5.727-0.768
	c0.033-0.8-0.256-2.464,0.992-2.464s0.961,1.632,0.961,2.4h1.344c1.023,0,2.495-0.064,3.487,0.128
	c0.479,0.096,0.832,0.447,0.832,0.96C137.415,46.012,136.967,46.461,136.455,46.428z"/>
<path fill="none" stroke="#777777" d="M149.863,54.555c-0.447,0-0.735-0.224-0.896-0.607c-0.479-1.024-2.048-0.864-2.048-1.984
	c0-0.512,0.416-0.96,0.96-0.96c0.896,0,2.911,1.632,2.911,2.592C150.791,54.108,150.376,54.555,149.863,54.555z M162.822,54.555
	c-0.447,0-0.703-0.224-0.896-0.607c-0.512-1.024-2.048-0.864-2.048-1.984c0-0.512,0.416-0.96,0.96-0.96
	c0.896,0,2.912,1.632,2.912,2.592C163.751,54.108,163.335,54.555,162.822,54.555z"/>
<path id="パス_46420" fill="#777777" d="M187.703,15.657c0.459,0.317,0.89,0.673,1.288,1.063c0.533,0.438,0.691,1.187,0.38,1.803
	c-0.762,1.716-1.832,3.276-3.16,4.603c-2.002,1.979-4.459,3.356-6.67,5.058c-0.856,0.656-1.997,0.991-2.854,1.738
	c-1.656,0.011-3.043,0.911-4.564,1.367c-0.374,0.112-0.785,0.147-0.959-0.287c-0.175-0.322-0.232-0.695-0.163-1.055
	c0.345-0.851,0.815-1.645,1.395-2.356c2.657-2.902,5.39-5.736,8.093-8.596c1.148-1.163,2.441-2.175,3.846-3.012
	c1.375-0.536,2.361-0.968,3.369-0.329 M183.008,20.241c-0.729,0.965-1.668,1.752-2.746,2.303c-0.986,0.373-0.822,1.742-1.842,2.022
	c-0.781,0.332-1.432,0.913-1.851,1.651c-0.216,0.309-0.381,0.649-0.488,1.011c-0.042,0.112,0.038,0.283,0.095,0.413
	c0.082,0.03,0.174,0.023,0.25-0.019c1.613-1.411,3.752-2.1,5.181-3.762c0.064-0.07,0.146-0.123,0.235-0.155
	c2.279-0.858,3.512-2.678,4.424-4.799c0.141-0.241,0.299-0.472,0.473-0.691C185.318,18.497,184.018,19.203,183.008,20.241"/>
<path id="パス_46421" fill="#777777" d="M168.779,0.835c1.699-0.735,2.334-0.468,2.967,1.292c0.201,0.424,0.319,0.882,0.35,1.35
	c-0.088,1.596-0.431,3.168-1.016,4.655c-1.111,0.929-1.213,2.462-2.209,3.531c-0.93,0.999-1.365,2.44-2.129,3.614
	c-0.651,1.131-1.461,2.163-2.404,3.065c-0.729,0.614-1.248,1.389-1.963,1.98c-0.79,0.493-1.524,1.07-2.19,1.722
	c-0.241,0.303-0.681,0.353-0.983,0.112c-0.01-0.008-0.02-0.017-0.029-0.024c-0.243-0.27-0.401-0.604-0.456-0.963
	c-0.046-0.251,0.113-0.542,0.187-0.813c0.251-0.899,0.467-1.808,0.766-2.703c0.319-0.97,0.979-1.913,0.992-2.874
	c0.008-1.033,0.6-1.73,0.811-2.596c0.785-2.896,1.975-5.667,3.534-8.229c0.681-1.345,1.842-2.385,3.253-2.915
	c0.176-0.067,0.352-0.135,0.523-0.212 M162.449,17.872c0.087-0.014,0.165-0.063,0.215-0.136c0.981-1.454,2.406-2.568,3.142-4.221
	c0.361-0.763,0.802-1.485,1.315-2.155c0.737-1.08,1.369-2.229,1.885-3.43c0.608-1.57,0.968-3.227,1.066-4.907
	c-0.021-0.181-0.129-0.34-0.29-0.425c-0.171-0.064-0.361-0.047-0.518,0.047c-1.327,0.896-2.378,2.143-3.04,3.601
	c-0.259,0.908-0.725,1.744-1.359,2.442c-0.072,0.062-0.123,0.145-0.146,0.237c-0.302,2.064-1.354,3.889-1.882,5.88
	c-0.215,0.808-0.484,1.601-0.702,2.407c-0.013,0.184,0.007,0.368,0.06,0.544c0.085,0.042,0.17,0.114,0.254,0.117"/>
<path id="パス_46422" fill="#777777" d="M143.541,4.992c0.457,1.211,0.975,2.035,0.811,3.042c-0.01,0.188,0.03,0.377,0.117,0.545
	c1.483,3.395,1.267,6.96,1.021,10.523c-0.043,0.276-0.061,0.556-0.054,0.836c0.02,0.151,0.206,0.409,0.299,0.401
	c0.241-0.021,0.587-0.097,0.686-0.264c0.166-0.335,0.264-0.7,0.288-1.074c0.144-2.046,0.181-4.099,0.112-6.148
	c0.009-1.62-0.69-3.096-0.781-4.688c-0.076-0.649-0.197-1.294-0.363-1.927c-0.052-0.275-0.117-0.548-0.197-0.816
	c-0.761-1.497-1.67-2.913-2.712-4.229c-0.417-0.485-1.148-0.541-1.634-0.125c-0.104,0.09-0.191,0.196-0.259,0.316
	c-0.729,1.108-1.081,2.424-1,3.748c0.024,0.281,0.009,0.563-0.046,0.841c-0.461,2.017-0.344,4.122,0.336,6.076
	c-0.094,1.038,0.133,2.081,0.646,2.988c0.487,0.813,0.713,1.756,0.647,2.701c0.624,2.477,1.955,4.718,3.831,6.449
	c0.307,0.21,0.678,0.303,1.047,0.264c0.246-0.092,0.426-0.306,0.473-0.563c-0.059-0.464-0.246-0.902-0.541-1.264
	c-2.023-1.988-3.318-4.6-3.673-7.413c-0.239-1.459-0.821-2.854-1.067-4.352c-0.223-1.097-0.306-2.216-0.248-3.333
	c0.118-1.397,0.137-2.802,0.22-4.202c0.011-0.172,0.17-0.481,0.245-0.478c0.26,0.017,0.634,0.065,0.746,0.242
	c0.45,0.709,0.82,1.471,1.051,1.897"/>
</svg>
