<?xml version="1.0" encoding="utf-8"?>
<!-- Generator: Adobe Illustrator 15.0.0, SVG Export Plug-In . SVG Version: 6.00 Build 0)  -->
<!DOCTYPE svg PUBLIC "-//W3C//DTD SVG 1.1//EN" "http://www.w3.org/Graphics/SVG/1.1/DTD/svg11.dtd">
<svg version="1.1" id="レイヤー_1" xmlns="http://www.w3.org/2000/svg" xmlns:xlink="http://www.w3.org/1999/xlink" x="0px"
	 y="0px" width="591.729px" height="42.656px" viewBox="3.13 13.588 591.729 42.656"
	 enable-background="new 3.13 13.588 591.729 42.656" xml:space="preserve">
<path fill="#FFFFFF" d="M22.236,52.572v-9.927h3.671v13.599H3.13V42.646h3.671v9.927h5.848V40.81H4.252v-9.995h3.672v6.323h4.726
	v-8.091h3.671v8.091h4.726v-6.323h3.672v9.995h-8.397v11.763H22.236z"/>
<path fill="#FFFFFF" d="M30.33,47.881c0,0,1.02-5.508,1.02-18.834h21.758v8.159H34.885c-0.306,7.887-0.952,11.253-0.952,11.253
	L30.33,47.881z M51.068,42.646v2.243h2.04v3.672H46.92c0.51,0.68,1.189,1.394,2.176,2.142l2.006-1.87l2.005,2.143L51.679,52.3
	c0.442,0.238,0.884,0.477,1.428,0.681l-1.7,3.264c-5.303-2.414-7.785-5.542-8.907-7.684h-2.686v3.672
	c2.414-0.272,3.943-0.646,3.943-0.646v3.672c0,0-3.637,0.986-9.315,0.986v-3.672c0.578,0,1.156,0,1.7-0.034v-3.978h-1.292v-3.672
	h2.379v-2.243h-1.7v-3.672h1.7v-1.088h3.672v1.088h6.459v-1.088h3.706v1.088h1.36v3.672H51.068z M35.021,32.378
	c-0.034,0.51-0.034,1.021-0.034,1.496h14.415v-1.496H35.021z M47.362,44.889v-2.243h-6.459v2.243H47.362z"/>
<path fill="#FFFFFF" d="M57.53,31.358c7.105-0.918,11.389-3.672,11.389-3.672s4.25,2.754,11.389,3.672v3.672
	c-5.745-0.714-9.519-2.244-11.389-3.162c-1.904,0.918-5.677,2.448-11.389,3.162V31.358z M71.774,45.229v7.344h8.533v3.672H57.53
	v-3.672h3.264V41.558h3.671v11.015h3.638V35.37h3.671v6.188h7.514v3.671H71.774z"/>
<path fill="#FFFFFF" d="M107.506,34.554h-3.399v2.89h3.399v3.672h-9.553v1.462h8.533v2.754h-8.533v1.462h9.213v3.672h-5.745
	c2.72,1.972,6.085,2.209,6.085,2.209l-0.884,3.57c0,0-4.93,0-8.669-3.774v3.774h-3.672V52.47c-3.706,3.774-8.669,3.774-8.669,3.774
	l-0.884-3.57c0,0,3.399-0.237,6.119-2.209h-5.779v-3.672h9.213v-1.462h-8.533v-2.754h8.533v-1.462h-9.553v-3.672h3.399v-2.89h-3.399
	v-3.671h1.598l-0.578-2.517h3.774l0.578,2.517h1.326v-2.517h3.671v2.517h2.04v-2.517h3.671v2.517h1.36l0.544-2.517h3.774
	l-0.544,2.517h1.563V34.554z M100.435,37.443v-2.89H91.8v2.89H100.435z"/>
<path fill="#FFFFFF" d="M132.972,44.277c0,8.295-5.507,11.967-10.131,11.967v-3.672c3.094,0,6.323-2.72,6.323-8.262
	c0-2.073-0.917-4.827-3.535-5.643c-0.68,7.445-4.08,9.994-6.97,9.994c-2.651,0-5.099-0.884-5.745-3.875
	c-1.19-5.542,4.012-10.063,11.015-10.063C130.49,34.724,132.972,40.537,132.972,44.277z M121.957,38.531
	c-6.459,0.986-6.936,6.697-3.91,6.697C119.544,45.229,121.448,43.563,121.957,38.531z"/>
<path fill="#20D13B" d="M155.306,54.744V41.712c-1.617,1.225-3.528,2.303-5.684,3.282V38.82c6.664-3.527,9.652-9.945,9.652-15.335
	h-9.652v-5.292h4.802v-3.626h5.292v3.626h4.851v5.292c0,3.037-0.686,7.349-3.185,11.514l5.292,4.851l-3.577,3.92l-2.499-2.303
	v13.277H155.306z M176.326,14.567v12.642h6.125V32.5h-6.125v16.953h6.125v5.291H164.91v-5.291h6.125V32.5h-5.145v-5.291h5.145
	V14.567H176.326z"/>
<path fill="#20D13B" d="M196.564,32.794v2.353h25.086v5.291h-13.033c1.078,1.666,2.548,3.332,4.41,4.851l4.361-4.018l3.577,3.871
	l-3.234,3.037c1.176,0.539,2.499,1.078,3.92,1.52l-1.568,5.046c-10.485-3.675-14.993-8.721-17.492-14.307h-6.026v8.623
	c5.389-0.538,8.672-1.519,8.672-1.519v5.341c0,0-6.027,1.861-16.414,1.861v-5.291c0.833,0,1.666-0.049,2.45-0.049v-8.967h-2.45
	v-5.291h2.45V15.548h28.907v5.291h-23.616v2.353h22.636v3.625h-22.636v2.353h22.636v3.625H196.564z"/>
<path fill="#20D13B" d="M240.467,27.258c9.26,0.146,17.541,8.672,3.968,27.486l-4.165-3.233c5.929-7.889,9.554-18.766,0.196-18.962
	v11.515h-5.292V32.941c-2.156,0.294-3.773,0.637-3.773,0.637l-1.176-5.193c0,0,2.107-0.441,4.949-0.784v-9.407h5.292V27.258z
	 M248.502,23.73l4.899-1.96l4.704,11.808l-4.948,1.96L248.502,23.73z M254.529,22.799v-6.271h3.087v6.271H254.529z M258.791,22.799
	v-6.271h3.087v6.271H258.791z"/>
<path fill="#20D13B" d="M266.241,18.88c10.24-1.323,16.414-5.292,16.414-5.292s6.125,3.969,16.414,5.292v5.291
	c-8.28-1.029-13.719-3.233-16.414-4.557c-2.744,1.323-8.182,3.527-16.414,4.557V18.88z M285.301,43.23v6.223h13.768v5.291h-32.828
	v-5.291h13.768V43.23h-10.877v-5.292h10.877v-6.271h-10.877v-5.291h26.997v5.291h-10.828v6.271h10.828v5.292H285.301z"/>
<path fill="#20D13B" d="M337.779,48.13h-5.586c1.47,1.029,3.283,1.323,6.076,1.323v5.291c-5.93,0-8.967-1.421-11.809-4.997
	l2.058-1.617h-13.327l2.01,1.617c-2.793,3.576-5.88,4.997-11.76,4.997v-5.291c2.744,0,4.557-0.294,6.027-1.323h-5.537V30.296h31.848
	V48.13z M307.891,15.548h27.927v13.474h-27.927V15.548z M311.222,34.362v1.861h21.265v-1.861H311.222z M311.222,38.282v1.861h21.265
	v-1.861H311.222z M311.222,44.015h21.265v-1.813h-21.265V44.015z M330.527,23.73v-2.892h-17.344v2.892H330.527z"/>
<path fill="#20D13B" d="M363.7,26.131c0,0.735-0.099,1.519-0.294,2.254h14.063v5.291h-7.84c1.764,1.029,4.263,2.059,7.84,2.94
	l-1.715,4.997c-2.744-0.783-5.145-1.666-7.105-2.646l0.344,0.833c-4.018,1.47-6.859,1.813-15.875,1.813v-2.548
	c-2.009,0.98-4.263,1.862-6.811,2.548l-1.666-4.997c3.038-0.735,5.537-1.764,7.545-2.94h-7.545v-5.291h13.131
	c0.441-0.833,0.637-1.568,0.637-2.254H363.7z M352.088,14.567h7.104l-4.948,6.174c5.978-0.196,9.896-0.637,12.347-1.029
	l-1.421-4.066h5.781l3.773,10.485h-5.781l-0.539-1.47c-2.842,0.588-9.016,1.47-21.02,1.47v-5.292L352.088,14.567z M347.776,49.453
	c18.03,0,20.774-1.078,24.597-2.499l1.959,4.948c-4.752,1.765-8.084,2.842-26.556,2.842V49.453z M350.668,43.427
	c12.543,0,15.335-0.735,19.156-1.96l1.911,4.115c-4.704,1.52-7.741,2.254-21.067,2.254V43.427z M361.594,33.676h-1.127
	c-1.078,1.226-2.45,2.401-4.066,3.479c3.969-0.05,6.271-0.245,8.133-0.638C363.308,35.587,362.328,34.656,361.594,33.676z"/>
<path fill="#20D13B" d="M393.099,24.906c-0.098,17.394-0.686,21.362-4.801,29.838l-4.459-2.842
	c3.381-7.643,3.871-10.877,3.969-26.996h-2.988v-5.292h2.988v-5.047h5.291v5.047h8.525V46.17c0,6.076-2.645,8.574-7.986,8.574
	h-1.273v-5.291h1.273c1.813,0,2.695-0.735,2.695-3.283V24.906H393.099z M416.668,20.839v32.436h-13.572V20.839H416.668z
	 M411.376,47.983V26.131h-2.94v21.853H411.376z"/>
<path fill="#FFFFFF" d="M457.808,44.277c0,8.295-5.508,11.967-10.132,11.967v-3.672c3.094,0,6.323-2.72,6.323-8.262
	c0-2.073-0.918-4.827-3.535-5.643c-0.68,7.445-4.08,9.994-6.97,9.994c-2.651,0-5.099-0.884-5.745-3.875
	c-1.189-5.542,4.012-10.063,11.015-10.063C455.326,34.724,457.808,40.537,457.808,44.277z M446.793,38.531
	c-6.459,0.986-6.936,6.697-3.91,6.697C444.379,45.229,446.283,43.563,446.793,38.531z"/>
<path fill="#FFFFFF" d="M467.397,28.366h3.706v2.517h4.113v3.671h-11.933v-3.671h4.113V28.366z M463.284,46.827V36.151h11.933
	v10.676h-4.317v4.147c0,3.535-1.632,5.27-4.114,5.27v-3.672c0.646,0,0.816-0.51,0.816-1.598v-4.147H463.284z M463.284,53.32
	c0.577-2.516,0.577-3.672,0.577-5.134h2.891c0,1.87,0.033,3.229-0.748,6.153L463.284,53.32z M466.99,39.823v3.298h4.555v-3.298
	H466.99z M472.497,53.796c-0.782-2.38-0.748-3.739-0.748-5.609h2.89c0,1.462,0,2.618,0.578,4.59L472.497,53.796z M484.191,50.294
	c0,1.769,0.646,2.278,1.87,2.278v3.672c-3.706,0-5.542-1.734-5.542-5.95v-1.802c-0.645,2.958-1.563,5.406-2.957,7.752l-3.399-1.36
	c2.923-5.065,3.671-9.757,3.876-18.494h-1.803v-3.672h1.836c0-1.359,0.034-2.787,0.034-4.352h3.672c0,1.53-0.034,2.992-0.034,4.352
	h1.768l-0.611-3.671h2.209l0.612,3.671h0.272v3.672h-4.318c-0.033,1.496-0.102,2.855-0.17,4.182h2.686V50.294z"/>
<path fill="#FFFFFF" d="M511.221,28.366v10.607h2.04v3.672h-2.04c0,2.312,0.067,4.419,0.442,6.697
	c0.306-0.272,0.611-0.612,0.918-0.952l0.68,3.264c-0.307,0.306-0.578,0.578-0.885,0.85c0.238,0.816,0.545,1.7,0.885,2.618
	l-3.264,1.122c-0.204-0.511-0.375-1.055-0.545-1.53c-1.155,0.68-2.379,1.19-3.705,1.53l-0.544-2.108h-6.119V44.005h7.955v8.397
	c0.544-0.204,1.088-0.442,1.598-0.748c-0.646-3.128-0.714-6.018-0.714-9.009h-9.52v-3.672h1.021v-4.42h-1.021v-1.836h-0.611v23.526
	h-2.652v-2.448c-0.951,0.306-2.48,0.612-4.656,0.612v-3.672h0.68V32.718h-0.68v-3.671h7.988v1.836h2.686v-2.517h3.672v2.517h2.72
	v3.671h-1.02v4.42h1.7V28.366H511.221z M495.14,36.288v-3.57h-1.325v3.57H495.14z M495.14,43.495v-3.536h-1.325v3.536H495.14z
	 M495.14,47.167h-1.325v3.264c0.51-0.103,0.952-0.238,1.325-0.34V47.167z M504.183,48.391v-1.734h-2.243v1.734H504.183z
	 M504.183,51.484V49.75h-2.243v1.734H504.183z M503.879,38.974v-4.42h-1.803v4.42H503.879z M511.629,31.256h1.326l0.307,6.188
	h-1.326L511.629,31.256z"/>
<path fill="#FFFFFF" d="M539.441,28.333l-0.545,2.55h1.564v14.448h-1.904v4.963c0,1.769,0.646,2.278,1.904,2.278v3.672
	c-3.74,0-5.576-1.734-5.576-5.95v-4.963h-2.039c-0.137,5.745-1.463,8.873-4.998,10.913l-1.496-2.516v2.516h-8.668v-9.995h8.668
	v6.562c1.904-1.395,2.721-3.264,2.822-7.479h-1.802V30.883h1.563l-0.543-2.517h3.773l0.543,2.517h2.414l0.544-2.55H539.441z
	 M526.351,33.024v3.671h-8.668v-3.671H526.351z M525.332,29.047v2.651h-6.629v-2.651H525.332z M525.332,38.056v2.651h-6.629v-2.651
	H525.332z M518.703,44.787v-2.652h6.629v2.652H518.703z M522.679,52.572V49.92h-1.325v2.652H522.679z M536.789,41.659v-7.105h-5.746
	v7.105H536.789z"/>
<path fill="#FFFFFF" d="M554.572,32.718v19.854h-9.689V32.718H554.572z M550.9,40.81v-4.42h-2.346v4.42H550.9z M550.9,48.9v-4.42
	h-2.346v4.42H550.9z M554.197,55.122c1.156-3.298,2.074-8.737,2.074-26.075h11.389v21.247c0,4.216-1.836,5.95-5.575,5.95v-3.672
	c1.258,0,1.903-0.51,1.903-2.278v-2.413h-4.691c-0.373,4.012-0.951,6.391-1.598,8.363L554.197,55.122z M559.773,40.3
	c-0.034,1.428-0.102,2.72-0.17,3.909h4.385V40.3H559.773z M559.943,32.718c-0.034,1.395-0.034,2.687-0.068,3.91h4.113v-3.91H559.943
	z"/>
<path fill="#FFFFFF" d="M594.859,35.03c-5.744-0.714-9.519-2.244-11.389-3.162c-1.903,0.918-5.677,2.448-11.389,3.162v-3.672
	c7.105-0.918,11.389-3.672,11.389-3.672s4.25,2.754,11.389,3.672V35.03z M573.986,52.572l3.127-6.596h-4.012v-3.672h20.738v3.672
	h-12.68l-3.061,6.493c5.541-0.203,9.417-0.85,11.049-1.155l-0.646-3.025h3.774l1.7,7.955h-3.773l-0.307-1.395
	c-0.68,0.17-5.746,1.395-15.91,1.395V52.572z M576.672,35.981h13.599v3.672h-13.599V35.981z"/>
</svg>
