<?xml version="1.0" encoding="utf-8"?>
<!-- Generator: Adobe Illustrator 15.0.0, SVG Export Plug-In . SVG Version: 6.00 Build 0)  -->
<!DOCTYPE svg PUBLIC "-//W3C//DTD SVG 1.1//EN" "http://www.w3.org/Graphics/SVG/1.1/DTD/svg11.dtd">
<svg version="1.1" id="レイヤー_1" xmlns="http://www.w3.org/2000/svg" xmlns:xlink="http://www.w3.org/1999/xlink" x="0px"
	 y="0px" width="144.855px" height="107.971px" viewBox="21.166 20.934 144.855 107.971"
	 enable-background="new 21.166 20.934 144.855 107.971" xml:space="preserve">
<path fill="#FFFFFF" d="M57.008,48.772c-0.496,0.464-0.972,0.923-1.409,1.44c-1.021,1.184-2.805,3.941-2.39,5.607
	c0.304,1.217,0.976,1.82,2.112,2.286c0.224,0.08,0.373,0.224,0.432,0.458c0.085,0.342-0.145,0.694-0.485,0.779
	c-0.171,0.042-0.24,0.037-0.39-0.016c-1.505-0.487-2.566-1.651-2.949-3.188c-0.549-2.199,1.311-5.203,2.656-6.808
	c-2.113,0.618-4.047,1.689-5.771,3.049c-0.075,0.064-0.155,0.107-0.262,0.133c-0.342,0.085-0.736-0.134-0.821-0.476
	c-0.064-0.256,0.021-0.459,0.182-0.635c1.01-1.135,1.715-2.128,2.521-3.441c-0.059,0.039-0.118,0.075-0.182,0.091
	c-0.235,0.059-0.471,0.027-0.684-0.101c-0.848-0.491-1.54-3.085-1.774-4.025c-0.128-0.512-0.362-1.18,0.364-1.36
	c0.363-0.091,0.677,0.171,0.783,0.508l0.117,0.47c0.182,0.726,0.708,2.657,1.146,3.229c0.24,0.054,0.464,0.225,0.528,0.481
	c0.016,0.063,0.016,0.153,0.01,0.224c0.877-1.488,1.721-3.014,2.336-4.642c0.08-0.224,0.219-0.395,0.453-0.453
	c0.363-0.091,0.731,0.112,0.827,0.496c0.213,0.855-2.656,5.539-3.211,6.402c1.169-0.585,2.412-1.055,3.672-1.369
	c0.534-0.133,1.132-0.282,1.692-0.308c0.336-0.016,0.613,0.187,0.693,0.507C57.27,48.367,57.189,48.591,57.008,48.772z"/>
<path fill="#FFFFFF" d="M71.241,53.932c-0.086,0.111-0.225,0.191-0.354,0.224c-0.341,0.085-0.714-0.139-0.799-0.481
	c-0.054-0.213-0.006-0.385,0.128-0.577c0.283-0.411,0.577-0.779,0.828-1.227c0.935-1.706,1.47-4.198,0.991-6.119
	c-0.692-2.775-2.752-4.032-5.574-3.351c0.527,0.48,1.061,1.255,1.236,1.96c0.229,0.918,0.281,1.857,0.174,2.79
	c-0.22,1.846-1.363,4.717-3.393,5.223c-1.984,0.495-3.799-0.868-4.277-2.789c-1.012-4.056,2.08-7.481,5.859-8.423
	c3.565-0.889,6.345,0.708,7.233,4.275C73.97,48.148,73.024,51.809,71.241,53.932z M65.153,43.067
	c-0.08-0.049-0.129-0.059-0.171-0.139c-2.435,1.151-4.213,3.567-3.521,6.343c0.303,1.217,1.396,2.146,2.698,1.822
	c0.449-0.112,0.882-0.56,1.159-0.901c1.17-1.495,1.55-3.697,1.098-5.512C66.257,44.04,65.714,43.404,65.153,43.067z"/>
<path fill="#FFFFFF" d="M93.307,40.946c-0.448,0.112-0.93,0.186-1.377,0.297c-0.902,0.203-1.783,0.4-2.658,0.618
	c-1.665,0.415-10.328,2.688-11.343,3.622c-0.112,0.096-0.144,0.15-0.314,0.193c-0.342,0.085-0.731-0.113-0.821-0.476
	c-0.064-0.257,0.011-0.412,0.165-0.609c0.79-1.105,9.987-3.511,12.165-4.054c0.918-0.229,1.841-0.436,2.765-0.644
	c0.363-0.09,0.784-0.218,1.164-0.244c0.378-0.027,0.667,0.128,0.763,0.512C93.911,40.546,93.671,40.855,93.307,40.946z"/>
<path fill="#FFFFFF" d="M111.907,33.157l-0.106,0.026c-0.442,0.042-0.886,0.175-1.313,0.282c-1.856,0.463-3.699,0.99-5.54,1.517
	c0.276,1.564,0.596,3.117,0.915,4.671c0.059,0.325,0.17,0.682,0.207,1.013c0.049,0.375-0.149,0.672-0.513,0.763
	c-0.342,0.085-0.683-0.192-0.763-0.512s-0.144-0.667-0.207-1.014c-0.309-1.511-0.623-3.042-0.889-4.563
	c-2.221,0.644-4.393,1.48-6.656,2.044L96.978,37.4c-0.342,0.085-0.705-0.096-0.796-0.459c-0.084-0.341,0.098-0.613,0.401-0.758
	c0.859-0.373,1.948-0.644,2.855-0.916l-0.469-2.06c-0.079-0.32-0.159-0.641-0.212-0.944c-0.069-0.369,0.128-0.667,0.491-0.758
	c0.362-0.09,0.688,0.123,0.778,0.486c0.24,0.961,0.416,1.937,0.634,2.903c0.907-0.271,1.836-0.548,2.749-0.799
	c-0.086-0.343-0.154-0.71-0.219-1.057c-0.346-1.66-0.691-3.319-1.101-4.964c-0.085-0.341,0.144-0.693,0.485-0.779
	c0.342-0.085,0.688,0.124,0.773,0.465c0.197,0.79,0.373,1.586,0.548,2.381c1.586-0.554,3.214-1.028,4.836-1.433
	c0.342-0.085,0.688,0.124,0.773,0.464c0.086,0.342-0.117,0.71-0.459,0.795c-1.622,0.404-3.304,0.846-4.878,1.443
	c0.148,0.779,0.292,1.537,0.483,2.305c1.799-0.516,3.598-1.033,5.413-1.485c0.469-0.117,1.1-0.32,1.595-0.329
	c0.337-0.017,0.614,0.187,0.694,0.507C112.441,32.751,112.227,33.077,111.907,33.157z M101.914,37.916
	c-0.288,0.479-0.646,0.955-0.987,1.403c-0.743,1.023-1.742,2.476-2.666,3.318c-0.09,0.09-0.149,0.127-0.277,0.159
	c-0.342,0.085-0.693-0.144-0.773-0.464c-0.064-0.257,0.017-0.48,0.197-0.663c0.508-0.511,0.957-1.076,1.384-1.637
	c0.7-0.921,1.378-1.839,2.024-2.795c0.102-0.138,0.213-0.235,0.385-0.277c0.342-0.085,0.704,0.097,0.795,0.46
	C102.037,37.591,102.01,37.756,101.914,37.916z M111.231,38.268c-1.63,3.559-6.143,8.29-9.281,10.614
	c-0.074,0.064-0.16,0.085-0.246,0.107c-0.342,0.085-0.688-0.124-0.773-0.465c-0.069-0.277,0.038-0.486,0.24-0.673
	c0.225-0.192,0.476-0.368,0.706-0.538c0.608-0.47,1.185-0.976,1.74-1.478c1.991-1.834,3.839-3.882,5.313-6.155
	c0.428-0.651,0.779-1.327,1.159-1.99c0.091-0.18,0.22-0.303,0.433-0.356c0.342-0.085,0.672,0.15,0.752,0.47
	C111.317,37.975,111.306,38.113,111.231,38.268z M113.612,37.177c-0.192,0.048-0.336,0.015-0.518-0.076
	c-0.545-0.273-2.892-0.866-3.516-0.915c-0.299-0.017-0.523-0.187-0.598-0.487c-0.086-0.341,0.123-0.688,0.465-0.772
	c0.469-0.117,3.895,0.797,4.354,1.09c0.134,0.08,0.234,0.213,0.277,0.384C114.163,36.744,113.954,37.091,113.612,37.177z"/>
<path fill="#FFFFFF" d="M123.846,28.479c-0.342,0.267-0.625,0.496-0.908,0.817c-1.474,1.727-2.907,5.35-2.343,7.612
	c0.319,1.281,0.98,2.567,2.202,3.193c0.289,0.154,0.55,0.203,0.849,0.31c0.251,0.097,0.432,0.188,0.501,0.465
	c0.085,0.341-0.145,0.694-0.486,0.779c-0.106,0.027-0.197,0.026-0.314,0.011c-2.225-0.376-3.521-2.389-4.031-4.438
	c-0.639-2.561,0.645-6.057,2.118-8.147c-2.007,0.5-3.977,1.059-5.983,1.559c-0.342,0.085-0.73-0.112-0.816-0.454
	c-0.096-0.384,0.102-0.682,0.454-0.816c0.454-0.181,0.999-0.271,1.468-0.388c0.934-0.256,1.873-0.49,2.834-0.729l1.389-0.346
	l1.75-0.437c0.283-0.048,0.571-0.166,0.838-0.187c0.353-0.042,0.683,0.102,0.773,0.464
	C124.219,28.067,124.092,28.282,123.846,28.479z M126.292,25.738c-0.149,0.037-0.309,0.032-0.464-0.043
	c-0.773-0.375-1.185-0.93-1.392-1.762c-0.086-0.342,0.139-0.715,0.48-0.8c0.363-0.091,0.709,0.117,0.8,0.48
	c0.245,0.981,0.902,0.705,1.057,1.324C126.864,25.301,126.655,25.647,126.292,25.738z M128.295,23.765
	c-0.172,0.042-0.385,0.004-0.545-0.092c-0.271-0.181-1.317-1.1-1.397-1.42c-0.085-0.342,0.118-0.71,0.481-0.8
	c0.234-0.059,0.458,0.021,0.635,0.182c0.331,0.325,0.667,0.673,1.029,0.946c0.138,0.101,0.24,0.234,0.282,0.405
	C128.866,23.326,128.657,23.674,128.295,23.765z"/>
<path fill="none" stroke="#FFFFFF" stroke-linecap="round" d="M57.008,48.772c-0.496,0.464-0.972,0.923-1.409,1.44
	c-1.021,1.184-2.805,3.941-2.39,5.607c0.304,1.217,0.976,1.82,2.112,2.286c0.224,0.08,0.373,0.224,0.432,0.458
	c0.085,0.342-0.145,0.694-0.485,0.779c-0.171,0.042-0.24,0.037-0.39-0.016c-1.505-0.487-2.566-1.651-2.949-3.188
	c-0.549-2.199,1.311-5.203,2.656-6.808c-2.113,0.618-4.047,1.689-5.771,3.049c-0.075,0.064-0.155,0.107-0.262,0.133
	c-0.342,0.085-0.736-0.134-0.821-0.476c-0.064-0.256,0.021-0.459,0.182-0.635c1.01-1.135,1.715-2.128,2.521-3.441
	c-0.059,0.039-0.118,0.075-0.182,0.091c-0.235,0.059-0.471,0.027-0.684-0.101c-0.848-0.491-1.54-3.085-1.774-4.025
	c-0.128-0.512-0.362-1.18,0.364-1.36c0.363-0.091,0.677,0.171,0.783,0.508l0.117,0.47c0.182,0.726,0.708,2.657,1.146,3.229
	c0.24,0.054,0.464,0.225,0.528,0.481c0.016,0.063,0.016,0.153,0.01,0.224c0.877-1.488,1.721-3.014,2.336-4.642
	c0.08-0.224,0.219-0.395,0.453-0.453c0.363-0.091,0.731,0.112,0.827,0.496c0.213,0.855-2.656,5.539-3.211,6.402
	c1.169-0.585,2.412-1.055,3.672-1.369c0.534-0.133,1.132-0.282,1.692-0.308c0.336-0.016,0.613,0.187,0.693,0.507
	C57.27,48.367,57.189,48.591,57.008,48.772z"/>
<path fill="none" stroke="#FFFFFF" stroke-linecap="round" d="M71.241,53.932c-0.086,0.111-0.225,0.191-0.354,0.224
	c-0.341,0.085-0.714-0.139-0.799-0.481c-0.054-0.213-0.006-0.385,0.128-0.577c0.283-0.411,0.577-0.779,0.828-1.227
	c0.935-1.706,1.47-4.198,0.991-6.119c-0.692-2.775-2.752-4.032-5.574-3.351c0.527,0.48,1.061,1.255,1.236,1.96
	c0.229,0.918,0.281,1.857,0.174,2.79c-0.22,1.846-1.363,4.717-3.393,5.223c-1.984,0.495-3.799-0.868-4.277-2.789
	c-1.012-4.056,2.08-7.481,5.859-8.423c3.565-0.889,6.345,0.708,7.233,4.275C73.97,48.148,73.024,51.809,71.241,53.932z
	 M65.153,43.067c-0.08-0.049-0.129-0.059-0.171-0.139c-2.435,1.151-4.213,3.567-3.521,6.343c0.303,1.217,1.396,2.146,2.698,1.822
	c0.449-0.112,0.882-0.56,1.159-0.901c1.17-1.495,1.55-3.697,1.098-5.512C66.257,44.04,65.714,43.404,65.153,43.067z"/>
<path fill="none" stroke="#FFFFFF" stroke-linecap="round" d="M93.307,40.946c-0.448,0.112-0.93,0.186-1.377,0.297
	c-0.902,0.203-1.783,0.4-2.658,0.618c-1.665,0.415-10.328,2.688-11.343,3.622c-0.112,0.096-0.144,0.15-0.314,0.193
	c-0.342,0.085-0.731-0.113-0.821-0.476c-0.064-0.257,0.011-0.412,0.165-0.609c0.79-1.105,9.987-3.511,12.165-4.054
	c0.918-0.229,1.841-0.436,2.765-0.644c0.363-0.09,0.784-0.218,1.164-0.244c0.378-0.027,0.667,0.128,0.763,0.512
	C93.911,40.546,93.671,40.855,93.307,40.946z"/>
<path fill="none" stroke="#FFFFFF" stroke-linecap="round" d="M111.907,33.157l-0.106,0.026c-0.442,0.042-0.886,0.175-1.313,0.282
	c-1.856,0.463-3.699,0.99-5.54,1.517c0.276,1.564,0.596,3.117,0.915,4.671c0.059,0.325,0.17,0.682,0.207,1.013
	c0.049,0.375-0.149,0.672-0.513,0.763c-0.342,0.085-0.683-0.192-0.763-0.512s-0.144-0.667-0.207-1.014
	c-0.309-1.511-0.623-3.042-0.889-4.563c-2.221,0.644-4.393,1.48-6.656,2.044L96.978,37.4c-0.342,0.085-0.705-0.096-0.796-0.459
	c-0.084-0.341,0.098-0.613,0.401-0.758c0.859-0.373,1.948-0.644,2.855-0.916l-0.469-2.06c-0.079-0.32-0.159-0.641-0.212-0.944
	c-0.069-0.369,0.128-0.667,0.491-0.758c0.362-0.09,0.688,0.123,0.778,0.486c0.24,0.961,0.416,1.937,0.634,2.903
	c0.907-0.271,1.836-0.548,2.749-0.799c-0.086-0.343-0.154-0.71-0.219-1.057c-0.346-1.66-0.691-3.319-1.101-4.964
	c-0.085-0.341,0.144-0.693,0.485-0.779c0.342-0.085,0.688,0.124,0.773,0.465c0.197,0.79,0.373,1.586,0.548,2.381
	c1.586-0.554,3.214-1.028,4.836-1.433c0.342-0.085,0.688,0.124,0.773,0.464c0.086,0.342-0.117,0.71-0.459,0.795
	c-1.622,0.404-3.304,0.846-4.878,1.443c0.148,0.779,0.292,1.537,0.483,2.305c1.799-0.516,3.598-1.033,5.413-1.485
	c0.469-0.117,1.1-0.32,1.595-0.329c0.337-0.017,0.614,0.187,0.694,0.507C112.441,32.751,112.227,33.077,111.907,33.157z
	 M101.914,37.916c-0.288,0.479-0.646,0.955-0.987,1.403c-0.743,1.023-1.742,2.476-2.666,3.318c-0.09,0.09-0.149,0.127-0.277,0.159
	c-0.342,0.085-0.693-0.144-0.773-0.464c-0.064-0.257,0.017-0.48,0.197-0.663c0.508-0.511,0.957-1.076,1.384-1.637
	c0.7-0.921,1.378-1.839,2.024-2.795c0.102-0.138,0.213-0.235,0.385-0.277c0.342-0.085,0.704,0.097,0.795,0.46
	C102.037,37.591,102.01,37.756,101.914,37.916z M111.231,38.268c-1.63,3.559-6.143,8.29-9.281,10.614
	c-0.074,0.064-0.16,0.085-0.246,0.107c-0.342,0.085-0.688-0.124-0.773-0.465c-0.069-0.277,0.038-0.486,0.24-0.673
	c0.225-0.192,0.476-0.368,0.706-0.538c0.608-0.47,1.185-0.976,1.74-1.478c1.991-1.834,3.839-3.882,5.313-6.155
	c0.428-0.651,0.779-1.327,1.159-1.99c0.091-0.18,0.22-0.303,0.433-0.356c0.342-0.085,0.672,0.15,0.752,0.47
	C111.317,37.975,111.306,38.113,111.231,38.268z M113.612,37.177c-0.192,0.048-0.336,0.015-0.518-0.076
	c-0.545-0.273-2.892-0.866-3.516-0.915c-0.299-0.017-0.523-0.187-0.598-0.487c-0.086-0.341,0.123-0.688,0.465-0.772
	c0.469-0.117,3.895,0.797,4.354,1.09c0.134,0.08,0.234,0.213,0.277,0.384C114.163,36.744,113.954,37.091,113.612,37.177z"/>
<path fill="none" stroke="#FFFFFF" stroke-linecap="round" d="M123.846,28.479c-0.342,0.267-0.625,0.496-0.908,0.817
	c-1.474,1.727-2.907,5.35-2.343,7.612c0.319,1.281,0.98,2.567,2.202,3.193c0.289,0.154,0.55,0.203,0.849,0.31
	c0.251,0.097,0.432,0.188,0.501,0.465c0.085,0.341-0.145,0.694-0.486,0.779c-0.106,0.027-0.197,0.026-0.314,0.011
	c-2.225-0.376-3.521-2.389-4.031-4.438c-0.639-2.561,0.645-6.057,2.118-8.147c-2.007,0.5-3.977,1.059-5.983,1.559
	c-0.342,0.085-0.73-0.112-0.816-0.454c-0.096-0.384,0.102-0.682,0.454-0.816c0.454-0.181,0.999-0.271,1.468-0.388
	c0.934-0.256,1.873-0.49,2.834-0.729l1.389-0.346l1.75-0.437c0.283-0.048,0.571-0.166,0.838-0.187
	c0.353-0.042,0.683,0.102,0.773,0.464C124.219,28.067,124.092,28.282,123.846,28.479z M126.292,25.738
	c-0.149,0.037-0.309,0.032-0.464-0.043c-0.773-0.375-1.185-0.93-1.392-1.762c-0.086-0.342,0.139-0.715,0.48-0.8
	c0.363-0.091,0.709,0.117,0.8,0.48c0.245,0.981,0.902,0.705,1.057,1.324C126.864,25.301,126.655,25.647,126.292,25.738z
	 M128.295,23.765c-0.172,0.042-0.385,0.004-0.545-0.092c-0.271-0.181-1.317-1.1-1.397-1.42c-0.085-0.342,0.118-0.71,0.481-0.8
	c0.234-0.059,0.458,0.021,0.635,0.182c0.331,0.325,0.667,0.673,1.029,0.946c0.138,0.101,0.24,0.234,0.282,0.405
	C128.866,23.326,128.657,23.674,128.295,23.765z"/>
<path fill="#FFFFFF" d="M54.485,87.484c-1.089,0.272-2.605,0.469-3.72,0.361c-1.394-0.129-4.563-1.38-5.907-1.952
	c0.501,2.188,1.007,4.398,1.55,6.576c0.085,0.342-0.14,0.715-0.481,0.8c-0.342,0.086-0.715-0.139-0.8-0.48
	c-0.522-2.093-0.985-4.221-1.485-6.319c-1.282,2.134-3.787,5.366-5.709,6.935c-0.074,0.063-0.176,0.111-0.283,0.139
	c-0.342,0.084-0.693-0.145-0.779-0.486c-0.063-0.256,0.022-0.459,0.204-0.642c0.401-0.394,0.833-0.751,1.228-1.167
	c1.464-1.498,4.006-4.673,4.813-6.619l0.086-0.113l-0.191-0.769c-1.474,0.368-2.925,0.729-4.387,1.14
	c-0.919,0.229-1.832,0.479-2.712,0.767c-0.021,0.005-0.016,0.027-0.037,0.032c-0.363,0.092-0.716-0.14-0.806-0.503
	c-0.086-0.341,0.117-0.618,0.422-0.762c0.528-0.245,1.707-0.517,2.278-0.683c1.655-0.458,3.3-0.867,4.943-1.277l-0.702-3.09
	c-1.191,0.319-2.359,0.633-3.534,1.018l-0.982,0.335l-0.106,0.026c-0.363,0.091-0.688-0.123-0.779-0.486
	c-0.084-0.341,0.081-0.586,0.359-0.746c0.416-0.24,1.062-0.379,1.525-0.518c1.053-0.329,2.141-0.601,3.203-0.889
	c-0.234-1.03-0.469-2.061-0.725-3.084c-0.085-0.344,0.14-0.716,0.481-0.801s0.715,0.139,0.8,0.48
	c0.256,1.025,0.484,2.033,0.719,3.064l1.323-0.33c0.769-0.192,1.56-0.389,2.354-0.565c0.284-0.047,0.577-0.144,0.844-0.165
	c0.358-0.021,0.646,0.134,0.736,0.497c0.085,0.342-0.118,0.71-0.485,0.778l-0.043,0.012c-1.49,0.303-2.963,0.67-4.436,1.037
	l0.729,3.106c1.516-0.378,3.011-0.751,4.532-1.106l1.697-0.379c0.17-0.042,0.384-0.096,0.581-0.121
	c0.4-0.031,0.684,0.102,0.784,0.508c0.091,0.363-0.188,0.703-0.528,0.789c-0.662,0.165-1.355,0.292-2.018,0.457
	c-1.59,0.352-3.17,0.745-4.75,1.139c0.068,0.278,0.121,0.582,0.191,0.86l0.026,0.016c1.174,0.704,5.105,2.105,6.381,2.218
	c0.978,0.098,2.338-0.082,3.277-0.316c0.342-0.086,0.715,0.138,0.8,0.48C55.051,87.026,54.827,87.4,54.485,87.484z"/>
<path fill="#FFFFFF" d="M72.677,77.145c-0.791,0.197-1.592,0.352-2.402,0.554c-1.794,0.447-3.604,0.921-5.386,1.41l0.138,0.556
	c0.021-0.006,0.049,0.011,0.049,0.011c1.67,1.058,4.651,1.924,6.605,2.027c0.506,0.031,0.976,0.005,1.483-0.054
	c0.353-0.042,0.64,0.112,0.73,0.476c0.101,0.406-0.139,0.715-0.523,0.812c-0.32,0.079-0.753,0.074-1.067,0.084
	c-2.215,0.031-4.877-0.734-6.877-1.664c0.324,1.303,0.622,2.589,0.925,3.896c0.123,0.582,0.39,1.468,0.421,2.05
	c0.026,0.378-0.156,0.649-0.539,0.745c-0.32,0.08-0.678-0.17-0.73-0.474l-0.017-0.064c-0.399-1.964-0.862-3.911-1.325-5.86
	c-1.101,1.59-4.188,5.035-5.831,5.99c-0.059,0.036-0.102,0.047-0.166,0.063c-0.363,0.091-0.688-0.123-0.778-0.486
	c-0.074-0.299,0.048-0.532,0.299-0.709c0.331-0.219,0.62-0.426,0.919-0.683c1.254-1.062,4.517-4.437,5.058-5.909
	c0.01-0.048,0.026-0.076,0.063-0.107l-0.091-0.363c-1.548,0.432-3.074,0.858-4.611,1.332c-1.137,0.352-2.3,0.688-3.379,1.183
	c-0.043,0.011-0.123,0.052-0.165,0.063c-0.342,0.085-0.694-0.145-0.779-0.484c-0.074-0.301,0.06-0.584,0.315-0.737
	c0.748-0.458,4.095-1.407,5.022-1.683c-0.587-0.626-1.732-2.222-1.94-3.055c-0.091-0.363,0.118-0.71,0.48-0.801
	c0.342-0.085,0.619,0.119,0.764,0.423c0.389,0.833,1.396,2.509,2.17,2.974l0.027,0.016l1.781-0.49l-1.133-4.547
	c-1.105,0.299-2.231,0.602-3.331,0.922c-0.699,0.196-1.42,0.398-2.076,0.676c-0.017,0.027-0.059,0.037-0.08,0.043
	c-0.362,0.09-0.693-0.145-0.778-0.485c-0.086-0.343,0.096-0.614,0.379-0.753c0.545-0.271,1.212-0.416,1.799-0.606
	c1.244-0.379,2.519-0.721,3.773-1.056l-0.426-1.707c-0.059-0.234-0.133-0.535-0.17-0.774c-0.049-0.374,0.129-0.668,0.512-0.764
	c0.363-0.091,0.674,0.151,0.779,0.486c0.08,0.229,0.129,0.513,0.171,0.774l0.409,1.645c1.127-0.304,2.258-0.586,3.411-0.873
	c0.619-0.154,1.42-0.399,2.034-0.484c0.373-0.049,0.688,0.123,0.783,0.508c0.085,0.34-0.145,0.693-0.486,0.778
	c-1.045,0.261-2.124,0.484-3.17,0.745c-0.769,0.191-1.511,0.399-2.279,0.591l1.134,4.548c0.442-0.135,0.87-0.24,1.318-0.353
	c-0.096-0.021-0.197-0.245-0.219-0.33c-0.059-0.235,0.011-0.411,0.145-0.604c0.902-1.2,1.362-2.176,1.801-3.601
	c0.075-0.246,0.235-0.422,0.491-0.485c0.32-0.079,0.673,0.149,0.752,0.47c0.027,0.107,0.032,0.219,0.011,0.314
	c-0.229,1.17-1.149,3.031-1.896,3.943c0.982-0.245,1.959-0.512,2.919-0.75c0.619-0.155,1.217-0.305,1.842-0.438
	c0.213-0.053,0.47-0.117,0.688-0.149c0.374-0.048,0.667,0.13,0.763,0.515C73.278,76.744,73.016,77.061,72.677,77.145z"/>
<path fill="#FFFFFF" d="M81.096,81.916c-0.106,0.117-0.245,0.197-0.353,0.314c-0.347,0.336-0.715,0.769-1.206,0.891
	c-1.537,0.383-2.363-2.563-2.603-3.523c-0.548-2.199-1.095-6.848-0.741-8.978c0.048-0.261,0.219-0.485,0.496-0.555
	c0.342-0.085,0.699,0.166,0.779,0.486c0.021,0.085,0.021,0.177,0.016,0.246c-0.268,2.38,0.13,6.067,0.715,8.415
	c0.154,0.621,0.586,2.168,1.098,2.584c0.326-0.239,0.903-0.927,1.224-1.007c0.342-0.085,0.688,0.123,0.773,0.464
	C81.353,81.489,81.278,81.734,81.096,81.916z M93.188,75.205c-0.043,0.01-0.107,0.026-0.154,0.017
	c-0.859,0.01-1.688,0.058-2.547,0.157c-0.102,1.319-0.674,3.479-2.169,3.852c-1.451,0.362-3.164-0.141-3.563-1.742
	c-0.446-1.793,1.981-2.692,3.284-3.018c0.363-0.09,0.71-0.154,1.078-0.224c-0.069-0.459-0.187-0.929-0.298-1.377
	c-0.336-1.346-0.734-2.674-1.172-3.972c-1.121,0.326-2.423,0.74-3.133,1.712c-0.103,0.138-0.235,0.239-0.406,0.282
	c-0.342,0.085-0.715-0.139-0.801-0.48c-0.043-0.17-0.016-0.337,0.081-0.497c0.7-1.194,2.589-1.892,3.838-2.249
	c-0.09-0.272-0.229-0.555-0.298-0.833c-0.085-0.341,0.117-0.709,0.48-0.8c0.726-0.181,0.907,0.818,1.077,1.319
	c0.476-0.096,0.95-0.191,1.436-0.245c0.331-0.037,0.646,0.133,0.731,0.476c0.09,0.362-0.118,0.71-0.459,0.796
	c-0.406,0.101-0.871,0.148-1.281,0.227c0.441,1.319,0.841,2.647,1.177,3.993c0.122,0.49,0.245,0.981,0.325,1.484
	c0.832-0.117,1.744-0.187,2.588-0.169c0.32,0.01,0.592,0.192,0.672,0.513C93.759,74.768,93.53,75.119,93.188,75.205z M88.353,75.73
	c-0.599,0.148-1.858,0.554-2.221,1.098c-0.064,0.106-0.15,0.219-0.118,0.347c0.219,0.875,1.265,0.979,1.99,0.798
	c0.704-0.176,1.095-1.794,1.148-2.396C88.891,75.619,88.609,75.666,88.353,75.73z"/>
<path fill="#FFFFFF" d="M110.569,62.073l-0.085,0.021c-1.148,0.127-2.296,0.437-3.427,0.718c-0.684,0.17-1.366,0.341-2.044,0.532
	c0.234,0.94,1.155,4.724,1.048,5.477c-0.043,0.282-0.193,0.5-0.471,0.569c-0.342,0.085-0.688-0.123-0.773-0.464
	c-0.016-0.064-0.016-0.155-0.01-0.224c0.043-0.736-0.676-3.62-0.884-4.453l-0.144-0.576c-0.533,0.133-1.084,0.293-1.617,0.426
	c0.059,0.234,0.102,0.497,0.139,0.736c0.207,1.104,0.393,2.216,0.664,3.305c0.075,0.298,0.154,0.618,0.299,0.923
	c0.011,0.043,0.043,0.08,0.053,0.122c0.08,0.32-0.144,0.694-0.464,0.774c-0.79,0.197-0.977-1.004-1.104-1.516
	c-0.276-1.112-0.473-2.264-0.686-3.39l-0.106-0.609c-1.441,0.405-2.872,0.853-4.276,1.316c-0.544,0.182-1.051,0.421-1.606,0.56
	l-0.085,0.021c-0.342,0.085-0.688-0.123-0.773-0.463c-0.08-0.32,0.097-0.614,0.385-0.731c0.39-0.166,0.833-0.299,1.249-0.448
	c0.939-0.326,1.911-0.612,2.882-0.9c2.595-0.783,5.227-1.507,7.852-2.162c0.833-0.208,2.957-0.783,3.769-0.803
	c0.314-0.011,0.582,0.149,0.661,0.469C111.093,61.624,110.911,61.988,110.569,62.073z M99.755,66.901
	c-0.06,0.31-0.182,0.635-0.268,0.928c-0.508,1.51-1.347,3.24-2.586,4.273c-0.074,0.064-0.154,0.107-0.262,0.134
	c-0.342,0.085-0.672-0.149-0.752-0.47c-0.064-0.256,0.016-0.48,0.203-0.641c1.309-1.211,1.966-2.849,2.432-4.529
	c0.053-0.24,0.219-0.395,0.475-0.458c0.342-0.085,0.667,0.127,0.752,0.47C99.776,66.714,99.776,66.806,99.755,66.901z
	 M102.809,62.329c-0.298,0.075-0.555-0.043-0.709-0.3c-0.277-0.475-1.242-1.435-1.707-1.751c-0.139-0.101-0.234-0.213-0.277-0.384
	c-0.085-0.342,0.124-0.689,0.465-0.774c0.149-0.038,0.342,0.007,0.476,0.085c0.479,0.289,2.09,1.837,2.224,2.372
	C103.365,61.918,103.151,62.244,102.809,62.329z M112.417,77.032c-0.619,0.154-1.281,0.229-1.922,0.116
	c-0.592-0.102-1.211-0.311-1.781-0.508c-1.009-0.316-2.022-0.652-3.036-0.99c-0.993,1.473-2.206,3.159-3.61,4.257
	c-0.074,0.064-0.154,0.107-0.239,0.128c-0.342,0.086-0.688-0.123-0.774-0.465c-0.059-0.234,0.017-0.48,0.203-0.641
	c1.261-1.13,2.26-2.309,3.184-3.696c-0.348-0.117-2.311-0.716-2.497-0.829c-0.198,0.39-0.444,0.77-0.668,1.143
	c-0.08,0.133-0.235,0.24-0.384,0.277c-0.363,0.091-0.684-0.102-0.774-0.465c-0.042-0.17-0.011-0.314,0.065-0.469l0.603-1.035
	c0.529-0.881,1.036-1.756,1.587-2.642c0.31-0.485,0.631-1.019,0.999-1.45c0.106-0.118,0.203-0.187,0.353-0.224
	c0.299-0.075,0.592,0.101,0.726,0.363c0.646-0.14,3.187-0.683,3.729-0.499c0.246,0.074,0.396,0.219,0.454,0.453
	c0.037,0.15,0.021,0.267-0.038,0.395c-0.154,0.379-0.353,0.77-0.534,1.131c-0.523,1.084-1.101,2.135-1.704,3.169l2.716,0.888
	c0.517,0.166,1.088,0.364,1.633,0.455c0.47,0.064,0.955,0.012,1.403-0.101c0.342-0.085,0.672-0.213,0.977-0.356
	c0.038-0.032,0.102-0.048,0.145-0.059c0.342-0.086,0.688,0.123,0.773,0.465C114.188,76.591,112.928,76.904,112.417,77.032z
	 M104.26,71.242c-0.148,0.038-0.294,0.096-0.447,0.112c-0.434,0.629-0.813,1.29-1.213,1.958c0.848,0.219,1.696,0.529,2.539,0.818
	c0.673-1.121,1.277-2.246,1.849-3.409C106.07,70.859,105.157,71.02,104.26,71.242z M111.618,66.732
	c-0.214,0.053-0.357,0.021-0.529-0.118c-0.453-0.363-2.154-1.186-2.715-1.341c-0.246-0.074-0.416-0.213-0.48-0.47
	c-0.085-0.341,0.103-0.683,0.465-0.773c0.556-0.139,3.021,1.198,3.506,1.598c0.111,0.085,0.187,0.204,0.224,0.352
	C112.173,66.322,111.959,66.647,111.618,66.732z"/>
<path fill="#FFFFFF" d="M118.725,64.507c-0.172,0.043-0.268,0.021-0.418-0.033c-0.821-0.293-1.418-0.235-2.289-0.177
	c-0.314,0.01-0.592-0.192-0.666-0.492c-0.086-0.341,0.117-0.709,0.459-0.794l0.107-0.027c1.003-0.069,1.878-0.105,2.828,0.247
	c0.224,0.08,0.405,0.262,0.464,0.497C119.29,64.048,119.066,64.422,118.725,64.507z M130.366,69.541
	c-0.241,0.309-0.492,0.667-0.785,0.944c-0.091,0.091-0.214,0.144-0.342,0.176c-0.363,0.091-0.71-0.118-0.795-0.46
	c-0.064-0.256,0.006-0.432,0.16-0.629c0.305-0.416,0.668-0.778,0.945-1.211c0.887-1.264,1.929-3.452,1.535-5.031
	c-0.346-1.388-1.061-1.89-2.47-1.539c-2.413,0.602-5.478,2.772-7.453,4.308c0.218,1.328,0.484,2.669,0.81,3.972
	c0.196,0.789,0.457,1.563,0.697,2.343l0.016,0.063c0.111,0.357-0.15,0.672-0.492,0.758c-0.341,0.085-0.613-0.098-0.757-0.401
	c-0.304-0.673-0.554-1.767-0.734-2.492c-0.271-1.089-0.506-2.21-0.714-3.314c-0.998,0.816-2.055,1.669-2.926,2.635
	c-0.106,0.116-0.197,0.207-0.369,0.249c-0.341,0.086-0.709-0.117-0.8-0.48c-0.053-0.213,0.001-0.362,0.113-0.549
	c0.314-0.555,3.177-2.901,3.743-3.359c-0.288-1.606-1.26-8.507-0.705-9.462c0.113-0.187,0.22-0.305,0.434-0.357
	c0.363-0.091,0.693,0.144,0.779,0.486c0.042,0.171,0.015,0.245-0.033,0.416c-0.283,0.956,0.523,6.832,0.699,7.989
	c2.008-1.497,4.938-3.476,7.373-4.083c2.135-0.532,3.532,0.345,4.069,2.501C132.897,65.146,131.605,67.872,130.366,69.541z"/>
<path fill="#FFFFFF" d="M142.241,64.245c-0.156,2.102-1.651,3.836-3.68,4.342c-1.409,0.351-2.861-0.376-3.223-1.828
	c-0.517-2.07,1.785-3.211,3.428-3.621c0.662-0.165,1.34-0.266,2.023-0.255c-0.432-1.276-2.928-2.921-4.241-3.002
	c-0.325-0.031-0.586-0.17-0.666-0.49c-0.079-0.32,0.032-0.508,0.257-0.7c0.533-0.495,1.944-3.841,2.068-4.619
	c-0.534-0.321-1.596-0.307-2.193-0.338c-0.32-0.012-0.571-0.198-0.651-0.519c-0.085-0.342,0.124-0.688,0.465-0.773
	c0.064-0.016,0.128-0.032,0.177-0.021c0.971-0.015,3.196,0.086,3.494,1.283c0.234,0.939-1.315,4.183-1.86,5.089
	c1.67,0.604,4.012,2.083,4.47,3.92c0.032,0.128,0.043,0.262,0.074,0.39c0.176,0.068,0.31,0.239,0.352,0.41
	C142.603,63.791,142.475,64.095,142.241,64.245z M139.059,64.402c-0.811,0.202-2.743,0.911-2.461,2.042
	c0.187,0.748,0.944,1.058,1.648,0.883c1.494-0.373,2.525-1.605,2.665-3.137C140.293,64.163,139.657,64.253,139.059,64.402z"/>
<path fill="#FFFFFF" d="M149.63,65.963c-0.193,0.048-0.385,0.005-0.551-0.113c-0.122,0.053-0.25,0.085-0.379,0.117
	c-1.003,0.25-2.353-0.071-2.635-1.203c-0.324-1.302,0.375-3.586,1.806-3.943c1.218-0.303,3.053,0.51,3.372,1.791
	C151.546,63.829,150.974,65.627,149.63,65.963z M148.19,62.103c-0.662,0.165-0.988,1.766-0.844,2.342
	c0.085,0.342,0.843,0.289,1.077,0.23c0.32-0.08,0.534-0.314,0.79-0.378c0.171-0.042,0.336-0.017,0.496,0.081
	c0.209-0.347,0.354-1.041,0.252-1.446C149.84,62.441,148.724,61.97,148.19,62.103z"/>
<path fill="none" stroke="#FFFFFF" stroke-linecap="round" d="M54.485,87.484c-1.089,0.272-2.605,0.469-3.72,0.361
	c-1.394-0.129-4.563-1.38-5.907-1.952c0.501,2.188,1.007,4.398,1.55,6.576c0.085,0.342-0.14,0.715-0.481,0.8
	c-0.342,0.086-0.715-0.139-0.8-0.48c-0.522-2.093-0.985-4.221-1.485-6.319c-1.282,2.134-3.787,5.366-5.709,6.935
	c-0.074,0.063-0.176,0.111-0.283,0.139c-0.342,0.084-0.693-0.145-0.779-0.486c-0.063-0.256,0.022-0.459,0.204-0.642
	c0.401-0.394,0.833-0.751,1.228-1.167c1.464-1.498,4.006-4.673,4.813-6.619l0.086-0.113l-0.191-0.769
	c-1.474,0.368-2.925,0.729-4.387,1.14c-0.919,0.229-1.832,0.479-2.712,0.767c-0.021,0.005-0.016,0.027-0.037,0.032
	c-0.363,0.092-0.716-0.14-0.806-0.503c-0.086-0.341,0.117-0.618,0.422-0.762c0.528-0.245,1.707-0.517,2.278-0.683
	c1.655-0.458,3.3-0.867,4.943-1.277l-0.702-3.09c-1.191,0.319-2.359,0.633-3.534,1.018l-0.982,0.335l-0.106,0.026
	c-0.363,0.091-0.688-0.123-0.779-0.486c-0.084-0.341,0.081-0.586,0.359-0.746c0.416-0.24,1.062-0.379,1.525-0.518
	c1.053-0.329,2.141-0.601,3.203-0.889c-0.234-1.03-0.469-2.061-0.725-3.084c-0.085-0.344,0.14-0.716,0.481-0.801
	s0.715,0.139,0.8,0.48c0.256,1.025,0.484,2.033,0.719,3.064l1.323-0.33c0.769-0.192,1.56-0.389,2.354-0.565
	c0.284-0.047,0.577-0.144,0.844-0.165c0.358-0.021,0.646,0.134,0.736,0.497c0.085,0.342-0.118,0.71-0.485,0.778l-0.043,0.012
	c-1.49,0.303-2.963,0.67-4.436,1.037l0.729,3.106c1.516-0.378,3.011-0.751,4.532-1.106l1.697-0.379
	c0.17-0.042,0.384-0.096,0.581-0.121c0.4-0.031,0.684,0.102,0.784,0.508c0.091,0.363-0.188,0.703-0.528,0.789
	c-0.662,0.165-1.355,0.292-2.018,0.457c-1.59,0.352-3.17,0.745-4.75,1.139c0.068,0.278,0.121,0.582,0.191,0.86l0.026,0.016
	c1.174,0.704,5.105,2.105,6.381,2.218c0.978,0.098,2.338-0.082,3.277-0.316c0.342-0.086,0.715,0.138,0.8,0.48
	C55.051,87.026,54.827,87.4,54.485,87.484z"/>
<path fill="none" stroke="#FFFFFF" stroke-linecap="round" d="M72.677,77.145c-0.791,0.197-1.592,0.352-2.402,0.554
	c-1.794,0.447-3.604,0.921-5.386,1.41l0.138,0.556c0.021-0.006,0.049,0.011,0.049,0.011c1.67,1.058,4.651,1.924,6.605,2.027
	c0.506,0.031,0.976,0.005,1.483-0.054c0.353-0.042,0.64,0.112,0.73,0.476c0.101,0.406-0.139,0.715-0.523,0.812
	c-0.32,0.079-0.753,0.074-1.067,0.084c-2.215,0.031-4.877-0.734-6.877-1.664c0.324,1.303,0.622,2.589,0.925,3.896
	c0.123,0.582,0.39,1.468,0.421,2.05c0.026,0.378-0.156,0.649-0.539,0.745c-0.32,0.08-0.678-0.17-0.73-0.474l-0.017-0.064
	c-0.399-1.964-0.862-3.911-1.325-5.86c-1.101,1.59-4.188,5.035-5.831,5.99c-0.059,0.036-0.102,0.047-0.166,0.063
	c-0.363,0.091-0.688-0.123-0.778-0.486c-0.074-0.299,0.048-0.532,0.299-0.709c0.331-0.219,0.62-0.426,0.919-0.683
	c1.254-1.062,4.517-4.437,5.058-5.909c0.01-0.048,0.026-0.076,0.063-0.107l-0.091-0.363c-1.548,0.432-3.074,0.858-4.611,1.332
	c-1.137,0.352-2.3,0.688-3.379,1.183c-0.043,0.011-0.123,0.052-0.165,0.063c-0.342,0.085-0.694-0.145-0.779-0.484
	c-0.074-0.301,0.06-0.584,0.315-0.737c0.748-0.458,4.095-1.407,5.022-1.683c-0.587-0.626-1.732-2.222-1.94-3.055
	c-0.091-0.363,0.118-0.71,0.48-0.801c0.342-0.085,0.619,0.119,0.764,0.423c0.389,0.833,1.396,2.509,2.17,2.974l0.027,0.016
	l1.781-0.49l-1.133-4.547c-1.105,0.299-2.231,0.602-3.331,0.922c-0.699,0.196-1.42,0.398-2.076,0.676
	c-0.017,0.027-0.059,0.037-0.08,0.043c-0.362,0.09-0.693-0.145-0.778-0.485c-0.086-0.343,0.096-0.614,0.379-0.753
	c0.545-0.271,1.212-0.416,1.799-0.606c1.244-0.379,2.519-0.721,3.773-1.056l-0.426-1.707c-0.059-0.234-0.133-0.535-0.17-0.774
	c-0.049-0.374,0.129-0.668,0.512-0.764c0.363-0.091,0.674,0.151,0.779,0.486c0.08,0.229,0.129,0.513,0.171,0.774l0.409,1.645
	c1.127-0.304,2.258-0.586,3.411-0.873c0.619-0.154,1.42-0.399,2.034-0.484c0.373-0.049,0.688,0.123,0.783,0.508
	c0.085,0.34-0.145,0.693-0.486,0.778c-1.045,0.261-2.124,0.484-3.17,0.745c-0.769,0.191-1.511,0.399-2.279,0.591l1.134,4.548
	c0.442-0.135,0.87-0.24,1.318-0.353c-0.096-0.021-0.197-0.245-0.219-0.33c-0.059-0.235,0.011-0.411,0.145-0.604
	c0.902-1.2,1.362-2.176,1.801-3.601c0.075-0.246,0.235-0.422,0.491-0.485c0.32-0.079,0.673,0.149,0.752,0.47
	c0.027,0.107,0.032,0.219,0.011,0.314c-0.229,1.17-1.149,3.031-1.896,3.943c0.982-0.245,1.959-0.512,2.919-0.75
	c0.619-0.155,1.217-0.305,1.842-0.438c0.213-0.053,0.47-0.117,0.688-0.149c0.374-0.048,0.667,0.13,0.763,0.515
	C73.278,76.744,73.016,77.061,72.677,77.145z"/>
<path fill="none" stroke="#FFFFFF" stroke-linecap="round" d="M81.096,81.916c-0.106,0.117-0.245,0.197-0.353,0.314
	c-0.347,0.336-0.715,0.769-1.206,0.891c-1.537,0.383-2.363-2.563-2.603-3.523c-0.548-2.199-1.095-6.848-0.741-8.978
	c0.048-0.261,0.219-0.485,0.496-0.555c0.342-0.085,0.699,0.166,0.779,0.486c0.021,0.085,0.021,0.177,0.016,0.246
	c-0.268,2.38,0.13,6.067,0.715,8.415c0.154,0.621,0.586,2.168,1.098,2.584c0.326-0.239,0.903-0.927,1.224-1.007
	c0.342-0.085,0.688,0.123,0.773,0.464C81.353,81.489,81.278,81.734,81.096,81.916z M93.188,75.205
	c-0.043,0.01-0.107,0.026-0.154,0.017c-0.859,0.01-1.688,0.058-2.547,0.157c-0.102,1.319-0.674,3.479-2.169,3.852
	c-1.451,0.362-3.164-0.141-3.563-1.742c-0.446-1.793,1.981-2.692,3.284-3.018c0.363-0.09,0.71-0.154,1.078-0.224
	c-0.069-0.459-0.187-0.929-0.298-1.377c-0.336-1.346-0.734-2.674-1.172-3.972c-1.121,0.326-2.423,0.74-3.133,1.712
	c-0.103,0.138-0.235,0.239-0.406,0.282c-0.342,0.085-0.715-0.139-0.801-0.48c-0.043-0.17-0.016-0.337,0.081-0.497
	c0.7-1.194,2.589-1.892,3.838-2.249c-0.09-0.272-0.229-0.555-0.298-0.833c-0.085-0.341,0.117-0.709,0.48-0.8
	c0.726-0.181,0.907,0.818,1.077,1.319c0.476-0.096,0.95-0.191,1.436-0.245c0.331-0.037,0.646,0.133,0.731,0.476
	c0.09,0.362-0.118,0.71-0.459,0.796c-0.406,0.101-0.871,0.148-1.281,0.227c0.441,1.319,0.841,2.647,1.177,3.993
	c0.122,0.49,0.245,0.981,0.325,1.484c0.832-0.117,1.744-0.187,2.588-0.169c0.32,0.01,0.592,0.192,0.672,0.513
	C93.759,74.768,93.53,75.119,93.188,75.205z M88.353,75.73c-0.599,0.148-1.858,0.554-2.221,1.098
	c-0.064,0.106-0.15,0.219-0.118,0.347c0.219,0.875,1.265,0.979,1.99,0.798c0.704-0.176,1.095-1.794,1.148-2.396
	C88.891,75.619,88.609,75.666,88.353,75.73z"/>
<path fill="none" stroke="#FFFFFF" stroke-linecap="round" d="M110.569,62.073l-0.085,0.021c-1.148,0.127-2.296,0.437-3.427,0.718
	c-0.684,0.17-1.366,0.341-2.044,0.532c0.234,0.94,1.155,4.724,1.048,5.477c-0.043,0.282-0.193,0.5-0.471,0.569
	c-0.342,0.085-0.688-0.123-0.773-0.464c-0.016-0.064-0.016-0.155-0.01-0.224c0.043-0.736-0.676-3.62-0.884-4.453l-0.144-0.576
	c-0.533,0.133-1.084,0.293-1.617,0.426c0.059,0.234,0.102,0.497,0.139,0.736c0.207,1.104,0.393,2.216,0.664,3.305
	c0.075,0.298,0.154,0.618,0.299,0.923c0.011,0.043,0.043,0.08,0.053,0.122c0.08,0.32-0.144,0.694-0.464,0.774
	c-0.79,0.197-0.977-1.004-1.104-1.516c-0.276-1.112-0.473-2.264-0.686-3.39l-0.106-0.609c-1.441,0.405-2.872,0.853-4.276,1.316
	c-0.544,0.182-1.051,0.421-1.606,0.56l-0.085,0.021c-0.342,0.085-0.688-0.123-0.773-0.463c-0.08-0.32,0.097-0.614,0.385-0.731
	c0.39-0.166,0.833-0.299,1.249-0.448c0.939-0.326,1.911-0.612,2.882-0.9c2.595-0.783,5.227-1.507,7.852-2.162
	c0.833-0.208,2.957-0.783,3.769-0.803c0.314-0.011,0.582,0.149,0.661,0.469C111.093,61.624,110.911,61.988,110.569,62.073z
	 M99.755,66.901c-0.06,0.31-0.182,0.635-0.268,0.928c-0.508,1.51-1.347,3.24-2.586,4.273c-0.074,0.064-0.154,0.107-0.262,0.134
	c-0.342,0.085-0.672-0.149-0.752-0.47c-0.064-0.256,0.016-0.48,0.203-0.641c1.309-1.211,1.966-2.849,2.432-4.529
	c0.053-0.24,0.219-0.395,0.475-0.458c0.342-0.085,0.667,0.127,0.752,0.47C99.776,66.714,99.776,66.806,99.755,66.901z
	 M102.809,62.329c-0.298,0.075-0.555-0.043-0.709-0.3c-0.277-0.475-1.242-1.435-1.707-1.751c-0.139-0.101-0.234-0.213-0.277-0.384
	c-0.085-0.342,0.124-0.689,0.465-0.774c0.149-0.038,0.342,0.007,0.476,0.085c0.479,0.289,2.09,1.837,2.224,2.372
	C103.365,61.918,103.151,62.244,102.809,62.329z M112.417,77.032c-0.619,0.154-1.281,0.229-1.922,0.116
	c-0.592-0.102-1.211-0.311-1.781-0.508c-1.009-0.316-2.022-0.652-3.036-0.99c-0.993,1.473-2.206,3.159-3.61,4.257
	c-0.074,0.064-0.154,0.107-0.239,0.128c-0.342,0.086-0.688-0.123-0.774-0.465c-0.059-0.234,0.017-0.48,0.203-0.641
	c1.261-1.13,2.26-2.309,3.184-3.696c-0.348-0.117-2.311-0.716-2.497-0.829c-0.198,0.39-0.444,0.77-0.668,1.143
	c-0.08,0.133-0.235,0.24-0.384,0.277c-0.363,0.091-0.684-0.102-0.774-0.465c-0.042-0.17-0.011-0.314,0.065-0.469l0.603-1.035
	c0.529-0.881,1.036-1.756,1.587-2.642c0.31-0.485,0.631-1.019,0.999-1.45c0.106-0.118,0.203-0.187,0.353-0.224
	c0.299-0.075,0.592,0.101,0.726,0.363c0.646-0.14,3.187-0.683,3.729-0.499c0.246,0.074,0.396,0.219,0.454,0.453
	c0.037,0.15,0.021,0.267-0.038,0.395c-0.154,0.379-0.353,0.77-0.534,1.131c-0.523,1.084-1.101,2.135-1.704,3.169l2.716,0.888
	c0.517,0.166,1.088,0.364,1.633,0.455c0.47,0.064,0.955,0.012,1.403-0.101c0.342-0.085,0.672-0.213,0.977-0.356
	c0.038-0.032,0.102-0.048,0.145-0.059c0.342-0.086,0.688,0.123,0.773,0.465C114.188,76.591,112.928,76.904,112.417,77.032z
	 M104.26,71.242c-0.148,0.038-0.294,0.096-0.447,0.112c-0.434,0.629-0.813,1.29-1.213,1.958c0.848,0.219,1.696,0.529,2.539,0.818
	c0.673-1.121,1.277-2.246,1.849-3.409C106.07,70.859,105.157,71.02,104.26,71.242z M111.618,66.732
	c-0.214,0.053-0.357,0.021-0.529-0.118c-0.453-0.363-2.154-1.186-2.715-1.341c-0.246-0.074-0.416-0.213-0.48-0.47
	c-0.085-0.341,0.103-0.683,0.465-0.773c0.556-0.139,3.021,1.198,3.506,1.598c0.111,0.085,0.187,0.204,0.224,0.352
	C112.173,66.322,111.959,66.647,111.618,66.732z"/>
<path fill="none" stroke="#FFFFFF" stroke-linecap="round" d="M118.725,64.507c-0.172,0.043-0.268,0.021-0.418-0.033
	c-0.821-0.293-1.418-0.235-2.289-0.177c-0.314,0.01-0.592-0.192-0.666-0.492c-0.086-0.341,0.117-0.709,0.459-0.794l0.107-0.027
	c1.003-0.069,1.878-0.105,2.828,0.247c0.224,0.08,0.405,0.262,0.464,0.497C119.29,64.048,119.066,64.422,118.725,64.507z
	 M130.366,69.541c-0.241,0.309-0.492,0.667-0.785,0.944c-0.091,0.091-0.214,0.144-0.342,0.176c-0.363,0.091-0.71-0.118-0.795-0.46
	c-0.064-0.256,0.006-0.432,0.16-0.629c0.305-0.416,0.668-0.778,0.945-1.211c0.887-1.264,1.929-3.452,1.535-5.031
	c-0.346-1.388-1.061-1.89-2.47-1.539c-2.413,0.602-5.478,2.772-7.453,4.308c0.218,1.328,0.484,2.669,0.81,3.972
	c0.196,0.789,0.457,1.563,0.697,2.343l0.016,0.063c0.111,0.357-0.15,0.672-0.492,0.758c-0.341,0.085-0.613-0.098-0.757-0.401
	c-0.304-0.673-0.554-1.767-0.734-2.492c-0.271-1.089-0.506-2.21-0.714-3.314c-0.998,0.816-2.055,1.669-2.926,2.635
	c-0.106,0.116-0.197,0.207-0.369,0.249c-0.341,0.086-0.709-0.117-0.8-0.48c-0.053-0.213,0.001-0.362,0.113-0.549
	c0.314-0.555,3.177-2.901,3.743-3.359c-0.288-1.606-1.26-8.507-0.705-9.462c0.113-0.187,0.22-0.305,0.434-0.357
	c0.363-0.091,0.693,0.144,0.779,0.486c0.042,0.171,0.015,0.245-0.033,0.416c-0.283,0.956,0.523,6.832,0.699,7.989
	c2.008-1.497,4.938-3.476,7.373-4.083c2.135-0.532,3.532,0.345,4.069,2.501C132.897,65.146,131.605,67.872,130.366,69.541z"/>
<path fill="none" stroke="#FFFFFF" stroke-linecap="round" d="M142.241,64.245c-0.156,2.102-1.651,3.836-3.68,4.342
	c-1.409,0.351-2.861-0.376-3.223-1.828c-0.517-2.07,1.785-3.211,3.428-3.621c0.662-0.165,1.34-0.266,2.023-0.255
	c-0.432-1.276-2.928-2.921-4.241-3.002c-0.325-0.031-0.586-0.17-0.666-0.49c-0.079-0.32,0.032-0.508,0.257-0.7
	c0.533-0.495,1.944-3.841,2.068-4.619c-0.534-0.321-1.596-0.307-2.193-0.338c-0.32-0.012-0.571-0.198-0.651-0.519
	c-0.085-0.342,0.124-0.688,0.465-0.773c0.064-0.016,0.128-0.032,0.177-0.021c0.971-0.015,3.196,0.086,3.494,1.283
	c0.234,0.939-1.315,4.183-1.86,5.089c1.67,0.604,4.012,2.083,4.47,3.92c0.032,0.128,0.043,0.262,0.074,0.39
	c0.176,0.068,0.31,0.239,0.352,0.41C142.603,63.791,142.475,64.095,142.241,64.245z M139.059,64.402
	c-0.811,0.202-2.743,0.911-2.461,2.042c0.187,0.748,0.944,1.058,1.648,0.883c1.494-0.373,2.525-1.605,2.665-3.137
	C140.293,64.163,139.657,64.253,139.059,64.402z"/>
<path fill="none" stroke="#FFFFFF" stroke-linecap="round" d="M149.63,65.963c-0.193,0.048-0.385,0.005-0.551-0.113
	c-0.122,0.053-0.25,0.085-0.379,0.117c-1.003,0.25-2.353-0.071-2.635-1.203c-0.324-1.302,0.375-3.586,1.806-3.943
	c1.218-0.303,3.053,0.51,3.372,1.791C151.546,63.829,150.974,65.627,149.63,65.963z M148.19,62.103
	c-0.662,0.165-0.988,1.766-0.844,2.342c0.085,0.342,0.843,0.289,1.077,0.23c0.32-0.08,0.534-0.314,0.79-0.378
	c0.171-0.042,0.336-0.017,0.496,0.081c0.209-0.347,0.354-1.041,0.252-1.446C149.84,62.441,148.724,61.97,148.19,62.103z"/>
<path fill="#FFFFFF" d="M25.385,112.644c-0.956,1.349-1.773,2.8-2.495,4.272c-0.091,0.181-0.24,0.31-0.432,0.357
	c-0.32,0.08-0.694-0.145-0.773-0.465c-0.032-0.128-0.021-0.268,0.037-0.396c0.342-0.901,2.052-3.776,2.655-4.539
	c0.086-0.112,0.203-0.187,0.353-0.224c0.342-0.086,0.688,0.123,0.773,0.464C25.551,112.307,25.503,112.479,25.385,112.644z
	 M27.368,114.868c-0.101,0.321-0.314,0.647-0.47,0.935c-0.4,0.758-0.823,1.52-1.25,2.262c0.506,2.119,0.91,4.287,1.331,6.426
	c0.164,0.753,0.309,1.511,0.445,2.248c0.054,0.303,0.139,0.646,0.165,0.934c0.026,0.379-0.139,0.624-0.522,0.72
	c-0.3,0.075-0.662-0.198-0.71-0.48l-0.011-0.043c-0.569-2.737-1.032-5.503-1.622-8.235c-0.369,0.614-0.871,1.51-1.347,2.059
	c-0.106,0.118-0.203,0.188-0.352,0.225c-0.32,0.079-0.668-0.129-0.748-0.449c-0.059-0.235,0.001-0.361,0.113-0.55l0.667-0.96
	c0.614-0.991,1.208-1.979,1.79-3.008c0.348-0.608,0.694-1.217,1.015-1.842l0.358-0.746c0.112-0.188,0.197-0.299,0.411-0.352
	c0.342-0.086,0.688,0.123,0.769,0.443C27.444,114.623,27.423,114.719,27.368,114.868z M41.958,124.906
	c-1.687,0.42-5.262-0.639-6.894-1.185c-1.282,1.499-2.703,2.987-4.427,3.983c-0.059,0.038-0.08,0.044-0.145,0.06
	c-0.342,0.085-0.684-0.103-0.769-0.443c-0.074-0.3,0.065-0.561,0.3-0.71c0.256-0.154,0.496-0.283,0.726-0.453
	c1.138-0.805,2.126-1.846,3.044-2.891c-0.971-0.347-1.932-0.743-2.859-1.192c-0.348,0.427-1.789,2.192-2.259,2.31
	c-0.32,0.08-0.683-0.102-0.763-0.422c-0.064-0.256,0.017-0.479,0.197-0.662c1.239-1.215,2.195-2.384,3.199-3.813
	c0.336-0.47,0.619-0.971,0.957-1.439c0.096-0.161,0.191-0.23,0.384-0.279c0.405-0.101,0.769,0.172,0.778,0.577
	c0.566-0.095,4.169-0.653,4.659-0.503c0.224,0.08,0.411,0.191,0.47,0.428c0.037,0.148,0,0.271-0.032,0.416
	c-0.225,0.736-2.121,3.316-2.634,3.988c1.804,0.594,3.938,1.242,5.849,0.992c0.373-0.047,0.646,0.133,0.735,0.496
	C42.561,124.506,42.278,124.826,41.958,124.906z M39.262,116.824c-0.234,0.059-0.432-0.006-0.608-0.165
	c-0.411-0.374-0.789-0.802-1.157-1.186c-1.553,0.682-3.182,1.247-4.782,1.827c-1.147,0.399-2.328,0.852-3.502,1.145
	c-0.342,0.086-0.683-0.102-0.769-0.443c-0.053-0.213-0.01-0.404,0.129-0.576c1.159-1.445,2.211-2.955,3.29-4.449
	c-0.972,0.107-1.937,0.234-2.919,0.389c-0.326,0.059-0.667-0.128-0.753-0.47c-0.048-0.192,0.001-0.362,0.118-0.529
	c0.411-0.623,0.854-1.21,1.267-1.834c0.55-0.795,1.068-1.628,1.613-2.444c0.096-0.159,0.208-0.256,0.378-0.299
	c0.342-0.084,0.689,0.125,0.769,0.445c0.048,0.191,0.011,0.313-0.064,0.469c-0.198,0.39-0.491,0.759-0.716,1.131l-1.389,2.069
	c0.726-0.09,1.479-0.164,2.209-0.232l0.838-0.097c0.337-0.015,0.608,0.166,0.688,0.486c0.059,0.236-0.032,0.416-0.171,0.588
	c-0.711,0.789-1.304,1.685-1.906,2.538l-1.042,1.462c1.942-0.666,3.875-1.373,5.771-2.142c-0.246-0.257-1.44-1.409-1.51-1.688
	c-0.08-0.32,0.123-0.688,0.465-0.771c0.235-0.059,0.438,0.026,0.613,0.187c0.235,0.214,0.433,0.459,0.646,0.679
	c0.485,0.49,0.95,0.986,1.43,1.457l0.976,1.004l0.395,0.4c0.064,0.074,0.112,0.177,0.139,0.283
	C39.792,116.398,39.604,116.739,39.262,116.824z M33.492,119.602c-0.262,0.043-0.55,0.069-0.806,0.133l-0.962,1.328
	c0.949,0.443,1.926,0.812,2.902,1.182c0.796-0.992,1.533-2.038,2.222-3.095C35.722,119.271,34.607,119.437,33.492,119.602z"/>
<path fill="#FFFFFF" d="M42.024,116.544c-0.086,0.111-0.225,0.191-0.353,0.224c-0.342,0.085-0.662-0.106-0.747-0.447
	c-0.048-0.192-0.021-0.358,0.097-0.523c0.539-0.839,1.191-2.86,1.262-3.853c0.021-0.277,0.188-0.522,0.486-0.597
	c0.32-0.08,0.667,0.127,0.752,0.469C43.714,112.584,42.548,115.916,42.024,116.544z M47.634,122.765
	c0.086,0.341-0.08,0.678-0.443,0.769c-0.64,0.16-0.768-0.443-0.885-0.913c-0.543-2.178-0.984-4.403-1.469-6.618
	c-0.559-2.605-1.096-5.216-1.734-7.776c-0.107-0.428-0.256-0.845-0.357-1.25c-0.085-0.341,0.129-0.667,0.471-0.752
	c0.32-0.08,0.587,0.081,0.725,0.364c0.182,0.363,0.268,0.887,0.368,1.291C45.538,112.811,46.404,117.833,47.634,122.765z
	 M48.622,112.541c-0.148,0.037-0.266,0.021-0.416-0.032c-0.368-0.112-1.605-0.349-1.969-0.349c-0.314,0.011-0.587-0.171-0.662-0.471
	c-0.084-0.341,0.124-0.688,0.466-0.772c0.362-0.091,2.407,0.284,2.748,0.471c0.154,0.075,0.261,0.23,0.298,0.38
	C49.173,112.108,48.964,112.456,48.622,112.541z M60.763,112.303c-0.769,0.191-1.511,0.4-2.274,0.611
	c0.149,1.053,0.304,2.125,0.367,3.198c0.299-0.074,0.613-0.176,0.912-0.25c0.491-0.122,1.612-0.538,1.805,0.23
	c0.079,0.32-0.124,0.688-0.444,0.767c-0.405,0.102-0.822,0.161-1.228,0.262c-0.32,0.08-0.656,0.188-0.977,0.267
	c0.063,1.526-0.082,3.581-1.897,4.033c-0.299,0.074-0.683-0.102-0.763-0.422c-0.09-0.363,0.086-0.656,0.438-0.79
	c0.994-0.383,0.983-1.605,0.99-2.492c-1.292,0.368-2.579,0.757-3.859,1.167c-0.795,0.267-1.591,0.532-2.365,0.884
	c-0.016,0.027-0.059,0.039-0.102,0.049c-0.362,0.091-0.693-0.145-0.778-0.486c-0.102-0.406-0.128-0.875-0.187-1.292
	c-0.105-0.88-0.164-1.751-0.249-2.636c-0.694,0.219-1.937,0.597-2.556,0.932c-0.06,0.037-0.081,0.043-0.146,0.059
	c-0.32,0.08-0.672-0.149-0.752-0.47c-0.069-0.277,0.069-0.539,0.326-0.693c0.63-0.384,2.322-0.874,3.053-1.124
	c-0.073-1.115-0.194-2.786-0.082-3.88c-0.021-0.085,0.117-0.255,0.144-0.331l0.15-0.128l0.042-0.011
	c1.597-0.692,3.251-1.15,4.938-1.571c0.555-0.138,1.152-0.287,1.718-0.383c0.325-0.06,0.64,0.112,0.72,0.433
	c0.277,1.11,0.431,2.273,0.602,3.411c0.721-0.202,1.425-0.378,2.15-0.56c0.32-0.08,0.684,0.102,0.769,0.443
	C61.313,111.87,61.104,112.217,60.763,112.303z M57.346,106.057c-1.281,0.32-2.552,0.682-3.821,1.043
	c-1.243,0.379-2.503,0.783-3.688,1.306c-0.021,0.006-0.08,0.043-0.102,0.048c-0.342,0.086-0.688-0.123-0.773-0.465
	c-0.021-0.086-0.016-0.154-0.016-0.244c0.054-0.513,0.027-1.073,0.012-1.592c-0.032-0.762-0.043-1.531-0.121-2.305
	c-0.037-0.33,0.08-0.678,0.443-0.769c0.342-0.085,0.688,0.123,0.773,0.466c0.159,0.641,0.158,2.636,0.157,3.361
	c2.221-0.826,4.548-1.496,6.833-2.066c0.341-0.085,0.683,0.102,0.768,0.443C57.897,105.625,57.688,105.972,57.346,106.057z
	 M51.207,110.717c-0.001,0.998,0.041,1.986,0.11,2.988l2.209-0.687l-0.137-3.005C52.647,110.223,51.906,110.43,51.207,110.717z
	 M51.39,115.003c0.074,1.114,0.17,2.226,0.308,3.325c0.699-0.288,1.394-0.507,2.103-0.752c-0.089-1.089-0.152-2.161-0.222-3.255
	L51.39,115.003z M54.639,109.657l0.115,3.011c0.778-0.24,1.542-0.453,2.327-0.672c-0.145-0.939-0.314-1.895-0.479-2.828
	L54.639,109.657z M54.823,113.943l0.201,3.261c0.864-0.262,1.729-0.521,2.599-0.763c-0.085-1.066-0.19-2.129-0.345-3.202
	L54.823,113.943z"/>
<path fill="#FFFFFF" d="M67.825,117.437c-0.064,0.016-0.198,0.026-0.268,0.021c-2.834-0.358-4.063-4.475-4.644-6.802
	c-0.49-1.964-0.825-3.944-1.112-5.913l-0.271-1.815c-0.054-0.304-0.112-0.629-0.144-0.939c-0.021-0.356,0.155-0.65,0.496-0.735
	c0.342-0.086,0.736,0.134,0.801,0.48l0.016,0.064c0.548,2.834,0.818,5.737,1.516,8.533c0.41,1.645,1.241,4.613,2.766,5.547
	c0.268,0.16,0.481,0.198,0.774,0.284c0.272,0.09,0.48,0.197,0.556,0.496C68.396,116.999,68.166,117.352,67.825,117.437z"/>
<path fill="#FFFFFF" d="M76.207,100.765c-0.684,0.17-1.372,0.229-2.071,0.244c-0.567,2.636-1.963,7.135-3.593,9.241
	c-0.085,0.112-0.224,0.192-0.352,0.225c-0.363,0.09-0.71-0.118-0.8-0.481c-0.049-0.192,0-0.363,0.117-0.528
	c1.613-2.354,2.693-5.751,3.314-8.537c-0.491-0.059-1.078-0.139-1.537-0.342c-0.203-0.086-0.352-0.229-0.405-0.442
	c-0.085-0.342,0.118-0.71,0.46-0.796c0.149-0.037,0.245-0.016,0.367,0.021c0.465,0.134,0.896,0.23,1.366,0.295
	c0.091-0.453,0.038-1.121,0.594-1.259c0.341-0.085,0.688,0.122,0.768,0.442c0.048,0.193-0.017,0.661-0.06,0.854
	c0.519-0.017,1.047-0.079,1.538-0.202c0.662-0.164,1.189-0.41,1.718-0.837c0.097-0.069,0.177-0.111,0.284-0.138
	c0.341-0.086,0.688,0.123,0.773,0.464C78.907,99.865,76.846,100.605,76.207,100.765z M83.403,111.986
	c-0.32,0.08-0.587-0.079-0.746-0.357c-0.438-0.752-0.816-1.27-1.632-1.634c0.329,1.959-0.334,3.847-2.427,4.369
	c-1.686,0.421-2.887-0.664-3.28-2.243c-0.458-1.837,0.983-3.239,2.649-3.654c0.427-0.106,0.87-0.148,1.324-0.148
	c-0.304-1.309-1.018-4.531-0.125-5.684c0.106-0.117,0.197-0.207,0.369-0.25c0.341-0.086,0.688,0.123,0.772,0.465
	c0.054,0.213,0.016,0.336-0.097,0.522c-0.582,1.029,0.169,4.039,0.44,5.128c1.425,0.348,2.534,1.252,3.179,2.564
	c0.01,0.043,0.043,0.08,0.054,0.122C83.969,111.528,83.745,111.901,83.403,111.986z M78.282,109.726
	c-0.939,0.234-1.98,0.971-1.704,2.081c0.213,0.854,0.726,1.543,1.707,1.299c1.729-0.432,1.677-2.098,1.331-3.484
	C79.178,109.594,78.708,109.619,78.282,109.726z M83.794,102.819c-0.214,0.054-1.543-0.183-1.99-0.162
	c-0.315,0.011-0.63-0.159-0.71-0.479c-0.085-0.343,0.118-0.71,0.46-0.795c0.342-0.086,1.969,0.075,2.294,0.198
	c0.203,0.085,0.374,0.225,0.433,0.459C84.37,102.403,84.156,102.729,83.794,102.819z"/>
<path fill="#FFFFFF" d="M94.26,105.244c-0.422,0.581-1.741,1.477-2.424,1.646c-0.918,0.229-2.192-1.153-2.721-1.725
	c-0.586-0.625-2.245-2.638-2.442-3.428c-0.085-0.342,0.14-0.715,0.481-0.8c0.32-0.08,0.608,0.075,0.769,0.353
	c0.202,0.357,0.404,0.715,0.629,1.067c0.527,0.752,2.234,2.867,3.05,3.231c0.566-0.188,1.218-0.758,1.634-1.18
	c0.107-0.117,0.203-0.187,0.354-0.224c0.362-0.091,0.715,0.14,0.8,0.481C94.441,104.881,94.398,105.072,94.26,105.244z
	 M103.751,100.928c-0.342,0.085-0.721-0.161-0.806-0.502c-0.026-0.107-0.026-0.197-0.005-0.294c0.091-0.453,0.049-0.897-0.063-1.345
	c-0.117-0.471-0.399-1.239-0.805-1.5c-0.159-0.096-0.261-0.23-0.31-0.423c-0.085-0.341,0.145-0.692,0.486-0.778
	c0.961-0.238,1.739,1.699,1.909,2.381C104.302,99.043,104.561,100.725,103.751,100.928z"/>
<path fill="#FFFFFF" d="M116.481,91.879c-0.47,0.117-0.929,0.187-1.398,0.304c-2.52,0.628-5.033,1.369-7.494,2.232
	c-0.438,0.153-0.881,0.378-1.318,0.533l-0.128,0.032c-0.341,0.084-0.678-0.082-0.763-0.424c-0.074-0.299,0.086-0.564,0.342-0.72
	c0.534-0.314,1.34-0.537,1.928-0.729c2.343-0.788,4.729-1.497,7.119-2.094c0.47-0.117,0.993-0.292,1.463-0.318
	c0.331-0.037,0.613,0.097,0.699,0.438C117.015,91.475,116.802,91.8,116.481,91.879z M115.452,98.215
	c-0.598,0.148-1.211,0.323-1.803,0.494l0.244,0.982c0.341,1.365,0.66,2.737,0.937,4.119c0.122,0.583,0.373,1.494,0.384,2.082
	c0.005,0.293-0.172,0.588-0.471,0.662c-0.32,0.08-2.145-0.146-2.476-0.289c-0.203-0.086-0.347-0.209-0.4-0.422
	c-0.08-0.32,0.129-0.668,0.449-0.747c0.191-0.048,1.275,0.202,1.553,0.225c-0.33-1.777-0.724-3.539-1.161-5.29l-0.239-0.961
	c-0.485,0.145-0.987,0.314-1.462,0.502c-0.037,0.305-0.192,0.501-0.471,0.57c-0.32,0.08-0.613-0.098-0.736-0.406
	c-0.111-0.267-0.17-0.592-0.238-0.869c-0.182-0.636-0.336-1.256-0.496-1.896l-0.373-1.494c-0.079-0.32,0.081-0.677,0.423-0.762
	s0.662,0.107,0.769,0.443c1.014-0.48,2.15-0.831,3.239-1.103c0.491-0.122,1.746-0.55,1.938,0.22c0.224,0.896,0.324,1.846,0.44,2.77
	c0.198,0.064,0.348,0.209,0.4,0.422C115.981,97.787,115.772,98.135,115.452,98.215z M109.47,106.146
	c-0.341,0.085-0.667-0.13-0.747-0.45c-0.063-0.257,0.022-0.458,0.209-0.618c0.662-0.618,1.955-3.073,2.228-3.98
	c0.081-0.225,0.219-0.395,0.454-0.453c0.32-0.08,0.667,0.129,0.747,0.449C112.531,101.776,110.176,105.971,109.47,106.146z
	 M111.017,91.338c-0.257,0.063-0.528-0.027-0.673-0.242c-0.213-0.309-0.943-1.6-1.023-1.92c-0.085-0.342,0.129-0.668,0.449-0.748
	c0.341-0.086,0.613,0.097,0.736,0.406c0.186,0.476,0.89,1.479,0.959,1.757C111.546,90.911,111.338,91.258,111.017,91.338z
	 M113.405,95.277c-1.025,0.255-2.284,0.569-3.219,1.098l0.501,2.007c1.157-0.447,2.386-0.8,3.598-1.123
	c-0.063-0.71-0.175-1.432-0.304-2.126L113.405,95.277z M117.429,102.597c-0.256,0.063-0.485-0.038-0.65-0.247
	c-0.362-0.453-1.354-1.249-1.841-1.649c-0.111-0.087-0.186-0.202-0.218-0.331c-0.08-0.32,0.128-0.667,0.448-0.747
	c0.192-0.048,0.362,0.001,0.528,0.118c0.39,0.289,2.064,1.73,2.16,2.115C117.931,102.154,117.75,102.517,117.429,102.597z
	 M123.589,92.92c-1.174,0.292-2.359,0.633-3.522,0.968c0.212,2.851,0.39,8.566-0.76,11.144c-0.091,0.181-0.24,0.31-0.432,0.357
	c-0.32,0.08-0.662-0.107-0.747-0.449c-0.032-0.127-0.011-0.225,0.026-0.347c1.032-2.956,0.896-7.231,0.706-10.358
	c-0.779,0.24-1.5,0.352-2.221,0.736c-0.038,0.031-0.08,0.041-0.123,0.053c-0.342,0.084-0.645-0.135-0.725-0.455
	c-0.074-0.299,0.048-0.533,0.305-0.688c0.672-0.394,1.899-0.655,2.679-0.895l-0.243-2.252c-0.032-0.311,0.117-0.619,0.438-0.699
	c0.342-0.085,0.683,0.102,0.768,0.443c0.139,0.555,0.187,1.563,0.239,2.141c1.126-0.304,2.247-0.628,3.378-0.91
	c0.428-0.106,0.854-0.123,0.988,0.41C124.48,92.676,123.995,92.818,123.589,92.92z M122.507,89.946
	c-0.191,0.048-0.378,0.027-0.549-0.112c-0.624-0.502-1.273-2.018-1.46-2.765c-0.08-0.32,0.133-0.646,0.453-0.726
	s0.614,0.096,0.71,0.39c0.219,0.604,0.592,1.734,1.082,2.156c0.091,0.092,0.16,0.188,0.197,0.337
	C123.02,89.547,122.827,89.867,122.507,89.946z M126.792,99.31c-0.14,1.259-0.877,3.303-2.243,3.644l-0.064,0.016
	c-1.559,0.389-2.661-2.942-3.022-3.94c-0.347-0.934-0.522-1.366-0.826-2.311c-0.038-0.15-0.096-0.294-0.133-0.442
	c-0.075-0.301,0.053-0.694,0.395-0.779c0.363-0.091,0.652,0.063,0.785,0.416c0.053,0.123,0.096,0.293,0.127,0.422
	c0.367,1.2,1.561,4.895,2.441,5.423c0.245-0.106,0.485-0.416,0.63-0.655c0.673-1.029,0.86-2.369,0.563-3.564
	c-0.08-0.32,0.128-0.668,0.448-0.747c0.342-0.085,0.662,0.107,0.748,0.448C126.809,97.922,126.846,98.616,126.792,99.31z"/>
<path fill="#FFFFFF" d="M130.697,87.338c-0.148,0.037-0.288,0.026-0.415-0.032c-0.801-0.3-1.75-0.38-2.609-0.461
	c-0.278-0.021-0.48-0.198-0.55-0.476c-0.085-0.342,0.097-0.703,0.438-0.788c0.427-0.106,2.779,0.325,3.243,0.55
	c0.183,0.092,0.311,0.241,0.358,0.434C131.253,86.928,131.039,87.253,130.697,87.338z M131.026,91.927
	c-0.833,0.39-1.799,0.698-2.696,0.921c-0.384,0.096-0.939,0.145-1.067-0.368c-0.09-0.363,0.086-0.747,0.477-0.821l0.32-0.08
	c0.832-0.207,1.67-0.484,2.471-0.82l0.107-0.026c0.342-0.085,0.666,0.128,0.752,0.47C131.464,91.5,131.309,91.789,131.026,91.927z
	 M134.144,96.887c-0.433,0.901-3.595,4.865-4.448,5.078c-0.32,0.08-0.683-0.104-0.768-0.443c-0.069-0.277,0.053-0.513,0.283-0.684
	c1.035-0.757,3.118-3.408,3.785-4.55c0.097-0.16,0.225-0.282,0.396-0.325c0.363-0.09,0.716,0.139,0.801,0.48
	C134.23,96.592,134.203,96.759,134.144,96.887z M144.92,86.898c-0.683,0.17-1.398,0.303-2.081,0.474
	c-1.11,0.276-2.236,0.58-3.336,0.899c0.303,1.217,0.569,2.465,0.873,3.684c0.901-0.294,1.825-0.592,2.743-0.82
	c0.513-0.128,1.2-0.367,1.382,0.357c0.133,0.535,0.207,1.105,0.298,1.648c0.218,1.24,0.415,2.482,0.547,3.742
	c0.406-0.102,0.859-0.1,0.987,0.412c0.085,0.342-0.149,0.672-0.47,0.752c-1.538,0.383-3.085,0.815-4.597,1.305
	c-0.965,0.309-1.995,0.633-2.925,1.092c-0.059,0.037-0.08,0.043-0.144,0.059c-0.32,0.08-0.587-0.08-0.747-0.358
	c-0.224-0.442-0.415-1.21-0.538-1.702c-0.34-1.184-0.666-2.396-0.964-3.592c-0.106-0.427-0.276-0.929-0.318-1.371
	c-0.037-0.332,0.117-0.62,0.459-0.705c0.384-0.096,0.715,0.139,0.806,0.502c0.005,0.021-0.006,0.07,0.005,0.112
	c0.149-0.218,1.959-0.874,2.269-0.996c-0.309-1.238-0.58-2.509-0.889-3.747c-1.729,0.522-3.586,1.076-5.172,1.992
	c-0.059,0.038-0.123,0.054-0.188,0.07c-0.342,0.085-0.688-0.125-0.773-0.465c-0.068-0.277,0.055-0.513,0.283-0.684
	c1.063-0.741,4.255-1.764,5.563-2.158c-0.245-0.98-0.447-1.701-0.692-2.685c-0.08-0.32,0.054-0.694,0.417-0.784
	c0.363-0.091,0.656,0.086,0.789,0.438c0.309,0.876,0.484,1.761,0.709,2.658c1.163-0.337,2.332-0.649,3.506-0.942
	c0.619-0.154,1.292-0.367,1.933-0.437c0.373-0.048,0.656,0.177,0.747,0.539C145.48,86.509,145.219,86.824,144.92,86.898z
	 M140.947,82.424c-0.353,0.133-0.715,0.224-1.046,0.352c-1.73,0.612-3.795,1.332-5.35,2.285c-0.059,0.039-0.16,0.086-0.224,0.102
	c-0.341,0.085-0.688-0.123-0.773-0.465c-0.069-0.277,0.032-0.507,0.241-0.671c0.864-0.716,5.583-2.526,6.778-2.825
	c0.32-0.08,0.716,0.048,0.806,0.411C141.47,81.976,141.3,82.29,140.947,82.424z M139.708,93.55
	c-0.689,0.239-1.463,0.501-2.099,0.863c-0.059,0.037-0.096,0.069-0.181,0.091c-0.086,0.021-0.177,0.021-0.252-0.005
	c0.378,1.515,0.783,3.048,1.246,4.54c1.837-0.729,3.779-1.304,5.69-1.826c-0.196-1.606-0.44-3.223-0.728-4.83
	C142.151,92.714,140.913,93.113,139.708,93.55z"/>
<path fill="#FFFFFF" d="M154.825,82.797c-0.341,0.084-0.693,0.126-1.035,0.211c-0.727,0.182-1.441,0.406-2.156,0.63
	c-0.113,1.365-0.317,2.731-0.568,4.087c0.635-0.09,1.291-0.096,1.942-0.03c0.272-0.454,1.138-1.895,1.65-2.022
	c0.362-0.09,0.726,0.091,0.815,0.454c0.064,0.257-0.016,0.481-0.197,0.662c-0.342,0.357-0.625,0.769-0.902,1.2
	c0.518,0.164,1.676,0.625,1.818,1.201c0.097,0.385-0.117,0.71-0.48,0.801c-0.234,0.059-0.453,0-0.63-0.16
	c-0.404-0.354-0.886-0.551-1.392-0.674c-0.508,0.967-1.459,3.063-1.183,4.172c0.149,0.598,0.849,0.492,1.317,0.375
	c0.834-0.207,1.954-0.714,2.659-1.161c0.117-0.075,0.256-0.155,0.405-0.192c0.363-0.091,0.694,0.145,0.779,0.486
	c0.069,0.277-0.055,0.603-0.315,0.736c-1.03,0.506-2.013,1.113-3.145,1.396c-1.237,0.309-2.62,0.133-2.981-1.319
	c-0.347-1.388,0.482-3.432,1.08-4.669c-0.709-0.027-1.296,0.073-1.958,0.238c-0.363,0.091-0.731-0.112-0.816-0.454
	c-0.042-0.171-0.011-0.314,0.042-0.464c0.332-0.943,0.574-3.159,0.682-4.183c-0.561,0.207-1.121,0.415-1.649,0.66l-0.604,0.309
	c-0.043,0.011-0.123,0.054-0.165,0.064c-0.342,0.085-0.715-0.141-0.801-0.48c-0.074-0.299,0.08-0.587,0.337-0.742
	c0.892-0.517,2.045-0.895,2.999-1.246c0.033-0.508,0.044-1.008-0.036-1.512c-0.048-0.373,0.15-0.672,0.513-0.762
	c0.385-0.096,0.705,0.188,0.79,0.527c0.101,0.408,0.085,0.888,0.073,1.299c0.588-0.192,1.181-0.362,1.778-0.512
	c0.555-0.138,1.596-0.512,1.793,0.279C155.37,82.342,155.167,82.711,154.825,82.797z"/>
<path fill="#FFFFFF" d="M161.615,77.747c0.569,3.01,1.218,6.249,1.964,9.239c0.079,0.32-0.14,0.715-0.48,0.8
	c-0.641,0.159-0.807-0.412-0.924-0.881c-0.489-1.965-0.888-3.929-1.313-5.908c-0.197-0.882-0.484-2.216-0.564-3.08
	c-0.036-0.331,0.161-0.63,0.503-0.716c0.383-0.096,0.709,0.119,0.799,0.481L161.615,77.747z M165.015,93.748
	c-0.918,0.229-1.354-1.793-1.647-2.969c-0.085-0.342,0.14-0.714,0.481-0.799c1.088-0.271,0.911,1.836,1.551,2.765
	c0.037,0.06,0.079,0.139,0.101,0.224C165.592,93.332,165.378,93.658,165.015,93.748z"/>
<path fill="none" stroke="#FFFFFF" stroke-linecap="round" d="M25.385,112.644c-0.956,1.349-1.773,2.8-2.495,4.272
	c-0.091,0.181-0.24,0.31-0.432,0.357c-0.32,0.08-0.694-0.145-0.773-0.465c-0.032-0.128-0.021-0.268,0.037-0.396
	c0.342-0.901,2.052-3.776,2.655-4.539c0.086-0.112,0.203-0.187,0.353-0.224c0.342-0.086,0.688,0.123,0.773,0.464
	C25.551,112.307,25.503,112.479,25.385,112.644z M27.368,114.868c-0.101,0.321-0.314,0.647-0.47,0.935
	c-0.4,0.758-0.823,1.52-1.25,2.262c0.506,2.119,0.91,4.287,1.331,6.426c0.164,0.753,0.309,1.511,0.445,2.248
	c0.054,0.303,0.139,0.646,0.165,0.934c0.026,0.379-0.139,0.624-0.522,0.72c-0.3,0.075-0.662-0.198-0.71-0.48l-0.011-0.043
	c-0.569-2.737-1.032-5.503-1.622-8.235c-0.369,0.614-0.871,1.51-1.347,2.059c-0.106,0.118-0.203,0.188-0.352,0.225
	c-0.32,0.079-0.668-0.129-0.748-0.449c-0.059-0.235,0.001-0.361,0.113-0.55l0.667-0.96c0.614-0.991,1.208-1.979,1.79-3.008
	c0.348-0.608,0.694-1.217,1.015-1.842l0.358-0.746c0.112-0.188,0.197-0.299,0.411-0.352c0.342-0.086,0.688,0.123,0.769,0.443
	C27.444,114.623,27.423,114.719,27.368,114.868z M41.958,124.906c-1.687,0.42-5.262-0.639-6.894-1.185
	c-1.282,1.499-2.703,2.987-4.427,3.983c-0.059,0.038-0.08,0.044-0.145,0.06c-0.342,0.085-0.684-0.103-0.769-0.443
	c-0.074-0.3,0.065-0.561,0.3-0.71c0.256-0.154,0.496-0.283,0.726-0.453c1.138-0.805,2.126-1.846,3.044-2.891
	c-0.971-0.347-1.932-0.743-2.859-1.192c-0.348,0.427-1.789,2.192-2.259,2.31c-0.32,0.08-0.683-0.102-0.763-0.422
	c-0.064-0.256,0.017-0.479,0.197-0.662c1.239-1.215,2.195-2.384,3.199-3.813c0.336-0.47,0.619-0.971,0.957-1.439
	c0.096-0.161,0.191-0.23,0.384-0.279c0.405-0.101,0.769,0.172,0.778,0.577c0.566-0.095,4.169-0.653,4.659-0.503
	c0.224,0.08,0.411,0.191,0.47,0.428c0.037,0.148,0,0.271-0.032,0.416c-0.225,0.736-2.121,3.316-2.634,3.988
	c1.804,0.594,3.938,1.242,5.849,0.992c0.373-0.047,0.646,0.133,0.735,0.496C42.561,124.506,42.278,124.826,41.958,124.906z
	 M39.262,116.824c-0.234,0.059-0.432-0.006-0.608-0.165c-0.411-0.374-0.789-0.802-1.157-1.186c-1.553,0.682-3.182,1.247-4.782,1.827
	c-1.147,0.399-2.328,0.852-3.502,1.145c-0.342,0.086-0.683-0.102-0.769-0.443c-0.053-0.213-0.01-0.404,0.129-0.576
	c1.159-1.445,2.211-2.955,3.29-4.449c-0.972,0.107-1.937,0.234-2.919,0.389c-0.326,0.059-0.667-0.128-0.753-0.47
	c-0.048-0.192,0.001-0.362,0.118-0.529c0.411-0.623,0.854-1.21,1.267-1.834c0.55-0.795,1.068-1.628,1.613-2.444
	c0.096-0.159,0.208-0.256,0.378-0.299c0.342-0.084,0.689,0.125,0.769,0.445c0.048,0.191,0.011,0.313-0.064,0.469
	c-0.198,0.39-0.491,0.759-0.716,1.131l-1.389,2.069c0.726-0.09,1.479-0.164,2.209-0.232l0.838-0.097
	c0.337-0.015,0.608,0.166,0.688,0.486c0.059,0.236-0.032,0.416-0.171,0.588c-0.711,0.789-1.304,1.685-1.906,2.538l-1.042,1.462
	c1.942-0.666,3.875-1.373,5.771-2.142c-0.246-0.257-1.44-1.409-1.51-1.688c-0.08-0.32,0.123-0.688,0.465-0.771
	c0.235-0.059,0.438,0.026,0.613,0.187c0.235,0.214,0.433,0.459,0.646,0.679c0.485,0.49,0.95,0.986,1.43,1.457l0.976,1.004l0.395,0.4
	c0.064,0.074,0.112,0.177,0.139,0.283C39.792,116.398,39.604,116.739,39.262,116.824z M33.492,119.602
	c-0.262,0.043-0.55,0.069-0.806,0.133l-0.962,1.328c0.949,0.443,1.926,0.812,2.902,1.182c0.796-0.992,1.533-2.038,2.222-3.095
	C35.722,119.271,34.607,119.437,33.492,119.602z"/>
<path fill="none" stroke="#FFFFFF" stroke-linecap="round" d="M42.024,116.544c-0.086,0.111-0.225,0.191-0.353,0.224
	c-0.342,0.085-0.662-0.106-0.747-0.447c-0.048-0.192-0.021-0.358,0.097-0.523c0.539-0.839,1.191-2.86,1.262-3.853
	c0.021-0.277,0.188-0.522,0.486-0.597c0.32-0.08,0.667,0.127,0.752,0.469C43.714,112.584,42.548,115.916,42.024,116.544z
	 M47.634,122.765c0.086,0.341-0.08,0.678-0.443,0.769c-0.64,0.16-0.768-0.443-0.885-0.913c-0.543-2.178-0.984-4.403-1.469-6.618
	c-0.559-2.605-1.096-5.216-1.734-7.776c-0.107-0.428-0.256-0.845-0.357-1.25c-0.085-0.341,0.129-0.667,0.471-0.752
	c0.32-0.08,0.587,0.081,0.725,0.364c0.182,0.363,0.268,0.887,0.368,1.291C45.538,112.811,46.404,117.833,47.634,122.765z
	 M48.622,112.541c-0.148,0.037-0.266,0.021-0.416-0.032c-0.368-0.112-1.605-0.349-1.969-0.349c-0.314,0.011-0.587-0.171-0.662-0.471
	c-0.084-0.341,0.124-0.688,0.466-0.772c0.362-0.091,2.407,0.284,2.748,0.471c0.154,0.075,0.261,0.23,0.298,0.38
	C49.173,112.108,48.964,112.456,48.622,112.541z M60.763,112.303c-0.769,0.191-1.511,0.4-2.274,0.611
	c0.149,1.053,0.304,2.125,0.367,3.198c0.299-0.074,0.613-0.176,0.912-0.25c0.491-0.122,1.612-0.538,1.805,0.23
	c0.079,0.32-0.124,0.688-0.444,0.767c-0.405,0.102-0.822,0.161-1.228,0.262c-0.32,0.08-0.656,0.188-0.977,0.267
	c0.063,1.526-0.082,3.581-1.897,4.033c-0.299,0.074-0.683-0.102-0.763-0.422c-0.09-0.363,0.086-0.656,0.438-0.79
	c0.994-0.383,0.983-1.605,0.99-2.492c-1.292,0.368-2.579,0.757-3.859,1.167c-0.795,0.267-1.591,0.532-2.365,0.884
	c-0.016,0.027-0.059,0.039-0.102,0.049c-0.362,0.091-0.693-0.145-0.778-0.486c-0.102-0.406-0.128-0.875-0.187-1.292
	c-0.105-0.88-0.164-1.751-0.249-2.636c-0.694,0.219-1.937,0.597-2.556,0.932c-0.06,0.037-0.081,0.043-0.146,0.059
	c-0.32,0.08-0.672-0.149-0.752-0.47c-0.069-0.277,0.069-0.539,0.326-0.693c0.63-0.384,2.322-0.874,3.053-1.124
	c-0.073-1.115-0.194-2.786-0.082-3.88c-0.021-0.085,0.117-0.255,0.144-0.331l0.15-0.128l0.042-0.011
	c1.597-0.692,3.251-1.15,4.938-1.571c0.555-0.138,1.152-0.287,1.718-0.383c0.325-0.06,0.64,0.112,0.72,0.433
	c0.277,1.11,0.431,2.273,0.602,3.411c0.721-0.202,1.425-0.378,2.15-0.56c0.32-0.08,0.684,0.102,0.769,0.443
	C61.313,111.87,61.104,112.217,60.763,112.303z M57.346,106.057c-1.281,0.32-2.552,0.682-3.821,1.043
	c-1.243,0.379-2.503,0.783-3.688,1.306c-0.021,0.006-0.08,0.043-0.102,0.048c-0.342,0.086-0.688-0.123-0.773-0.465
	c-0.021-0.086-0.016-0.154-0.016-0.244c0.054-0.513,0.027-1.073,0.012-1.592c-0.032-0.762-0.043-1.531-0.121-2.305
	c-0.037-0.33,0.08-0.678,0.443-0.769c0.342-0.085,0.688,0.123,0.773,0.466c0.159,0.641,0.158,2.636,0.157,3.361
	c2.221-0.826,4.548-1.496,6.833-2.066c0.341-0.085,0.683,0.102,0.768,0.443C57.897,105.625,57.688,105.972,57.346,106.057z
	 M51.207,110.717c-0.001,0.998,0.041,1.986,0.11,2.988l2.209-0.687l-0.137-3.005C52.647,110.223,51.906,110.43,51.207,110.717z
	 M51.39,115.003c0.074,1.114,0.17,2.226,0.308,3.325c0.699-0.288,1.394-0.507,2.103-0.752c-0.089-1.089-0.152-2.161-0.222-3.255
	L51.39,115.003z M54.639,109.657l0.115,3.011c0.778-0.24,1.542-0.453,2.327-0.672c-0.145-0.939-0.314-1.895-0.479-2.828
	L54.639,109.657z M54.823,113.943l0.201,3.261c0.864-0.262,1.729-0.521,2.599-0.763c-0.085-1.066-0.19-2.129-0.345-3.202
	L54.823,113.943z"/>
<path fill="none" stroke="#FFFFFF" stroke-linecap="round" d="M67.825,117.437c-0.064,0.016-0.198,0.026-0.268,0.021
	c-2.834-0.358-4.063-4.475-4.644-6.802c-0.49-1.964-0.825-3.944-1.112-5.913l-0.271-1.815c-0.054-0.304-0.112-0.629-0.144-0.939
	c-0.021-0.356,0.155-0.65,0.496-0.735c0.342-0.086,0.736,0.134,0.801,0.48l0.016,0.064c0.548,2.834,0.818,5.737,1.516,8.533
	c0.41,1.645,1.241,4.613,2.766,5.547c0.268,0.16,0.481,0.198,0.774,0.284c0.272,0.09,0.48,0.197,0.556,0.496
	C68.396,116.999,68.166,117.352,67.825,117.437z"/>
<path fill="none" stroke="#FFFFFF" stroke-linecap="round" d="M76.207,100.765c-0.684,0.17-1.372,0.229-2.071,0.244
	c-0.567,2.636-1.963,7.135-3.593,9.241c-0.085,0.112-0.224,0.192-0.352,0.225c-0.363,0.09-0.71-0.118-0.8-0.481
	c-0.049-0.192,0-0.363,0.117-0.528c1.613-2.354,2.693-5.751,3.314-8.537c-0.491-0.059-1.078-0.139-1.537-0.342
	c-0.203-0.086-0.352-0.229-0.405-0.442c-0.085-0.342,0.118-0.71,0.46-0.796c0.149-0.037,0.245-0.016,0.367,0.021
	c0.465,0.134,0.896,0.23,1.366,0.295c0.091-0.453,0.038-1.121,0.594-1.259c0.341-0.085,0.688,0.122,0.768,0.442
	c0.048,0.193-0.017,0.661-0.06,0.854c0.519-0.017,1.047-0.079,1.538-0.202c0.662-0.164,1.189-0.41,1.718-0.837
	c0.097-0.069,0.177-0.111,0.284-0.138c0.341-0.086,0.688,0.123,0.773,0.464C78.907,99.865,76.846,100.605,76.207,100.765z
	 M83.403,111.986c-0.32,0.08-0.587-0.079-0.746-0.357c-0.438-0.752-0.816-1.27-1.632-1.634c0.329,1.959-0.334,3.847-2.427,4.369
	c-1.686,0.421-2.887-0.664-3.28-2.243c-0.458-1.837,0.983-3.239,2.649-3.654c0.427-0.106,0.87-0.148,1.324-0.148
	c-0.304-1.309-1.018-4.531-0.125-5.684c0.106-0.117,0.197-0.207,0.369-0.25c0.341-0.086,0.688,0.123,0.772,0.465
	c0.054,0.213,0.016,0.336-0.097,0.522c-0.582,1.029,0.169,4.039,0.44,5.128c1.425,0.348,2.534,1.252,3.179,2.564
	c0.01,0.043,0.043,0.08,0.054,0.122C83.969,111.528,83.745,111.901,83.403,111.986z M78.282,109.726
	c-0.939,0.234-1.98,0.971-1.704,2.081c0.213,0.854,0.726,1.543,1.707,1.299c1.729-0.432,1.677-2.098,1.331-3.484
	C79.178,109.594,78.708,109.619,78.282,109.726z M83.794,102.819c-0.214,0.054-1.543-0.183-1.99-0.162
	c-0.315,0.011-0.63-0.159-0.71-0.479c-0.085-0.343,0.118-0.71,0.46-0.795c0.342-0.086,1.969,0.075,2.294,0.198
	c0.203,0.085,0.374,0.225,0.433,0.459C84.37,102.403,84.156,102.729,83.794,102.819z"/>
<path fill="none" stroke="#FFFFFF" stroke-linecap="round" d="M94.26,105.244c-0.422,0.581-1.741,1.477-2.424,1.646
	c-0.918,0.229-2.192-1.153-2.721-1.725c-0.586-0.625-2.245-2.638-2.442-3.428c-0.085-0.342,0.14-0.715,0.481-0.8
	c0.32-0.08,0.608,0.075,0.769,0.353c0.202,0.357,0.404,0.715,0.629,1.067c0.527,0.752,2.234,2.867,3.05,3.231
	c0.566-0.188,1.218-0.758,1.634-1.18c0.107-0.117,0.203-0.187,0.354-0.224c0.362-0.091,0.715,0.14,0.8,0.481
	C94.441,104.881,94.398,105.072,94.26,105.244z M103.751,100.928c-0.342,0.085-0.721-0.161-0.806-0.502
	c-0.026-0.107-0.026-0.197-0.005-0.294c0.091-0.453,0.049-0.897-0.063-1.345c-0.117-0.471-0.399-1.239-0.805-1.5
	c-0.159-0.096-0.261-0.23-0.31-0.423c-0.085-0.341,0.145-0.692,0.486-0.778c0.961-0.238,1.739,1.699,1.909,2.381
	C104.302,99.043,104.561,100.725,103.751,100.928z"/>
<path fill="none" stroke="#FFFFFF" stroke-linecap="round" d="M116.481,91.879c-0.47,0.117-0.929,0.187-1.398,0.304
	c-2.52,0.628-5.033,1.369-7.494,2.232c-0.438,0.153-0.881,0.378-1.318,0.533l-0.128,0.032c-0.341,0.084-0.678-0.082-0.763-0.424
	c-0.074-0.299,0.086-0.564,0.342-0.72c0.534-0.314,1.34-0.537,1.928-0.729c2.343-0.788,4.729-1.497,7.119-2.094
	c0.47-0.117,0.993-0.292,1.463-0.318c0.331-0.037,0.613,0.097,0.699,0.438C117.015,91.475,116.802,91.8,116.481,91.879z
	 M115.452,98.215c-0.598,0.148-1.211,0.323-1.803,0.494l0.244,0.982c0.341,1.365,0.66,2.737,0.937,4.119
	c0.122,0.583,0.373,1.494,0.384,2.082c0.005,0.293-0.172,0.588-0.471,0.662c-0.32,0.08-2.145-0.146-2.476-0.289
	c-0.203-0.086-0.347-0.209-0.4-0.422c-0.08-0.32,0.129-0.668,0.449-0.747c0.191-0.048,1.275,0.202,1.553,0.225
	c-0.33-1.777-0.724-3.539-1.161-5.29l-0.239-0.961c-0.485,0.145-0.987,0.314-1.462,0.502c-0.037,0.305-0.192,0.501-0.471,0.57
	c-0.32,0.08-0.613-0.098-0.736-0.406c-0.111-0.267-0.17-0.592-0.238-0.869c-0.182-0.636-0.336-1.256-0.496-1.896l-0.373-1.494
	c-0.079-0.32,0.081-0.677,0.423-0.762s0.662,0.107,0.769,0.443c1.014-0.48,2.15-0.831,3.239-1.103
	c0.491-0.122,1.746-0.55,1.938,0.22c0.224,0.896,0.324,1.846,0.44,2.77c0.198,0.064,0.348,0.209,0.4,0.422
	C115.981,97.787,115.772,98.135,115.452,98.215z M109.47,106.146c-0.341,0.085-0.667-0.13-0.747-0.45
	c-0.063-0.257,0.022-0.458,0.209-0.618c0.662-0.618,1.955-3.073,2.228-3.98c0.081-0.225,0.219-0.395,0.454-0.453
	c0.32-0.08,0.667,0.129,0.747,0.449C112.531,101.776,110.176,105.971,109.47,106.146z M111.017,91.338
	c-0.257,0.063-0.528-0.027-0.673-0.242c-0.213-0.309-0.943-1.6-1.023-1.92c-0.085-0.342,0.129-0.668,0.449-0.748
	c0.341-0.086,0.613,0.097,0.736,0.406c0.186,0.476,0.89,1.479,0.959,1.757C111.546,90.911,111.338,91.258,111.017,91.338z
	 M113.405,95.277c-1.025,0.255-2.284,0.569-3.219,1.098l0.501,2.007c1.157-0.447,2.386-0.8,3.598-1.123
	c-0.063-0.71-0.175-1.432-0.304-2.126L113.405,95.277z M117.429,102.597c-0.256,0.063-0.485-0.038-0.65-0.247
	c-0.362-0.453-1.354-1.249-1.841-1.649c-0.111-0.087-0.186-0.202-0.218-0.331c-0.08-0.32,0.128-0.667,0.448-0.747
	c0.192-0.048,0.362,0.001,0.528,0.118c0.39,0.289,2.064,1.73,2.16,2.115C117.931,102.154,117.75,102.517,117.429,102.597z
	 M123.589,92.92c-1.174,0.292-2.359,0.633-3.522,0.968c0.212,2.851,0.39,8.566-0.76,11.144c-0.091,0.181-0.24,0.31-0.432,0.357
	c-0.32,0.08-0.662-0.107-0.747-0.449c-0.032-0.127-0.011-0.225,0.026-0.347c1.032-2.956,0.896-7.231,0.706-10.358
	c-0.779,0.24-1.5,0.352-2.221,0.736c-0.038,0.031-0.08,0.041-0.123,0.053c-0.342,0.084-0.645-0.135-0.725-0.455
	c-0.074-0.299,0.048-0.533,0.305-0.688c0.672-0.394,1.899-0.655,2.679-0.895l-0.243-2.252c-0.032-0.311,0.117-0.619,0.438-0.699
	c0.342-0.085,0.683,0.102,0.768,0.443c0.139,0.555,0.187,1.563,0.239,2.141c1.126-0.304,2.247-0.628,3.378-0.91
	c0.428-0.106,0.854-0.123,0.988,0.41C124.48,92.676,123.995,92.818,123.589,92.92z M122.507,89.946
	c-0.191,0.048-0.378,0.027-0.549-0.112c-0.624-0.502-1.273-2.018-1.46-2.765c-0.08-0.32,0.133-0.646,0.453-0.726
	s0.614,0.096,0.71,0.39c0.219,0.604,0.592,1.734,1.082,2.156c0.091,0.092,0.16,0.188,0.197,0.337
	C123.02,89.547,122.827,89.867,122.507,89.946z M126.792,99.31c-0.14,1.259-0.877,3.303-2.243,3.644l-0.064,0.016
	c-1.559,0.389-2.661-2.942-3.022-3.94c-0.347-0.934-0.522-1.366-0.826-2.311c-0.038-0.15-0.096-0.294-0.133-0.442
	c-0.075-0.301,0.053-0.694,0.395-0.779c0.363-0.091,0.652,0.063,0.785,0.416c0.053,0.123,0.096,0.293,0.127,0.422
	c0.367,1.2,1.561,4.895,2.441,5.423c0.245-0.106,0.485-0.416,0.63-0.655c0.673-1.029,0.86-2.369,0.563-3.564
	c-0.08-0.32,0.128-0.668,0.448-0.747c0.342-0.085,0.662,0.107,0.748,0.448C126.809,97.922,126.846,98.616,126.792,99.31z"/>
<path fill="none" stroke="#FFFFFF" stroke-linecap="round" d="M130.697,87.338c-0.148,0.037-0.288,0.026-0.415-0.032
	c-0.801-0.3-1.75-0.38-2.609-0.461c-0.278-0.021-0.48-0.198-0.55-0.476c-0.085-0.342,0.097-0.703,0.438-0.788
	c0.427-0.106,2.779,0.325,3.243,0.55c0.183,0.092,0.311,0.241,0.358,0.434C131.253,86.928,131.039,87.253,130.697,87.338z
	 M131.026,91.927c-0.833,0.39-1.799,0.698-2.696,0.921c-0.384,0.096-0.939,0.145-1.067-0.368c-0.09-0.363,0.086-0.747,0.477-0.821
	l0.32-0.08c0.832-0.207,1.67-0.484,2.471-0.82l0.107-0.026c0.342-0.085,0.666,0.128,0.752,0.47
	C131.464,91.5,131.309,91.789,131.026,91.927z M134.144,96.887c-0.433,0.901-3.595,4.865-4.448,5.078
	c-0.32,0.08-0.683-0.104-0.768-0.443c-0.069-0.277,0.053-0.513,0.283-0.684c1.035-0.757,3.118-3.408,3.785-4.55
	c0.097-0.16,0.225-0.282,0.396-0.325c0.363-0.09,0.716,0.139,0.801,0.48C134.23,96.592,134.203,96.759,134.144,96.887z
	 M144.92,86.898c-0.683,0.17-1.398,0.303-2.081,0.474c-1.11,0.276-2.236,0.58-3.336,0.899c0.303,1.217,0.569,2.465,0.873,3.684
	c0.901-0.294,1.825-0.592,2.743-0.82c0.513-0.128,1.2-0.367,1.382,0.357c0.133,0.535,0.207,1.105,0.298,1.648
	c0.218,1.24,0.415,2.482,0.547,3.742c0.406-0.102,0.859-0.1,0.987,0.412c0.085,0.342-0.149,0.672-0.47,0.752
	c-1.538,0.383-3.085,0.815-4.597,1.305c-0.965,0.309-1.995,0.633-2.925,1.092c-0.059,0.037-0.08,0.043-0.144,0.059
	c-0.32,0.08-0.587-0.08-0.747-0.358c-0.224-0.442-0.415-1.21-0.538-1.702c-0.34-1.184-0.666-2.396-0.964-3.592
	c-0.106-0.427-0.276-0.929-0.318-1.371c-0.037-0.332,0.117-0.62,0.459-0.705c0.384-0.096,0.715,0.139,0.806,0.502
	c0.005,0.021-0.006,0.07,0.005,0.112c0.149-0.218,1.959-0.874,2.269-0.996c-0.309-1.238-0.58-2.509-0.889-3.747
	c-1.729,0.522-3.586,1.076-5.172,1.992c-0.059,0.038-0.123,0.054-0.188,0.07c-0.342,0.085-0.688-0.125-0.773-0.465
	c-0.068-0.277,0.055-0.513,0.283-0.684c1.063-0.741,4.255-1.764,5.563-2.158c-0.245-0.98-0.447-1.701-0.692-2.685
	c-0.08-0.32,0.054-0.694,0.417-0.784c0.363-0.091,0.656,0.086,0.789,0.438c0.309,0.876,0.484,1.761,0.709,2.658
	c1.163-0.337,2.332-0.649,3.506-0.942c0.619-0.154,1.292-0.367,1.933-0.437c0.373-0.048,0.656,0.177,0.747,0.539
	C145.48,86.509,145.219,86.824,144.92,86.898z M140.947,82.424c-0.353,0.133-0.715,0.224-1.046,0.352
	c-1.73,0.612-3.795,1.332-5.35,2.285c-0.059,0.039-0.16,0.086-0.224,0.102c-0.341,0.085-0.688-0.123-0.773-0.465
	c-0.069-0.277,0.032-0.507,0.241-0.671c0.864-0.716,5.583-2.526,6.778-2.825c0.32-0.08,0.716,0.048,0.806,0.411
	C141.47,81.976,141.3,82.29,140.947,82.424z M139.708,93.55c-0.689,0.239-1.463,0.501-2.099,0.863
	c-0.059,0.037-0.096,0.069-0.181,0.091c-0.086,0.021-0.177,0.021-0.252-0.005c0.378,1.515,0.783,3.048,1.246,4.54
	c1.837-0.729,3.779-1.304,5.69-1.826c-0.196-1.606-0.44-3.223-0.728-4.83C142.151,92.714,140.913,93.113,139.708,93.55z"/>
<path fill="none" stroke="#FFFFFF" stroke-linecap="round" d="M154.825,82.797c-0.341,0.084-0.693,0.126-1.035,0.211
	c-0.727,0.182-1.441,0.406-2.156,0.63c-0.113,1.365-0.317,2.731-0.568,4.087c0.635-0.09,1.291-0.096,1.942-0.03
	c0.272-0.454,1.138-1.895,1.65-2.022c0.362-0.09,0.726,0.091,0.815,0.454c0.064,0.257-0.016,0.481-0.197,0.662
	c-0.342,0.357-0.625,0.769-0.902,1.2c0.518,0.164,1.676,0.625,1.818,1.201c0.097,0.385-0.117,0.71-0.48,0.801
	c-0.234,0.059-0.453,0-0.63-0.16c-0.404-0.354-0.886-0.551-1.392-0.674c-0.508,0.967-1.459,3.063-1.183,4.172
	c0.149,0.598,0.849,0.492,1.317,0.375c0.834-0.207,1.954-0.714,2.659-1.161c0.117-0.075,0.256-0.155,0.405-0.192
	c0.363-0.091,0.694,0.145,0.779,0.486c0.069,0.277-0.055,0.603-0.315,0.736c-1.03,0.506-2.013,1.113-3.145,1.396
	c-1.237,0.309-2.62,0.133-2.981-1.319c-0.347-1.388,0.482-3.432,1.08-4.669c-0.709-0.027-1.296,0.073-1.958,0.238
	c-0.363,0.091-0.731-0.112-0.816-0.454c-0.042-0.171-0.011-0.314,0.042-0.464c0.332-0.943,0.574-3.159,0.682-4.183
	c-0.561,0.207-1.121,0.415-1.649,0.66l-0.604,0.309c-0.043,0.011-0.123,0.054-0.165,0.064c-0.342,0.085-0.715-0.141-0.801-0.48
	c-0.074-0.299,0.08-0.587,0.337-0.742c0.892-0.517,2.045-0.895,2.999-1.246c0.033-0.508,0.044-1.008-0.036-1.512
	c-0.048-0.373,0.15-0.672,0.513-0.762c0.385-0.096,0.705,0.188,0.79,0.527c0.101,0.408,0.085,0.888,0.073,1.299
	c0.588-0.192,1.181-0.362,1.778-0.512c0.555-0.138,1.596-0.512,1.793,0.279C155.37,82.342,155.167,82.711,154.825,82.797z"/>
<path fill="none" stroke="#FFFFFF" stroke-linecap="round" d="M161.615,77.747c0.569,3.01,1.218,6.249,1.964,9.239
	c0.079,0.32-0.14,0.715-0.48,0.8c-0.641,0.159-0.807-0.412-0.924-0.881c-0.489-1.965-0.888-3.929-1.313-5.908
	c-0.197-0.882-0.484-2.216-0.564-3.08c-0.036-0.331,0.161-0.63,0.503-0.716c0.383-0.096,0.709,0.119,0.799,0.481L161.615,77.747z
	 M165.015,93.748c-0.918,0.229-1.354-1.793-1.647-2.969c-0.085-0.342,0.14-0.714,0.481-0.799c1.088-0.271,0.911,1.836,1.551,2.765
	c0.037,0.06,0.079,0.139,0.101,0.224C165.592,93.332,165.378,93.658,165.015,93.748z"/>
</svg>
