<?xml version="1.0" encoding="UTF-8"?>
<svg id="_レイヤー_1" data-name="レイヤー_1" xmlns="http://www.w3.org/2000/svg" version="1.1" viewBox="0 0 128.7 48.3">
  <!-- Generator: Adobe Illustrator 29.1.0, SVG Export Plug-In . SVG Version: 2.1.0 Build 142)  -->
  <defs>
    <style>
      .st0 {
        fill: #fff;
      }
    </style>
  </defs>
  <path class="st0" d="M38.3.4c0,9.2,2.1,12.6,6.2,15.9l-1.7,1.7c-2.6-2-4.6-4.2-5.7-7.8-1.1,3.6-3.1,5.9-5.7,7.8l-1.7-1.7c3.7-3,5.8-6.1,6.1-13.5h-2.8V.4h5.2Z"/>
  <path class="st0" d="M54.6,10.4c0,.3,0,.6,0,.9h7.5v3.3c0,2.3-1.2,3.4-3.1,3.4v-2.4c.5,0,.7-.3.7-1v-1.3h-.9c0,2.6-.4,3.7-1.3,4.7l-1.4-1c.7-1,.9-1.6,1-3.7h-.6c-.1,2-.4,3.1-1.2,4l-1.4-1c.7-.9.9-1.4,1-2.9h-.6c-.3,1.6-.8,2.5-1.5,3.1l-1.6-1.2c.1-.2.3-.3.4-.5-.7.4-2.2.9-4.2.9v-2.4c.4,0,.7,0,1,0v-5.7h-1v-2.4h1v-2.4h2.4v2.4h1.1v2.4h-1.1v5.2c.4-.1.7-.3,1.1-.4v2.2c.5-.8.8-1.9.8-4.1h-.8v-2.4h10.2v2.4h-7.5ZM52.3,7.2V.4h9.1v6.8h-9.1ZM54.7,2.1v1.1h4.3v-1.1h-4.3ZM54.7,4.5v1.1h4.3v-1.1h-4.3Z"/>
  <path class="st0" d="M79.7,11v2.4h-14.7v-2.4h1.1v-2.6h-1.1v-2.4h1.1v-1.5c-.3.2-.7.4-1.1.5v-3c1-.4,1.4-1.3,1.4-2.1h2.4c0,.4,0,.8-.2,1.2h11.1v2.4h-1.1v2.5h1.1v2.4h-1.1v2.6h1.1ZM68,14.1c0,1.4-.1,2.6-.7,4l-2.3-.6c.5-1.2.6-2,.6-3.4h2.4ZM69.7,6.1v-2.5h-1.3v2.5h1.3ZM69.7,11v-2.6h-1.3v2.6h1.3ZM71.9,14.5v3.2h-2.4v-3.2h2.4ZM73,6.1v-2.5h-1.3v2.5h1.3ZM73,11v-2.6h-1.3v2.6h1.3ZM73.4,14.5h2.4v3.2h-2.4v-3.2ZM76.2,6.1v-2.5h-1.3v2.5h1.3ZM76.2,11v-2.6h-1.3v2.6h1.3ZM79.7,14.5v3.2h-2.4v-3.2h2.4Z"/>
  <path class="st0" d="M84.8,13.8c-.6.9-1.3,1.5-2.2,2.1v-3.3c1.1-.8,1.7-2.6,1.9-4h-1.9v-2.4h2.2V1.9h2.4v4.3h2.2v2.4h-2.2v.9l.7-.4,1.9,3.2-2,1.2-.6-1v5.6h-2.4v-4.2ZM84.1,2.8l.3,2.8h-1.6l-.3-2.8h1.6ZM87.9,2.8h1.6l-.3,2.8h-1.6l.3-2.8ZM96,0v12l1.3-.2v2.4l-1.3.2v3.6h-2.4v-3.3l-4.1.6v-2.4l4.1-.6V0h2.4ZM92.4,2.8l.5,2.3h-2.4l-.5-2.3h2.4ZM90.5,9.7l-.5-2.3h2.4l.5,2.3h-2.4Z"/>
  <path class="st0" d="M6,39c5.8.6,6.3,9-.5,9v-2.4c3.6,0,3.2-4.2.5-4.3,0,1.3-.2,3.5-2.9,3.5S0,43.4,0,42.1s.9-3.1,3.5-3.1v-3.8H0v-2.4h3.6v-1.2h2.4v1.2h3.6v2.4h-3.6v3.8ZM3.7,41.2c-.9,0-1.4.2-1.4.7s.2.6.7.6.7-.5.7-1.4ZM9,35.8h2.4v3.2h-2.4v-3.2Z"/>
  <path class="st0" d="M19.9,34.2c0,.7-.1,1.4-.2,2h10.3v2.4c0,2.2-1,4.4-3.2,6.2.9.4,1.9.7,3.1.9l-.6,2.3c-2-.4-3.6-.9-4.9-1.7-1.4.7-3.1,1.3-5.1,1.7l-.7-2.3c1.4-.2,2.6-.6,3.6-1-1.2-1.1-2-2.4-2.5-3.7l2.2-.9c.5,1.3,1.3,2.5,2.7,3.5,2.2-1.5,3.2-3.4,3.2-5h-8.3c-.8,4-1.8,6.2-1.8,6.2l-2.3-.6s1.8-3.5,2.3-9.9h-2.3v-2.4h2.5c0-.6,0-1.2,0-1.8h2.4c0,.6,0,1.2,0,1.8h9.9v2.4h-10Z"/>
  <path class="st0" d="M43.4,32.9v.9h4.1v2.2h-1.1v2.1h1.1v2.2h-4.1v.6h3.7v1.8h-3.7v.6h3.7v1.8h-3.7v.6h4.1v2.4h-5.5c-3,0-4.7-.5-6.3-1.7-.2.5-.4,1.1-.6,1.7l-2.3-.6c.9-2.1.9-4.2.9-7h-.9v-2.4h3.3v2.4c0,1.2,0,2.2,0,3.1.5.4.9.7,1.3.9v-1.4h3.6v-.6h-3.6v-1.8h3.6v-.6h-4.1v-2.2h1.1v-2.1h-1.1v-2.2h4.1v-.9h-3.6v-2.2h3.6v-.8h2.4v.8h3.7v2.2h-3.7ZM35.2,32.9l.5,3.4h-2.4l-.5-3.4h2.4ZM41,45h-2.8c.8.3,1.6.5,2.8.6v-.6ZM44,35.9h-3.6v2.1h3.6v-2.1Z"/>
  <path class="st0" d="M61.8,37.2c-8.2,4.6-5.2,10.5,0,7.9l.6,2.3c-6.7,2.7-10.6-3.3-6-8.8l-2.5-6.9h2.5l1.8,5.1c.7-.6,1.5-1.1,2.5-1.6l1.1,2.1Z"/>
  <path class="st0" d="M76.1,35.2c0,.3,0,.7-.1,1h6.3v2.4h-3.5c.8.5,1.9.9,3.5,1.3l-.8,2.2c-1.2-.4-2.3-.7-3.2-1.2l.2.4c-1.8.7-3.1.8-7.1.8v-1.1c-.9.4-1.9.8-3.1,1.1l-.7-2.2c1.4-.3,2.5-.8,3.4-1.3h-3.4v-2.4h5.9c.2-.4.3-.7.3-1h2.4ZM70.9,30h3.2l-2.2,2.8c2.7,0,4.4-.3,5.5-.5l-.6-1.8h2.6l1.7,4.7h-2.6l-.2-.7c-1.3.3-4,.7-9.4.7v-2.4l2.1-2.8ZM68.9,45.7c8.1,0,9.3-.5,11-1.1l.9,2.2c-2.1.8-3.6,1.3-11.9,1.3v-2.4ZM70.2,43c5.6,0,6.9-.3,8.6-.9l.9,1.8c-2.1.7-3.5,1-9.5,1v-2ZM75.1,38.6h-.5c-.5.5-1.1,1.1-1.8,1.6,1.8,0,2.8-.1,3.7-.3-.5-.4-1-.8-1.3-1.3Z"/>
  <path class="st0" d="M89.3,34.6c0,7.8-.3,9.6-2.2,13.4l-2-1.3c1.5-3.4,1.7-4.9,1.8-12.1h-1.3v-2.4h1.3v-2.3h2.4v2.3h3.8v11.9c0,2.7-1.2,3.9-3.6,3.9h-.6v-2.4h.6c.8,0,1.2-.3,1.2-1.5v-9.5h-1.5ZM99.9,32.8v14.6h-6.1v-14.6h6.1ZM97.5,45v-9.8h-1.3v9.8h1.3Z"/>
  <path class="st0" d="M103.5,39.2c0-5.7,1.6-9,5.4-9s5.4,3.3,5.4,9-1.6,9-5.4,9-5.4-3.3-5.4-9ZM105.9,39.2c0,5,1.2,6.6,3.1,6.6s3-1.6,3-6.6-1.2-6.6-3-6.6-3.1,1.6-3.1,6.6Z"/>
  <path class="st0" d="M118.8,48v-17.6h2.4v7.8l4.8-7.8h2.8l-5.4,8.8,5.4,8.8h-2.8l-4.8-7.8v7.8h-2.4Z"/>
</svg>