<?xml version="1.0" encoding="utf-8"?>
<!-- Generator: Adobe Illustrator 15.0.0, SVG Export Plug-In . SVG Version: 6.00 Build 0)  -->
<!DOCTYPE svg PUBLIC "-//W3C//DTD SVG 1.1//EN" "http://www.w3.org/Graphics/SVG/1.1/DTD/svg11.dtd">
<svg version="1.1" id="レイヤー_1" xmlns="http://www.w3.org/2000/svg" xmlns:xlink="http://www.w3.org/1999/xlink" x="0px"
	 y="0px" width="187.981px" height="94.41px" viewBox="16.472 28.666 187.981 94.41"
	 enable-background="new 16.472 28.666 187.981 94.41" xml:space="preserve">
<path fill="#FFFFFF" d="M37.073,83.156c-0.085,0.078-0.178,0.133-0.279,0.161c-0.399,0.114-0.85-0.136-0.965-0.534
	c-0.093-0.326,0.024-0.576,0.256-0.805c0.446-0.425,0.899-0.826,1.323-1.327c1.619-1.898,2.969-4.828,2.244-7.353
	c-0.603-2.1-2.062-3.412-4.241-3.651c0.068,5.418-1.79,10.063-6.332,13.181c-0.609,0.418-1.274,0.744-1.974,0.945
	c-2.149,0.617-3.775-0.241-4.393-2.391c-1.185-4.123,1.902-8.824,5.182-11.064c-0.435-1.606-0.819-3.228-1.021-4.874
	c-1.42,0.517-2.963,0.986-4.248,1.787c-0.068,0.048-0.168,0.076-0.243,0.098c-0.399,0.114-0.818-0.116-0.933-0.517
	c-0.101-0.35,0.035-0.633,0.299-0.844c0.743-0.618,3.958-1.758,4.969-2.103c-0.055-0.661-0.105-1.403,0.004-2.058
	c0.046-0.311,0.246-0.558,0.57-0.651c0.375-0.108,0.818,0.117,0.933,0.517c0.058,0.2-0.008,1.383,0.003,1.703
	c1.503-0.512,3.02-0.975,4.545-1.413c0.699-0.201,1.859-0.588,2.588-0.689c0.439-0.072,0.792,0.125,0.922,0.575
	c0.122,0.425-0.174,0.807-0.574,0.921c-0.775,0.223-1.539,0.388-2.313,0.611c-1.674,0.48-3.359,1.019-5.02,1.549
	c0.199,1.54,0.529,3.068,0.91,4.581c0.767-0.437,1.603-0.73,2.452-0.975c0.675-0.193,1.364-0.338,2.042-0.424
	c-0.047-0.635-0.145-1.256-0.217-1.885c-0.033-0.397,0.163-0.75,0.538-0.858c0.4-0.114,0.843,0.11,0.958,0.509
	c0.15,0.525,0.228,1.64,0.285,2.219c2.904,0.221,4.985,2.003,5.782,4.777C42.189,76.573,39.838,80.819,37.073,83.156z
	 M32.212,69.997c-0.849,0.244-1.735,0.552-2.495,1.014c0.499,1.643,1.233,3.73,2.278,5.108c0.079,0.085,0.133,0.178,0.161,0.277
	c0.122,0.426-0.142,0.826-0.542,0.94c-0.324,0.094-0.567,0.001-0.796-0.23c-0.948-0.945-2.024-3.938-2.447-5.223
	c-2.533,1.919-5.146,5.726-4.191,9.049c0.388,1.35,1.177,1.746,2.527,1.357c0.524-0.15,1.045-0.408,1.521-0.734
	c4.128-2.862,5.733-6.976,5.645-11.9C33.301,69.738,32.762,69.839,32.212,69.997z"/>
<path fill="#FFFFFF" d="M50.938,60.047c-0.8,0.229-1.61,0.327-2.436,0.375c-0.56,3.138-2.021,8.507-3.856,11.064
	c-0.097,0.135-0.257,0.235-0.408,0.278c-0.425,0.122-0.843-0.11-0.964-0.534c-0.065-0.225-0.015-0.429,0.117-0.629
	c1.808-2.846,2.941-6.904,3.558-10.219c-0.583-0.051-1.279-0.12-1.829-0.341c-0.243-0.093-0.425-0.256-0.497-0.507
	c-0.115-0.399,0.109-0.842,0.509-0.957c0.175-0.05,0.29-0.029,0.436,0.01c0.554,0.139,1.068,0.233,1.625,0.29
	c0.089-0.539-0.002-1.324,0.648-1.511c0.399-0.115,0.818,0.116,0.926,0.491c0.064,0.225,0.008,0.782-0.035,1.01
	c0.611-0.039,1.232-0.137,1.807-0.302c0.774-0.222,1.389-0.534,1.995-1.059c0.11-0.086,0.203-0.14,0.328-0.176
	c0.4-0.115,0.818,0.116,0.933,0.517C54.09,58.871,51.688,59.832,50.938,60.047z M59.906,72.999
	c-0.375,0.107-0.696-0.069-0.896-0.392c-0.548-0.871-1.017-1.467-1.996-1.861c0.471,2.3-0.232,4.558-2.682,5.261
	c-1.974,0.567-3.438-0.663-3.968-2.513c-0.617-2.149,1.027-3.864,2.976-4.425c0.5-0.144,1.021-0.213,1.558-0.231
	c-0.413-1.531-1.39-5.308-0.385-6.707c0.121-0.143,0.225-0.254,0.425-0.311c0.399-0.115,0.818,0.117,0.933,0.516
	c0.072,0.25,0.032,0.396-0.092,0.623c-0.645,1.239,0.367,4.763,0.733,6.038c1.697,0.352,3.044,1.371,3.861,2.895
	c0.014,0.05,0.054,0.092,0.068,0.143C60.555,72.435,60.306,72.884,59.906,72.999z M53.763,70.544
	c-1.1,0.316-2.298,1.229-1.925,2.527c0.287,1,0.92,1.791,2.07,1.461c2.024-0.581,1.894-2.546,1.427-4.17
	C54.816,70.35,54.263,70.401,53.763,70.544z M59.984,62.156c-0.25,0.071-1.829-0.151-2.357-0.107
	c-0.372,0.025-0.75-0.163-0.858-0.538c-0.115-0.399,0.11-0.843,0.51-0.958c0.4-0.115,2.329,0.008,2.717,0.139
	c0.243,0.093,0.451,0.249,0.53,0.524C60.648,61.641,60.409,62.034,59.984,62.156z"/>
<path fill="#FFFFFF" d="M71.803,55.002c-1.142,0.734-2.556,1.275-3.866,1.706c-0.667,3.14-1.6,10.44-0.738,13.44
	c0.122,0.425,0.373,0.731,0.451,1.007c0.115,0.399-0.16,0.856-0.56,0.972c-0.824,0.236-1.211-0.924-1.384-1.523
	c-0.926-3.223-0.149-9.938,0.557-13.415c-0.764,0.166-1.564,0.396-2.35,0.485c-0.421,0.04-0.75-0.163-0.865-0.563
	c-0.115-0.399,0.077-0.862,0.51-0.958l0.1-0.028c0.996-0.205,2-0.385,2.974-0.665c0.117-0.438,0.213-0.954,0.395-1.356
	c0.1-0.219,0.271-0.376,0.521-0.448c0.4-0.115,0.843,0.11,0.958,0.509c0.072,0.25,0.037,0.503-0.096,0.703
	c0.911-0.315,1.735-0.74,2.578-1.199c0.068-0.047,0.118-0.062,0.192-0.083c0.425-0.122,0.843,0.109,0.965,0.535
	C72.245,54.469,72.1,54.809,71.803,55.002z M80.097,58.165c-0.101,0.028-0.207,0.033-0.314,0.036
	c-0.329-0.015-0.667,0.029-0.993,0.123c-1.125,0.323-2.249,1.025-3.144,1.769c-0.086,0.079-0.179,0.133-0.303,0.168
	c-0.426,0.122-0.868-0.103-0.99-0.527c-0.086-0.3,0.017-0.599,0.231-0.796c0.891-0.851,2.583-1.744,3.757-2.081
	c0.65-0.187,2.014-0.523,2.272,0.376C80.728,57.632,80.497,58.051,80.097,58.165z M82.416,66.805
	c-1.199,0.345-4.188,0.581-5.35,0.212c-0.268-0.086-0.451-0.25-0.522-0.5c-0.122-0.425,0.095-0.893,0.52-1.015
	c0.175-0.05,0.289-0.03,0.436,0.009c1.328,0.295,3.207,0.053,4.535-0.22c0.457-0.104,0.817,0.117,0.947,0.566
	C83.104,66.282,82.816,66.691,82.416,66.805z"/>
<path fill="#FFFFFF" d="M96.872,63.276c-0.096,0.136-0.257,0.236-0.406,0.279c-0.399,0.115-0.85-0.134-0.965-0.534
	c-0.072-0.251-0.022-0.454,0.127-0.686c0.317-0.498,0.648-0.944,0.926-1.484c1.033-2.055,1.561-5.02,0.915-7.269
	c-0.933-3.249-3.417-4.646-6.723-3.724c0.644,0.546,1.306,1.438,1.542,2.263c0.309,1.074,0.41,2.182,0.322,3.289
	c-0.183,2.189-1.414,5.626-3.788,6.308c-2.324,0.667-4.522-0.865-5.168-3.114c-1.363-4.749,2.145-8.92,6.567-10.191
	c4.174-1.199,7.523,0.571,8.722,4.745C99.855,56.332,98.89,60.694,96.872,63.276z M89.23,50.699
	c-0.097-0.053-0.154-0.063-0.208-0.157c-2.827,1.461-4.826,4.389-3.893,7.638c0.409,1.425,1.739,2.477,3.264,2.039
	c0.524-0.151,1.017-0.698,1.33-1.113c1.319-1.812,1.677-4.431,1.066-6.555C90.574,51.802,89.905,51.074,89.23,50.699z"/>
<path fill="#FFFFFF" d="M112.321,43.797c-0.55,0.158-1.089,0.259-1.639,0.417c-2.949,0.847-5.886,1.826-8.756,2.948
	c-0.511,0.201-1.025,0.483-1.535,0.684l-0.15,0.043c-0.399,0.115-0.803-0.066-0.918-0.466c-0.101-0.35,0.078-0.672,0.374-0.866
	c0.618-0.393,1.56-0.691,2.246-0.942c2.734-1.028,5.521-1.965,8.321-2.769c0.55-0.158,1.16-0.387,1.714-0.438
	c0.389-0.058,0.729,0.089,0.843,0.488C112.934,43.298,112.696,43.69,112.321,43.797z M111.37,51.321
	c-0.7,0.201-1.417,0.434-2.11,0.66l0.33,1.149c0.46,1.6,0.894,3.207,1.278,4.828c0.169,0.681,0.502,1.748,0.539,2.442
	c0.019,0.346-0.177,0.701-0.527,0.801c-0.375,0.107-2.54-0.083-2.936-0.239c-0.244-0.093-0.418-0.232-0.49-0.482
	c-0.108-0.375,0.124-0.792,0.499-0.9c0.225-0.064,1.514,0.187,1.843,0.201c-0.463-2.085-1.002-4.148-1.59-6.198l-0.323-1.124
	c-0.568,0.189-1.153,0.412-1.706,0.651c-0.032,0.361-0.207,0.601-0.531,0.694c-0.375,0.108-0.729-0.088-0.887-0.448
	c-0.144-0.311-0.226-0.693-0.319-1.018c-0.24-0.743-0.448-1.468-0.664-2.217l-0.502-1.749c-0.108-0.376,0.067-0.804,0.467-0.918
	c0.399-0.115,0.786,0.098,0.926,0.491c1.178-0.609,2.505-1.072,3.78-1.438c0.575-0.166,2.038-0.721,2.297,0.179
	c0.301,1.051,0.46,2.168,0.637,3.253c0.235,0.068,0.418,0.231,0.489,0.481C111.977,50.795,111.745,51.213,111.37,51.321z
	 M104.636,60.937c-0.399,0.115-0.792-0.123-0.9-0.498c-0.086-0.3,0.006-0.543,0.22-0.74c0.756-0.757,2.181-3.709,2.465-4.792
	c0.085-0.268,0.242-0.476,0.517-0.555c0.375-0.107,0.794,0.123,0.901,0.499C108.069,55.651,105.461,60.7,104.636,60.937z
	 M105.845,43.385c-0.3,0.086-0.625-0.011-0.804-0.256c-0.265-0.357-1.181-1.852-1.289-2.228c-0.115-0.399,0.124-0.792,0.498-0.9
	c0.4-0.115,0.729,0.089,0.887,0.448c0.24,0.554,1.113,1.71,1.206,2.034C106.451,42.86,106.22,43.278,105.845,43.385z M108.83,47.938
	c-1.2,0.345-2.674,0.768-3.755,1.431l0.675,2.35c1.349-0.578,2.784-1.044,4.201-1.478c-0.105-0.836-0.267-1.682-0.446-2.496
	L108.83,47.938z M113.888,56.414c-0.3,0.086-0.575-0.024-0.779-0.264c-0.447-0.521-1.653-1.419-2.242-1.872
	c-0.135-0.096-0.229-0.231-0.272-0.382c-0.107-0.374,0.124-0.793,0.499-0.901c0.225-0.064,0.429-0.014,0.628,0.118
	c0.472,0.324,2.51,1.957,2.64,2.407C114.462,55.87,114.263,56.306,113.888,56.414z M120.758,44.73
	c-1.374,0.395-2.759,0.846-4.12,1.291c0.369,3.355,0.817,10.099-0.432,13.189c-0.1,0.218-0.271,0.376-0.496,0.44
	c-0.375,0.108-0.786-0.1-0.901-0.499c-0.042-0.149-0.021-0.264,0.018-0.411c1.096-3.534,0.756-8.576,0.401-12.262
	c-0.91,0.316-1.757,0.478-2.592,0.961c-0.043,0.04-0.093,0.054-0.143,0.068c-0.4,0.115-0.769-0.132-0.876-0.507
	c-0.101-0.35,0.035-0.632,0.331-0.825c0.778-0.494,2.217-0.853,3.127-1.169l-0.382-2.649c-0.051-0.364,0.113-0.736,0.488-0.844
	c0.399-0.115,0.811,0.092,0.926,0.492c0.187,0.649,0.284,1.839,0.371,2.517c1.317-0.405,2.628-0.835,3.953-1.215
	c0.5-0.144,1.003-0.18,1.183,0.445C121.801,44.403,121.233,44.593,120.758,44.73z M119.356,41.263
	c-0.225,0.064-0.446,0.047-0.653-0.11c-0.758-0.567-1.589-2.329-1.841-3.204c-0.108-0.374,0.131-0.769,0.506-0.876
	c0.375-0.107,0.729,0.089,0.854,0.431c0.284,0.703,0.772,2.024,1.369,2.501c0.11,0.104,0.197,0.214,0.247,0.389
	C119.945,40.769,119.731,41.156,119.356,41.263z M124.808,52.142c-0.112,1.493-0.898,3.937-2.497,4.396l-0.075,0.021
	c-1.825,0.524-3.266-3.364-3.735-4.527c-0.448-1.089-0.674-1.592-1.072-2.695c-0.05-0.174-0.126-0.343-0.176-0.518
	c-0.101-0.35,0.035-0.822,0.435-0.937c0.425-0.122,0.772,0.049,0.944,0.459c0.068,0.143,0.126,0.343,0.169,0.493
	c0.483,1.403,2.047,5.715,3.108,6.303c0.285-0.137,0.557-0.511,0.717-0.801c0.752-1.244,0.917-2.833,0.516-4.232
	c-0.107-0.375,0.124-0.794,0.498-0.901c0.4-0.115,0.786,0.1,0.901,0.499C124.77,50.502,124.843,51.32,124.808,52.142z"/>
<path fill="#FFFFFF" d="M128.694,37.906c-0.175,0.05-0.34,0.042-0.493-0.021c-0.958-0.32-2.083-0.376-3.101-0.435
	c-0.328-0.014-0.575-0.213-0.669-0.539c-0.115-0.4,0.085-0.835,0.485-0.95c0.499-0.144,3.296,0.27,3.854,0.516
	c0.219,0.099,0.376,0.271,0.439,0.495C129.333,37.397,129.094,37.791,128.694,37.906z M129.273,43.311
	c-0.968,0.494-2.096,0.899-3.145,1.201c-0.45,0.129-1.104,0.209-1.276-0.391c-0.122-0.425,0.07-0.886,0.527-0.991l0.375-0.108
	c0.975-0.28,1.953-0.641,2.884-1.07l0.125-0.036c0.4-0.115,0.793,0.123,0.908,0.523C129.772,42.789,129.602,43.137,129.273,43.311z
	 M133.163,49.039c-0.474,1.082-4.042,5.895-5.042,6.182c-0.375,0.107-0.811-0.093-0.926-0.492c-0.093-0.325,0.043-0.606,0.307-0.818
	c1.191-0.937,3.541-4.154,4.282-5.531c0.106-0.192,0.253-0.342,0.453-0.4c0.424-0.122,0.85,0.134,0.965,0.535
	C133.252,48.688,133.228,48.884,133.163,49.039z M145.472,36.792c-0.8,0.229-1.64,0.417-2.439,0.646
	c-1.299,0.373-2.616,0.779-3.901,1.202c0.409,1.424,0.775,2.888,1.185,4.312c1.053-0.384,2.131-0.774,3.206-1.083
	c0.6-0.172,1.403-0.484,1.646,0.365c0.18,0.625,0.292,1.297,0.421,1.937c0.309,1.453,0.593,2.913,0.803,4.395
	c0.475-0.137,1.011-0.154,1.183,0.444c0.114,0.399-0.149,0.801-0.524,0.909c-1.799,0.517-3.609,1.09-5.372,1.732
	c-1.128,0.404-2.331,0.831-3.409,1.411c-0.067,0.047-0.093,0.054-0.168,0.076c-0.374,0.107-0.696-0.07-0.896-0.392
	c-0.283-0.514-0.541-1.413-0.706-1.988c-0.452-1.385-0.887-2.803-1.288-4.202c-0.144-0.5-0.366-1.085-0.435-1.605
	c-0.058-0.391,0.113-0.737,0.513-0.852c0.45-0.129,0.851,0.134,0.973,0.559c0.008,0.025-0.004,0.083,0.011,0.132
	c0.168-0.264,2.276-1.114,2.638-1.271c-0.416-1.449-0.79-2.938-1.206-4.388c-2.021,0.688-4.191,1.421-6.025,2.569
	c-0.067,0.047-0.143,0.069-0.218,0.09c-0.399,0.115-0.817-0.117-0.933-0.517c-0.094-0.326,0.042-0.607,0.307-0.818
	c1.224-0.919,4.95-2.261,6.478-2.781c-0.33-1.148-0.599-1.992-0.929-3.142c-0.108-0.375,0.034-0.821,0.459-0.943
	s0.778,0.074,0.95,0.483c0.402,1.022,0.646,2.061,0.948,3.111c1.359-0.445,2.728-0.865,4.102-1.259
	c0.725-0.208,1.511-0.488,2.264-0.596c0.439-0.072,0.782,0.181,0.904,0.606C146.117,36.309,145.821,36.692,145.472,36.792z
	 M140.593,31.674c-0.41,0.172-0.835,0.294-1.221,0.458c-2.017,0.796-4.427,1.732-6.221,2.923c-0.068,0.047-0.186,0.108-0.261,0.13
	c-0.399,0.115-0.817-0.117-0.933-0.517c-0.094-0.326,0.017-0.6,0.256-0.804c0.991-0.881,6.488-3.217,7.888-3.619
	c0.375-0.108,0.847,0.028,0.968,0.452C141.192,31.124,141.004,31.502,140.593,31.674z M139.594,44.865
	c-0.804,0.312-1.707,0.653-2.441,1.106c-0.068,0.047-0.111,0.086-0.211,0.115s-0.207,0.033-0.297,0.004
	c0.51,1.775,1.052,3.568,1.661,5.313c2.139-0.938,4.408-1.698,6.644-2.395c-0.3-1.89-0.655-3.789-1.062-5.674
	C142.445,43.776,141,44.299,139.594,44.865z"/>
<path fill="#FFFFFF" d="M156.771,31.6c-0.399,0.115-0.813,0.18-1.213,0.294c-0.85,0.244-1.686,0.538-2.521,0.832
	c-0.076,1.617-0.26,3.24-0.501,4.851c0.747-0.134,1.521-0.166,2.294-0.117c0.302-0.548,1.265-2.285,1.864-2.458
	c0.425-0.122,0.86,0.079,0.982,0.503c0.086,0.3,0.001,0.568-0.206,0.789c-0.389,0.438-0.706,0.934-1.016,1.456
	c0.617,0.174,2.004,0.668,2.198,1.343c0.129,0.45-0.109,0.844-0.535,0.966c-0.274,0.079-0.536,0.018-0.75-0.163
	c-0.493-0.4-1.068-0.613-1.672-0.737c-0.56,1.161-1.596,3.677-1.222,4.977c0.2,0.699,1.021,0.545,1.571,0.387
	c0.975-0.28,2.277-0.924,3.092-1.483c0.135-0.093,0.296-0.193,0.471-0.243c0.425-0.122,0.825,0.143,0.939,0.542
	c0.094,0.325-0.038,0.714-0.341,0.882c-1.196,0.641-2.331,1.399-3.655,1.779c-1.45,0.417-3.089,0.266-3.577-1.434
	c-0.467-1.624,0.426-4.073,1.082-5.559c-0.839-0.002-1.528,0.142-2.304,0.364c-0.425,0.122-0.868-0.103-0.982-0.502
	c-0.058-0.2-0.025-0.372,0.031-0.55c0.352-1.129,0.545-3.754,0.629-4.97c-0.653,0.27-1.307,0.538-1.92,0.85l-0.699,0.391
	c-0.051,0.015-0.144,0.068-0.193,0.082c-0.4,0.115-0.851-0.135-0.966-0.535c-0.1-0.35,0.071-0.696,0.367-0.89
	c1.031-0.648,2.377-1.143,3.491-1.598c0.017-0.6,0.009-1.193-0.106-1.782c-0.071-0.44,0.149-0.8,0.574-0.922
	c0.449-0.129,0.839,0.191,0.954,0.592c0.137,0.475,0.138,1.042,0.141,1.528c0.687-0.251,1.379-0.477,2.079-0.678
	c0.649-0.187,1.862-0.67,2.128,0.254C157.396,31.041,157.172,31.485,156.771,31.6z"/>
<path fill="#FFFFFF" d="M169.025,43.851c-0.399,0.115-0.843-0.109-0.958-0.509c-0.036-0.125-0.046-0.257,0-0.378
	c-0.637-0.9-2.932-2.297-3.986-2.669c-0.243-0.093-0.425-0.257-0.504-0.532c-0.115-0.4,0.084-0.836,0.509-0.958
	c0.7-0.201,5.083,2.247,5.527,3.796C169.75,43.075,169.551,43.701,169.025,43.851z"/>
<path fill="none" stroke="#FFFFFF" stroke-width="0.5" d="M37.073,83.156c-0.085,0.078-0.178,0.133-0.279,0.161
	c-0.399,0.114-0.85-0.136-0.965-0.534c-0.093-0.326,0.024-0.576,0.256-0.805c0.446-0.425,0.899-0.826,1.323-1.327
	c1.619-1.898,2.969-4.828,2.244-7.353c-0.603-2.1-2.062-3.412-4.241-3.651c0.068,5.418-1.79,10.063-6.332,13.181
	c-0.609,0.418-1.274,0.744-1.974,0.945c-2.149,0.617-3.775-0.241-4.393-2.391c-1.185-4.123,1.902-8.824,5.182-11.064
	c-0.435-1.606-0.819-3.228-1.021-4.874c-1.42,0.517-2.963,0.986-4.248,1.787c-0.068,0.048-0.168,0.076-0.243,0.098
	c-0.399,0.114-0.818-0.116-0.933-0.517c-0.101-0.35,0.035-0.633,0.299-0.844c0.743-0.618,3.958-1.758,4.969-2.103
	c-0.055-0.661-0.105-1.403,0.004-2.058c0.046-0.311,0.246-0.558,0.57-0.651c0.375-0.108,0.818,0.117,0.933,0.517
	c0.058,0.2-0.008,1.383,0.003,1.703c1.503-0.512,3.02-0.975,4.545-1.413c0.699-0.201,1.859-0.588,2.588-0.689
	c0.439-0.072,0.792,0.125,0.922,0.575c0.122,0.425-0.174,0.807-0.574,0.921c-0.775,0.223-1.539,0.388-2.313,0.611
	c-1.674,0.48-3.359,1.019-5.02,1.549c0.199,1.54,0.529,3.068,0.91,4.581c0.767-0.437,1.603-0.73,2.452-0.975
	c0.675-0.193,1.364-0.338,2.042-0.424c-0.047-0.635-0.145-1.256-0.217-1.885c-0.033-0.397,0.163-0.75,0.538-0.858
	c0.4-0.114,0.843,0.11,0.958,0.509c0.15,0.525,0.228,1.64,0.285,2.219c2.904,0.221,4.985,2.003,5.782,4.777
	C42.189,76.573,39.838,80.819,37.073,83.156z M32.212,69.997c-0.849,0.244-1.735,0.552-2.495,1.014
	c0.499,1.643,1.233,3.73,2.278,5.108c0.079,0.085,0.133,0.178,0.161,0.277c0.122,0.426-0.142,0.826-0.542,0.94
	c-0.324,0.094-0.567,0.001-0.796-0.23c-0.948-0.945-2.024-3.938-2.447-5.223c-2.533,1.919-5.146,5.726-4.191,9.049
	c0.388,1.35,1.177,1.746,2.527,1.357c0.524-0.15,1.045-0.408,1.521-0.734c4.128-2.862,5.733-6.976,5.645-11.9
	C33.301,69.738,32.762,69.839,32.212,69.997z"/>
<path fill="none" stroke="#FFFFFF" stroke-width="0.5" d="M50.938,60.047c-0.8,0.229-1.61,0.327-2.436,0.375
	c-0.56,3.138-2.021,8.507-3.856,11.064c-0.097,0.135-0.257,0.235-0.408,0.278c-0.425,0.122-0.843-0.11-0.964-0.534
	c-0.065-0.225-0.015-0.429,0.117-0.629c1.808-2.846,2.941-6.904,3.558-10.219c-0.583-0.051-1.279-0.12-1.829-0.341
	c-0.243-0.093-0.425-0.256-0.497-0.507c-0.115-0.399,0.109-0.842,0.509-0.957c0.175-0.05,0.29-0.029,0.436,0.01
	c0.554,0.139,1.068,0.233,1.625,0.29c0.089-0.539-0.002-1.324,0.648-1.511c0.399-0.115,0.818,0.116,0.926,0.491
	c0.064,0.225,0.008,0.782-0.035,1.01c0.611-0.039,1.232-0.137,1.807-0.302c0.774-0.222,1.389-0.534,1.995-1.059
	c0.11-0.086,0.203-0.14,0.328-0.176c0.4-0.115,0.818,0.116,0.933,0.517C54.09,58.871,51.688,59.832,50.938,60.047z M59.906,72.999
	c-0.375,0.107-0.696-0.069-0.896-0.392c-0.548-0.871-1.017-1.467-1.996-1.861c0.471,2.3-0.232,4.558-2.682,5.261
	c-1.974,0.567-3.438-0.663-3.968-2.513c-0.617-2.149,1.027-3.864,2.976-4.425c0.5-0.144,1.021-0.213,1.558-0.231
	c-0.413-1.531-1.39-5.308-0.385-6.707c0.121-0.143,0.225-0.254,0.425-0.311c0.399-0.115,0.818,0.117,0.933,0.516
	c0.072,0.25,0.032,0.396-0.092,0.623c-0.645,1.239,0.367,4.763,0.733,6.038c1.697,0.352,3.044,1.371,3.861,2.895
	c0.014,0.05,0.054,0.092,0.068,0.143C60.555,72.435,60.306,72.884,59.906,72.999z M53.763,70.544
	c-1.1,0.316-2.298,1.229-1.925,2.527c0.287,1,0.92,1.791,2.07,1.461c2.024-0.581,1.894-2.546,1.427-4.17
	C54.816,70.35,54.263,70.401,53.763,70.544z M59.984,62.156c-0.25,0.071-1.829-0.151-2.357-0.107
	c-0.372,0.025-0.75-0.163-0.858-0.538c-0.115-0.399,0.11-0.843,0.51-0.958c0.4-0.115,2.329,0.008,2.717,0.139
	c0.243,0.093,0.451,0.249,0.53,0.524C60.648,61.641,60.409,62.034,59.984,62.156z"/>
<path fill="none" stroke="#FFFFFF" stroke-width="0.5" d="M71.803,55.002c-1.142,0.734-2.556,1.275-3.866,1.706
	c-0.667,3.14-1.6,10.44-0.738,13.44c0.122,0.425,0.373,0.731,0.451,1.007c0.115,0.399-0.16,0.856-0.56,0.972
	c-0.824,0.236-1.211-0.924-1.384-1.523c-0.926-3.223-0.149-9.938,0.557-13.415c-0.764,0.166-1.564,0.396-2.35,0.485
	c-0.421,0.04-0.75-0.163-0.865-0.563c-0.115-0.399,0.077-0.862,0.51-0.958l0.1-0.028c0.996-0.205,2-0.385,2.974-0.665
	c0.117-0.438,0.213-0.954,0.395-1.356c0.1-0.219,0.271-0.376,0.521-0.448c0.4-0.115,0.843,0.11,0.958,0.509
	c0.072,0.25,0.037,0.503-0.096,0.703c0.911-0.315,1.735-0.74,2.578-1.199c0.068-0.047,0.118-0.062,0.192-0.083
	c0.425-0.122,0.843,0.109,0.965,0.535C72.245,54.469,72.1,54.809,71.803,55.002z M80.097,58.165
	c-0.101,0.028-0.207,0.033-0.314,0.036c-0.329-0.015-0.667,0.029-0.993,0.123c-1.125,0.323-2.249,1.025-3.144,1.769
	c-0.086,0.079-0.179,0.133-0.303,0.168c-0.426,0.122-0.868-0.103-0.99-0.527c-0.086-0.3,0.017-0.599,0.231-0.796
	c0.891-0.851,2.583-1.744,3.757-2.081c0.65-0.187,2.014-0.523,2.272,0.376C80.728,57.632,80.497,58.051,80.097,58.165z
	 M82.416,66.805c-1.199,0.345-4.188,0.581-5.35,0.212c-0.268-0.086-0.451-0.25-0.522-0.5c-0.122-0.425,0.095-0.893,0.52-1.015
	c0.175-0.05,0.289-0.03,0.436,0.009c1.328,0.295,3.207,0.053,4.535-0.22c0.457-0.104,0.817,0.117,0.947,0.566
	C83.104,66.282,82.816,66.691,82.416,66.805z"/>
<path fill="none" stroke="#FFFFFF" stroke-width="0.5" d="M96.872,63.276c-0.096,0.136-0.257,0.236-0.406,0.279
	c-0.399,0.115-0.85-0.134-0.965-0.534c-0.072-0.251-0.022-0.454,0.127-0.686c0.317-0.498,0.648-0.944,0.926-1.484
	c1.033-2.055,1.561-5.02,0.915-7.269c-0.933-3.249-3.417-4.646-6.723-3.724c0.644,0.546,1.306,1.438,1.542,2.263
	c0.309,1.074,0.41,2.182,0.322,3.289c-0.183,2.189-1.414,5.626-3.788,6.308c-2.324,0.667-4.522-0.865-5.168-3.114
	c-1.363-4.749,2.145-8.92,6.567-10.191c4.174-1.199,7.523,0.571,8.722,4.745C99.855,56.332,98.89,60.694,96.872,63.276z
	 M89.23,50.699c-0.097-0.053-0.154-0.063-0.208-0.157c-2.827,1.461-4.826,4.389-3.893,7.638c0.409,1.425,1.739,2.477,3.264,2.039
	c0.524-0.151,1.017-0.698,1.33-1.113c1.319-1.812,1.677-4.431,1.066-6.555C90.574,51.802,89.905,51.074,89.23,50.699z"/>
<path fill="none" stroke="#FFFFFF" stroke-width="0.5" d="M112.321,43.797c-0.55,0.158-1.089,0.259-1.639,0.417
	c-2.949,0.847-5.886,1.826-8.756,2.948c-0.511,0.201-1.025,0.483-1.535,0.684l-0.15,0.043c-0.399,0.115-0.803-0.066-0.918-0.466
	c-0.101-0.35,0.078-0.672,0.374-0.866c0.618-0.393,1.56-0.691,2.246-0.942c2.734-1.028,5.521-1.965,8.321-2.769
	c0.55-0.158,1.16-0.387,1.714-0.438c0.389-0.058,0.729,0.089,0.843,0.488C112.934,43.298,112.696,43.69,112.321,43.797z
	 M111.37,51.321c-0.7,0.201-1.417,0.434-2.11,0.66l0.33,1.149c0.46,1.6,0.894,3.207,1.278,4.828
	c0.169,0.681,0.502,1.748,0.539,2.442c0.019,0.346-0.177,0.701-0.527,0.801c-0.375,0.107-2.54-0.083-2.936-0.239
	c-0.244-0.093-0.418-0.232-0.49-0.482c-0.108-0.375,0.124-0.792,0.499-0.9c0.225-0.064,1.514,0.187,1.843,0.201
	c-0.463-2.085-1.002-4.148-1.59-6.198l-0.323-1.124c-0.568,0.189-1.153,0.412-1.706,0.651c-0.032,0.361-0.207,0.601-0.531,0.694
	c-0.375,0.108-0.729-0.088-0.887-0.448c-0.144-0.311-0.226-0.693-0.319-1.018c-0.24-0.743-0.448-1.468-0.664-2.217l-0.502-1.749
	c-0.108-0.376,0.067-0.804,0.467-0.918c0.399-0.115,0.786,0.098,0.926,0.491c1.178-0.609,2.505-1.072,3.78-1.438
	c0.575-0.166,2.038-0.721,2.297,0.179c0.301,1.051,0.46,2.168,0.637,3.253c0.235,0.068,0.418,0.231,0.489,0.481
	C111.977,50.795,111.745,51.213,111.37,51.321z M104.636,60.937c-0.399,0.115-0.792-0.123-0.9-0.498
	c-0.086-0.3,0.006-0.543,0.22-0.74c0.756-0.757,2.181-3.709,2.465-4.792c0.085-0.268,0.242-0.476,0.517-0.555
	c0.375-0.107,0.794,0.123,0.901,0.499C108.069,55.651,105.461,60.7,104.636,60.937z M105.845,43.385
	c-0.3,0.086-0.625-0.011-0.804-0.256c-0.265-0.357-1.181-1.852-1.289-2.228c-0.115-0.399,0.124-0.792,0.498-0.9
	c0.4-0.115,0.729,0.089,0.887,0.448c0.24,0.554,1.113,1.71,1.206,2.034C106.451,42.86,106.22,43.278,105.845,43.385z M108.83,47.938
	c-1.2,0.345-2.674,0.768-3.755,1.431l0.675,2.35c1.349-0.578,2.784-1.044,4.201-1.478c-0.105-0.836-0.267-1.682-0.446-2.496
	L108.83,47.938z M113.888,56.414c-0.3,0.086-0.575-0.024-0.779-0.264c-0.447-0.521-1.653-1.419-2.242-1.872
	c-0.135-0.096-0.229-0.231-0.272-0.382c-0.107-0.374,0.124-0.793,0.499-0.901c0.225-0.064,0.429-0.014,0.628,0.118
	c0.472,0.324,2.51,1.957,2.64,2.407C114.462,55.87,114.263,56.306,113.888,56.414z M120.758,44.73
	c-1.374,0.395-2.759,0.846-4.12,1.291c0.369,3.355,0.817,10.099-0.432,13.189c-0.1,0.218-0.271,0.376-0.496,0.44
	c-0.375,0.108-0.786-0.1-0.901-0.499c-0.042-0.149-0.021-0.264,0.018-0.411c1.096-3.534,0.756-8.576,0.401-12.262
	c-0.91,0.316-1.757,0.478-2.592,0.961c-0.043,0.04-0.093,0.054-0.143,0.068c-0.4,0.115-0.769-0.132-0.876-0.507
	c-0.101-0.35,0.035-0.632,0.331-0.825c0.778-0.494,2.217-0.853,3.127-1.169l-0.382-2.649c-0.051-0.364,0.113-0.736,0.488-0.844
	c0.399-0.115,0.811,0.092,0.926,0.492c0.187,0.649,0.284,1.839,0.371,2.517c1.317-0.405,2.628-0.835,3.953-1.215
	c0.5-0.144,1.003-0.18,1.183,0.445C121.801,44.403,121.233,44.593,120.758,44.73z M119.356,41.263
	c-0.225,0.064-0.446,0.047-0.653-0.11c-0.758-0.567-1.589-2.329-1.841-3.204c-0.108-0.374,0.131-0.769,0.506-0.876
	c0.375-0.107,0.729,0.089,0.854,0.431c0.284,0.703,0.772,2.024,1.369,2.501c0.11,0.104,0.197,0.214,0.247,0.389
	C119.945,40.769,119.731,41.156,119.356,41.263z M124.808,52.142c-0.112,1.493-0.898,3.937-2.497,4.396l-0.075,0.021
	c-1.825,0.524-3.266-3.364-3.735-4.527c-0.448-1.089-0.674-1.592-1.072-2.695c-0.05-0.174-0.126-0.343-0.176-0.518
	c-0.101-0.35,0.035-0.822,0.435-0.937c0.425-0.122,0.772,0.049,0.944,0.459c0.068,0.143,0.126,0.343,0.169,0.493
	c0.483,1.403,2.047,5.715,3.108,6.303c0.285-0.137,0.557-0.511,0.717-0.801c0.752-1.244,0.917-2.833,0.516-4.232
	c-0.107-0.375,0.124-0.794,0.498-0.901c0.4-0.115,0.786,0.1,0.901,0.499C124.77,50.502,124.843,51.32,124.808,52.142z"/>
<path fill="none" stroke="#FFFFFF" stroke-width="0.5" d="M128.694,37.906c-0.175,0.05-0.34,0.042-0.493-0.021
	c-0.958-0.32-2.083-0.376-3.101-0.435c-0.328-0.014-0.575-0.213-0.669-0.539c-0.115-0.4,0.085-0.835,0.485-0.95
	c0.499-0.144,3.296,0.27,3.854,0.516c0.219,0.099,0.376,0.271,0.439,0.495C129.333,37.397,129.094,37.791,128.694,37.906z
	 M129.273,43.311c-0.968,0.494-2.096,0.899-3.145,1.201c-0.45,0.129-1.104,0.209-1.276-0.391c-0.122-0.425,0.07-0.886,0.527-0.991
	l0.375-0.108c0.975-0.28,1.953-0.641,2.884-1.07l0.125-0.036c0.4-0.115,0.793,0.123,0.908,0.523
	C129.772,42.789,129.602,43.137,129.273,43.311z M133.163,49.039c-0.474,1.082-4.042,5.895-5.042,6.182
	c-0.375,0.107-0.811-0.093-0.926-0.492c-0.093-0.325,0.043-0.606,0.307-0.818c1.191-0.937,3.541-4.154,4.282-5.531
	c0.106-0.192,0.253-0.342,0.453-0.4c0.424-0.122,0.85,0.134,0.965,0.535C133.252,48.688,133.228,48.884,133.163,49.039z
	 M145.472,36.792c-0.8,0.229-1.64,0.417-2.439,0.646c-1.299,0.373-2.616,0.779-3.901,1.202c0.409,1.424,0.775,2.888,1.185,4.312
	c1.053-0.384,2.131-0.774,3.206-1.083c0.6-0.172,1.403-0.484,1.646,0.365c0.18,0.625,0.292,1.297,0.421,1.937
	c0.309,1.453,0.593,2.913,0.803,4.395c0.475-0.137,1.011-0.154,1.183,0.444c0.114,0.399-0.149,0.801-0.524,0.909
	c-1.799,0.517-3.609,1.09-5.372,1.732c-1.128,0.404-2.331,0.831-3.409,1.411c-0.067,0.047-0.093,0.054-0.168,0.076
	c-0.374,0.107-0.696-0.07-0.896-0.392c-0.283-0.514-0.541-1.413-0.706-1.988c-0.452-1.385-0.887-2.803-1.288-4.202
	c-0.144-0.5-0.366-1.085-0.435-1.605c-0.058-0.391,0.113-0.737,0.513-0.852c0.45-0.129,0.851,0.134,0.973,0.559
	c0.008,0.025-0.004,0.083,0.011,0.132c0.168-0.264,2.276-1.114,2.638-1.271c-0.416-1.449-0.79-2.938-1.206-4.388
	c-2.021,0.688-4.191,1.421-6.025,2.569c-0.067,0.047-0.143,0.069-0.218,0.09c-0.399,0.115-0.817-0.117-0.933-0.517
	c-0.094-0.326,0.042-0.607,0.307-0.818c1.224-0.919,4.95-2.261,6.478-2.781c-0.33-1.148-0.599-1.992-0.929-3.142
	c-0.108-0.375,0.034-0.821,0.459-0.943s0.778,0.074,0.95,0.483c0.402,1.022,0.646,2.061,0.948,3.111
	c1.359-0.445,2.728-0.865,4.102-1.259c0.725-0.208,1.511-0.488,2.264-0.596c0.439-0.072,0.782,0.181,0.904,0.606
	C146.117,36.309,145.821,36.692,145.472,36.792z M140.593,31.674c-0.41,0.172-0.835,0.294-1.221,0.458
	c-2.017,0.796-4.427,1.732-6.221,2.923c-0.068,0.047-0.186,0.108-0.261,0.13c-0.399,0.115-0.817-0.117-0.933-0.517
	c-0.094-0.326,0.017-0.6,0.256-0.804c0.991-0.881,6.488-3.217,7.888-3.619c0.375-0.108,0.847,0.028,0.968,0.452
	C141.192,31.124,141.004,31.502,140.593,31.674z M139.594,44.865c-0.804,0.312-1.707,0.653-2.441,1.106
	c-0.068,0.047-0.111,0.086-0.211,0.115s-0.207,0.033-0.297,0.004c0.51,1.775,1.052,3.568,1.661,5.313
	c2.139-0.938,4.408-1.698,6.644-2.395c-0.3-1.89-0.655-3.789-1.062-5.674C142.445,43.776,141,44.299,139.594,44.865z"/>
<path fill="none" stroke="#FFFFFF" stroke-width="0.5" d="M156.771,31.6c-0.399,0.115-0.813,0.18-1.213,0.294
	c-0.85,0.244-1.686,0.538-2.521,0.832c-0.076,1.617-0.26,3.24-0.501,4.851c0.747-0.134,1.521-0.166,2.294-0.117
	c0.302-0.548,1.265-2.285,1.864-2.458c0.425-0.122,0.86,0.079,0.982,0.503c0.086,0.3,0.001,0.568-0.206,0.789
	c-0.389,0.438-0.706,0.934-1.016,1.456c0.617,0.174,2.004,0.668,2.198,1.343c0.129,0.45-0.109,0.844-0.535,0.966
	c-0.274,0.079-0.536,0.018-0.75-0.163c-0.493-0.4-1.068-0.613-1.672-0.737c-0.56,1.161-1.596,3.677-1.222,4.977
	c0.2,0.699,1.021,0.545,1.571,0.387c0.975-0.28,2.277-0.924,3.092-1.483c0.135-0.093,0.296-0.193,0.471-0.243
	c0.425-0.122,0.825,0.143,0.939,0.542c0.094,0.325-0.038,0.714-0.341,0.882c-1.196,0.641-2.331,1.399-3.655,1.779
	c-1.45,0.417-3.089,0.266-3.577-1.434c-0.467-1.624,0.426-4.073,1.082-5.559c-0.839-0.002-1.528,0.142-2.304,0.364
	c-0.425,0.122-0.868-0.103-0.982-0.502c-0.058-0.2-0.025-0.372,0.031-0.55c0.352-1.129,0.545-3.754,0.629-4.97
	c-0.653,0.27-1.307,0.538-1.92,0.85l-0.699,0.391c-0.051,0.015-0.144,0.068-0.193,0.082c-0.4,0.115-0.851-0.135-0.966-0.535
	c-0.1-0.35,0.071-0.696,0.367-0.89c1.031-0.648,2.377-1.143,3.491-1.598c0.017-0.6,0.009-1.193-0.106-1.782
	c-0.071-0.44,0.149-0.8,0.574-0.922c0.449-0.129,0.839,0.191,0.954,0.592c0.137,0.475,0.138,1.042,0.141,1.528
	c0.687-0.251,1.379-0.477,2.079-0.678c0.649-0.187,1.862-0.67,2.128,0.254C157.396,31.041,157.172,31.485,156.771,31.6z"/>
<path fill="none" stroke="#FFFFFF" stroke-width="0.5" d="M169.025,43.851c-0.399,0.115-0.843-0.109-0.958-0.509
	c-0.036-0.125-0.046-0.257,0-0.378c-0.637-0.9-2.932-2.297-3.986-2.669c-0.243-0.093-0.425-0.257-0.504-0.532
	c-0.115-0.4,0.084-0.836,0.509-0.958c0.7-0.201,5.083,2.247,5.527,3.796C169.75,43.075,169.551,43.701,169.025,43.851z"/>
<path fill="#FFFFFF" d="M27.355,115.538c-0.125,0.036-2.782,0.016-3.211,0.029c0.359,1.439,0.711,2.854,1.02,4.306
	c0.137,0.665,0.313,1.371,0.399,2.05c0.054,0.471-0.188,0.759-0.613,0.881c-0.375,0.107-0.783-0.183-0.858-0.539l-0.021-0.074
	c-0.528-2.311-1.007-4.635-1.585-6.932l-0.09-0.218l-1.209,3.702c-0.153,0.504-0.299,1.033-0.476,1.543
	c-0.085,0.269-0.25,0.451-0.525,0.53c-0.425,0.122-0.818-0.117-0.94-0.542c-0.036-0.125-0.047-0.257-0.007-0.403
	c0.109-0.465,0.277-0.918,0.419-1.365l0.861-2.654c0.829-2.483,1.633-4.959,2.486-7.45l-0.25,0.072
	c-1.657,0.448-3.388,1.108-4.865,1.992c-0.068,0.046-0.119,0.061-0.193,0.082c-0.425,0.122-0.825-0.142-0.94-0.541
	c-0.101-0.351,0.01-0.625,0.299-0.844c1.052-0.762,3.976-1.791,5.251-2.157c0.625-0.18,2.295-0.768,2.567,0.183
	c0.051,0.175,0.036,0.313-0.021,0.493c-0.128,0.495-0.338,0.989-0.498,1.468l-1.045,3.142c0.14,0.581,0.287,1.188,0.452,1.763
	c0.8-0.04,2.714-0.157,3.457-0.019c0.311,0.046,0.583,0.237,0.676,0.563C28.012,114.998,27.755,115.424,27.355,115.538z
	 M20.913,105.54c-0.299,0.086-0.703-0.284-0.782-0.56c-0.036-0.125-0.022-0.265-0.065-0.414c-0.244-0.851-1.142-1.999-1.775-2.602
	c-0.111-0.104-0.197-0.214-0.24-0.364c-0.115-0.399,0.142-0.825,0.542-0.939c0.274-0.079,0.51-0.012,0.725,0.17
	c0.833,0.734,1.896,2.27,2.205,3.344C21.723,104.875,21.688,105.318,20.913,105.54z M40.367,115.534
	c-0.45,0.13-0.933,0.24-1.382,0.37c-1.899,0.545-3.785,1.141-5.655,1.786c-1.16,0.388-2.377,0.765-3.448,1.37
	c-0.068,0.046-0.118,0.061-0.193,0.082c-0.4,0.114-0.818-0.117-0.94-0.541c-0.101-0.351,0.053-0.665,0.349-0.858
	c0.814-0.558,3.391-1.38,4.376-1.717l-0.18-0.625c-0.635-2.116-1.138-4.245-1.648-6.397c-0.96,0.329-2.756,0.954-3.554,1.563
	c-0.086,0.078-0.178,0.132-0.279,0.161c-0.399,0.114-0.818-0.118-0.934-0.518c-0.093-0.325,0.018-0.6,0.25-0.828
	c0.728-0.669,3.209-1.544,4.168-1.874c-0.258-1.09-0.517-2.179-0.743-3.25c-0.133-0.557-0.305-1.155-0.332-1.717
	c-0.032-0.396,0.171-0.726,0.571-0.84c0.4-0.115,0.793,0.124,0.908,0.523l0.036,0.125c0.238,1.582,0.633,3.146,0.996,4.691
	c0.625-0.179,1.242-0.384,1.893-0.57c0.624-0.18,1.292-0.397,1.932-0.527c0.407-0.09,0.811,0.091,0.933,0.517
	c0.114,0.399-0.117,0.817-0.517,0.933c-1.3,0.373-2.574,0.739-3.867,1.138c0.511,2.153,1.021,4.306,1.656,6.423l0.172,0.6
	c1.235-0.409,2.459-0.761,3.709-1.119c0.424-0.122,0.892-0.284,1.349-0.388c0.432-0.097,0.793,0.124,0.915,0.549
	S40.766,115.42,40.367,115.534z"/>
<path fill="#FFFFFF" d="M62.846,100.856l-0.125,0.035c-1.357,0.174-2.817,0.646-4.117,1.02c-3.374,0.97-6.719,2.039-10.042,3.183
	c0.439,2.281,0.942,4.599,1.581,6.822c0.158,0.551,0.316,1.101,0.523,1.635c0.553-0.617,1.027-1.322,1.548-1.959
	c0.121-0.143,0.224-0.254,0.399-0.304c0.399-0.115,0.851,0.135,0.965,0.534c0.064,0.225,0.015,0.43-0.117,0.629
	c-0.292,0.489-0.774,0.979-1.13,1.434c-0.382,0.461-0.749,0.973-1.13,1.435c-0.122,0.142-0.232,0.228-0.407,0.277
	c-1.25,0.359-1.96-2.683-2.154-3.357c-0.625-2.175-1.082-4.424-1.531-6.647c-2.088,0.734-4.176,1.47-6.136,2.466
	c-0.051,0.015-0.143,0.068-0.192,0.083c-0.4,0.114-0.818-0.117-0.933-0.517c-0.101-0.351,0.034-0.634,0.298-0.844
	c1.063-0.82,6.322-2.573,7.75-3.064c-0.125-0.343-0.232-0.717-0.34-1.093c-0.703-2.449-1.232-4.948-1.81-7.433L45.602,94.5
	c-0.261-0.061-0.401-0.264-0.473-0.514c-0.108-0.375,0.063-0.722,0.424-0.88c0.713-0.34,1.513-0.569,2.256-0.811
	c1.31-0.43,2.653-0.843,4.001-1.23c0.575-0.165,1.261-0.416,1.491,0.384c0.237,0.825-0.731,0.94-1.256,1.091
	c-1.674,0.481-3.327,1.037-4.973,1.618c0.115,0.778,0.331,1.528,0.521,2.285c1.295-0.48,2.613-0.886,3.912-1.259
	c0.675-0.193,1.917-0.767,2.204,0.233c0.108,0.375-0.149,0.799-0.523,0.907c-0.475,0.136-0.982,0.254-1.482,0.397
	c-1.274,0.366-2.549,0.732-3.77,1.191l0.414,1.722c1.289-0.506,2.606-0.911,3.93-1.291c0.475-0.137,1.035-0.353,1.539-0.388
	c0.396-0.033,0.75,0.162,0.865,0.563c0.115,0.399-0.149,0.8-0.548,0.915c-0.45,0.129-0.907,0.234-1.357,0.363
	c-1.35,0.388-2.749,0.789-4.056,1.326c0.115,0.399,0.205,0.806,0.327,1.231c0.079,0.275,0.165,0.574,0.276,0.868
	c2.863-0.957,5.74-1.865,8.639-2.698c1.025-0.294,2.049-0.588,3.088-0.833c0.482-0.11,1.024-0.294,1.536-0.306
	c0.378,0.001,0.693,0.152,0.8,0.528C63.502,100.315,63.246,100.74,62.846,100.856z M62.152,110.307
	c-0.1,0.028-0.232,0.039-0.332,0.067c-2.19-0.372-5.867-1.778-7.897-2.817c-0.218-0.1-0.382-0.296-0.447-0.521
	c-0.115-0.399,0.131-0.768,0.531-0.882c0.4-0.115,1.262,0.34,1.665,0.522c0.51-0.579,3.288-3.623,3.763-3.76
	c0.4-0.114,0.843,0.11,0.958,0.51c0.086,0.3-0.024,0.575-0.231,0.797c-1.013,0.995-2.019,2.014-2.993,3.051
	c1.594,0.651,3.198,1.245,4.896,1.597c0.286,0.054,0.525,0.229,0.611,0.528C62.797,109.823,62.552,110.192,62.152,110.307z"/>
<path fill="#FFFFFF" d="M80.104,89.568c-1.142,0.733-2.555,1.275-3.865,1.705c-0.667,3.141-1.601,10.442-0.739,13.44
	c0.122,0.425,0.372,0.732,0.451,1.007c0.115,0.4-0.159,0.857-0.559,0.973c-0.825,0.236-1.212-0.924-1.385-1.523
	c-0.926-3.225-0.149-9.939,0.557-13.415c-0.765,0.165-1.564,0.396-2.35,0.484c-0.421,0.041-0.75-0.163-0.865-0.563
	c-0.115-0.399,0.077-0.861,0.509-0.958l0.101-0.029c0.996-0.204,2-0.385,2.974-0.664c0.117-0.44,0.213-0.954,0.395-1.358
	c0.1-0.218,0.271-0.374,0.521-0.446c0.4-0.115,0.843,0.109,0.958,0.51c0.072,0.249,0.036,0.503-0.095,0.703
	c0.91-0.315,1.735-0.742,2.577-1.199c0.067-0.047,0.117-0.062,0.192-0.083c0.425-0.122,0.843,0.108,0.965,0.534
	C80.546,89.034,80.4,89.375,80.104,89.568z M88.398,92.731c-0.101,0.028-0.208,0.032-0.315,0.037
	c-0.329-0.014-0.667,0.029-0.992,0.122c-1.125,0.323-2.249,1.024-3.144,1.769c-0.085,0.08-0.179,0.133-0.304,0.169
	c-0.425,0.122-0.868-0.103-0.99-0.527c-0.086-0.3,0.018-0.601,0.231-0.798c0.892-0.851,2.583-1.742,3.758-2.079
	c0.649-0.188,2.014-0.523,2.272,0.375C89.029,92.198,88.797,92.615,88.398,92.731z M90.716,101.371
	c-1.2,0.345-4.188,0.58-5.35,0.211c-0.268-0.086-0.45-0.249-0.521-0.499c-0.123-0.425,0.095-0.894,0.52-1.016
	c0.175-0.05,0.289-0.029,0.436,0.011c1.329,0.293,3.207,0.052,4.536-0.221c0.457-0.104,0.817,0.116,0.947,0.566
	C91.405,100.849,91.116,101.256,90.716,101.371z"/>
<path fill="#FFFFFF" d="M103.685,84.67c-0.175,0.051-0.364,0.051-0.55-0.031c-0.79-0.018-2.738,0.543-3.538,0.772
	c-0.4,0.114-0.793,0.255-1.192,0.37c0.206,1.753,0.197,3.514,0.378,5.274l0.05-0.015c0.2-0.057,0.411-0.171,0.61-0.229
	c0.486-0.193,0.979-0.362,1.478-0.506c1.625-0.467,3.914-0.691,4.509,1.383c0.646,2.249-0.864,5.279-1.94,7.185
	c-0.329,0.554-0.667,1.165-1.026,1.701c-0.097,0.137-0.3,0.276-0.45,0.319c-0.399,0.115-0.854-0.053-0.976-0.478
	c-0.064-0.225,0.003-0.461,0.11-0.653c1.065-1.849,3.399-5.495,2.782-7.644c-0.28-0.975-1.88-0.516-2.555-0.322
	c-0.924,0.266-1.824,0.714-2.724,0.972c-0.699,0.201-1.082-0.095-1.269-0.744c-0.323-1.125-0.372-5.438-0.508-5.725
	c-0.61,0.229-1.246,0.466-1.796,0.813c-0.067,0.047-0.135,0.094-0.235,0.122c-0.425,0.122-0.825-0.143-0.947-0.567
	c-0.093-0.325,0.01-0.624,0.299-0.843c0.585-0.412,1.906-0.899,2.599-1.126c-0.047-0.635-0.256-1.927,0.543-2.157
	c0.425-0.122,0.85,0.134,0.965,0.534c0.079,0.274,0.016,0.808,0.019,1.104c1.225-0.352,2.443-0.729,3.678-0.947
	c0.589-0.115,1.653-0.367,2.096,0.235c0.047,0.068,0.101,0.161,0.122,0.236C104.341,84.13,104.11,84.548,103.685,84.67z"/>
<path fill="none" stroke="#FFFFFF" stroke-width="0.5" d="M27.355,115.538c-0.125,0.036-2.782,0.016-3.211,0.029
	c0.359,1.439,0.711,2.854,1.02,4.306c0.137,0.665,0.313,1.371,0.399,2.05c0.054,0.471-0.188,0.759-0.613,0.881
	c-0.375,0.107-0.783-0.183-0.858-0.539l-0.021-0.074c-0.528-2.311-1.007-4.635-1.585-6.932l-0.09-0.218l-1.209,3.702
	c-0.153,0.504-0.299,1.033-0.476,1.543c-0.085,0.269-0.25,0.451-0.525,0.53c-0.425,0.122-0.818-0.117-0.94-0.542
	c-0.036-0.125-0.047-0.257-0.007-0.403c0.109-0.465,0.277-0.918,0.419-1.365l0.861-2.654c0.829-2.483,1.633-4.959,2.486-7.45
	l-0.25,0.072c-1.657,0.448-3.388,1.108-4.865,1.992c-0.068,0.046-0.119,0.061-0.193,0.082c-0.425,0.122-0.825-0.142-0.94-0.541
	c-0.101-0.351,0.01-0.625,0.299-0.844c1.052-0.762,3.976-1.791,5.251-2.157c0.625-0.18,2.295-0.768,2.567,0.183
	c0.051,0.175,0.036,0.313-0.021,0.493c-0.128,0.495-0.338,0.989-0.498,1.468l-1.045,3.142c0.14,0.581,0.287,1.188,0.452,1.763
	c0.8-0.04,2.714-0.157,3.457-0.019c0.311,0.046,0.583,0.237,0.676,0.563C28.012,114.998,27.755,115.424,27.355,115.538z
	 M20.913,105.54c-0.299,0.086-0.703-0.284-0.782-0.56c-0.036-0.125-0.022-0.265-0.065-0.414c-0.244-0.851-1.142-1.999-1.775-2.602
	c-0.111-0.104-0.197-0.214-0.24-0.364c-0.115-0.399,0.142-0.825,0.542-0.939c0.274-0.079,0.51-0.012,0.725,0.17
	c0.833,0.734,1.896,2.27,2.205,3.344C21.723,104.875,21.688,105.318,20.913,105.54z M40.367,115.534
	c-0.45,0.13-0.933,0.24-1.382,0.37c-1.899,0.545-3.785,1.141-5.655,1.786c-1.16,0.388-2.377,0.765-3.448,1.37
	c-0.068,0.046-0.118,0.061-0.193,0.082c-0.4,0.114-0.818-0.117-0.94-0.541c-0.101-0.351,0.053-0.665,0.349-0.858
	c0.814-0.558,3.391-1.38,4.376-1.717l-0.18-0.625c-0.635-2.116-1.138-4.245-1.648-6.397c-0.96,0.329-2.756,0.954-3.554,1.563
	c-0.086,0.078-0.178,0.132-0.279,0.161c-0.399,0.114-0.818-0.118-0.934-0.518c-0.093-0.325,0.018-0.6,0.25-0.828
	c0.728-0.669,3.209-1.544,4.168-1.874c-0.258-1.09-0.517-2.179-0.743-3.25c-0.133-0.557-0.305-1.155-0.332-1.717
	c-0.032-0.396,0.171-0.726,0.571-0.84c0.4-0.115,0.793,0.124,0.908,0.523l0.036,0.125c0.238,1.582,0.633,3.146,0.996,4.691
	c0.625-0.179,1.242-0.384,1.893-0.57c0.624-0.18,1.292-0.397,1.932-0.527c0.407-0.09,0.811,0.091,0.933,0.517
	c0.114,0.399-0.117,0.817-0.517,0.933c-1.3,0.373-2.574,0.739-3.867,1.138c0.511,2.153,1.021,4.306,1.656,6.423l0.172,0.6
	c1.235-0.409,2.459-0.761,3.709-1.119c0.424-0.122,0.892-0.284,1.349-0.388c0.432-0.097,0.793,0.124,0.915,0.549
	S40.766,115.42,40.367,115.534z"/>
<path fill="none" stroke="#FFFFFF" stroke-width="0.5" d="M62.846,100.856l-0.125,0.035c-1.357,0.174-2.817,0.646-4.117,1.02
	c-3.374,0.97-6.719,2.039-10.042,3.183c0.439,2.281,0.942,4.599,1.581,6.822c0.158,0.551,0.316,1.101,0.523,1.635
	c0.553-0.617,1.027-1.322,1.548-1.959c0.121-0.143,0.224-0.254,0.399-0.304c0.399-0.115,0.851,0.135,0.965,0.534
	c0.064,0.225,0.015,0.43-0.117,0.629c-0.292,0.489-0.774,0.979-1.13,1.434c-0.382,0.461-0.749,0.973-1.13,1.435
	c-0.122,0.142-0.232,0.228-0.407,0.277c-1.25,0.359-1.96-2.683-2.154-3.357c-0.625-2.175-1.082-4.424-1.531-6.647
	c-2.088,0.734-4.176,1.47-6.136,2.466c-0.051,0.015-0.143,0.068-0.192,0.083c-0.4,0.114-0.818-0.117-0.933-0.517
	c-0.101-0.351,0.034-0.634,0.298-0.844c1.063-0.82,6.322-2.573,7.75-3.064c-0.125-0.343-0.232-0.717-0.34-1.093
	c-0.703-2.449-1.232-4.948-1.81-7.433L45.602,94.5c-0.261-0.061-0.401-0.264-0.473-0.514c-0.108-0.375,0.063-0.722,0.424-0.88
	c0.713-0.34,1.513-0.569,2.256-0.811c1.31-0.43,2.653-0.843,4.001-1.23c0.575-0.165,1.261-0.416,1.491,0.384
	c0.237,0.825-0.731,0.94-1.256,1.091c-1.674,0.481-3.327,1.037-4.973,1.618c0.115,0.778,0.331,1.528,0.521,2.285
	c1.295-0.48,2.613-0.886,3.912-1.259c0.675-0.193,1.917-0.767,2.204,0.233c0.108,0.375-0.149,0.799-0.523,0.907
	c-0.475,0.136-0.982,0.254-1.482,0.397c-1.274,0.366-2.549,0.732-3.77,1.191l0.414,1.722c1.289-0.506,2.606-0.911,3.93-1.291
	c0.475-0.137,1.035-0.353,1.539-0.388c0.396-0.033,0.75,0.162,0.865,0.563c0.115,0.399-0.149,0.8-0.548,0.915
	c-0.45,0.129-0.907,0.234-1.357,0.363c-1.35,0.388-2.749,0.789-4.056,1.326c0.115,0.399,0.205,0.806,0.327,1.231
	c0.079,0.275,0.165,0.574,0.276,0.868c2.863-0.957,5.74-1.865,8.639-2.698c1.025-0.294,2.049-0.588,3.088-0.833
	c0.482-0.11,1.024-0.294,1.536-0.306c0.378,0.001,0.693,0.152,0.8,0.528C63.502,100.315,63.246,100.74,62.846,100.856z
	 M62.152,110.307c-0.1,0.028-0.232,0.039-0.332,0.067c-2.19-0.372-5.867-1.778-7.897-2.817c-0.218-0.1-0.382-0.296-0.447-0.521
	c-0.115-0.399,0.131-0.768,0.531-0.882c0.4-0.115,1.262,0.34,1.665,0.522c0.51-0.579,3.288-3.623,3.763-3.76
	c0.4-0.114,0.843,0.11,0.958,0.51c0.086,0.3-0.024,0.575-0.231,0.797c-1.013,0.995-2.019,2.014-2.993,3.051
	c1.594,0.651,3.198,1.245,4.896,1.597c0.286,0.054,0.525,0.229,0.611,0.528C62.797,109.823,62.552,110.192,62.152,110.307z"/>
<path fill="none" stroke="#FFFFFF" stroke-width="0.5" d="M80.104,89.568c-1.142,0.733-2.555,1.275-3.865,1.705
	c-0.667,3.141-1.601,10.442-0.739,13.44c0.122,0.425,0.372,0.732,0.451,1.007c0.115,0.4-0.159,0.857-0.559,0.973
	c-0.825,0.236-1.212-0.924-1.385-1.523c-0.926-3.225-0.149-9.939,0.557-13.415c-0.765,0.165-1.564,0.396-2.35,0.484
	c-0.421,0.041-0.75-0.163-0.865-0.563c-0.115-0.399,0.077-0.861,0.509-0.958l0.101-0.029c0.996-0.204,2-0.385,2.974-0.664
	c0.117-0.44,0.213-0.954,0.395-1.358c0.1-0.218,0.271-0.374,0.521-0.446c0.4-0.115,0.843,0.109,0.958,0.51
	c0.072,0.249,0.036,0.503-0.095,0.703c0.91-0.315,1.735-0.742,2.577-1.199c0.067-0.047,0.117-0.062,0.192-0.083
	c0.425-0.122,0.843,0.108,0.965,0.534C80.546,89.034,80.4,89.375,80.104,89.568z M88.398,92.731
	c-0.101,0.028-0.208,0.032-0.315,0.037c-0.329-0.014-0.667,0.029-0.992,0.122c-1.125,0.323-2.249,1.024-3.144,1.769
	c-0.085,0.08-0.179,0.133-0.304,0.169c-0.425,0.122-0.868-0.103-0.99-0.527c-0.086-0.3,0.018-0.601,0.231-0.798
	c0.892-0.851,2.583-1.742,3.758-2.079c0.649-0.188,2.014-0.523,2.272,0.375C89.029,92.198,88.797,92.615,88.398,92.731z
	 M90.716,101.371c-1.2,0.345-4.188,0.58-5.35,0.211c-0.268-0.086-0.45-0.249-0.521-0.499c-0.123-0.425,0.095-0.894,0.52-1.016
	c0.175-0.05,0.289-0.029,0.436,0.011c1.329,0.293,3.207,0.052,4.536-0.221c0.457-0.104,0.817,0.116,0.947,0.566
	C91.405,100.849,91.116,101.256,90.716,101.371z"/>
<path fill="none" stroke="#FFFFFF" stroke-width="0.5" d="M103.685,84.67c-0.175,0.051-0.364,0.051-0.55-0.031
	c-0.79-0.018-2.738,0.543-3.538,0.772c-0.4,0.114-0.793,0.255-1.192,0.37c0.206,1.753,0.197,3.514,0.378,5.274l0.05-0.015
	c0.2-0.057,0.411-0.171,0.61-0.229c0.486-0.193,0.979-0.362,1.478-0.506c1.625-0.467,3.914-0.691,4.509,1.383
	c0.646,2.249-0.864,5.279-1.94,7.185c-0.329,0.554-0.667,1.165-1.026,1.701c-0.097,0.137-0.3,0.276-0.45,0.319
	c-0.399,0.115-0.854-0.053-0.976-0.478c-0.064-0.225,0.003-0.461,0.11-0.653c1.065-1.849,3.399-5.495,2.782-7.644
	c-0.28-0.975-1.88-0.516-2.555-0.322c-0.924,0.266-1.824,0.714-2.724,0.972c-0.699,0.201-1.082-0.095-1.269-0.744
	c-0.323-1.125-0.372-5.438-0.508-5.725c-0.61,0.229-1.246,0.466-1.796,0.813c-0.067,0.047-0.135,0.094-0.235,0.122
	c-0.425,0.122-0.825-0.143-0.947-0.567c-0.093-0.325,0.01-0.624,0.299-0.843c0.585-0.412,1.906-0.899,2.599-1.126
	c-0.047-0.635-0.256-1.927,0.543-2.157c0.425-0.122,0.85,0.134,0.965,0.534c0.079,0.274,0.016,0.808,0.019,1.104
	c1.225-0.352,2.443-0.729,3.678-0.947c0.589-0.115,1.653-0.367,2.096,0.235c0.047,0.068,0.101,0.161,0.122,0.236
	C104.341,84.13,104.11,84.548,103.685,84.67z"/>
<path fill="#FFFFFF" d="M120.419,91.099c-0.172,0.503-0.465,1.2-1.031,1.363c-0.493,0.142-1.679-0.132-1.836-0.679
	c-0.084-0.293,0.08-0.615,0.391-0.705c0.402-0.115,0.697,0.294,1.118,0.312c0.591-0.624,0.778-3.209,0.536-4.049
	c-0.041-0.146-0.107-0.304-0.204-0.435c-0.431-0.607-1.9-0.284-2.507-0.129c-0.42,2.669-1.346,6.395-2.713,8.725
	c-0.083,0.122-0.195,0.213-0.342,0.255c-0.292,0.084-0.603-0.104-0.687-0.396c-0.042-0.146-0.019-0.271,0.041-0.406
	c0.229-0.442,0.458-0.884,0.663-1.338c0.875-2.05,1.443-4.268,1.837-6.477c-0.365,0.105-0.738,0.252-1.104,0.356
	c-0.292,0.084-0.616-0.08-0.7-0.372c-0.089-0.311,0.054-0.569,0.354-0.694c0.495-0.202,1.116-0.38,1.646-0.532
	c0.051-0.51,0.085-1.013,0.154-1.526c0.029-0.246,0.151-0.438,0.407-0.512c0.292-0.084,0.62,0.097,0.704,0.389
	c0.053,0.184-0.076,1.11-0.11,1.337c1.516-0.297,3.111-0.319,3.619,1.451C120.991,88.206,120.816,89.937,120.419,91.099z
	 M126.703,87.93c-0.2,0.058-0.391,0.014-0.548-0.12c-0.697-0.569-1.39-1.122-2.1-1.67c-0.602-0.439-1.21-0.837-1.811-1.278
	c-0.1-0.069-0.191-0.183-0.228-0.311c-0.084-0.292,0.08-0.615,0.391-0.704c0.164-0.047,0.331-0.016,0.477,0.08
	c0.892,0.555,1.735,1.221,2.574,1.87c0.454,0.344,1.078,0.797,1.471,1.198c0.08,0.075,0.125,0.161,0.151,0.253
	C127.165,87.541,126.995,87.847,126.703,87.93z M124.702,80.202c-0.22,0.063-1.078-0.243-1.285-0.342
	c-0.141-0.078-0.273-0.197-0.321-0.361c-0.078-0.274,0.104-0.604,0.396-0.688c0.236-0.067,0.934,0.227,1.213,0.304
	c0.191,0.045,0.335,0.2,0.387,0.384C125.176,79.79,124.994,80.118,124.702,80.202z M126.048,77.663
	c-0.237,0.067-0.397-0.006-0.564-0.176c-0.301-0.288-0.772-0.074-0.925-0.604c-0.083-0.292,0.063-0.61,0.373-0.7
	c0.401-0.115,1.381,0.334,1.506,0.772C126.522,77.249,126.34,77.579,126.048,77.663z"/>
<path fill="#FFFFFF" d="M136.868,77.144c1.962-0.604,3.928-1.188,5.9-1.754c0.347-0.1,0.682-0.037,0.797,0.364
	c0.109,0.383-0.159,0.619-0.487,0.713c-3.524,1.013-7.066,2.03-10.527,3.261l0.1,0.348c0.901,3.141,1.006,8.94-0.362,11.884
	c-0.072,0.159-0.197,0.274-0.362,0.321c-0.292,0.084-0.616-0.08-0.705-0.391c-0.036-0.128-0.008-0.234,0.034-0.366
	c0.224-0.597,0.429-1.189,0.563-1.821c0.595-2.681,0.556-6.741-0.247-9.396l-0.053-0.184c-0.227,0.105-0.793,0.406-0.993,0.464
	c-0.292,0.084-0.603-0.104-0.687-0.396c-0.074-0.256,0.038-0.485,0.254-0.627c0.329-0.231,0.799-0.387,1.172-0.533
	c1.601-0.618,3.224-1.163,4.874-1.677L136.868,77.144z M135.792,83.994c0.125,1.468,0.286,2.923,0.544,4.37
	c0.053,0.321-0.109,0.586-0.419,0.675c-0.311,0.089-0.596-0.146-0.674-0.419c-0.179-0.622-0.253-1.431-0.322-2.082
	c-0.104-0.78-0.242-1.67-0.251-2.458c0-0.277,0.13-0.512,0.404-0.59c0.292-0.084,0.621,0.098,0.705,0.391
	C135.789,83.916,135.782,83.958,135.792,83.994z M135.795,76.643c-0.188-0.658-0.416-1.107-0.813-1.665
	c-0.04-0.068-0.073-0.117-0.094-0.19c-0.084-0.292,0.085-0.598,0.377-0.682c0.237-0.068,0.438,0.013,0.587,0.188
	c0.432,0.469,0.843,1.418,1.021,2.04c0.074,0.255,0.108,0.581-0.293,0.696C136.177,77.145,135.874,76.915,135.795,76.643z
	 M143.443,87.786c-0.289,0.301-0.637,0.539-1.02,0.649c-2.082,0.598-4.987-2.362-5.522-4.226c-0.084-0.292,0.086-0.598,0.378-0.682
	s0.597,0.085,0.681,0.377c0.137,0.475,0.401,0.913,0.691,1.304c0.58,0.783,2.396,2.495,3.474,2.186
	c0.237-0.068,0.461-0.252,0.603-0.45c0.606-0.708,0.804-1.813,0.547-2.707c-0.084-0.292,0.085-0.597,0.377-0.681
	s0.616,0.08,0.7,0.372C144.729,85.243,144.387,86.804,143.443,87.786z M141.323,83.573c-0.146,0.042-0.289,0.024-0.43-0.054
	c-0.546-0.317-2.434-2.484-2.596-3.05c-0.084-0.292,0.08-0.617,0.39-0.706c0.256-0.073,0.491,0.058,0.633,0.274
	c0.405,0.654,1.521,2.133,2.13,2.531c0.123,0.082,0.209,0.177,0.251,0.323C141.785,83.184,141.616,83.489,141.323,83.573z
	 M146.305,83.229c-0.273,0.079-0.509-0.051-0.655-0.286c-0.338-0.556-1.425-1.587-1.929-2.035c-0.081-0.076-0.149-0.174-0.181-0.284
	c-0.084-0.292,0.086-0.598,0.378-0.682c0.183-0.052,0.373-0.009,0.524,0.106c0.413,0.336,2.127,2.037,2.253,2.476
	C146.779,82.817,146.597,83.145,146.305,83.229z"/>
<path fill="#FFFFFF" d="M152.077,78.626c-0.617,0.395-1.315,0.714-1.963,1.077c0.297,1.102,1.578,5.357,1.113,6.421
	c-0.073,0.159-0.167,0.245-0.331,0.293c-0.348,0.1-1.566-0.36-1.864-0.572c-0.099-0.069-0.167-0.169-0.204-0.296
	c-0.078-0.274,0.054-0.569,0.347-0.653c0.164-0.048,0.313-0.011,0.459,0.085c0.193,0.123,0.431,0.192,0.65,0.268
	c-0.046-0.915-0.324-1.883-0.539-2.771c-0.179-0.759-0.37-1.494-0.585-2.243c-0.186,0.112-2.313,1.376-2.331,1.381
	c-0.273,0.078-0.598-0.085-0.676-0.358c-0.068-0.237,0.024-0.462,0.223-0.599c0.701-0.518,1.734-1.051,2.503-1.47l-0.923-3.214
	c-0.5,0.184-0.979,0.439-1.491,0.587l-0.073,0.021c-0.273,0.079-0.574-0.072-0.658-0.364c-0.073-0.256,0.075-0.495,0.297-0.618
	c0.498-0.262,1.096-0.453,1.633-0.646c-0.145-0.572-0.401-1.328-0.454-1.926c-0.019-0.271,0.117-0.487,0.372-0.561
	c0.274-0.079,0.575,0.071,0.653,0.345l0.026,0.092c0.084,0.569,0.265,1.129,0.404,1.683c0.451-0.148,0.896-0.317,1.335-0.443
	c0.42-0.12,0.896-0.257,1.053,0.291c0.136,0.475-0.303,0.601-0.632,0.695c-0.492,0.142-0.975,0.319-1.463,0.479l0.876,3.049
	c0.289-0.161,1.64-0.965,1.841-1.022c0.292-0.084,0.579,0.091,0.663,0.383C152.411,78.275,152.295,78.486,152.077,78.626z
	 M164.772,82.293c-0.464,0.311-1.021,0.57-1.569,0.728c-0.366,0.105-0.765,0.16-1.148,0.132c-0.934-0.087-1.873-0.332-2.771-0.567
	c-0.267,0.452-1.185,2.001-1.695,2.147c-0.293,0.084-0.562-0.096-0.641-0.37c-0.063-0.219,0.005-0.396,0.161-0.54
	c0.479-0.395,0.813-1.023,1.117-1.546c-0.551-0.199-1.136-0.307-1.687-0.505c-0.178-0.067-0.305-0.169-0.362-0.369
	c-0.079-0.274,0.077-0.557,0.351-0.635c0.329-0.095,1.851,0.456,2.236,0.563l1.107-2.136c-0.316,0.07-0.645,0.165-0.955,0.254
	c-1.06,0.305-2.149,0.638-3.144,1.102c-0.165,1.213-0.475,3.436-0.906,4.549c-0.073,0.158-0.193,0.293-0.357,0.341
	c-0.273,0.078-0.574-0.073-0.652-0.348c-0.032-0.108-0.021-0.212,0.007-0.318c0.571-2.002,0.827-4.071,1.082-6.142
	c-0.428,0.163-0.86,0.308-1.282,0.488c-0.195,0.076-0.362,0.183-0.563,0.24l-0.073,0.021c-0.292,0.084-0.574-0.072-0.658-0.365
	c-0.078-0.274,0.033-0.503,0.273-0.631c0.634-0.341,1.76-0.684,2.444-0.92l0.169-1.748c-0.738,0.252-1.477,0.502-2.209,0.772
	c-0.281,0.12-0.54,0.253-0.827,0.355l-0.091,0.026c-0.273,0.079-0.566-0.114-0.646-0.389c-0.073-0.255,0.039-0.484,0.278-0.612
	c0.634-0.34,1.87-0.716,2.572-0.957l-0.023-0.012c-0.808-0.54-1.851-2.039-2.112-2.952c-0.016-0.055-0.032-0.11-0.024-0.15
	c-0.086,0.044-0.172,0.088-0.253,0.151c-0.055,0.016-0.086,0.045-0.141,0.061c-0.273,0.078-0.58-0.091-0.658-0.365
	c-0.068-0.237,0.044-0.466,0.241-0.603c0.569-0.361,1.261-0.639,1.878-0.896c1.194-0.521,2.405-0.986,3.615-1.453
	c0.646-0.225,1.314-0.516,1.972-0.705c0.273-0.078,0.601,0.026,0.684,0.318c0.09,0.311-0.035,0.563-0.335,0.688
	c-0.392,0.152-0.788,0.286-1.203,0.425l-2.438,0.938c0.357,0.075,0.375,0.347,0.454,0.62c0.157,0.548,0.663,1.55,1.047,1.992
	c0.063,0.082,0.115,0.126,0.146,0.235c0.079,0.274-0.091,0.579-0.365,0.657c-0.183,0.053-0.354,0.004-0.506-0.11
	c-0.47-0.399-1.166-1.859-1.334-2.443c-0.068-0.237-0.165-0.507-0.011-0.729c-0.655,0.268-1.314,0.516-1.941,0.814
	c0.076,0.058,0.144,0.155,0.188,0.243c0.06,0.139,0.102,0.285,0.181,0.422c0.314,0.68,0.882,1.485,1.487,1.944
	c0.104,0.089,0.186,0.164,0.223,0.292c0.036,0.128,0.031,0.248-0.016,0.359c1.116-0.379,2.243-0.723,3.37-1.066
	c-0.136-0.06-0.251-0.185-0.293-0.331c-0.036-0.128-0.008-0.234,0.034-0.365c0.366-0.994,0.537-2.052,0.713-3.091
	c0.039-0.207,0.185-0.389,0.386-0.446c0.292-0.084,0.556,0.078,0.635,0.353c0.115,0.401-0.56,3.144-0.777,3.623
	c0.01,0.036-0.026,0.046-0.04,0.069c0.438-0.126,1.364-0.551,1.559,0.125c0.089,0.311-0.104,0.604-0.401,0.67
	c-0.279,0.06-0.553,0.139-0.845,0.222c-1.023,0.294-2.059,0.611-3.088,0.947c-0.031,0.582-0.085,1.151-0.14,1.719
	c1.458-0.498,2.939-0.981,4.419-1.406c0.273-0.079,0.579,0.091,0.658,0.365c0.078,0.273-0.091,0.577-0.365,0.656
	c-1.625,0.467-3.247,1.012-4.852,1.552c-0.038,0.348-0.071,0.713-0.128,1.065c0.832-0.338,1.703-0.607,2.562-0.854
	c0.565-0.163,1.729-0.518,2.29-0.56c0.271-0.019,0.501,0.094,0.585,0.386c0.042,0.146,0.019,0.271-0.06,0.411
	c-0.156,0.282-0.289,0.578-0.439,0.878c-0.336,0.689-0.695,1.366-1.055,2.042c0.88,0.241,2.203,0.651,3.099,0.395
	c0.456-0.131,0.886-0.353,1.307-0.612c0.031-0.027,0.086-0.044,0.122-0.054c0.273-0.079,0.579,0.089,0.658,0.363
	C165.07,81.95,164.971,82.156,164.772,82.293z"/>
<path fill="#FFFFFF" d="M169.243,80.654c-0.055,0.016-0.169,0.029-0.229,0.026c-2.455-0.224-3.643-3.737-4.214-5.727
	c-0.482-1.681-0.832-3.379-1.14-5.069l-0.289-1.557c-0.056-0.262-0.116-0.541-0.152-0.808c-0.029-0.308,0.113-0.565,0.406-0.649
	c0.292-0.084,0.639,0.093,0.705,0.391l0.016,0.055c0.559,2.429,0.881,4.926,1.567,7.317c0.404,1.405,1.211,3.941,2.557,4.702
	c0.234,0.129,0.42,0.155,0.676,0.22c0.237,0.07,0.42,0.155,0.494,0.412C169.723,80.259,169.536,80.57,169.243,80.654z"/>
<path fill="#FFFFFF" d="M177.172,69.719c-0.535,0.41-1.463,0.756-2.092,0.976c0.375,1.099,0.719,2.226,1.056,3.334l0.026,0.093
	c0.58,0.09,1.972,0.46,2.16,1.118c0.079,0.273-0.099,0.62-0.391,0.704c-0.219,0.063-0.42-0.017-0.587-0.187
	c-0.277-0.275-0.729-0.403-1.104-0.474c-0.014,1.329-0.537,2.605-1.906,2.999c-1.132,0.325-2.871-0.223-3.223-1.446
	c-0.414-1.442,0.681-2.173,1.923-2.529c0.639-0.184,1.31-0.258,1.959-0.267c-0.188-0.656-0.427-1.28-0.634-1.932l-0.341-1.05
	c-0.342,0.118-0.688,0.218-1.035,0.317c-0.767,0.221-1.552,0.446-2.335,0.611c-0.315,0.071-0.585-0.108-0.674-0.419
	c-0.095-0.328,0.108-0.584,0.419-0.674c0.694-0.199,1.422-0.349,2.134-0.554c0.384-0.109,0.763-0.237,1.146-0.348
	c-0.243-0.781-0.487-1.56-0.713-2.346c-0.431,0.084-0.861,0.168-1.281,0.288c-0.365,0.105-0.707,0.225-1.056,0.383l-0.073,0.021
	c-0.311,0.089-0.604-0.104-0.688-0.396c-0.078-0.274,0.065-0.532,0.305-0.661c0.381-0.188,0.838-0.318,1.239-0.434
	c0.42-0.121,0.826-0.219,1.239-0.297c-0.132-0.456-0.375-1.099,0.264-1.282c0.657-0.189,0.74,0.717,0.86,1.137
	c0.507-0.027,1.049-0.063,1.55,0.029c0.209,0.038,0.389,0.185,0.452,0.403c0.084,0.292-0.104,0.603-0.396,0.687
	c-0.092,0.026-0.146,0.042-0.229,0.026c-0.371-0.051-0.688-0.058-1.063-0.051c0.205,0.713,0.428,1.421,0.65,2.126
	c0.629-0.22,1.241-0.495,1.81-0.854c0.05-0.034,0.104-0.05,0.159-0.066c0.292-0.083,0.598,0.086,0.682,0.378
	C177.458,69.341,177.364,69.566,177.172,69.719z M173.344,75.384c-0.566,0.163-1.364,0.412-1.154,1.143
	c0.168,0.584,1.323,0.825,1.835,0.678c0.913-0.262,1.115-1.209,1.096-2.033C174.525,75.164,173.91,75.222,173.344,75.384z"/>
<path fill="#FFFFFF" d="M194.47,60.303l-0.092,0.026c-1.817,0.206-3.612,0.564-5.399,1.017l0.152,0.529
	c0.168,0.585,0.316,1.174,0.43,1.775c1.282,0.402,2.216,1.517,2.582,2.796c0.766,2.665,0.594,6.608-0.783,9.04
	c-0.078,0.142-0.19,0.232-0.336,0.274c-0.293,0.084-0.621-0.099-0.705-0.391c-0.042-0.146-0.024-0.289,0.054-0.431
	c0.206-0.454,0.416-0.89,0.574-1.371c0.65-2.004,0.706-4.768,0.119-6.813c-0.205-0.713-0.67-1.37-1.297-1.763
	c0.248,2.104,0.435,6.398-2.195,7.154c-1.661,0.477-2.688-0.968-3.092-2.374c-0.608-2.118,0.29-5.459,2.627-6.13
	c0.401-0.116,0.837-0.182,1.252-0.182c-0.107-0.444-0.221-0.906-0.347-1.344l-0.136-0.475l-0.566,0.163
	c-2.799,0.784-5.851,1.858-8.366,3.352c-0.05,0.034-0.068,0.039-0.123,0.055c-0.292,0.084-0.621-0.098-0.705-0.391
	c-0.073-0.256,0.038-0.485,0.255-0.626c0.495-0.341,1.09-0.61,1.63-0.863c2.308-1.119,4.749-1.978,7.196-2.68l0.292-0.084
	c-0.137-0.336-0.479-0.91-0.553-1.166c-0.084-0.292,0.099-0.621,0.409-0.71c0.273-0.078,0.485,0.039,0.632,0.272
	c0.248,0.383,0.432,0.884,0.612,1.307c1.294-0.313,2.598-0.587,3.918-0.809c0.563-0.103,1.182-0.221,1.748-0.245
	c0.271-0.019,0.512,0.13,0.591,0.403C194.932,59.915,194.762,60.22,194.47,60.303z M187.423,64.74
	c-1.717,0.493-2.276,3.222-1.847,4.719c0.215,0.748,0.715,1.87,1.683,1.593c1.936-0.557,1.538-4.968,1.312-6.445
	C188.187,64.578,187.788,64.635,187.423,64.74z"/>
<path fill="#FFFFFF" d="M202.822,70.871c-0.164,0.048-0.331,0.016-0.478-0.08c-0.104,0.05-0.214,0.081-0.324,0.112
	c-0.857,0.247-2.032,0.011-2.31-0.957c-0.32-1.114,0.215-3.105,1.438-3.457c1.041-0.299,2.649,0.347,2.964,1.441
	C204.411,68.972,203.973,70.541,202.822,70.871z M201.463,67.585c-0.565,0.162-0.799,1.554-0.657,2.047
	c0.084,0.291,0.736,0.224,0.938,0.166c0.273-0.079,0.451-0.288,0.67-0.352c0.146-0.042,0.289-0.022,0.431,0.054
	c0.169-0.304,0.272-0.908,0.173-1.255C202.896,67.825,201.92,67.454,201.463,67.585z"/>
<path fill="none" stroke="#FFFFFF" stroke-width="0.5" d="M120.419,91.099c-0.172,0.503-0.465,1.2-1.031,1.363
	c-0.493,0.142-1.679-0.132-1.836-0.679c-0.084-0.293,0.08-0.615,0.391-0.705c0.402-0.115,0.697,0.294,1.118,0.312
	c0.591-0.624,0.778-3.209,0.536-4.049c-0.041-0.146-0.107-0.304-0.204-0.435c-0.431-0.607-1.9-0.284-2.507-0.129
	c-0.42,2.669-1.346,6.395-2.713,8.725c-0.083,0.122-0.195,0.213-0.342,0.255c-0.292,0.084-0.603-0.104-0.687-0.396
	c-0.042-0.146-0.019-0.271,0.041-0.406c0.229-0.442,0.458-0.884,0.663-1.338c0.875-2.05,1.443-4.268,1.837-6.477
	c-0.365,0.105-0.738,0.252-1.104,0.356c-0.292,0.084-0.616-0.08-0.7-0.372c-0.089-0.311,0.054-0.569,0.354-0.694
	c0.495-0.202,1.116-0.38,1.646-0.532c0.051-0.51,0.085-1.013,0.154-1.526c0.029-0.246,0.151-0.438,0.407-0.512
	c0.292-0.084,0.62,0.097,0.704,0.389c0.053,0.184-0.076,1.11-0.11,1.337c1.516-0.297,3.111-0.319,3.619,1.451
	C120.991,88.206,120.816,89.937,120.419,91.099z M126.703,87.93c-0.2,0.058-0.391,0.014-0.548-0.12
	c-0.697-0.569-1.39-1.122-2.1-1.67c-0.602-0.439-1.21-0.837-1.811-1.278c-0.1-0.069-0.191-0.183-0.228-0.311
	c-0.084-0.292,0.08-0.615,0.391-0.704c0.164-0.047,0.331-0.016,0.477,0.08c0.892,0.555,1.735,1.221,2.574,1.87
	c0.454,0.344,1.078,0.797,1.471,1.198c0.08,0.075,0.125,0.161,0.151,0.253C127.165,87.541,126.995,87.847,126.703,87.93z
	 M124.702,80.202c-0.22,0.063-1.078-0.243-1.285-0.342c-0.141-0.078-0.273-0.197-0.321-0.361c-0.078-0.274,0.104-0.604,0.396-0.688
	c0.236-0.067,0.934,0.227,1.213,0.304c0.191,0.045,0.335,0.2,0.387,0.384C125.176,79.79,124.994,80.118,124.702,80.202z
	 M126.048,77.663c-0.237,0.067-0.397-0.006-0.564-0.176c-0.301-0.288-0.772-0.074-0.925-0.604c-0.083-0.292,0.063-0.61,0.373-0.7
	c0.401-0.115,1.381,0.334,1.506,0.772C126.522,77.249,126.34,77.579,126.048,77.663z"/>
<path fill="none" stroke="#FFFFFF" stroke-width="0.5" d="M136.868,77.144c1.962-0.604,3.928-1.188,5.9-1.754
	c0.347-0.1,0.682-0.037,0.797,0.364c0.109,0.383-0.159,0.619-0.487,0.713c-3.524,1.013-7.066,2.03-10.527,3.261l0.1,0.348
	c0.901,3.141,1.006,8.94-0.362,11.884c-0.072,0.159-0.197,0.274-0.362,0.321c-0.292,0.084-0.616-0.08-0.705-0.391
	c-0.036-0.128-0.008-0.234,0.034-0.366c0.224-0.597,0.429-1.189,0.563-1.821c0.595-2.681,0.556-6.741-0.247-9.396l-0.053-0.184
	c-0.227,0.105-0.793,0.406-0.993,0.464c-0.292,0.084-0.603-0.104-0.687-0.396c-0.074-0.256,0.038-0.485,0.254-0.627
	c0.329-0.231,0.799-0.387,1.172-0.533c1.601-0.618,3.224-1.163,4.874-1.677L136.868,77.144z M135.792,83.994
	c0.125,1.468,0.286,2.923,0.544,4.37c0.053,0.321-0.109,0.586-0.419,0.675c-0.311,0.089-0.596-0.146-0.674-0.419
	c-0.179-0.622-0.253-1.431-0.322-2.082c-0.104-0.78-0.242-1.67-0.251-2.458c0-0.277,0.13-0.512,0.404-0.59
	c0.292-0.084,0.621,0.098,0.705,0.391C135.789,83.916,135.782,83.958,135.792,83.994z M135.795,76.643
	c-0.188-0.658-0.416-1.107-0.813-1.665c-0.04-0.068-0.073-0.117-0.094-0.19c-0.084-0.292,0.085-0.598,0.377-0.682
	c0.237-0.068,0.438,0.013,0.587,0.188c0.432,0.469,0.843,1.418,1.021,2.04c0.074,0.255,0.108,0.581-0.293,0.696
	C136.177,77.145,135.874,76.915,135.795,76.643z M143.443,87.786c-0.289,0.301-0.637,0.539-1.02,0.649
	c-2.082,0.598-4.987-2.362-5.522-4.226c-0.084-0.292,0.086-0.598,0.378-0.682s0.597,0.085,0.681,0.377
	c0.137,0.475,0.401,0.913,0.691,1.304c0.58,0.783,2.396,2.495,3.474,2.186c0.237-0.068,0.461-0.252,0.603-0.45
	c0.606-0.708,0.804-1.813,0.547-2.707c-0.084-0.292,0.085-0.597,0.377-0.681s0.616,0.08,0.7,0.372
	C144.729,85.243,144.387,86.804,143.443,87.786z M141.323,83.573c-0.146,0.042-0.289,0.024-0.43-0.054
	c-0.546-0.317-2.434-2.484-2.596-3.05c-0.084-0.292,0.08-0.617,0.39-0.706c0.256-0.073,0.491,0.058,0.633,0.274
	c0.405,0.654,1.521,2.133,2.13,2.531c0.123,0.082,0.209,0.177,0.251,0.323C141.785,83.184,141.616,83.489,141.323,83.573z
	 M146.305,83.229c-0.273,0.079-0.509-0.051-0.655-0.286c-0.338-0.556-1.425-1.587-1.929-2.035c-0.081-0.076-0.149-0.174-0.181-0.284
	c-0.084-0.292,0.086-0.598,0.378-0.682c0.183-0.052,0.373-0.009,0.524,0.106c0.413,0.336,2.127,2.037,2.253,2.476
	C146.779,82.817,146.597,83.145,146.305,83.229z"/>
<path fill="none" stroke="#FFFFFF" stroke-width="0.5" d="M152.077,78.626c-0.617,0.395-1.315,0.714-1.963,1.077
	c0.297,1.102,1.578,5.357,1.113,6.421c-0.073,0.159-0.167,0.245-0.331,0.293c-0.348,0.1-1.566-0.36-1.864-0.572
	c-0.099-0.069-0.167-0.169-0.204-0.296c-0.078-0.274,0.054-0.569,0.347-0.653c0.164-0.048,0.313-0.011,0.459,0.085
	c0.193,0.123,0.431,0.192,0.65,0.268c-0.046-0.915-0.324-1.883-0.539-2.771c-0.179-0.759-0.37-1.494-0.585-2.243
	c-0.186,0.112-2.313,1.376-2.331,1.381c-0.273,0.078-0.598-0.085-0.676-0.358c-0.068-0.237,0.024-0.462,0.223-0.599
	c0.701-0.518,1.734-1.051,2.503-1.47l-0.923-3.214c-0.5,0.184-0.979,0.439-1.491,0.587l-0.073,0.021
	c-0.273,0.079-0.574-0.072-0.658-0.364c-0.073-0.256,0.075-0.495,0.297-0.618c0.498-0.262,1.096-0.453,1.633-0.646
	c-0.145-0.572-0.401-1.328-0.454-1.926c-0.019-0.271,0.117-0.487,0.372-0.561c0.274-0.079,0.575,0.071,0.653,0.345l0.026,0.092
	c0.084,0.569,0.265,1.129,0.404,1.683c0.451-0.148,0.896-0.317,1.335-0.443c0.42-0.12,0.896-0.257,1.053,0.291
	c0.136,0.475-0.303,0.601-0.632,0.695c-0.492,0.142-0.975,0.319-1.463,0.479l0.876,3.049c0.289-0.161,1.64-0.965,1.841-1.022
	c0.292-0.084,0.579,0.091,0.663,0.383C152.411,78.275,152.295,78.486,152.077,78.626z M164.772,82.293
	c-0.464,0.311-1.021,0.57-1.569,0.728c-0.366,0.105-0.765,0.16-1.148,0.132c-0.934-0.087-1.873-0.332-2.771-0.567
	c-0.267,0.452-1.185,2.001-1.695,2.147c-0.293,0.084-0.562-0.096-0.641-0.37c-0.063-0.219,0.005-0.396,0.161-0.54
	c0.479-0.395,0.813-1.023,1.117-1.546c-0.551-0.199-1.136-0.307-1.687-0.505c-0.178-0.067-0.305-0.169-0.362-0.369
	c-0.079-0.274,0.077-0.557,0.351-0.635c0.329-0.095,1.851,0.456,2.236,0.563l1.107-2.136c-0.316,0.07-0.645,0.165-0.955,0.254
	c-1.06,0.305-2.149,0.638-3.144,1.102c-0.165,1.213-0.475,3.436-0.906,4.549c-0.073,0.158-0.193,0.293-0.357,0.341
	c-0.273,0.078-0.574-0.073-0.652-0.348c-0.032-0.108-0.021-0.212,0.007-0.318c0.571-2.002,0.827-4.071,1.082-6.142
	c-0.428,0.163-0.86,0.308-1.282,0.488c-0.195,0.076-0.362,0.183-0.563,0.24l-0.073,0.021c-0.292,0.084-0.574-0.072-0.658-0.365
	c-0.078-0.274,0.033-0.503,0.273-0.631c0.634-0.341,1.76-0.684,2.444-0.92l0.169-1.748c-0.738,0.252-1.477,0.502-2.209,0.772
	c-0.281,0.12-0.54,0.253-0.827,0.355l-0.091,0.026c-0.273,0.079-0.566-0.114-0.646-0.389c-0.073-0.255,0.039-0.484,0.278-0.612
	c0.634-0.34,1.87-0.716,2.572-0.957l-0.023-0.012c-0.808-0.54-1.851-2.039-2.112-2.952c-0.016-0.055-0.032-0.11-0.024-0.15
	c-0.086,0.044-0.172,0.088-0.253,0.151c-0.055,0.016-0.086,0.045-0.141,0.061c-0.273,0.078-0.58-0.091-0.658-0.365
	c-0.068-0.237,0.044-0.466,0.241-0.603c0.569-0.361,1.261-0.639,1.878-0.896c1.194-0.521,2.405-0.986,3.615-1.453
	c0.646-0.225,1.314-0.516,1.972-0.705c0.273-0.078,0.601,0.026,0.684,0.318c0.09,0.311-0.035,0.563-0.335,0.688
	c-0.392,0.152-0.788,0.286-1.203,0.425l-2.438,0.938c0.357,0.075,0.375,0.347,0.454,0.62c0.157,0.548,0.663,1.55,1.047,1.992
	c0.063,0.082,0.115,0.126,0.146,0.235c0.079,0.274-0.091,0.579-0.365,0.657c-0.183,0.053-0.354,0.004-0.506-0.11
	c-0.47-0.399-1.166-1.859-1.334-2.443c-0.068-0.237-0.165-0.507-0.011-0.729c-0.655,0.268-1.314,0.516-1.941,0.814
	c0.076,0.058,0.144,0.155,0.188,0.243c0.06,0.139,0.102,0.285,0.181,0.422c0.314,0.68,0.882,1.485,1.487,1.944
	c0.104,0.089,0.186,0.164,0.223,0.292c0.036,0.128,0.031,0.248-0.016,0.359c1.116-0.379,2.243-0.723,3.37-1.066
	c-0.136-0.06-0.251-0.185-0.293-0.331c-0.036-0.128-0.008-0.234,0.034-0.365c0.366-0.994,0.537-2.052,0.713-3.091
	c0.039-0.207,0.185-0.389,0.386-0.446c0.292-0.084,0.556,0.078,0.635,0.353c0.115,0.401-0.56,3.144-0.777,3.623
	c0.01,0.036-0.026,0.046-0.04,0.069c0.438-0.126,1.364-0.551,1.559,0.125c0.089,0.311-0.104,0.604-0.401,0.67
	c-0.279,0.06-0.553,0.139-0.845,0.222c-1.023,0.294-2.059,0.611-3.088,0.947c-0.031,0.582-0.085,1.151-0.14,1.719
	c1.458-0.498,2.939-0.981,4.419-1.406c0.273-0.079,0.579,0.091,0.658,0.365c0.078,0.273-0.091,0.577-0.365,0.656
	c-1.625,0.467-3.247,1.012-4.852,1.552c-0.038,0.348-0.071,0.713-0.128,1.065c0.832-0.338,1.703-0.607,2.562-0.854
	c0.565-0.163,1.729-0.518,2.29-0.56c0.271-0.019,0.501,0.094,0.585,0.386c0.042,0.146,0.019,0.271-0.06,0.411
	c-0.156,0.282-0.289,0.578-0.439,0.878c-0.336,0.689-0.695,1.366-1.055,2.042c0.88,0.241,2.203,0.651,3.099,0.395
	c0.456-0.131,0.886-0.353,1.307-0.612c0.031-0.027,0.086-0.044,0.122-0.054c0.273-0.079,0.579,0.089,0.658,0.363
	C165.07,81.95,164.971,82.156,164.772,82.293z"/>
<path fill="none" stroke="#FFFFFF" stroke-width="0.5" d="M169.243,80.654c-0.055,0.016-0.169,0.029-0.229,0.026
	c-2.455-0.224-3.643-3.737-4.214-5.727c-0.482-1.681-0.832-3.379-1.14-5.069l-0.289-1.557c-0.056-0.262-0.116-0.541-0.152-0.808
	c-0.029-0.308,0.113-0.565,0.406-0.649c0.292-0.084,0.639,0.093,0.705,0.391l0.016,0.055c0.559,2.429,0.881,4.926,1.567,7.317
	c0.404,1.405,1.211,3.941,2.557,4.702c0.234,0.129,0.42,0.155,0.676,0.22c0.237,0.07,0.42,0.155,0.494,0.412
	C169.723,80.259,169.536,80.57,169.243,80.654z"/>
<path fill="none" stroke="#FFFFFF" stroke-width="0.5" d="M177.172,69.719c-0.535,0.41-1.463,0.756-2.092,0.976
	c0.375,1.099,0.719,2.226,1.056,3.334l0.026,0.093c0.58,0.09,1.972,0.46,2.16,1.118c0.079,0.273-0.099,0.62-0.391,0.704
	c-0.219,0.063-0.42-0.017-0.587-0.187c-0.277-0.275-0.729-0.403-1.104-0.474c-0.014,1.329-0.537,2.605-1.906,2.999
	c-1.132,0.325-2.871-0.223-3.223-1.446c-0.414-1.442,0.681-2.173,1.923-2.529c0.639-0.184,1.31-0.258,1.959-0.267
	c-0.188-0.656-0.427-1.28-0.634-1.932l-0.341-1.05c-0.342,0.118-0.688,0.218-1.035,0.317c-0.767,0.221-1.552,0.446-2.335,0.611
	c-0.315,0.071-0.585-0.108-0.674-0.419c-0.095-0.328,0.108-0.584,0.419-0.674c0.694-0.199,1.422-0.349,2.134-0.554
	c0.384-0.109,0.763-0.237,1.146-0.348c-0.243-0.781-0.487-1.56-0.713-2.346c-0.431,0.084-0.861,0.168-1.281,0.288
	c-0.365,0.105-0.707,0.225-1.056,0.383l-0.073,0.021c-0.311,0.089-0.604-0.104-0.688-0.396c-0.078-0.274,0.065-0.532,0.305-0.661
	c0.381-0.188,0.838-0.318,1.239-0.434c0.42-0.121,0.826-0.219,1.239-0.297c-0.132-0.456-0.375-1.099,0.264-1.282
	c0.657-0.189,0.74,0.717,0.86,1.137c0.507-0.027,1.049-0.063,1.55,0.029c0.209,0.038,0.389,0.185,0.452,0.403
	c0.084,0.292-0.104,0.603-0.396,0.687c-0.092,0.026-0.146,0.042-0.229,0.026c-0.371-0.051-0.688-0.058-1.063-0.051
	c0.205,0.713,0.428,1.421,0.65,2.126c0.629-0.22,1.241-0.495,1.81-0.854c0.05-0.034,0.104-0.05,0.159-0.066
	c0.292-0.083,0.598,0.086,0.682,0.378C177.458,69.341,177.364,69.566,177.172,69.719z M173.344,75.384
	c-0.566,0.163-1.364,0.412-1.154,1.143c0.168,0.584,1.323,0.825,1.835,0.678c0.913-0.262,1.115-1.209,1.096-2.033
	C174.525,75.164,173.91,75.222,173.344,75.384z"/>
<path fill="none" stroke="#FFFFFF" stroke-width="0.5" d="M194.47,60.303l-0.092,0.026c-1.817,0.206-3.612,0.564-5.399,1.017
	l0.152,0.529c0.168,0.585,0.316,1.174,0.43,1.775c1.282,0.402,2.216,1.517,2.582,2.796c0.766,2.665,0.594,6.608-0.783,9.04
	c-0.078,0.142-0.19,0.232-0.336,0.274c-0.293,0.084-0.621-0.099-0.705-0.391c-0.042-0.146-0.024-0.289,0.054-0.431
	c0.206-0.454,0.416-0.89,0.574-1.371c0.65-2.004,0.706-4.768,0.119-6.813c-0.205-0.713-0.67-1.37-1.297-1.763
	c0.248,2.104,0.435,6.398-2.195,7.154c-1.661,0.477-2.688-0.968-3.092-2.374c-0.608-2.118,0.29-5.459,2.627-6.13
	c0.401-0.116,0.837-0.182,1.252-0.182c-0.107-0.444-0.221-0.906-0.347-1.344l-0.136-0.475l-0.566,0.163
	c-2.799,0.784-5.851,1.858-8.366,3.352c-0.05,0.034-0.068,0.039-0.123,0.055c-0.292,0.084-0.621-0.098-0.705-0.391
	c-0.073-0.256,0.038-0.485,0.255-0.626c0.495-0.341,1.09-0.61,1.63-0.863c2.308-1.119,4.749-1.978,7.196-2.68l0.292-0.084
	c-0.137-0.336-0.479-0.91-0.553-1.166c-0.084-0.292,0.099-0.621,0.409-0.71c0.273-0.078,0.485,0.039,0.632,0.272
	c0.248,0.383,0.432,0.884,0.612,1.307c1.294-0.313,2.598-0.587,3.918-0.809c0.563-0.103,1.182-0.221,1.748-0.245
	c0.271-0.019,0.512,0.13,0.591,0.403C194.932,59.915,194.762,60.22,194.47,60.303z M187.423,64.74
	c-1.717,0.493-2.276,3.222-1.847,4.719c0.215,0.748,0.715,1.87,1.683,1.593c1.936-0.557,1.538-4.968,1.312-6.445
	C188.187,64.578,187.788,64.635,187.423,64.74z"/>
<path fill="none" stroke="#FFFFFF" stroke-width="0.5" d="M202.822,70.871c-0.164,0.048-0.331,0.016-0.478-0.08
	c-0.104,0.05-0.214,0.081-0.324,0.112c-0.857,0.247-2.032,0.011-2.31-0.957c-0.32-1.114,0.215-3.105,1.438-3.457
	c1.041-0.299,2.649,0.347,2.964,1.441C204.411,68.972,203.973,70.541,202.822,70.871z M201.463,67.585
	c-0.565,0.162-0.799,1.554-0.657,2.047c0.084,0.291,0.736,0.224,0.938,0.166c0.273-0.079,0.451-0.288,0.67-0.352
	c0.146-0.042,0.289-0.022,0.431,0.054c0.169-0.304,0.272-0.908,0.173-1.255C202.896,67.825,201.92,67.454,201.463,67.585z"/>
</svg>
