<?xml version="1.0" encoding="utf-8"?>
<!-- Generator: Adobe Illustrator 15.0.0, SVG Export Plug-In . SVG Version: 6.00 Build 0)  -->
<!DOCTYPE svg PUBLIC "-//W3C//DTD SVG 1.1//EN" "http://www.w3.org/Graphics/SVG/1.1/DTD/svg11.dtd">
<svg version="1.1" id="レイヤー_1" xmlns="http://www.w3.org/2000/svg" xmlns:xlink="http://www.w3.org/1999/xlink" x="0px"
	 y="0px" width="158.988px" height="46.221px" viewBox="3.935 7.169 158.988 46.221"
	 enable-background="new 3.935 7.169 158.988 46.221" xml:space="preserve">
<path fill="#FFFFFF" d="M28.735,7.169h2.289v1.554h2.541v2.268h-7.37V8.723h2.541V7.169z M26.195,18.57v-6.594h7.37v6.594h-2.667
	v2.561c0,2.184-1.008,3.255-2.541,3.255v-2.268c0.399,0,0.504-0.315,0.504-0.987V18.57H26.195z M26.195,22.58
	c0.357-1.554,0.357-2.268,0.357-3.17h1.785c0,1.154,0.021,1.994-0.462,3.8L26.195,22.58z M28.483,14.244v2.037h2.813v-2.037H28.483z
	 M31.885,22.874c-0.483-1.47-0.462-2.31-0.462-3.464h1.785c0,0.902,0,1.616,0.357,2.834L31.885,22.874z M39.107,20.711
	c0,1.092,0.399,1.407,1.155,1.407v2.268c-2.289,0-3.422-1.071-3.422-3.675v-1.112c-0.399,1.827-0.966,3.339-1.827,4.787l-2.1-0.84
	c1.806-3.128,2.268-6.026,2.394-11.422h-1.113V9.856h1.134c0-0.84,0.021-1.722,0.021-2.688h2.268c0,0.944-0.021,1.848-0.021,2.688
	h1.092L38.31,7.589h1.365l0.378,2.268h0.168v2.268h-2.667c-0.021,0.924-0.063,1.764-0.105,2.583h1.659V20.711z"/>
<path fill="#FFFFFF" d="M47.047,11.012l-0.903,2.078l-3.149-1.365l0.903-2.078L47.047,11.012z M47.047,14.832l-0.903,2.079
	l-3.149-1.344l0.903-2.079L47.047,14.832z M47.299,17.771c0,2.1-0.336,3.717-2.352,5.984l-1.953-1.154
	c1.743-2.1,2.037-3.381,2.037-4.83H47.299z M47.908,7.799c5.312,0,9.154-0.63,9.154-0.63v2.268c0,0-1.281,0.21-3.443,0.399v1.973
	h3.443v2.268h-3.443v1.911h3.443v8.398h-9.154v-8.398h3.443v-1.911h-3.443v-2.268h3.443V9.982c-1.029,0.042-2.205,0.084-3.443,0.084
	V7.799z M54.794,18.255h-4.619v3.863h4.619V18.255z"/>
<path fill="#FFFFFF" d="M62.86,18.381c0,1.974,0,2.394,0.672,2.394v2.268c-2.771,0-2.939-1.196-2.939-4.325v-8.86h2.268V18.381z
	 M73.274,23.063c0,0-0.504,0.609-3.611,0.609c-3.128,0-4.346-0.734-4.346-4.031h2.289c0,1.596,0.42,1.764,2.394,1.764
	c2.037,0,2.646-0.525,2.646-0.525L73.274,23.063z M72.056,9.856v2.268h-5.501V9.856H72.056z"/>
<path fill="#FFFFFF" d="M88.814,11.074c0,1.092,0.168,1.428,1.428,1.428v2.268c-2.563,0-3.695-1.07-3.695-3.695V9.856h-2.331
	c-0.147,2.163-0.651,3.863-2.289,5.354l-1.344-0.861c-0.21,0.777-0.525,1.533-0.945,2.268h0.672v7.769h-2.268v-5.69
	c-0.546,0.547-1.176,1.029-1.869,1.428v-3.128c0.987-0.588,1.68-1.7,2.058-2.792c-0.546,0.566-1.239,1.092-2.058,1.553v-3.128
	c1.428-0.84,1.869-2.331,1.869-3.8h2.268c0,1.112-0.21,2.246-0.672,3.316h1.26c0,0.295-0.021,0.588-0.063,0.903
	c1.029-1.407,1.176-2.897,1.176-5.459h6.803V11.074z M89.822,17.688c0,1.155-0.525,2.625-1.743,3.885
	c0.714,0.273,1.428,0.462,2.163,0.588l-0.42,2.226c-1.449-0.252-2.73-0.672-3.885-1.218c-1.176,0.63-2.688,1.07-4.535,1.218
	l-0.294-2.247c0.924-0.104,1.722-0.272,2.394-0.482c-0.714-0.588-1.323-1.197-1.827-1.848l1.68-1.533
	c0.756,0.903,1.617,1.617,2.52,2.205c1.385-1.029,1.68-2.246,1.68-2.793h-6.068V15.42h8.336V17.688z"/>
<path fill="#FFFFFF" d="M104.543,10.99v11.128h2.498v2.268H92.975v-2.268h9.301V10.99h-8.588V8.723h5.187V7.169h2.268v1.554h5.165
	v2.268H104.543z M95.473,12.334h2.268v8.42h-2.268V12.334z"/>
<path fill="#FFFFFF" d="M110.193,14.14c16-5.983,15.097,8.818,6.551,9.196l-0.42-2.226c5.711-0.21,6.719-9.364-5.416-4.829
	L110.193,14.14z"/>
<path fill="#FFFFFF" d="M134.111,19.535h-2.268l-0.21-11.946h2.688L134.111,19.535z M134.111,21.656v2.729h-2.268v-2.729H134.111z"
	/>
<path fill="#FFFFFF" d="M8.491,43.916c-1.155,0.693-2.331,1.197-3.905,1.659l-0.651-2.163c3.233-0.986,6.173-3.191,7.958-5.689
	l1.827,1.322c-0.819,1.029-1.848,2.205-2.96,3.191v11.149H8.491V43.916z"/>
<path fill="#FFFFFF" d="M18.572,44.756l5.144-5.06l8.944,9.511l-1.659,1.555l-7.349-7.811l-3.485,3.422L18.572,44.756z
	 M29.217,39.738v2.709h-1.302v-2.709H29.217z M31.148,39.738v2.709h-1.302v-2.709H31.148z"/>
<path fill="#FFFFFF" d="M41.229,42.236l-1.617,1.596l-3.254-3.4l1.617-1.575L41.229,42.236z M47.759,42.447
	c-1.407,5.438-4.745,8.859-9.7,10.938l-1.155-1.952c5.039-2.311,7.181-5.019,8.776-9.869L47.759,42.447z"/>
<path fill="#FFFFFF" d="M55.951,37.723h2.268v5.459l4.787,1.238l-0.567,2.205l-4.22-1.092v7.853h-2.268V37.723z"/>
<path fill="#FFFFFF" d="M81.149,36.169l0.357,1.344h0.336v2.268H79.26c0.084,0.44,0.21,0.882,0.357,1.323
	c0.21-0.273,0.378-0.588,0.546-0.903l1.68,1.176c-0.252,0.567-0.63,1.176-1.155,1.784c0.315,0.463,0.693,0.945,1.155,1.407
	l-1.596,1.638c-0.504-0.504-0.924-1.008-1.302-1.533c-0.945,0.651-2.1,1.197-3.443,1.533l-0.483-1.281
	c-0.546,0.861-1.533,1.281-2.96,1.281v-2.268c0.756,0,1.155-0.336,1.155-1.008v-0.084h-2.625C70.336,45.029,70,46.205,70,46.205
	l-2.226-0.441c0,0,0.861-3.044,0.861-8.251h8.125c-0.021-0.44-0.021-0.903-0.021-1.344h2.268c0,0.462,0,0.903,0.021,1.344h0.735
	l-0.357-1.344H81.149z M81.212,46.625v4.493h0.63v2.268H67.775v-2.268h0.63v-4.493H81.212z M72.205,51.118v-2.226h-1.533v2.226
	H72.205z M77.916,42.93c-0.483-1.029-0.777-2.1-0.945-3.149H70.84c0,0.356-0.021,0.714-0.063,1.05h4.703v2.1
	c0,0.462-0.042,0.861-0.147,1.218C76.278,43.916,77.16,43.496,77.916,42.93z M75.564,51.118v-2.226h-1.512v2.226H75.564z
	 M78.945,51.118v-2.226h-1.533v2.226H78.945z"/>
<path fill="#FFFFFF" d="M89.445,42.888c0,1.974,0,2.394,0.672,2.394v2.268c-2.771,0-2.939-1.197-2.939-4.346v-4.347h2.268V42.888z
	 M91.021,52.357c0,0,2.352-3.822,2.352-14.635h2.268c0,11.652-2.604,15.663-2.604,15.663L91.021,52.357z"/>
<path fill="#FFFFFF" d="M107.926,38.856v2.268h-2.541l-0.65,9.658h-2.268l0.65-9.658h-1.554v-2.268h1.722l0.063-1.134h2.289
	l-0.084,1.134H107.926z M113.469,50.594l0.629,2.184c0,0-0.504,0.608-3.611,0.608c-3.128,0-4.324-0.735-4.324-4.011h2.268
	c0,1.575,0.42,1.743,2.393,1.743C112.859,51.118,113.469,50.594,113.469,50.594z M107.379,45.596v-2.268h5.502v2.268H107.379z
	 M110.066,38.437v2.688h-1.301v-2.688H110.066z M111.998,38.437v2.688h-1.301v-2.688H111.998z"/>
<path fill="#FFFFFF" d="M125.396,37.723l1.932,1.154l-3.968,6.678l3.968,6.655l-1.932,1.176l-4.682-7.831L125.396,37.723z"/>
<path fill="#FFFFFF" d="M142.176,53.386c-2.688-0.546-5.585-1.806-6.005-6.571l2.268-0.189c0.42,3.717,2.372,4.157,4.199,4.535
	L142.176,53.386z M141.042,47.129v-4.871h-4.703V39.99h4.703v-2.268h2.268v2.268h2.372v2.268h-2.372v4.871H141.042z"/>
<path fill="#FFFFFF" d="M162.923,52.84c-2.54,1.176-4.515,0.504-5.69-2.373c-0.818-2.016-2.268-1.238-2.393-0.608l-0.651,3.527
	h-2.31l2.834-15.663h2.311l-1.639,9.133c1.407-0.209,3.087,0.547,3.885,2.625c0.588,1.533,1.26,2.037,3.023,1.176L162.923,52.84z"/>
</svg>
