<?xml version="1.0" encoding="UTF-8"?>
<svg id="_レイヤー_1" data-name="レイヤー_1" xmlns="http://www.w3.org/2000/svg" version="1.1" viewBox="0 0 274.1 27.6">
  <!-- Generator: Adobe Illustrator 29.1.0, SVG Export Plug-In . SVG Version: 2.1.0 Build 142)  -->
  <defs>
    <style>
      .st0 {
        fill: #fff;
      }

      .st1 {
        fill: #243f7e;
      }
    </style>
  </defs>
  <path class="st1" d="M0,17.6V.8h14.1v16.8H0ZM2.3,3.1v5h9.5V3.1H2.3ZM2.3,10.4v5h9.5v-5H2.3Z"/>
  <path class="st1" d="M25,.4v2.7h5.9v2.3h-3c0,3.7.8,7.3,3,10l-2,1.1c-2.5-3.4-3.3-7.5-3.3-11.1h-.7v7.7h1.2v2.3h-1.2v2.3h-2.3v-2.3h-1.3v-2.3h1.3v-7.7h-.7c0,3.6-.7,7.8-3.3,11.1l-2-1.1c2.1-2.7,2.9-6.3,2.9-10h-2.9v-2.3h5.9V.4h2.3Z"/>
  <path class="st1" d="M43.7,3.1V.8h1.3v2.7h-.4v1.8c-5.2,6.2-4.2,8.8-.6,10.2l-1,2c-4.6-1.6-6.2-5.9-1.4-12.1l-5.5.2v-2.3c0,0,7.6-.3,7.6-.3ZM47,.8v2.7h-1.3V.8h1.3Z"/>
  <path class="st1" d="M50,10.4v-2.3h14.1v2.3h-14.1Z"/>
  <path class="st1" d="M79,3.7l-.4,1.5h2.2v2.3h-3.4c.7.6,1.8,1.2,3.4,1.6l-.6,2.2c-.1,0-.3,0-.5-.1v6.4h-12v-6.4c-.2,0-.3,0-.5.1l-.6-2.2c1.6-.4,2.7-1,3.4-1.6h-3.4v-2.3h2.2l-.4-1.5h2.3l.4,1.5h1.4v-2.1c-1.3,0-2.7,0-4.3,0V1c6.8,0,10.8-.6,10.8-.6v2.3s-1.4.2-4.3.4v2.2h1.4l.4-1.5h2.3ZM72.7,10.7v-2.4c-.7.9-1.7,1.7-3.2,2.4h3.2ZM72.7,13.5v-.9h-2.6v.9h2.6ZM72.7,15.7v-.9h-2.6v.9h2.6ZM78.1,10.7c-1.5-.6-2.5-1.5-3.2-2.4v2.4h3.2ZM77.5,13.5v-.9h-2.6v.9h2.6ZM77.5,15.7v-.9h-2.6v.9h2.6Z"/>
  <path class="st1" d="M82.2,15.4l2-1,1.7,3.3-2,1-1.7-3.3Z"/>
  <path class="st1" d="M99.7,17.6v-5.6c-.7.5-1.5,1-2.4,1.4v-2.6c2.9-1.5,4.1-4.3,4.1-6.6h-4.1V2h2.1V.4h2.3v1.6h2.1v2.3c0,1.3-.3,3.1-1.4,4.9l2.3,2.1-1.5,1.7-1.1-1v5.7h-2.3ZM108.7.4v5.4h2.6v2.3h-2.6v7.3h2.6v2.3h-7.5v-2.3h2.6v-7.3h-2.2v-2.3h2.2V.4h2.3Z"/>
  <path class="st1" d="M117.3,8.2v1h10.8v2.3h-5.6c.5.7,1.1,1.4,1.9,2.1l1.9-1.7,1.5,1.7-1.4,1.3c.5.2,1.1.5,1.7.7l-.7,2.2c-4.5-1.6-6.4-3.7-7.5-6.1h-2.6v3.7c2.3-.2,3.7-.7,3.7-.7v2.3s-2.6.8-7,.8v-2.3c.4,0,.7,0,1,0v-3.8h-1v-2.3h1V.8h12.4v2.3h-10.1v1h9.7v1.6h-9.7v1h9.7v1.6h-9.7Z"/>
  <path class="st1" d="M136.2,5.9c4,0,7.5,3.7,1.7,11.8l-1.8-1.4c2.5-3.4,4.1-8,0-8.1v4.9h-2.3v-4.8c-.9.1-1.6.3-1.6.3l-.5-2.2s.9-.2,2.1-.3V2h2.3v3.9ZM139.6,4.3l2.1-.8,2,5.1-2.1.8-2-5.1ZM142.2,3.9V1.3h1.3v2.7h-1.3ZM144,3.9V1.3h1.3v2.7h-1.3Z"/>
  <path class="st1" d="M150,6.4h-2.3l-.5-3.3h2.3l.5,3.3ZM147.2,17.1c.9-2,.9-4,.9-6.6h-.9v-2.3h3.2v2.3c0,1.1,0,2.1,0,3,1.7,1.3,2.9,1.9,5.6,1.9h5.3v2.3h-5.3c-2.9,0-4.5-.5-6-1.6-.1.5-.3,1.1-.6,1.6l-2.2-.6ZM159.4,14.7h-2.3v-6.6h-2.6c-.4,4-1.1,5.8-1.1,5.8l-2.1-.7s1.3-2.4,1.3-10.6v-1.2c3.8,0,7.5-.9,7.5-.9v2.3s-2.1.6-5.2.9c0,.8,0,1.6,0,2.3h6.6v2.3h-1.9v6.6Z"/>
  <path class="st1" d="M167.6,11.6c0,2,.2,2.4,1.8,2.4v2.3c-3.3,0-4-1.2-4-4.3V3.9h2.3v7.7ZM173,5.2c3.3,0,4,1.2,4,4.3v6.7h-2.3v-6.4c0-2-.2-2.4-1.7-2.4v-2.3Z"/>
  <path class="st1" d="M189.2.4h2.3v1.6h2.5v2.3h-7.4V2h2.5V.4ZM186.7,11.8v-6.6h7.4v6.6h-2.7v2.6c0,2.2-1,3.3-2.5,3.3v-2.3c.4,0,.5-.3.5-1v-2.6h-2.7ZM186.7,15.8c.4-1.6.4-2.3.4-3.2h1.8c0,1.2,0,2-.5,3.8l-1.7-.6ZM189,7.5v2h2.8v-2h-2.8ZM192.4,16.1c-.5-1.5-.5-2.3-.5-3.5h1.8c0,.9,0,1.6.4,2.8l-1.7.6ZM199.6,14c0,1.1.4,1.4,1.2,1.4v2.3c-2.3,0-3.4-1.1-3.4-3.7v-1.1c-.4,1.8-1,3.3-1.8,4.8l-2.1-.8c1.8-3.1,2.3-6,2.4-11.4h-1.1v-2.3h1.1c0-.8,0-1.7,0-2.7h2.3c0,.9,0,1.8,0,2.7h1.1l-.4-2.3h1.4l.4,2.3h.2v2.3h-2.7c0,.9,0,1.8-.1,2.6h1.7v6Z"/>
  <path class="st1" d="M216.3.4v6.6h1.3v2.3h-1.3c0,1.4,0,2.7.3,4.1.2-.2.4-.4.6-.6l.4,2c-.2.2-.4.4-.5.5.1.5.3,1,.5,1.6l-2,.7c-.1-.3-.2-.7-.3-.9-.7.4-1.5.7-2.3.9l-.3-1.3h-3.8v-6.3h4.9v5.2c.3-.1.7-.3,1-.5-.4-1.9-.4-3.7-.4-5.6h-5.9v-2.3h.6v-2.7h-.6v-1.1h-.4v14.5h-1.6v-1.5c-.6.2-1.5.4-2.9.4v-2.3h.4V3.1h-.4V.8h4.9v1.1h1.7V.4h2.3v1.6h1.7v2.3h-.6v2.7h1.1V.4h1.8ZM206.4,5.3v-2.2h-.8v2.2h.8ZM206.4,9.8v-2.2h-.8v2.2h.8ZM206.4,12h-.8v2c.3,0,.6-.1.8-.2v-1.8ZM211.9,12.8v-1.1h-1.4v1.1h1.4ZM211.9,14.7v-1.1h-1.4v1.1h1.4ZM211.8,7v-2.7h-1.1v2.7h1.1ZM216.5,2.2h.8l.2,3.8h-.8l-.2-3.8Z"/>
  <path class="st1" d="M233.7.4l-.3,1.6h1v8.9h-1.2v3.1c0,1.1.4,1.4,1.2,1.4v2.3c-2.3,0-3.4-1.1-3.4-3.7v-3.1h-1.3c0,3.5-.9,5.5-3.1,6.7l-.9-1.6v1.6h-5.4v-6.2h5.4v4.1c1.2-.9,1.7-2,1.7-4.6h-1.1V2h1l-.3-1.6h2.3l.3,1.6h1.5l.3-1.6h2.3ZM225.6,3.3v2.3h-5.4v-2.3h5.4ZM225,.8v1.6h-4.1V.8h4.1ZM225,6.4v1.6h-4.1v-1.6h4.1ZM220.9,10.6v-1.6h4.1v1.6h-4.1ZM223.4,15.4v-1.6h-.8v1.6h.8ZM232.1,8.6v-4.4h-3.5v4.4h3.5Z"/>
  <path class="st1" d="M243.1,3.1v12.3h-6V3.1h6ZM240.8,8.1v-2.7h-1.4v2.7h1.4ZM240.8,13.1v-2.7h-1.4v2.7h1.4ZM242.8,16.9c.7-2,1.3-5.4,1.3-16.1h7v13.1c0,2.6-1.1,3.7-3.4,3.7v-2.3c.8,0,1.2-.3,1.2-1.4v-1.5h-2.9c-.2,2.5-.6,3.9-1,5.2l-2.2-.7ZM246.3,7.8c0,.9,0,1.7-.1,2.4h2.7v-2.4h-2.6ZM246.4,3.1c0,.9,0,1.7,0,2.4h2.5v-2.4h-2.5Z"/>
  <path class="st1" d="M268,4.5c-3.5-.4-5.9-1.4-7-2-1.2.6-3.5,1.5-7,2v-2.3c4.4-.6,7-2.3,7-2.3,0,0,2.6,1.7,7,2.3v2.3ZM255.1,15.4l1.9-4.1h-2.5v-2.3h12.8v2.3h-7.8l-1.9,4c3.4-.1,5.8-.5,6.8-.7l-.4-1.9h2.3l1.1,4.9h-2.3l-.2-.9c-.4.1-3.5.9-9.8.9v-2.3ZM256.7,5.1h8.4v2.3h-8.4v-2.3Z"/>
  <path class="st1" d="M273.9,12.8h-2.3l-.2-11.9h2.7l-.2,11.9ZM271.6,14.9h2.3v2.7h-2.3v-2.7Z"/>
  <path id="_パス_46341" data-name="パス_46341" class="st0" d="M165.2,27.6c-2.8,0-5.5-.5-8.1-1.6-1.9-.9-4.1-1.3-6.2-1.3-2.1,0-4.2.4-6.2,1.3-2.5,1.1-5.3,1.7-8.1,1.6-2.8,0-5.5-.5-8.1-1.6-1.9-.9-4-1.3-6.2-1.3-2.1,0-4.2.4-6.2,1.3-2.5,1.1-5.3,1.7-8.1,1.6-2.8,0-5.5-.5-8.1-1.6-1.9-.9-4.1-1.3-6.2-1.3v-5c2.8,0,5.5.5,8.1,1.6,1.9.9,4.1,1.3,6.2,1.3,2.1,0,4.2-.4,6.2-1.3,2.5-1.1,5.3-1.7,8.1-1.6,2.8,0,5.5.5,8.1,1.6,1.9.9,4,1.3,6.2,1.3,2.1,0,4.2-.4,6.2-1.3,2.5-1.1,5.3-1.7,8.1-1.6,2.8,0,5.5.5,8.1,1.6,1.9.9,4.1,1.3,6.2,1.3,2.1,0,4.2-.4,6.2-1.3,1.8-.8,3.7-1.3,5.6-1.5.8,0,1.6-.1,2.4-.1v5c-.6,0-1.3,0-1.9,0-1.5.2-2.9.6-4.3,1.2-2.5,1.1-5.3,1.7-8.1,1.6Z"/>
</svg>