<svg xmlns="http://www.w3.org/2000/svg" width="71.58" height="24.6" viewBox="0 0 71.58 24.6">
  <path id="パス_46517" data-name="パス 46517" d="M7.71,1.98v-24H2.7v3.24H4.47V1.98Zm12.57-24.3c-3.45,0-6.57,1.83-6.57,6.24v1.59h3.24v-1.59c0-2.1,1.08-3,3.33-3s3.3.9,3.3,3c0,4.56-9.87,11.1-9.87,14.82V1.98H26.82V-1.26H17.04c.93-3.33,9.78-9.09,9.78-14.82C26.82-20.49,23.7-22.32,20.28-22.32Zm12.54,9.57v3.93h3.24v-3.93Zm0,10.83v3.9h3.24v-3.9Zm15.81-20.4c-3.45,0-6.57,1.83-6.57,6.24v1.11H45.3v-1.11c0-2.1,1.08-3,3.33-3s3.3.9,3.3,3v1.41c0,2.1-1.05,3.03-3.3,3.03h-1.8V-8.4h1.8c2.25,0,3.3.9,3.3,3v1.41c0,2.1-1.05,3.03-3.3,3.03S45.3-1.89,45.3-3.99V-5.22H42.06v1.23c0,4.41,3.12,6.27,6.57,6.27,3.42,0,6.54-1.86,6.54-6.27V-5.4a5.937,5.937,0,0,0-1.83-4.62,6.052,6.052,0,0,0,1.83-4.65v-1.41C55.17-20.49,52.05-22.32,48.63-22.32Zm19.11,0c-3.45,0-6.57,1.83-6.57,6.24V-3.99c0,4.41,3.12,6.27,6.57,6.27,3.42,0,6.54-1.86,6.54-6.27V-16.08C74.28-20.49,71.16-22.32,67.74-22.32Zm3.3,18.33c0,2.1-1.05,3.03-3.3,3.03s-3.33-.93-3.33-3.03V-16.08c0-2.1,1.08-3,3.33-3s3.3.9,3.3,3Z" transform="translate(-2.7 22.32)" fill="#fff"/>
</svg>
