<svg xmlns="http://www.w3.org/2000/svg" width="70.98" height="24.6" viewBox="0 0 70.98 24.6">
  <path id="パス_46519" data-name="パス 46519" d="M7.71,1.98v-24H2.7v3.24H4.47V1.98Zm17.1-20.04H21.57V-6.3h-4.5l4.11-15.72H17.85L13.71-6.3v3.24h7.86V1.98h3.24V-3.06h2.01V-6.3H24.81Zm7.41,5.31v3.93h3.24v-3.93Zm0,10.83v3.9h3.24v-3.9Zm15.81-20.4c-3.45,0-6.57,1.83-6.57,6.24v1.11H44.7v-1.11c0-2.1,1.08-3,3.33-3s3.3.9,3.3,3v1.41c0,2.1-1.05,3.03-3.3,3.03h-1.8V-8.4h1.8c2.25,0,3.3.9,3.3,3v1.41c0,2.1-1.05,3.03-3.3,3.03S44.7-1.89,44.7-3.99V-5.22H41.46v1.23c0,4.41,3.12,6.27,6.57,6.27,3.42,0,6.54-1.86,6.54-6.27V-5.4a5.937,5.937,0,0,0-1.83-4.62,6.052,6.052,0,0,0,1.83-4.65v-1.41C54.57-20.49,51.45-22.32,48.03-22.32Zm19.11,0c-3.45,0-6.57,1.83-6.57,6.24V-3.99c0,4.41,3.12,6.27,6.57,6.27,3.42,0,6.54-1.86,6.54-6.27V-16.08C73.68-20.49,70.56-22.32,67.14-22.32Zm3.3,18.33c0,2.1-1.05,3.03-3.3,3.03s-3.33-.93-3.33-3.03V-16.08c0-2.1,1.08-3,3.33-3s3.3.9,3.3,3Z" transform="translate(-2.7 22.32)" fill="#fff"/>
</svg>
