<?xml version="1.0" encoding="utf-8"?>
<!-- Generator: Adobe Illustrator 15.0.0, SVG Export Plug-In . SVG Version: 6.00 Build 0)  -->
<!DOCTYPE svg PUBLIC "-//W3C//DTD SVG 1.1//EN" "http://www.w3.org/Graphics/SVG/1.1/DTD/svg11.dtd">
<svg version="1.1" id="レイヤー_1" xmlns="http://www.w3.org/2000/svg" xmlns:xlink="http://www.w3.org/1999/xlink" x="0px"
	 y="0px" width="125.239px" height="74.427px" viewBox="1.378 7.169 125.239 74.427"
	 enable-background="new 1.378 7.169 125.239 74.427" xml:space="preserve">
<g id="グループ_40934" transform="translate(-57 12.395)">
	<g enable-background="new    ">
		<path fill="#FFFFFF" d="M58.378,66.723h14.067v2.268H58.378V66.723z M71.794,52.194v2.268H59.05v-2.268H71.794z M70.787,61.726
			H60.058v-2.268h10.729V61.726z"/>
		<path fill="#FFFFFF" d="M83.345,51.774v1.554h5.9v4.535h-2.268v-2.268h-9.532v2.268h-2.268v-4.535h5.9v-1.554H83.345z
			 M75.598,62.356h5.48v-0.84h-2.981v-5.081h8.209v5.081h-2.96v0.84h5.48v6.635H75.598V62.356z M86.558,64.624h-8.692v2.1h8.692
			V64.624z M80.364,59.668h3.674v-1.386h-3.674V59.668z"/>
		<path fill="#FFFFFF" d="M96.723,62.902h-4.745V52.194h6.173v2.268h-1.638v1.008h1.281v1.554h-1.281v1.008h1.281v1.554h-1.281
			v1.008h1.638v4.724c0,2.1-0.441,3.675-2.457,3.675v-2.268c0.672,0,1.029-0.567,1.029-1.407V62.902z M93.3,63.511
			c0,0,0.021,3.422-0.252,5.479h-1.071c0.273-1.868,0.252-5.479,0.252-5.479H93.3z M94.308,67.291h-0.672v-3.779h0.672V67.291z
			 M95.127,55.469v-1.008h-1.155v1.008H95.127z M95.127,58.031v-1.008h-1.155v1.008H95.127z M95.127,60.592v-1.008h-1.155v1.008
			H95.127z M95.316,66.451h-0.651v-2.939h0.651V66.451z M96.345,63.511v2.52h-0.672v-2.52H96.345z M98.15,68.298
			c1.029-4.494,0.861-9.47,0.861-16.104h7.034v9.532h-1.554c0.336,4.01,1.554,6.277,1.554,6.277l-2.037,0.987
			c0,0-1.47-2.456-1.806-7.265h-1.008c-0.105,2.75-0.357,5.186-0.882,7.265L98.15,68.298z M101.279,54.461
			c0,1.743,0,3.423-0.021,4.997h2.52v-4.997H101.279z"/>
		<path fill="#FFFFFF" d="M125.807,55.701v2.624h3.338v2.268h-3.338v1.743h2.918v2.268h-2.918v2.078
			c0.293,0.021,0.608,0.042,0.924,0.042h2.414v2.268h-2.414c-2.227,0-3.611-0.44-4.787-1.323c-0.127,0.42-0.295,0.84-0.525,1.281
			l-2.163-0.566v0.608h-2.268V63.3c-0.546,0.547-1.176,1.029-1.869,1.428V61.6c0.987-0.588,1.68-1.7,2.058-2.792
			c-0.546,0.566-1.239,1.092-2.058,1.553v-3.128c1.428-0.84,1.869-2.331,1.869-3.8h2.268c0,1.112-0.189,2.246-0.672,3.316h1.26
			c0,1.407-0.42,3.023-1.26,4.473h0.672v7.097c0.861-2.016,1.008-3.989,1.008-6.319h2.268c0,1.133,0,2.141-0.084,3.086
			c0.336,0.336,0.692,0.63,1.092,0.861v-5.354h-3.318v-2.268h3.318v-2.624h-2.688v-2.268h2.688v-1.659h2.268v1.659h2.708v2.268
			H125.807z"/>
		<path fill="#FFFFFF" d="M140.674,55.826v1.365h5.27v2.268h-5.879v1.554c0,2.96-1.133,4.031-3.926,4.031v-2.268
			c1.26,0,1.658-0.315,1.658-1.764v-1.554h-5.92v-2.268h2.036v-3.863h2.268v3.863h2.226v-5.417h2.268v1.784h4.641v2.268H140.674z
			 M135.425,60.193c0,1.869-0.378,3.318-1.575,4.851l-1.973-1.134c0.965-1.302,1.28-2.478,1.28-3.717H135.425z M143.193,64.896
			c-1.785,1.953-5.396,4.095-11.316,4.095v-2.268c5.123,0,7.979-1.575,9.742-3.485L143.193,64.896z M144.684,60.193
			c0,1.239,0.295,2.415,1.26,3.717l-1.952,1.134c-1.196-1.532-1.575-2.981-1.575-4.851H144.684z"/>
		<path fill="#FFFFFF" d="M150.439,68.991V54.461h-1.238v-2.268h3.506v16.797H150.439z"/>
		<path fill="#FFFFFF" d="M166.084,56.351v8.461c0,3.087-2.184,4.389-4.578,4.389c-2.414,0-4.598-1.302-4.598-4.389v-8.461
			c0-3.086,2.184-4.367,4.598-4.367C163.9,51.984,166.084,53.265,166.084,56.351z M163.816,56.351c0-1.47-0.735-2.1-2.311-2.1
			c-1.574,0-2.33,0.63-2.33,2.1v8.461c0,1.471,0.756,2.121,2.33,2.121c1.575,0,2.311-0.65,2.311-2.121V56.351z"/>
		<path fill="#FFFFFF" d="M169.551,56.939c1.994-1.658,2.813-3.045,3.38-5.375l2.184,0.63c-0.608,2.897-2.036,4.976-4.052,6.425
			L169.551,56.939z M175.387,62.125c-0.44,3.759-2.477,5.816-4.472,6.866l-1.364-1.806c1.7-0.966,3.148-2.457,3.548-5.061h-2.12
			v-2.268h11.799v5.459c0,2.604-1.133,3.675-3.443,3.675h-1.637v-2.268h1.637c0.777,0,1.176-0.315,1.176-1.407v-3.191H175.387z
			 M180.217,51.564c0.588,2.33,1.385,3.717,3.4,5.375l-1.532,1.68c-1.995-1.449-3.443-3.527-4.052-6.425L180.217,51.564z"/>
	</g>
	<g enable-background="new    ">
		<path fill="#FFFFFF" d="M69.648-2.539v-2.268h6.824v2.876c0,2.604-1.134,3.675-3.443,3.675v-2.268
			c0.777,0,1.176-0.315,1.176-1.407v-0.608h-1.638c-0.42,2.919-1.701,4.283-1.701,4.283l-1.323-0.672l0.105,0.672h-2.331
			l-0.105-0.714c-0.819,0.294-2.457,0.714-4.808,0.714v-2.268h0.42v-4.073c3.317,0,6.194-0.63,6.194-0.63v2.268
			c0,0-1.659,0.378-3.926,0.546v1.68c0.756-0.126,1.365-0.273,1.827-0.42L66.793-1.93h2.331l0.252,1.743
			c0.294-0.567,0.63-1.364,0.84-2.352H69.648z M75.842,9.639h-1.05c0.441,0.252,0.987,0.42,1.68,0.524l-0.651,1.827
			c-2.184-0.315-3.233-1.155-3.947-2.352h-4.892c-0.714,1.196-1.764,2.036-3.947,2.352l-0.63-1.827
			c0.672-0.104,1.218-0.272,1.659-0.524h-1.029V2.165h12.808V9.639z M73.575,4.474V3.802h-8.272v0.672H73.575z M73.575,6.238V5.566
			h-8.272v0.672H73.575z M73.575,8.001V7.33h-8.272v0.672H73.575z"/>
		<path fill="#FFFFFF" d="M83.068,2.962c0,0.314-0.042,0.63-0.084,0.902h10.288v4.451c0,2.604-1.134,3.675-3.443,3.675V9.723
			c0.777,0,1.176-0.315,1.176-1.407V6.132h-1.197c-0.231,3.885-1.995,5.858-1.995,5.858l-1.953-1.134c0,0,1.428-1.701,1.68-4.725
			h-1.596c-0.252,3.318-2.037,5.019-2.037,5.019l-1.911-1.218c0,0,1.386-1.406,1.68-3.801h-1.302
			c-0.567,1.365-1.26,2.059-1.26,2.059l-1.911-1.239c0,0,1.407-1.448,1.596-3.989h-0.966v-7.769h12.808v7.769H83.068z M82.102-2.539
			v0.944h8.272v-0.944H82.102z M82.102,0.695h8.272V-0.25h-8.272V0.695z"/>
		<path fill="#FFFFFF" d="M99.553,2.081l-1.89,0.42l-0.504-2.204l2.394-0.547v-3.422h2.268v2.918l6.425-1.428l-0.672,6.467
			l-2.268-0.23l0.357-3.338l-3.842,0.86V7.98c0,1.575,0.441,1.743,2.415,1.743h3.002v2.268h-3.338c-3.128,0-4.346-0.735-4.346-4.011
			V2.081z"/>
		<path fill="#FFFFFF" d="M118.599,0.841l-1.617,1.596l-3.254-3.4l1.617-1.575L118.599,0.841z M125.129,1.052
			c-1.406,5.438-4.745,8.859-9.7,10.938l-1.155-1.952c5.039-2.311,7.181-5.019,8.777-9.869L125.129,1.052z"/>
		<path fill="#FFFFFF" d="M135.378-3.672c0,0.378-0.021,0.756-0.042,1.134h4.809v6.131c0,5.06-2.73,7.495-5.774,8.398l-0.944-2.058
			c2.268-0.756,3.695-1.953,4.22-4.157l-3.171-1.134l0.777-2.142l2.625,0.966v-3.737h-2.793c-0.378,1.952-1.07,3.675-2.205,5.123
			l-1.826-1.323c1.49-1.952,2.037-4.324,2.037-7.201H135.378z"/>
		<path fill="#FFFFFF" d="M147.601,3.109h8.734v2.289h-8.734V3.109z"/>
		<path fill="#FFFFFF" d="M166.27,5.902h-4.746V-4.806h6.174v2.268h-1.639v1.008h1.281v1.554h-1.281v1.008h1.281v1.554h-1.281v1.008
			h1.639v4.724c0,2.1-0.441,3.675-2.457,3.675V9.723c0.672,0,1.029-0.567,1.029-1.407V5.902z M162.847,6.511
			c0,0,0.021,3.422-0.252,5.479h-1.071c0.273-1.868,0.252-5.479,0.252-5.479H162.847z M163.854,10.291h-0.672V6.511h0.672V10.291z
			 M164.674-1.531v-1.008h-1.155v1.008H164.674z M164.674,1.031V0.023h-1.155v1.008H164.674z M164.674,3.592V2.585h-1.155v1.008
			H164.674z M164.862,9.451h-0.651V6.511h0.651V9.451z M165.891,6.511v2.52h-0.672v-2.52H165.891z M167.697,11.298
			c1.028-4.494,0.86-9.47,0.86-16.104h7.034v9.532h-1.555c0.336,4.01,1.555,6.277,1.555,6.277l-2.037,0.987
			c0,0-1.47-2.456-1.806-7.265h-1.008c-0.104,2.75-0.356,5.186-0.882,7.265L167.697,11.298z M170.825-2.539
			c0,1.743,0,3.423-0.021,4.997h2.52v-4.997H170.825z"/>
	</g>
	<g enable-background="new    ">
		<path fill="#FFFFFF" d="M80.37,29.212c3.968,0.041,7.517,3.716,1.701,11.778l-1.785-1.407c2.541-3.359,4.094-8.041,0.084-8.104
			v4.934h-2.268v-4.766c-0.924,0.104-1.617,0.252-1.617,0.252l-0.504-2.205c0,0,0.903-0.21,2.121-0.357v-4.01h2.268V29.212z
			 M84.401,27.701l2.1-0.84l2.016,5.06l-2.1,0.84L84.401,27.701z"/>
		<path fill="#FFFFFF" d="M101.222,25.726l-0.168,2.268l-5.438-0.398l0.168-2.268L101.222,25.726z M98.45,31.626
			c2.562,0.462,4.22,2.289,4.22,4.619c0,3.045-2.31,5.795-7.055,4.367l0.357-2.246c3.17,0.965,4.409-0.441,4.409-2.121
			c0-1.638-1.323-2.75-4.199-2.604v-3.989h2.268V31.626z"/>
		<path fill="#FFFFFF" d="M118.525,27.701v2.624h3.338v2.268h-3.338v1.743h2.918v2.268h-2.918v2.078
			c0.294,0.021,0.609,0.042,0.924,0.042h2.414v2.268h-2.414c-2.226,0-3.611-0.44-4.787-1.323c-0.126,0.42-0.294,0.84-0.525,1.281
			l-2.163-0.566v0.608h-2.268V35.3c-0.546,0.547-1.176,1.029-1.869,1.428V33.6c0.987-0.588,1.68-1.7,2.058-2.792
			c-0.546,0.566-1.239,1.092-2.058,1.553v-3.128c1.428-0.84,1.869-2.331,1.869-3.8h2.268c0,1.112-0.189,2.246-0.672,3.316h1.26
			c0,1.407-0.42,3.023-1.26,4.473h0.672v7.097c0.861-2.016,1.008-3.989,1.008-6.319h2.268c0,1.133,0,2.141-0.084,3.086
			c0.336,0.336,0.693,0.63,1.092,0.861v-5.354h-3.317v-2.268h3.317v-2.624h-2.688v-2.268h2.688v-1.659h2.268v1.659h2.708v2.268
			H118.525z"/>
		<path fill="#FFFFFF" d="M133.394,27.826v1.365h5.271v2.268h-5.879v1.554c0,2.96-1.135,4.031-3.927,4.031v-2.268
			c1.26,0,1.659-0.315,1.659-1.764v-1.554h-5.922v-2.268h2.037v-3.863h2.268v3.863h2.226v-5.417h2.268v1.784h4.64v2.268H133.394z
			 M128.145,32.193c0,1.869-0.378,3.318-1.574,4.851l-1.975-1.134c0.967-1.302,1.281-2.478,1.281-3.717H128.145z M135.913,36.896
			c-1.784,1.953-5.396,4.095-11.317,4.095v-2.268c5.123,0,7.979-1.575,9.742-3.485L135.913,36.896z M137.404,32.193
			c0,1.239,0.293,2.415,1.26,3.717l-1.953,1.134c-1.197-1.532-1.574-2.981-1.574-4.851H137.404z"/>
		<path fill="#FFFFFF" d="M143.16,40.991V26.461h-1.239v-2.268h3.507v16.797H143.16z"/>
		<path fill="#FFFFFF" d="M148.893,28.939c1.995-1.658,2.814-3.045,3.381-5.375l2.184,0.63c-0.609,2.897-2.037,4.976-4.053,6.425
			L148.893,28.939z M154.73,34.125c-0.441,3.759-2.479,5.816-4.473,6.866l-1.365-1.806c1.701-0.966,3.15-2.457,3.549-5.061h-2.121
			v-2.268h11.801v5.459c0,2.604-1.135,3.675-3.443,3.675h-1.639v-2.268h1.639c0.776,0,1.176-0.315,1.176-1.407v-3.191H154.73z
			 M159.559,23.564c0.588,2.33,1.387,3.717,3.402,5.375l-1.533,1.68c-1.994-1.449-3.443-3.527-4.053-6.425L159.559,23.564z"/>
	</g>
</g>
</svg>
