<?xml version="1.0" encoding="utf-8"?>
<!-- Generator: Adobe Illustrator 15.0.0, SVG Export Plug-In . SVG Version: 6.00 Build 0)  -->
<!DOCTYPE svg PUBLIC "-//W3C//DTD SVG 1.1//EN" "http://www.w3.org/Graphics/SVG/1.1/DTD/svg11.dtd">
<svg version="1.1" id="レイヤー_1" xmlns="http://www.w3.org/2000/svg" xmlns:xlink="http://www.w3.org/1999/xlink" x="0px"
	 y="0px" width="125.238px" height="74.428px" viewBox="0 0 125.238 74.428" enable-background="new 0 0 125.238 74.428"
	 xml:space="preserve">
<path fill="#FFFFFF" d="M7.926,0.001h2.289v1.554h2.541v2.269h-7.37V1.554h2.541L7.926,0.001L7.926,0.001z M5.385,11.401V4.807h7.37
	v6.594h-2.667v2.562c0,2.184-1.008,3.255-2.541,3.255V14.95c0.398,0,0.504-0.315,0.504-0.987v-2.562H5.385z M5.385,15.412
	c0.356-1.555,0.356-2.269,0.356-3.17h1.785c0,1.153,0.021,1.993-0.462,3.8L5.385,15.412z M7.674,7.076v2.036h2.813V7.076H7.674z
	 M11.075,15.706c-0.482-1.471-0.462-2.311-0.462-3.464h1.785c0,0.901,0,1.615,0.357,2.834L11.075,15.706z M18.298,13.543
	c0,1.092,0.398,1.407,1.155,1.407v2.268c-2.289,0-3.423-1.071-3.423-3.675V12.43c-0.398,1.827-0.966,3.339-1.826,4.787l-2.101-0.84
	c1.807-3.128,2.269-6.026,2.395-11.422h-1.113V2.687h1.134c0-0.84,0.021-1.722,0.021-2.688h2.268c0,0.943-0.021,1.848-0.021,2.688
	h1.092l-0.378-2.267h1.364l0.379,2.268h0.168v2.269h-2.667c-0.021,0.924-0.063,1.764-0.105,2.583h1.659L18.298,13.543L18.298,13.543
	z"/>
<path fill="#FFFFFF" d="M26.237,3.844l-0.902,2.078l-3.149-1.365l0.903-2.078L26.237,3.844z M26.237,7.664l-0.902,2.079
	l-3.149-1.345l0.903-2.079L26.237,7.664z M26.489,10.602c0,2.101-0.336,3.717-2.352,5.984l-1.953-1.154
	c1.743-2.1,2.037-3.381,2.037-4.83H26.489z M27.098,0.631c5.313,0,9.154-0.63,9.154-0.63v2.268c0,0-1.281,0.21-3.443,0.399V4.64
	h3.443v2.269h-3.443v1.91h3.443v8.398h-9.154V8.819h3.443v-1.91h-3.443V4.64h3.443V2.813c-1.029,0.042-2.205,0.084-3.443,0.084
	V0.631z M33.984,11.087h-4.619v3.863h4.619V11.087z"/>
<path fill="#FFFFFF" d="M42.051,11.213c0,1.974,0,2.394,0.672,2.394v2.269c-2.771,0-2.939-1.196-2.939-4.325v-8.86h2.269
	L42.051,11.213L42.051,11.213z M52.465,15.894c0,0-0.504,0.609-3.611,0.609c-3.128,0-4.346-0.734-4.346-4.031h2.289
	c0,1.596,0.42,1.764,2.394,1.764c2.037,0,2.646-0.524,2.646-0.524L52.465,15.894z M51.247,2.687v2.269h-5.501V2.687H51.247z"/>
<path fill="#FFFFFF" d="M68.004,3.905c0,1.093,0.168,1.429,1.428,1.429v2.268c-2.563,0-3.695-1.069-3.695-3.694v-1.22h-2.33
	c-0.146,2.163-0.651,3.863-2.289,5.354L59.773,7.18c-0.21,0.777-0.524,1.533-0.944,2.269h0.672v7.769h-2.269v-5.69
	c-0.546,0.548-1.176,1.029-1.869,1.429V9.828c0.987-0.588,1.681-1.7,2.059-2.792c-0.546,0.565-1.239,1.092-2.059,1.553V5.461
	c1.429-0.84,1.869-2.331,1.869-3.8h2.269c0,1.111-0.21,2.246-0.672,3.315h1.26c0,0.295-0.021,0.588-0.063,0.903
	c1.029-1.407,1.177-2.897,1.177-5.459h6.802V3.905z M69.012,10.519c0,1.155-0.525,2.625-1.742,3.885
	c0.713,0.273,1.428,0.463,2.162,0.589l-0.42,2.226c-1.449-0.252-2.73-0.672-3.885-1.218c-1.176,0.63-2.688,1.069-4.535,1.218
	l-0.294-2.247c0.924-0.104,1.722-0.271,2.394-0.481c-0.714-0.589-1.322-1.197-1.827-1.849l1.681-1.533
	c0.755,0.903,1.617,1.617,2.519,2.205c1.385-1.028,1.682-2.246,1.682-2.793h-6.069V8.252h8.336v2.268H69.012z"/>
<path fill="#FFFFFF" d="M83.733,3.821V14.95h2.498v2.268H72.166V14.95h9.301V3.821h-8.588V1.554h5.186V0.001h2.27v1.554h5.164v2.269
	h-1.766V3.821z M74.664,5.166h2.268v8.42h-2.268V5.166z"/>
<path fill="#FFFFFF" d="M89.383,6.971c16-5.983,15.098,8.818,6.551,9.196l-0.42-2.227c5.711-0.21,6.719-9.363-5.416-4.829
	L89.383,6.971z"/>
<path fill="#FFFFFF" d="M113.301,12.367h-2.268l-0.211-11.946h2.689L113.301,12.367z M113.301,14.487v2.729h-2.268v-2.729H113.301z"
	/>
<path fill="#FFFFFF" d="M37.64,36.748c-1.155,0.692-2.331,1.196-3.905,1.659l-0.65-2.163c3.232-0.986,6.173-3.191,7.958-5.689
	l1.827,1.322c-0.819,1.028-1.849,2.205-2.961,3.19v11.149H37.64V36.748z"/>
<path fill="#FFFFFF" d="M47.721,37.588l5.144-5.061l8.944,9.512l-1.659,1.555l-7.349-7.811l-3.485,3.422L47.721,37.588z
	 M58.365,32.569v2.709h-1.302v-2.709H58.365z M60.297,32.569v2.709h-1.302v-2.709H60.297z"/>
<path fill="#FFFFFF" d="M70.378,35.067l-1.617,1.597l-3.254-3.4l1.617-1.575L70.378,35.067z M76.907,35.278
	c-1.406,5.438-4.744,8.859-9.699,10.938l-1.155-1.952c5.039-2.311,7.181-5.019,8.776-9.869L76.907,35.278z"/>
<path fill="#FFFFFF" d="M85.1,30.554h2.269v5.459l4.786,1.238l-0.566,2.205l-4.22-1.092v7.853H85.1V30.554z"/>
<path fill="#FFFFFF" d="M28.42,57.207l0.356,1.344h0.336v2.268h-2.582c0.085,0.44,0.211,0.883,0.357,1.323
	c0.21-0.272,0.378-0.588,0.546-0.902l1.68,1.176c-0.252,0.566-0.63,1.176-1.154,1.784c0.314,0.463,0.692,0.944,1.154,1.406
	l-1.596,1.639c-0.504-0.504-0.924-1.009-1.302-1.533c-0.945,0.65-2.1,1.197-3.443,1.533l-0.482-1.281
	c-0.546,0.861-1.533,1.281-2.96,1.281v-2.269c0.756,0,1.154-0.336,1.154-1.008v-0.084H17.86c-0.253,2.183-0.589,3.359-0.589,3.359
	l-2.226-0.441c0,0,0.86-3.044,0.86-8.251h8.125c-0.021-0.44-0.021-0.903-0.021-1.344h2.268c0,0.462,0,0.902,0.021,1.344h0.735
	l-0.357-1.344H28.42z M28.483,67.663v4.493h0.63v2.268H15.046v-2.268h0.63v-4.493H28.483z M19.476,72.156v-2.227h-1.533v2.227
	H19.476z M25.187,63.968c-0.482-1.029-0.776-2.1-0.944-3.149h-6.132c0,0.356-0.021,0.715-0.063,1.051h4.703v2.1
	c0,0.462-0.042,0.861-0.147,1.218C23.549,64.954,24.431,64.534,25.187,63.968z M22.835,72.156v-2.227h-1.512v2.227H22.835z
	 M26.216,72.156v-2.227h-1.533v2.227H26.216z"/>
<path fill="#FFFFFF" d="M36.715,63.926c0,1.974,0,2.394,0.672,2.394v2.269c-2.77,0-2.938-1.197-2.938-4.346v-4.348h2.268v4.031
	H36.715z M38.291,73.394c0,0,2.352-3.821,2.352-14.635h2.27c0,11.652-2.605,15.663-2.605,15.663L38.291,73.394z"/>
<path fill="#FFFFFF" d="M55.196,59.893v2.269h-2.541l-0.648,9.657h-2.27l0.65-9.657h-1.553v-2.269h1.721l0.064-1.134h2.289
	l-0.084,1.134H55.196z M60.74,71.632l0.629,2.184c0,0-0.504,0.608-3.611,0.608c-3.129,0-4.324-0.735-4.324-4.011h2.268
	c0,1.575,0.42,1.743,2.393,1.743C60.129,72.156,60.74,71.632,60.74,71.632z M54.649,66.634v-2.268h5.502v2.268H54.649z
	 M57.336,59.474v2.688h-1.301v-2.688H57.336z M59.268,59.474v2.688h-1.301v-2.688H59.268z"/>
<path fill="#FFFFFF" d="M72.666,58.76l1.932,1.154l-3.967,6.678l3.967,6.655l-1.932,1.176l-4.682-7.831L72.666,58.76z"/>
<path fill="#FFFFFF" d="M89.446,74.424c-2.688-0.546-5.584-1.806-6.004-6.571l2.268-0.188c0.42,3.717,2.373,4.157,4.199,4.535
	L89.446,74.424z M88.313,68.167v-4.871H83.61v-2.269h4.703V58.76h2.268v2.268h2.373v2.269H90.58v4.871H88.313z"/>
<path fill="#FFFFFF" d="M110.194,73.878c-2.541,1.176-4.516,0.504-5.689-2.373c-0.818-2.016-2.27-1.238-2.395-0.608l-0.65,3.527
	h-2.311l2.834-15.663h2.313l-1.641,9.133c1.408-0.209,3.088,0.547,3.887,2.625c0.588,1.533,1.26,2.037,3.021,1.176L110.194,73.878z"
	/>
</svg>
