<?xml version="1.0" encoding="utf-8"?>
<!-- Generator: Adobe Illustrator 15.0.0, SVG Export Plug-In . SVG Version: 6.00 Build 0)  -->
<!DOCTYPE svg PUBLIC "-//W3C//DTD SVG 1.1//EN" "http://www.w3.org/Graphics/SVG/1.1/DTD/svg11.dtd">
<svg version="1.1" id="レイヤー_1" xmlns="http://www.w3.org/2000/svg" xmlns:xlink="http://www.w3.org/1999/xlink" x="0px"
	 y="0px" width="394.754px" height="32.814px" viewBox="3.399 13.845 394.754 32.814"
	 enable-background="new 3.399 13.845 394.754 32.814" xml:space="preserve">
<path fill="#FFFFFF" d="M30.195,20.324H18.957v1.199h9.079v7.079h-9.079v1.2h10.039v3.719h1.2v4.319h-1.2v3.68H18.917
	c-0.2,3.959-1.92,5.119-6.519,5.119h-1.8V43.32h1.8c1.2,0,1.919-0.64,2.16-1.8H4.599v-3.119h10.039v-1.32H3.399v-2.8h11.238v-1.319
	H4.599v-3.159h10.039v-1.2H5.559v-7.079h9.079v-1.199H3.399v-4.319h11.238v-2.16h4.319v2.16h11.238V20.324z M14.638,25.763v-1.359
	H9.878v1.359H14.638z M23.716,24.403h-4.759v1.359h4.759V24.403z M24.676,32.962h-5.719v1.319h5.719V32.962z M24.676,38.401v-1.32
	h-5.719v1.32H24.676z"/>
<path fill="#FFFFFF" d="M58.035,13.845l-0.56,2.96h4.719v4.319H35.399v-4.319h4.719l-0.56-2.96h4.439l0.56,2.96h8.479l0.56-2.96
	H58.035z M35.399,46.64V23.283h13.398V40.4c0,4.079-1.32,6.239-5.799,6.239V42.32c1.32,0,1.48-0.76,1.48-1.92v-1.399h-4.759v7.639
	H35.399z M39.718,26.403v3.199h4.759v-3.199H39.718z M39.718,32.722v3.199h4.759v-3.199H39.718z M54.676,23.283v15.478h-4.319
	V23.283H54.676z M57.875,23.283h4.319v16.357c0,4.959-2.16,6.999-6.559,6.999h-3.119V42.32h3.119c1.48,0,2.24-0.6,2.24-2.68V23.283z
	"/>
<path fill="#FFFFFF" d="M82.956,23.283c0,0.601-0.08,1.24-0.24,1.84h11.478v4.319h-6.399c1.44,0.84,3.479,1.68,6.399,2.399
	l-1.4,4.079c-2.239-0.64-4.199-1.359-5.799-2.159l0.28,0.68c-3.279,1.2-5.599,1.479-12.958,1.479v-2.079
	c-1.64,0.8-3.479,1.52-5.559,2.079l-1.36-4.079c2.479-0.6,4.519-1.439,6.159-2.399h-6.159v-4.319h10.718
	c0.36-0.68,0.52-1.279,0.52-1.84H82.956z M73.478,13.845h5.799l-4.039,5.039c4.879-0.159,8.079-0.52,10.078-0.84l-1.16-3.319h4.719
	l3.079,8.559h-4.719l-0.44-1.199c-2.319,0.479-7.358,1.199-17.157,1.199v-4.319L73.478,13.845z M69.958,42.32
	c14.717,0,16.957-0.88,20.077-2.04l1.6,4.04c-3.879,1.439-6.599,2.319-21.676,2.319V42.32z M72.317,37.401
	c10.238,0,12.518-0.601,15.638-1.6l1.56,3.359c-3.839,1.239-6.319,1.84-17.197,1.84V37.401z M81.236,29.442h-0.919
	c-0.88,1-2,1.96-3.32,2.84c3.24-0.04,5.119-0.2,6.639-0.521C82.636,31.002,81.836,30.242,81.236,29.442z"/>
<path fill="#FFFFFF" d="M106.957,22.283c-0.08,14.198-0.56,17.438-3.919,24.356l-3.639-2.319c2.759-6.239,3.16-8.879,3.239-22.037
	h-2.439v-4.318h2.439v-4.12h4.319v4.12h6.959v21.676c0,4.959-2.16,6.999-6.519,6.999h-1.04V42.32h1.04c1.48,0,2.2-0.6,2.2-2.68
	V22.283H106.957z M126.193,18.964v26.476h-11.078V18.964H126.193z M121.874,41.12V23.283h-2.399V41.12H121.874z"/>
<path fill="#FFFFFF" d="M155.793,18.964c-0.96,2.52-3.479,5.72-6.319,7.359h8.718v4.319c-0.56,3.239-1.959,6.118-5.519,8.118
	l-2.72-3.359c2.24-1.279,3.24-3.119,3.76-4.759h-5.639v8.998c0,4.959-2.16,6.999-6.559,6.999h-2.64V42.32h2.64
	c1.48,0,2.24-0.6,2.24-2.68v-8.998h-12.358v-4.319h10.918l-3.439-3.479l3.08-3.04l3.759,3.8c2.2-1.2,4.08-2.72,5.319-4.64h-17.277
	v-4.319h22.037V18.964z"/>
<path fill="#FFFFFF" d="M180.554,13.845c0,1.04-0.04,2.04-0.08,2.96h9.718v22.836c0,4.959-2.16,6.999-6.559,6.999h-2.639V42.32
	h2.639c1.48,0,2.24-0.6,2.24-2.68V21.124h-5.799c-0.8,5.039-2.16,7.039-2.16,7.039l-3.319-1.04l0.52,7.839h-3.239l-0.04-1.12
	l-0.48,0.12V46.64h-3.319V34.642c-1.32,0.2-2.879,0.32-4.639,0.32v-4.319l1.919-3.479h-1.919v-4.359l4.159-7.599l3.799,2.039
	l-3.04,5.56h1.92v4.359l-1.68,3.039c1.16-0.2,2.16-0.439,2.959-0.68l-0.2-3.159h2.72c0.6-1.44,2.2-5.879,2.2-12.519H180.554z
	 M167.196,36.441c0,3.079-0.12,7.278-0.96,9.599l-2.839-1c0.76-2.2,0.8-5.999,0.8-8.599H167.196z M175.115,36.722v8.318h-2.919
	v-8.318H175.115z M182.674,29.242l0.959,7.759h-4.439l-0.96-7.759H182.674z"/>
<path fill="#FFFFFF" d="M201.916,44.08c-5.279,0-5.599-2.279-5.599-8.238V21.124h4.319v14.077c0,3.76,0,4.56,1.28,4.56V44.08z
	 M215.594,16.805v4.319h4.879v4.319h-4.879v10.438h3.998V40.2h-3.998c0,2.36-0.44,6.439-5.359,6.439c-4,0-5.399-2.64-5.399-5.039
	c0-2.52,1.72-5.719,6.438-5.719V25.443h-6.999v-4.319h6.999v-4.319H215.594z M211.474,40.001c-1.72,0-2.479,0.439-2.479,1.359
	c0,0.52,0.32,1.12,1.199,1.12C211.394,42.48,211.474,41.521,211.474,40.001z"/>
<path fill="#FFFFFF" d="M249.513,44.28c0,0-2.919,1.159-10.838,1.159c-5.959,0-8.278-1.399-8.278-7.679h4.318
	c0,3.04,0.84,3.359,4.6,3.359c6.799,0,8.998-0.999,8.998-0.999L249.513,44.28z M242.994,26.603c0-2.999-0.84-3.319-4.6-3.319h-5.719
	v-4.319h6.359c5.998,0,8.277,1.4,8.277,7.639H242.994z"/>
<path fill="#FFFFFF" d="M271.555,28.803c4.879,0.88,7.998,4.359,7.998,8.799c0,5.799-4.359,11.038-13.398,8.318l0.681-4.279
	c6.039,1.84,8.398-0.84,8.398-4.039c0-3.12-2.52-5.239-7.999-4.96v-7.198h-5.799v-4.319h5.799v-4.319h4.32v4.319h7.678v4.319h-7.678
	V28.803z"/>
<path fill="#FFFFFF" d="M307.673,17.564l-0.319,4.319l-10.359-0.76l0.32-4.319L307.673,17.564z M302.394,28.803
	c4.88,0.88,8.039,4.359,8.039,8.799c0,5.799-4.399,11.038-13.438,8.318l0.681-4.279c6.038,1.84,8.398-0.84,8.398-4.039
	c0-3.12-2.52-5.239-7.999-4.96v-7.599h4.319V28.803z"/>
<path fill="#FFFFFF" d="M330.354,24.203c7.559,0.08,14.317,7.079,3.239,22.437l-3.399-2.68c4.839-6.398,7.799-15.317,0.16-15.438
	v9.398h-4.319v-9.078c-1.76,0.2-3.08,0.479-3.08,0.479l-0.959-4.199c0,0,1.72-0.399,4.039-0.68v-7.639h4.319V24.203z
	 M338.033,21.324l4-1.601l3.839,9.639l-3.999,1.6L338.033,21.324z"/>
<path fill="#FFFFFF" d="M370.073,17.564l-0.319,4.319l-10.359-0.76l0.32-4.319L370.073,17.564z M364.794,28.803
	c4.88,0.88,8.039,4.359,8.039,8.799c0,5.799-4.399,11.038-13.438,8.318l0.681-4.279c6.038,1.84,8.398-0.84,8.398-4.039
	c0-3.12-2.52-5.239-7.999-4.96v-7.599h4.319V28.803z"/>
<path fill="#FFFFFF" d="M397.754,37.401h-4.319l-0.4-22.757h5.119L397.754,37.401z M397.754,41.44v5.199h-4.319V41.44H397.754z"/>
</svg>
