<?xml version="1.0" encoding="UTF-8"?>
<svg id="_レイヤー_1" data-name="レイヤー_1" xmlns="http://www.w3.org/2000/svg" version="1.1" viewBox="0 0 114.2 28.5">
  <!-- Generator: Adobe Illustrator 29.1.0, SVG Export Plug-In . SVG Version: 2.1.0 Build 142)  -->
  <defs>
    <style>
      .st0 {
        fill: #243f7e;
      }
    </style>
  </defs>
  <path class="st0" d="M29.2,7.8c0-1.5-.8-2.7-2.1-3.2,0-.3.1-.7.1-.9s-.3-.6-.6-.6-.6.2-.6.5v.3c0,.1,0,.3-.1.4-.3,0-.6,0-.8,0-.4,0-.7,0-1.1,0,0-.7,0-1.2.2-1.8,1,0,2,0,3,0,.2,0,.4,0,.6,0,.4,0,.7-.3.7-.6s-.2-.6-.6-.6c-.3,0-.7,0-1.1,0h-.3c-.8,0-1.4,0-2,0,.1-.3.1-.5.1-.6,0-.3-.3-.6-.6-.6s-.5.1-.6.4c-.1.3-.2.6-.3.9-.7,0-2.1.1-2.6.3-.3.1-.4.3-.4.6s.3.6.6.6.1,0,.2,0c.6-.2,1.2-.2,1.8-.2h0c0,.7-.1,1.4-.1,2-2,.7-4,2.6-4,4.8s.8,2,2,2,.8,0,1.2-.2c2.5-.8,4.1-2.6,4.9-5.3.7.4,1.1,1.1,1.1,2s-1.1,2.4-2,3c-.2.1-.4.2-.6.4h-.2c-.2.2-.4.4-.4.7s.3.6.6.6.2,0,.3,0c1.7-.8,3.5-2.5,3.5-4.6ZM20.7,10.1c-.6,0-.8-.2-.8-.8,0-1.4,1.4-2.8,2.8-3.4,0,.8.2,2,.5,2.6,0,.1.2.2.3.3-.6.5-1.3.9-2,1.1-.3,0-.5.1-.8.1ZM24,5.5c.4,0,.8,0,1.1,0s.3,0,.5,0c-.3,1-.7,1.8-1.3,2.5-.2-.6-.3-1.4-.4-2.5Z"/>
  <path class="st0" d="M31.3,7.9c.1,0,.3,0,.4-.1,1.3-1,2.7-3.4,3.4-4.7.4,0,.8.1,1.1.1s1.9,0,1.9-.9-.3-.6-.6-.6-.2,0-.3,0c-.5.2-.9.3-1.6.2,0,0,0-.2,0-.3,0-.3-.3-.6-.6-.6s-.6.3-.7.6c-.2,0-.3-.2-.5-.2,0,0-.2,0-.3,0-.3,0-.6.3-.6.6s0,.4.3.5c.2.1.4.3.6.3-.6,1.1-1.6,3-2.9,4.1-.2.1-.2.3-.2.5,0,.4.3.6.6.6Z"/>
  <path class="st0" d="M39.1,5.1c.1,0,.4.1.6.2.4.1.5.2.6.2.4,0,.6-.3.6-.6s0-.4-.3-.5c-.2-.1-1.2-.5-1.4-.5s-.6.3-.6.6.2.6.5.6Z"/>
  <path class="st0" d="M37.5,4.3c-.7.5-.8,2-.8,3.2-.2,0-.4,0-.5,0-1.1,0-2.3.7-2.3,2s.7,2,1.8,2,1.9-.7,2.2-1.9c.1.2.2.4.3.7,0,.3.3.5.6.5s.6-.3.6-.6,0,0,0-.1c-.2-.9-.7-1.6-1.5-2,0-1.5.1-2.4.4-2.7.1-.1.2-.2.2-.5,0-.3-.3-.6-.6-.6s-.3,0-.4.1ZM35.6,10.1c-.1,0-.5,0-.5-.7s.7-.7,1-.7.3,0,.5,0c0,1.2-.6,1.4-1,1.4Z"/>
  <path class="st0" d="M43.6,10.1c0-1.5,1.4-4.7,2.1-6.1.6,0,1.3,0,2-.3h0c.3,0,.5-.3.5-.6s-.3-.6-.6-.6-.1,0-.2,0c-.3,0-.6.1-1,.2,0,0,0,0,0,0,0-.3-.3-.6-.6-.6s-.4,0-.5.2c-.1.1-.2.3-.3.5h0c-.4,0-.7,0-1.1,0h-.4c-.2,0-.3,0-.4.1-.1.1-.2.3-.2.5,0,.3.2.6.5.6.3,0,.6,0,.8,0-.8,1.7-2,4.5-2,6.1s.4,1.2.7,1.2.7-.3.7-.6,0-.2,0-.3c0,0,0-.2,0-.3Z"/>
  <path class="st0" d="M51.2,9.5c-.4,0-1.5-.1-2.1-.5,0,0-.2-.1-.3-.1-.4,0-.6.3-.6.7s.1.4.3.5c.6.4,2.1.7,2.7.7s.7-.3.7-.6-.2-.6-.6-.7Z"/>
  <path class="st0" d="M50.6,5c-.6,0-1.6.2-2.2.5-.2.1-.4.3-.4.6,0,.4.3.6.7.6s.2,0,.3,0c.6-.3,1.2-.4,1.7-.4s.3,0,.4,0c0,0,.1,0,.2,0,.3,0,.6-.3.6-.6,0-.5-.4-.7-1.3-.7Z"/>
  <path class="st0" d="M55.7,9.3c1.4,0,2.5-1.6,2.9-2.7.2-.6.3-1.1.3-1.7s0-.7-.2-1c1.3.2,2,1,2,2.4s-.6,2.3-1.4,3.2c-.1.1-.3.3-.4.4l-.2.2c-.1,0-.2.2-.2.5s.3.6.6.6.3,0,.4-.1c1.4-1,2.5-3.1,2.5-4.8s-1.5-3.7-3.8-3.7-4.8,1.6-4.8,4.2,1,2.5,2.3,2.5ZM57.4,3.8h0s0,0,0,0h0ZM57.2,3.9h0c.2.3.4.6.4.9,0,1.1-.5,2.2-1.3,2.8-.3.2-.5.3-.6.3-.7,0-1-.6-1-1.2,0-1.6,1.3-2.5,2.6-2.9Z"/>
  <path class="st0" d="M74,3.6c.3,0,.6-.3.6-.6s0-.3-.1-.4c-.2-.2-.2-.8-.3-1.2h0c0-.4-.3-.7-.6-.7s-.6.3-.6.6.1,1.5.5,1.9c.1.2.3.2.5.2Z"/>
  <path class="st0" d="M63.9,4.2h.1c.1,0,.3,0,.4,0,.1,0,.3,0,.4,0,.2,0,.4,0,.6,0-.2.1-.3.3-.3.6v.9c0,.4,0,.8,0,1.2h0c0,.3,0,.4,0,.6,0,.3.3.6.6.6s.4,0,.5-.3c.2,0,.3,0,.5,0v.5c-.1-.1-.3-.2-.5-.2s-.4,0-.5.3c-.3.5-1.4,1.6-1.7,1.9-.2.1-.3.3-.3.5s.3.6.6.6,2-1.5,2.5-2.3c0,.6,0,1.3,0,1.9-.4-.2-.5-.2-.6-.2-.3,0-.6.3-.6.6s0,.4.3.5c.2.2,1.3.6,1.5.6s.5-.2.6-.5c0-.3,0-.7,0-1v-.3c0-.5,0-1,0-1.6h0s0,.1,0,.1c.2.3.6.8.7,1.1.1.2.3.4.6.4s.6-.3.6-.6-1-1.7-1-1.7c-.3-.3-.8-.3-1,0h0v-.5c.3,0,.6,0,.9,0s.6-.3.6-.6,0-.3-.2-.4h0c0-.4,0-.7,0-.9.1.2.3.3.5.3s.1,0,.1,0c.3,0,.6,0,.9,0,0,0,0,0,.1,0-.4,1.8-.9,4-1.8,5.4,0,0,0,.2,0,.3,0,.3.3.6.6.6s.4,0,.5-.2c.7-.9,1.2-2.5,1.6-4,0,.1,0,.2,0,.4v.5c.1.8.3,2.8,1.5,2.8s1.8-1.2,2-1.9h0c.1-.5.2-.9.2-1.3s-.3-.6-.6-.6-.6.3-.6.6c0,.7-.3,1.3-.8,1.8,0,0-.1.1-.2.2-.2-.4-.4-1.6-.5-3.1,0,0,0-.2,0-.3,0-.3-.3-.6-.6-.6s0,0-.1,0c0-.2,0-.4.1-.6.6,0,1.3,0,1.9,0s.8,0,.8-.6,0-.6-.8-.6-.9,0-1.4,0h-.4c0-.3.1-.7.1-1s-.3-.6-.6-.6-.6.2-.6.6l-.2,1.1c0,0-.1,0-.2,0-.4,0-.9,0-1.3.1-.1,0-.3.1-.3.2,0-.1,0-.2-.2-.3-.3-.3-.7-.2-1.1-.2h0c-.7,0-1.3,0-1.8.1,0-.1-.2-.3-.4-.3,1.2,0,2.4-.1,3.6-.1s.3,0,.4,0c.1,0,.3,0,.4,0,.3,0,.6-.3.6-.6s-.2-.6-.5-.6c-.2,0-.5,0-.7,0h-.2c-.6,0-1.2,0-1.8,0,.2-.1.3-.3.3-.5s0-.3-.1-.6c0-.2-.1-.5-.2-.6,0-.3-.3-.6-.6-.6s-.6.3-.6.6.3,1.2.3,1.3c0,.1.1.2.3.3-.6,0-1.2,0-1.9.1h-.2c-.4,0-.8,0-1.1.2-.3,0-.5.3-.5.6s.3.6.6.6ZM66.2,6.3v-.7c.5-.1,1.2-.1,1.8-.1h0c0,.3,0,.5,0,.8-.5,0-1.2,0-1.8,0Z"/>
  <path class="st0" d="M77.5,6.1c.4,0,1.1,0,1.7-.1h0c.3,0,.5-.3.5-.6s-.3-.6-.6-.6h-.1c-.5,0-1,.1-1.5.1h-.2c-.2,0-.3,0-.5.2-.1.1-.2.3-.2.5s0,.6.8.6Z"/>
  <path class="st0" d="M77,11.6c.7,0,3.1-2,3.5-2.4h0c0-.1.1-.3.1-.4,0-.5-.7-.9-1.1-.4-.5.5-2.1,1.7-2.7,2-.3.1-.4.3-.4.6s.3.6.6.6Z"/>
  <path class="st0" d="M88,3.9c-.3,0-.6,0-.9,0h-.3c-.6,0-1.3,0-1.9,0v-.2c0-.4,0-.8,0-1.2,0-.1,0-.2-.1-.3.3,0,.6,0,.8,0h.1c.1,0,.2,0,.3,0,.1,0,.2,0,.3,0h0c.3,0,.6-.3.6-.7s-.3-.6-.7-.6c-.7,0-3.7.4-4.4.7-.2.1-.4.3-.4.6s.3.6.6.6.2,0,.2,0c.4-.1.9-.2,1.3-.3,0,0,0,.2,0,.3,0,.3,0,.6,0,.8,0,.2,0,.4,0,.6-.8,0-2.6.2-3.3.4-.3.1-.4.3-.4.6s.3.6.6.6.1,0,.2,0c.9-.3,1.9-.3,2.9-.4,0,.3,0,.6,0,.9,0,.3,0,.6,0,.9-.5,0-.8.1-1,.1,0-.2-.3-.4-.6-.4s-.6.2-.6.6c0,.2,0,.4,0,.7v.2c0,.7,0,1.5,0,2.2,0,.3,0,.8,0,1.1,0,.3.3.5.6.5s0,0,.1,0c.6-.1,1.2-.2,1.8-.2.9,0,1.8,0,2.8,0s.6-.3.6-.6,0-.5-.5-.6c0-.7.1-1.4.2-2v-.2c0-.3,0-.5,0-.8s0-.3-.2-.5c-.2-.2-.5-.2-.8-.2h0c-.5,0-1,0-1.4,0,0-.3,0-.6,0-.8,0-.3,0-.6,0-.9.8,0,1.6,0,2.4,0,.2,0,.4,0,.6,0,.3,0,.6-.2.6-.6s-.2-.6-.6-.7ZM82.7,8.4c.4-.1.8-.1,1.2-.2h0c.7,0,1.4-.1,2-.1,0,.8-.1,1.6-.2,2.4-.9,0-2,0-3.1.2,0-.7,0-1.4,0-2.2,0,0,0,0,0,0Z"/>
  <path class="st0" d="M78,2.6c.5.2,1,.3,1.3.6.1,0,.2.1.4.1.4,0,.6-.3.6-.6s0-.4-.2-.5c-.3-.2-1.6-.8-1.9-.8s-.6.3-.6.6.2.5.5.6Z"/>
  <path class="st0" d="M94.5,4.2c.1,0,.2,0,.3,0,.3,0,.6-.3.6-.6s0-.3-.2-.4c-.2-.2-.7-.2-1-.2h-.1c-.3,0-.5,0-.8,0,0-.2,0-.3,0-.5,0-.3-.2-.7-.6-.7s-.6.2-.7.6c0,.2,0,.5-.1.7h-.1c-.5,0-1.1.1-1.7.3-.3,0-.5.3-.5.6s.3.6.6.6,0,0,0,0v-.3s0,0,0,0v.2c0,0,.5,0,.5,0,.2,0,.4,0,.6,0-.2.6-.6,1.5-.8,1.9,0,0-.1.2-.1.4,0,.3.3.6.7.6s.5,0,.7,0c-.5.7-1.1,1.6-1.1,2.4s.7,1.4,1.8,1.4,1.1-.1,1.6-.2c.2,0,.3,0,.5-.1.3,0,.5-.3.5-.6s-.3-.6-.6-.6-.2,0-.3,0c-.5.2-1.2.3-1.6.3s-.5-.1-.5-.2c0-.5.6-1.3,1.1-1.9.2.1.3.3.4.4.1.2.3.3.5.3.4,0,.6-.3.6-.6s-.4-.7-.7-1c.1-.1.3-.2.4-.3.2-.1.3-.3.3-.6,0-.4-.3-.6-.7-.6s-.7.3-1.3.9c-.2,0-.5-.1-.7-.2.3-.6.5-1.2.7-1.8.5,0,1,0,1.4,0Z"/>
  <path class="st0" d="M99.2,10.9c0,0,0,.1,0,.2,0,.3.3.6.6.6s.7-.4.7-.8c0-.9-1.9-2.8-2.4-2.8s-.6.3-.6.6,0,.4.3.5c.4.3,1.2,1.1,1.4,1.6Z"/>
  <path class="st0" d="M11.1,25.7c-.2,0-.3,0-.5,0h-.2c-.6,0-1.1,0-1.7,0h0c0-1.1,0-2.1,0-3.1.6,0,1.2,0,1.8,0,.4,0,.6-.3.6-.6s-.3-.6-.6-.6c-.2,0-.5,0-.8,0h-.2c-.2,0-.3,0-.5,0,0,0-.1,0-.2,0h0c0-.8,0-1.4.2-2.1h0c0-.4-.3-.7-.6-.7s-.6.2-.6.5c0,.2,0,.5,0,.8h0c0,.6,0,1.1,0,1.6-1.1,0-1.8.2-2.1.3-.2.1-.4.3-.4.6s.3.6.6.6.2,0,.2,0c.4-.1,1.1-.2,1.6-.2,0,1,0,2,0,3h0c0,0,0,0,0,0-.8,0-1.8,0-2.2.2-.3,0-.5.3-.5.6s.3.6.6.6.1,0,.2,0c.5-.1,1.1-.1,1.6-.2h.2c1.1,0,2.2-.1,3.3,0,.1,0,.2,0,.4,0,.4,0,.6-.3.6-.6s-.2-.6-.6-.6Z"/>
  <path class="st0" d="M5.4,24.5c0-.3-.2-.5-.4-.6-.3-.1-.9-.3-1.5-.4,0-.2,0-.4,0-.6l.9-1.3c0,0,0-.1.2-.2.1-.1.2-.3.3-.4,0,0,.1-.2.1-.4s0-.3-.2-.4c-.3-.3-.9-.3-1.2-.3h0c-.6,0-2.2,0-2.9.3-.3.1-.4.3-.4.6s.3.6.6.6.1,0,.2,0c.6-.2,1.4-.3,2.2-.3-.4.6-.8,1.2-1.2,1.8l-1.6,2.4c-.1.1-.2.3-.3.4,0,0,0,.2,0,.3,0,.4.3.6.6.6s.4-.1.5-.3c.1-.2.2-.3.3-.5l.7-1.1c0,.5,0,1.1,0,1.6,0,.4,0,.8,0,1.2,0,.2,0,.3.2.5.1.1.3.2.4.2.4,0,.6-.2.7-.5,0-.3,0-.5,0-.8v-.3c0-.6,0-1.3.1-1.9,0,0,.2,0,.3,0,.9.3,1,.3,1,.3.3,0,.6-.3.6-.6Z"/>
  <path class="st0" d="M2.6,18.6s0,0,0,0c0,0,0,0,0,.1,0,.2.2.6.5.6.7,0,.7-.6.7-.8,0-.6-.3-1.6-.6-2-.1-.2-.3-.3-.5-.3-.3,0-.6.3-.6.6s0,.3,0,.3c.2.4.5,1,.5,1.4Z"/>
  <path class="st0" d="M24.8,21.8c-.2,0-.4,0-.6,0h-.2c-1.9,0-3.8,0-5.9,0,0,0,0-.1,0-.2,0-.1,0-.2,0-.3,0,0,0,0,0,0,.7,0,1.5,0,2.2,0,.1,0,.2,0,.4,0,.4,0,.6-.3.6-.6s-.2-.6-.5-.6c-.2,0-.5,0-.7,0h-.2c-.5,0-1.2,0-1.8,0v-.4c.7,0,1.4,0,2.1,0,.1,0,.3,0,.4,0,.3,0,.6-.3.6-.6s0-.4-.2-.5c-.2-.2-.7-.2-.9-.2h-.1c-.7,0-1.3,0-1.8,0,0-.2,0-.4,0-.7.9,0,1.7,0,2.4,0h.1c.2,0,.5,0,.7-.2,0,0,.2-.2.2-.4s0-.3-.2-.5c-.2-.2-.4-.2-.7-.2-.7,0-1.5,0-2.2,0h-.2c-.3,0-.7,0-1,0-.3,0-.5.3-.5.6s0,.3.1.4v1.1c-.1,1-.2,2-.2,3s0,.2,0,.3c-1.7,0-3.4.2-4,.4-.3.1-.4.3-.4.6s.3.6.6.6,0,0,.2,0c1-.2,2-.3,3-.3,0,1-.2,2.1-.2,3.1h0c0,.8,0,1.6.4,2,.1.1.3.2.4.2s.3,0,.4-.1c.1,0,.3-.2.4-.3.1,0,.2-.2.4-.3,0,0,.2-.1.2-.2.2-.1.4-.2.5-.4.2-.1.2-.3.2-.5,0-.3-.3-.6-.6-.6s-.3,0-.4.1c-.1,0-.3.2-.4.3,0,0-.2.1-.2.2,0-.1,0-.3,0-.4,0-.9,0-2,.2-3.3,1.8,0,3.4-.1,5-.1h.3c.6,0,1.2,0,1.8,0h0c.3,0,.6-.3.6-.6s-.2-.5-.5-.6Z"/>
  <path class="st0" d="M23.3,26.3c-.7-.3-1.3-.8-1.8-1.2.5-.3,1-.6,1.5-.9.2-.1.3-.3.3-.6,0-.3-.3-.6-.6-.6s-1.8.9-2.3,1.2c-.3-.2-.5-.4-.8-.4-.4,0-.6.3-.6.6s0,.4.2.5c.9.8,2.5,2,3.5,2.5h.2s0,0,.1,0c.4,0,.6-.3.6-.6s-.1-.4-.4-.6Z"/>
  <path class="st0" d="M34.3,21c-.6,0-1.6.2-2.2.5-.2.1-.4.3-.4.6,0,.4.3.6.7.6s.2,0,.3,0c.6-.3,1.2-.4,1.7-.4s.3,0,.4,0c0,0,.1,0,.2,0,.3,0,.6-.3.6-.6,0-.5-.4-.7-1.3-.7Z"/>
  <path class="st0" d="M32,19.1c0-.4-.3-.6-.6-.6s-.1,0-.2,0c-.3,0-.6.1-1,.2,0,0,0,0,0,0,0-.3-.3-.6-.6-.6s-.4,0-.5.2c-.1.1-.2.3-.3.5h0c-.4,0-.7,0-1.1,0h-.4c-.2,0-.3,0-.4.1-.1.1-.2.3-.2.5,0,.3.2.6.5.6.3,0,.6,0,.8,0-.8,1.7-2,4.5-2,6.1s.2,1.2.7,1.2.7-.3.7-.6,0-.2,0-.3c0,0,0-.2,0-.3,0-1.5,1.4-4.7,2.1-6.1.6,0,1.3,0,2-.3h0c.3,0,.5-.3.5-.6Z"/>
  <path class="st0" d="M35,25.5c-.4,0-1.5-.1-2.1-.5,0,0-.2-.1-.3-.1-.4,0-.6.3-.6.7s.1.4.3.5c.6.4,2.1.7,2.7.7s.7-.3.7-.6-.2-.6-.6-.7Z"/>
  <path class="st0" d="M41.6,18.5c-.5,0-1.1,0-1.6,0,0,0,0-.2,0-.3,0-.4-.3-.6-.6-.6-.5,0-.7.6-.8,1-.3,0-.9,0-1.3.2-.3.1-.4.3-.4.6s.3.7.6.7.2,0,.2,0c.2,0,.4,0,.6-.1,0,.2,0,.4-.1.6-.2.9-.4,1.6-.4,2,0,.5.3.8.8.8s.5,0,.7,0c.2,0,.5,0,.7,0,.8,0,.9.1.9.3,0,.9-1.3,2.1-2.1,2.9l-.2.2c-.1.1-.2.3-.2.5,0,.3.3.6.7.6s.3,0,.4-.1c.2-.2.4-.3.6-.5l.2-.2c.9-.8,2-2.1,2-3.4s-.8-1.5-2.2-1.5-.5,0-.8,0c0,0,0,0,0,0,0-.3.1-.6.2-.9,0-.4.2-.8.3-1.2,0,0,0,0,.1,0,.1,0,.2,0,.3,0,.3,0,1.3,0,1.7,0,.1,0,.2.1.4.1.4,0,.6-.3.6-.6s0-.2,0-.2c-.2-.5-.8-.5-1.2-.6Z"/>
  <path class="st0" d="M54.5,22.4l-.2-.3c-.4-.5-.8-1.1-1.2-1.6-.1-.1-.3-.2-.5-.2-.4,0-.6.3-.6.6s0,.3.1.4c.2.2.3.4.5.6.2.2.3.4.5.6.4.5.7,1,1.1,1.5.1.2.3.3.5.3.3,0,.6-.3.6-.6s0-.2,0-.3c-.2-.3-.4-.7-.7-1Z"/>
  <path class="st0" d="M49.1,20.5c.1-.3.2-.5.2-.6,0-.3-.3-.6-.6-.6s-.5.2-.6.4c0,.2-.2.4-.3.7v.2c-.4,0-.8,0-1.1,0-.3,0-.6.3-.6.6s.3.6.6.6.3,0,.4,0c-.7,1.4-1.4,2.5-2.2,3.5-.2.3-.4.5-.7.8,0,0-.2.2-.2.4,0,.3.3.6.6.6s.3,0,.4-.2c1.3-1.2,2.6-3.4,3.4-5.2.8,0,1.2.2,1.2.4,0,0,0,.1,0,.2,0,.5-.5,1.9-.9,2.3,0,0,0,0,0,0-.1-.1-.3-.3-.6-.3s-.6.3-.6.6c0,.6.9,1,1.3,1s.9-.5,1.1-.8c.5-.7,1-1.8,1-2.8,0-1.4-1.2-1.8-2-1.9Z"/>
  <path class="st0" d="M54.9,17.6c-.3-.2-.5-.4-.7-.4-.3,0-.6.3-.6.6s0,.3.2.5c0,0,.6.5.9.5s.6-.3.6-.6-.1-.4-.3-.5c0,0,0,0-.2-.1Z"/>
  <path class="st0" d="M55.7,15.8c-.4,0-.6.3-.6.6s.2.5.4.6c0,0,.1,0,.1.1,0,0,.2.4.6.4s.6-.3.6-.6-.7-1-1.1-1Z"/>
  <path class="st0" d="M64.8,20.7c-.4,0-.6.3-.6.6s.9,2.3,1.2,2.7c.1.1.3.2.4.2.3,0,.6-.3.6-.6s0-.3-.2-.4c-.3-.3-.7-1.4-.9-2,0-.3-.3-.5-.6-.5Z"/>
  <path class="st0" d="M61.7,22.5c-.3,0-.5.2-.6.5-.1.5-.2,1-.3,1.5v.3c-.1.4-.2.9-.2,1.4s.2.7.6.7.6-.2.7-.6c0-.9.2-1.8.5-3h0c0-.5-.3-.8-.6-.8Z"/>
  <path class="st0" d="M61,20c2.4-.1,4.9-.1,7.3-.1s.7-.3.7-.6-.3-.6-.7-.6c-1.3,0-2.6,0-3.8,0,0,0,0-.2,0-.3,0-.5,0-1.2-.3-1.6-.1-.2-.3-.4-.6-.4s-.6.3-.6.6,0,.1,0,.2c.2.4.2.7.2,1.2s0,.2,0,.3c-1.2,0-2.3,0-3.3.2h-.2c-.3,0-.5,0-.8.1-.3,0-.5.3-.5.6s.3.6.6.6.3,0,.5,0c0,1.8-.7,4.3-1.6,5.9-.2.4-.5.7-.7,1.1,0,0-.1.2-.1.4,0,.4.3.6.6.6s.4,0,.5-.2c1.5-1.7,2.5-5.6,2.5-7.9h0Z"/>
  <path class="st0" d="M68.2,21.8c-.3,0-.6.3-.6.6s0,.2.1.4c.3.5.8,1.3.9,1.6,0,.3.3.5.6.5s.6-.3.6-.6-.9-2-1.1-2.2c-.1-.2-.3-.3-.5-.3Z"/>
  <path class="st0" d="M67.4,24.2c-.3,0-.6.3-.6.6,0,.6-.3,1.2-.8,1.5,0,0-.2.1-.3.1-.6,0-1.4-1.3-1.6-1.9-.1-.3-.2-.6-.2-.9s-.3-.6-.6-.6-.6.3-.6.6c0,1.4,1.4,4.1,3.1,4.1s.6,0,.9-.3h0c.9-.5,1.5-1.5,1.5-2.6s-.3-.6-.6-.6Z"/>
  <path class="st0" d="M82.2,26.6s-.1,0-.2,0c-.4.1-.6.1-.9.1-.5,0-1.1-.4-1.6-.6.3-.3.6-.6.9-.9l.2-.2c0-.1.2-.2.3-.3s.2-.3.2-.4c0-.3-.2-.5-.5-.6-.4,0-1,0-1.5,0h-.2c-.4,0-.9,0-1.4,0,0,0,0,0,0-.1,1.1,0,2.2,0,3.3,0s.6-.3.6-.6-.3-.6-.6-.6c-.8,0-1.7,0-2.8,0,0-.2.2-.4.2-.6.7,0,1.4,0,2,0h0c.2,0,.4,0,.6,0,.2,0,.3,0,.5-.2.1-.1.2-.3.2-.4s0-.3-.2-.4c-.2-.1-.4-.2-.6-.2.4-.6,1-1.7,1-2s0-.4-.3-.5c.1-.1.2-.3.2-.5,0-.3-.3-.6-.6-.6s-.6,0-.9,0c-.2,0-.3,0-.5,0h0c-.9,0-1.7.2-2.6.3h-.1c-.4,0-.9.1-1.4.2-.3,0-.4.3-.4.6s.3.7.7.6c0,.6.3,1.4.6,1.9-.5,0-1.1,0-1.5.1-.3,0-.5.3-.5.6s.3.6.6.6h0c.1,0,.3,0,.4,0h.2c.4,0,.8,0,1.2-.1l-.2.6h-.2c-.4,0-.9,0-1.3.1h0c0-.4-.3-.6-.6-.6s-.4,0-1.2.3v-1.6h.1c.2,0,.5,0,.7,0s.8,0,.8-.6-.6-.6-.9-.6-.4,0-.7,0h0s0,0,0,0c0-.3,0-.5,0-.8h0c0-.4-.3-.7-.6-.7s-.5.2-.6.5c0,.3,0,.7,0,1,0,0,0,0,0,.1-.3,0-.7,0-1,.1-.3,0-.5.3-.5.6s.3.6.7.6.5,0,.7,0c0,0,.1,0,.2,0v1.8h0c-.6.1-1.2.3-1.7.5-.3,0-.4.3-.4.6s.3.6.6.6,1-.3,1.5-.4c0,.4,0,.8,0,1.2v.3c0,.4,0,.8,0,1.2,0,0,0,0,0,0-.1-.2-.3-.2-.5-.2-.3,0-.6.3-.6.6s0,.3.1.4c.2.2.9.8,1.3.8s.3,0,.5-.2c.4-.5.5-2.4.5-4.3h0c.1-.2.2-.2.4-.2.2,0,.5-.1.7-.2h0c0,.4.3.6.7.6s.2,0,.3,0c0,0,0,0,.2,0,.2,0,.3,0,.5,0-.5,1.2-1,2.3-1.7,3.4,0,0,0,.2,0,.3,0,.5.7.8,1.1.3.4-.5.8-1.3,1.1-2.1,0,.1.1.2.2.3.2.1.3.2.5.3,0,0,.2,0,.2.1-.2.2-.5.4-.7.5-.2.1-.3.3-.3.5,0,.3.3.6.6.6s.4,0,1.6-1c.5.3,1,.6,1.6.8.6.2,1.4.2,2.1,0h0c.3,0,.4-.3.4-.6s-.3-.6-.6-.6ZM77.5,24.9c.5,0,1,0,1.4,0,0,0,0,0,.1,0l-.6.6s0,0,0,0c-.4-.3-.7-.4-.9-.5ZM80.5,18.1h0c-.3.7-.6,1.3-1,1.9,0,0-.1.2-.1.4s0,0,0,0c0,0-.1,0-.2,0,0,0,0-.2,0-.3s0-.2,0-.3c-.2-.3-.3-1.1-.3-1.4h0c0-.1,0-.2,0-.3h1.4c.1-.1.2-.1.4-.1,0,0,0,0,0,0ZM78.1,20.4c-.1,0-.3,0-.4,0,0-.2,0-.3-.1-.4-.3-.4-.5-1-.6-1.5,0,0,0-.1,0-.2h0c.2-.1.5-.1.7-.2,0,0,0,.1,0,.2,0,.4.2,1.5.4,1.9Z"/>
  <path class="st0" d="M86.6,26.4h0c-.1-.1-.2-.2-.3-.2-.7-.7-.7-2.7-.7-3.4,0-1,0-2.1.2-3.1,0-.7.1-1.3.2-2.1,0-.2,0-.3-.2-.4-.1-.1-.3-.2-.5-.2-.3,0-.6.2-.6.6,0,.2,0,.4,0,.6v1.1c-.2,1-.3,2.3-.3,3.6s0,4.1,1.9,4.8c0,0,.2,0,.2,0,.3,0,.6-.3.6-.6s-.2-.5-.4-.6Z"/>
  <path class="st0" d="M94.2,20.6s-.1,0-.2,0c-.3,0-.7.2-1,.2,0-.3,0-.6,0-.9.1,0,.2,0,.3.1.1,0,.2,0,.3,0,.3,0,.6-.3.6-.6s-.1-.5-.4-.6c-.3-.1-.6-.2-.9-.3,0-.3,0-.6-.2-.8,0,0-.2-.2-.4-.2s-.3,0-.5.2c-.2.2-.2.4-.2.6-.5,0-1,0-1.6,0-.3,0-.5.3-.5.6s.3.6.6.6h0c.4,0,.9,0,1.4,0,0,.4,0,.8,0,1.2,0,0-.1,0-.2,0-.4,0-.8,0-1.2,0-.3,0-.5,0-.8,0-.4,0-.7.3-.7.6s.3.6.6.7c.7,0,1.5,0,2.2,0v.5c0,.2,0,.4,0,.6,0,.2,0,.3,0,.5-.4,0-.7-.1-1.1-.1-1.7,0-2,1-2,1.5,0,1,1.1,1.8,2.1,1.8s1.6-.5,2-1.5c.1,0,.2.2.3.3.1.2.3.4.6.4.3,0,.6-.3.6-.6,0-.6-.9-1.1-1.2-1.3h0c0-.7,0-1.4,0-2.1.5,0,1,0,1.4-.2h0c.3-.1.4-.3.4-.6s-.3-.6-.6-.6ZM90.9,25.7c-.3,0-.8-.3-.8-.5s.1-.3.7-.3.6,0,.9.1c-.2.5-.4.7-.8.7Z"/>
  <path class="st0" d="M108.4,17.7c-.4,0-.8-.1-1.2-.2h0c-.8,0-1.6-.2-2.5-.2,0-.3,0-.6-.1-.8,0-.3-.3-.5-.6-.5s-.7.3-.7.6,0,.3,0,.5c0,0,0,0,0,.1-1.9,0-3.6.1-5.2.4h-.1c-.4,0-.8.1-1.2.3-.3,0-.5.3-.5.6,0,.4.4.8.8.6,1.6-.4,3.7-.6,6.1-.6h.2c0,.3,0,.5,0,.7-.2,0-.4,0-.6,0-1.7,0-3.1,2.1-3.1,3.8s.5,2.4,1.8,2.4,2.6-2.2,2.9-3.9c0,.2.1.5.1.7,0,1.4-.5,3.2-1.3,4.3-.2.2-.3.4-.5.6h-.1c-.1.2-.2.4-.2.6,0,.3.3.6.6.6s.3,0,.4-.2c1.5-1.5,2.3-4.2,2.3-6s-.4-1.9-1.2-2.4c0-.3,0-.7,0-1.1h0c1.3,0,2.4,0,3.5.2h0c.3,0,.6-.3.6-.6s-.2-.6-.5-.6ZM101.5,24.2c-.5,0-.6-.7-.6-1.1,0-1,.8-2.5,1.9-2.5s.3,0,.5,0c-.2,1.3-.8,3.6-1.8,3.6Z"/>
  <path class="st0" d="M112.3,23.8c-1.1,0-1.8,1.4-1.8,2.3s.9,1.4,1.7,1.3c.1,0,.2.1.4.1.9,0,1.7-1,1.7-1.9s-1.1-1.8-1.9-1.8ZM112.3,25.1c.2,0,.6.3.6.5,0,.1,0,.3-.2.5-.2,0-.4,0-.5,0,0,0-.1,0-.2,0,0,0-.3,0-.3,0,0-.3.4-.9.6-.9Z"/>
</svg>