<?xml version="1.0" encoding="utf-8"?>
<!-- Generator: Adobe Illustrator 15.0.0, SVG Export Plug-In . SVG Version: 6.00 Build 0)  -->
<!DOCTYPE svg PUBLIC "-//W3C//DTD SVG 1.1//EN" "http://www.w3.org/Graphics/SVG/1.1/DTD/svg11.dtd">
<svg version="1.1" id="レイヤー_1" xmlns="http://www.w3.org/2000/svg" xmlns:xlink="http://www.w3.org/1999/xlink" x="0px"
	 y="0px" width="20px" height="20px" viewBox="0 0 20 20" enable-background="new 0 0 20 20" xml:space="preserve">
<path fill="#049B1B" d="M17.366,9.375l-4-5c-0.347-0.431-0.974-0.502-1.406-0.156c-0.431,0.345-0.501,0.974-0.155,1.405l2.649,3.313
	H3c-0.552,0-1,0.448-1,1s0.448,1,1,1h11.555l-2.75,3.438c-0.346,0.432-0.275,1.061,0.155,1.406C12.145,15.93,12.365,16,12.584,16
	c0.294,0,0.584-0.129,0.782-0.375l4-5.001C17.658,10.259,17.658,9.74,17.366,9.375z"/>
</svg>
