<?xml version="1.0" encoding="utf-8"?>
<!-- Generator: Adobe Illustrator 15.0.0, SVG Export Plug-In . SVG Version: 6.00 Build 0)  -->
<!DOCTYPE svg PUBLIC "-//W3C//DTD SVG 1.1//EN" "http://www.w3.org/Graphics/SVG/1.1/DTD/svg11.dtd">
<svg version="1.1" id="レイヤー_1" xmlns="http://www.w3.org/2000/svg" xmlns:xlink="http://www.w3.org/1999/xlink" x="0px"
	 y="0px" width="246.771px" height="236.025px" viewBox="0 0 246.771 236.025" enable-background="new 0 0 246.771 236.025"
	 xml:space="preserve">
<path fill="#049B1B" d="M244,90.5c0-36.727-29.549-66.5-66-66.5c-34.511,0-62.817,26.692-65.735,60.702
	c-0.005-0.007-0.01-0.014-0.015-0.021c-0.043,0.507-0.066,1.02-0.099,1.53c-0.023,0.369-0.054,0.735-0.071,1.106
	c-0.05,1.055-0.08,2.115-0.08,3.182c0,2.002,0.104,3.979,0.275,5.936c-0.963-0.048-1.924-0.073-2.883-0.081
	c-0.334-0.002-0.666,0.008-0.999,0.01c-0.621,0.004-1.243,0.008-1.861,0.028c-0.411,0.014-0.82,0.04-1.23,0.061
	c-0.535,0.027-1.07,0.054-1.603,0.094c-0.453,0.034-0.902,0.078-1.353,0.121c-0.483,0.045-0.965,0.091-1.446,0.147
	c-0.485,0.056-0.968,0.121-1.45,0.187c-0.437,0.06-0.873,0.121-1.308,0.189c-0.515,0.08-1.028,0.167-1.54,0.259
	c-0.391,0.07-0.781,0.144-1.171,0.221c-0.546,0.107-1.091,0.22-1.633,0.341c-0.338,0.075-0.674,0.155-1.011,0.235
	c-0.587,0.14-1.173,0.283-1.755,0.438c-0.264,0.07-0.527,0.146-0.79,0.219c-0.646,0.179-1.292,0.363-1.932,0.561
	c-0.149,0.046-0.296,0.097-0.444,0.144c-5.832,1.846-11.387,4.445-16.523,7.718c-0.002,0.001-0.004,0.002-0.006,0.004
	C58.859,96.07,51,79.713,51,61.5c0-0.144,0.01-0.285,0.011-0.428C21.984,66.469,0,91.909,0,122.5
	c0,26.836,16.918,49.716,40.667,58.572c5.409,24.678,24.046,45.56,50.132,52.554c37.249,9.987,75.541-12.112,85.528-49.362
	c2.459-9.172,2.964-18.406,1.785-27.267C214.512,156.936,244,127.188,244,90.5z"/>
<path fill="#186BCC" d="M71.337,107.331c11.977-7.632,26.231-11.625,40.938-10.895C112.104,94.479,112,92.502,112,90.5
	c0-31.099,21.188-57.204,49.812-64.478C150.764,10.285,132.579,0,112,0C78.311,0,51,27.535,51,61.5
	C51,79.713,58.859,96.07,71.337,107.331z"/>
<circle id="楕円形_92" fill="#186BCC" cx="180.5" cy="159.5" r="55.5"/>
<path fill="#FFFFFF" d="M38.451,98.82l-2.563,3.738l-6.259-4.242l2.521-3.739L38.451,98.82z M40.509,90.797l-2.521,3.78
	l-6.301-4.242l2.563-3.781L40.509,90.797z M31.813,111.591c10.292-4.117,13.778-8.738,16.509-16.51l4.075,1.975
	c-2.604,8.737-8.401,14.871-18.483,18.567L31.813,111.591z M50.17,86.554v5.377h-2.604v-5.377H50.17z M51.389,91.931v-5.377h2.646
	v5.377H51.389z"/>
<path fill="#FFFFFF" d="M83.645,87.395h-1.89c-0.168,16.803-5.041,24.532-13.905,28.145l-1.89-4.117
	c7.688-3.57,10.586-10.039,11.174-20.415H65.371V86.47H81.04v-4.452h2.604V87.395z M87.467,82.018v5.377h-2.604v-5.377H87.467z"/>
<path fill="#FFFFFF" d="M104.685,93.317l-3.234,3.192l-6.511-6.806l3.234-3.15L104.685,93.317z M117.749,93.737
	c-2.814,10.88-9.494,17.727-19.407,21.886l-2.311-3.906c10.082-4.621,14.367-10.04,17.559-19.744L117.749,93.737z"/>
<path fill="#FFFFFF" d="M135.68,92.057c7.939,0.126,15.039,7.436,3.403,23.566l-3.571-2.772c5.084-6.764,8.191-16.089,0.168-16.257
	v9.872h-4.536V96.93c-1.849,0.252-3.235,0.546-3.235,0.546l-1.008-4.452c0,0,1.807-0.379,4.243-0.673v-8.065h4.536V92.057z
	 M142.569,89.032l4.2-1.68l4.033,10.123l-4.242,1.681L142.569,89.032z M147.736,88.234v-5.377h2.646v5.377H147.736z M151.391,88.234
	v-5.377h2.646v5.377H151.391z"/>
<path fill="#FFFFFF" d="M165.878,88.864l-1.806,4.159l-6.302-2.73l1.806-4.159L165.878,88.864z M165.878,96.51l-1.806,4.158
	l-6.302-2.688l1.806-4.158L165.878,96.51z M166.382,102.391c0,4.201-0.672,7.436-4.704,11.973l-3.907-2.311
	c3.487-4.201,4.075-6.764,4.075-9.662H166.382z M167.6,82.438c10.629,0,18.316-1.261,18.316-1.261v4.537c0,0-2.563,0.42-6.89,0.798
	v3.949h6.89v4.536h-6.89v3.823h6.89v16.803H167.6V98.82h6.89v-3.823h-6.89v-4.536h6.89v-3.655c-2.058,0.084-4.411,0.168-6.89,0.168
	V82.438z M181.379,103.356h-9.242v7.729h9.242V103.356z"/>
<path fill="#FFFFFF" d="M200.527,104.407c0.378,4.537,4.41,6.007,8.065,6.763l-0.925,4.453c-5.334-1.092-11.174-3.612-11.678-10.838
	L200.527,104.407z M209.938,84.285v2.269h4.284v4.537h-4.284v4.369h4.284v4.578h-4.284v6.428H205.4v-6.428h-6.848V95.46h6.848
	v-4.369h-6.848v-4.537h6.848v-2.269H209.938z"/>
<path fill="#FFFFFF" d="M239.631,97.098c4.242,1.135,7.141,4.579,7.141,9.032c0,4.956-3.023,9.493-9.283,9.493
	c-2.311,0-5.335-0.378-7.184-2.521c-1.302-1.512-1.344-3.486-0.798-4.999c1.009-2.772,4.032-4.2,6.806-3.192
	c2.352,0.84,3.696,3.192,3.444,5.587c1.722-0.84,2.479-2.521,2.479-4.368c0-3.277-2.646-5.504-8.401-5.209l3.402-12.099h-6.512
	v-4.537h12.477L239.631,97.098z M234.968,108.649c-0.714-0.252-1.47,0.084-1.722,0.799c-0.252,0.672,0.084,1.47,0.797,1.722
	c0.715,0.252,1.471-0.126,1.723-0.84C236.018,109.658,235.641,108.902,234.968,108.649z"/>
<path fill="#FFFFFF" d="M54.875,136.41c-7.099-0.882-11.762-2.772-14.073-3.906c-2.352,1.134-7.015,3.024-14.072,3.906v-4.536
	c8.78-1.135,14.072-4.537,14.072-4.537s5.251,3.402,14.073,4.537V136.41z M29.083,158.086l3.865-8.149h-4.957V145.4h25.625v4.536
	H37.946l-3.78,8.023c6.847-0.252,11.636-1.05,13.652-1.428l-0.798-3.739h4.663l2.1,9.83h-4.663l-0.378-1.723
	c-0.84,0.21-7.099,1.723-19.659,1.723V158.086z M32.401,137.587h16.803v4.536H32.401V137.587z"/>
<path fill="#FFFFFF" d="M65.203,162.623v-11.174c-1.386,1.05-3.025,1.975-4.873,2.814v-5.293c5.713-3.024,8.275-8.527,8.275-13.148
	H60.33v-4.537h4.117v-3.108h4.537v3.108h4.159v4.537c0,2.604-0.588,6.301-2.73,9.872l4.537,4.158l-3.066,3.361l-2.143-1.975v11.384
	H65.203z M83.224,128.177v10.838h5.251v4.537h-5.251v14.534h5.251v4.537H73.437v-4.537h5.251v-14.534h-4.411v-4.537h4.411v-10.838
	H83.224z"/>
<path fill="#FFFFFF" d="M110.859,162.623c-5.377-1.092-11.174-3.612-12.014-13.148l4.537-0.378c0.84,7.436,4.747,8.317,8.401,9.073
	L110.859,162.623z M108.59,150.104v-9.745h-9.41v-4.537h9.41v-4.537h4.537v4.537h4.747v4.537h-4.747v9.745H108.59z"/>
<path fill="#FFFFFF" d="M137.359,139.057c7.939,0.126,15.039,7.436,3.402,23.566l-3.57-2.772c5.083-6.764,8.191-16.089,0.168-16.257
	v9.872h-4.537v-9.536c-1.848,0.252-3.234,0.546-3.234,0.546l-1.008-4.452c0,0,1.807-0.379,4.242-0.673v-8.065h4.537V139.057z
	 M144.248,136.032l4.201-1.68l4.033,10.123l-4.243,1.681L144.248,136.032z M149.416,135.234v-5.377h2.646v5.377H149.416z
	 M153.07,135.234v-5.377h2.646v5.377H153.07z"/>
<path fill="#FFFFFF" d="M181.503,161.363c-9.745,3.318-13.231,0.21-13.231-10.923v-19.155h4.536v19.155
	c0,7.981,1.89,8.612,7.226,6.638L181.503,161.363z"/>
<path fill="#FFFFFF" d="M208.131,152.919h-4.537l-0.42-23.901h5.377L208.131,152.919z M208.131,157.162v5.461h-4.537v-5.461H208.131
	z"/>
</svg>
