<?xml version="1.0" encoding="utf-8"?>
<!-- Generator: Adobe Illustrator 15.0.0, SVG Export Plug-In . SVG Version: 6.00 Build 0)  -->
<!DOCTYPE svg PUBLIC "-//W3C//DTD SVG 1.1//EN" "http://www.w3.org/Graphics/SVG/1.1/DTD/svg11.dtd">
<svg version="1.1" id="レイヤー_1" xmlns="http://www.w3.org/2000/svg" xmlns:xlink="http://www.w3.org/1999/xlink" x="0px"
	 y="0px" width="141px" height="9.036px" viewBox="0 0 141 9.036" enable-background="new 0 0 141 9.036" xml:space="preserve">
<path fill="#FFB700" d="M3.554,7.909c1.039,0.528,2.217,1.127,4.459,1.127c2.242,0,3.42-0.599,4.459-1.126
	C13.433,7.422,14.263,7,16.027,7s2.593,0.422,3.554,0.909c1.039,0.528,2.217,1.127,4.459,1.127s3.42-0.599,4.459-1.127
	C29.46,7.422,30.289,7,32.053,7s2.593,0.422,3.554,0.909c1.039,0.528,2.217,1.127,4.46,1.127s3.421-0.599,4.46-1.127
	C45.488,7.422,46.317,7,48.082,7s2.594,0.422,3.554,0.909c1.039,0.528,2.217,1.127,4.46,1.127c2.243,0,3.42-0.599,4.458-1.126
	C61.515,7.422,62.344,7,64.11,7c1.766,0,2.595,0.422,3.556,0.91c1.039,0.527,2.216,1.126,4.458,1.126
	c2.243,0,3.421-0.599,4.46-1.126C77.545,7.422,78.374,7,80.139,7c1.763,0,2.593,0.422,3.553,0.909
	c1.039,0.528,2.217,1.127,4.461,1.127c2.243,0,3.421-0.599,4.46-1.126C93.573,7.422,94.402,7,96.167,7s2.594,0.422,3.554,0.909
	c1.039,0.528,2.216,1.127,4.459,1.127s3.421-0.599,4.46-1.127C109.6,7.422,110.429,7,112.193,7c1.764,0,2.594,0.422,3.554,0.909
	c1.039,0.528,2.217,1.127,4.46,1.127s3.421-0.599,4.46-1.126c0.961-0.488,1.791-0.91,3.556-0.91c1.764,0,2.593,0.422,3.554,0.909
	c1.039,0.528,2.218,1.127,4.46,1.127c2.243,0,3.422-0.599,4.461-1.127c0.102-0.052,0.202-0.103,0.303-0.152v-2.19
	c-0.447,0.176-0.838,0.372-1.208,0.56c-0.961,0.487-1.791,0.909-3.556,0.909c-1.764,0-2.593-0.422-3.554-0.909
	C131.644,5.599,130.465,5,128.223,5c-2.243,0-3.422,0.599-4.461,1.127c-0.961,0.487-1.791,0.909-3.555,0.909
	s-2.594-0.422-3.554-0.909C115.614,5.599,114.437,5,112.193,5s-3.421,0.599-4.46,1.127c-0.96,0.487-1.789,0.909-3.554,0.909
	c-1.764,0-2.593-0.422-3.553-0.909C99.588,5.599,98.41,5,96.167,5s-3.422,0.599-4.461,1.127c-0.96,0.487-1.79,0.909-3.554,0.909
	c-1.765,0-2.595-0.422-3.555-0.91C83.559,5.599,82.381,5,80.139,5c-2.243,0-3.422,0.599-4.461,1.127
	c-0.96,0.487-1.79,0.909-3.554,0.909s-2.592-0.421-3.552-0.909C67.533,5.599,66.355,5,64.11,5c-2.245,0-3.422,0.599-4.461,1.127
	c-0.96,0.488-1.789,0.909-3.552,0.909c-1.764,0-2.593-0.422-3.554-0.909C51.503,5.599,50.326,5,48.082,5s-3.421,0.599-4.461,1.127
	c-0.96,0.487-1.79,0.909-3.554,0.909s-2.593-0.422-3.554-0.909C35.474,5.599,34.296,5,32.053,5c-2.243,0-3.421,0.599-4.46,1.127
	c-0.96,0.487-1.79,0.909-3.553,0.909s-2.593-0.422-3.553-0.909C19.448,5.599,18.27,5,16.027,5s-3.421,0.599-4.46,1.127
	c-0.96,0.487-1.79,0.909-3.553,0.909c-1.764,0-2.593-0.422-3.553-0.909C3.421,5.599,2.243,5,0,5v2C1.764,7,2.593,7.422,3.554,7.909z
	"/>
<path fill="#FFB700" d="M3.554,2.91c1.039,0.528,2.217,1.126,4.459,1.126c2.242,0,3.42-0.599,4.459-1.126
	C13.433,2.421,14.263,2,16.027,2s2.593,0.421,3.554,0.91c1.039,0.528,2.217,1.126,4.459,1.126S27.46,3.438,28.5,2.91
	C29.46,2.421,30.289,2,32.053,2s2.593,0.421,3.554,0.91c1.039,0.528,2.217,1.126,4.46,1.126s3.421-0.599,4.46-1.126
	C45.488,2.421,46.317,2,48.082,2s2.594,0.421,3.554,0.91c1.039,0.528,2.217,1.126,4.46,1.126c2.243,0,3.42-0.599,4.458-1.126
	C61.515,2.421,62.344,2,64.11,2c1.766,0,2.595,0.421,3.556,0.91c1.039,0.528,2.216,1.126,4.458,1.126
	c2.243,0,3.421-0.599,4.46-1.126C77.545,2.421,78.374,2,80.139,2c1.763,0,2.593,0.421,3.553,0.909
	c1.039,0.528,2.217,1.127,4.461,1.127c2.243,0,3.421-0.599,4.46-1.126C93.573,2.421,94.402,2,96.167,2s2.594,0.421,3.554,0.91
	c1.039,0.528,2.216,1.126,4.459,1.126s3.421-0.599,4.46-1.126C109.6,2.421,110.429,2,112.193,2c1.764,0,2.594,0.421,3.554,0.91
	c1.039,0.528,2.217,1.126,4.46,1.126s3.421-0.599,4.46-1.126c0.961-0.488,1.791-0.91,3.556-0.91c1.764,0,2.593,0.421,3.554,0.91
	c1.039,0.528,2.218,1.126,4.46,1.126c2.243,0,3.422-0.599,4.461-1.126c0.102-0.052,0.202-0.103,0.303-0.152V0.566
	c-0.447,0.176-0.838,0.372-1.208,0.56c-0.961,0.488-1.791,0.91-3.556,0.91c-1.764,0-2.593-0.421-3.554-0.91
	C131.644,0.599,130.465,0,128.223,0c-2.243,0-3.422,0.599-4.461,1.126c-0.961,0.488-1.791,0.91-3.555,0.91s-2.594-0.421-3.554-0.91
	C115.614,0.599,114.437,0,112.193,0s-3.421,0.599-4.46,1.126c-0.96,0.488-1.789,0.91-3.554,0.91c-1.764,0-2.593-0.421-3.553-0.909
	C99.588,0.599,98.41,0,96.167,0s-3.422,0.599-4.461,1.126c-0.96,0.488-1.79,0.91-3.554,0.91c-1.765,0-2.595-0.421-3.555-0.91
	C83.559,0.599,82.381,0,80.139,0c-2.243,0-3.422,0.599-4.461,1.126c-0.96,0.488-1.79,0.91-3.554,0.91s-2.592-0.421-3.552-0.909
	C67.533,0.599,66.355,0,64.11,0c-2.245,0-3.422,0.599-4.461,1.127c-0.96,0.488-1.789,0.909-3.552,0.909
	c-1.764,0-2.593-0.421-3.554-0.91C51.503,0.599,50.326,0,48.082,0s-3.421,0.599-4.461,1.126c-0.96,0.488-1.79,0.91-3.554,0.91
	s-2.593-0.421-3.554-0.91C35.474,0.599,34.296,0,32.053,0c-2.243,0-3.421,0.599-4.46,1.126c-0.96,0.488-1.79,0.91-3.553,0.91
	s-2.593-0.421-3.553-0.91C19.448,0.599,18.27,0,16.027,0s-3.421,0.599-4.46,1.126c-0.96,0.488-1.79,0.91-3.553,0.91
	c-1.764,0-2.593-0.421-3.553-0.91C3.421,0.599,2.243,0,0,0v2C1.764,2,2.593,2.421,3.554,2.91z"/>
</svg>
