<?xml version="1.0" encoding="utf-8"?>
<!-- Generator: Adobe Illustrator 15.0.0, SVG Export Plug-In . SVG Version: 6.00 Build 0)  -->
<!DOCTYPE svg PUBLIC "-//W3C//DTD SVG 1.1//EN" "http://www.w3.org/Graphics/SVG/1.1/DTD/svg11.dtd">
<svg version="1.1" id="レイヤー_1" xmlns="http://www.w3.org/2000/svg" xmlns:xlink="http://www.w3.org/1999/xlink" x="0px"
	 y="0px" width="1954.906px" height="183.164px" viewBox="0 0 1954.906 183.164" enable-background="new 0 0 1954.906 183.164"
	 xml:space="preserve">
<g id="MV" transform="translate(0 4)">
	<g id="グループ_121" transform="translate(0 11)">
		<g id="グループ_122">
			<path fill="#FFFFFF" d="M1629.078,105.5c-85.346,0-128.484-23.964-170.203-47.138C1418.732,36.063,1380.816,15,1303.25,15
				s-115.481,21.063-155.622,43.362c-41.715,23.175-84.851,47.138-170.191,47.138c-85.34,0-128.477-23.963-170.193-47.138
				C767.101,36.063,729.186,15,651.619,15c-77.566,0-115.48,21.063-155.62,43.362C454.284,81.537,411.15,105.5,325.808,105.5
				c-85.342,0-128.478-23.964-170.193-47.138C115.476,36.063,77.562,15,0,15v-30c85.336,0,128.47,23.963,170.184,47.137
				C210.325,54.437,248.24,75.5,325.808,75.5c77.568,0,115.481-21.063,155.622-43.362C523.145,8.963,566.279-15,651.619-15
				c85.34,0,128.477,23.963,170.193,47.138C861.954,54.437,899.869,75.5,977.436,75.5c77.567,0,115.482-21.063,155.623-43.362
				C1174.774,8.963,1217.91-15,1303.25-15c85.339,0,128.477,23.963,170.193,47.136c40.145,22.3,78.063,43.364,155.635,43.364
				c77.571,0,115.487-21.063,155.63-43.363C1826.425,8.963,1869.561-15,1954.905-15v30c-77.57,0-115.486,21.063-155.629,43.362
				C1757.559,81.537,1714.423,105.5,1629.078,105.5z"/>
		</g>
	</g>
	<g id="グループ_123" transform="translate(0 73.665)">
		<g id="グループ_122-2">
			<path fill="#FFFFFF" d="M1629.078,105.5c-85.346,0-128.484-23.964-170.203-47.139C1418.732,36.063,1380.816,15,1303.25,15
				s-115.481,21.063-155.622,43.362c-41.715,23.175-84.851,47.138-170.191,47.138c-85.34,0-128.477-23.963-170.193-47.138
				C767.101,36.064,729.186,15,651.619,15c-77.566,0-115.48,21.063-155.62,43.362C454.284,81.537,411.15,105.5,325.808,105.5
				c-85.342,0-128.478-23.964-170.193-47.139C115.476,36.063,77.562,15,0,15v-30c85.336,0,128.47,23.963,170.184,47.137
				C210.325,54.437,248.24,75.5,325.808,75.5c77.568,0,115.481-21.063,155.622-43.362C523.145,8.963,566.279-15,651.619-15
				c85.34,0,128.477,23.963,170.193,47.138C861.954,54.437,899.869,75.5,977.436,75.5c77.567,0,115.482-21.063,155.623-43.362
				C1174.774,8.963,1217.91-15,1303.25-15c85.339,0,128.477,23.963,170.193,47.137c40.145,22.3,78.063,43.363,155.635,43.363
				c77.571,0,115.487-21.063,155.63-43.362C1826.425,8.963,1869.561-15,1954.905-15v30c-77.57,0-115.486,21.063-155.629,43.362
				C1757.559,81.537,1714.423,105.5,1629.078,105.5z"/>
		</g>
	</g>
</g>
</svg>
