<?xml version="1.0" encoding="UTF-8"?>
<svg id="_レイヤー_1" data-name="レイヤー_1" xmlns="http://www.w3.org/2000/svg" version="1.1" viewBox="0 0 621.5 87.9">
  <!-- Generator: Adobe Illustrator 29.1.0, SVG Export Plug-In . SVG Version: 2.1.0 Build 142)  -->
  <defs>
    <style>
      .st0 {
        fill: #1a1a1a;
      }

      .st1 {
        fill: #186bcc;
      }

      .st2 {
        fill: #049b1b;
      }
    </style>
  </defs>
  <path class="st1" d="M24.2,10c0,9.2-14.2,18.4-15.6,23.7h15.6v5.2H3.2v-5.2c0-6,15.8-16.4,15.8-23.7s-1.7-4.8-5.3-4.8-5.3,1.4-5.3,4.8v2.5H3.2v-2.5C3.2,2.9,8.2,0,13.7,0s10.5,2.9,10.5,10Z"/>
  <path class="st1" d="M54.7,10v19.3c0,7.1-5,10-10.5,10s-10.5-3-10.5-10V10c0-7.1,5-10,10.5-10s10.5,2.9,10.5,10ZM49.5,10c0-3.4-1.7-4.8-5.3-4.8s-5.3,1.4-5.3,4.8v19.3c0,3.4,1.7,4.8,5.3,4.8s5.3-1.5,5.3-4.8V10Z"/>
  <path class="st1" d="M85.3,10c0,9.2-14.2,18.4-15.6,23.7h15.6v5.2h-21v-5.2c0-6,15.8-16.4,15.8-23.7s-1.7-4.8-5.3-4.8-5.3,1.4-5.3,4.8v2.5h-5.2v-2.5c0-7.1,5-10,10.5-10s10.5,2.9,10.5,10Z"/>
  <path class="st1" d="M115.9,24.5v4.8c0,7.1-5,10-10.5,10s-10.5-3-10.5-10h5.2c0,3.4,1.7,4.8,5.3,4.8s5.3-1.4,5.3-4.8v-4.8c0-3.4-1.7-4.8-5.3-4.8s-3.7.7-4.9,2.4h-5.2l1.2-21.6h17.9v5.2h-13l-.5,9.6c1.3-.5,2.8-.9,4.5-.9,5.5,0,10.5,3,10.5,10Z"/>
  <path class="st1" d="M130.7,32.6v6.2h-5.2v-6.2h5.2Z"/>
  <path class="st1" d="M161.2,10v2.3c0,3.4-1.2,5.8-2.9,7.4,1.8,1.6,2.9,4,2.9,7.4v2.3c0,7.1-5,10-10.5,10s-10.5-3-10.5-10v-2h5.2v2c0,3.4,1.7,4.8,5.3,4.8s5.3-1.5,5.3-4.8v-2.3c0-3.4-1.7-4.8-5.3-4.8h-2.9v-5.2h2.9c3.6,0,5.3-1.5,5.3-4.8v-2.3c0-3.4-1.7-4.8-5.3-4.8s-5.3,1.4-5.3,4.8v1.8h-5.2v-1.8c0-7.1,5-10,10.5-10s10.5,2.9,10.5,10Z"/>
  <path class="st1" d="M176,32.6v6.2h-5.2v-6.2h5.2Z"/>
  <path class="st1" d="M190.8,10v5.5c1.6-.7,3.4-1.1,5.3-1.1,5.5,0,10.5,3,10.5,10v4.8c0,7.1-5,10-10.5,10s-10.5-3-10.5-10V10c0-7.1,5-10,10.5-10s10.5,2.9,10.5,10h-5.2c0-3.4-1.7-4.8-5.3-4.8s-5.3,1.4-5.3,4.8ZM190.8,24.5v4.8c0,3.4,1.7,4.8,5.3,4.8s5.3-1.4,5.3-4.8v-4.8c0-3.4-1.7-4.8-5.3-4.8s-5.3,1.5-5.3,4.8Z"/>
  <path class="st1" d="M398.2,10v2.3c0,3.4-1.2,5.8-2.9,7.4,1.8,1.6,2.9,4,2.9,7.4v2.3c0,7.1-5,10-10.5,10s-10.5-3-10.5-10v-2h5.2v2c0,3.4,1.7,4.8,5.3,4.8s5.3-1.5,5.3-4.8v-2.3c0-3.4-1.7-4.8-5.3-4.8h-2.9v-5.2h2.9c3.6,0,5.3-1.5,5.3-4.8v-2.3c0-3.4-1.7-4.8-5.3-4.8s-5.3,1.4-5.3,4.8v1.8h-5.2v-1.8c0-7.1,5-10,10.5-10s10.5,2.9,10.5,10Z"/>
  <path class="st1" d="M413,32.6v6.2h-5.2v-6.2h5.2Z"/>
  <path class="st1" d="M422.6,5.7V.5h21v5.2c-5.7,8.1-9.3,18.2-9.3,33.2h-5.2c0-12.6,2.4-23.5,8.4-33.2h-14.9Z"/>
  <path class="st2" d="M231.5,12.8s-2.7,3.9-2.7,13.6,2.7,13.6,2.7,13.6h-3.7s-2.7-2.9-2.7-13.6,2.7-13.6,2.7-13.6h3.7Z"/>
  <path class="st2" d="M247.4,40h-3.7v-23.5h-5.4v-3.7h14.5v3.7h-5.4v23.5Z"/>
  <path class="st2" d="M274.1,40h-3.7v-11.8h-7.2v11.8h-3.7V12.8h3.7v11.8h7.2v-11.8h3.7v27.2Z"/>
  <path class="st2" d="M280.9,12.8h3.7v20.4c0,2.4,1.2,3.4,3.8,3.4s3.7-1,3.7-3.4V12.8h3.7v20.4c0,5-3.5,7.1-7.4,7.1s-7.4-2.1-7.4-7.1V12.8Z"/>
  <path class="st2" d="M306.3,12.8s2.7,2.9,2.7,13.6-2.7,13.6-2.7,13.6h-3.7s2.7-3.9,2.7-13.6-2.7-13.6-2.7-13.6h3.7Z"/>
  <path class="st2" d="M465.5,12.8s-2.7,3.9-2.7,13.6,2.7,13.6,2.7,13.6h-3.7s-2.7-2.9-2.7-13.6,2.7-13.6,2.7-13.6h3.7Z"/>
  <path class="st2" d="M486.8,16.4h-10.8v7.6h10.2v3.7h-10.2v12.3h-3.7V12.8h14.5v3.7Z"/>
  <path class="st2" d="M504.2,28.4l4,11.6h-3.9l-3.6-10.5c-.3,0-.6,0-.8,0h-3.2v10.5h-3.7V12.8h6.9c4.8,0,8.1,3.2,8.1,8.3s-1.4,5.9-3.8,7.3ZM499.8,25.8c2.9,0,4.5-1.9,4.5-4.7s-1.6-4.7-4.5-4.7h-3.2v9.3h3.2Z"/>
  <path class="st2" d="M516,40V12.8h3.7v27.2h-3.7Z"/>
  <path class="st2" d="M531.9,12.8s2.7,2.9,2.7,13.6-2.7,13.6-2.7,13.6h-3.7s2.7-3.9,2.7-13.6-2.7-13.6-2.7-13.6h3.7Z"/>
  <path id="_線_1496" data-name="線_1496" class="st0" d="M353,21.2h-17.6v-3h17.6v3Z"/>
  <path class="st0" d="M49.9,86.2v-25.6h-2.2v-4h6.2v29.6h-4Z"/>
  <path class="st0" d="M77.5,63.9c0,7.1-10.9,14.2-12.1,18.3h12.1v4h-16.2v-4c0-4.6,12.2-12.7,12.2-18.3s-1.3-3.7-4.1-3.7-4.1,1.1-4.1,3.7v2h-4v-2c0-5.4,3.8-7.7,8.1-7.7s8.1,2.3,8.1,7.7Z"/>
  <path class="st0" d="M88.8,68v4.8h-4v-4.8h4ZM88.8,81.3v4.8h-4v-4.8h4Z"/>
  <path class="st0" d="M112.4,63.9v14.9c0,5.4-3.8,7.7-8.1,7.7s-8.1-2.3-8.1-7.7v-14.9c0-5.4,3.8-7.7,8.1-7.7s8.1,2.3,8.1,7.7ZM108.4,63.9c0-2.6-1.3-3.7-4.1-3.7s-4.1,1.1-4.1,3.7v14.9c0,2.6,1.3,3.7,4.1,3.7s4.1-1.1,4.1-3.7v-14.9Z"/>
  <path class="st0" d="M136,63.9v14.9c0,5.4-3.8,7.7-8.1,7.7s-8.1-2.3-8.1-7.7v-14.9c0-5.4,3.8-7.7,8.1-7.7s8.1,2.3,8.1,7.7ZM132,63.9c0-2.6-1.3-3.7-4.1-3.7s-4.1,1.1-4.1,3.7v14.9c0,2.6,1.3,3.7,4.1,3.7s4.1-1.1,4.1-3.7v-14.9Z"/>
  <path class="st0" d="M225.9,87.2v-25.6h-2.2v-4h6.2v29.6h-4Z"/>
  <path class="st0" d="M241.3,64.9v4.3c1.2-.6,2.6-.9,4.1-.9,4.2,0,8.1,2.3,8.1,7.7v3.7c0,5.4-3.8,7.7-8.1,7.7s-8.1-2.3-8.1-7.7v-14.9c0-5.5,3.8-7.7,8.1-7.7s8.1,2.3,8.1,7.7h-4c0-2.6-1.3-3.7-4.1-3.7s-4.1,1.1-4.1,3.7ZM241.3,76.1v3.7c0,2.6,1.3,3.7,4.1,3.7s4.1-1.1,4.1-3.7v-3.7c0-2.6-1.3-3.7-4.1-3.7s-4.1,1.1-4.1,3.7Z"/>
  <path class="st0" d="M264.8,69v4.8h-4v-4.8h4ZM264.8,82.3v4.8h-4v-4.8h4Z"/>
  <path class="st0" d="M288.4,64.9v14.9c0,5.4-3.8,7.7-8.1,7.7s-8.1-2.3-8.1-7.7v-14.9c0-5.4,3.8-7.7,8.1-7.7s8.1,2.3,8.1,7.7ZM284.4,64.9c0-2.6-1.3-3.7-4.1-3.7s-4.1,1.1-4.1,3.7v14.9c0,2.6,1.3,3.7,4.1,3.7s4.1-1.1,4.1-3.7v-14.9Z"/>
  <path class="st0" d="M312,64.9v14.9c0,5.4-3.8,7.7-8.1,7.7s-8.1-2.3-8.1-7.7v-14.9c0-5.4,3.8-7.7,8.1-7.7s8.1,2.3,8.1,7.7ZM308,64.9c0-2.6-1.3-3.7-4.1-3.7s-4.1,1.1-4.1,3.7v14.9c0,2.6,1.3,3.7,4.1,3.7s4.1-1.1,4.1-3.7v-14.9Z"/>
  <path class="st0" d="M2.7,75.2v12.1H0v-20h7.9v7.9H2.7ZM2.7,69.5v1h2.5v-1h-2.5ZM2.7,72.1v1h2.5v-1h-2.5ZM12.8,79h-1.2v1.3h1.2v2.3h-1.2v3.7h-2.7v-3.7h-1.3c-.3,1.4-.9,2.6-2.1,3.7l-2.1-1.7c.7-.8,1.1-1.3,1.4-2h-.9v-2.3h1.2c0-.4,0-.8,0-1.3h-1.2v-2.3h8.9v2.3ZM8.9,80.3v-1.3h-1c0,.4,0,.9,0,1.3h1ZM8.9,75.2v-7.9h7.9v15.6c0,3.1-1.3,4.4-4.1,4.4v-2.7c.9,0,1.4-.4,1.4-1.7v-7.7h-5.2ZM11.6,69.5v1h2.5v-1h-2.5ZM11.6,72.1v1h2.5v-1h-2.5Z"/>
  <path class="st0" d="M26.6,72.8c0,3.4-.2,6-.5,7.9h.7v2.7h-1.2c-.5,2-1,2.7-1,2.7l-2.4-.8s.3-.6.7-1.9h-2.5v-10.6h-.5v-2.7h.5v-1.3h2.4v1.3h3.6v2.7ZM23.6,80.7c.3-1.9.6-4.5.6-7.9h-1.2v7.9h.6ZM35.7,69.6l1,6.3h-2.8v-.8c-1.2.3-3.3.8-6.6.8v-2.7l2.1-6.5,2.5.8-1.8,5.6c1.4-.1,2.4-.3,3.1-.5l-.5-2.9h2.8ZM36.2,76.9v10.5h-8.8v-10.5h8.8ZM33.5,84.7v-5.1h-3.4v5.1h3.4Z"/>
  <path class="st0" d="M192.7,70.1c-.5,2.2-1.4,3.9-2.5,5.2,1.5,1.2,3,1.7,3,1.7l-1.3,2.4s-1.8-.5-3.7-2.1c-2,1.6-3.9,2.1-3.9,2.1l-1.1-2.2.2,2.9h-2v-.7s-.3,0-.3,0v7.9h-2.1v-7.5c-.8.1-1.8.2-2.9.2v-2.7l1.2-2.2h-1.2v-2.7l2.6-4.7,2.4,1.3-1.9,3.5h1.2v2.7l-1,1.9c.7-.1,1.3-.3,1.8-.4v-2c-.1,0,1.9,0,1.9,0l.2,2.2c.3,0,1.7-.5,3.2-1.7-.3-.4-.6-.9-.9-1.5l2.1-1.7c.2.5.4.9.7,1.2.7-.8,1.2-1.9,1.7-3.2h-3c-.7,2.5-1.9,3.5-1.9,3.5l-2.4-1.1s1.9-2,2.2-5.9l2.7.4c0,.1,0,.3,0,.4h5.3v2.7ZM178.4,81c0,1.9-.1,4.5-.6,6l-1.8-.6c.5-1.4.5-3.7.5-5.4h1.9ZM183.3,81.2v5.2h-1.8v-5.2h1.8ZM184.6,85.9l.6-2.6,6.6,1.4-.6,2.6-6.6-1.4ZM185.9,79.1l5,1.1-.6,2.6-5-1.1.5-2.6Z"/>
  <path class="st0" d="M196,70.1v-2.7h16.7v2.7c-1.3,2.2-3.1,3.7-6.5,4.9v7.6c0,3.5-1.3,4.8-4.7,4.8h-.9v-2.7h.9c1.5,0,2-.4,2-2.1v-9.4c2.4-.7,4.7-1.8,6-3.1h-13.5Z"/>
  <path class="st0" d="M366.4,87v-13.8h-1.2v-2.2h3.3v16h-2.2Z"/>
  <path class="st0" d="M373.5,87v-13.8h-1.2v-2.2h3.3v16h-2.2Z"/>
  <path class="st0" d="M381.8,77.2v2.6h-2.2v-2.6h2.2ZM381.8,84.4v2.6h-2.2v-2.6h2.2Z"/>
  <path class="st0" d="M394.6,75v.9c0,1.4-.5,2.4-1.2,3.1.7.7,1.2,1.7,1.2,3.1v.9c0,2.9-2.1,4.2-4.4,4.2s-4.4-1.2-4.4-4.2v-.8h2.2v.8c0,1.4.7,2,2.2,2s2.2-.6,2.2-2v-.9c0-1.4-.7-2-2.2-2h-1.2v-2.2h1.2c1.5,0,2.2-.6,2.2-2v-.9c0-1.4-.7-2-2.2-2s-2.2.6-2.2,2v.7h-2.2v-.7c0-2.9,2.1-4.2,4.4-4.2s4.4,1.2,4.4,4.2Z"/>
  <path class="st0" d="M407.3,75v8.1c0,2.9-2.1,4.2-4.4,4.2s-4.4-1.2-4.4-4.2v-8.1c0-2.9,2.1-4.2,4.4-4.2s4.4,1.2,4.4,4.2ZM405.1,75c0-1.4-.7-2-2.2-2s-2.2.6-2.2,2v8.1c0,1.4.7,2,2.2,2s2.2-.6,2.2-2v-8.1Z"/>
  <path class="st0" d="M325.9,72.2s-1.3,2-1.3,6.8,1.3,6.8,1.3,6.8h-1.8s-1.3-1.5-1.3-6.8,1.3-6.8,1.3-6.8h1.8Z"/>
  <path class="st0" d="M338.9,74.5l-.3,1.4h1.6v3.1h-1.8v-1.3h-7.7v1.3h-1.8v-3.1h1.6l-.3-1.4h1.9l.3,1.4h1.3l-.3-1.4h1.9l.3,1.4h1.2l.3-1.4h1.9ZM329.5,84c1.2-.1,2.2-.4,3-.7-.6-.5-1.2-1-1.5-1.4l1.4-1.2c.6.6,1.3,1.1,2.1,1.6,1.1-.8,1.5-1.7,1.5-2.3h-4.7v-1.8h6.6v1.8c0,1-.5,2.1-1.6,3.1,1,.4,2,.7,3.2.8l-.3,1.8c-1.9-.3-3.4-.8-4.6-1.3-1.2.7-2.8,1.2-4.7,1.3l-.2-1.8ZM338.8,73.7s-2.9.5-8.8.5v-1.8c5.5,0,8.8-.5,8.8-.5v1.8Z"/>
  <path class="st0" d="M343.9,80c-.4.5-1,.9-1.5,1.3v-2.5c1.3-.8,2-2.9,2-5.5h1.8c0,1.9-.4,3.6-1.1,4.9h.6v7.7h-1.8v-5.9ZM352.6,71.9v1.7h1.1v1.8h-1.1v7.5c0,2.1-.9,3-2.8,3h-1.8v-1.8h1.8c.6,0,.9-.3.9-1.1v-7.5h-4.1v-1.8h4.1v-1.7h1.8ZM348.9,77.7l.4,3.4h-1.9l-.4-3.4h1.9Z"/>
  <path class="st0" d="M418.1,72.5s1.4,1.5,1.4,7.2-1.4,7.2-1.4,7.2h-1.9s1.4-2.1,1.4-7.2-1.4-7.2-1.4-7.2h1.9Z"/>
  <path class="st0" d="M438.8,80.7c0-4.4,2.7-7.2,6.4-7.2s6.4,2.8,6.4,7.2-4.3,5.6-5.2,3.2c-.4.2-.8.3-1.3.3-1.8,0-3.1-1.3-3.1-3.4s1.3-3.4,3.1-3.4.8,0,1.1.2v-.3h1.9v5.9c0,.7,1.4.8,1.4-2.3s-1.6-5.3-4.5-5.3-4.5,2.2-4.5,5.3,1.6,5.3,4.5,5.3,1.4-.1,2-.4l1,1.7c-.9.5-1.9.7-3,.7-3.8,0-6.4-2.8-6.4-7.2ZM446.4,80.7c0-.9-.4-1.5-1.1-1.5s-1.1.6-1.1,1.5.4,1.5,1.1,1.5,1.1-.6,1.1-1.5Z"/>
  <path class="st0" d="M465.5,76.7c-3-.4-5-1.2-6-1.7-1,.5-3,1.3-6,1.7v-1.9c3.8-.5,6-1.9,6-1.9,0,0,2.2,1.5,6,1.9v1.9ZM454.4,86l1.7-3.5h-2.1v-1.9h11v1.9h-6.7l-1.6,3.4c2.9-.1,5-.5,5.9-.6l-.3-1.6h2l.9,4.2h-2l-.2-.7c-.4,0-3,.7-8.4.7v-1.9ZM455.8,77.2h7.2v1.9h-7.2v-1.9Z"/>
  <path class="st0" d="M473.7,81.7c0,.3,0,.5,0,.7h6.2v2.7c0,1.9-1,2.8-2.6,2.8v-1.9c.4,0,.6-.3.6-.8v-1.1h-.8c0,2.1-.3,3-1,3.9l-1.1-.8c.6-.8.8-1.3.8-3h-.5c0,1.7-.4,2.5-1,3.2l-1.1-.8c.5-.7.7-1.2.8-2.4h-.5c-.2,1.3-.7,2-1.3,2.6l-1.3-1c.1-.1.2-.2.3-.4-.6.4-1.8.7-3.5.7v-1.9c.3,0,.6,0,.8,0v-4.6h-.8v-1.9h.8v-1.9h1.9v1.9h.9v1.9h-.9v4.2c.3-.1.6-.2.9-.4v1.8c.4-.6.6-1.5.7-3.3h-.6v-1.9h8.4v1.9h-6.1ZM471.9,79v-5.5h7.4v5.5h-7.4ZM473.8,74.9v.9h3.5v-.9h-3.5ZM473.8,76.8v.9h3.5v-.9h-3.5Z"/>
  <path class="st0" d="M493.7,73.5l-3.4,14.4h-2l3.4-14.4h2Z"/>
  <path class="st0" d="M506.3,73.1v1.4h2.4v9.8h-2.4v3.6h-1.9v-3.6h-2.4v-1.5l-.9,1-.7-.6v4.7h-1.9v-4.6c-.5.3-1.1.7-1.7,1v-2.2c2.4-1.3,3-3.7,3-5.6h-3v-1.9h1.5v-1.3h1.9v1.3h1.5v1.9c0,1.2-.1,2.8-1,4.4l1.4,1.2v-7.6h2.4v-1.4h1.9ZM504.7,78.6v-2.1h-.8v2.1h.8ZM504.7,82.4v-2.1h-.8v2.1h.8ZM506.8,76.5h-.8v2.1h.8v-2.1ZM506.8,82.4v-2.1h-.8v2.1h.8Z"/>
  <path class="st0" d="M511,75.4v-1.9h12.1v1.9h-12.1ZM511,87.6s.6-3.3.6-11.3h11.5v7h-9.7c-.2,3.1-.4,4.6-.4,4.6l-1.9-.3ZM513.5,78.3c0,1.1,0,2.2,0,3.1h7.7v-3.1h-7.6Z"/>
  <path class="st0" d="M528.1,81.6v-4.2h-1.6v-1.9h1.6v-1h1.9v1h2.5v-1h2v1h1.6v1.9h-1.6v3.3c0,4.3-2.4,6.4-5,7.2l-.8-1.8c2.5-.8,3.8-2.3,3.8-5.4v-3.3h-2.5v4.2h-1.9Z"/>
  <path class="st0" d="M544.8,78.3l-1.4,1.4-2.8-2.9,1.4-1.4,2.8,2.9ZM550.4,78.5c-1.2,4.7-4.1,7.6-8.3,9.4l-1-1.7c4.3-2,6.2-4.3,7.5-8.5l1.8.8Z"/>
  <path class="st0" d="M557.2,81c0,2.5-.4,3.8-1.8,5.5l-1.7-.9c1.2-1.6,1.5-2.7,1.5-4.6h1.9ZM558.4,78.3h-3.1v-2h3.1v-1.9h1.9v1.9h3.1v2h-3.1v5.8c0,2.7-.1,3.7-2.7,3.7v-1.9c.8,0,.8-.4.8-2.1v-5.5ZM561.4,81.4l1.9-.4,1,5.1-1.9.4-1-5.1ZM562.6,73.4v2.3h-1.1v-2.3h1.1ZM564.2,73.4v2.3h-1.1v-2.3h1.1Z"/>
  <path class="st0" d="M569.7,80.3h7.5v2h-7.5v-2Z"/>
  <path class="st0" d="M585.3,81c0,2.5-.4,3.8-1.7,5.5l-1.7-.9c1.2-1.6,1.5-2.7,1.5-4.6h1.9ZM591.6,76.4v1.9h-3.1v5.8c0,2.7-.1,3.7-2.7,3.7v-1.9c.8,0,.8-.4.8-2.1v-5.5h-3.1v-1.9h3.1v-1.9h1.9v1.9h3.1ZM592.5,86.2l-1.9.4-1-5.1,1.9-.4,1,5.1Z"/>
  <path class="st0" d="M597.7,80.3h7.5v2h-7.5v-2Z"/>
  <path class="st0" d="M614.5,78.5c0,4.5-.4,6.5-2.3,9.4l-1.6-1.1c2-2.9,2-4.7,2-8.4h1.9ZM618,85.3c.6-.4,1.2-.9,1.9-2l1.6,1.2c-1.2,1.8-2.7,3.2-5.4,3.4v-12.5h1.9v9.9Z"/>
  <path id="_線_1497" data-name="線_1497" class="st0" d="M166.5,75.6h-17.6v-3h17.6v3Z"/>
</svg>