<?xml version="1.0" encoding="UTF-8"?>
<svg id="_レイヤー_1" xmlns="http://www.w3.org/2000/svg" version="1.1" viewBox="0 0 345 86">
  <!-- Generator: Adobe Illustrator 29.1.0, SVG Export Plug-In . SVG Version: 2.1.0 Build 142)  -->
  <defs>
    <style>
      .st0 {
        fill: #25aa39;
      }

      .st1 {
        fill: #fff;
      }

      .st2 {
        fill: #243f7e;
      }
    </style>
  </defs>
  <path class="st1" d="M341.8,78.1c0,2.6-2.4,4.7-5.3,4.7H8.5c-2.9,0-5.3-2.1-5.3-4.7V29.6h49.4c4.8,0,8.8-3.5,8.8-7.8V3.2h275.2c2.9,0,5.3,2.1,5.3,4.7v70.2h-.1Z"/>
  <path class="st2" d="M336.5,0H8.4C5.1,0,2.2,1.8.8,4.5c-.5,1-.8,2.1-.8,3.3h0v70.3c0,4.4,3.8,7.9,8.5,7.9h328c4.7,0,8.5-3.5,8.5-7.9V7.9C345,3.5,341.2,0,336.5,0ZM341.8,78.1c0,2.6-2.4,4.7-5.3,4.7H8.5c-2.9,0-5.3-2.1-5.3-4.7V29.6h49.4c4.8,0,8.8-3.5,8.8-7.8V3.2h275.2c2.9,0,5.3,2.1,5.3,4.7v70.2h-.1Z"/>
  <path class="st1" d="M16.2,10.2h1c0,0,0,0,0,0v.9s0,1.1,0,1.1v.9c0,0,0,.1,0,.1h-1s-1.6,0-1.6,0v5.2c0,0,0,0,0,0,0,0,0,0,0,0h-.8s0,0,0,0c0,0,0,0,0,0v-2.1s0-4.1,0-4.1v-2.1c0,0,0,0,0,0s0,0,0,0h1.1s1.3,0,1.3,0ZM16.3,10.9h-1.7v.5h1.7v-.5ZM16.3,12.6v-.6h-1.7v.6h1.7ZM15.2,17.9c.5-.3.9-.8,1-1.4v-.2c-.3,0-.6,0-.8,0,0,0,0,0-.2,0h0s0,0,0,0c0,0,0,0,0,0v-.6s0,0,0,0c0,0,0,0,0,0h1.1c0-.3,0-.6,0-.8-.2,0-.4,0-.6,0-.1,0-.2,0-.2,0,0,0,0,0,0,0,0,0,0,0,0,0v-.6c0,0,0,0,0,0,0,0,0,0,0,0h1.2s2,0,2,0h1.2s0,0,0,0c0,0,0,0,0,0v.6s0,0,0,0c0,0,0,0,0,0s0,0-.1,0c-.2,0-.5,0-.8,0v.9h1.1s0,0,0,0c0,0,0,0,0,0v.6s0,0,0,0,0,0,0,0h-1.1s0,.9,0,.9v1c0,0,0,0,0,0,0,0,0,0,0,0h-.7c0,0,0,0,0,0,0,0,0,0,0,0v-1s0-.9,0-.9h-1c0,.2,0,.3,0,.4-.1.6-.4,1.1-.9,1.6,0,0-.2.1-.2.1,0,0-.1,0-.2-.2-.1-.1-.3-.3-.6-.4ZM17.2,15.6h.9v-.9h-.9c0,.2,0,.5,0,.9ZM19.6,17.5c.2,0,.4,0,.7,0s.3,0,.3,0c0,0,0-.1,0-.3v-3.9h-2.6c0,0,0,0-.1,0,0,0,0,0,0,0v-.8s0-1.3,0-1.3v-.8c0,0,0,0,0,0,0,0,0,0,0,0h1s1.4,0,1.4,0h1.1s0,0,0,0c0,0,0,0,0,0v1.3s0,4.1,0,4.1v1.7c0,.3,0,.4,0,.6,0,.1-.1.2-.2.3-.1.1-.3.2-.5.2-.2,0-.4,0-.8,0s-.2,0-.3,0c0,0,0-.1,0-.2,0-.3-.1-.5-.2-.7ZM20.7,10.9h-1.8v.5h1.8v-.5ZM20.7,12.6v-.6h-1.8v.6h1.8Z"/>
  <path class="st1" d="M26.3,9.9c.4.1.7.2.9.3,0,0,.1,0,.1.1s0,.1-.1.2c0,0-.1.2-.2.4-.1.4-.3.8-.5,1.2v6.5c0,0,0,.1,0,.1h-.8s0,0,0,0,0,0,0,0v-1.4s0-2.2,0-2.2c0-.5,0-.9,0-1.2-.2.3-.4.5-.6.7,0,0-.1.1-.2.1s0,0,0-.2c0-.4-.2-.6-.3-.8.7-.9,1.3-1.9,1.6-3.1,0-.2.1-.4.1-.7ZM26.6,14.7c.6-.5,1-1.1,1.4-1.7.1-.2.2-.4.3-.7.4,0,.6.2.8.2.1,0,.2,0,.2.1s0,.1-.1.1c0,0-.2.2-.4.5h1.4c0,0,.1-.3.2-.5,0-.2.1-.3.1-.5.4,0,.7.1.8.2.1,0,.2,0,.2.1s0,.1,0,.2c0,0-.1.1-.2.2,0,.1,0,.2-.1.3h1.9c0,0,0,0,0,0v.6c0,0,0,.1,0,.1h-1.2s-.8,0-.8,0v.6h1.7c0,0,.1,0,.1,0v.5s0,0,0,0,0,0,0,0h-1.2s-.5,0-.5,0v.6h1.7s0,0,0,0,0,0,0,0v.5c0,0,0,0,0,0,0,0,0,0,0,0h-1.2s-.5,0-.5,0v.6h2.1s0,0,0,0c0,0,0,0,0,0v.6c0,0,0,0,0,.1,0,0,0,0,0,0h-1.2s-3.4,0-3.4,0v.3s0,0,0,0c0,0,0,0,0,0h-.7s0,0,0,0c0,0,0,0,0,0v-1s0-2.7,0-2.7l-.4.4c0,.1-.2.2-.2.2s0,0-.2-.2c0-.2-.2-.3-.4-.5ZM32,10.4c.3,0,.6,0,1,0,0,0,.1,0,.1,0s0,0,0,0c0,0,0,0,0,0,0,0,0,.2,0,.4v1.1c0,0,0,0,0,0,0,0,0,0,0,0h-1.3s-2.7,0-2.7,0h-1.3s0,0,0,0,0,0,0,0v-.7s0-.4,0-.4c0-.2,0-.4,0-.7.3,0,.6,0,.9,0,0,0,.1,0,.1,0s0,.1,0,.2c0,0,0,.2,0,.4v.4h1.3v-.6c0-.4,0-.7,0-.9.2,0,.5,0,.9,0,0,0,.1,0,.1,0s0,0,0,.2c0,0,0,.3,0,.6v.6h1.4v-.4c0-.3,0-.5,0-.7ZM28.6,14.7h1.5v-.6h-1.5v.6ZM28.6,16.1h1.5v-.6h-1.5v.6ZM28.6,17.4h1.5v-.6h-1.5v.6Z"/>
  <path class="st1" d="M38.2,18.5h-.8s0,0,0,0c0,0,0,0,0,0v-3.4s0-1.8,0-1.8v-2.5c0,0,0,0,0,0,0,0,0,0,0,0h1.3s3.3,0,3.3,0h1.3s0,0,0,0c0,0,0,0,0,0v2.2s0,2.1,0,2.1v3.3c0,0,0,0,0,0s0,0,0,0h-.8c0,0,0,0,0,0,0,0,0,0,0,0v-.5h-4v.5s0,0,0,0c0,0,0,0,0,0ZM38.3,11.5v2.2h4v-2.2h-4ZM38.3,16.9h4v-2.3h-4v2.3Z"/>
  <path id="_パス_46515" class="st2" d="M88.5,14v2.2h12.2v-2.2s-12.2,0-12.2,0ZM99.7,20.9h-10.2v2.2h10.2v-2.2ZM87.8,30h13.4v-2.2h-13.4v2.2ZM111.5,13.6v1.5h-5.6v4.3h2.2v-2.2h9.1v2.2h2.2v-4.3h-5.6v-1.5s-2.3,0-2.3,0ZM106.3,30h12.6v-6.3h-5.2v-.8h2.8v-4.9h-7.8v4.9h2.8v.8h-5.2s0,6.3,0,6.3ZM110.8,19.8h3.5v1.3h-3.5v-1.3ZM116.7,27.8h-8.3v-2h8.3v2Z"/>
  <path id="_パス_46517" class="st0" d="M143.5,19.4c-2-.2-3.9-.8-5.7-1.8-1.7,1-3.7,1.6-5.7,1.8v1.8c2-.2,3.9-.7,5.7-1.6,1.8.8,3.7,1.4,5.7,1.6v-1.8ZM134.5,23.6h6.7v-1.8h-6.7v1.8ZM133.2,31.8c2.6,0,5.3-.2,7.9-.7l.2.7h1.9l-.8-3.9h-1.9l.3,1.5c-1.8.3-3.6.5-5.5.6l1.5-3.2h6.3v-1.8h-10.3v1.8h2l-1.6,3.3v1.8h0ZM157,23.5v-5.2h-7v5.2h7ZM155.2,19.6v.8h-3.3v-.8h3.3ZM157.5,26v-1.8h-7.8v1.8h.6c0,1.1-.1,2.2-.6,3.1v-1.7c-.3.1-.5.2-.8.3v-4h.8v-1.8h-.8v-1.8h-1.8v1.8h-.8v1.8h.8v4.3h-.8v1.8c1.1,0,2.2-.2,3.3-.7,0,.1-.2.2-.3.4l1.2.9c.7-.6,1.1-1.5,1.2-2.4h.4c0,.8-.2,1.6-.7,2.3l1,.8c.7-.9,1-1.9.9-3h.5c.1,1-.2,2-.8,2.8l1,.8c.7-.8.9-1.7,1-3.6h.7v1c0,.5-.2.8-.6.8v1.8c1.5,0,2.4-.9,2.4-2.6v-2.6h-5.8v-.7h5.8v.2h0ZM155.2,21.4v.8h-3.3v-.8h3.3ZM165.7,31.8c1,0,1.9-.2,2.8-.7l-.9-1.6c-.6.3-1.2.4-1.9.4-2.7,0-4.2-2-4.2-4.9s1.5-4.9,4.2-4.9,4.2,2,4.2,4.9-1.3,2.8-1.3,2.2v-5.5h-1.8v.3c-.3-.1-.7-.2-1-.2-1.6,0-2.9,1.3-2.9,2.9v.3c-.2,1.6,1,3,2.6,3.2h.3c.4,0,.8,0,1.2-.2.8,2.2,4.8,2.2,4.8-3s-2.5-6.7-6-6.7-6,2.6-6,6.7,2.5,6.7,6,6.7h-.1ZM165.7,26.4c-.7,0-1.1-.6-1.1-1.4s.4-1.4,1.1-1.4,1,.6,1,1.4-.4,1.4-1,1.4Z"/>
  <path id="_パス_46518" class="st2" d="M34.8,41.1c-2.4,0-4.6,1.3-4.6,4.4v1.1h2.3v-1.1c0-1.5.8-2.1,2.3-2.1s2.3.6,2.3,2.1c0,3.2-6.9,7.8-6.9,10.4v2.3h9.2v-2.3h-6.9c.7-2.3,6.9-6.4,6.9-10.4s-2.2-4.4-4.6-4.4ZM47.6,41.1c-2.4,0-4.6,1.3-4.6,4.4v8.5c0,3.1,2.2,4.4,4.6,4.4s4.6-1.3,4.6-4.4v-8.5c0-3.1-2.2-4.4-4.6-4.4ZM49.9,54c0,1.5-.7,2.1-2.3,2.1s-2.3-.7-2.3-2.1v-8.5c0-1.5.8-2.1,2.3-2.1s2.3.6,2.3,2.1v8.5ZM60.4,41.1c-2.4,0-4.6,1.3-4.6,4.4v1.1h2.3v-1.1c0-1.5.8-2.1,2.3-2.1s2.3.6,2.3,2.1c0,3.2-6.9,7.8-6.9,10.4v2.3h9.2v-2.3h-6.9c.7-2.3,6.9-6.4,6.9-10.4s-2.2-4.4-4.6-4.4ZM73.2,47.5c-.7,0-1.4,0-2,.4l.2-4.2h5.7v-2.3h-7.9l-.5,9.5h2.3c.5-.7,1.3-1.1,2.2-1.1,1.6,0,2.3.7,2.3,2.1v2.1c0,1.5-.7,2.1-2.3,2.1s-2.3-.6-2.3-2.1h-2.3c0,3.1,2.2,4.4,4.6,4.4s4.6-1.3,4.6-4.4v-2.1c0-3.1-2.2-4.4-4.6-4.4h0ZM81.3,55.4v2.7h2.3v-2.7h-2.3ZM91.8,41.1c-2.4,0-4.6,1.3-4.6,4.4v.8h2.3v-.8c0-1.5.8-2.1,2.3-2.1s2.3.6,2.3,2.1v1c0,1.5-.7,2.1-2.3,2.1h-1.3v2.3h1.3c1.6,0,2.3.6,2.3,2.1v1c0,1.5-.7,2.1-2.3,2.1s-2.3-.7-2.3-2.1v-.9h-2.3v.9c0,3.1,2.2,4.4,4.6,4.4s4.6-1.3,4.6-4.4v-1c0-1.2-.4-2.4-1.3-3.2.9-.9,1.3-2,1.3-3.3v-1c0-3.1-2.2-4.4-4.6-4.4ZM100,55.4v2.7h2.3v-2.7h-2.3ZM110.5,43.4c1.6,0,2.3.6,2.3,2.1h2.3c0-3.1-2.2-4.4-4.6-4.4s-4.6,1.3-4.6,4.4v8.5c0,3.1,2.2,4.4,4.6,4.4s4.6-1.3,4.6-4.4v-2.1c0-3.1-2.2-4.4-4.6-4.4s-1.6.2-2.3.5v-2.4c0-1.5.8-2.1,2.3-2.1h0ZM110.5,49.7c1.6,0,2.3.7,2.3,2.1v2.1c0,1.5-.7,2.1-2.3,2.1s-2.3-.6-2.3-2.1v-2.1c0-1.5.8-2.1,2.3-2.1Z"/>
  <path id="_パス_46519" class="st0" d="M121.9,46.8s-1.2,1.3-1.2,5.9,1.2,5.9,1.2,5.9h1.6s-1.2-1.7-1.2-5.9,1.2-5.9,1.2-5.9h-1.6ZM154.4,46.8s1.2,1.7,1.2,5.9-1.2,5.9-1.2,5.9h1.6s1.2-1.3,1.2-5.9-1.2-5.9-1.2-5.9h-1.6Z"/>
  <path id="_パス_46521" class="st2" d="M196.1,59.7v-16.9h-3.5v2.3h1.2v14.6s2.3,0,2.3,0ZM204.9,42.6c-2.4,0-4.6,1.3-4.6,4.4v1.1h2.3v-1.1c0-1.5.8-2.1,2.3-2.1s2.3.6,2.3,2.1c0,3.2-6.9,7.8-6.9,10.4v2.3h9.2v-2.3h-6.9c.7-2.3,6.9-6.4,6.9-10.4s-2.2-4.4-4.6-4.4ZM213.7,49.3v2.8h2.3v-2.8h-2.3ZM213.7,56.9v2.7h2.3v-2.7h-2.3ZM224.8,42.6c-2.4,0-4.6,1.3-4.6,4.4v8.5c0,3.1,2.2,4.4,4.6,4.4s4.6-1.3,4.6-4.4v-8.5c0-3.1-2.2-4.4-4.6-4.4ZM227.2,55.5c0,1.5-.7,2.1-2.3,2.1s-2.3-.7-2.3-2.1v-8.5c0-1.5.8-2.1,2.3-2.1s2.3.6,2.3,2.1v8.5ZM238.3,42.6c-2.4,0-4.6,1.3-4.6,4.4v8.5c0,3.1,2.2,4.4,4.6,4.4s4.6-1.3,4.6-4.4v-8.5c0-3.1-2.2-4.4-4.6-4.4ZM240.6,55.5c0,1.5-.7,2.1-2.3,2.1s-2.3-.7-2.3-2.1v-8.5c0-1.5.8-2.1,2.3-2.1s2.3.6,2.3,2.1v8.5Z"/>
  <path id="_パス_46522" class="st2" d="M262.1,59.7v-16.9h-3.5v2.3h1.2v14.6s2.3,0,2.3,0ZM271,44.9c1.6,0,2.3.6,2.3,2.1h2.3c0-3.1-2.2-4.4-4.6-4.4s-4.6,1.3-4.6,4.4v8.5c0,3.1,2.2,4.4,4.6,4.4s4.6-1.3,4.6-4.4v-2.1c0-3.1-2.2-4.4-4.6-4.4s-1.6.2-2.3.5v-2.4c0-1.5.8-2.1,2.3-2.1h0ZM271,51.2c1.6,0,2.3.7,2.3,2.1v2.1c0,1.5-.7,2.1-2.3,2.1s-2.3-.6-2.3-2.1v-2.1c0-1.5.8-2.1,2.3-2.1ZM279.8,49.3v2.8h2.3v-2.8h-2.3ZM279.8,56.9v2.7h2.3v-2.7h-2.3ZM290.9,42.6c-2.4,0-4.6,1.3-4.6,4.4v8.5c0,3.1,2.2,4.4,4.6,4.4s4.6-1.3,4.6-4.4v-8.5c0-3.1-2.2-4.4-4.6-4.4ZM293.2,55.5c0,1.5-.7,2.1-2.3,2.1s-2.3-.7-2.3-2.1v-8.5c0-1.5.8-2.1,2.3-2.1s2.3.6,2.3,2.1v8.5ZM304.3,42.6c-2.4,0-4.6,1.3-4.6,4.4v8.5c0,3.1,2.2,4.4,4.6,4.4s4.6-1.3,4.6-4.4v-8.5c0-3.1-2.2-4.4-4.6-4.4ZM306.7,55.5c0,1.5-.7,2.1-2.3,2.1s-2.3-.7-2.3-2.1v-8.5c0-1.5.8-2.1,2.3-2.1s2.3.6,2.3,2.1v8.5Z"/>
  <path id="_パス_46520" class="st0" d="M171.2,52.1v-4.3h-4.3v11h1.5v-6.6h2.8ZM174.6,52.1v4.2c0,.7-.3.9-.8.9v1.5c1.5,0,2.2-.7,2.2-2.4v-8.6h-4.3v4.3h2.9ZM169.8,48.9v.5h-1.4v-.5h1.4ZM174.6,48.9v.5h-1.4v-.5h1.4ZM169.8,50.3v.5h-1.4v-.5h1.4ZM174.6,50.3v.5h-1.4v-.5h1.4ZM174,52.8h-4.9v1.3h.7v.7h-.7v1.3h.5c-.2.4-.4.8-.8,1.1l1.1.9c.6-.6,1-1.3,1.1-2.1h.7v2.1h1.5v-2.1h.7v-1.3h-.7v-.7h.7v-1.3h0ZM171.2,54.8v-.7h.6v.7h-.6ZM186.7,52v-4.2h-5.7v4.2h5.7ZM185.2,48.8v.7h-2.7v-.7h2.7ZM187.1,54v-1.5h-6.4v1.5h.5c0,.9,0,1.8-.5,2.5v-1.4c-.2,0-.4.2-.7.3v-3.2h.7v-1.5h-.7v-1.5h-1.5v1.5h-.6v1.5h.6v3.5h-.6v1.5c.9,0,1.8,0,2.6-.5,0,0-.2.2-.2.3l1,.7c.5-.5.9-1.2,1-1.9h.3c0,.7-.2,1.3-.6,1.8l.8.6c.5-.7.8-1.6.8-2.5h.4c.1.8-.1,1.6-.6,2.3l.8.6c.6-.8.9-1.9.8-2.9h.6v.8c0,.4-.2.6-.5.6v1.5c1.2,0,1.9-.7,1.9-2.1v-2.1h-4.7v-.5h4.8,0ZM185.2,50.3v.7h-2.7v-.7h2.7Z"/>
  <rect class="st0" x="246.6" y="50.6" width="7.7" height="2"/>
  <path id="_パス_46523" class="st0" d="M194.2,64.5s-.8.9-.8,4.2.8,4.2.8,4.2h1.1c-.6-1.3-.9-2.8-.8-4.2-.1-1.5.2-2.9.8-4.2h-1.1ZM203.3,64.3c-1.8.2-3.6.3-5.4.3v1.1c1.8,0,3.6,0,5.4-.3v-1.1ZM202.2,65.9l-.2.9h-.8l-.2-.9h-1.2l.2.9h-.8l-.2-.9h-1.2l.2.9h-1v1.9h1.1v-.8h4.8v.8h1.1v-1.9h-1l.2-.9h-1.2.2,0ZM197.7,72.9c1,0,2-.3,2.9-.8.9.4,1.9.7,2.9.8l.2-1.1c-.7,0-1.4-.2-2-.5.6-.5.9-1.2,1-2v-1.1h-4.1v1.1h2.9c0,.6-.4,1.1-.9,1.4-.5-.3-.9-.6-1.3-1l-.8.8c.3.3.6.6,1,.9-.6.2-1.2.3-1.8.4v1.1h0ZM210.8,64.3v1h-2.6v1.1h2.6v4.6c0,.5-.2.7-.6.7h-1.1v1.1h1.1c1.1,0,1.7-.5,1.7-1.8v-4.6h.7v-1.1h-.7v-1h-1.1,0ZM206.5,72.9h1.1v-4.8h-.4c.5-1,.7-2,.7-3.1h-1.1c.1,1.3-.3,2.5-1.2,3.4v1.6c.3-.2.7-.5.9-.8v3.6h0ZM208.4,67.9l.3,2.1h1.2l-.3-2.1h-1.2ZM217.3,67.8v-3.3h-3.3v8.4h1.1v-5.1h2.2ZM219.9,67.8v3.3c0,.6-.2.7-.6.7v1.1c1.2,0,1.7-.5,1.7-1.9v-6.6h-3.3v3.3h2.2ZM216.1,65.4v.4h-1v-.4h1ZM219.9,65.4v.4h-1v-.4h1ZM216.1,66.5v.4h-1v-.4h1ZM219.9,66.5v.4h-1v-.4h1ZM219.4,68.4h-3.7v1h.5v.5h-.5v1h.4c-.1.3-.3.6-.6.9l.9.7c.4-.4.8-1,.9-1.6h.5v1.6h1.1v-1.6h.5v-1h-.5v-.5h.5v-1h0ZM217.3,69.9v-.5h.4v.5h-.4ZM227.9,65.4l.2,1.2c-.4,0-.9.2-1.3.2l.8-2.4-1.1-.3-.9,2.8v1.1c.9,0,1.8,0,2.7-.3v.3h1.2l-.4-2.6s-1.2,0-1.2,0ZM225.2,65.6h-1.5v-.6h-1v.6h-.2v1.1h.2v4.5h1c0,.3-.2.6-.3.8l1,.3c.2-.4.3-.7.4-1.1h.5v-1.1h-.3c.1-1.1.2-2.2.2-3.4v-1.1h0ZM223.7,70.1v-3.4h.5c0,1.1,0,2.2-.2,3.4h-.3ZM225.5,68.5v4.4h3.7v-4.4h-3.7ZM226.6,71.8v-2.2h1.5v2.2h-1.5ZM262.2,64.5c.6,1.3.9,2.8.8,4.2.1,1.5-.2,2.9-.8,4.2h1.1s.8-.9.8-4.2-.8-4.2-.8-4.2h-1.1Z"/>
  <path class="st2" d="M235.1,74v-8h-.7v-1.3h1.9v9.3h-1.3.1Z"/>
  <path class="st2" d="M239.2,74v-8h-.7v-1.3h1.9v9.3h-1.3.1Z"/>
  <path class="st2" d="M244,68.3v1.5h-1.3v-1.5h1.3ZM244,72.5v1.5h-1.3v-1.5h1.3Z"/>
  <path class="st2" d="M251.4,67.1v.5c0,.8-.3,1.4-.7,1.8.4.4.7,1,.7,1.8v.5c0,1.7-1.2,2.4-2.5,2.4s-2.5-.7-2.5-2.4v-.5h1.3v.5c0,.8.4,1.2,1.3,1.2s1.3-.4,1.3-1.2v-.5c0-.8-.4-1.2-1.3-1.2h-.7v-1.3h.7c.9,0,1.3-.4,1.3-1.2v-.5c0-.8-.4-1.2-1.3-1.2s-1.3.3-1.3,1.2v.4h-1.3v-.4c0-1.7,1.2-2.4,2.5-2.4s2.5.7,2.5,2.4h0Z"/>
  <path class="st2" d="M258.8,67.1v4.7c0,1.7-1.2,2.4-2.5,2.4s-2.5-.7-2.5-2.4v-4.7c0-1.7,1.2-2.4,2.5-2.4s2.5.7,2.5,2.4ZM257.6,67.1c0-.8-.4-1.2-1.3-1.2s-1.3.3-1.3,1.2v4.7c0,.8.4,1.2,1.3,1.2s1.3-.4,1.3-1.2v-4.7Z"/>
  <path id="_パス_46516" class="st2" d="M185.7,18v1.3h-2.2v7.1l-1.3-1.1c.7-1.3,1-2.7.9-4.2v-1.8h-1.4v-1.2h-1.8v1.2h-1.4v1.8h2.8c.2,2.2-.9,4.2-2.8,5.3v2.1c.6-.2,1.1-.5,1.6-.9v4.3h1.8v-4.4l.7.6.9-1v1.4h2.2v3.4h1.8v-3.4h2.3v-9.2h-2.3v-1.3h-1.8ZM185.2,23.1v-2h.7v2h-.7ZM187.9,23.1h-.7v-2h.7v2ZM185.2,26.6v-2h.7v2h-.7ZM187.2,26.6v-2h.7v2h-.7ZM202.7,20.1v-1.8h-11.3v1.8h11.3ZM193.2,31.8s.2-1.4.4-4.3h9.1v-6.5h-10.8c0,3.5,0,7.1-.5,10.6l1.8.3h0ZM200.9,22.8v2.9h-7.2v-2.9h7.2ZM208.7,25.9v-3.9h2.3v3.1c0,2.9-1.2,4.3-3.6,5.1l.8,1.7c2.4-.7,4.6-2.7,4.6-6.7v-3.1h1.5v-1.8h-1.5v-.9h-1.8v.9h-2.3v-.9h-1.8v.9h-1.5v1.8h1.5v3.9h1.8ZM218.3,20.1l-1.3,1.3,2.6,2.7,1.3-1.3-2.6-2.7ZM224.5,22.3c-.9,3.6-3.6,6.6-7.1,7.9l.9,1.6c3.9-1.4,6.8-4.7,7.8-8.8l-1.7-.7h.1ZM234.8,18.2v2.2h1v-2.2h-1ZM236.3,18.2v2.2h1v-2.2h-1ZM231.9,28c0,1.6,0,1.9-.7,1.9v1.8c2.4,0,2.6-1,2.6-3.5v-5.4h2.9v-1.8h-2.9v-1.8h-1.8v1.8h-2.9v1.8h2.9v5.2h-.1ZM229,25.3c0,1.5-.4,3.1-1.4,4.3l1.6.9c1.2-1.4,1.8-3.3,1.7-5.1h-1.9ZM235.8,30.5l1.8-.4-1-4.8-1.8.4,1,4.8ZM240.8,26.5h7v-1.8h-7v1.8ZM256.7,21v-1.8h-1.8v1.8h-2.9v1.8h2.9v5.2c0,1.6,0,1.9-.7,1.9v1.8c2.4,0,2.6-1,2.6-3.5v-5.4h2.9v-1.8h-3ZM252,25.4c0,1.5-.4,3.1-1.4,4.3l1.6.9c1.2-1.4,1.8-3.3,1.6-5.1h-1.8ZM259.5,25.4l-1.8.4,1,4.8,1.8-.4s-1-4.8-1-4.8ZM263.7,26.5h7v-1.8h-7v1.8ZM281.1,20.1h-1.8v11.7c2.1-.2,4-1.3,5-3.2l-1.5-1.1c-.4.7-1,1.4-1.8,1.8v-9.3h0ZM275.9,22.9c0,3.5,0,5.1-1.9,7.8l1.5,1c1.9-2.8,2.2-4.6,2.2-8.8h-1.8ZM289.1,31.8v-13.5h-2.8v1.8h1v11.7h1.8ZM299.2,18.3h-7.2v13.5h1.8v-6.1h5v-1.8h-5v-3.8h5.4v-1.8h0Z"/>
  <polygon class="st2" points="130.4 48.4 132.7 48.4 132.7 46.8 126.4 46.8 126.4 48.4 128.8 48.4 128.8 58.6 130.4 58.6 130.4 48.4"/>
  <polygon class="st2" points="142 46.8 140.4 46.8 140.4 51.9 137.3 51.9 137.3 46.8 135.7 46.8 135.7 58.6 137.3 58.6 137.3 53.5 140.4 53.5 140.4 58.6 142 58.6 142 46.8"/>
  <path class="st2" d="M145,55.7c0,1.6,1.2,3,2.8,3.1h.5c1.6.2,3-1,3.2-2.6v-9.4h-1.6v8.9c0,1-.5,1.5-1.6,1.5s-1.6-.4-1.6-1.5v-8.9h-1.6v8.9h0Z"/>
</svg>