<?xml version="1.0" encoding="UTF-8"?>
<svg id="_レイヤー_1" data-name="レイヤー_1" xmlns="http://www.w3.org/2000/svg" version="1.1" viewBox="0 0 283 85">
  <!-- Generator: Adobe Illustrator 29.1.0, SVG Export Plug-In . SVG Version: 2.1.0 Build 142)  -->
  <defs>
    <style>
      .st0 {
        fill: #25aa39;
      }

      .st1 {
        fill: #243f7e;
      }
    </style>
  </defs>
  <path id="_パス_46311" data-name="パス_46311" class="st0" d="M14.3,3.9l7.6,3.6-1.7,3.6-2.7-1.3c.4,2,.6,4,.6,6.1,0,8-3.7,10.9-7.8,10.9s-8.8-.9-8.8-8.6c0-4.5,1-8.9,2.7-13H.3V1.2h8.2v4c-2,4.1-3,8.5-3.1,13,0,3.7,2,4.6,4.8,4.6s3.8-2.8,3.8-6.9c.1-2.9-.4-5.7-1.5-8.4l1.7-3.6Z"/>
  <path id="_パス_46312" data-name="パス_46312" class="st1" d="M33.6,5.6v3.6h4.2v3.6h-4.2v5.1h3.4v3.6h-3.4c0,2-.4,5.4-4.5,5.4s-4.5-2.2-4.5-4.2,1.4-4.8,5.4-4.8V5.6h3.6ZM30.2,21.3c-1.5,0-2.1.4-2.1,1.1,0,.5.4.9.9.9,0,0,0,0,.1,0,1,0,1.1-.8,1.1-2.1"/>
  <path id="_パス_46313" data-name="パス_46313" class="st0" d="M54.5,27.4l-4.4-1.5c4.4-5.1,8.3-13.2,2.1-14-2.3-.1-4.6.3-6.7,1.2l-.9-3.7c2.4-.9,4.9-1.3,7.5-1.3,8.3.3,11.6,7.7,2.4,19.4M57.5,1.9l-.3,4-9.6-.7.3-4,9.6.7Z"/>
  <path id="_パス_46314" data-name="パス_46314" class="st1" d="M70,19.8c0,2.8.8,3.1,4.3,3.1,2.9,0,5.9,0,8.7-.5v4c-3.1.3-6.2.5-9.3.5-5.8,0-7.2-2.5-7.7-7.1h4ZM68.1,7.1V3.1h5.9c1.6,0,3.3.1,4.8.7V0h2.3v4.8h-.9c1,1.1,1.5,2.8,1.5,5.5h-4c0-2.8-.8-3.1-4.3-3.1h-5.3ZM82.2,0h2.3v4.8h-2.3V0Z"/>
  <path id="_パス_46315" data-name="パス_46315" class="st0" d="M98.2,69.5v-9.7h-3.8v-4.5h3.8v-2.3h4.5v2.3h5.7v-2.3h4.6v2.3h3.7v4.5h-3.7v7.7c0,10.1-5.5,14.9-11.5,16.7l-1.9-4.1c5.8-1.9,8.9-5.4,8.9-12.6v-7.7h-5.7v9.7h-4.5Z"/>
  <path id="_パス_46316" data-name="パス_46316" class="st1" d="M120.1,79.8l1-4.4,18.5,4.3-1,4.4-18.5-4.3ZM123.2,54l14.4,3.4-1,4.4-14.4-3.4,1-4.4ZM122.7,69.5l1-4.4,13.2,3.1-1,4.4-13.2-3.1Z"/>
  <path id="_パス_46317" data-name="パス_46317" class="st0" d="M149.3,67h-4.5v-8.3h4.5v8.3ZM148.8,81c7.6-6.5,8.8-12.3,9.1-17.3h4.5c0,6.7-3.1,14-10.4,20.5l-3.2-3.2ZM155.6,67h-4.5v-8.3h4.5v8.3Z"/>
  <path id="_パス_46318" data-name="パス_46318" class="st1" d="M169.6,53h4.5v10.9l9.5,2.5-1.1,4.4-8.4-2.2v15.6h-4.5v-31.2Z"/>
  <path id="_パス_46319" data-name="パス_46319" class="st0" d="M39.7,85c-6.2-.1-9-3.3-9-10.1v-3.2h-.9c-1,4.6-2.6,9.1-5,13.3l-5.2-2.1c5.3-9.3,6.4-18.1,6.7-32.7v-.5s-3.2,0-3.2,0v-5.6h3.3v-.4c0-1.2,0-2.4,0-3.6,0-1.2,0-2.4,0-3.7h5.6c0,1.2,0,2.5,0,3.7,0,1.3,0,2.5,0,3.6v.4h4.1l-1.1-6.5h3l1.1,6.5h.4v5.6h-7.7v.4c0,2.8-.2,5.4-.3,7.4v.5s4.8,0,4.8,0v16.9c0,3,1,4.3,3.3,4.5v5.7ZM6.2,79.3c1.3-.3,1.5-1.8,1.5-3.3v-7.8H0v-18.1h20.4v18.1h-7.7v7.8c0,5.6-2.3,8.7-6.4,8.9v-5.7ZM5.7,62.5h9v-6.8H5.7v6.8ZM0,80c.7-2.8,1-5.6,1-8.4h4.3c.1,3.3-.3,6.7-1.2,9.9l-4-1.5ZM16.3,80.5c-.9-2.9-1.3-5.9-1.2-9h4.3c0,2.5.2,5,.9,7.5l-4,1.5ZM0,46.4v-5.6h7.3v-4.5h5.7v4.5h7.3v5.6H0Z"/>
  <path id="_パス_46320" data-name="パス_46320" class="st1" d="M53,85v-4.5l-.6.2c-2.5.7-5.1,1.1-7.7,1.1v-5.6h1.2v-33h-1.2v-5.6h13.3v3.3h5.7v-4.5h5.6v4.5h4.8v5.6h-1.8v8.8h3.8v-18.9h4.4v18.9h3.8v5.6h-3.6v.4c0,4,.2,8,.8,12v.8c.1,0,.7-.5.7-.5.4-.3.7-.7,1.1-1.1l1,4.7c-.5.5-.9.9-1.4,1.3l-.2.2v.3c.4,1.2.9,2.6,1.5,4.3l-5,1.7c-.2-.5-.3-.9-.5-1.4,0-.3-.2-.6-.3-.9l-.2-.5-.5.3c-1.9,1.1-3.9,2-6.1,2.6l-.9-3.7h-10.8v-17.2h13.3v15.2l.6-.2c1-.4,2-.8,2.9-1.4l.3-.2v-.3c-1-5.3-1.5-10.6-1.3-16v-.4h-17v-5.6h1.8v-8.8h-1.8v-3.3h-2v41.9h-3.8ZM64.2,77.4h4.9v-4h-4.9v4ZM49.7,75.7h.5c.7-.3,1.4-.4,1.9-.6l.8-.2v-6h-3.3v6.8ZM64.2,71.9h4.9v-4h-4.9v4ZM49.7,63.2h3.3v-7.2h-3.3v7.2ZM64.4,55.2h4.1v-8.8h-4.1v8.8ZM49.7,50.4h3.3v-7.3h-3.3v7.3ZM82,51.5l-.5-10.1h2.3l.5,10.1h-2.3Z"/>
  <path id="_パス_46321" data-name="パス_46321" class="st0" d="M190.8,83.8v-4.3c0-2.3,2.9-5.4,5.9-8.7,3.4-3.7,6.9-7.4,6.9-10.5s-1.3-3.8-4.2-3.8-4.3,1.2-4.3,3.8v2.1h-4.4v-2.1c0-6,4.4-8.2,8.6-8.2s8.6,2.1,8.6,8.2-4.2,9.1-7.9,13c-1.7,1.7-3.2,3.5-4.5,5.6l-.3.6h12.7v4.4h-17.2Z"/>
  <path id="_パス_46322" data-name="パス_46322" class="st1" d="M223.5,84.2c-4.2,0-8.6-2.2-8.6-8.2v-15.7c0-6,4.4-8.2,8.6-8.2s8.6,2.1,8.6,8.2v15.7c0,6.1-4.4,8.2-8.6,8.2M223.5,56.4c-2.9,0-4.3,1.2-4.3,3.8v15.7c0,2.6,1.4,3.9,4.3,3.9s4.2-1.2,4.2-3.9v-15.7c0-2.6-1.3-3.8-4.2-3.8"/>
  <path id="_パス_46323" data-name="パス_46323" class="st0" d="M239.1,83.8v-4.3c0-2.3,2.9-5.4,5.9-8.7,3.4-3.7,6.9-7.4,6.9-10.5s-1.3-3.8-4.2-3.8-4.3,1.2-4.3,3.8v2.1h-4.3v-2.1c0-6,4.4-8.2,8.6-8.2s8.6,2.1,8.6,8.2-4.2,9.1-7.9,13c-1.7,1.7-3.2,3.5-4.5,5.6l-.3.6h12.7v4.4h-17.2Z"/>
  <path id="_パス_46324" data-name="パス_46324" class="st1" d="M271.4,84.2c-4.2,0-8.6-2.2-8.6-8.2v-15.7c0-6.1,4.4-8.2,8.6-8.2s8.6,2.2,8.6,8.2h0c0,0-4.4,0-4.4,0h0c0-2.7-1.3-3.9-4.2-3.9s-4.3,1.2-4.3,3.9v4.4l.6-.2c1.2-.4,2.4-.6,3.7-.6,4.1,0,8.6,2.2,8.6,8.2v3.9c0,6.1-4.4,8.2-8.6,8.2M271.4,68.1c-2.9,0-4.3,1.2-4.3,3.9v3.9c0,2.7,1.3,3.9,4.3,3.9s4.2-1.2,4.2-3.9v-3.9c0-2.7-1.3-3.9-4.2-3.9"/>
  <path class="st0" d="M103.4,44.6h-1.5v-4.8h-3v4.8h-1.5v-11.2h1.5v4.8h3v-4.8h1.5v11.2Z"/>
  <path class="st1" d="M113.5,33.4l-2.8,5.8v5.4h-1.5v-5.4l-2.8-5.8h1.7l1.9,3.9,1.9-3.9h1.7Z"/>
  <path class="st0" d="M116.4,39c0-3.6,1-5.7,3.5-5.7s3.5,2.1,3.5,5.7-1,5.7-3.5,5.7-3.5-2.1-3.5-5.7ZM117.9,39c0,3.2.8,4.2,1.9,4.2s1.9-1,1.9-4.2-.8-4.2-1.9-4.2-1.9,1-1.9,4.2Z"/>
  <path class="st1" d="M126.3,41.8v-5.6c0-2.1,1.5-2.9,3.1-2.9s3.1.9,3.1,2.9v.8h-1.5v-.8c0-1-.5-1.4-1.5-1.4s-1.6.4-1.6,1.4v5.6c0,1,.5,1.4,1.6,1.4s1.5-.4,1.5-1.4v-1.3h-1.7v-1.5h3.2v2.8c0,2.1-1.5,2.9-3.1,2.9s-3.1-.9-3.1-2.9Z"/>
  <path class="st0" d="M135.3,39c0-3.6,1-5.7,3.5-5.7s3.5,2.1,3.5,5.7-1,5.7-3.5,5.7-3.5-2.1-3.5-5.7ZM136.9,39c0,3.2.8,4.2,1.9,4.2s1.9-1,1.9-4.2-.8-4.2-1.9-4.2-1.9,1-1.9,4.2Z"/>
  <path class="st1" d="M154.7,41.3c0-.9-.6-1.5-1.8-1.8-1.7-.4-3-1.2-3-3.3s1.6-2.9,3-2.9,3.1.9,3.1,2.9h-1.5c0-1-.5-1.4-1.5-1.4s-1.5.5-1.5,1.4.4,1.6,1.5,1.8c1.8.4,3.3,1.2,3.3,3.3s-1.4,3.4-3.3,3.4-3.4-1.3-3.4-3.4h1.5c0,1.1.7,1.9,1.8,1.9s1.8-.8,1.8-1.9Z"/>
  <path class="st0" d="M165.2,44.6h-1.5v-4.8h-3v4.8h-1.5v-11.2h1.5v4.8h3v-4.8h1.5v11.2Z"/>
  <path class="st1" d="M168.1,33.4h1.5v8.4c0,1,.5,1.4,1.6,1.4s1.5-.4,1.5-1.4v-8.4h1.5v8.4c0,2.1-1.5,2.9-3.1,2.9s-3.1-.9-3.1-2.9v-8.4Z"/>
  <path class="st0" d="M182.4,41.3c0-.9-.6-1.5-1.8-1.8-1.7-.4-3-1.2-3-3.3s1.6-2.9,3-2.9,3.1.9,3.1,2.9h-1.5c0-1-.5-1.4-1.5-1.4s-1.5.5-1.5,1.4.4,1.6,1.5,1.8c1.8.4,3.3,1.2,3.3,3.3s-1.4,3.4-3.3,3.4-3.4-1.3-3.4-3.4h1.5c0,1.1.7,1.9,1.8,1.9s1.8-.8,1.8-1.9Z"/>
  <path class="st1" d="M192.8,44.6h-1.5v-4.8h-3v4.8h-1.5v-11.2h1.5v4.8h3v-4.8h1.5v11.2Z"/>
  <path class="st0" d="M195.7,39c0-3.6,1-5.7,3.5-5.7s3.5,2.1,3.5,5.7-1,5.7-3.5,5.7-3.5-2.1-3.5-5.7ZM197.2,39c0,3.2.8,4.2,1.9,4.2s1.9-1,1.9-4.2-.8-4.2-1.9-4.2-1.9,1-1.9,4.2Z"/>
  <path class="st1" d="M205.6,44.6v-11.2h1.5v5l3.1-5h1.8l-3.4,5.6,3.4,5.6h-1.8l-3.1-5v5h-1.5Z"/>
  <path class="st0" d="M214.6,33.4h1.5v8.4c0,1,.5,1.4,1.6,1.4s1.5-.4,1.5-1.4v-8.4h1.5v8.4c0,2.1-1.5,2.9-3.1,2.9s-3.1-.9-3.1-2.9v-8.4Z"/>
  <path class="st1" d="M233.2,41.3c0-.9-.6-1.5-1.8-1.8-1.7-.4-3-1.2-3-3.3s1.6-2.9,3-2.9,3.1.9,3.1,2.9h-1.5c0-1-.5-1.4-1.5-1.4s-1.5.5-1.5,1.4.4,1.6,1.5,1.8c1.8.4,3.3,1.2,3.3,3.3s-1.4,3.4-3.3,3.4-3.4-1.3-3.4-3.4h1.5c0,1.1.7,1.9,1.8,1.9s1.8-.8,1.8-1.9Z"/>
  <path class="st0" d="M237.6,33.4h1.5v8.4c0,1,.5,1.4,1.6,1.4s1.5-.4,1.5-1.4v-8.4h1.5v8.4c0,2.1-1.5,2.9-3.1,2.9s-3.1-.9-3.1-2.9v-8.4Z"/>
  <path class="st1" d="M246.7,32.9l4.1,5.7,4.1-5.7v11.6h-1.5v-6.9l-2.5,3.6-2.5-3.6v6.9h-1.5v-11.6Z"/>
  <path class="st0" d="M257.7,32.9l4.1,5.7,4.1-5.7v11.6h-1.5v-6.9l-2.5,3.6-2.5-3.6v6.9h-1.5v-11.6Z"/>
  <path class="st1" d="M269.5,44.6v-11.2h1.5v11.2h-1.5Z"/>
  <path class="st0" d="M278.4,44.6h-1.5v-9.7h-2.2v-1.5h6v1.5h-2.2v9.7Z"/>
</svg>