<?xml version="1.0" encoding="UTF-8"?>
<svg id="_レイヤー_1" data-name="レイヤー_1" xmlns="http://www.w3.org/2000/svg" version="1.1" viewBox="0 0 373 150">
  <!-- Generator: Adobe Illustrator 29.1.0, SVG Export Plug-In . SVG Version: 2.1.0 Build 142)  -->
  <defs>
    <style>
      .st0 {
        fill: #25aa39;
      }

      .st1 {
        fill: #fff;
      }

      .st2 {
        fill: none;
      }

      .st3 {
        fill: #243f7e;
      }
    </style>
  </defs>
  <path id="_パス_46349" data-name="パス_46349" class="st1" d="M10,0h353c5.5,0,10,4.5,10,10v130c0,5.5-4.5,10-10,10H10c-5.5,0-10-4.5-10-10V10C0,4.5,4.5,0,10,0Z"/>
  <path class="st3" d="M363,0H10C4.5,0,0,4.5,0,10v130c0,5.5,4.5,10,10,10h353c5.5,0,10-4.5,10-10V10c0-5.5-4.5-10-10-10ZM370,140c0,3.9-3.1,7-7,7H10c-3.9,0-7-3.1-7-7v-61h57c5.5,0,10-4.5,10-10V3h293c3.9,0,7,3.1,7,7v130Z"/>
  <path id="_パス_46515" data-name="パス_46515" class="st1" d="M21.8,44.5c.3,0,.7,0,1,0,.2,0,.3,0,.5-.1,0-.1.1-.3.1-.4v-5.8h-3.8c0,0-.1,0-.2,0,0,0,0,0,0-.1v-1.2s0-1.9,0-1.9v-1.2c0,0,0-.1,0-.1,0,0,0,0,.1,0h1.5s2.1,0,2.1,0h1.6c0,0,.1,0,.1,0,0,0,0,0,0,.1v1.9s0,6,0,6v2.6c0,.3,0,.6,0,.8,0,.2-.2.3-.3.5-.2.2-.4.3-.7.3-.4,0-.8,0-1.2,0-.2,0-.4,0-.4,0,0-.1-.1-.2-.1-.4,0-.4-.2-.7-.3-1ZM23.4,37.2v-.8h-2.6v.8h2.6ZM23.4,34.7h-2.6v.8h2.6v-.8ZM16.9,33.7h1.4c0,0,.1,0,.1.1v1.3s0,1.6,0,1.6v1.3c0,0,0,.2-.1.2h-1.4s-2.3,0-2.3,0v7.7c0,0,0,.1,0,.1,0,0,0,0-.1,0h-1.2s0,0-.1,0c0,0,0,0,0-.1v-3s0-6.1,0-6.1v-3c0,0,0-.1,0-.1,0,0,0,0,.1,0h1.7s1.9,0,1.9,0ZM17.1,37.2v-.8h-2.5v.8h2.5ZM17.1,34.7h-2.5v.8h2.5v-.8ZM15.4,45c.8-.5,1.3-1.2,1.5-2.1v-.3c-.4,0-.8,0-1.2,0h-.3s0,0,0,0c0,0-.1,0-.1,0,0,0,0,0,0-.1v-.8c0,0,0-.1,0-.1,0,0,0,0,.1,0h1.6c0-.4,0-.9,0-1.2-.3,0-.7,0-.9,0h-.3c0,0-.1,0-.1,0,0,0,0,0,0-.1v-.9c0,0,0-.1,0-.1,0,0,0,0,.1,0h1.8s3,0,3,0h1.8s0,0,.1,0c0,0,0,0,0,.1v.9c0,0,0,.1,0,.1,0,0,0,0-.1,0h-.2c-.3,0-.7,0-1.1,0v1.3h1.6s0,0,.1,0c0,0,0,0,0,.1v.8s0,0,0,.1c0,0,0,0-.1,0h-1.6s0,1.3,0,1.3v1.5s0,.1,0,.1c0,0,0,0-.1,0h-1c0,0-.1,0-.1,0,0,0,0,0,0-.1v-1.5s0-1.3,0-1.3h-1.5c0,.3,0,.5,0,.6-.2.9-.7,1.7-1.3,2.4-.1.1-.2.2-.3.2,0,0-.2,0-.3-.3-.2-.2-.5-.4-.8-.6ZM18.3,41.6h1.4v-1.3h-1.4c0,.4,0,.8,0,1.3ZM32.1,40.4c.8-.7,1.5-1.6,2-2.5.2-.3.4-.7.4-1,.4,0,.8.2,1.2.4.2,0,.2.1.2.2,0,0,0,.2-.2.2-.2.2-.4.5-.5.8h2c0-.1.2-.4.3-.7,0-.2.2-.5.2-.7.4,0,.8.2,1.2.3.2,0,.2,0,.2.2,0,0,0,.2-.1.2-.1,0-.2.2-.2.3,0,.2-.1.3-.2.5h2.8c0,0,.1,0,.1.1v.9c0,0,0,.2-.1.2h-1.7s-1.2,0-1.2,0v.9h2.5c.1,0,.1,0,.1.1v.8s0,0,0,.1c0,0,0,0-.1,0h-1.7s-.8,0-.8,0v.9h2.5c0,0,.1,0,.1,0,0,0,0,0,0,.1v.8s0,0,0,.1c0,0,0,0-.1,0h-1.7s-.8,0-.8,0v.9h3.1c0,0,.1,0,.1,0,0,0,0,0,0,.1v.9c0,0,0,.1,0,.2,0,0,0,0-.1,0h-1.8s-4.9,0-4.9,0v.5c0,0,0,.1,0,.1,0,0,0,0-.1,0h-1c0,0-.1,0-.1,0,0,0,0,0,0-.1v-1.4s0-4,0-4l-.5.6c-.1.2-.2.2-.3.2s-.1-.1-.3-.3c-.1-.3-.3-.5-.6-.7ZM35.1,44.3h2.3v-.9h-2.3v.9ZM35.1,42.3h2.3v-.9h-2.3v.9ZM35.1,40.3h2.3v-.9h-2.3v.9ZM31.7,33.2c.6.2,1,.3,1.3.4.1,0,.2.1.2.2,0,.1,0,.2-.2.3-.1.2-.2.4-.3.6-.2.6-.4,1.2-.7,1.8v9.5c0,.1,0,.2-.1.2h-1.2c0,0-.1,0-.1,0,0,0,0,0,0-.1v-2.1s0-3.2,0-3.2c0-.8,0-1.3,0-1.8-.3.4-.6.8-.8,1.1-.1.1-.2.2-.3.2s-.1,0-.1-.2c0-.4-.2-.8-.4-1.2,1.1-1.3,1.9-2.9,2.4-4.5,0-.3.2-.6.2-1h0ZM40.1,33.9c.5,0,.9,0,1.4,0,.1,0,.2,0,.2.1,0,0,0,0,0,.1,0,0,0,0,0,.1,0,.2,0,.4,0,.6v1.6c0,0,0,.1,0,.1,0,0,0,0-.1,0h-1.9s-4,0-4,0h-1.9c0,0-.1,0-.1,0,0,0,0,0,0-.1v-1s0-.6,0-.6c0-.3,0-.6,0-1,.4,0,.9,0,1.4,0,.1,0,.2,0,.2.1,0,0,0,.2,0,.3,0,.2,0,.4,0,.5v.6h1.9v-.9c0-.4,0-.9,0-1.3.3,0,.8,0,1.4,0,.1,0,.2,0,.2.1,0,0,0,.2,0,.3,0,.3,0,.6,0,.9v.9h2.1v-.6c0-.3,0-.7,0-1h0ZM49.5,45.9h-1.3s0,0-.1,0c0,0,0,0,0-.1v-5s0-2.7,0-2.7v-3.7s0-.1,0-.1c0,0,0,0,.1,0h1.9s4.8,0,4.8,0h1.9c0,0,.1,0,.1,0,0,0,0,0,0,.1v3.2s0,3.1,0,3.1v4.9c0,0,0,.1,0,.1,0,0,0,0-.1,0h-1.2c0,0-.1,0-.1,0,0,0,0,0,0-.1v-.7h-5.9v.8c0,0,0,.1,0,.1,0,0,0,0-.1,0ZM49.7,43.6h5.9v-3.4h-5.9v3.4ZM49.7,35.6v3.2h5.9v-3.2h-5.9Z"/>
  <path id="_パス_46516" data-name="パス_46516" class="st3" d="M92.9,21v3.2h18.2v-3.2h-18.2ZM109.7,31.4h-15.3v3.2h15.3v-3.2ZM92,45h20.1v-3.2h-20.1v3.2ZM127.4,20.4v2.2h-8.4v6.5h3.2v-3.2h13.6v3.2h3.2v-6.5h-8.4v-2.2h-3.2ZM119.5,45h18.9v-9.5h-7.8v-1.2h4.2v-7.3h-11.7v7.3h4.3v1.2h-7.8v9.5ZM126.4,29.7h5.2v2h-5.2v-2ZM135.2,41.7h-12.4v-3h12.4v3Z"/>
  <path class="st3" d="M100.2,60c-4,0-7.7,2.1-7.7,7.3v1.9h3.8v-1.9c0-2.5,1.3-3.5,3.9-3.5s3.8,1,3.8,3.5c0,5.3-11.5,13-11.5,17.3v3.8h15.3v-3.8h-11.4c1.1-3.9,11.4-10.6,11.4-17.3s-3.6-7.3-7.6-7.3Z"/>
  <path class="st3" d="M121.4,60c-4,0-7.7,2.1-7.7,7.3v14.1c0,5.1,3.6,7.3,7.7,7.3s7.6-2.2,7.6-7.3v-14.1c0-5.1-3.6-7.3-7.6-7.3ZM125.3,81.3c0,2.5-1.2,3.5-3.9,3.5s-3.9-1.1-3.9-3.5v-14.1c0-2.5,1.3-3.5,3.9-3.5s3.9,1,3.9,3.5v14.1Z"/>
  <path class="st3" d="M142.7,60c-4,0-7.7,2.1-7.7,7.3v1.9h3.8v-1.9c0-2.5,1.3-3.5,3.9-3.5s3.8,1,3.8,3.5c0,5.3-11.5,12.9-11.5,17.3v3.8h15.3v-3.8h-11.4c1.1-3.9,11.4-10.6,11.4-17.3s-3.6-7.3-7.6-7.3h0Z"/>
  <path class="st3" d="M163.9,70.5c-1.1,0-2.2.2-3.3.6l.3-7h9.5v-3.8h-13.1l-.8,15.8h3.8c.8-1.2,2.2-1.8,3.6-1.8,2.6,0,3.8,1.1,3.8,3.5v3.5c0,2.5-1.2,3.5-3.8,3.5s-3.9-1-3.9-3.5h-3.8c0,5.1,3.6,7.3,7.7,7.3s7.6-2.2,7.6-7.3v-3.5c0-5.1-3.6-7.3-7.6-7.3Z"/>
  <rect class="st0" x="177.5" y="83.8" width="3.8" height="4.5"/>
  <path class="st3" d="M194.9,60c-4,0-7.7,2.1-7.7,7.3v1.3h3.8v-1.3c0-2.5,1.3-3.5,3.9-3.5s3.8,1,3.8,3.5v1.6c0,2.4-1.2,3.5-3.8,3.5h-2.1v3.8h2.1c2.6,0,3.8,1.1,3.8,3.5v1.6c0,2.5-1.2,3.5-3.8,3.5s-3.9-1.1-3.9-3.5v-1.4h-3.8v1.4c0,5.1,3.6,7.3,7.7,7.3s7.6-2.2,7.6-7.3v-1.6c.1-2-.7-4-2.1-5.4,1.5-1.4,2.2-3.4,2.1-5.4v-1.6c0-5.1-3.6-7.3-7.6-7.3h0Z"/>
  <rect class="st0" x="208.5" y="83.8" width="3.8" height="4.5"/>
  <path class="st3" d="M225.9,70.5c-1.3,0-2.7.3-3.9.8v-4c0-2.5,1.3-3.5,3.9-3.5s3.8,1,3.8,3.5h3.8c0-5.2-3.6-7.3-7.6-7.3s-7.7,2.1-7.7,7.3v14.1c0,5.1,3.6,7.3,7.7,7.3s7.6-2.2,7.6-7.3v-3.5c0-5.1-3.6-7.3-7.6-7.3ZM229.7,81.3c0,2.5-1.2,3.5-3.8,3.5s-3.9-1-3.9-3.5v-3.5c0-2.5,1.3-3.5,3.9-3.5s3.8,1.1,3.8,3.5v3.5Z"/>
  <path class="st0" d="M254.3,68.6s-1.9,2.1-1.9,10,1.9,10,1.9,10h2.7s-1.9-2.9-1.9-10,1.9-10,1.9-10h-2.7Z"/>
  <polygon class="st3" points="268.7 71.3 272.7 71.3 272.7 68.6 262 68.6 262 71.3 266 71.3 266 88.6 268.7 88.6 268.7 71.3"/>
  <polygon class="st3" points="288.3 68.6 285.6 68.6 285.6 77.3 280.4 77.3 280.4 68.7 277.7 68.7 277.7 88.7 280.4 88.7 280.4 80 285.7 80 285.7 88.6 288.4 88.6 288.3 68.6"/>
  <path class="st3" d="M293.3,83.7c0,3.7,2.6,5.2,5.5,5.2s5.5-1.5,5.5-5.2v-15h-2.7v15c0,1.8-.9,2.5-2.8,2.5s-2.8-.7-2.8-2.5v-15h-2.7v15Z"/>
  <path class="st0" d="M309.3,68.6s1.9,2.9,1.9,10-1.9,10-1.9,10h2.7s1.9-2.2,1.9-10-1.9-10-1.9-10h-2.7Z"/>
  <path id="_パス_46517" data-name="パス_46517" class="st0" d="M165.2,30.4c-2.4-.3-4.6-1-6.7-2.2-2.1,1.2-4.3,1.9-6.7,2.2v2.2c2.3-.3,4.6-.9,6.7-1.9,2.1,1,4.4,1.6,6.7,1.9v-2.2ZM154.5,35.3h8v-2.2h-8v2.2ZM152.9,45c3.1,0,6.3-.2,9.4-.8l.2.8h2.2l-1-4.7h-2.2l.4,1.8c-2.1.4-4.3.6-6.5.7l1.8-3.8h7.5v-2.2h-12.2v2.2h2.4l-1.8,3.9v2.2ZM181.2,35.2v-6.2h-8.3v6.2h8.3ZM179,30.5v1h-3.9v-1h3.9ZM181.8,38.1v-2.2h-9.3v2.2h.7c.1,1.3-.1,2.6-.7,3.7v-2c-.3.1-.6.3-1,.4v-4.7h1v-2.2h-1v-2.2h-2.2v2.2h-.9v2.2h.9v5.1c-.3,0-.6,0-.9,0v2.2c1.3,0,2.7-.2,3.9-.8-.1.1-.2.3-.4.4l1.5,1.1c.8-.7,1.3-1.8,1.4-2.8h.5c0,1-.3,1.9-.9,2.7l1.2.9c.7-.8,1-1.7,1.1-3.6h.6c0,1.9-.2,2.5-.9,3.4l1.2.9c.8-.9,1.1-2,1.2-4.3h.8v1.2c0,.6-.2.9-.7.9v2.2c1.8,0,2.8-1,2.8-3.1v-3h-6.9c0-.3,0-.5,0-.8h6.8ZM179,32.7v1h-3.9v-1h3.9ZM191.5,45c1.2,0,2.3-.3,3.3-.8l-1.1-1.8c-.7.3-1.5.5-2.2.5-3.2,0-5-2.4-5-5.8s1.8-5.8,5-5.8,5,2.4,5,5.8-1.6,3.3-1.6,2.6v-6.6h-2.2v.4c-.4-.1-.8-.2-1.2-.2-2,0-3.4,1.5-3.4,3.8s1.4,3.8,3.4,3.8c.5,0,1,0,1.4-.3.9,2.6,5.7,2.6,5.7-3.5s-2.9-8-7.1-8-7.2,3.1-7.2,8,3,8,7.2,8ZM191.5,38.7c-.8,0-1.3-.7-1.3-1.7s.4-1.7,1.3-1.7,1.2.7,1.2,1.7-.4,1.7-1.2,1.7Z"/>
  <path id="_パス_46521" data-name="パス_46521" class="st3" d="M72.2,127.2v-22.4h-4.7v3h1.7v19.4h3ZM83.9,104.5c-3.2,0-6.1,1.7-6.1,5.8v1.5h3v-1.5c0-2,1-2.8,3.1-2.8s3.1.8,3.1,2.8c0,4.3-9.2,10.4-9.2,13.8v3h12.2v-3h-9.1c.9-3.1,9.1-8.5,9.1-13.8,0-4.1-2.9-5.8-6.1-5.8h0ZM95.6,113.4v3.7h3v-3.7h-3ZM95.6,123.5v3.6h3v-3.6h-3ZM110.4,104.5c-3.2,0-6.1,1.7-6.1,5.8v11.3c0,4.1,2.9,5.9,6.1,5.9s6.1-1.7,6.1-5.9v-11.3c0-4.1-2.9-5.8-6.1-5.8ZM113.5,121.6c0,2-1,2.8-3.1,2.8s-3.1-.9-3.1-2.8v-11.3c0-2,1-2.8,3.1-2.8s3.1.8,3.1,2.8v11.3ZM128.2,104.5c-3.2,0-6.1,1.7-6.1,5.8v11.3c0,4.1,2.9,5.9,6.1,5.9s6.1-1.7,6.1-5.9v-11.3c0-4.1-2.9-5.8-6.1-5.8ZM131.3,121.6c0,2-1,2.8-3.1,2.8s-3.1-.9-3.1-2.8v-11.3c0-2,1-2.8,3.1-2.8s3.1.8,3.1,2.8v11.3Z"/>
  <path id="_パス_46525" data-name="パス_46525" class="st3" d="M285.2,127.2v-22.4h-4.7v3h1.7v19.4h3ZM296.9,107.5c2.1,0,3.1.8,3.1,2.8h3c0-4.1-2.9-5.9-6.1-5.9s-6.1,1.7-6.1,5.9v11.3c0,4.1,2.9,5.9,6.1,5.9s6.1-1.7,6.1-5.9v-2.8c0-4.1-2.9-5.9-6.1-5.9-1.1,0-2.1.2-3.1.6v-3.2c0-2,1-2.8,3.1-2.8ZM296.9,115.9c2.1,0,3.1.9,3.1,2.8v2.8c0,2-1,2.8-3.1,2.8s-3.1-.8-3.1-2.8v-2.8c0-2,1-2.8,3.1-2.8ZM308.6,113.4v3.7h3v-3.7h-3ZM308.6,123.5v3.6h3v-3.6h-3ZM323.4,104.5c-3.2,0-6.1,1.7-6.1,5.8v11.3c0,4.1,2.9,5.9,6.1,5.9s6.1-1.7,6.1-5.9v-11.3c0-4.1-2.9-5.8-6.1-5.8h0ZM326.5,121.6c0,2-1,2.8-3.1,2.8s-3.1-.9-3.1-2.8v-11.3c0-2,1-2.8,3.1-2.8s3.1.8,3.1,2.8v11.3ZM341.2,104.5c-3.2,0-6.1,1.7-6.1,5.8v11.3c0,4.1,2.9,5.9,6.1,5.9s6.1-1.7,6.1-5.9v-11.3c0-4.1-2.9-5.8-6.1-5.8ZM344.3,121.6c0,2-1,2.8-3.1,2.8s-3.1-.9-3.1-2.8v-11.3c0-2,1-2.8,3.1-2.8s3.1.8,3.1,2.8v11.3Z"/>
  <path id="_パス_46522" data-name="パス_46522" class="st0" d="M35.6,117.9v-6.3h-6.3v16h2.2v-9.7h4.1ZM40.5,117.9v6.2c0,1.1-.4,1.4-1.1,1.4v2.2c2.2,0,3.3-1,3.3-3.5v-12.5h-6.3v6.3h4.1ZM33.4,113.3v.8h-2v-.8h2ZM40.5,113.3v.8h-2v-.8h2ZM33.4,115.4v.8h-2v-.8h2ZM40.5,115.4v.8h-2v-.8h2ZM39.6,119h-7.1v1.9h1c0,.4,0,.7,0,1h-1v1.9h.7c-.2.6-.6,1.2-1.1,1.6l1.7,1.4c.9-.8,1.4-1.9,1.7-3h1v3h2.2v-3h1v-1.9h-1v-1h1v-1.9ZM35.6,121.9c0-.3,0-.7,0-1h.8v1h-.8ZM58.1,117.8v-6.2h-8.3v6.2h8.3ZM55.9,113.1v1h-3.9v-1h3.9ZM58.7,120.7v-2.2h-9.3v2.2h.7c.1,1.3-.1,2.6-.7,3.7v-2c-.3.1-.6.3-1,.4v-4.7h1v-2.2h-1v-2.2h-2.2v2.2h-.9v2.2h.9v5.1c-.3,0-.6,0-.9,0v2.2c1.3,0,2.7-.2,3.9-.8-.1.1-.2.3-.4.4l1.5,1.1c.8-.7,1.3-1.8,1.4-2.8h.5c0,1-.3,1.9-.9,2.7l1.2.9c.7-.8,1-1.7,1.1-3.6h.6c0,1.9-.2,2.5-.9,3.4l1.2.9c.8-.9,1.1-2,1.2-4.3h.8v1.2c0,.6-.2.9-.7.9v2.2c1.8,0,2.8-1,2.8-3.1v-3h-6.9c0-.3,0-.5,0-.8h6.8ZM55.9,115.3v1h-3.9v-1h3.9Z"/>
  <path id="_パス_46347" data-name="パス_46347" class="st0" d="M272,117.3h-16.5v-3h16.5v3Z"/>
  <path id="_パス_46524" data-name="パス_46524" class="st0" d="M164.2,104.5c-2.2.3-4.5.4-6.7.4v1.4c2.2,0,4.5,0,6.7-.4v-1.4ZM162.8,106.5l-.3,1.1h-.9l-.2-1.1h-1.4l.2,1.1h-1l-.2-1.1h-1.4l.2,1.1h-1.2v2.4h1.4v-1h5.9v1h1.4v-2.4h-1.2l.2-1.1h-1.4ZM157.2,115.2c1.3,0,2.5-.4,3.6-1,1.1.5,2.3.9,3.5,1l.3-1.4c-.9,0-1.7-.3-2.5-.6.7-.6,1.1-1.5,1.2-2.4v-1.4h-5v1.4h3.6c-.1.7-.5,1.4-1.1,1.7-.6-.4-1.1-.8-1.6-1.2l-1,.9c.4.4.8.7,1.2,1.1-.7.3-1.5.4-2.3.5l.2,1.4ZM173.3,104.5v1.3h-3.2v1.4h3.2v5.7c0,.7-.2.9-.7.9h-1.4v1.4h1.4c1.4,0,2.1-.7,2.1-2.3v-5.7h.8v-1.4h-.8v-1.3h-1.4ZM168,115.2h1.4v-5.9h-.4c.6-1.2.8-2.5.8-3.8h-1.4c0,1.9-.6,3.5-1.5,4.2v1.9c.4-.3.8-.6,1.2-1v4.5ZM170.4,108.9l.3,2.6h1.4l-.3-2.6h-1.4ZM160.5,120.9v-4.1h-4.1v10.4h1.4v-6.3h2.7ZM163.8,120.9v4c0,.7-.2.9-.7.9v1.4c1.4,0,2.1-.7,2.1-2.3v-8.1h-4.1v4.1h2.7ZM159.1,117.9v.5h-1.3v-.5h1.3ZM163.8,117.9v.5h-1.3v-.5h1.3ZM159.1,119.2v.5h-1.3v-.5h1.3ZM163.8,119.2v.5h-1.3v-.5h1.3ZM163.1,121.6h-4.6v1.2h.6c0,.2,0,.5,0,.7h-.6v1.2h.5c-.2.4-.4.8-.7,1.1l1.1.9c.6-.5.9-1.2,1.1-2h.7v1.9h1.4v-1.9h.6v-1.2h-.6v-.7h.6v-1.2ZM160.5,123.5c0-.2,0-.4,0-.7h.5v.7h-.5ZM173.6,117.9l.2,1.5c-.5.1-1.1.2-1.6.3l.9-2.9-1.3-.4-1.1,3.4v1.4c1.1,0,2.3-.1,3.4-.4v.4h1.5l-.5-3.3h-1.4ZM170.3,118.2h-1.9v-.7h-1.3v.7h-.3v1.4h.3v5.5h1.3c0,.3-.2.7-.4,1l1.2.4c.2-.4.4-.9.5-1.4h.6v-1.4h-.4c.2-1.4.3-2.8.2-4.1v-1.4ZM168.4,123.7v-4.1h.6c0,1.4,0,2.8-.3,4.1h-.3ZM170.7,121.7v5.5h4.6v-5.5h-4.6ZM172.1,125.8v-2.7h1.8v2.7h-1.8Z"/>
  <path id="_パス_46523" data-name="パス_46523" class="st3" d="M186.6,125.9v-19.2h-4v2.6h1.4v16.6h2.6ZM195.2,125.9v-19.2h-4v2.6h1.4v16.6h2.6ZM200,114.1v3.1h2.6v-3.1h-2.6ZM200,122.8v3.1h2.6v-3.1h-2.6ZM212.6,106.4c-2.8,0-5.3,1.5-5.3,5v.9h2.6v-.9c0-1.7.9-2.4,2.7-2.4s2.6.7,2.6,2.4v1.1c0,1.7-.8,2.4-2.6,2.4h-1.4v2.6h1.4c1.8,0,2.6.7,2.6,2.4v1.1c0,1.7-.8,2.4-2.6,2.4s-2.7-.7-2.7-2.4v-1h-2.6v1c0,3.5,2.5,5,5.3,5s5.2-1.5,5.2-5v-1.1c0-1.4-.5-2.7-1.5-3.7,1-1,1.5-2.3,1.5-3.7v-1.1c0-3.5-2.5-5-5.2-5ZM227.9,106.4c-2.8,0-5.3,1.5-5.3,5v9.7c0,3.5,2.5,5,5.3,5s5.2-1.5,5.2-5v-9.7c0-3.5-2.5-5-5.2-5ZM230.6,121.1c0,1.7-.8,2.4-2.6,2.4s-2.7-.7-2.7-2.4v-9.7c0-1.7.9-2.4,2.7-2.4s2.6.7,2.6,2.4v9.7Z"/>
  <path class="st0" d="M150,126.8h-2.5v-21h2.5c.6,0,1-.4,1-1s-.4-1-1-1h-3.5s0,0,0,0c-.6,0-1,.4-1,1v23c0,.6.4,1,1,1h0c0,0,.1,0,.2,0h3.3c.6,0,1-.4,1-1s-.4-1-1-1Z"/>
  <path class="st0" d="M243,103.8h0c0,0-.1,0-.2,0h-3.3c-.6,0-1,.4-1,1s.4,1,1,1h2.5v21h-2.5c-.6,0-1,.4-1,1s.4,1,1,1h3.5s0,0,0,0c.6,0,1-.4,1-1v-23c0-.6-.4-1-1-1Z"/>
  <path id="_パス_46518" data-name="パス_46518" class="st3" d="M219.8,28.6v1.5h-2.7v8.4l-1.5-1.4c.8-1.5,1.1-3.2,1.1-4.9v-2.2h-1.7v-1.5h-2.2v1.5h-1.7v2.2h3.3c0,2.2-.6,4.8-3.3,6.3v2.5c.7-.3,1.3-.7,1.9-1.1v5.1h2.2v-5.2l.8.7,1-1.1v1.7h2.7v4h2.2v-4h2.7v-10.9h-2.7v-1.5h-2.2ZM219.3,34.7v-2.4h.9v2.4h-.9ZM222.4,34.7h-.9v-2.4h.9v2.4ZM219.3,38.9v-2.4h.9v2.4h-.9ZM221.6,38.9v-2.4h.9v2.4h-.9ZM240,31.2v-2.2h-13.4v2.2h13.4ZM228.7,45s.3-1.7.4-5.1h10.8v-7.8h-12.8c0,4.2-.1,8.4-.6,12.5l2.1.3ZM237.8,34.3v3.4h-8.6c0-1,0-2.2,0-3.4h8.5ZM247.1,38v-4.7h2.7v3.7c0,3.5-1.4,5.1-4.2,6l.9,2c2.9-.9,5.5-3.2,5.5-8v-3.7h1.8v-2.2h-1.8v-1.1h-2.2v1.1h-2.7v-1.1h-2.2v1.1h-1.8v2.2h1.8v4.7h2.2ZM258.4,31.2l-1.5,1.5,3.1,3.2,1.5-1.5-3.1-3.2ZM265.8,33.8c-1.5,4.6-3.6,7.2-8.4,9.4l1.1,1.9c4.6-1.7,8.1-5.6,9.2-10.4l-2-.8ZM278,28.9v2.6h1.2v-2.6h-1.2ZM279.8,28.9v2.6h1.2v-2.6h-1.2ZM274.6,40.5c0,1.9,0,2.3-.9,2.3v2.2c2.9,0,3-1.1,3-4.1v-6.4h3.5v-2.2h-3.5v-2.2h-2.2v2.2h-3.5v2.2h3.5v6.1ZM271.2,37.4c0,1.8-.5,3.6-1.7,5.1l1.9,1c1.4-1.7,2.1-3.9,2-6.1h-2.2ZM279.1,43.5l2.1-.4-1.1-5.7-2.1.4,1.2,5.7ZM285.1,38.7h8.3v-2.2h-8.3v2.2ZM304,32.3v-2.2h-2.2v2.2h-3.5v2.2h3.5v6.1c0,1.9,0,2.3-.9,2.3v2.2c2.9,0,3-1.1,3-4.1v-6.5h3.5v-2.2h-3.5ZM298.4,37.4c0,1.8-.5,3.6-1.7,5.1l1.9,1c1.4-1.7,2.1-3.9,1.9-6.1h-2.2ZM307.3,37.4l-2.1.4,1.2,5.7,2.1-.4-1.2-5.7ZM312.3,38.7h8.3v-2.2h-8.3v2.2ZM332.9,31.2h-2.2v13.8c3-.2,4.6-1.8,6-3.7l-1.7-1.3c-.5.9-1.2,1.6-2.1,2.2v-11ZM326.8,34.5c0,4.1,0,6-2.2,9.3l1.8,1.2c2.2-3.3,2.6-5.5,2.6-10.5h-2.2ZM342.4,45v-16h-3.3v2.2h1.2v13.8h2.2ZM354.4,29h-8.5v16h2.2v-7.2h6v-2.2h-6v-4.5h6.4v-2.2Z"/>
  <path class="st2" d="M10,0h353c5.5,0,10,4.5,10,10v130c0,5.5-4.5,10-10,10H10c-5.5,0-10-4.5-10-10V10C0,4.5,4.5,0,10,0Z"/>
</svg>