<?xml version="1.0" encoding="UTF-8"?>
<svg id="_レイヤー_1" data-name="レイヤー_1" xmlns="http://www.w3.org/2000/svg" version="1.1" viewBox="0 0 217.9 30.3">
  <!-- Generator: Adobe Illustrator 29.1.0, SVG Export Plug-In . SVG Version: 2.1.0 Build 142)  -->
  <defs>
    <style>
      .st0 {
        fill: #25aa39;
      }

      .st1 {
        fill: #fff;
      }
    </style>
  </defs>
  <path id="_パス_46517" data-name="パス_46517" class="st0" d="M117,29.8v-6.8l1.3,1.2,1.8-2-2.7-2.5c1.1-1.8,1.6-3.8,1.6-5.9v-2.7h-2.5v-1.9h-2.7v1.9h-2.4v2.7h4.9c0,3.3-2,6.3-4.9,7.8v3.2c1-.5,2-1,2.9-1.7v6.6h2.7ZM122.3,9.3v6.4h-2.6v2.7h2.6v8.6h-3.1v2.7h8.9v-2.7h-3.1v-8.6h3.1v-2.7h-3.1v-6.4h-2.7ZM145.1,15.8v-2.7h-1.3v2.7h1.3ZM146.9,15.8v-2.7h-1.3v2.7h1.3ZM137.7,13.8h-2.3v4c-1.2.1-2.1.3-2.1.3l.5,2.2s.7-.1,1.6-.3v4.8h2.3v-4.9c4,0,2.5,4.7,0,8.1l1.8,1.4c5.8-8.1,2.3-11.7-1.7-11.8v-3.9ZM143.2,21.3l2.1-.8-2-5.1-2.1.8,2,5.1ZM151.6,29.8c3.1-2,5.5-4.9,6.8-8.4,1.3,3.4,3.7,6.4,6.8,8.4l1.6-2.2c-4.8-3.6-6.7-7.5-7-12.4h7v-2.7h-7v-3.2h-2.7v3.2h-7v2.7h7c-.3,4.9-2.2,8.8-7,12.4l1.5,2.2ZM187.8,22.5h-6.8v-.8h6.5v-2.7h-5.4v-.9h4.6v-1.6h-4.6v-.9h4.6v-1.6h-4.6v-.9h5.4v-2.7h-5.1l.3-1.4h-2.8l-.3,1.4h-4.4c0-.4,0-.9,0-1.4h-2.7c0,1.7-.3,3.4-2.1,4.5l1.2,2.6.4-.2v5.8h6.1v.8h-6.8v2.7h4.6c-1.4,1.1-3.1,1.7-4.8,1.9l.7,2.6c2.4-.1,4.7-1.1,6.4-2.8v2.8h2.7v-2.8c1.7,1.7,4,2.7,6.4,2.8l.7-2.6c-1.8-.2-3.4-.8-4.8-1.9h4.6v-2.7ZM174.9,14.2v-.9h4.6v.9h-4.6ZM174.9,16.6v-.9h4.6v.9h-4.6ZM174.9,19.1v-.9h4.6v.9h-4.6ZM192.6,14.2c2.9-.3,5.7-1.1,8.4-2.3,2.6,1.2,5.5,2,8.4,2.3v-2.7c-2.9-.3-5.8-1.2-8.4-2.7-2.6,1.5-5.4,2.4-8.4,2.7v2.7ZM196,17.3h10v-2.7h-10v2.7ZM208.3,29.8v-10.8h-14.8v10.8h14.8ZM205.6,21.7v5.3h-9.4v-5.3h9.4ZM217.9,9.8h-3.2l.2,14.2h2.7l.2-14.2ZM215,29.8h2.7v-3.2h-2.7v3.2Z"/>
  <path id="_パス_46515" data-name="パス_46515" class="st0" d="M7,7.5v-1.2H1.8v-.7c1.4,0,2.7-.2,4-.6v-1.2c-1.7.5-3.4.7-5.2.6v5.1H0v1.2h1.4C1.1,11.3.6,11.7,0,11.8l.3,1.1c1-.1,1.9-.8,2.2-1.8l-.7-.3h3.7l-.7.3c.3,1,1.2,1.7,2.2,1.8l.3-1.1c-.6,0-1.1-.4-1.4-1h1.4v-1.2h-1v-2.1h.7ZM1.8,9.6v-2.1h3.3v2.1H1.8ZM12.2,3.9v.8h-3c0,2,0,4.1-.3,6.1l1.2.2c.3-1.7.4-3.4.4-5.1h2.3v.4h-2.2v1h2.2v.4h-2.3v3.3h2.3v.4h-2v1h2v.5h1.2v-.5h2v-1h-2v-.4h2.3v-3.3h-2.3v-.4h2v-1h-2v-.4h2.3v-1.2h-2.8v-.8h-1.2ZM11.5,9v-.4h1.1v.4h-1.1ZM15,8.6v.4h-1.1v-.4h1.1ZM11.5,10v-.4h1.1v.4h-1.1ZM15,9.7v.4h-1.1v-.4h1.1ZM22,9c.1.2.2.5.3.7l1.1-.5c0-.3-.2-.6-.3-.8.2-.1.5-.2.7-.3l-.4-1.1c-.4.2-.7.3-1.1.5-.4-.3-.8-.4-1.2-.5v-.5h1v-1.2h-1v-.6h-1.2v.6h-1v1.2h1v1.7c.4-.1.8-.1,1.3,0-3.2,2.5-1.1,5.7,2.4,4.4l-.3-1.2c-2.1.9-3.6-.7-1.3-2.4h0ZM30,4.1c0,.8,0,1.6,0,2.3h-1.4v1.3h1.5c0,1.9,1,3.8,2.5,5.2l.9-.8c-1.3-1.2-2.1-2.8-2.2-4.6l2.2-.2v-1.2l-2.3.2c0-.6,0-1.4,0-2.2h-1.2ZM31.8,4.1v1.7h1.3v-1.7h-1.3ZM27.5,4.7c.1,1.3-.3,2.6-1.3,3.5v1.6c.4-.2.7-.5,1-.8v3.8h1.2v-5h-.4c.5-1,.7-2.1.7-3.2h-1.2ZM41.9,7.7v-1.2h-2.7v-.6h2.9v-1.2h-2.9v-.9h-1.2v.9h-2.9v1.2h2.9v.6h-2.7v1.2h2.7v.6h-3.1v1.2h1.7c-.5.3-1.1.5-1.7.6l.3,1.2c.4,0,.8-.2,1.2-.4v.7c-.4,0-.7,0-1.2,0v1.2c1.2,0,2.5-.1,3.7-.3v-1.2s-.5.1-1.3.2v-1.2c.3-.2.6-.5.9-.8h.1c.5,1.6,1.7,2.8,3.2,3.3l.4-1.1c-.3-.1-.5-.2-.7-.4l.7-.7-.8-.9-.8.8c-.3-.3-.6-.7-.7-1.1h2.4v-1.2h-3.1v-.6h2.7ZM47.7,7.8c-1.2,0-2.1.6-2.1,1.6s.6,1.6,1.9,1.6c0,.5-.3.9-.5,1.3l1,.6c.7-1.1,1-2.3.9-3.5v-2.9h1.1v-1.2h-1.1v-.6h-1.2v.6h-2.8v1.2h2.8v1.3ZM47.2,9.8c-.2,0-.4-.2-.4-.4,0-.2.2-.4.4-.4.2,0,.4.2.4.4,0,.2-.2.4-.4.4h0ZM57.4,4.7h-3.3v1.2h1.7l-.9,3.2c1.5,0,2.2.5,2.2,1.4,0,.5-.2.9-.6,1.1,0-.6-.3-1.2-.9-1.5-.7-.3-1.5.1-1.8.8,0,0,0,0,0,0-.2.4,0,.9.2,1.3.5.5,1.2.7,1.9.7,1.3,0,2.4-.9,2.4-2.2,0,0,0-.2,0-.3,0-1.1-.8-2.1-1.9-2.4l.9-3.4ZM55.4,11.5c0,.2-.3.3-.4.2,0,0,0,0,0,0-.2,0-.3-.3-.2-.4,0,0,0,0,0,0,0-.2.3-.3.4-.2,0,0,0,0,0,0,.2,0,.3.3.2.4ZM4.5,16.9v1.1H.3v7.6h4.2v3.6h1.6v-3.6h4.2v-7.6h-4.2v-1.1h-1.6ZM1.9,23.9v-4.3h2.6v4.3H1.9ZM8.7,23.9h-2.6v-4.3h2.6v4.3ZM18.1,17.2h-1.6v9.4c0,.8-.3,1-.8,1h-.5v1.6h.5c1.6,0,2.5-.8,2.5-2.6v-9.4ZM13.2,20.5c0,3.2-.1,4.4-.9,5.7l1.4.8c.9-1.6,1.1-3,1.1-6.5h-1.6ZM19.8,20.5c0,3.6.2,4.9,1.1,6.5l1.4-.8c-.8-1.3-.9-2.5-.9-5.7h-1.6ZM24.3,19.8c1.7-.2,3.4-.7,5-1.4,1.6.7,3.3,1.2,5,1.4v-1.6c-1.8-.2-3.5-.7-5-1.6-1.5.9-3.3,1.4-5,1.6v1.6ZM33.9,24.3v-1.6h-3.3v-2.7h-1.6v7.6h-1.6v-4.9h-1.6v4.9h-1.4v1.6h10.1v-1.6h-3.8v-3.2h3.3ZM46.3,18h-.7l.2-1.1h-1.7l-.2,1.1h-.6v-1.1h-1.6v1.1h-.9v-1.1h-1.6v1.1h-.6l-.3-1.1h-1.7l.3,1.1h-.7v1.6h1.5v1.3h-1.5v1.6h4.2v.6h-3.8v1.2h3.8v.6h-4.1v1.6h2.5c-.8.5-1.7.9-2.7,1l.4,1.6c1.4,0,2.8-.7,3.8-1.7v1.7h1.6v-1.7c1,1,2.4,1.6,3.8,1.7l.4-1.6c-1,0-1.9-.4-2.7-1h2.5v-1.6h-4.1v-.6h3.8v-1.2h-3.8v-.6h4.2v-1.6h-1.5v-1.3h1.5v-1.6ZM39.4,20.9v-1.3h3.8v1.3h-3.8Z"/>
  <path id="_パス_46516" data-name="パス_46516" class="st1" d="M80.8,5.3h-4v14.5h-5.6L76.4.4h-4.1l-5.1,19.4v4h9.7v6.2h4v-6.2h2.5v-4h-2.5V5.3ZM94.4,0C90.1,0,86.3,2.3,86.3,7.7v14.9c0,5.4,3.8,7.7,8.1,7.7s8.1-2.3,8.1-7.7V7.7C102.4,2.3,98.6,0,94.4,0ZM98.4,22.6c0,2.6-1.3,3.7-4.1,3.7s-4.1-1.1-4.1-3.7V7.7c0-2.6,1.3-3.7,4.1-3.7s4.1,1.1,4.1,3.7v14.9Z"/>
</svg>