<?xml version="1.0" encoding="UTF-8"?>
<svg id="_レイヤー_1" data-name="レイヤー_1" xmlns="http://www.w3.org/2000/svg" version="1.1" viewBox="0 0 456.3 313.2">
  <!-- Generator: Adobe Illustrator 29.1.0, SVG Export Plug-In . SVG Version: 2.1.0 Build 142)  -->
  <defs>
    <style>
      .st0 {
        fill: #25aa39;
      }

      .st1 {
        fill: #fff;
      }

      .st2 {
        fill: none;
      }

      .st3 {
        fill: #243f7e;
      }
    </style>
  </defs>
  <path id="_パス_46311" data-name="パス_46311" class="st0" d="M35.2,14l18.8,9-4.3,8.9-6.7-3.2c1,4.9,1.5,10,1.5,15,0,19.8-9.2,27-19.4,27s-21.7-2.1-21.7-21.3,4.3-26.2,6.8-32.1H.7V7.3h20.4v9.9s-7.7,14.6-7.7,32.1,5,11.4,11.8,11.4,9.5-6.9,9.5-17.1-3.7-20.8-3.7-20.8l4.3-8.9Z"/>
  <path id="_パス_46312" data-name="パス_46312" class="st3" d="M82.9,18.2v8.9h10.3v8.9h-10.3v12.6h8.5v8.9h-8.5c0,4.8-.9,13.2-11,13.2s-11.1-5.4-11.1-10.3,3.5-11.7,13.2-11.7v-30.3h8.9ZM74.5,57c-3.6,0-5.2.9-5.2,2.8,0,1.2.9,2.3,2.2,2.3.1,0,.2,0,.3,0,2.5,0,2.7-2,2.7-5.1"/>
  <path id="_パス_46313" data-name="パス_46313" class="st0" d="M133.9,72l-11-3.8c10.8-12.6,20.4-32.6,5.1-34.7-7.7-1.1-16.4,3-16.4,3l-2.2-9.1s9.1-3.6,18.5-3.3c20.6.6,28.8,19,6,47.8M141.1,9l-.7,9.9-23.7-1.7.7-9.8,23.7,1.6Z"/>
  <path id="_パス_46314" data-name="パス_46314" class="st3" d="M171.6,53.2c0,6.9,1.9,7.6,10.5,7.6,15.5,0,21.6-1.2,21.6-1.2v9.9c-7.7.8-15.4,1.2-23.1,1.2-14.3,0-17.9-6.2-18.9-17.5h9.9ZM167,21.9v-9.9h14.5c5,0,9,.5,11.9,1.7V4.3h5.7v11.8h-2.3c2.6,2.7,3.7,6.9,3.7,13.5h-9.9c0-6.9-1.9-7.7-10.5-7.7h-13.1ZM201.8,4.3h5.7v11.8h-5.7V4.3Z"/>
  <path id="_パス_46315" data-name="パス_46315" class="st0" d="M240.9,174.5v-24h-9.3v-11.1h9.3v-5.6h11.1v5.6h14.1v-5.6h11.2v5.6h9.2v11.1h-9.2v19c0,24.9-13.5,36.8-28.4,41.3l-4.7-10.1c14.4-4.7,21.9-13.3,21.9-31.2v-19h-14.1v24h-11.1Z"/>
  <path id="_パス_46316" data-name="パス_46316" class="st3" d="M294.4,200l2.6-10.8,45.6,10.7-2.6,10.8-45.6-10.7ZM302.1,136.3l35.5,8.4-2.6,10.8-35.5-8.4,2.6-10.8ZM300.9,174.5l2.6-10.9,32.6,7.7-2.6,10.8-32.6-7.6Z"/>
  <path id="_パス_46317" data-name="パス_46317" class="st0" d="M366.3,168.3h-11.1v-20.5h11.1v20.5ZM364.9,202.8c18.7-16.1,21.8-30.4,22.6-42.7h11c0,16.6-7.6,34.7-25.8,50.7l-7.8-7.9ZM381.6,168.3h-11.1v-20.5h11.1v20.5Z"/>
  <path id="_パス_46318" data-name="パス_46318" class="st3" d="M415.9,133.8h11.1v26.8l23.5,6.1-2.8,10.8-20.7-5.4v38.6h-11.1v-77h0Z"/>
  <path id="_パス_46319" data-name="パス_46319" class="st0" d="M98.1,212.8c-15.3-.4-22.2-8.1-22.2-25.1v-7.9l-2.2-.2c-2.3,11.6-6.5,22.7-12.4,33l-12.9-5.2c13-23.1,15.7-44.6,16.6-80.8v-1.1s-7.9,0-7.9,0v-13.9h8.1v-1.1c0-2.9,0-5.8,0-8.9,0-2.9,0-6,0-9.2h13.9c0,3.1,0,6.1,0,9,0,3.1,0,6.1,0,9v1.1h10.2l-2.7-16.2h7.5l2.7,16.2h1v13.9h-19v1.1c-.2,6.8-.5,13.2-.8,18.4v1.2c0,0,11.8,0,11.8,0v41.7c0,7.4,2.5,10.7,8.2,11.1v14ZM15.4,198.8c3.3-.7,3.6-4.5,3.6-8v-19.4H0v-44.8h50.3v44.8h-19v19.4c0,13.8-5.6,21.5-15.9,22.1v-14ZM14.1,157.3h22.3v-16.7H14.1v16.7ZM.2,200.4c1.7-6.8,2.5-13.8,2.4-20.8h10.5c.3,8.3-.7,16.5-2.9,24.5l-9.9-3.7ZM40.2,201.7c-2.9-9.2-2.9-14.7-2.9-22.1h10.5c-.2,6.2.6,12.4,2.3,18.4l-9.9,3.7ZM0,117.4v-13.9h18.1v-11.1h14.1v11.1h18.1v13.9H0Z"/>
  <path id="_パス_46320" data-name="パス_46320" class="st3" d="M129.9,212.9v-11.2l-1.4.5c-3.6,1.2-9.8,2.5-19.1,2.6v-13.9h3v-81.5h-3v-13.9h33v8.1h14v-11.1h13.9v11.1h12v13.9h-4.5v21.7h9.3v-46.7h11v46.7h9.3v13.9h-9v1.1c0,10.6.3,19.8,2,29.7l.3,2,1.5-1.3c.9-.8,1.8-1.7,2.7-2.7l2.4,11.7c-1.2,1.2-2.2,2.2-3.4,3.3l-.5.5.2.7c.9,3,2,6.4,3.5,10.5l-12.3,4.2c-.4-1.2-.8-2.3-1.2-3.5-.3-.8-.5-1.5-.8-2.2l-.4-1.3-1.2.7c-4.7,2.8-9.7,4.9-15,6.3l-2.3-9h-26.7v-42.4h32.8v37.5l1.5-.6c2.5-.9,4.9-2,7.2-3.4l.7-.4-.2-.8c-2.9-13.9-3.1-27.1-3.1-39.4v-1.1h-41.9v-13.9h4.5v-21.7h-4.5v-8.1h-4.9v103.6h-9.5ZM157.6,194.1h12.1v-9.9h-12.1v9.9ZM121.9,189.7l1.3-.3c1.8-.4,3.4-.8,4.8-1.2l1.9-.5v-14.8h-8.1v16.8ZM157.6,180.5h12.1v-9.9h-12.1v9.9ZM121.9,158.9h8.1v-17.8h-8.1s0,17.8,0,17.8ZM158.2,139h10.1v-21.7h-10.2v21.7ZM121.9,127.2h8.1v-17.9h-8.1s0,17.9,0,17.9ZM201.6,130.1l-1.2-25h5.8l1.2,25h-5.8Z"/>
  <path id="_パス_46321" data-name="パス_46321" class="st0" d="M0,312.3v-9.9c0-5.4,6.7-12.6,13.8-20.3,7.9-8.5,16-17.2,16-24.4s-3-8.9-9.8-8.9-9.9,2.7-9.9,8.9v5H0v-5c0-14,10.3-19,20-19s19.9,5,19.9,19-9.7,21-18.3,30.1c-4.5,4.8-8.7,9.3-10.5,12.9l-.7,1.5h29.5v10.1H0Z"/>
  <path id="_パス_46322" data-name="パス_46322" class="st3" d="M75.3,313.2c-9.6,0-20-5-20-19v-36.4c0-14,10.3-19,20-19s19.9,5,19.9,19v36.4c0,14-10.3,19-19.9,19M75.3,248.9c-6.8,0-9.9,2.7-9.9,8.9v36.4c0,6.1,3.1,9,9.9,9s9.8-2.8,9.8-9v-36.4c0-6.1-3-8.9-9.8-8.9"/>
  <path id="_パス_46323" data-name="パス_46323" class="st0" d="M110.6,312.3v-9.9c0-5.4,6.7-12.6,13.8-20.3,7.9-8.5,16-17.2,16-24.4s-3-8.9-9.8-8.9-9.9,2.7-9.9,8.9v5h-10.1v-5c0-14,10.3-19,20-19s19.9,5,19.9,19-9.7,21-18.3,30.1c-4.5,4.8-8.7,9.3-10.5,12.9l-.7,1.5h29.5v10.1h-39.8Z"/>
  <path id="_パス_46324" data-name="パス_46324" class="st3" d="M185.5,313.2c-9.6,0-20-5-20-19v-36.3c0-14,10.3-19,20-19s19.9,5,19.9,19v.2h-10.1v-.2c0-6.2-3-9-9.8-9s-9.9,2.8-9.9,9v10.1l1.4-.5c2.7-1,5.6-1.4,8.5-1.4,9.6,0,19.9,5,19.9,19v9.1c0,14-10.3,19-19.9,19M185.5,276.1c-6.7,0-9.9,2.9-9.9,9v9.1c0,6.2,3,9,9.9,9s9.8-2.8,9.8-9v-9.1c0-6.2-3-9-9.8-9"/>
  <path id="_パス_46343" data-name="パス_46343" class="st2" d="M0,4.3h453.8v309H0V4.3Z"/>
  <path id="_長方形_8047" data-name="長方形_8047" class="st3" d="M234.3,3h218c2.2,0,4,1.8,4,4v67c0,2.2-1.8,4-4,4h-218c-2.2,0-4-1.8-4-4V7c0-2.2,1.8-4,4-4Z"/>
  <path class="st1" d="M311.7,64v-8c-1,.8-2.2,1.4-3.5,2v-3.8c4.1-2.2,5.9-6.1,5.9-9.4h-5.9v-3.2h2.9v-2.2h3.2v2.2h3v3.2c0,1.9-.4,4.5-2,7l3.2,3-2.2,2.4-1.5-1.4v8.1s-3.2,0-3.2,0ZM324.6,39.4v7.7h3.8v3.2h-3.8v10.4h3.8v3.2h-10.7v-3.2h3.8v-10.4h-3.1v-3.2h3.1v-7.7s3.2,0,3.2,0Z"/>
  <path class="st0" d="M339.4,51.1c4.5,0,8.6,4.2,1.9,13.5l-2-1.6c2.9-3.9,4.7-9.2,0-9.3v5.6h-2.6v-5.4c-1.1.1-1.8.3-1.8.3l-.6-2.5s1-.2,2.4-.4v-4.6h2.6v4.4h0ZM343.4,49.4l2.4-1,2.3,5.8-2.4,1-2.3-5.8ZM346.3,48.9v-3.1h1.5v3.1h-1.5ZM348.4,48.9v-3.1h1.5v3.1h-1.5Z"/>
  <path class="st1" d="M353.6,61.3c5.7-4.3,8-9,8.4-14.9h-8.4v-3.2h8.4v-3.8h3.2v3.8h8.5v3.2h-8.4c.4,5.9,2.6,10.6,8.4,14.9l-1.9,2.6c-3.9-2.6-6.6-6-8.2-10-1.6,4-4.3,7.4-8.2,10l-1.9-2.6Z"/>
  <path class="st1" d="M398.9,58.5h-5.5c2.5,2,5.8,2.3,5.8,2.3l-.8,3.1s-4.4,0-7.6-3.3v3.3h-3.2v-3.3c-3.3,3.3-7.6,3.3-7.6,3.3l-.8-3.1s3.4-.3,5.8-2.3h-5.5v-3.2h8.1v-.9h-7.4v-6.9l-.5.3-1.4-3.1c2.1-1.3,2.5-3.3,2.5-5.4h3.2c0,.5,0,1.1,0,1.6h5.2l.4-1.6h3.3l-.4,1.6h6.1v3.2h-6.4v1.1h5.5v1.9h-5.5v1.1h5.5v1.9h-5.5v1.1h6.4v3.2h-7.8v.9h8.1v3.2h0ZM389,45.3v-1h-5.5v1.1h5.5ZM389,48.2v-1.1h-5.5v1.1h5.5ZM389,51.2v-1.1h-5.5v1.1h5.5Z"/>
  <path class="st1" d="M404.6,42c6.3-.8,10-3.2,10-3.2,0,0,3.8,2.4,10,3.2v3.2c-5.1-.6-8.4-2-10-2.8-1.7.8-5,2.2-10,2.8v-3.2ZM405.8,64v-12.9h17.7v12.9h-17.7ZM408.7,45.8h12v3.2h-12v-3.2ZM409.1,54.3v6.4h11.2v-6.4h-11.2Z"/>
  <path class="st0" d="M434.7,57h-3.2l-.3-17.1h3.8l-.3,17.1ZM431.5,60.1h3.2v3.9h-3.2v-3.9Z"/>
  <path class="st0" d="M315.9,23.6v2.9h1.4v1.6h-1.9c.3.7.9,1.1,1.9,1.3l-.5,1.6c-1.8-.3-2.5-1.2-3-2.5l1-.4h-5l1,.4c-.5,1.3-1.2,2.2-3,2.5l-.4-1.6c1-.2,1.6-.6,1.9-1.3h-1.9v-1.6h.9v-7c4.9,0,7.1-.8,7.1-.8v1.6s-1.5.6-5.5.8v.9h7.1v1.6h-1ZM314.3,26.5v-2.9h-4.5v2.9s4.5,0,4.5,0Z"/>
  <path class="st0" d="M325.4,18.7v1.1h3.9v1.6h-3.2v.6h2.7v1.3h-2.7v.5h3.2v4.5h-3.2v.6h2.7v1.3h-2.7v.7h-1.6v-.7h-2.7v-1.3h2.7v-.6h-3.2v-4.5h3.2v-.5h-3v-1.3h3v-.6h-3.2c0,4.9-.5,6.9-.5,6.9l-1.6-.3s.4-2.4.4-8.3h4.1v-1.1h1.6ZM324.5,25.6v-.5h-1.5v.5h1.5ZM324.5,27.1v-.5h-1.5v.5h1.5ZM326.1,25.2v.5h1.5v-.5h-1.5ZM326.1,26.6v.5h1.5v-.5h-1.5Z"/>
  <path class="st0" d="M338.9,29l.4,1.6c-4.7,1.8-7.6-2.6-3.3-6-.5-.1-1-.1-1.7,0v-2.4h-1.3v-1.6h1.3v-.8h1.6v.8h1.3v1.6h-1.3v.7c.7,0,1.2.3,1.7.6.4-.2.9-.5,1.4-.7l.6,1.5c-.4.1-.7.3-1,.5.2.3.3.7.4,1.1l-1.5.7c0-.4-.2-.7-.3-1-3.2,2.3-1.2,4.5,1.7,3.3Z"/>
  <path class="st0" d="M346.3,19.9c0,1.7-.3,3.1-.9,4.4h.5v6.8h-1.6v-5.2c-.4.4-.8.8-1.3,1.1v-2.2c1.1-.8,1.8-2.6,1.8-4.8h1.6ZM349.8,19c0,1.1,0,2.1,0,3l3.1-.2v1.6l-3,.2c.3,2.9,1.1,4.4,3,6.3l-1.2,1.1c-1.8-1.8-2.9-3.7-3.4-7.3h-2c0,.1,0-1.5,0-1.5h1.9c0-1.1,0-2.1,0-3.3h1.6ZM352.2,19v2.3c.1,0-1.5,0-1.5,0v-2.3c-.1,0,1.5,0,1.5,0Z"/>
  <path class="st0" d="M360.8,24v.9h4.2v1.6h-3.3c.2.5.6,1,1,1.5l1.2-1.1,1.1,1.2-1,.9c.3.2.6.4,1,.5l-.6,1.5c-2.5-.9-3.8-2.7-4.4-4.6h-.2c-.3.4-.7.8-1.2,1.1v1.7c1.2-.1,1.8-.3,1.8-.3v1.6s-2.2.5-5,.5v-1.6c.6,0,1.1,0,1.6,0v-.9c-.5.2-1,.4-1.6.5l-.4-1.6c.9-.2,1.7-.5,2.4-.8h-2.4v-1.6h4.2v-.9h-3.6v-1.6h3.6v-.9h-3.9v-1.6h3.9v-1.2h1.6v1.2h3.9v1.6h-3.9v.9h3.6v1.6h-3.6Z"/>
  <path class="st0" d="M372.3,22.2h-3.8v-1.6h3.8v-.8h1.6v.8h1.5v1.6h-1.5v3.9c0,3.4-1.2,4.8-1.2,4.8l-1.4-.8s.4-.5.8-1.8c-1.8,0-2.6-.8-2.6-2.2s1.2-2.1,2.9-2.2v-1.8h0ZM372.2,26.2c0-.3-.3-.6-.6-.6s-.6.3-.6.6.3.6.6.6c.3,0,.6-.3.6-.6Z"/>
  <path class="st0" d="M384.2,24.4c1.5.4,2.5,1.6,2.5,3.2s-1.1,3.4-3.3,3.4-1.9-.1-2.6-.9c-.5-.5-.5-1.2-.3-1.8.4-1,1.4-1.5,2.4-1.1.8.3,1.3,1.1,1.2,2,.6-.3.9-.9.9-1.6,0-1.2-.9-2-3-1.9l1.2-4.3h-2.3v-1.6h4.5l-1.3,4.6ZM382.5,28.5c-.3,0-.5,0-.6.3,0,.2,0,.5.3.6.3,0,.5,0,.6-.3,0-.2,0-.5-.3-.6Z"/>
  <path class="st0" d="M396.2,18.7v1.1h4.2v7.6h-4.2v3.6h-1.6v-3.6h-4.2v-7.6h4.2v-1.1s1.6,0,1.6,0ZM394.6,25.8v-4.3h-2.6v4.3s2.6,0,2.6,0ZM398.8,21.4h-2.6v4.3h2.6v-4.3Z"/>
  <path class="st0" d="M404.9,22.3c0,3.6-.2,4.9-1.1,6.5l-1.4-.8c.8-1.3.9-2.5.9-5.7h1.6ZM408.2,28.4c0,1.9-.8,2.6-2.5,2.6h-.5v-1.6h.5c.6,0,.8-.2.8-1v-9.4h1.6v9.4ZM411.5,22.3c0,3.2.1,4.4.9,5.7l-1.4.8c-.9-1.6-1.1-3-1.1-6.5h1.6Z"/>
  <path class="st0" d="M414.3,20c3.1-.4,5-1.6,5-1.6,0,0,1.9,1.2,5,1.6v1.6c-2.5-.3-4.2-1-5-1.4-.8.4-2.5,1.1-5,1.4v-1.6ZM420.6,26.1v3.2h3.8v1.6h-10v-1.6h1.4v-4.9h1.6v4.9h1.6v-7.6h1.6v2.7h3.3v1.6h-3.3Z"/>
  <path class="st0" d="M436.4,21.4h-1.5v1.3h1.5v1.6h-4.2v.6h3.8v1.2h-3.8v.6h4.1v1.6h-2.5c1.2.9,2.7,1,2.7,1l-.4,1.6s-2.2,0-3.8-1.7v1.7h-1.6v-1.7c-1.6,1.7-3.8,1.7-3.8,1.7l-.4-1.6s1.5-.1,2.7-1h-2.5v-1.6h4.1v-.6h-3.8v-1.2h3.8v-.6h-4.2v-1.6h1.5v-1.3h-1.5v-1.6h.7l-.3-1.1h1.7l.3,1.1h.6v-1.1h1.6v1.1h.9v-1.1h1.6v1.1h.6l.2-1.1h1.7l-.2,1.1h.7v1.6h0ZM433.3,22.7v-1.3h-3.8v1.3h3.8Z"/>
  <path class="st1" d="M267.5,48.7h3.6v5.8h-3.6v9.1h-5.8v-9.1h-14.1v-5.8l7.5-28.3h6l-7.4,28.3h8.1v-21.2h5.8v21.2h0Z"/>
  <path class="st1" d="M299,31.1v21.8c0,7.9-5.6,11.3-11.8,11.3s-11.8-3.3-11.8-11.3v-21.8c0-7.9,5.6-11.2,11.8-11.2s11.8,3.3,11.8,11.2ZM293.2,31.1c0-3.8-1.9-5.4-5.9-5.4s-6,1.6-6,5.4v21.8c0,3.8,1.9,5.5,6,5.5s5.9-1.7,5.9-5.5v-21.8Z"/>
  <path class="st0" d="M242.5,110.7h-1.7v-5.5h-3.4v5.5h-1.7v-12.8h1.7v5.5h3.4v-5.5h1.7v12.8Z"/>
  <path class="st3" d="M254.3,97.9l-3.2,6.6v6.2h-1.7v-6.2l-3.2-6.6h1.9l2.2,4.4,2.2-4.4h1.9Z"/>
  <path class="st0" d="M257.9,104.3c0-4.1,1.2-6.6,4-6.6s4,2.4,4,6.6-1.2,6.6-4,6.6-4-2.4-4-6.6ZM259.6,104.3c0,3.7.9,4.8,2.2,4.8s2.2-1.2,2.2-4.8-.9-4.8-2.2-4.8-2.2,1.2-2.2,4.8Z"/>
  <path class="st3" d="M269.4,107.5v-6.4c0-2.4,1.7-3.3,3.5-3.3s3.5,1,3.5,3.3v.9h-1.7v-.9c0-1.1-.6-1.6-1.8-1.6s-1.8.5-1.8,1.6v6.4c0,1.1.6,1.6,1.8,1.6s1.8-.5,1.8-1.6v-1.5h-2v-1.7h3.7v3.2c0,2.4-1.7,3.3-3.5,3.3s-3.5-1-3.5-3.3Z"/>
  <path class="st0" d="M279.9,104.3c0-4.1,1.2-6.6,4-6.6s4,2.4,4,6.6-1.2,6.6-4,6.6-4-2.4-4-6.6ZM281.7,104.3c0,3.7.9,4.8,2.2,4.8s2.2-1.2,2.2-4.8-.9-4.8-2.2-4.8-2.2,1.2-2.2,4.8Z"/>
  <path class="st3" d="M302.5,106.9c0-1-.7-1.7-2.1-2-1.9-.5-3.4-1.4-3.4-3.8s1.8-3.3,3.4-3.3,3.5,1,3.5,3.3h-1.7c0-1.1-.6-1.6-1.8-1.6s-1.7.6-1.7,1.6.5,1.8,1.7,2.1c2.1.5,3.8,1.4,3.8,3.8s-1.6,3.9-3.8,3.9-3.8-1.5-3.8-3.9h1.7c0,1.3.8,2.2,2.1,2.2s2.1-.9,2.1-2.2Z"/>
  <path class="st0" d="M314.7,110.7h-1.7v-5.5h-3.4v5.5h-1.7v-12.8h1.7v5.5h3.4v-5.5h1.7v12.8Z"/>
  <path class="st3" d="M318.3,97.9h1.7v9.6c0,1.1.6,1.6,1.8,1.6s1.8-.5,1.8-1.6v-9.6h1.7v9.6c0,2.4-1.7,3.3-3.5,3.3s-3.5-1-3.5-3.3v-9.6Z"/>
  <path class="st0" d="M334.8,106.9c0-1-.7-1.7-2.1-2-1.9-.5-3.4-1.4-3.4-3.8s1.8-3.3,3.4-3.3,3.5,1,3.5,3.3h-1.7c0-1.1-.6-1.6-1.8-1.6s-1.7.6-1.7,1.6.5,1.8,1.7,2.1c2.1.5,3.8,1.4,3.8,3.8s-1.6,3.9-3.8,3.9-3.8-1.5-3.8-3.9h1.7c0,1.3.8,2.2,2.1,2.2s2.1-.9,2.1-2.2Z"/>
  <path class="st3" d="M346.9,110.7h-1.7v-5.5h-3.4v5.5h-1.7v-12.8h1.7v5.5h3.4v-5.5h1.7v12.8Z"/>
  <path class="st0" d="M350.5,104.3c0-4.1,1.2-6.6,4-6.6s4,2.4,4,6.6-1.2,6.6-4,6.6-4-2.4-4-6.6ZM352.2,104.3c0,3.7.9,4.8,2.2,4.8s2.2-1.2,2.2-4.8-.9-4.8-2.2-4.8-2.2,1.2-2.2,4.8Z"/>
  <path class="st3" d="M362,110.7v-12.8h1.7v5.7l3.5-5.7h2l-3.9,6.4,3.9,6.4h-2l-3.5-5.7v5.7h-1.7Z"/>
  <path class="st0" d="M372.5,97.9h1.7v9.6c0,1.1.6,1.6,1.8,1.6s1.8-.5,1.8-1.6v-9.6h1.7v9.6c0,2.4-1.7,3.3-3.5,3.3s-3.5-1-3.5-3.3v-9.6Z"/>
  <path class="st3" d="M394.2,106.9c0-1-.7-1.7-2.1-2-1.9-.5-3.4-1.4-3.4-3.8s1.8-3.3,3.4-3.3,3.5,1,3.5,3.3h-1.7c0-1.1-.6-1.6-1.8-1.6s-1.7.6-1.7,1.6.5,1.8,1.7,2.1c2.1.5,3.8,1.4,3.8,3.8s-1.6,3.9-3.8,3.9-3.8-1.5-3.8-3.9h1.7c0,1.3.8,2.2,2.1,2.2s2.1-.9,2.1-2.2Z"/>
  <path class="st0" d="M399.5,97.9h1.7v9.6c0,1.1.6,1.6,1.8,1.6s1.8-.5,1.8-1.6v-9.6h1.7v9.6c0,2.4-1.7,3.3-3.5,3.3s-3.5-1-3.5-3.3v-9.6Z"/>
  <path class="st3" d="M410.1,97.4l4.6,6.5,4.6-6.5v13.3h-1.7v-7.9l-2.9,4.1-2.9-4.1v7.9h-1.7v-13.3Z"/>
  <path class="st0" d="M423,97.4l4.6,6.5,4.6-6.5v13.3h-1.7v-7.9l-2.9,4.1-2.9-4.1v7.9h-1.7v-13.3Z"/>
  <path class="st3" d="M436.6,110.7v-12.8h1.7v12.8h-1.7Z"/>
  <path class="st0" d="M447,110.7h-1.7v-11.1h-2.6v-1.7h6.8v1.7h-2.5v11.1Z"/>
</svg>