<?xml version="1.0" encoding="utf-8"?>
<!-- Generator: Adobe Illustrator 15.0.0, SVG Export Plug-In . SVG Version: 6.00 Build 0)  -->
<!DOCTYPE svg PUBLIC "-//W3C//DTD SVG 1.1//EN" "http://www.w3.org/Graphics/SVG/1.1/DTD/svg11.dtd">
<svg version="1.1" id="レイヤー_1" xmlns="http://www.w3.org/2000/svg" xmlns:xlink="http://www.w3.org/1999/xlink" x="0px"
	 y="0px" width="93.185px" height="73.713px" viewBox="9.101 34.203 93.185 73.713"
	 enable-background="new 9.101 34.203 93.185 73.713" xml:space="preserve">
<g enable-background="new    ">
	<path fill="#FFFFFF" d="M42.771,81.89h6.097v9.828h-6.097v15.288h-9.828V91.718H9.101V81.89l12.558-47.687H31.76L19.293,81.89
		h13.65V46.216h9.828V81.89z"/>
	<path fill="#FFFFFF" d="M102.285,79.705v9.191c0,13.378-9.465,19.02-19.839,19.02c-10.466,0-19.93-5.642-19.93-19.02h9.828
		c0,6.461,3.276,9.191,10.102,9.191s10.011-2.73,10.011-9.191v-9.191c0-6.37-3.186-9.191-10.011-9.191
		c-3.276,0-7.007,1.274-9.282,4.642h-9.828l2.184-40.952h33.944v9.829H74.802l-0.91,18.291c2.548-1.001,5.369-1.638,8.555-1.638
		C92.82,60.686,102.285,66.328,102.285,79.705z"/>
</g>
</svg>
