<svg xmlns="http://www.w3.org/2000/svg" width="88.634" height="74.62" viewBox="0 0 88.634 74.62">
  <path id="パス_46311" data-name="パス 46311" d="M-24.388-67.7c-10.465,0-19.929,5.551-19.929,18.928v4.823h9.828v-4.823c0-6.37,3.276-9.1,10.1-9.1s10.01,2.73,10.01,9.1c0,13.832-29.939,33.67-29.939,44.954V6.006H-4.55V-3.822H-34.216C-31.395-13.923-4.55-31.4-4.55-48.776-4.55-62.153-14.014-67.7-24.388-67.7Zm48.867,9.828c6.825,0,10.01,2.73,10.01,9.191h9.828c0-13.468-9.464-19.019-19.838-19.019C14.014-67.7,4.55-62.153,4.55-48.685V-12.1c0,13.377,9.464,19.019,19.929,19.019,10.374,0,19.838-5.642,19.838-19.019v-9.191c0-13.377-9.464-19.019-19.838-19.019a24.457,24.457,0,0,0-10.1,2.093V-48.685C14.378-55.146,17.654-57.876,24.479-57.876Zm0,27.391c6.825,0,10.01,2.821,10.01,9.191V-12.1c0,6.461-3.185,9.191-10.01,9.191s-10.1-2.73-10.1-9.191v-9.191C14.378-27.664,17.654-30.485,24.479-30.485Z" transform="translate(44.317 67.704)" fill="#fff"/>
</svg>
